<svg width="4986" height="1116" viewBox="0 0 4986 1116" fill="none" xmlns="http://www.w3.org/2000/svg">
<path d="M1716.3 31.936H1695.7V24H1716.3V12.992H1725.01V24H1746.13V12.992H1754.96V24H1777.49V31.936H1754.96V41.152H1746.13V31.936H1725.01V41.152H1716.3V31.936ZM1689.81 35.264C1688.7 34.1547 1687.29 32.96 1685.58 31.68C1683.96 30.4 1682.17 29.12 1680.21 27.84C1678.33 26.56 1676.33 25.3227 1674.19 24.128C1672.14 22.9333 1670.14 21.8667 1668.18 20.928L1673.55 14.016C1675.51 14.8693 1677.52 15.8507 1679.57 16.96C1681.62 18.0693 1683.62 19.2213 1685.58 20.416C1687.55 21.6107 1689.38 22.848 1691.09 24.128C1692.79 25.3227 1694.2 26.5173 1695.31 27.712L1689.81 35.264ZM1683.54 68.544C1682.43 67.52 1681.02 66.4107 1679.31 65.216C1677.69 64.0213 1675.9 62.8267 1673.94 61.632C1671.97 60.4373 1669.93 59.2853 1667.79 58.176C1665.66 56.9813 1663.61 55.9573 1661.65 55.104L1667.02 48.064C1668.99 48.832 1670.99 49.7707 1673.04 50.88C1675.09 51.904 1677.09 52.9707 1679.06 54.08C1681.1 55.1893 1682.98 56.3413 1684.69 57.536C1686.39 58.6453 1687.85 59.712 1689.04 60.736L1683.54 68.544ZM1693.26 86.976C1691.81 90.304 1690.28 93.76 1688.66 97.344C1687.03 100.928 1685.37 104.512 1683.66 108.096C1681.96 111.68 1680.21 115.179 1678.42 118.592C1676.71 121.92 1675.05 125.077 1673.42 128.064L1665.1 122.176C1666.64 119.701 1668.26 116.885 1669.97 113.728C1671.76 110.485 1673.55 107.072 1675.34 103.488C1677.22 99.904 1679.06 96.2347 1680.85 92.48C1682.64 88.64 1684.3 84.928 1685.84 81.344L1693.26 86.976ZM1730.9 64.448V51.008H1711.18V64.448H1730.9ZM1760.85 51.008H1740.11V64.448H1760.85V51.008ZM1745.23 104.128C1748.73 108.736 1753.34 112.576 1759.06 115.648C1764.86 118.635 1771.64 120.768 1779.41 122.048C1778.3 122.901 1777.19 124.096 1776.08 125.632C1774.97 127.253 1774.07 128.661 1773.39 129.856C1764.6 127.893 1757.01 124.736 1750.61 120.384C1744.21 116.117 1739.22 110.699 1735.63 104.128H1735.12C1732.47 109.163 1728.17 113.941 1722.19 118.464C1716.3 122.901 1708.03 126.741 1697.36 129.984C1696.76 128.96 1695.91 127.68 1694.8 126.144C1693.69 124.693 1692.67 123.499 1691.73 122.56C1700.52 120.256 1707.47 117.525 1712.59 114.368C1717.71 111.211 1721.64 107.797 1724.37 104.128H1694.29V96.448H1728.59C1729.62 93.4613 1730.26 90.5173 1730.51 87.616H1699.66V80.064H1730.9V71.488H1702.86V43.84H1769.55V71.488H1740.11V80.064H1773.01V87.616H1739.86C1739.69 89.0667 1739.47 90.56 1739.22 92.096C1738.96 93.5467 1738.62 94.9973 1738.19 96.448H1778.26V104.128H1745.23ZM1829.97 56.64H1820.62V26.816H1868.88V12.736H1878.74V26.816H1927.25V56.64H1917.52V35.648H1829.97V56.64ZM1928.91 90.56H1879.12V117.952C1879.12 120.768 1878.65 122.944 1877.71 124.48C1876.86 126.016 1875.32 127.168 1873.1 127.936C1870.89 128.619 1868.03 129.045 1864.53 129.216C1861.11 129.387 1856.72 129.472 1851.34 129.472C1850.92 128.107 1850.28 126.528 1849.42 124.736C1848.66 122.944 1847.85 121.408 1846.99 120.128C1849.21 120.213 1851.34 120.256 1853.39 120.256C1855.44 120.341 1857.32 120.384 1859.02 120.384C1860.73 120.384 1862.22 120.341 1863.5 120.256C1864.78 120.256 1865.68 120.256 1866.19 120.256C1867.39 120.171 1868.15 120 1868.5 119.744C1868.92 119.403 1869.14 118.763 1869.14 117.824V90.56H1819.47V81.472H1869.14V72H1873.87C1877.11 70.1227 1880.27 68.032 1883.34 65.728C1886.5 63.3387 1889.36 60.9067 1891.92 58.432H1840.08V49.6H1900.75L1902.8 49.088L1909.07 53.824C1905.23 58.176 1900.62 62.4853 1895.25 66.752C1889.96 70.9333 1884.58 74.5173 1879.12 77.504V81.472H1928.91V90.56ZM1629.36 251.84H1615.4C1611.22 245.696 1605.89 238.315 1599.4 229.696C1592.83 220.992 1586.69 212.715 1580.97 204.864L1571.37 214.464V251.84H1560.49V159.168H1571.37V203.072L1610.67 159.168H1624.62L1588.14 197.952C1602.9 216.981 1616.64 234.944 1629.36 251.84ZM1715.23 251.84H1704.99C1703.54 249.109 1702.73 245.909 1702.56 242.24C1698.38 249.152 1691.21 252.821 1681.06 253.248C1675.59 253.248 1671.07 252.053 1667.49 249.664C1662.71 246.507 1660.32 241.728 1660.32 235.328C1660.32 228.331 1663.65 222.827 1670.3 218.816C1672.61 217.451 1676.02 216.213 1680.54 215.104C1683.45 214.421 1687.5 213.653 1692.7 212.8C1698.08 211.861 1701.24 211.264 1702.18 211.008V205.376C1702.18 201.707 1701.24 198.805 1699.36 196.672C1697.14 194.112 1693.73 192.832 1689.12 192.832C1684.85 192.832 1681.35 193.984 1678.62 196.288C1676.15 198.336 1674.66 200.981 1674.14 204.224H1664.29C1665.31 198.848 1667.79 194.411 1671.71 190.912C1676.23 186.901 1681.95 184.853 1688.86 184.768C1704.05 184.768 1711.65 192.491 1711.65 207.936C1711.65 208.107 1711.65 208.277 1711.65 208.448L1711.39 235.2C1711.39 241.003 1712.67 246.549 1715.23 251.84ZM1702.18 229.312V218.56C1698.59 219.157 1694.24 219.925 1689.12 220.864C1684 221.803 1679.9 223.04 1676.83 224.576C1672.39 227.221 1670.18 230.507 1670.18 234.432C1670.18 241.6 1674.27 245.184 1682.46 245.184C1687.24 245.184 1691.51 243.776 1695.26 240.96C1699.27 237.973 1701.58 234.091 1702.18 229.312ZM1810.43 209.088V251.84H1800.19V211.776C1800.19 206.485 1799.38 202.475 1797.76 199.744C1795.28 195.648 1790.85 193.6 1784.45 193.6C1779.58 193.6 1775.27 195.563 1771.52 199.488C1767.94 203.243 1766.14 207.168 1766.14 211.264V251.84H1755.9V187.072H1766.02V196.288C1770.28 189.12 1777.02 185.408 1786.24 185.152C1786.41 185.152 1786.54 185.152 1786.62 185.152C1794.56 185.152 1800.62 187.499 1804.8 192.192C1808.55 196.459 1810.43 202.091 1810.43 209.088ZM1871.77 159.168V171.2H1859.35V159.168H1871.77ZM1870.74 249.92C1870.74 258.965 1869.46 265.835 1866.9 270.528C1863.23 277.269 1856.75 280.939 1847.45 281.536L1842.46 272.192C1842.8 272.192 1843.14 272.192 1843.48 272.192C1850.82 272.192 1855.73 269.589 1858.2 264.384C1859.74 261.141 1860.5 255.765 1860.5 248.256V187.072H1870.62V234.688C1870.62 241.429 1870.66 246.507 1870.74 249.92ZM1928.39 159.168V171.2H1915.98V159.168H1928.39ZM1927.24 186.944V251.84H1917.13V186.944H1927.24Z" fill="black"/>
<path d="M940.413 501.928H887.933V546.728H878.205V501.928H826.493V492.584H878.205V447.912H833.149V438.568H933.245V447.912H887.933V492.584H940.413V501.928ZM850.429 454.184C851.709 456.488 852.989 458.92 854.269 461.48C855.549 464.04 856.744 466.6 857.853 469.16C858.962 471.72 859.901 474.195 860.669 476.584C861.522 478.973 862.162 481.107 862.589 482.984L853.629 486.056C853.202 484.179 852.562 482.045 851.709 479.656C850.941 477.181 850.045 474.664 849.021 472.104C847.997 469.459 846.888 466.813 845.693 464.168C844.498 461.523 843.304 459.048 842.109 456.744L850.429 454.184ZM901.885 483.752C903.08 481.789 904.317 479.528 905.597 476.968C906.877 474.408 908.114 471.805 909.309 469.16C910.589 466.429 911.784 463.741 912.893 461.096C914.002 458.365 914.941 455.848 915.709 453.544L925.693 456.36C924.584 458.92 923.346 461.565 921.981 464.296C920.701 467.027 919.378 469.715 918.013 472.36C916.648 475.005 915.282 477.523 913.917 479.912C912.552 482.301 911.229 484.477 909.949 486.44L901.885 483.752ZM1089.15 475.048H1053.31V466.856H1080.32V443.816H1053.31V435.624H1089.15V475.048ZM1009.02 432.552C1007.83 437.16 1006.5 441.683 1005.05 446.12C1003.69 450.472 1002.19 454.781 1000.57 459.048V546.728H991.485V478.632C990.12 481.107 988.712 483.496 987.261 485.8C985.896 488.019 984.445 490.109 982.909 492.072C982.482 490.877 981.757 489.299 980.733 487.336C979.709 485.288 978.77 483.667 977.917 482.472C982.781 476.072 987.09 468.307 990.845 459.176C994.685 450.045 997.8 440.531 1000.19 430.632L1009.02 432.552ZM1022.08 443.688V467.112H1039.74V443.688H1022.08ZM1022.08 521V546.472H1013.24V435.624H1048.19V475.304H1022.08V489H1045.37V497.064H1022.08V512.936H1046.78V521H1022.08ZM1059.58 492.968C1060.78 497.32 1062.23 501.459 1063.93 505.384C1065.64 509.309 1067.69 513.064 1070.08 516.648C1072.38 513.32 1074.43 509.693 1076.22 505.768C1078.01 501.843 1079.51 497.576 1080.7 492.968H1059.58ZM1090.81 486.44C1089.36 494.205 1087.31 501.16 1084.67 507.304C1082.02 513.448 1078.87 518.952 1075.2 523.816C1078.1 527.229 1081.3 530.301 1084.8 533.032C1088.3 535.677 1092.09 537.811 1096.19 539.432C1095.25 540.285 1094.23 541.395 1093.12 542.76C1092.01 544.211 1091.11 545.533 1090.43 546.728C1086.33 544.851 1082.58 542.504 1079.16 539.688C1075.75 536.957 1072.59 533.8 1069.69 530.216C1065.94 533.971 1061.88 537.213 1057.53 539.944C1053.27 542.76 1048.7 545.149 1043.84 547.112C1043.32 546.003 1042.6 544.765 1041.66 543.4C1040.72 542.035 1039.78 540.925 1038.84 540.072C1043.71 538.365 1048.32 536.104 1052.67 533.288C1057.02 530.472 1060.99 527.144 1064.57 523.304C1061.84 519.037 1059.45 514.515 1057.4 509.736C1055.36 504.872 1053.61 499.752 1052.16 494.376L1057.92 492.968H1049.72V484.904H1083.77L1085.44 484.648L1090.81 486.44ZM1230.08 532.904V501.416H1177.6V532.904H1230.08ZM1171.2 451.24C1169.75 452.861 1168.3 454.483 1166.84 456.104C1165.39 457.64 1163.82 459.133 1162.11 460.584C1164.24 462.12 1166.42 463.741 1168.64 465.448C1170.94 467.155 1173.12 468.904 1175.16 470.696C1177.3 472.488 1179.3 474.28 1181.18 476.072C1183.14 477.864 1184.85 479.571 1186.3 481.192C1191.08 476.84 1195.43 472.189 1199.36 467.24C1203.28 462.205 1206.61 456.872 1209.34 451.24H1171.2ZM1239.68 546.984H1230.08V541.608H1177.6V546.728H1168.25V506.28C1157.84 512.424 1147.35 517.203 1136.76 520.616C1136.17 519.336 1135.31 517.885 1134.2 516.264C1133.18 514.557 1132.16 513.235 1131.13 512.296C1139.32 509.907 1147.47 506.664 1155.58 502.568C1163.69 498.387 1171.37 493.437 1178.62 487.72C1177.26 486.099 1175.63 484.392 1173.76 482.6C1171.96 480.808 1170.04 479.016 1168 477.224C1165.95 475.347 1163.82 473.512 1161.6 471.72C1159.46 469.928 1157.33 468.264 1155.2 466.728C1152.64 468.776 1149.95 470.781 1147.13 472.744C1144.4 474.707 1141.5 476.584 1138.43 478.376C1137.75 477.267 1136.72 475.987 1135.36 474.536C1134.08 473.085 1132.88 471.933 1131.77 471.08C1137.06 468.264 1141.93 465.149 1146.36 461.736C1150.8 458.323 1154.81 454.824 1158.4 451.24C1161.98 447.571 1165.14 443.901 1167.87 440.232C1170.6 436.477 1172.9 432.893 1174.78 429.48L1185.4 431.656C1184.3 433.448 1183.14 435.283 1181.95 437.16C1180.75 438.952 1179.47 440.787 1178.11 442.664H1214.2L1216 442.152L1222.27 445.48C1218.43 455.037 1213.52 463.741 1207.55 471.592C1201.58 479.357 1194.83 486.397 1187.32 492.712H1239.68V546.984ZM1422.41 540.84H1409.49L1397.07 527.016C1394.6 529.661 1392.16 531.923 1389.77 533.8C1381.75 539.859 1374.07 542.888 1366.73 542.888C1366.05 542.888 1365.33 542.845 1364.56 542.76C1356.62 542.077 1350.39 539.005 1345.87 533.544C1342.2 529.107 1340.37 524.243 1340.37 518.952C1340.37 517.075 1340.62 515.112 1341.13 513.064C1343.18 504.531 1349.37 496.723 1359.69 489.64L1362.38 487.976C1358.63 483.453 1355.9 479.613 1354.19 476.456C1352.14 472.701 1351.12 469.117 1351.12 465.704C1351.12 465.619 1351.12 465.491 1351.12 465.32C1351.12 460.029 1353.12 455.507 1357.13 451.752C1361.14 447.997 1366.18 446.12 1372.24 446.12C1378.89 446.12 1384.1 448.083 1387.85 452.008C1391.01 455.336 1392.63 459.432 1392.72 464.296C1392.72 464.467 1392.72 464.595 1392.72 464.68C1392.72 469.288 1391.31 473.512 1388.49 477.352C1386.45 480.168 1383.08 483.24 1378.38 486.568L1375.05 489C1380.52 495.315 1387.77 503.379 1396.81 513.192C1401.34 506.877 1405.35 499.453 1408.85 490.92H1419.47C1414.09 502.952 1408.63 512.637 1403.09 519.976C1410 527.571 1416.44 534.525 1422.41 540.84ZM1360.59 465.32C1360.59 468.051 1361.49 470.995 1363.28 474.152C1364.64 476.541 1366.82 479.485 1369.81 482.984L1373.13 480.552C1376.46 477.992 1378.94 475.56 1380.56 473.256C1382.52 470.44 1383.5 467.496 1383.5 464.424C1383.42 461.096 1382.26 458.451 1380.05 456.488C1378 454.696 1375.44 453.8 1372.37 453.8C1372.28 453.8 1372.15 453.8 1371.98 453.8C1368.82 453.971 1366.18 454.995 1364.05 456.872C1361.74 458.92 1360.59 461.608 1360.59 464.936C1360.59 465.107 1360.59 465.235 1360.59 465.32ZM1384.78 526.888C1386.83 525.096 1388.96 522.963 1391.18 520.488C1385.04 513.661 1377.19 504.872 1367.63 494.12L1364.43 496.296C1361.87 498.088 1359.65 499.965 1357.77 501.928C1352.82 507.133 1350.35 512.381 1350.35 517.672C1350.35 519.379 1350.61 521.128 1351.12 522.92C1352.82 528.211 1356.49 531.667 1362.13 533.288C1364 533.8 1365.88 534.056 1367.76 534.056C1373.39 534.056 1379.06 531.667 1384.78 526.888ZM1535.95 475.56C1535.95 478.461 1535.91 481.363 1535.82 484.264C1535.74 487.08 1535.61 489.939 1535.44 492.84H1598.29V546.728H1588.18V502.568H1534.42C1533.39 510.589 1531.47 518.397 1528.66 525.992C1525.84 533.501 1521.49 540.499 1515.6 546.984C1514.83 545.789 1513.68 544.467 1512.14 543.016C1510.69 541.565 1509.41 540.413 1508.3 539.56C1512.31 535.037 1515.51 530.216 1517.9 525.096C1520.29 519.976 1522.09 514.685 1523.28 509.224C1524.56 503.763 1525.37 498.216 1525.71 492.584C1526.05 486.867 1526.22 481.235 1526.22 475.688V433.32H1535.95V462.888H1572.18V430.12H1582.16V462.888H1618V472.488H1535.95V475.56ZM1772.62 475.048H1736.78V466.856H1763.79V443.816H1736.78V435.624H1772.62V475.048ZM1692.5 432.552C1691.3 437.16 1689.98 441.683 1688.53 446.12C1687.16 450.472 1685.67 454.781 1684.05 459.048V546.728H1674.96V478.632C1673.59 481.107 1672.19 483.496 1670.74 485.8C1669.37 488.019 1667.92 490.109 1666.38 492.072C1665.96 490.877 1665.23 489.299 1664.21 487.336C1663.18 485.288 1662.25 483.667 1661.39 482.472C1666.26 476.072 1670.57 468.307 1674.32 459.176C1678.16 450.045 1681.27 440.531 1683.66 430.632L1692.5 432.552ZM1705.55 443.688V467.112H1723.22V443.688H1705.55ZM1705.55 521V546.472H1696.72V435.624H1731.66V475.304H1705.55V489H1728.85V497.064H1705.55V512.936H1730.26V521H1705.55ZM1743.06 492.968C1744.25 497.32 1745.7 501.459 1747.41 505.384C1749.11 509.309 1751.16 513.064 1753.55 516.648C1755.86 513.32 1757.9 509.693 1759.7 505.768C1761.49 501.843 1762.98 497.576 1764.18 492.968H1743.06ZM1774.29 486.44C1772.84 494.205 1770.79 501.16 1768.14 507.304C1765.5 513.448 1762.34 518.952 1758.67 523.816C1761.57 527.229 1764.77 530.301 1768.27 533.032C1771.77 535.677 1775.57 537.811 1779.66 539.432C1778.73 540.285 1777.7 541.395 1776.59 542.76C1775.48 544.211 1774.59 545.533 1773.9 546.728C1769.81 544.851 1766.05 542.504 1762.64 539.688C1759.23 536.957 1756.07 533.8 1753.17 530.216C1749.41 533.971 1745.36 537.213 1741.01 539.944C1736.74 542.76 1732.18 545.149 1727.31 547.112C1726.8 546.003 1726.07 544.765 1725.14 543.4C1724.2 542.035 1723.26 540.925 1722.32 540.072C1727.18 538.365 1731.79 536.104 1736.14 533.288C1740.5 530.472 1744.46 527.144 1748.05 523.304C1745.32 519.037 1742.93 514.515 1740.88 509.736C1738.83 504.872 1737.08 499.752 1735.63 494.376L1741.39 492.968H1733.2V484.904H1767.25L1768.91 484.648L1774.29 486.44ZM1913.55 532.904V501.416H1861.07V532.904H1913.55ZM1854.67 451.24C1853.22 452.861 1851.77 454.483 1850.32 456.104C1848.87 457.64 1847.29 459.133 1845.58 460.584C1847.72 462.12 1849.89 463.741 1852.11 465.448C1854.42 467.155 1856.59 468.904 1858.64 470.696C1860.77 472.488 1862.78 474.28 1864.66 476.072C1866.62 477.864 1868.33 479.571 1869.78 481.192C1874.55 476.84 1878.91 472.189 1882.83 467.24C1886.76 462.205 1890.09 456.872 1892.82 451.24H1854.67ZM1923.15 546.984H1913.55V541.608H1861.07V546.728H1851.73V506.28C1841.32 512.424 1830.82 517.203 1820.24 520.616C1819.64 519.336 1818.79 517.885 1817.68 516.264C1816.66 514.557 1815.63 513.235 1814.61 512.296C1822.8 509.907 1830.95 506.664 1839.06 502.568C1847.16 498.387 1854.84 493.437 1862.1 487.72C1860.73 486.099 1859.11 484.392 1857.23 482.6C1855.44 480.808 1853.52 479.016 1851.47 477.224C1849.42 475.347 1847.29 473.512 1845.07 471.72C1842.94 469.928 1840.81 468.264 1838.67 466.728C1836.11 468.776 1833.42 470.781 1830.61 472.744C1827.88 474.707 1824.98 476.584 1821.9 478.376C1821.22 477.267 1820.2 475.987 1818.83 474.536C1817.55 473.085 1816.36 471.933 1815.25 471.08C1820.54 468.264 1825.4 465.149 1829.84 461.736C1834.28 458.323 1838.29 454.824 1841.87 451.24C1845.46 447.571 1848.61 443.901 1851.34 440.232C1854.07 436.477 1856.38 432.893 1858.26 429.48L1868.88 431.656C1867.77 433.448 1866.62 435.283 1865.42 437.16C1864.23 438.952 1862.95 440.787 1861.58 442.664H1897.68L1899.47 442.152L1905.74 445.48C1901.9 455.037 1897 463.741 1891.02 471.592C1885.05 479.357 1878.31 486.397 1870.8 492.712H1923.15V546.984ZM396.047 576.168V668.84H384.911V624.168H335.631V668.84H324.367V576.168H335.631V614.952H384.911V576.168H396.047ZM455.091 576.168V588.2H442.675V576.168H455.091ZM453.939 603.944V668.84H443.827V603.944H453.939ZM532.412 602.28L535.612 611.496C530.065 611.581 524.988 612.648 520.38 614.696C515.175 617 511.804 620.2 510.268 624.296V668.84H500.028V604.072H509.884V613.928C511.932 610.344 515.26 607.485 519.868 605.352C523.964 603.475 528.145 602.451 532.412 602.28ZM582.791 576.168V588.2H570.375V576.168H582.791ZM581.639 603.944V668.84H571.527V603.944H581.639ZM685.328 677.8C685.328 683.944 682.469 688.893 676.752 692.648C670.864 696.573 662.885 698.536 652.816 698.536C644.027 698.536 636.987 697.085 631.696 694.184C626.064 691.112 623.205 686.803 623.12 681.256C623.12 674.173 627.771 668.669 637.072 664.744C633.915 663.976 631.483 662.824 629.776 661.288C627.728 659.496 626.704 657.277 626.704 654.632C626.704 654.461 626.704 654.333 626.704 654.248C626.96 649.555 630.032 645.715 635.92 642.728C630.288 639.741 627.301 633.981 626.96 625.448C626.96 619.133 629.051 613.885 633.232 609.704C637.925 605.011 644.325 602.664 652.432 602.664C657.552 602.664 661.989 603.731 665.744 605.864C668.475 601 674.192 598.525 682.896 598.44L685.2 606.888C684.944 606.888 684.731 606.888 684.56 606.888C677.563 606.888 673.424 608.211 672.144 610.856C675.728 614.867 677.52 619.731 677.52 625.448C677.52 631.763 675.429 637.053 671.248 641.32C666.896 645.757 661.136 647.976 653.968 647.976C650.469 647.976 647.44 647.592 644.88 646.824C643.259 646.824 641.381 647.464 639.248 648.744C637.029 650.109 635.92 651.475 635.92 652.84C635.92 654.973 637.029 656.424 639.248 657.192C641.04 657.789 645.563 658.472 652.816 659.24C659.984 660.093 664.336 660.648 665.872 660.904C672.101 662.099 676.709 663.805 679.696 666.024C683.451 668.84 685.328 672.765 685.328 677.8ZM668.176 625.32C668.176 620.883 666.725 617.256 663.824 614.44C660.923 611.624 657.125 610.216 652.432 610.216C647.483 610.216 643.557 611.624 640.656 614.44C637.755 617.256 636.304 621.011 636.304 625.704C636.304 630.483 637.883 634.195 641.04 636.84C643.941 639.315 647.909 640.552 652.944 640.552C657.467 640.552 661.136 639.144 663.952 636.328C666.768 633.512 668.176 629.843 668.176 625.32ZM675.6 677.928C675.6 670.845 667.067 667.304 650 667.304C649.573 667.304 649.147 667.304 648.72 667.304C644.965 667.389 641.467 668.627 638.224 671.016C634.811 673.576 633.104 676.477 633.104 679.72C633.104 683.389 634.939 686.12 638.608 687.912C642.021 689.619 646.757 690.472 652.816 690.472C659.472 690.472 664.891 689.363 669.072 687.144C673.424 684.84 675.6 681.768 675.6 677.928ZM771.257 668.84H761.017C759.566 666.109 758.756 662.909 758.585 659.24C754.404 666.152 747.236 669.821 737.081 670.248C731.62 670.248 727.097 669.053 723.513 666.664C718.734 663.507 716.345 658.728 716.345 652.328C716.345 645.331 719.673 639.827 726.329 635.816C728.633 634.451 732.046 633.213 736.569 632.104C739.47 631.421 743.524 630.653 748.729 629.8C754.105 628.861 757.262 628.264 758.201 628.008V622.376C758.201 618.707 757.262 615.805 755.385 613.672C753.166 611.112 749.753 609.832 745.145 609.832C740.878 609.832 737.38 610.984 734.649 613.288C732.174 615.336 730.681 617.981 730.169 621.224H720.313C721.337 615.848 723.812 611.411 727.737 607.912C732.26 603.901 737.977 601.853 744.889 601.768C760.078 601.768 767.673 609.491 767.673 624.936C767.673 625.107 767.673 625.277 767.673 625.448L767.417 652.2C767.417 658.003 768.697 663.549 771.257 668.84ZM758.201 646.312V635.56C754.617 636.157 750.265 636.925 745.145 637.864C740.025 638.803 735.929 640.04 732.857 641.576C728.42 644.221 726.201 647.507 726.201 651.432C726.201 658.6 730.297 662.184 738.489 662.184C743.268 662.184 747.534 660.776 751.289 657.96C755.3 654.973 757.604 651.091 758.201 646.312ZM866.456 626.088V668.84H856.216V628.776C856.216 623.485 855.405 619.475 853.784 616.744C851.309 612.648 846.872 610.6 840.472 610.6C835.608 610.6 831.299 612.563 827.544 616.488C823.96 620.243 822.168 624.168 822.168 628.264V668.84H811.928V604.072H822.04V613.288C826.307 606.12 833.048 602.408 842.264 602.152C842.435 602.152 842.563 602.152 842.648 602.152C850.584 602.152 856.643 604.499 860.824 609.192C864.579 613.459 866.456 619.091 866.456 626.088ZM961.457 668.84H951.217C949.766 666.109 948.956 662.909 948.785 659.24C944.604 666.152 937.436 669.821 927.281 670.248C921.82 670.248 917.297 669.053 913.713 666.664C908.934 663.507 906.545 658.728 906.545 652.328C906.545 645.331 909.873 639.827 916.529 635.816C918.833 634.451 922.246 633.213 926.769 632.104C929.67 631.421 933.724 630.653 938.929 629.8C944.305 628.861 947.462 628.264 948.401 628.008V622.376C948.401 618.707 947.462 615.805 945.585 613.672C943.366 611.112 939.953 609.832 935.345 609.832C931.078 609.832 927.58 610.984 924.849 613.288C922.374 615.336 920.881 617.981 920.369 621.224H910.513C911.537 615.848 914.012 611.411 917.937 607.912C922.46 603.901 928.177 601.853 935.089 601.768C950.278 601.768 957.873 609.491 957.873 624.936C957.873 625.107 957.873 625.277 957.873 625.448L957.617 652.2C957.617 658.003 958.897 663.549 961.457 668.84ZM948.401 646.312V635.56C944.817 636.157 940.465 636.925 935.345 637.864C930.225 638.803 926.129 640.04 923.057 641.576C918.62 644.221 916.401 647.507 916.401 651.432C916.401 658.6 920.497 662.184 928.689 662.184C933.468 662.184 937.734 660.776 941.489 657.96C945.5 654.973 947.804 651.091 948.401 646.312ZM1134.69 668.84H1121.76L1109.35 655.016C1106.87 657.661 1104.44 659.923 1102.05 661.8C1094.03 667.859 1086.35 670.888 1079.01 670.888C1078.33 670.888 1077.6 670.845 1076.83 670.76C1068.9 670.077 1062.67 667.005 1058.15 661.544C1054.48 657.107 1052.64 652.243 1052.64 646.952C1052.64 645.075 1052.9 643.112 1053.41 641.064C1055.46 632.531 1061.64 624.723 1071.97 617.64L1074.66 615.976C1070.9 611.453 1068.17 607.613 1066.47 604.456C1064.42 600.701 1063.39 597.117 1063.39 593.704C1063.39 593.619 1063.39 593.491 1063.39 593.32C1063.39 588.029 1065.4 583.507 1069.41 579.752C1073.42 575.997 1078.45 574.12 1084.51 574.12C1091.17 574.12 1096.37 576.083 1100.13 580.008C1103.29 583.336 1104.91 587.432 1104.99 592.296C1104.99 592.467 1104.99 592.595 1104.99 592.68C1104.99 597.288 1103.59 601.512 1100.77 605.352C1098.72 608.168 1095.35 611.24 1090.66 614.568L1087.33 617C1092.79 623.315 1100.04 631.379 1109.09 641.192C1113.61 634.877 1117.62 627.453 1121.12 618.92H1131.75C1126.37 630.952 1120.91 640.637 1115.36 647.976C1122.27 655.571 1128.72 662.525 1134.69 668.84ZM1072.87 593.32C1072.87 596.051 1073.76 598.995 1075.55 602.152C1076.92 604.541 1079.09 607.485 1082.08 610.984L1085.41 608.552C1088.74 605.992 1091.21 603.56 1092.83 601.256C1094.8 598.44 1095.78 595.496 1095.78 592.424C1095.69 589.096 1094.54 586.451 1092.32 584.488C1090.27 582.696 1087.71 581.8 1084.64 581.8C1084.56 581.8 1084.43 581.8 1084.26 581.8C1081.1 581.971 1078.45 582.995 1076.32 584.872C1074.02 586.92 1072.87 589.608 1072.87 592.936C1072.87 593.107 1072.87 593.235 1072.87 593.32ZM1097.06 654.888C1099.11 653.096 1101.24 650.963 1103.46 648.488C1097.31 641.661 1089.46 632.872 1079.91 622.12L1076.71 624.296C1074.15 626.088 1071.93 627.965 1070.05 629.928C1065.1 635.133 1062.62 640.381 1062.62 645.672C1062.62 647.379 1062.88 649.128 1063.39 650.92C1065.1 656.211 1068.77 659.667 1074.4 661.288C1076.28 661.8 1078.16 662.056 1080.03 662.056C1085.67 662.056 1091.34 659.667 1097.06 654.888ZM1295.33 668.84H1281.38C1277.2 662.696 1271.86 655.315 1265.38 646.696C1258.81 637.992 1252.66 629.715 1246.95 621.864L1237.35 631.464V668.84H1226.47V576.168H1237.35V620.072L1276.64 576.168H1290.59L1254.11 614.952C1268.88 633.981 1282.62 651.944 1295.33 668.84ZM1381.21 668.84H1370.97C1369.52 666.109 1368.71 662.909 1368.53 659.24C1364.35 666.152 1357.19 669.821 1347.03 670.248C1341.57 670.248 1337.05 669.053 1333.46 666.664C1328.68 663.507 1326.29 658.728 1326.29 652.328C1326.29 645.331 1329.62 639.827 1336.28 635.816C1338.58 634.451 1342 633.213 1346.52 632.104C1349.42 631.421 1353.47 630.653 1358.68 629.8C1364.05 628.861 1367.21 628.264 1368.15 628.008V622.376C1368.15 618.707 1367.21 615.805 1365.33 613.672C1363.12 611.112 1359.7 609.832 1355.09 609.832C1350.83 609.832 1347.33 610.984 1344.6 613.288C1342.12 615.336 1340.63 617.981 1340.12 621.224H1330.26C1331.29 615.848 1333.76 611.411 1337.69 607.912C1342.21 603.901 1347.93 601.853 1354.84 601.768C1370.03 601.768 1377.62 609.491 1377.62 624.936C1377.62 625.107 1377.62 625.277 1377.62 625.448L1377.37 652.2C1377.37 658.003 1378.65 663.549 1381.21 668.84ZM1368.15 646.312V635.56C1364.57 636.157 1360.21 636.925 1355.09 637.864C1349.97 638.803 1345.88 640.04 1342.81 641.576C1338.37 644.221 1336.15 647.507 1336.15 651.432C1336.15 658.6 1340.25 662.184 1348.44 662.184C1353.22 662.184 1357.48 660.776 1361.24 657.96C1365.25 654.973 1367.55 651.091 1368.15 646.312ZM1455.59 660.136L1450.47 669.096C1450.38 669.096 1450.3 669.096 1450.21 669.096H1449.96C1449.7 669.096 1449.49 669.096 1449.32 669.096H1448.8C1448.72 669.096 1448.63 669.096 1448.55 669.096H1448.42C1448.33 669.096 1448.25 669.096 1448.16 669.096H1448.04C1447.95 669.096 1447.86 669.096 1447.78 669.096H1447.65C1447.57 669.096 1447.48 669.096 1447.4 669.096H1444.2C1437.8 669.096 1432.8 667.603 1429.22 664.616C1425.55 661.544 1423.72 657.149 1423.72 651.432V612.008H1412.2V604.072H1423.72V584.872H1433.83V604.072H1452.9V612.008H1433.83V648.104C1433.83 652.797 1434.85 656.125 1436.9 658.088C1438.69 659.795 1441.68 660.648 1445.86 660.648C1446.12 660.648 1446.33 660.648 1446.5 660.648C1449.57 660.477 1452.6 660.307 1455.59 660.136ZM1537.28 668.84H1527.04C1525.59 666.109 1524.78 662.909 1524.61 659.24C1520.43 666.152 1513.26 669.821 1503.11 670.248C1497.64 670.248 1493.12 669.053 1489.54 666.664C1484.76 663.507 1482.37 658.728 1482.37 652.328C1482.37 645.331 1485.7 639.827 1492.35 635.816C1494.66 634.451 1498.07 633.213 1502.59 632.104C1505.5 631.421 1509.55 630.653 1514.75 629.8C1520.13 628.861 1523.29 628.264 1524.23 628.008V622.376C1524.23 618.707 1523.29 615.805 1521.41 613.672C1519.19 611.112 1515.78 609.832 1511.17 609.832C1506.9 609.832 1503.4 610.984 1500.67 613.288C1498.2 615.336 1496.71 617.981 1496.19 621.224H1486.34C1487.36 615.848 1489.84 611.411 1493.76 607.912C1498.28 603.901 1504 601.853 1510.91 601.768C1526.1 601.768 1533.7 609.491 1533.7 624.936C1533.7 625.107 1533.7 625.277 1533.7 625.448L1533.44 652.2C1533.44 658.003 1534.72 663.549 1537.28 668.84ZM1524.23 646.312V635.56C1520.64 636.157 1516.29 636.925 1511.17 637.864C1506.05 638.803 1501.95 640.04 1498.88 641.576C1494.44 644.221 1492.23 647.507 1492.23 651.432C1492.23 658.6 1496.32 662.184 1504.51 662.184C1509.29 662.184 1513.56 660.776 1517.31 657.96C1521.32 654.973 1523.63 651.091 1524.23 646.312ZM1601.5 630.568L1631.97 668.84H1619.42L1594.85 635.944L1588.06 642.088V668.84H1578.08V576.168H1588.06V632.36L1616.48 604.072H1628.9L1601.5 630.568ZM1716.86 668.84H1706.62C1705.17 666.109 1704.36 662.909 1704.18 659.24C1700 666.152 1692.84 669.821 1682.68 670.248C1677.22 670.248 1672.7 669.053 1669.11 666.664C1664.33 663.507 1661.94 658.728 1661.94 652.328C1661.94 645.331 1665.27 639.827 1671.93 635.816C1674.23 634.451 1677.65 633.213 1682.17 632.104C1685.07 631.421 1689.12 630.653 1694.33 629.8C1699.7 628.861 1702.86 628.264 1703.8 628.008V622.376C1703.8 618.707 1702.86 615.805 1700.98 613.672C1698.77 611.112 1695.35 609.832 1690.74 609.832C1686.48 609.832 1682.98 610.984 1680.25 613.288C1677.77 615.336 1676.28 617.981 1675.77 621.224H1665.91C1666.94 615.848 1669.41 611.411 1673.34 607.912C1677.86 603.901 1683.58 601.853 1690.49 601.768C1705.68 601.768 1713.27 609.491 1713.27 624.936C1713.27 625.107 1713.27 625.277 1713.27 625.448L1713.02 652.2C1713.02 658.003 1714.3 663.549 1716.86 668.84ZM1703.8 646.312V635.56C1700.22 636.157 1695.86 636.925 1690.74 637.864C1685.62 638.803 1681.53 640.04 1678.46 641.576C1674.02 644.221 1671.8 647.507 1671.8 651.432C1671.8 658.6 1675.9 662.184 1684.09 662.184C1688.87 662.184 1693.13 660.776 1696.89 657.96C1700.9 654.973 1703.2 651.091 1703.8 646.312ZM1812.06 626.088V668.84H1801.82V628.776C1801.82 623.485 1801.01 619.475 1799.38 616.744C1796.91 612.648 1792.47 610.6 1786.07 610.6C1781.21 610.6 1776.9 612.563 1773.14 616.488C1769.56 620.243 1767.77 624.168 1767.77 628.264V668.84H1757.53V604.072H1767.64V613.288C1771.91 606.12 1778.65 602.408 1787.86 602.152C1788.03 602.152 1788.16 602.152 1788.25 602.152C1796.18 602.152 1802.24 604.499 1806.42 609.192C1810.18 613.459 1812.06 619.091 1812.06 626.088ZM1907.06 668.84H1896.82C1895.37 666.109 1894.56 662.909 1894.39 659.24C1890.2 666.152 1883.04 669.821 1872.88 670.248C1867.42 670.248 1862.9 669.053 1859.31 666.664C1854.53 663.507 1852.15 658.728 1852.15 652.328C1852.15 645.331 1855.47 639.827 1862.13 635.816C1864.43 634.451 1867.85 633.213 1872.37 632.104C1875.27 631.421 1879.32 630.653 1884.53 629.8C1889.91 628.861 1893.06 628.264 1894 628.008V622.376C1894 618.707 1893.06 615.805 1891.19 613.672C1888.97 611.112 1885.55 609.832 1880.95 609.832C1876.68 609.832 1873.18 610.984 1870.45 613.288C1867.97 615.336 1866.48 617.981 1865.97 621.224H1856.11C1857.14 615.848 1859.61 611.411 1863.54 607.912C1868.06 603.901 1873.78 601.853 1880.69 601.768C1895.88 601.768 1903.47 609.491 1903.47 624.936C1903.47 625.107 1903.47 625.277 1903.47 625.448L1903.22 652.2C1903.22 658.003 1904.5 663.549 1907.06 668.84ZM1894 646.312V635.56C1890.42 636.157 1886.07 636.925 1880.95 637.864C1875.83 638.803 1871.73 640.04 1868.66 641.576C1864.22 644.221 1862 647.507 1862 651.432C1862 658.6 1866.1 662.184 1874.29 662.184C1879.07 662.184 1883.33 660.776 1887.09 657.96C1891.1 654.973 1893.4 651.091 1894 646.312Z" fill="black"/>
<path d="M786.429 880.528H717.437V871.696H745.341V848.4H754.813V871.696H786.429V880.528ZM734.589 943.888C734.504 940.56 734.205 936.677 733.693 932.24C733.181 927.803 732.541 923.152 731.773 918.288C731.005 913.424 730.066 908.475 728.957 903.44C727.933 898.405 726.824 893.669 725.629 889.232L733.949 887.568C735.229 892.091 736.424 896.827 737.533 901.776C738.728 906.725 739.752 911.632 740.605 916.496C741.458 921.275 742.184 925.84 742.781 930.192C743.378 934.544 743.72 938.384 743.805 941.712L734.589 943.888ZM699.517 915.6V952.72C699.517 955.451 699.176 957.499 698.493 958.864C697.81 960.315 696.616 961.424 694.909 962.192C693.202 962.875 690.984 963.301 688.253 963.472C685.522 963.728 681.938 963.813 677.501 963.728C677.33 962.619 676.989 961.211 676.477 959.504C675.965 957.797 675.368 956.347 674.685 955.152C677.672 955.237 680.402 955.28 682.877 955.28C685.352 955.28 687.016 955.28 687.869 955.28C689.49 955.28 690.301 954.427 690.301 952.72V918.288L673.021 923.408L670.205 914.064C673.021 913.381 676.093 912.613 679.421 911.76C682.834 910.907 686.461 909.968 690.301 908.944V881.424H672.253V872.72H690.301V846.992H699.517V872.72H713.981V881.424H699.517V906.384L715.133 901.904L716.285 910.608L699.517 915.6ZM788.605 949.392V958.352H710.909V949.392H753.917C755.112 945.211 756.264 940.475 757.373 935.184C758.568 929.893 759.677 924.432 760.701 918.8C761.725 913.168 762.664 907.579 763.517 902.032C764.37 896.485 765.053 891.323 765.565 886.544L775.549 888.08C774.696 893.029 773.757 898.235 772.733 903.696C771.794 909.072 770.77 914.448 769.661 919.824C768.637 925.2 767.57 930.448 766.461 935.568C765.352 940.603 764.242 945.211 763.133 949.392H788.605ZM939.133 868.368H892.413V948.368C892.413 952.208 891.816 955.024 890.621 956.816C889.512 958.608 887.592 959.931 884.861 960.784C882.13 961.723 878.333 962.277 873.469 962.448C868.69 962.619 862.589 962.704 855.165 962.704C854.738 961.168 854.098 959.333 853.245 957.2C852.392 955.152 851.496 953.403 850.557 951.952C853.544 952.037 856.445 952.123 859.261 952.208C862.162 952.208 864.808 952.251 867.197 952.336C869.586 952.336 871.677 952.336 873.469 952.336C875.261 952.251 876.584 952.208 877.437 952.208C878.973 952.123 880.04 951.824 880.637 951.312C881.32 950.715 881.661 949.691 881.661 948.24V868.368H827.517V858.64H939.133V868.368ZM1011.58 944.656V955.92C1011.58 961.637 1010.73 966.032 1009.02 969.104C1006.89 972.944 1003.26 975.248 998.141 976.016V969.104C1000.96 968.421 1002.83 966.928 1003.77 964.624C1004.37 963.173 1004.71 960.869 1004.8 957.712H998.141V944.656H1011.58ZM1190.91 852.88C1189.03 855.867 1187.07 858.853 1185.02 861.84C1183.06 864.741 1181.22 867.259 1179.52 869.392L1173.12 866.32C1173.88 865.211 1174.7 863.931 1175.55 862.48C1176.49 861.029 1177.38 859.579 1178.24 858.128C1179.09 856.592 1179.9 855.099 1180.67 853.648C1181.44 852.112 1182.08 850.704 1182.59 849.424L1190.91 852.88ZM1145.47 869.648C1144.87 867.429 1143.8 864.741 1142.27 861.584C1140.82 858.427 1139.24 855.525 1137.53 852.88L1144.7 849.936C1146.49 852.496 1148.16 855.312 1149.69 858.384C1151.23 861.456 1152.34 864.101 1153.02 866.32L1145.47 869.648ZM1208.96 879.632C1210.15 887.056 1211.64 894.181 1213.44 901.008C1215.31 907.749 1217.53 914.107 1220.09 920.08C1222.82 914.363 1225.08 908.133 1226.88 901.392C1228.67 894.651 1230.16 887.269 1231.36 879.248H1209.08L1208.96 879.632ZM1156.22 922.64C1155.28 924.432 1154.34 926.181 1153.4 927.888C1152.55 929.595 1151.7 931.301 1150.84 933.008C1153.4 934.032 1155.96 935.141 1158.52 936.336C1161.08 937.445 1163.6 938.597 1166.08 939.792C1168.04 937.488 1169.66 934.928 1170.94 932.112C1172.22 929.296 1173.29 926.139 1174.14 922.64H1156.22ZM1241.21 879.248C1239.59 889.659 1237.5 899.088 1234.94 907.536C1232.47 915.984 1229.27 923.664 1225.34 930.576C1228.58 936.123 1232.21 941.029 1236.22 945.296C1240.32 949.477 1244.92 952.933 1250.04 955.664C1248.94 956.603 1247.74 957.84 1246.46 959.376C1245.18 960.997 1244.2 962.448 1243.52 963.728C1238.57 960.827 1234.13 957.371 1230.2 953.36C1226.28 949.264 1222.74 944.656 1219.58 939.536C1215.74 944.571 1211.39 949.136 1206.52 953.232C1201.75 957.243 1196.2 960.869 1189.88 964.112C1189.46 963.259 1188.86 962.192 1188.09 960.912C1187.41 959.717 1186.64 958.565 1185.79 957.456L1182.84 960.528C1178.83 957.285 1173.84 953.915 1167.87 950.416C1164.11 953.488 1159.68 956.091 1154.56 958.224C1149.52 960.443 1143.55 962.277 1136.64 963.728C1136.3 962.448 1135.7 961.04 1134.84 959.504C1134.08 958.053 1133.22 956.859 1132.28 955.92C1138.17 954.896 1143.38 953.573 1147.9 951.952C1152.42 950.331 1156.31 948.325 1159.55 945.936C1157.5 944.912 1155.41 943.931 1153.28 942.992C1151.23 941.968 1149.14 940.987 1147 940.048L1144.96 943.632L1136.76 940.688C1138.22 938.213 1139.75 935.44 1141.37 932.368C1143.08 929.211 1144.79 925.968 1146.49 922.64H1132.03V914.704H1150.46C1151.4 912.741 1152.3 910.864 1153.15 909.072C1154.09 907.195 1154.94 905.403 1155.71 903.696L1159.04 904.464V886.8C1155.79 890.64 1152.21 894.224 1148.28 897.552C1144.44 900.795 1140.56 903.483 1136.64 905.616C1136.04 904.507 1135.23 903.269 1134.2 901.904C1133.27 900.453 1132.33 899.301 1131.39 898.448C1136 896.4 1140.52 893.541 1144.96 889.872C1149.48 886.203 1153.32 882.277 1156.48 878.096H1132.8V870.288H1159.04V846.864H1167.87V870.288H1193.85V878.096H1167.87V878.736C1169.23 879.504 1171.03 880.571 1173.24 881.936C1175.46 883.301 1177.72 884.709 1180.03 886.16C1182.33 887.611 1184.47 888.976 1186.43 890.256C1188.39 891.536 1189.8 892.517 1190.65 893.2L1185.4 899.984C1184.55 899.216 1183.44 898.277 1182.08 897.168C1180.8 896.059 1179.35 894.907 1177.72 893.712C1176.1 892.432 1174.44 891.152 1172.73 889.872C1171.03 888.507 1169.4 887.269 1167.87 886.16V905.232H1162.36L1164.54 905.744C1163.86 907.195 1163.13 908.688 1162.36 910.224C1161.68 911.675 1160.96 913.168 1160.19 914.704H1194.36V922.64H1183.23C1181.44 931.259 1178.41 938.384 1174.14 944.016C1176.96 945.552 1179.6 947.131 1182.08 948.752C1184.64 950.373 1186.9 951.909 1188.86 953.36C1199.7 947.387 1208.23 939.621 1214.46 930.064C1211.99 924.859 1209.81 919.312 1207.93 913.424C1206.06 907.536 1204.39 901.307 1202.94 894.736C1201.58 897.723 1200.08 900.581 1198.46 903.312C1196.92 905.957 1195.3 908.432 1193.6 910.736C1193.26 910.309 1192.74 909.797 1192.06 909.2C1191.46 908.603 1190.78 908.005 1190.01 907.408C1189.33 906.811 1188.6 906.213 1187.84 905.616C1187.07 905.019 1186.43 904.549 1185.92 904.208C1188.65 900.88 1191.08 897.083 1193.21 892.816C1195.43 888.464 1197.39 883.856 1199.1 878.992C1200.81 874.043 1202.3 868.88 1203.58 863.504C1204.86 858.043 1205.93 852.496 1206.78 846.864L1216.51 848.272C1215.83 852.112 1215.1 855.867 1214.33 859.536C1213.56 863.12 1212.71 866.704 1211.77 870.288H1248.89V879.248H1241.21ZM1300.09 890.64H1290.75V860.816H1339.01V846.736H1348.86V860.816H1397.37V890.64H1387.65V869.648H1300.09V890.64ZM1399.04 924.56H1349.25V951.952C1349.25 954.768 1348.78 956.944 1347.84 958.48C1346.98 960.016 1345.45 961.168 1343.23 961.936C1341.01 962.619 1338.15 963.045 1334.65 963.216C1331.24 963.387 1326.85 963.472 1321.47 963.472C1321.04 962.107 1320.4 960.528 1319.55 958.736C1318.78 956.944 1317.97 955.408 1317.12 954.128C1319.34 954.213 1321.47 954.256 1323.52 954.256C1325.57 954.341 1327.44 954.384 1329.15 954.384C1330.86 954.384 1332.35 954.341 1333.63 954.256C1334.91 954.256 1335.81 954.256 1336.32 954.256C1337.51 954.171 1338.28 954 1338.62 953.744C1339.05 953.403 1339.26 952.763 1339.26 951.824V924.56H1289.6V915.472H1339.26V906H1344C1347.24 904.123 1350.4 902.032 1353.47 899.728C1356.63 897.339 1359.49 894.907 1362.05 892.432H1310.21V883.6H1370.88L1372.93 883.088L1379.2 887.824C1375.36 892.176 1370.75 896.485 1365.37 900.752C1360.08 904.933 1354.71 908.517 1349.25 911.504V915.472H1399.04V924.56ZM1576.01 957.84H1563.09L1550.67 944.016C1548.2 946.661 1545.76 948.923 1543.37 950.8C1535.35 956.859 1527.67 959.888 1520.33 959.888C1519.65 959.888 1518.93 959.845 1518.16 959.76C1510.22 959.077 1503.99 956.005 1499.47 950.544C1495.8 946.107 1493.97 941.243 1493.97 935.952C1493.97 934.075 1494.22 932.112 1494.73 930.064C1496.78 921.531 1502.97 913.723 1513.29 906.64L1515.98 904.976C1512.23 900.453 1509.5 896.613 1507.79 893.456C1505.74 889.701 1504.72 886.117 1504.72 882.704C1504.72 882.619 1504.72 882.491 1504.72 882.32C1504.72 877.029 1506.72 872.507 1510.73 868.752C1514.74 864.997 1519.78 863.12 1525.84 863.12C1532.49 863.12 1537.7 865.083 1541.45 869.008C1544.61 872.336 1546.23 876.432 1546.32 881.296C1546.32 881.467 1546.32 881.595 1546.32 881.68C1546.32 886.288 1544.91 890.512 1542.09 894.352C1540.05 897.168 1536.68 900.24 1531.98 903.568L1528.65 906C1534.12 912.315 1541.37 920.379 1550.41 930.192C1554.94 923.877 1558.95 916.453 1562.45 907.92H1573.07C1567.69 919.952 1562.23 929.637 1556.69 936.976C1563.6 944.571 1570.04 951.525 1576.01 957.84ZM1514.19 882.32C1514.19 885.051 1515.09 887.995 1516.88 891.152C1518.24 893.541 1520.42 896.485 1523.41 899.984L1526.73 897.552C1530.06 894.992 1532.54 892.56 1534.16 890.256C1536.12 887.44 1537.1 884.496 1537.1 881.424C1537.02 878.096 1535.86 875.451 1533.65 873.488C1531.6 871.696 1529.04 870.8 1525.97 870.8C1525.88 870.8 1525.75 870.8 1525.58 870.8C1522.42 870.971 1519.78 871.995 1517.65 873.872C1515.34 875.92 1514.19 878.608 1514.19 881.936C1514.19 882.107 1514.19 882.235 1514.19 882.32ZM1538.38 943.888C1540.43 942.096 1542.56 939.963 1544.78 937.488C1538.64 930.661 1530.79 921.872 1521.23 911.12L1518.03 913.296C1515.47 915.088 1513.25 916.965 1511.37 918.928C1506.42 924.133 1503.95 929.381 1503.95 934.672C1503.95 936.379 1504.21 938.128 1504.72 939.92C1506.42 945.211 1510.09 948.667 1515.73 950.288C1517.6 950.8 1519.48 951.056 1521.36 951.056C1526.99 951.056 1532.66 948.667 1538.38 943.888ZM1731.15 867.216C1729.36 870.629 1727.4 873.829 1725.26 876.816C1723.13 879.717 1720.95 882.32 1718.74 884.624C1717.88 883.856 1716.65 882.96 1715.02 881.936C1713.4 880.827 1712.04 879.931 1710.93 879.248C1715.11 875.237 1718.82 870.373 1722.06 864.656C1725.39 858.939 1727.99 852.88 1729.87 846.48L1738.96 848.656C1738.36 850.363 1737.72 852.112 1737.04 853.904C1736.44 855.611 1735.8 857.317 1735.12 859.024H1775.57V867.216H1749.97C1751.5 869.349 1752.95 871.525 1754.32 873.744C1755.69 875.877 1756.79 877.712 1757.65 879.248L1749.33 882.704C1748.39 880.741 1747.02 878.352 1745.23 875.536C1743.44 872.635 1741.69 869.861 1739.98 867.216H1731.15ZM1681.36 867.216C1679.57 870.8 1677.65 874.128 1675.6 877.2C1673.55 880.272 1671.5 883.045 1669.46 885.52C1668.52 884.752 1667.24 883.856 1665.62 882.832C1663.99 881.808 1662.59 880.955 1661.39 880.272C1665.4 876.091 1669.03 871.013 1672.27 865.04C1675.51 859.067 1678.12 852.88 1680.08 846.48L1689.17 848.784C1688.57 850.491 1687.93 852.197 1687.25 853.904C1686.65 855.611 1686.01 857.317 1685.33 859.024H1717.2V867.216H1697.36C1698.55 869.691 1699.79 872.251 1701.07 874.896C1702.35 877.541 1703.42 879.76 1704.27 881.552L1695.82 884.496C1694.89 882.363 1693.69 879.717 1692.24 876.56C1690.87 873.317 1689.47 870.203 1688.02 867.216H1681.36ZM1699.02 886.8C1697.74 889.445 1696.34 892.091 1694.8 894.736C1693.35 897.296 1691.81 899.856 1690.19 902.416V963.856H1681.1V914.96C1679.14 917.435 1677.09 919.781 1674.96 922C1672.83 924.219 1670.74 926.267 1668.69 928.144C1668.01 927.291 1666.98 926.053 1665.62 924.432C1664.34 922.811 1663.18 921.531 1662.16 920.592C1664.81 918.288 1667.41 915.728 1669.97 912.912C1672.61 910.096 1675.13 907.109 1677.52 903.952C1679.99 900.795 1682.26 897.509 1684.3 894.096C1686.44 890.683 1688.31 887.269 1689.94 883.856L1699.02 886.8ZM1714.77 914.448C1716.13 916.411 1717.58 918.501 1719.12 920.72C1720.66 922.939 1722.15 925.157 1723.6 927.376C1725.14 929.595 1726.54 931.728 1727.82 933.776C1729.1 935.824 1730.17 937.616 1731.02 939.152L1723.09 944.016C1722.23 942.395 1721.17 940.56 1719.89 938.512C1718.69 936.379 1717.37 934.16 1715.92 931.856C1714.47 929.552 1712.98 927.291 1711.44 925.072C1709.9 922.768 1708.45 920.592 1707.09 918.544L1714.77 914.448ZM1776.72 907.536H1759.44V951.568C1759.44 954.64 1759.01 956.944 1758.16 958.48C1757.31 960.016 1755.77 961.168 1753.55 961.936C1751.33 962.704 1748.3 963.173 1744.46 963.344C1740.71 963.515 1735.93 963.6 1730.13 963.6C1729.96 962.235 1729.53 960.656 1728.85 958.864C1728.25 957.157 1727.61 955.664 1726.93 954.384C1729.23 954.469 1731.45 954.512 1733.58 954.512C1735.72 954.512 1737.68 954.512 1739.47 954.512C1741.26 954.512 1742.8 954.469 1744.08 954.384C1745.45 954.384 1746.43 954.384 1747.02 954.384C1748.22 954.384 1749.03 954.213 1749.46 953.872C1749.88 953.445 1750.1 952.677 1750.1 951.568V907.536H1699.66V898.704H1750.1V885.008H1759.44V898.704H1776.72V907.536ZM1905.49 860.688H1843.54V881.04H1905.49V860.688ZM1915.09 889.488H1834.19V852.112H1915.09V889.488ZM1854.8 908.048C1854.12 909.925 1853.48 911.803 1852.88 913.68C1852.28 915.557 1851.64 917.435 1850.96 919.312H1915.22C1915.13 919.909 1915.09 920.464 1915.09 920.976C1915 921.488 1914.92 922 1914.83 922.512C1914.83 922.939 1914.79 923.365 1914.7 923.792C1913.94 929.339 1913.13 934.16 1912.27 938.256C1911.5 942.352 1910.65 945.851 1909.71 948.752C1908.86 951.653 1907.92 954.043 1906.9 955.92C1905.87 957.797 1904.76 959.248 1903.57 960.272C1902.12 961.637 1900.54 962.533 1898.83 962.96C1897.21 963.387 1895.16 963.685 1892.69 963.856C1890.55 963.941 1887.53 963.941 1883.6 963.856C1879.67 963.771 1875.45 963.6 1870.93 963.344C1870.84 961.979 1870.5 960.443 1869.9 958.736C1869.39 957.029 1868.67 955.579 1867.73 954.384C1870.03 954.555 1872.29 954.683 1874.51 954.768C1876.73 954.939 1878.78 955.067 1880.66 955.152C1882.62 955.237 1884.37 955.28 1885.9 955.28C1887.53 955.28 1888.76 955.28 1889.62 955.28C1891.07 955.28 1892.26 955.195 1893.2 955.024C1894.14 954.939 1894.99 954.64 1895.76 954.128C1897.47 952.763 1898.96 950.075 1900.24 946.064C1901.61 942.053 1902.93 936.08 1904.21 928.144H1847.89C1847.21 929.765 1846.57 931.344 1845.97 932.88C1845.46 934.331 1844.94 935.696 1844.43 936.976L1834.32 935.184C1835.86 931.6 1837.52 927.376 1839.31 922.512C1841.1 917.648 1842.77 912.827 1844.3 908.048H1816.66V899.472H1931.09V908.048H1854.8ZM70.425 1076.37V1085.84H11.417V993.168H22.809V1076.37H70.425ZM158.032 1085.84H147.792C146.341 1083.11 145.531 1079.91 145.36 1076.24C141.179 1083.15 134.011 1086.82 123.856 1087.25C118.395 1087.25 113.872 1086.05 110.288 1083.66C105.509 1080.51 103.12 1075.73 103.12 1069.33C103.12 1062.33 106.448 1056.83 113.104 1052.82C115.408 1051.45 118.821 1050.21 123.344 1049.1C126.245 1048.42 130.299 1047.65 135.504 1046.8C140.88 1045.86 144.037 1045.26 144.976 1045.01V1039.38C144.976 1035.71 144.037 1032.81 142.16 1030.67C139.941 1028.11 136.528 1026.83 131.92 1026.83C127.653 1026.83 124.155 1027.98 121.424 1030.29C118.949 1032.34 117.456 1034.98 116.944 1038.22H107.088C108.112 1032.85 110.587 1028.41 114.512 1024.91C119.035 1020.9 124.752 1018.85 131.664 1018.77C146.853 1018.77 154.448 1026.49 154.448 1041.94C154.448 1042.11 154.448 1042.28 154.448 1042.45L154.192 1069.2C154.192 1075 155.472 1080.55 158.032 1085.84ZM144.976 1063.31V1052.56C141.392 1053.16 137.04 1053.93 131.92 1054.86C126.8 1055.8 122.704 1057.04 119.632 1058.58C115.195 1061.22 112.976 1064.51 112.976 1068.43C112.976 1075.6 117.072 1079.18 125.264 1079.18C130.043 1079.18 134.309 1077.78 138.064 1074.96C142.075 1071.97 144.379 1068.09 144.976 1063.31ZM232.412 1077.14L227.292 1086.1C227.207 1086.1 227.121 1086.1 227.036 1086.1H226.78C226.524 1086.1 226.311 1086.1 226.14 1086.1H225.628C225.543 1086.1 225.457 1086.1 225.372 1086.1H225.244C225.159 1086.1 225.073 1086.1 224.988 1086.1H224.86C224.775 1086.1 224.689 1086.1 224.604 1086.1H224.476C224.391 1086.1 224.305 1086.1 224.22 1086.1H221.02C214.62 1086.1 209.628 1084.6 206.044 1081.62C202.375 1078.54 200.54 1074.15 200.54 1068.43V1029.01H189.02V1021.07H200.54V1001.87H210.652V1021.07H229.724V1029.01H210.652V1065.1C210.652 1069.8 211.676 1073.13 213.724 1075.09C215.516 1076.79 218.503 1077.65 222.684 1077.65C222.94 1077.65 223.153 1077.65 223.324 1077.65C226.396 1077.48 229.425 1077.31 232.412 1077.14ZM279.216 993.168V1005.2H266.8V993.168H279.216ZM278.064 1020.94V1085.84H267.952V1020.94H278.064ZM378.681 1043.09V1085.84H368.441V1045.78C368.441 1040.49 367.63 1036.47 366.009 1033.74C363.534 1029.65 359.097 1027.6 352.697 1027.6C347.833 1027.6 343.524 1029.56 339.769 1033.49C336.185 1037.24 334.393 1041.17 334.393 1045.26V1085.84H324.153V1021.07H334.265V1030.29C338.532 1023.12 345.273 1019.41 354.489 1019.15C354.66 1019.15 354.788 1019.15 354.873 1019.15C362.809 1019.15 368.868 1021.5 373.049 1026.19C376.804 1030.46 378.681 1036.09 378.681 1043.09ZM437.33 1072.78V1084.05C437.33 1089.77 436.477 1094.16 434.77 1097.23C432.637 1101.07 429.01 1103.38 423.89 1104.14V1097.23C426.706 1096.55 428.583 1095.06 429.522 1092.75C430.119 1091.3 430.461 1089 430.546 1085.84H423.89V1072.78H437.33ZM610.55 993.168V1085.84H598.902L557.942 1019.79C557.089 1018.34 555.51 1015.65 553.206 1011.73C550.987 1007.89 549.238 1004.43 547.958 1001.36C548.555 1016.89 548.854 1026.41 548.854 1029.9V1085.84H538.486V993.168H553.206L589.046 1050.9C596.043 1062.84 600.011 1069.97 600.95 1072.27C600.438 1061.18 600.139 1050.38 600.054 1039.89V993.168H610.55ZM713.757 1085.84H702.493C701.725 1083.19 701.256 1079.91 701.085 1075.98C697.586 1083.32 690.76 1087.25 680.605 1087.76C680.434 1087.76 680.306 1087.76 680.221 1087.76C672.114 1087.76 666.013 1085.41 661.917 1080.72C658.248 1076.54 656.413 1070.91 656.413 1063.82V1020.94H666.653V1061.14C666.653 1066.34 667.506 1070.31 669.213 1073.04C671.688 1077.05 676.082 1079.06 682.397 1079.06C687.005 1079.06 691.144 1077.18 694.813 1073.42C698.226 1069.93 700.146 1066.09 700.573 1061.9V1020.94H710.941V1069.07C710.941 1071.89 711.154 1074.75 711.581 1077.65C712.093 1081.32 712.818 1084.05 713.757 1085.84ZM850.364 1042.96V1085.84H839.996V1045.65C839.996 1040.27 839.271 1036.26 837.82 1033.62C835.601 1029.61 831.463 1027.6 825.404 1027.6C821.052 1027.6 817.127 1029.35 813.628 1032.85C810.3 1036.18 808.636 1039.63 808.636 1043.22V1085.84H798.396V1045.65C798.396 1040.44 797.628 1036.47 796.092 1033.74C793.788 1029.65 789.649 1027.6 783.676 1027.6C779.068 1027.6 774.972 1029.56 771.388 1033.49C768.06 1037.16 766.396 1041.04 766.396 1045.14V1085.84H756.156V1021.07H766.396C766.396 1024.14 766.353 1027.17 766.268 1030.16C770.193 1023.16 776.721 1019.45 785.852 1019.02C791.057 1019.02 795.367 1020.13 798.78 1022.35C801.767 1024.31 804.241 1027.34 806.204 1031.44C810.641 1023.67 817.596 1019.54 827.068 1019.02C827.239 1019.02 827.367 1019.02 827.452 1019.02C835.217 1019.02 841.105 1021.37 845.116 1026.06C848.615 1030.16 850.364 1035.79 850.364 1042.96ZM953.883 1052.82C953.883 1062.2 951.536 1070.1 946.843 1076.5C941.552 1083.75 934.086 1087.38 924.443 1087.38C919.835 1087.38 915.696 1086.39 912.027 1084.43C908.358 1082.47 905.926 1079.99 904.731 1077.01L903.195 1085.84H895.259V993.168H905.115V1030.67C906.822 1027.34 909.424 1024.66 912.923 1022.61C916.678 1020.39 920.944 1019.28 925.723 1019.28C934.683 1019.28 941.766 1022.82 946.971 1029.9C951.579 1036.22 953.883 1043.86 953.883 1052.82ZM943.387 1052.94C943.387 1045.61 941.766 1039.67 938.523 1035.15C934.939 1030.12 929.904 1027.6 923.419 1027.6C919.067 1027.6 915.227 1029.09 911.899 1032.08C908.998 1034.73 907.078 1037.84 906.139 1041.42C905.371 1044.67 904.987 1048.63 904.987 1053.33C904.987 1059.56 905.371 1063.87 906.139 1066.26C907.163 1069.67 909.04 1072.53 911.771 1074.83C915.014 1077.56 918.854 1078.93 923.291 1078.93C929.947 1078.93 935.024 1076.41 938.523 1071.38C941.766 1066.77 943.387 1060.62 943.387 1052.94ZM1040.42 1063.82H1051.04C1049.59 1070.99 1046.47 1076.67 1041.7 1080.85C1036.4 1085.46 1029.79 1087.76 1021.86 1087.76C1012.47 1087.76 1004.96 1084.73 999.327 1078.67C993.78 1072.7 991.007 1064.63 991.007 1054.48C991.007 1044.58 993.695 1036.26 999.071 1029.52C1004.79 1022.35 1012.26 1018.77 1021.47 1018.77C1031.2 1018.77 1038.67 1022.1 1043.87 1028.75C1048.39 1034.55 1050.66 1041.94 1050.66 1050.9C1050.66 1051.24 1050.66 1051.58 1050.66 1051.92H1000.74C1000.65 1052.69 1000.61 1053.75 1000.61 1055.12C1000.69 1062.37 1002.48 1068.09 1005.98 1072.27C1009.74 1076.71 1014.99 1078.93 1021.73 1078.93C1026.59 1078.93 1030.69 1077.61 1034.02 1074.96C1037.43 1072.23 1039.56 1068.52 1040.42 1063.82ZM1001.89 1043.98H1040.03C1039.69 1039.46 1038.15 1035.66 1035.42 1032.59C1032.01 1028.84 1027.36 1026.96 1021.47 1026.96C1016.18 1026.96 1011.7 1028.75 1008.03 1032.34C1004.87 1035.49 1002.83 1039.38 1001.89 1043.98ZM1123.96 1019.28L1127.16 1028.5C1121.62 1028.58 1116.54 1029.65 1111.93 1031.7C1106.72 1034 1103.35 1037.2 1101.82 1041.3V1085.84H1091.58V1021.07H1101.43V1030.93C1103.48 1027.34 1106.81 1024.49 1111.42 1022.35C1115.51 1020.47 1119.7 1019.45 1123.96 1019.28ZM1294.61 1085.84H1281.69L1269.27 1072.02C1266.8 1074.66 1264.36 1076.92 1261.97 1078.8C1253.95 1084.86 1246.27 1087.89 1238.93 1087.89C1238.25 1087.89 1237.53 1087.85 1236.76 1087.76C1228.82 1087.08 1222.59 1084.01 1218.07 1078.54C1214.4 1074.11 1212.57 1069.24 1212.57 1063.95C1212.57 1062.07 1212.82 1060.11 1213.33 1058.06C1215.38 1049.53 1221.57 1041.72 1231.89 1034.64L1234.58 1032.98C1230.83 1028.45 1228.1 1024.61 1226.39 1021.46C1224.34 1017.7 1223.32 1014.12 1223.32 1010.7C1223.32 1010.62 1223.32 1010.49 1223.32 1010.32C1223.32 1005.03 1225.32 1000.51 1229.33 996.752C1233.34 992.997 1238.38 991.12 1244.44 991.12C1251.09 991.12 1256.3 993.083 1260.05 997.008C1263.21 1000.34 1264.83 1004.43 1264.92 1009.3C1264.92 1009.47 1264.92 1009.59 1264.92 1009.68C1264.92 1014.29 1263.51 1018.51 1260.69 1022.35C1258.65 1025.17 1255.28 1028.24 1250.58 1031.57L1247.25 1034C1252.72 1040.31 1259.97 1048.38 1269.01 1058.19C1273.54 1051.88 1277.55 1044.45 1281.05 1035.92H1291.67C1286.29 1047.95 1280.83 1057.64 1275.29 1064.98C1282.2 1072.57 1288.64 1079.53 1294.61 1085.84ZM1232.79 1010.32C1232.79 1013.05 1233.69 1015.99 1235.48 1019.15C1236.84 1021.54 1239.02 1024.49 1242.01 1027.98L1245.33 1025.55C1248.66 1022.99 1251.14 1020.56 1252.76 1018.26C1254.72 1015.44 1255.7 1012.5 1255.7 1009.42C1255.62 1006.1 1254.46 1003.45 1252.25 1001.49C1250.2 999.696 1247.64 998.8 1244.57 998.8C1244.48 998.8 1244.35 998.8 1244.18 998.8C1241.02 998.971 1238.38 999.995 1236.25 1001.87C1233.94 1003.92 1232.79 1006.61 1232.79 1009.94C1232.79 1010.11 1232.79 1010.23 1232.79 1010.32ZM1256.98 1071.89C1259.03 1070.1 1261.16 1067.96 1263.38 1065.49C1257.24 1058.66 1249.39 1049.87 1239.83 1039.12L1236.63 1041.3C1234.07 1043.09 1231.85 1044.97 1229.97 1046.93C1225.02 1052.13 1222.55 1057.38 1222.55 1062.67C1222.55 1064.38 1222.81 1066.13 1223.32 1067.92C1225.02 1073.21 1228.69 1076.67 1234.33 1078.29C1236.2 1078.8 1238.08 1079.06 1239.96 1079.06C1245.59 1079.06 1251.26 1076.67 1256.98 1071.89ZM1446.81 1061.01C1446.81 1069.11 1443.57 1075.64 1437.08 1080.59C1431.11 1085.2 1423.85 1087.5 1415.32 1087.5C1405.59 1087.5 1397.78 1085.41 1391.9 1081.23C1384.64 1076.11 1380.63 1068.01 1379.86 1056.91L1391.64 1057.04C1392.41 1071.12 1400.39 1078.16 1415.58 1078.16C1420.44 1078.16 1424.75 1076.84 1428.5 1074.19C1433.03 1070.95 1435.29 1066.51 1435.29 1060.88C1435.29 1055.93 1433.54 1051.88 1430.04 1048.72C1427.22 1046.16 1423 1044.03 1417.37 1042.32C1414.3 1041.38 1410.41 1040.27 1405.72 1038.99C1399.32 1037.46 1394.24 1035.02 1390.49 1031.7C1385.88 1027.6 1383.58 1022.48 1383.58 1016.34C1383.58 1008.83 1386.43 1002.73 1392.15 998.032C1397.78 993.424 1404.95 991.12 1413.66 991.12C1422.53 991.12 1429.87 993.552 1435.67 998.416C1441.56 1003.28 1444.55 1009.55 1444.63 1017.23H1433.5C1432.9 1011.17 1430.55 1006.69 1426.46 1003.79C1423.04 1001.32 1418.52 1000.08 1412.89 1000.08C1408.02 1000.08 1403.84 1001.27 1400.34 1003.66C1396.25 1006.48 1394.2 1010.36 1394.2 1015.31C1394.2 1015.4 1394.2 1015.44 1394.2 1015.44C1394.2 1022.78 1399.53 1027.6 1410.2 1029.9C1413.7 1031.01 1417.15 1032.08 1420.57 1033.1C1428.5 1035.24 1434.56 1038.18 1438.74 1041.94C1444.12 1046.8 1446.81 1053.16 1446.81 1061.01ZM1528.42 1020.94H1539.3C1534.95 1033.66 1530.51 1046.67 1525.99 1059.98C1521.46 1073.21 1516.64 1085.88 1511.52 1098C1508.79 1104.31 1505.68 1108.75 1502.18 1111.31C1498.34 1114.13 1493.18 1115.54 1486.69 1115.54L1481.44 1106.45C1482.13 1106.45 1482.77 1106.45 1483.36 1106.45C1488.48 1106.45 1492.24 1105.85 1494.63 1104.66C1497.53 1103.12 1500.3 1099.83 1502.95 1094.8C1504.23 1092.33 1505.51 1089.04 1506.79 1084.94L1480.03 1020.94H1491.43L1509.6 1068.56C1510.71 1071.46 1511.44 1073.64 1511.78 1075.09L1513.83 1068.3C1517.24 1057.81 1522.1 1042.02 1528.42 1020.94ZM1671.26 1042.96V1085.84H1660.9V1045.65C1660.9 1040.27 1660.17 1036.26 1658.72 1033.62C1656.5 1029.61 1652.36 1027.6 1646.3 1027.6C1641.95 1027.6 1638.03 1029.35 1634.53 1032.85C1631.2 1036.18 1629.54 1039.63 1629.54 1043.22V1085.84H1619.3V1045.65C1619.3 1040.44 1618.53 1036.47 1616.99 1033.74C1614.69 1029.65 1610.55 1027.6 1604.58 1027.6C1599.97 1027.6 1595.87 1029.56 1592.29 1033.49C1588.96 1037.16 1587.3 1041.04 1587.3 1045.14V1085.84H1577.06V1021.07H1587.3C1587.3 1024.14 1587.25 1027.17 1587.17 1030.16C1591.09 1023.16 1597.62 1019.45 1606.75 1019.02C1611.96 1019.02 1616.27 1020.13 1619.68 1022.35C1622.67 1024.31 1625.14 1027.34 1627.1 1031.44C1631.54 1023.67 1638.5 1019.54 1647.97 1019.02C1648.14 1019.02 1648.27 1019.02 1648.35 1019.02C1656.12 1019.02 1662.01 1021.37 1666.02 1026.06C1669.51 1030.16 1671.26 1035.79 1671.26 1042.96ZM1774.78 1052.82C1774.78 1062.2 1772.44 1070.1 1767.74 1076.5C1762.45 1083.75 1754.99 1087.38 1745.34 1087.38C1740.74 1087.38 1736.6 1086.39 1732.93 1084.43C1729.26 1082.47 1726.83 1079.99 1725.63 1077.01L1724.1 1085.84H1716.16V993.168H1726.02V1030.67C1727.72 1027.34 1730.32 1024.66 1733.82 1022.61C1737.58 1020.39 1741.84 1019.28 1746.62 1019.28C1755.58 1019.28 1762.67 1022.82 1767.87 1029.9C1772.48 1036.22 1774.78 1043.86 1774.78 1052.82ZM1764.29 1052.94C1764.29 1045.61 1762.67 1039.67 1759.42 1035.15C1755.84 1030.12 1750.8 1027.6 1744.32 1027.6C1739.97 1027.6 1736.13 1029.09 1732.8 1032.08C1729.9 1034.73 1727.98 1037.84 1727.04 1041.42C1726.27 1044.67 1725.89 1048.63 1725.89 1053.33C1725.89 1059.56 1726.27 1063.87 1727.04 1066.26C1728.06 1069.67 1729.94 1072.53 1732.67 1074.83C1735.91 1077.56 1739.75 1078.93 1744.19 1078.93C1750.85 1078.93 1755.92 1076.41 1759.42 1071.38C1762.67 1066.77 1764.29 1060.62 1764.29 1052.94ZM1875.65 1053.07C1875.65 1062.89 1873.05 1070.99 1867.84 1077.39C1862.13 1084.47 1854.19 1088.02 1844.04 1088.02C1833.97 1088.02 1826.03 1084.47 1820.23 1077.39C1814.94 1070.91 1812.29 1062.8 1812.29 1053.07C1812.29 1043 1815.19 1034.81 1821 1028.5C1826.88 1022.01 1834.56 1018.77 1844.04 1018.77C1853.42 1018.77 1861.06 1021.97 1866.95 1028.37C1872.75 1034.68 1875.65 1042.92 1875.65 1053.07ZM1865.03 1052.56C1865.03 1045.82 1863.41 1040.06 1860.16 1035.28C1856.32 1029.56 1850.95 1026.7 1844.04 1026.7C1837.04 1026.7 1831.62 1029.56 1827.78 1035.28C1824.54 1040.06 1822.92 1045.82 1822.92 1052.56C1822.92 1059.98 1824.66 1066.26 1828.16 1071.38C1832 1077.01 1837.29 1079.82 1844.04 1079.82C1850.78 1079.82 1856.07 1077.01 1859.91 1071.38C1863.32 1066.34 1865.03 1060.07 1865.03 1052.56ZM1927.73 993.168V1085.84H1917.49V993.168H1927.73Z" fill="black"/>
<path d="M2258.64 253.93H2213.55L2137.41 119.74C2132.91 112.36 2126.43 99.22 2117.97 80.32C2118.33 88.42 2118.6 96.34 2118.78 104.08C2118.96 111.82 2119.14 119.74 2119.32 127.84L2120.13 253.93H2080.98V39.28H2130.12L2201.67 163.21C2204.19 167.35 2207.07 172.75 2210.31 179.41C2213.73 185.89 2217.51 193.54 2221.65 202.36C2221.29 194.44 2221.02 186.61 2220.84 178.87C2220.66 171.13 2220.39 163.21 2220.03 155.11L2219.22 39.28H2258.64V253.93ZM2502.35 178.06C2502.35 189.94 2500.46 200.83 2496.68 210.73C2492.9 220.45 2487.5 228.82 2480.48 235.84C2473.64 242.86 2465.27 248.35 2455.37 252.31C2445.65 256.27 2434.85 258.25 2422.97 258.25C2411.09 258.25 2400.2 256.27 2390.3 252.31C2380.58 248.35 2372.21 242.86 2365.19 235.84C2358.35 228.82 2353.04 220.45 2349.26 210.73C2345.48 200.83 2343.59 189.94 2343.59 178.06C2343.59 166.36 2345.48 155.65 2349.26 145.93C2353.22 136.21 2358.71 127.93 2365.73 121.09C2372.75 114.07 2381.12 108.67 2390.84 104.89C2400.56 100.93 2411.27 98.95 2422.97 98.95C2434.67 98.95 2445.38 100.93 2455.1 104.89C2464.82 108.67 2473.19 114.07 2480.21 121.09C2487.23 127.93 2492.63 136.21 2496.41 145.93C2500.37 155.65 2502.35 166.36 2502.35 178.06ZM2462.93 176.98C2462.93 170.86 2462.12 164.92 2460.5 159.16C2458.88 153.4 2456.45 148.27 2453.21 143.77C2449.97 139.09 2445.83 135.4 2440.79 132.7C2435.75 129.82 2429.81 128.38 2422.97 128.38C2416.31 128.38 2410.46 129.82 2405.42 132.7C2400.38 135.4 2396.15 139.09 2392.73 143.77C2389.49 148.27 2387.06 153.49 2385.44 159.43C2383.82 165.19 2383.01 171.04 2383.01 176.98C2383.01 183.1 2383.73 189.22 2385.17 195.34C2386.79 201.46 2389.22 206.95 2392.46 211.81C2395.7 216.67 2399.84 220.63 2404.88 223.69C2409.92 226.75 2415.95 228.28 2422.97 228.28C2429.99 228.28 2436.02 226.75 2441.06 223.69C2446.1 220.63 2450.24 216.67 2453.48 211.81C2456.72 206.95 2459.06 201.46 2460.5 195.34C2462.12 189.22 2462.93 183.1 2462.93 176.98ZM2665.61 255.01C2663.45 255.19 2660.48 255.28 2656.7 255.28C2652.92 255.28 2648.42 255.28 2643.2 255.28C2636 255.1 2629.16 254.29 2622.68 252.85C2616.2 251.41 2610.53 249.07 2605.67 245.83C2600.81 242.59 2596.94 238.27 2594.06 232.87C2591.18 227.47 2589.74 220.63 2589.74 212.35V132.43H2563.82V103.54H2589.74V61.69H2627.27V103.54H2670.74V132.43H2627.27V202.63C2627.27 207.49 2627.72 211.45 2628.62 214.51C2629.7 217.39 2631.32 219.64 2633.48 221.26C2635.64 222.88 2638.34 223.96 2641.58 224.5C2644.82 224.86 2648.69 225.04 2653.19 225.04C2656.25 225.04 2659.94 224.95 2664.26 224.77C2668.58 224.41 2673.62 224.05 2679.38 223.69L2665.61 255.01ZM2897.49 178.06C2897.49 189.94 2895.6 200.83 2891.82 210.73C2888.04 220.45 2882.64 228.82 2875.62 235.84C2868.78 242.86 2860.41 248.35 2850.51 252.31C2840.79 256.27 2829.99 258.25 2818.11 258.25C2806.23 258.25 2795.34 256.27 2785.44 252.31C2775.72 248.35 2767.35 242.86 2760.33 235.84C2753.49 228.82 2748.18 220.45 2744.4 210.73C2740.62 200.83 2738.73 189.94 2738.73 178.06C2738.73 166.36 2740.62 155.65 2744.4 145.93C2748.36 136.21 2753.85 127.93 2760.87 121.09C2767.89 114.07 2776.26 108.67 2785.98 104.89C2795.7 100.93 2806.41 98.95 2818.11 98.95C2829.81 98.95 2840.52 100.93 2850.24 104.89C2859.96 108.67 2868.33 114.07 2875.35 121.09C2882.37 127.93 2887.77 136.21 2891.55 145.93C2895.51 155.65 2897.49 166.36 2897.49 178.06ZM2858.07 176.98C2858.07 170.86 2857.26 164.92 2855.64 159.16C2854.02 153.4 2851.59 148.27 2848.35 143.77C2845.11 139.09 2840.97 135.4 2835.93 132.7C2830.89 129.82 2824.95 128.38 2818.11 128.38C2811.45 128.38 2805.6 129.82 2800.56 132.7C2795.52 135.4 2791.29 139.09 2787.87 143.77C2784.63 148.27 2782.2 153.49 2780.58 159.43C2778.96 165.19 2778.15 171.04 2778.15 176.98C2778.15 183.1 2778.87 189.22 2780.31 195.34C2781.93 201.46 2784.36 206.95 2787.6 211.81C2790.84 216.67 2794.98 220.63 2800.02 223.69C2805.06 226.75 2811.09 228.28 2818.11 228.28C2825.13 228.28 2831.16 226.75 2836.2 223.69C2841.24 220.63 2845.38 216.67 2848.62 211.81C2851.86 206.95 2854.2 201.46 2855.64 195.34C2857.26 189.22 2858.07 183.1 2858.07 176.98ZM3255.12 193.18C3255.12 204.16 3252.78 213.79 3248.1 222.07C3243.6 230.17 3237.57 236.83 3230.01 242.05C3222.45 247.45 3213.9 251.41 3204.36 253.93C3194.82 256.63 3185.1 257.98 3175.2 257.98C3162.6 257.98 3150.99 256.54 3140.37 253.66C3129.93 250.78 3120.75 246.19 3112.83 239.89C3105.09 233.77 3098.88 225.94 3094.2 216.4C3089.52 206.86 3086.82 195.34 3086.1 181.84H3130.11C3131.01 196.6 3135.24 207.31 3142.8 213.97C3150.54 220.63 3161.52 223.96 3175.74 223.96C3180.42 223.96 3184.92 223.42 3189.24 222.34C3193.56 221.08 3197.34 219.19 3200.58 216.67C3204 214.15 3206.7 211 3208.68 207.22C3210.66 203.44 3211.65 198.94 3211.65 193.72C3211.65 188.68 3210.48 184.36 3208.14 180.76C3205.8 176.98 3202.74 173.83 3198.96 171.31C3195.36 168.79 3191.4 166.72 3187.08 165.1C3182.76 163.3 3178.53 161.77 3174.39 160.51L3147.66 153.22C3112.38 143.32 3094.74 124.6 3094.74 97.06C3094.74 86.8 3096.99 77.8 3101.49 70.06C3105.99 62.14 3111.84 55.57 3119.04 50.35C3126.24 45.13 3134.43 41.26 3143.61 38.74C3152.79 36.04 3161.97 34.69 3171.15 34.69C3181.23 34.69 3190.95 36.04 3200.31 38.74C3209.85 41.44 3218.22 45.58 3225.42 51.16C3232.8 56.74 3238.65 63.67 3242.97 71.95C3247.47 80.05 3249.81 89.68 3249.99 100.84H3208.68C3206.88 79.06 3193.74 68.17 3169.26 68.17C3165.3 68.17 3161.34 68.71 3157.38 69.79C3153.42 70.69 3149.82 72.22 3146.58 74.38C3143.34 76.54 3140.73 79.33 3138.75 82.75C3136.77 85.99 3135.78 89.86 3135.78 94.36C3135.6 107.32 3145.59 115.96 3165.75 120.28C3166.11 120.46 3168.36 121.18 3172.5 122.44C3176.64 123.52 3182.58 125.23 3190.32 127.57C3198.96 129.91 3207.15 132.79 3214.89 136.21C3222.81 139.63 3229.74 143.86 3235.68 148.9C3241.62 153.94 3246.3 160.06 3249.72 167.26C3253.32 174.46 3255.12 183.1 3255.12 193.18ZM3432.83 253.93C3430.67 249.79 3429.14 244.57 3428.24 238.27C3417.44 251.05 3403.04 257.44 3385.04 257.44C3377.84 257.44 3370.91 256.63 3364.25 255.01C3357.59 253.57 3351.74 251.14 3346.7 247.72C3341.66 244.3 3337.61 239.8 3334.55 234.22C3331.49 228.46 3329.96 221.44 3329.96 213.16C3329.96 202.54 3332.48 193.99 3337.52 187.51C3342.74 181.03 3349.22 175.99 3356.96 172.39C3364.7 168.79 3373.16 166.27 3382.34 164.83C3391.52 163.21 3400.16 161.95 3408.26 161.05C3415.1 160.15 3421.04 159.34 3426.08 158.62C3426.44 149.44 3424.82 142.15 3421.22 136.75C3417.26 130.63 3410.78 127.57 3401.78 127.57C3394.76 127.57 3388.46 129.19 3382.88 132.43C3377.3 135.67 3374.06 141.07 3373.16 148.63H3335.9C3336.8 140.53 3339.14 133.42 3342.92 127.3C3346.88 121 3351.83 115.78 3357.77 111.64C3363.71 107.5 3370.28 104.35 3377.48 102.19C3384.86 100.03 3392.33 98.95 3399.89 98.95C3422.03 98.95 3438.32 104.98 3448.76 117.04C3457.22 126.94 3461.36 139.72 3461.18 155.38V208.84C3461.18 227.02 3464.06 242.05 3469.82 253.93H3432.83ZM3426.62 185.35C3423.02 185.71 3418.97 186.16 3414.47 186.7C3410.15 187.24 3405.38 187.87 3400.16 188.59C3397.1 188.95 3393.59 189.58 3389.63 190.48C3385.67 191.38 3381.89 192.73 3378.29 194.53C3374.87 196.15 3371.9 198.31 3369.38 201.01C3367.04 203.71 3365.78 207.04 3365.6 211C3365.42 217.48 3367.49 222.34 3371.81 225.58C3375.59 228.28 3380.63 229.63 3386.93 229.63C3391.43 229.63 3395.84 229 3400.16 227.74C3404.66 226.48 3408.71 224.68 3412.31 222.34C3415.91 219.82 3418.97 216.76 3421.49 213.16C3424.01 209.38 3425.63 205.15 3426.35 200.47L3426.62 185.35ZM3689.56 253.93H3651.49V161.59C3651.49 151.69 3649.51 143.95 3645.55 138.37C3641.59 132.79 3634.21 130 3623.41 130C3619.63 130 3615.76 130.81 3611.8 132.43C3608.02 133.87 3604.51 135.94 3601.27 138.64C3598.21 141.34 3595.6 144.49 3593.44 148.09C3591.46 151.51 3590.2 155.2 3589.66 159.16V253.93H3551.59V103.54H3588.85V116.77C3594.43 111.01 3600.82 106.78 3608.02 104.08C3615.4 101.2 3622.96 99.76 3630.7 99.76C3649.06 99.76 3663.46 104.62 3673.9 114.34C3684.34 124.06 3689.56 138.19 3689.56 156.73V253.93ZM3902.22 209.11C3902.22 217.39 3900.24 224.59 3896.28 230.71C3892.5 236.83 3887.55 241.87 3881.43 245.83C3875.49 249.97 3868.74 252.94 3861.18 254.74C3853.8 256.72 3846.42 257.71 3839.04 257.71C3830.22 257.71 3821.58 256.81 3813.12 255.01C3804.84 253.21 3797.37 250.15 3790.71 245.83C3784.23 241.69 3778.92 236.2 3774.78 229.36C3770.64 222.34 3768.39 213.7 3768.03 203.44H3807.45C3808.35 220.54 3818.97 229.09 3839.31 229.09C3842.19 229.09 3845.07 228.73 3847.95 228.01C3850.83 227.29 3853.35 226.21 3855.51 224.77C3857.85 223.33 3859.74 221.44 3861.18 219.1C3862.62 216.76 3863.34 213.97 3863.34 210.73C3863.34 201.19 3855.69 194.98 3840.39 192.1L3820.68 187.51C3815.1 186.25 3809.61 184.63 3804.21 182.65C3798.81 180.67 3793.95 178.15 3789.63 175.09C3785.49 171.85 3782.16 167.89 3779.64 163.21C3777.12 158.35 3775.86 152.59 3775.86 145.93C3775.86 137.83 3777.66 130.9 3781.26 125.14C3784.86 119.2 3789.54 114.34 3795.3 110.56C3801.24 106.78 3807.72 103.99 3814.74 102.19C3821.94 100.39 3829.05 99.49 3836.07 99.49C3843.63 99.49 3851.01 100.39 3858.21 102.19C3865.59 103.99 3872.16 106.87 3877.92 110.83C3883.86 114.79 3888.63 119.83 3892.23 125.95C3896.01 132.07 3897.99 139.36 3898.17 147.82H3861.72C3860.46 134.32 3851.46 127.57 3834.72 127.57C3832.2 127.57 3829.59 127.84 3826.89 128.38C3824.37 128.92 3822.03 129.82 3819.87 131.08C3817.71 132.16 3815.91 133.78 3814.47 135.94C3813.03 137.92 3812.31 140.44 3812.31 143.5C3812.31 151.6 3818.7 156.91 3831.48 159.43L3849.84 163.48C3856.14 164.74 3862.35 166.45 3868.47 168.61C3874.77 170.77 3880.35 173.56 3885.21 176.98C3890.25 180.4 3894.3 184.72 3897.36 189.94C3900.6 195.16 3902.22 201.55 3902.22 209.11ZM4217.64 197.5C4217.64 207.94 4216.02 217.03 4212.78 224.77C4209.54 232.33 4204.95 238.63 4199.01 243.67C4193.25 248.71 4186.32 252.4 4178.22 254.74C4170.12 257.26 4161.12 258.52 4151.22 258.52C4131.06 258.52 4114.95 253.12 4102.89 242.32C4090.83 231.52 4084.62 215.77 4084.26 195.07H4125.3C4125.48 199.03 4126.02 202.81 4126.92 206.41C4128 209.83 4129.53 212.89 4131.51 215.59C4133.67 218.29 4136.28 220.45 4139.34 222.07C4142.58 223.51 4146.36 224.23 4150.68 224.23C4159.14 224.23 4165.53 221.62 4169.85 216.4C4174.17 211.18 4176.33 204.52 4176.33 196.42V39.28H4217.64V197.5ZM4477.37 106.24C4477.37 118.84 4475.03 129.55 4470.35 138.37C4465.85 147.01 4459.73 154.03 4451.99 159.43C4444.25 164.83 4435.25 168.79 4424.99 171.31C4414.91 173.65 4404.29 174.82 4393.13 174.82H4352.09V253.93H4311.86V39.28H4392.86C4404.56 39.28 4415.54 40.36 4425.8 42.52C4436.06 44.5 4444.97 48.01 4452.53 53.05C4460.27 58.09 4466.3 64.93 4470.62 73.57C4475.12 82.21 4477.37 93.1 4477.37 106.24ZM4436.33 106.78C4436.33 99.76 4435.16 94.09 4432.82 89.77C4430.66 85.45 4427.6 82.12 4423.64 79.78C4419.68 77.44 4415 75.91 4409.6 75.19C4404.2 74.29 4398.44 73.84 4392.32 73.84H4352.09V139.72H4392.32C4421.66 139.72 4436.33 128.74 4436.33 106.78Z" fill="black"/>
<path d="M2258.64 670.93H2213.55L2137.41 536.74C2132.91 529.36 2126.43 516.22 2117.97 497.32C2118.33 505.42 2118.6 513.34 2118.78 521.08C2118.96 528.82 2119.14 536.74 2119.32 544.84L2120.13 670.93H2080.98V456.28H2130.12L2201.67 580.21C2204.19 584.35 2207.07 589.75 2210.31 596.41C2213.73 602.89 2217.51 610.54 2221.65 619.36C2221.29 611.44 2221.02 603.61 2220.84 595.87C2220.66 588.13 2220.39 580.21 2220.03 572.11L2219.22 456.28H2258.64V670.93ZM2502.35 595.06C2502.35 606.94 2500.46 617.83 2496.68 627.73C2492.9 637.45 2487.5 645.82 2480.48 652.84C2473.64 659.86 2465.27 665.35 2455.37 669.31C2445.65 673.27 2434.85 675.25 2422.97 675.25C2411.09 675.25 2400.2 673.27 2390.3 669.31C2380.58 665.35 2372.21 659.86 2365.19 652.84C2358.35 645.82 2353.04 637.45 2349.26 627.73C2345.48 617.83 2343.59 606.94 2343.59 595.06C2343.59 583.36 2345.48 572.65 2349.26 562.93C2353.22 553.21 2358.71 544.93 2365.73 538.09C2372.75 531.07 2381.12 525.67 2390.84 521.89C2400.56 517.93 2411.27 515.95 2422.97 515.95C2434.67 515.95 2445.38 517.93 2455.1 521.89C2464.82 525.67 2473.19 531.07 2480.21 538.09C2487.23 544.93 2492.63 553.21 2496.41 562.93C2500.37 572.65 2502.35 583.36 2502.35 595.06ZM2462.93 593.98C2462.93 587.86 2462.12 581.92 2460.5 576.16C2458.88 570.4 2456.45 565.27 2453.21 560.77C2449.97 556.09 2445.83 552.4 2440.79 549.7C2435.75 546.82 2429.81 545.38 2422.97 545.38C2416.31 545.38 2410.46 546.82 2405.42 549.7C2400.38 552.4 2396.15 556.09 2392.73 560.77C2389.49 565.27 2387.06 570.49 2385.44 576.43C2383.82 582.19 2383.01 588.04 2383.01 593.98C2383.01 600.1 2383.73 606.22 2385.17 612.34C2386.79 618.46 2389.22 623.95 2392.46 628.81C2395.7 633.67 2399.84 637.63 2404.88 640.69C2409.92 643.75 2415.95 645.28 2422.97 645.28C2429.99 645.28 2436.02 643.75 2441.06 640.69C2446.1 637.63 2450.24 633.67 2453.48 628.81C2456.72 623.95 2459.06 618.46 2460.5 612.34C2462.12 606.22 2462.93 600.1 2462.93 593.98ZM2665.61 672.01C2663.45 672.19 2660.48 672.28 2656.7 672.28C2652.92 672.28 2648.42 672.28 2643.2 672.28C2636 672.1 2629.16 671.29 2622.68 669.85C2616.2 668.41 2610.53 666.07 2605.67 662.83C2600.81 659.59 2596.94 655.27 2594.06 649.87C2591.18 644.47 2589.74 637.63 2589.74 629.35V549.43H2563.82V520.54H2589.74V478.69H2627.27V520.54H2670.74V549.43H2627.27V619.63C2627.27 624.49 2627.72 628.45 2628.62 631.51C2629.7 634.39 2631.32 636.64 2633.48 638.26C2635.64 639.88 2638.34 640.96 2641.58 641.5C2644.82 641.86 2648.69 642.04 2653.19 642.04C2656.25 642.04 2659.94 641.95 2664.26 641.77C2668.58 641.41 2673.62 641.05 2679.38 640.69L2665.61 672.01ZM2897.49 595.06C2897.49 606.94 2895.6 617.83 2891.82 627.73C2888.04 637.45 2882.64 645.82 2875.62 652.84C2868.78 659.86 2860.41 665.35 2850.51 669.31C2840.79 673.27 2829.99 675.25 2818.11 675.25C2806.23 675.25 2795.34 673.27 2785.44 669.31C2775.72 665.35 2767.35 659.86 2760.33 652.84C2753.49 645.82 2748.18 637.45 2744.4 627.73C2740.62 617.83 2738.73 606.94 2738.73 595.06C2738.73 583.36 2740.62 572.65 2744.4 562.93C2748.36 553.21 2753.85 544.93 2760.87 538.09C2767.89 531.07 2776.26 525.67 2785.98 521.89C2795.7 517.93 2806.41 515.95 2818.11 515.95C2829.81 515.95 2840.52 517.93 2850.24 521.89C2859.96 525.67 2868.33 531.07 2875.35 538.09C2882.37 544.93 2887.77 553.21 2891.55 562.93C2895.51 572.65 2897.49 583.36 2897.49 595.06ZM2858.07 593.98C2858.07 587.86 2857.26 581.92 2855.64 576.16C2854.02 570.4 2851.59 565.27 2848.35 560.77C2845.11 556.09 2840.97 552.4 2835.93 549.7C2830.89 546.82 2824.95 545.38 2818.11 545.38C2811.45 545.38 2805.6 546.82 2800.56 549.7C2795.52 552.4 2791.29 556.09 2787.87 560.77C2784.63 565.27 2782.2 570.49 2780.58 576.43C2778.96 582.19 2778.15 588.04 2778.15 593.98C2778.15 600.1 2778.87 606.22 2780.31 612.34C2781.93 618.46 2784.36 623.95 2787.6 628.81C2790.84 633.67 2794.98 637.63 2800.02 640.69C2805.06 643.75 2811.09 645.28 2818.11 645.28C2825.13 645.28 2831.16 643.75 2836.2 640.69C2841.24 637.63 2845.38 633.67 2848.62 628.81C2851.86 623.95 2854.2 618.46 2855.64 612.34C2857.26 606.22 2858.07 600.1 2858.07 593.98ZM3255.12 610.18C3255.12 621.16 3252.78 630.79 3248.1 639.07C3243.6 647.17 3237.57 653.83 3230.01 659.05C3222.45 664.45 3213.9 668.41 3204.36 670.93C3194.82 673.63 3185.1 674.98 3175.2 674.98C3162.6 674.98 3150.99 673.54 3140.37 670.66C3129.93 667.78 3120.75 663.19 3112.83 656.89C3105.09 650.77 3098.88 642.94 3094.2 633.4C3089.52 623.86 3086.82 612.34 3086.1 598.84H3130.11C3131.01 613.6 3135.24 624.31 3142.8 630.97C3150.54 637.63 3161.52 640.96 3175.74 640.96C3180.42 640.96 3184.92 640.42 3189.24 639.34C3193.56 638.08 3197.34 636.19 3200.58 633.67C3204 631.15 3206.7 628 3208.68 624.22C3210.66 620.44 3211.65 615.94 3211.65 610.72C3211.65 605.68 3210.48 601.36 3208.14 597.76C3205.8 593.98 3202.74 590.83 3198.96 588.31C3195.36 585.79 3191.4 583.72 3187.08 582.1C3182.76 580.3 3178.53 578.77 3174.39 577.51L3147.66 570.22C3112.38 560.32 3094.74 541.6 3094.74 514.06C3094.74 503.8 3096.99 494.8 3101.49 487.06C3105.99 479.14 3111.84 472.57 3119.04 467.35C3126.24 462.13 3134.43 458.26 3143.61 455.74C3152.79 453.04 3161.97 451.69 3171.15 451.69C3181.23 451.69 3190.95 453.04 3200.31 455.74C3209.85 458.44 3218.22 462.58 3225.42 468.16C3232.8 473.74 3238.65 480.67 3242.97 488.95C3247.47 497.05 3249.81 506.68 3249.99 517.84H3208.68C3206.88 496.06 3193.74 485.17 3169.26 485.17C3165.3 485.17 3161.34 485.71 3157.38 486.79C3153.42 487.69 3149.82 489.22 3146.58 491.38C3143.34 493.54 3140.73 496.33 3138.75 499.75C3136.77 502.99 3135.78 506.86 3135.78 511.36C3135.6 524.32 3145.59 532.96 3165.75 537.28C3166.11 537.46 3168.36 538.18 3172.5 539.44C3176.64 540.52 3182.58 542.23 3190.32 544.57C3198.96 546.91 3207.15 549.79 3214.89 553.21C3222.81 556.63 3229.74 560.86 3235.68 565.9C3241.62 570.94 3246.3 577.06 3249.72 584.26C3253.32 591.46 3255.12 600.1 3255.12 610.18ZM3481.43 619.36C3480.17 629.26 3477.38 637.72 3473.06 644.74C3468.74 651.76 3463.25 657.52 3456.59 662.02C3450.11 666.52 3442.64 669.76 3434.18 671.74C3425.9 673.9 3417.17 674.98 3407.99 674.98C3396.11 674.98 3385.4 673.18 3375.86 669.58C3366.5 665.98 3358.4 660.85 3351.56 654.19C3344.9 647.53 3339.77 639.52 3336.17 630.16C3332.57 620.62 3330.77 609.91 3330.77 598.03C3330.77 586.51 3332.48 575.8 3335.9 565.9C3339.32 555.82 3344.27 547.09 3350.75 539.71C3357.41 532.33 3365.42 526.57 3374.78 522.43C3384.32 518.11 3395.12 515.95 3407.18 515.95C3418.52 515.95 3428.69 517.75 3437.69 521.35C3446.87 524.95 3454.7 530.08 3461.18 536.74C3467.66 543.22 3472.61 551.05 3476.03 560.23C3479.45 569.41 3481.16 579.67 3481.16 591.01V601.27H3367.22C3367.04 614.59 3370.64 625.3 3378.02 633.4C3385.4 640.96 3395.21 644.74 3407.45 644.74C3428.15 644.74 3440.12 636.28 3443.36 619.36H3481.43ZM3443.9 574.54C3443.72 569.68 3442.55 565.36 3440.39 561.58C3438.23 557.8 3435.35 554.65 3431.75 552.13C3428.33 549.61 3424.37 547.72 3419.87 546.46C3415.55 545.2 3411.14 544.57 3406.64 544.57C3402.14 544.57 3397.73 545.29 3393.41 546.73C3389.27 548.17 3385.49 550.15 3382.07 552.67C3378.83 555.19 3376.04 558.34 3373.7 562.12C3371.36 565.72 3369.83 569.86 3369.11 574.54H3443.9ZM3660.67 549.7C3645.91 548.98 3632.59 551.5 3620.71 557.26C3609.37 563.02 3602.71 570.4 3600.73 579.4V670.93H3562.93V520.54H3599.92V539.17C3602.62 535.21 3606.04 531.88 3610.18 529.18C3614.32 526.3 3618.73 523.96 3623.41 522.16C3628.09 520.36 3632.95 519.01 3637.99 518.11C3643.03 517.21 3647.8 516.67 3652.3 516.49L3660.67 549.7ZM3773.99 494.89H3731.33V456.28H3773.99V494.89ZM3771.56 670.93H3733.76V520.54H3771.56V670.93ZM3958.75 488.41C3954.43 488.05 3950.2 487.78 3946.06 487.6C3942.1 487.24 3938.23 487.06 3934.45 487.06C3927.07 487.24 3922.12 489.13 3919.6 492.73C3917.08 496.33 3915.82 501.64 3915.82 508.66V520.81H3951.73V549.43H3915.82V670.93H3878.29V549.43H3849.4V520.81H3878.29V502.72C3878.29 494.8 3879.55 487.96 3882.07 482.2C3884.77 476.44 3888.37 471.67 3892.87 467.89C3897.55 464.11 3903.04 461.32 3909.34 459.52C3915.64 457.72 3922.48 456.73 3929.86 456.55C3933.46 456.55 3936.97 456.55 3940.39 456.55C3943.81 456.55 3947.32 456.46 3950.92 456.28L3958.75 488.41ZM4264.52 614.5C4264.52 624.94 4262.9 634.03 4259.66 641.77C4256.42 649.33 4251.83 655.63 4245.89 660.67C4240.13 665.71 4233.2 669.4 4225.1 671.74C4217 674.26 4208 675.52 4198.1 675.52C4177.94 675.52 4161.83 670.12 4149.77 659.32C4137.71 648.52 4131.5 632.77 4131.14 612.07H4172.18C4172.36 616.03 4172.9 619.81 4173.8 623.41C4174.88 626.83 4176.41 629.89 4178.39 632.59C4180.55 635.29 4183.16 637.45 4186.22 639.07C4189.46 640.51 4193.24 641.23 4197.56 641.23C4206.02 641.23 4212.41 638.62 4216.73 633.4C4221.05 628.18 4223.21 621.52 4223.21 613.42V456.28H4264.52V614.5ZM4524.25 523.24C4524.25 535.84 4521.91 546.55 4517.23 555.37C4512.73 564.01 4506.61 571.03 4498.87 576.43C4491.13 581.83 4482.13 585.79 4471.87 588.31C4461.79 590.65 4451.17 591.82 4440.01 591.82H4398.97V670.93H4358.74V456.28H4439.74C4451.44 456.28 4462.42 457.36 4472.68 459.52C4482.94 461.5 4491.85 465.01 4499.41 470.05C4507.15 475.09 4513.18 481.93 4517.5 490.57C4522 499.21 4524.25 510.1 4524.25 523.24ZM4483.21 523.78C4483.21 516.76 4482.04 511.09 4479.7 506.77C4477.54 502.45 4474.48 499.12 4470.52 496.78C4466.56 494.44 4461.88 492.91 4456.48 492.19C4451.08 491.29 4445.32 490.84 4439.2 490.84H4398.97V556.72H4439.2C4468.54 556.72 4483.21 545.74 4483.21 523.78Z" fill="black"/>
<path d="M2229.21 908.38H2122.02V960.76H2214.36V995.59H2122.02V1087.93H2081.25V873.28H2229.21V908.38ZM2463.39 1087.93H2289.24V1060.93L2406.69 908.11H2302.2V873.28H2459.61V901.09L2344.05 1052.56H2463.39V1087.93ZM2697.12 908.38H2589.93V960.76H2682.27V995.59H2589.93V1087.93H2549.16V873.28H2697.12V908.38ZM3044.51 873.28L2984.03 1090.09H2942.99L2911.4 967.51C2910.14 963.19 2908.79 957.43 2907.35 950.23C2905.91 942.85 2904.2 933.94 2902.22 923.5C2899.7 936.64 2897.72 947.08 2896.28 954.82C2894.84 962.38 2893.85 967.15 2893.31 969.13L2861.18 1090.09H2820.14L2759.39 873.28H2802.59L2833.64 999.37C2834.54 1002.79 2835.62 1008.19 2836.88 1015.57C2838.14 1022.95 2839.76 1032.58 2841.74 1044.46C2843.72 1030.6 2846.42 1016.02 2849.84 1000.72L2880.89 877.33H2923.55L2954.6 999.91C2957.3 1010.71 2960.27 1025.11 2963.51 1043.11C2965.49 1030.69 2967.11 1020.79 2968.37 1013.41C2969.81 1006.03 2970.8 1001.08 2971.34 998.56L3001.58 873.28H3044.51ZM3400.8 1087.93H3226.65V1060.93L3344.1 908.11H3239.61V873.28H3397.02V901.09L3281.46 1052.56H3400.8V1087.93ZM3622.65 1087.93H3584.31V995.59C3584.31 986.23 3582.33 978.67 3578.37 972.91C3574.59 967.15 3567.48 964.27 3557.04 964.27C3552.9 964.27 3548.85 964.99 3544.89 966.43C3540.93 967.87 3537.42 969.85 3534.36 972.37C3531.3 974.89 3528.69 977.95 3526.53 981.55C3524.37 984.97 3523.02 988.84 3522.48 993.16V1087.93H3484.68V873.55H3522.48V950.23C3527.88 944.83 3534.09 940.78 3541.11 938.08C3548.31 935.2 3555.69 933.76 3563.25 933.76C3581.43 933.76 3595.83 938.62 3606.45 948.34C3617.25 958.06 3622.65 972.19 3622.65 990.73V1087.93ZM3814.79 1087.93C3813.89 1085.23 3813.17 1080.37 3812.63 1073.35C3807.23 1079.65 3800.48 1084.24 3792.38 1087.12C3784.28 1090.18 3776.18 1091.71 3768.08 1091.71C3748.82 1091.71 3734.24 1086.94 3724.34 1077.4C3714.62 1067.86 3709.76 1053.55 3709.76 1034.47V937.54H3747.83V1030.15C3747.83 1040.23 3749.72 1047.88 3753.5 1053.1C3757.46 1058.32 3764.84 1060.93 3775.64 1060.93C3779.78 1060.93 3783.74 1060.3 3787.52 1059.04C3791.3 1057.6 3794.72 1055.62 3797.78 1053.1C3800.84 1050.58 3803.36 1047.61 3805.34 1044.19C3807.5 1040.77 3808.85 1036.99 3809.39 1032.85V937.54H3847.73V1039.06C3847.73 1060.84 3849.8 1077.13 3853.94 1087.93H3814.79ZM4103.33 1087.93H3929.18V1060.93L4046.63 908.11H3942.14V873.28H4099.55V901.09L3983.99 1052.56H4103.33V1087.93ZM4227.98 911.89H4185.32V873.28H4227.98V911.89ZM4225.55 1087.93H4187.75V937.54H4225.55V1087.93ZM4611.61 1087.93H4570.3V992.62H4474.99V1087.93H4433.41V873.28H4474.99V958.06H4570.3V873.28H4611.61V1087.93ZM4846.94 1036.36C4845.68 1046.26 4842.89 1054.72 4838.57 1061.74C4834.25 1068.76 4828.76 1074.52 4822.1 1079.02C4815.62 1083.52 4808.15 1086.76 4799.69 1088.74C4791.41 1090.9 4782.68 1091.98 4773.5 1091.98C4761.62 1091.98 4750.91 1090.18 4741.37 1086.58C4732.01 1082.98 4723.91 1077.85 4717.07 1071.19C4710.41 1064.53 4705.28 1056.52 4701.68 1047.16C4698.08 1037.62 4696.28 1026.91 4696.28 1015.03C4696.28 1003.51 4697.99 992.8 4701.41 982.9C4704.83 972.82 4709.78 964.09 4716.26 956.71C4722.92 949.33 4730.93 943.57 4740.29 939.43C4749.83 935.11 4760.63 932.95 4772.69 932.95C4784.03 932.95 4794.2 934.75 4803.2 938.35C4812.38 941.95 4820.21 947.08 4826.69 953.74C4833.17 960.22 4838.12 968.05 4841.54 977.23C4844.96 986.41 4846.67 996.67 4846.67 1008.01V1018.27H4732.73C4732.55 1031.59 4736.15 1042.3 4743.53 1050.4C4750.91 1057.96 4760.72 1061.74 4772.96 1061.74C4793.66 1061.74 4805.63 1053.28 4808.87 1036.36H4846.94ZM4809.41 991.54C4809.23 986.68 4808.06 982.36 4805.9 978.58C4803.74 974.8 4800.86 971.65 4797.26 969.13C4793.84 966.61 4789.88 964.72 4785.38 963.46C4781.06 962.2 4776.65 961.57 4772.15 961.57C4767.65 961.57 4763.24 962.29 4758.92 963.73C4754.78 965.17 4751 967.15 4747.58 969.67C4744.34 972.19 4741.55 975.34 4739.21 979.12C4736.87 982.72 4735.34 986.86 4734.62 991.54H4809.41ZM4969.47 911.89H4926.81V873.28H4969.47V911.89ZM4967.04 1087.93H4929.24V937.54H4967.04V1087.93Z" fill="black"/>
</svg>
