<svg width="5007" height="2212" viewBox="0 0 5007 2212" fill="none" xmlns="http://www.w3.org/2000/svg">
<rect width="5007" height="2212" fill="#B2B2B2"/>
<path opacity="0.2" d="M414.756 1434.94C429.886 1434.43 441.711 1426.55 451.912 1415.41C461.632 1404.8 470.316 1390.73 479.272 1376.22C479.632 1375.64 479.992 1375.05 480.353 1374.47C480.358 1374.46 480.363 1374.45 480.368 1374.44L488.819 1361.16C496.27 1374.98 502.931 1388.73 508.261 1402.44L508.264 1402.45L508.268 1402.46C519.764 1431.64 525.091 1458.21 529.565 1484.15C531.873 1498.45 536.366 1511.47 546.015 1520.87C555.762 1530.36 570.074 1535.5 590.569 1535.5C632.89 1535.5 667.796 1490.75 667.796 1425.05C667.796 1410.73 665.716 1396.71 663.134 1381.11C662.789 1379.02 662.435 1376.91 662.075 1374.76C659.73 1360.76 657.133 1345.25 655.202 1326.72L655.2 1326.7L655.199 1326.69C648.923 1270.21 643.572 1192.42 647.134 1137.15C647.135 1137.14 647.135 1137.14 647.136 1137.13L647.945 1126.61C679.497 1076.28 727.742 1025.88 777.471 988.003C802.475 968.958 827.761 953.149 851.381 942.12C875.063 931.062 896.769 924.95 914.699 924.95C934.795 924.95 950.745 931.064 963.517 941.97C976.376 952.95 986.285 969.026 993.753 989.343C1008.72 1030.07 1013.45 1086.63 1013.45 1149.41C1013.45 1185.82 1008.61 1218.14 1000.49 1246.37C968.84 1238.78 932.949 1233.8 890.457 1233.8C809.245 1233.8 732.421 1283.26 732.421 1364C732.421 1437.41 797.388 1483.42 875.193 1483.42C960.177 1483.42 1016.37 1454.09 1054.92 1410.23C1061.17 1416.93 1067 1423.44 1072.43 1429.51L1073.64 1430.86C1080.34 1438.34 1086.47 1445.16 1091.95 1450.65C1101.83 1460.97 1110.25 1468.97 1119.1 1474.35C1128.12 1479.84 1137.47 1482.53 1149.04 1482.53C1166.41 1482.53 1180.46 1475.97 1190.12 1465.07C1199.72 1454.24 1204.72 1439.42 1204.72 1423.26C1204.72 1385.79 1188.69 1359.52 1165.56 1338.24L1165.52 1338.2L1165.47 1338.16C1163.18 1336.15 1160.82 1334.06 1158.4 1331.91C1146.46 1321.31 1132.79 1309.18 1115.79 1297.54C1127.95 1260.88 1136.48 1217.03 1136.48 1151.2C1136.48 1061.41 1119.58 990.986 1085.72 942.888C1051.68 894.538 1000.85 869.261 934.452 869.261C900.644 869.261 862.187 882.416 824.588 901.159C792.148 917.331 760.018 937.83 731.577 958.173C732.138 955.631 732.443 952.958 732.443 950.08C732.443 946.656 731.18 942.593 729.368 938.557C727.504 934.404 724.853 929.833 721.632 925.264C715.899 917.134 708.146 908.711 699.369 902.558C700.692 899.294 701.972 896.26 703.236 893.731L703.265 893.672L703.293 893.613C706.161 887.435 709.091 881.794 711.91 876.409C712.103 876.04 712.296 875.672 712.488 875.305C715.085 870.346 717.596 865.552 719.788 860.847C724.52 850.691 727.953 840.575 727.953 828.868C727.953 818.168 723.103 806.45 715.516 795.157C707.873 783.78 697.168 772.406 684.77 762.304C660.096 742.199 627.914 726.5 598.65 726.5C568.967 726.5 544.022 734.882 515.882 748.498L513.342 749.727V752.549V766.017V769.365L516.549 770.327C543.171 778.314 561.594 787.126 574.605 795.799C582.545 801.092 586.436 804.827 588.581 809.029C590.748 813.272 591.456 818.604 591.456 827.97C591.456 845.3 588.03 884.289 582.805 930.765C558.364 940.755 531.426 951.055 507.457 958.936C482.45 967.159 461.343 972.516 449.604 972.516C428.449 972.516 413.46 959.654 397.419 940.047L395.398 937.577L392.398 938.668L382.522 942.259L379.849 943.231L379.58 946.062C377.809 964.653 375.856 986.261 380.64 1002.53L380.654 1002.58L380.669 1002.62C387.244 1023.29 402.584 1045.72 422.16 1062.99C441.715 1080.25 466.077 1092.85 490.906 1092.85C503.453 1092.85 512.619 1086.23 520.502 1078.7C523.198 1076.12 525.888 1073.29 528.528 1070.51C529.702 1069.27 530.867 1068.05 532.017 1066.86C535.842 1062.91 539.686 1059.19 543.886 1056.04C549.806 1051.6 560.223 1044.57 572.975 1037.13C572.599 1042.38 572.161 1047.62 571.719 1052.84L571.628 1053.92C571.023 1061.08 570.42 1068.2 569.991 1075.16C509.21 1163.5 436.159 1249.87 393.448 1292.58C372.795 1313.23 362.5 1338.64 362.5 1370.28C362.5 1411.59 388.17 1435.96 414.756 1434.94ZM414.756 1434.94C414.75 1434.94 414.743 1434.94 414.737 1434.94L414.587 1430.44M414.756 1434.94C414.757 1434.94 414.759 1434.94 414.76 1434.94L414.587 1430.44M414.587 1430.44C441.053 1429.56 457.118 1403.54 475.556 1373.67C475.883 1373.14 476.211 1372.61 476.54 1372.08L414.587 1430.44ZM540.433 1347.93L540.324 1347.85L540.21 1347.76C534.473 1343.67 522.696 1335.04 510.382 1326.01C527.967 1297.47 544.404 1271.25 561.183 1244.86C560.462 1263.14 559.758 1280.33 559.131 1295.64C558.396 1313.6 557.767 1328.96 557.341 1340.46C557.129 1344.87 556.455 1348.04 555.549 1350.17C554.657 1352.27 553.688 1353.05 552.98 1353.36C552.259 1353.67 550.993 1353.84 548.808 1353.07C546.599 1352.3 543.8 1350.67 540.433 1347.93ZM845.563 1386.43C822.315 1386.43 806.285 1381.6 796.197 1374.46C786.261 1367.44 781.825 1358.02 781.825 1347.84C781.825 1333.46 790.873 1322.14 805.212 1314.17C819.563 1306.2 838.53 1302.05 856.338 1302.05C895.76 1302.05 931.285 1314.91 962.191 1333.09C949.659 1351.12 934.89 1364.09 916.903 1372.74C897.599 1382.01 874.3 1386.43 845.563 1386.43Z" stroke="black" stroke-width="9"/>
<path opacity="0.2" d="M4640 1980.48H4647.21L4644.04 1974C4613.7 1911.87 4597.67 1832.12 4597.67 1731.59V1441.88C4599.14 1354.66 4575.47 1284.76 4529.27 1231.11L4529.27 1231.1L4529.26 1231.1C4471.04 1163.92 4381.77 1131.5 4261 1131.5C4162.05 1131.5 4079.06 1159.58 4012.3 1214.47L4012.27 1214.5L4012.24 1214.53C3951.43 1266.44 3917.15 1328.94 3909.71 1404.82L3909.23 1409.76H3914.19H4116.13H4120.12L4120.6 1405.8C4124.85 1370.34 4140.36 1343.72 4165.59 1325.5L4165.61 1325.48L4165.63 1325.47C4192.47 1305.69 4226.58 1295.62 4271.24 1295.62C4318.43 1295.62 4351.91 1311.26 4372.83 1343.32C4390.72 1370.84 4399.44 1408.11 4398.53 1455.54C4371.66 1459.73 4340.77 1463.91 4305.86 1468.1C4168.38 1482.73 4072.44 1503.26 4020.35 1531.54C3973 1556.7 3937.24 1587.91 3913.33 1625.27C3889.4 1662.66 3877.5 1705.96 3877.5 1755.01C3877.5 1845.62 3911.8 1911.59 3982.12 1953.49C4034.25 1984.77 4099.51 1999.5 4180.52 1999.5C4276.22 1999.5 4352.94 1966.38 4411.59 1901.41C4416.37 1931.41 4424.69 1957.72 4435.55 1978.09L4436.83 1980.48H4439.53H4640ZM4401.28 1609.32L4399.91 1685.83C4392.74 1729.8 4370.03 1766.75 4330.01 1796.77C4291.38 1825.38 4244.06 1839.77 4190.76 1839.77C4157.73 1839.77 4130.96 1832.59 4111.47 1818.69C4089.47 1802.16 4078.24 1777.36 4079.65 1743.5C4081.03 1711.76 4098.86 1685.16 4134.53 1663.75C4165.95 1645.19 4209.14 1633.59 4263.06 1626.3C4316.27 1619.3 4362.77 1613.64 4401.28 1609.32Z" stroke="black" stroke-width="9"/>
<mask id="path-3-inside-1_69_104" fill="white">
<rect x="3885" y="1377" width="54" height="54" rx="5"/>
</mask>
<rect x="3885" y="1377" width="54" height="54" rx="5" fill="#B2B2B2" stroke="#8E8E8E" stroke-width="12" mask="url(#path-3-inside-1_69_104)"/>
<mask id="path-4-inside-2_69_104" fill="white">
<rect x="4234" y="1109" width="54" height="54" rx="5"/>
</mask>
<rect x="4234" y="1109" width="54" height="54" rx="5" fill="#B2B2B2" stroke="#8E8E8E" stroke-width="12" mask="url(#path-4-inside-2_69_104)"/>
<mask id="path-5-inside-3_69_104" fill="white">
<rect x="3986" y="1183" width="54" height="54" rx="5"/>
</mask>
<rect x="3986" y="1183" width="54" height="54" rx="5" fill="#B2B2B2" stroke="#8E8E8E" stroke-width="12" mask="url(#path-5-inside-3_69_104)"/>
<mask id="path-6-inside-4_69_104" fill="white">
<rect x="970" y="1221" width="48" height="48" rx="5"/>
</mask>
<rect x="970" y="1221" width="48" height="48" rx="5" fill="#B2B2B2" stroke="#8E8E8E" stroke-width="12" mask="url(#path-6-inside-4_69_104)"/>
<mask id="path-7-inside-5_69_104" fill="white">
<rect x="816" y="1214" width="48" height="48" rx="5"/>
</mask>
<rect x="816" y="1214" width="48" height="48" rx="5" fill="#B2B2B2" stroke="#8E8E8E" stroke-width="12" mask="url(#path-7-inside-5_69_104)"/>
<mask id="path-8-inside-6_69_104" fill="white">
<rect x="707" y="1335" width="48" height="48" rx="5"/>
</mask>
<rect x="707" y="1335" width="48" height="48" rx="5" fill="#B2B2B2" stroke="#8E8E8E" stroke-width="12" mask="url(#path-8-inside-6_69_104)"/>
<mask id="path-9-inside-7_69_104" fill="white">
<rect x="843" y="1460" width="48" height="48" rx="5"/>
</mask>
<rect x="843" y="1460" width="48" height="48" rx="5" fill="#B2B2B2" stroke="#8E8E8E" stroke-width="12" mask="url(#path-9-inside-7_69_104)"/>
<mask id="path-10-inside-8_69_104" fill="white">
<rect x="1033" y="1383" width="48" height="48" rx="5"/>
</mask>
<rect x="1033" y="1383" width="48" height="48" rx="5" fill="#B2B2B2" stroke="#8E8E8E" stroke-width="12" mask="url(#path-10-inside-8_69_104)"/>
<mask id="path-11-inside-9_69_104" fill="white">
<rect x="1096" y="982" width="48" height="48" rx="5"/>
</mask>
<rect x="1096" y="982" width="48" height="48" rx="5" fill="#B2B2B2" stroke="#8E8E8E" stroke-width="12" mask="url(#path-11-inside-9_69_104)"/>
<mask id="path-12-inside-10_69_104" fill="white">
<rect x="900" y="901" width="48" height="48" rx="5"/>
</mask>
<rect x="900" y="901" width="48" height="48" rx="5" fill="#B2B2B2" stroke="#8E8E8E" stroke-width="12" mask="url(#path-12-inside-10_69_104)"/>
<mask id="path-13-inside-11_69_104" fill="white">
<rect x="731" y="982" width="48" height="48" rx="5"/>
</mask>
<rect x="731" y="982" width="48" height="48" rx="5" fill="#B2B2B2" stroke="#8E8E8E" stroke-width="12" mask="url(#path-13-inside-11_69_104)"/>
<mask id="path-14-inside-12_69_104" fill="white">
<rect x="674" y="884" width="48" height="48" rx="5"/>
</mask>
<rect x="674" y="884" width="48" height="48" rx="5" fill="#B2B2B2" stroke="#8E8E8E" stroke-width="12" mask="url(#path-14-inside-12_69_104)"/>
<mask id="path-15-inside-13_69_104" fill="white">
<rect x="698" y="803" width="48" height="48" rx="5"/>
</mask>
<rect x="698" y="803" width="48" height="48" rx="5" fill="#B2B2B2" stroke="#8E8E8E" stroke-width="12" mask="url(#path-15-inside-13_69_104)"/>
<mask id="path-16-inside-14_69_104" fill="white">
<rect x="626" y="707" width="48" height="48" rx="5"/>
</mask>
<rect x="626" y="707" width="48" height="48" rx="5" fill="#B2B2B2" stroke="#8E8E8E" stroke-width="12" mask="url(#path-16-inside-14_69_104)"/>
<mask id="path-17-inside-15_69_104" fill="white">
<rect x="490" y="738" width="48" height="48" rx="5"/>
</mask>
<rect x="490" y="738" width="48" height="48" rx="5" fill="#B2B2B2" stroke="#8E8E8E" stroke-width="12" mask="url(#path-17-inside-15_69_104)"/>
<mask id="path-18-inside-16_69_104" fill="white">
<rect x="564" y="788" width="48" height="48" rx="5"/>
</mask>
<rect x="564" y="788" width="48" height="48" rx="5" fill="#B2B2B2" stroke="#8E8E8E" stroke-width="12" mask="url(#path-18-inside-16_69_104)"/>
<mask id="path-19-inside-17_69_104" fill="white">
<rect x="553" y="901" width="48" height="48" rx="5"/>
</mask>
<rect x="553" y="901" width="48" height="48" rx="5" fill="#B2B2B2" stroke="#8E8E8E" stroke-width="12" mask="url(#path-19-inside-17_69_104)"/>
<mask id="path-20-inside-18_69_104" fill="white">
<rect x="430" y="943" width="48" height="48" rx="5"/>
</mask>
<rect x="430" y="943" width="48" height="48" rx="5" fill="#B2B2B2" stroke="#8E8E8E" stroke-width="12" mask="url(#path-20-inside-18_69_104)"/>
<mask id="path-21-inside-19_69_104" fill="white">
<rect x="626" y="1099" width="48" height="48" rx="5"/>
</mask>
<rect x="626" y="1099" width="48" height="48" rx="5" fill="#B2B2B2" stroke="#8E8E8E" stroke-width="12" mask="url(#path-21-inside-19_69_104)"/>
<mask id="path-22-inside-20_69_104" fill="white">
<rect x="643" y="1407" width="48" height="48" rx="5"/>
</mask>
<rect x="643" y="1407" width="48" height="48" rx="5" fill="#B2B2B2" stroke="#8E8E8E" stroke-width="12" mask="url(#path-22-inside-20_69_104)"/>
<mask id="path-23-inside-21_69_104" fill="white">
<rect x="568" y="1508" width="48" height="48" rx="5"/>
</mask>
<rect x="568" y="1508" width="48" height="48" rx="5" fill="#B2B2B2" stroke="#8E8E8E" stroke-width="12" mask="url(#path-23-inside-21_69_104)"/>
<mask id="path-24-inside-22_69_104" fill="white">
<rect x="511" y="1467" width="48" height="48" rx="5"/>
</mask>
<rect x="511" y="1467" width="48" height="48" rx="5" fill="#B2B2B2" stroke="#8E8E8E" stroke-width="12" mask="url(#path-24-inside-22_69_104)"/>
<mask id="path-25-inside-23_69_104" fill="white">
<rect x="466" y="1341" width="48" height="48" rx="5"/>
</mask>
<rect x="466" y="1341" width="48" height="48" rx="5" fill="#B2B2B2" stroke="#8E8E8E" stroke-width="12" mask="url(#path-25-inside-23_69_104)"/>
<mask id="path-26-inside-24_69_104" fill="white">
<rect x="530" y="1325" width="48" height="48" rx="5"/>
</mask>
<rect x="530" y="1325" width="48" height="48" rx="5" fill="#B2B2B2" stroke="#8E8E8E" stroke-width="12" mask="url(#path-26-inside-24_69_104)"/>
<mask id="path-27-inside-25_69_104" fill="white">
<rect x="540" y="1214" width="48" height="48" rx="5"/>
</mask>
<rect x="540" y="1214" width="48" height="48" rx="5" fill="#B2B2B2" stroke="#8E8E8E" stroke-width="12" mask="url(#path-27-inside-25_69_104)"/>
<mask id="path-28-inside-26_69_104" fill="white">
<rect x="548" y="1006" width="48" height="48" rx="5"/>
</mask>
<rect x="548" y="1006" width="48" height="48" rx="5" fill="#B2B2B2" stroke="#8E8E8E" stroke-width="12" mask="url(#path-28-inside-26_69_104)"/>
<mask id="path-29-inside-27_69_104" fill="white">
<rect x="482" y="1064" width="48" height="48" rx="5"/>
</mask>
<rect x="482" y="1064" width="48" height="48" rx="5" fill="#B2B2B2" stroke="#8E8E8E" stroke-width="12" mask="url(#path-29-inside-27_69_104)"/>
<mask id="path-30-inside-28_69_104" fill="white">
<rect x="985" y="1041" width="48" height="48" rx="5"/>
</mask>
<rect x="985" y="1041" width="48" height="48" rx="5" fill="#B2B2B2" stroke="#8E8E8E" stroke-width="12" mask="url(#path-30-inside-28_69_104)"/>
<mask id="path-31-inside-29_69_104" fill="white">
<rect x="1157" y="1443" width="48" height="48" rx="5"/>
</mask>
<rect x="1157" y="1443" width="48" height="48" rx="5" fill="#B2B2B2" stroke="#8E8E8E" stroke-width="12" mask="url(#path-31-inside-29_69_104)"/>
<mask id="path-32-inside-30_69_104" fill="white">
<rect x="1096" y="1278" width="48" height="48" rx="5"/>
</mask>
<rect x="1096" y="1278" width="48" height="48" rx="5" fill="#B2B2B2" stroke="#8E8E8E" stroke-width="12" mask="url(#path-32-inside-30_69_104)"/>
<mask id="path-33-inside-31_69_104" fill="white">
<rect x="4493" y="1197" width="54" height="54" rx="5"/>
</mask>
<rect x="4493" y="1197" width="54" height="54" rx="5" fill="#B2B2B2" stroke="#8E8E8E" stroke-width="12" mask="url(#path-33-inside-31_69_104)"/>
<mask id="path-34-inside-32_69_104" fill="white">
<rect x="4568" y="1399" width="54" height="54" rx="5"/>
</mask>
<rect x="4568" y="1399" width="54" height="54" rx="5" fill="#B2B2B2" stroke="#8E8E8E" stroke-width="12" mask="url(#path-34-inside-32_69_104)"/>
<mask id="path-35-inside-33_69_104" fill="white">
<rect x="4565" y="1722" width="54" height="54" rx="5"/>
</mask>
<rect x="4565" y="1722" width="54" height="54" rx="5" fill="#B2B2B2" stroke="#8E8E8E" stroke-width="12" mask="url(#path-35-inside-33_69_104)"/>
<mask id="path-36-inside-34_69_104" fill="white">
<rect x="4095" y="1377" width="54" height="54" rx="5"/>
</mask>
<rect x="4095" y="1377" width="54" height="54" rx="5" fill="#B2B2B2" stroke="#8E8E8E" stroke-width="12" mask="url(#path-36-inside-34_69_104)"/>
<mask id="path-37-inside-35_69_104" fill="white">
<rect x="4234" y="1270" width="54" height="54" rx="5"/>
</mask>
<rect x="4234" y="1270" width="54" height="54" rx="5" fill="#B2B2B2" stroke="#8E8E8E" stroke-width="12" mask="url(#path-37-inside-35_69_104)"/>
<mask id="path-38-inside-36_69_104" fill="white">
<rect x="4375" y="1426" width="54" height="54" rx="5"/>
</mask>
<rect x="4375" y="1426" width="54" height="54" rx="5" fill="#B2B2B2" stroke="#8E8E8E" stroke-width="12" mask="url(#path-38-inside-36_69_104)"/>
<mask id="path-39-inside-37_69_104" fill="white">
<rect x="4250" y="1445" width="54" height="54" rx="5"/>
</mask>
<rect x="4250" y="1445" width="54" height="54" rx="5" fill="#B2B2B2" stroke="#8E8E8E" stroke-width="12" mask="url(#path-39-inside-37_69_104)"/>
<mask id="path-40-inside-38_69_104" fill="white">
<rect x="4061" y="1474" width="54" height="54" rx="5"/>
</mask>
<rect x="4061" y="1474" width="54" height="54" rx="5" fill="#B2B2B2" stroke="#8E8E8E" stroke-width="12" mask="url(#path-40-inside-38_69_104)"/>
<mask id="path-41-inside-39_69_104" fill="white">
<rect x="3854" y="1713" width="54" height="54" rx="5"/>
</mask>
<rect x="3854" y="1713" width="54" height="54" rx="5" fill="#B2B2B2" stroke="#8E8E8E" stroke-width="12" mask="url(#path-41-inside-39_69_104)"/>
<mask id="path-42-inside-40_69_104" fill="white">
<rect x="3939" y="1921" width="54" height="54" rx="5"/>
</mask>
<rect x="3939" y="1921" width="54" height="54" rx="5" fill="#B2B2B2" stroke="#8E8E8E" stroke-width="12" mask="url(#path-42-inside-40_69_104)"/>
<mask id="path-43-inside-41_69_104" fill="white">
<rect x="4377" y="1874" width="54" height="54" rx="5"/>
</mask>
<rect x="4377" y="1874" width="54" height="54" rx="5" fill="#B2B2B2" stroke="#8E8E8E" stroke-width="12" mask="url(#path-43-inside-41_69_104)"/>
<mask id="path-44-inside-42_69_104" fill="white">
<rect x="4367" y="1578" width="54" height="54" rx="5"/>
</mask>
<rect x="4367" y="1578" width="54" height="54" rx="5" fill="#B2B2B2" stroke="#8E8E8E" stroke-width="12" mask="url(#path-44-inside-42_69_104)"/>
<mask id="path-45-inside-43_69_104" fill="white">
<rect x="4173" y="1605" width="54" height="54" rx="5"/>
</mask>
<rect x="4173" y="1605" width="54" height="54" rx="5" fill="#B2B2B2" stroke="#8E8E8E" stroke-width="12" mask="url(#path-45-inside-43_69_104)"/>
<mask id="path-46-inside-44_69_104" fill="white">
<rect x="4052" y="1713" width="54" height="54" rx="5"/>
</mask>
<rect x="4052" y="1713" width="54" height="54" rx="5" fill="#B2B2B2" stroke="#8E8E8E" stroke-width="12" mask="url(#path-46-inside-44_69_104)"/>
<mask id="path-47-inside-45_69_104" fill="white">
<rect x="4180" y="1805" width="54" height="54" rx="5"/>
</mask>
<rect x="4180" y="1805" width="54" height="54" rx="5" fill="#B2B2B2" stroke="#8E8E8E" stroke-width="12" mask="url(#path-47-inside-45_69_104)"/>
<mask id="path-48-inside-46_69_104" fill="white">
<rect x="4367" y="1675" width="54" height="54" rx="5"/>
</mask>
<rect x="4367" y="1675" width="54" height="54" rx="5" fill="#B2B2B2" stroke="#8E8E8E" stroke-width="12" mask="url(#path-48-inside-46_69_104)"/>
<mask id="path-49-inside-47_69_104" fill="white">
<rect x="4340" y="1297" width="54" height="54" rx="5"/>
</mask>
<rect x="4340" y="1297" width="54" height="54" rx="5" fill="#B2B2B2" stroke="#8E8E8E" stroke-width="12" mask="url(#path-49-inside-47_69_104)"/>
<mask id="path-50-inside-48_69_104" fill="white">
<rect x="4136" y="1297" width="54" height="54" rx="5"/>
</mask>
<rect x="4136" y="1297" width="54" height="54" rx="5" fill="#B2B2B2" stroke="#8E8E8E" stroke-width="12" mask="url(#path-50-inside-48_69_104)"/>
<path opacity="0.2" d="M2786.03 205.908L2732.61 152.485L2730.37 150.249L2727.51 151.595C2673.28 177.114 2582.73 200.395 2499.86 214.875L2493.45 215.996L2496.76 221.598C2506.93 238.799 2518.06 270.533 2522.01 289.506L2522.88 293.658L2527.07 293.041C2530.55 292.529 2534.06 292.016 2537.6 291.5C2560.13 288.212 2583.68 284.774 2607.31 280.335V367.869H2507.89H2503.39V372.369V459.373V463.873H2507.89H2590.42C2566.99 539.496 2529.46 623.697 2491.41 674.172L2489.58 676.594L2491.14 679.196C2505.61 703.314 2526.3 742.375 2534.18 769.182L2536.82 778.139L2542.18 770.498C2565.58 737.179 2587.63 691.721 2607.31 642.224V894.389V898.889H2611.81H2702.84H2707.34V894.389V592.293C2722.11 615.373 2735.9 637.734 2743.96 653.184L2747.33 659.63L2751.6 653.744L2803.07 582.777V892.778V897.278H2807.57H2895.38H2899.88V892.778V469.845V465.345H2895.38H2807.57H2803.07V469.845V573.243C2786.69 555.375 2729.86 497.871 2707.34 478.256V463.873H2783.4H2787.9V459.373V372.369V367.869H2783.4H2707.34V257.454C2736.85 249.932 2764.36 241.045 2789.85 230.786C2797.23 248.497 2804.08 269.902 2805.51 284.203L2805.94 288.575L2810.33 288.242C2948.18 277.762 3108.07 256.789 3224.54 222.009L3231.49 219.933L3226.54 214.628L3159.68 142.931L3157.7 140.817L3154.96 141.731C3066.2 171.318 2917.93 193.816 2786.03 205.908ZM2794.96 312.484L2789.7 314.109L2792.34 318.944C2815.52 361.312 2836.24 417.994 2841.78 455.994L2842.56 461.33L2847.67 459.61L2929.04 432.22L2932.74 430.971L2932.02 427.126C2924.65 387.816 2901.85 331.695 2875.8 290.996L2873.96 288.113L2870.69 289.122L2794.96 312.484ZM3065.8 417.778L3069.65 416.667L3068.99 412.715C3062.47 373.626 3044.62 315.215 3023.49 271.33L3021.86 267.947L3018.24 268.944L2939.29 290.695L2934.29 292.074L2936.36 296.833C2955.59 340.884 2973.12 399.995 2976.28 437.996L2976.74 443.467L2982.02 441.946L3065.8 417.778ZM3150.33 252.027L3145.9 250.805L3144.77 255.261C3128.74 318.578 3096.63 403.69 3070.96 457.433L3068.7 462.159L3073.72 463.679L3116.38 476.624H2941.29H2936.79V481.124V896V900.5H2941.29H3026.69H3031.19V896V865.054H3136.58V891.972V896.472H3141.08H3230.5H3235V891.972V481.124V476.624H3230.5H3163.84C3189.96 426.413 3222.09 352.437 3246.82 283.667L3248.46 279.097L3243.78 277.806L3150.33 252.027ZM3031.19 774.69V711.993H3136.58V774.69H3031.19ZM3136.58 566.988V624.851H3031.19V566.988H3136.58Z" stroke="black" stroke-width="9"/>
<mask id="path-52-inside-49_69_104" fill="white">
<rect x="3219" y="879" width="32" height="32" rx="5"/>
</mask>
<rect x="3219" y="879" width="32" height="32" rx="5" fill="#B2B2B2" stroke="#8E8E8E" stroke-width="12" mask="url(#path-52-inside-49_69_104)"/>
<mask id="path-53-inside-50_69_104" fill="white">
<rect x="2921" y="879" width="32" height="32" rx="5"/>
</mask>
<rect x="2921" y="879" width="32" height="32" rx="5" fill="#B2B2B2" stroke="#8E8E8E" stroke-width="12" mask="url(#path-53-inside-50_69_104)"/>
<mask id="path-54-inside-51_69_104" fill="white">
<rect x="2788" y="879" width="32" height="32" rx="5"/>
</mask>
<rect x="2788" y="879" width="32" height="32" rx="5" fill="#B2B2B2" stroke="#8E8E8E" stroke-width="12" mask="url(#path-54-inside-51_69_104)"/>
<mask id="path-55-inside-52_69_104" fill="white">
<rect x="2593" y="879" width="32" height="32" rx="5"/>
</mask>
<rect x="2593" y="879" width="32" height="32" rx="5" fill="#B2B2B2" stroke="#8E8E8E" stroke-width="12" mask="url(#path-55-inside-52_69_104)"/>
<mask id="path-56-inside-53_69_104" fill="white">
<rect x="2598" y="604" width="32" height="32" rx="5"/>
</mask>
<rect x="2598" y="604" width="32" height="32" rx="5" fill="#B2B2B2" stroke="#8E8E8E" stroke-width="12" mask="url(#path-56-inside-53_69_104)"/>
<mask id="path-57-inside-54_69_104" fill="white">
<rect x="2590" y="446" width="32" height="32" rx="5"/>
</mask>
<rect x="2590" y="446" width="32" height="32" rx="5" fill="#B2B2B2" stroke="#8E8E8E" stroke-width="12" mask="url(#path-57-inside-54_69_104)"/>
<mask id="path-58-inside-55_69_104" fill="white">
<rect x="2690" y="446" width="32" height="32" rx="5"/>
</mask>
<rect x="2690" y="446" width="32" height="32" rx="5" fill="#B2B2B2" stroke="#8E8E8E" stroke-width="12" mask="url(#path-58-inside-55_69_104)"/>
<mask id="path-59-inside-56_69_104" fill="white">
<rect x="2766" y="446" width="32" height="32" rx="5"/>
</mask>
<rect x="2766" y="446" width="32" height="32" rx="5" fill="#B2B2B2" stroke="#8E8E8E" stroke-width="12" mask="url(#path-59-inside-56_69_104)"/>
<mask id="path-60-inside-57_69_104" fill="white">
<rect x="2766" y="353" width="32" height="32" rx="5"/>
</mask>
<rect x="2766" y="353" width="32" height="32" rx="5" fill="#B2B2B2" stroke="#8E8E8E" stroke-width="12" mask="url(#path-60-inside-57_69_104)"/>
<mask id="path-61-inside-58_69_104" fill="white">
<rect x="2690" y="353" width="32" height="32" rx="5"/>
</mask>
<rect x="2690" y="353" width="32" height="32" rx="5" fill="#B2B2B2" stroke="#8E8E8E" stroke-width="12" mask="url(#path-61-inside-58_69_104)"/>
<mask id="path-62-inside-59_69_104" fill="white">
<rect x="2590" y="353" width="32" height="32" rx="5"/>
</mask>
<rect x="2590" y="353" width="32" height="32" rx="5" fill="#B2B2B2" stroke="#8E8E8E" stroke-width="12" mask="url(#path-62-inside-59_69_104)"/>
<mask id="path-63-inside-60_69_104" fill="white">
<rect x="2488" y="353" width="32" height="32" rx="5"/>
</mask>
<rect x="2488" y="353" width="32" height="32" rx="5" fill="#B2B2B2" stroke="#8E8E8E" stroke-width="12" mask="url(#path-63-inside-60_69_104)"/>
<mask id="path-64-inside-61_69_104" fill="white">
<rect x="2483" y="203" width="32" height="32" rx="5"/>
</mask>
<rect x="2483" y="203" width="32" height="32" rx="5" fill="#B2B2B2" stroke="#8E8E8E" stroke-width="12" mask="url(#path-64-inside-61_69_104)"/>
<mask id="path-65-inside-62_69_104" fill="white">
<rect x="2511" y="272" width="32" height="32" rx="5"/>
</mask>
<rect x="2511" y="272" width="32" height="32" rx="5" fill="#B2B2B2" stroke="#8E8E8E" stroke-width="12" mask="url(#path-65-inside-62_69_104)"/>
<mask id="path-66-inside-63_69_104" fill="white">
<rect x="2590" y="265" width="32" height="32" rx="5"/>
</mask>
<rect x="2590" y="265" width="32" height="32" rx="5" fill="#B2B2B2" stroke="#8E8E8E" stroke-width="12" mask="url(#path-66-inside-63_69_104)"/>
<mask id="path-67-inside-64_69_104" fill="white">
<rect x="2690" y="240" width="32" height="32" rx="5"/>
</mask>
<rect x="2690" y="240" width="32" height="32" rx="5" fill="#B2B2B2" stroke="#8E8E8E" stroke-width="12" mask="url(#path-67-inside-64_69_104)"/>
<mask id="path-68-inside-65_69_104" fill="white">
<rect x="2776" y="203" width="32" height="32" rx="5"/>
</mask>
<rect x="2776" y="203" width="32" height="32" rx="5" fill="#B2B2B2" stroke="#8E8E8E" stroke-width="12" mask="url(#path-68-inside-65_69_104)"/>
<mask id="path-69-inside-66_69_104" fill="white">
<rect x="3141" y="130" width="32" height="32" rx="5"/>
</mask>
<rect x="3141" y="130" width="32" height="32" rx="5" fill="#B2B2B2" stroke="#8E8E8E" stroke-width="12" mask="url(#path-69-inside-66_69_104)"/>
<mask id="path-70-inside-67_69_104" fill="white">
<rect x="3211" y="203" width="32" height="32" rx="5"/>
</mask>
<rect x="3211" y="203" width="32" height="32" rx="5" fill="#B2B2B2" stroke="#8E8E8E" stroke-width="12" mask="url(#path-70-inside-67_69_104)"/>
<mask id="path-71-inside-68_69_104" fill="white">
<rect x="2790" y="265" width="32" height="32" rx="5"/>
</mask>
<rect x="2790" y="265" width="32" height="32" rx="5" fill="#B2B2B2" stroke="#8E8E8E" stroke-width="12" mask="url(#path-71-inside-68_69_104)"/>
<mask id="path-72-inside-69_69_104" fill="white">
<rect x="2774" y="304" width="32" height="32" rx="5"/>
</mask>
<rect x="2774" y="304" width="32" height="32" rx="5" fill="#B2B2B2" stroke="#8E8E8E" stroke-width="12" mask="url(#path-72-inside-69_69_104)"/>
<mask id="path-73-inside-70_69_104" fill="white">
<rect x="2853" y="272" width="32" height="32" rx="5"/>
</mask>
<rect x="2853" y="272" width="32" height="32" rx="5" fill="#B2B2B2" stroke="#8E8E8E" stroke-width="12" mask="url(#path-73-inside-70_69_104)"/>
<mask id="path-74-inside-71_69_104" fill="white">
<rect x="2925" y="272" width="32" height="32" rx="5"/>
</mask>
<rect x="2925" y="272" width="32" height="32" rx="5" fill="#B2B2B2" stroke="#8E8E8E" stroke-width="12" mask="url(#path-74-inside-71_69_104)"/>
<mask id="path-75-inside-72_69_104" fill="white">
<rect x="3004" y="249" width="32" height="32" rx="5"/>
</mask>
<rect x="3004" y="249" width="32" height="32" rx="5" fill="#B2B2B2" stroke="#8E8E8E" stroke-width="12" mask="url(#path-75-inside-72_69_104)"/>
<mask id="path-76-inside-73_69_104" fill="white">
<rect x="3131" y="233" width="32" height="32" rx="5"/>
</mask>
<rect x="3131" y="233" width="32" height="32" rx="5" fill="#B2B2B2" stroke="#8E8E8E" stroke-width="12" mask="url(#path-76-inside-73_69_104)"/>
<mask id="path-77-inside-74_69_104" fill="white">
<rect x="3231" y="265" width="32" height="32" rx="5"/>
</mask>
<rect x="3231" y="265" width="32" height="32" rx="5" fill="#B2B2B2" stroke="#8E8E8E" stroke-width="12" mask="url(#path-77-inside-74_69_104)"/>
<mask id="path-78-inside-75_69_104" fill="white">
<rect x="3141" y="462" width="32" height="32" rx="5"/>
</mask>
<rect x="3141" y="462" width="32" height="32" rx="5" fill="#B2B2B2" stroke="#8E8E8E" stroke-width="12" mask="url(#path-78-inside-75_69_104)"/>
<mask id="path-79-inside-76_69_104" fill="white">
<rect x="3219" y="462" width="32" height="32" rx="5"/>
</mask>
<rect x="3219" y="462" width="32" height="32" rx="5" fill="#B2B2B2" stroke="#8E8E8E" stroke-width="12" mask="url(#path-79-inside-76_69_104)"/>
<mask id="path-80-inside-77_69_104" fill="white">
<rect x="2921" y="462" width="32" height="32" rx="5"/>
</mask>
<rect x="2921" y="462" width="32" height="32" rx="5" fill="#B2B2B2" stroke="#8E8E8E" stroke-width="12" mask="url(#path-80-inside-77_69_104)"/>
<mask id="path-81-inside-78_69_104" fill="white">
<rect x="2885" y="446" width="32" height="32" rx="5"/>
</mask>
<rect x="2885" y="446" width="32" height="32" rx="5" fill="#B2B2B2" stroke="#8E8E8E" stroke-width="12" mask="url(#path-81-inside-78_69_104)"/>
<mask id="path-82-inside-79_69_104" fill="white">
<rect x="2786" y="446" width="32" height="32" rx="5"/>
</mask>
<rect x="2786" y="446" width="32" height="32" rx="5" fill="#B2B2B2" stroke="#8E8E8E" stroke-width="12" mask="url(#path-82-inside-79_69_104)"/>
<mask id="path-83-inside-80_69_104" fill="white">
<rect x="3058" y="440" width="32" height="32" rx="5"/>
</mask>
<rect x="3058" y="440" width="32" height="32" rx="5" fill="#B2B2B2" stroke="#8E8E8E" stroke-width="12" mask="url(#path-83-inside-80_69_104)"/>
<mask id="path-84-inside-81_69_104" fill="white">
<rect x="2712" y="139" width="32" height="32" rx="5"/>
</mask>
<rect x="2712" y="139" width="32" height="32" rx="5" fill="#B2B2B2" stroke="#8E8E8E" stroke-width="12" mask="url(#path-84-inside-81_69_104)"/>
<mask id="path-85-inside-82_69_104" fill="white">
<rect x="2488" y="446" width="32" height="32" rx="5"/>
</mask>
<rect x="2488" y="446" width="32" height="32" rx="5" fill="#B2B2B2" stroke="#8E8E8E" stroke-width="12" mask="url(#path-85-inside-82_69_104)"/>
<mask id="path-86-inside-83_69_104" fill="white">
<rect x="2524" y="752" width="32" height="32" rx="5"/>
</mask>
<rect x="2524" y="752" width="32" height="32" rx="5" fill="#B2B2B2" stroke="#8E8E8E" stroke-width="12" mask="url(#path-86-inside-83_69_104)"/>
<mask id="path-87-inside-84_69_104" fill="white">
<rect x="2475" y="659" width="32" height="32" rx="5"/>
</mask>
<rect x="2475" y="659" width="32" height="32" rx="5" fill="#B2B2B2" stroke="#8E8E8E" stroke-width="12" mask="url(#path-87-inside-84_69_104)"/>
<mask id="path-88-inside-85_69_104" fill="white">
<rect x="3121" y="879" width="32" height="32" rx="5"/>
</mask>
<rect x="3121" y="879" width="32" height="32" rx="5" fill="#B2B2B2" stroke="#8E8E8E" stroke-width="12" mask="url(#path-88-inside-85_69_104)"/>
<mask id="path-89-inside-86_69_104" fill="white">
<rect x="3011" y="879" width="32" height="32" rx="5"/>
</mask>
<rect x="3011" y="879" width="32" height="32" rx="5" fill="#B2B2B2" stroke="#8E8E8E" stroke-width="12" mask="url(#path-89-inside-86_69_104)"/>
<mask id="path-90-inside-87_69_104" fill="white">
<rect x="2883" y="879" width="32" height="32" rx="5"/>
</mask>
<rect x="2883" y="879" width="32" height="32" rx="5" fill="#B2B2B2" stroke="#8E8E8E" stroke-width="12" mask="url(#path-90-inside-87_69_104)"/>
<mask id="path-91-inside-88_69_104" fill="white">
<rect x="2690" y="879" width="32" height="32" rx="5"/>
</mask>
<rect x="2690" y="879" width="32" height="32" rx="5" fill="#B2B2B2" stroke="#8E8E8E" stroke-width="12" mask="url(#path-91-inside-88_69_104)"/>
<mask id="path-92-inside-89_69_104" fill="white">
<rect x="2687" y="563" width="32" height="32" rx="5"/>
</mask>
<rect x="2687" y="563" width="32" height="32" rx="5" fill="#B2B2B2" stroke="#8E8E8E" stroke-width="12" mask="url(#path-92-inside-89_69_104)"/>
<mask id="path-93-inside-90_69_104" fill="white">
<rect x="2734" y="636" width="32" height="32" rx="5"/>
</mask>
<rect x="2734" y="636" width="32" height="32" rx="5" fill="#B2B2B2" stroke="#8E8E8E" stroke-width="12" mask="url(#path-93-inside-90_69_104)"/>
<mask id="path-94-inside-91_69_104" fill="white">
<rect x="2786" y="560" width="32" height="32" rx="5"/>
</mask>
<rect x="2786" y="560" width="32" height="32" rx="5" fill="#B2B2B2" stroke="#8E8E8E" stroke-width="12" mask="url(#path-94-inside-91_69_104)"/>
<mask id="path-95-inside-92_69_104" fill="white">
<rect x="3015" y="758" width="32" height="32" rx="5"/>
</mask>
<rect x="3015" y="758" width="32" height="32" rx="5" fill="#B2B2B2" stroke="#8E8E8E" stroke-width="12" mask="url(#path-95-inside-92_69_104)"/>
<mask id="path-96-inside-93_69_104" fill="white">
<rect x="3121" y="758" width="32" height="32" rx="5"/>
</mask>
<rect x="3121" y="758" width="32" height="32" rx="5" fill="#B2B2B2" stroke="#8E8E8E" stroke-width="12" mask="url(#path-96-inside-93_69_104)"/>
<mask id="path-97-inside-94_69_104" fill="white">
<rect x="3121" y="851" width="32" height="32" rx="5"/>
</mask>
<rect x="3121" y="851" width="32" height="32" rx="5" fill="#B2B2B2" stroke="#8E8E8E" stroke-width="12" mask="url(#path-97-inside-94_69_104)"/>
<mask id="path-98-inside-95_69_104" fill="white">
<rect x="3011" y="851" width="32" height="32" rx="5"/>
</mask>
<rect x="3011" y="851" width="32" height="32" rx="5" fill="#B2B2B2" stroke="#8E8E8E" stroke-width="12" mask="url(#path-98-inside-95_69_104)"/>
<mask id="path-99-inside-96_69_104" fill="white">
<rect x="3015" y="696" width="32" height="32" rx="5"/>
</mask>
<rect x="3015" y="696" width="32" height="32" rx="5" fill="#B2B2B2" stroke="#8E8E8E" stroke-width="12" mask="url(#path-99-inside-96_69_104)"/>
<mask id="path-100-inside-97_69_104" fill="white">
<rect x="3121" y="696" width="32" height="32" rx="5"/>
</mask>
<rect x="3121" y="696" width="32" height="32" rx="5" fill="#B2B2B2" stroke="#8E8E8E" stroke-width="12" mask="url(#path-100-inside-97_69_104)"/>
<mask id="path-101-inside-98_69_104" fill="white">
<rect x="3015" y="610" width="32" height="32" rx="5"/>
</mask>
<rect x="3015" y="610" width="32" height="32" rx="5" fill="#B2B2B2" stroke="#8E8E8E" stroke-width="12" mask="url(#path-101-inside-98_69_104)"/>
<mask id="path-102-inside-99_69_104" fill="white">
<rect x="3121" y="610" width="32" height="32" rx="5"/>
</mask>
<rect x="3121" y="610" width="32" height="32" rx="5" fill="#B2B2B2" stroke="#8E8E8E" stroke-width="12" mask="url(#path-102-inside-99_69_104)"/>
<mask id="path-103-inside-100_69_104" fill="white">
<rect x="3015" y="548" width="32" height="32" rx="5"/>
</mask>
<rect x="3015" y="548" width="32" height="32" rx="5" fill="#B2B2B2" stroke="#8E8E8E" stroke-width="12" mask="url(#path-103-inside-100_69_104)"/>
<mask id="path-104-inside-101_69_104" fill="white">
<rect x="3121" y="548" width="32" height="32" rx="5"/>
</mask>
<rect x="3121" y="548" width="32" height="32" rx="5" fill="#B2B2B2" stroke="#8E8E8E" stroke-width="12" mask="url(#path-104-inside-101_69_104)"/>
<path d="M1081.13 1206.27H1059.11V1202.56H1078.44V1179.14C1080.23 1180.67 1082.92 1183.49 1084.97 1186.05H1083.94V1195.9H1095.59L1087.4 1197.82C1089.58 1201.54 1092.26 1204.86 1095.34 1207.68C1090.98 1208.96 1086.12 1209.98 1081.13 1210.62V1206.27ZM1072.68 1214.72H1081.13V1211.78C1083.18 1214.46 1085.35 1218.43 1086.38 1221.12C1089.58 1220.48 1092.65 1219.84 1095.72 1219.07C1088.81 1223.68 1079.46 1229.18 1069.86 1234.05C1068.2 1232.9 1066.28 1231.62 1064.23 1230.46C1069.74 1227.39 1076.14 1223.3 1082.02 1219.07L1072.68 1214.72ZM1038.5 1195.52V1191.42H1046.18V1195.52H1038.5ZM1038.5 1180.67H1046.18V1184.64H1038.5V1180.67ZM1066.54 1191.42V1195.52H1059.11V1191.42H1066.54ZM1066.54 1180.67V1184.64H1059.11V1180.67H1066.54ZM1115.3 1195.9C1113 1198.59 1110.06 1200.77 1106.86 1202.69C1103.78 1200.77 1101.35 1198.46 1099.43 1195.9H1115.3ZM1125.42 1185.66L1123.11 1186.05H1091.75C1097.9 1181.31 1099.82 1175.3 1100.2 1169.28H1111.46C1111.46 1175.94 1112.1 1178.5 1114.02 1180.54C1115.94 1182.34 1119.27 1183.23 1122.22 1183.23H1127.98C1129.9 1183.23 1132.46 1182.85 1133.99 1182.21C1135.78 1181.44 1137.19 1180.29 1138.09 1178.62C1138.86 1176.96 1139.37 1173.12 1139.75 1169.41C1136.81 1168.51 1132.71 1166.59 1130.66 1164.67C1130.54 1167.62 1130.41 1169.54 1130.15 1170.69C1129.9 1171.58 1129.51 1172.22 1129.13 1172.35C1128.74 1172.48 1128.23 1172.61 1127.59 1172.61H1125.67C1125.16 1172.61 1124.78 1172.48 1124.52 1172.1C1124.26 1171.71 1124.14 1170.56 1124.14 1168.77V1159.17H1087.53V1166.46C1087.53 1170.82 1086.5 1175.04 1078.44 1178.75V1173.63H1059.11V1169.92H1080.62V1161.73H1059.11V1155.46H1046.18V1161.73H1024.68V1169.92H1046.18V1173.63H1027.11V1202.56H1046.18V1206.27H1023.78V1214.72H1046.18V1220.74H1059.11V1214.72H1067.69C1063.98 1218.05 1058.98 1221.89 1054.25 1225.09C1051.94 1223.81 1049.77 1222.78 1047.59 1221.76L1037.74 1229.44C1043.88 1232.38 1051.05 1236.61 1056.68 1240.32C1055.02 1241.09 1053.48 1241.86 1051.82 1242.5C1041.83 1242.5 1032.62 1242.5 1025.06 1242.37L1025.45 1254.27C1033 1254.14 1041.58 1254.02 1051.05 1253.89C1044.01 1257.98 1032.74 1261.95 1022.5 1264.26C1025.58 1266.69 1030.7 1271.68 1033.26 1274.37C1043.88 1270.91 1057.06 1264.9 1065.51 1258.62L1053.48 1253.89L1072.94 1253.38V1275.14H1087.91V1252.99L1106.98 1252.48L1096.23 1260.16C1106.22 1263.87 1119.4 1269.89 1125.8 1274.11L1137.58 1265.66C1130.28 1261.31 1116.97 1255.81 1107.24 1252.48L1120.68 1252.1C1122.98 1253.89 1124.9 1255.55 1126.44 1257.09L1137.06 1248.77C1130.54 1243.01 1117.86 1235.33 1108.01 1230.59L1098.15 1238.02C1100.58 1239.3 1103.27 1240.7 1105.83 1242.24C1095.85 1242.37 1085.86 1242.37 1076.26 1242.5C1087.14 1237.5 1098.66 1231.74 1108.26 1226.11L1095.98 1218.94C1099.69 1218.05 1103.14 1216.77 1106.47 1215.49C1113.9 1219.2 1122.86 1221.76 1133.48 1223.04C1135.02 1219.58 1138.34 1214.59 1141.16 1212.03C1132.84 1211.39 1125.42 1210.11 1119.02 1208.19C1125.29 1203.2 1130.15 1196.67 1133.22 1188.22L1125.42 1185.66ZM1354.54 1209.86C1358.25 1209.86 1360.3 1207.3 1360.3 1204.22C1360.3 1201.66 1359.27 1199.49 1356.84 1197.06C1352.36 1192.83 1345.7 1190.27 1338.15 1188.48L1337 1190.02C1342.76 1195.78 1346.09 1201.66 1348.52 1205.38C1350.44 1208.45 1352.23 1209.86 1354.54 1209.86ZM1367.34 1198.34C1370.54 1198.34 1372.58 1196.16 1372.58 1192.96C1372.58 1189.76 1371.18 1186.94 1368.1 1184.77C1364.14 1181.95 1357.99 1179.78 1350.06 1178.37L1348.9 1179.9C1355.82 1185.79 1358.63 1190.53 1360.81 1193.47C1363.24 1196.8 1364.52 1198.34 1367.34 1198.34ZM1318.06 1169.41C1318.06 1171.33 1317.29 1172.86 1315.5 1175.3C1311.02 1181.44 1292.84 1201.15 1285.8 1209.73C1282.86 1213.44 1281.83 1215.87 1281.83 1218.69C1281.83 1220.99 1283.24 1224.32 1286.31 1226.88C1301.03 1239.55 1311.4 1249.79 1315.88 1257.22C1319.21 1262.85 1320.74 1265.66 1322.41 1268.61C1324.2 1271.42 1327.4 1273.86 1331.5 1273.86C1339.94 1273.86 1342.5 1267.84 1342.5 1263.36C1342.5 1258.62 1341.48 1254.91 1336.62 1248.77C1328.04 1238.02 1312.04 1229.57 1300.26 1221.89C1297.7 1220.22 1295.53 1218.43 1295.53 1216.51C1295.53 1214.85 1296.94 1213.06 1300.14 1209.98C1305.64 1204.61 1319.85 1194.11 1329.58 1187.84C1335.72 1183.87 1340.58 1182.85 1340.58 1178.11C1340.58 1172.86 1333.93 1164.29 1325.1 1160.06C1321.64 1158.4 1317.29 1157.89 1312.81 1157.76L1311.78 1159.42C1314.6 1162.62 1318.06 1166.34 1318.06 1169.41ZM1544.74 1203.46C1543.08 1211.01 1540.9 1218.05 1538.34 1224.32C1533.61 1220.86 1526.7 1216.64 1521.06 1213.18C1522.73 1210.11 1524.39 1206.78 1525.8 1203.46H1544.74ZM1500.46 1175.42H1520.04C1515.69 1192.7 1507.5 1212.16 1495.21 1223.81C1498.54 1226.24 1503.4 1230.85 1506.09 1233.66C1508.9 1230.98 1511.46 1227.9 1513.77 1224.7C1519.78 1228.67 1526.95 1233.66 1531.56 1237.63C1524.26 1249.41 1514.66 1258.37 1503.27 1264.38C1506.73 1266.56 1512.36 1272.19 1514.66 1275.52C1538.22 1261.82 1555.24 1234.3 1561.64 1192.19L1552.04 1189.12L1549.48 1189.5H1531.3C1532.97 1184.77 1534.5 1180.03 1535.78 1175.42H1563.69V1161.22H1500.46V1175.42ZM1582.12 1169.79H1567.14V1240.06H1582.12V1169.79ZM1596.97 1158.02V1256.96C1596.97 1259.14 1595.94 1259.9 1593.51 1260.03C1591.08 1260.03 1583.14 1260.03 1575.46 1259.78C1577.51 1264 1579.82 1270.78 1580.46 1275.01C1591.98 1275.14 1599.91 1274.62 1605.16 1272.06C1610.28 1269.76 1612.07 1265.66 1612.07 1257.09V1158.02H1596.97ZM1764.65 1225.22V1217.41H1786.92V1225.22H1764.65ZM1764.65 1198.21H1786.92V1206.02H1764.65V1198.21ZM1824.94 1198.21V1206.02H1802.54V1198.21H1824.94ZM1824.94 1225.22H1802.54V1217.41H1824.94V1225.22ZM1853.61 1244.29H1802.54V1237.38H1840.3V1186.05H1802.54V1179.9H1849.9V1166.08H1802.54V1155.71H1786.92V1166.08H1740.46V1179.9H1786.92V1186.05H1750.06V1237.38H1786.92V1244.29H1737.38V1257.98H1786.92V1275.26H1802.54V1257.98H1853.61V1244.29ZM2009 1215.49C2005.42 1221.89 1998.63 1234.3 1995.43 1239.04C1994.15 1241.09 1992.74 1240.96 1991.85 1238.91C1991.34 1237.5 1991.08 1234.43 1991.08 1231.87C1991.08 1219.33 1996.33 1206.53 2001.83 1197.44C2004.65 1192.32 2006.82 1189.76 2006.82 1185.79C2006.82 1177.98 1999.14 1170.18 1994.54 1167.49C1990.95 1165.31 1987.62 1164.03 1982.63 1163.14L1981.74 1164.42C1984.42 1167.62 1988.01 1173.76 1988.01 1180.29C1988.01 1186.82 1986.86 1192.32 1985.19 1198.59C1983.27 1206.27 1979.82 1222.78 1979.82 1232.64C1979.82 1248.26 1982.63 1258.62 1988.01 1265.66C1990.82 1269.5 1994.41 1271.94 1997.99 1271.94C2003.11 1271.94 2005.93 1268.74 2005.93 1262.98C2005.93 1258.62 2003.11 1254.14 2003.11 1249.15C2003.11 1247.23 2003.5 1244.54 2004.52 1238.91C2005.67 1234.3 2009.26 1223.68 2011.69 1216.64L2009 1215.49ZM2052.01 1243.52C2052.01 1251.71 2048.55 1255.68 2036.14 1255.68C2030.89 1255.68 2025.38 1254.02 2025.38 1249.79C2025.38 1244.8 2031.66 1241.86 2038.44 1241.86C2042.92 1241.86 2047.4 1242.24 2052.01 1243.52ZM2037.8 1171.07C2040.74 1171.71 2044.2 1172.35 2047.14 1173.63C2049.58 1174.66 2050.86 1174.78 2050.86 1181.57V1192.19C2046.63 1192.96 2042.02 1193.47 2036.65 1193.47C2032.3 1193.47 2026.54 1192.32 2019.5 1187.97L2018.22 1188.99C2024.23 1205.5 2031.4 1206.27 2039.85 1206.27C2043.43 1206.27 2047.02 1206.02 2050.73 1205.63V1211.14C2050.73 1217.92 2051.11 1225.34 2051.5 1231.62C2050.09 1231.49 2048.81 1231.49 2047.4 1231.49C2032.17 1231.49 2018.47 1237.25 2018.47 1250.82C2018.47 1262.72 2029.22 1269.12 2040.87 1269.12C2058.28 1269.12 2066.86 1263.36 2067.24 1250.69C2069.54 1252.22 2071.85 1254.02 2074.15 1256.19C2079.4 1260.93 2081.58 1263.23 2085.03 1263.23C2089.13 1263.23 2091.94 1260.29 2091.94 1255.04C2091.94 1251.84 2090.54 1248.9 2087.59 1245.95C2083.24 1241.6 2076.46 1236.48 2065.7 1233.66C2065.06 1227.78 2064.42 1220.74 2064.42 1211.39C2064.42 1208.83 2064.42 1206.14 2064.55 1203.58C2071.08 1202.3 2076.46 1200.77 2078.89 1199.74C2085.67 1196.93 2088.1 1196.03 2088.1 1191.04C2088.1 1186.3 2082.22 1183.74 2076.58 1183.74C2076.07 1183.74 2073 1185.54 2065.7 1188.1C2066.09 1184.9 2066.47 1182.34 2066.86 1180.67C2067.62 1176.58 2069.03 1175.3 2069.03 1171.97C2069.03 1168 2060.33 1163.01 2050.09 1163.01C2046.38 1163.01 2041 1166.59 2037.42 1169.41L2037.8 1171.07ZM2326.82 1162.88H2264.62V1177.34H2326.82V1162.88ZM2240.04 1155.58C2233.9 1164.54 2221.74 1176.06 2211.11 1182.85C2213.8 1185.79 2217.64 1191.94 2219.56 1195.26C2231.72 1186.82 2245.54 1173.63 2254.76 1161.6L2240.04 1155.58ZM2244.9 1183.23C2236.71 1197.7 2222.76 1212.54 2209.7 1221.5C2212.78 1224.7 2217.9 1231.62 2220.07 1234.69C2223.53 1231.87 2226.98 1228.67 2230.57 1225.22V1275.26H2245.8V1208.45C2250.92 1202.05 2255.66 1195.39 2259.5 1188.86L2244.9 1183.23ZM2330.02 1198.08H2259.24V1212.54H2297V1257.09C2297 1259.01 2296.1 1259.52 2293.8 1259.52C2291.5 1259.65 2283.05 1259.65 2275.75 1259.26C2277.8 1263.74 2279.72 1270.27 2280.36 1274.75C2291.75 1274.75 2299.94 1274.5 2305.32 1272.19C2310.95 1269.89 2312.49 1265.66 2312.49 1257.47V1212.54H2330.02V1198.08ZM2466.09 1216.26C2465.7 1218.69 2465.06 1222.14 2465.96 1225.22C2467.62 1230.72 2475.18 1236.35 2480.42 1236.35C2484.01 1236.35 2486.18 1233.92 2491.05 1229.57C2495.4 1225.73 2508.46 1210.24 2522.28 1210.24C2532.01 1210.24 2537 1219.2 2537 1227.52C2537 1245.57 2515.11 1256.83 2490.15 1260.29L2490.54 1262.21C2504.1 1263.62 2524.07 1263.1 2536.1 1256.19C2545.45 1250.82 2553.38 1243.26 2553.38 1229.82C2553.38 1216.13 2540.58 1203.2 2522.66 1203.2C2505.51 1203.2 2491.05 1213.44 2477.48 1218.56C2476.07 1219.07 2474.66 1219.33 2473.77 1219.33C2470.82 1219.33 2468.14 1216.9 2467.37 1215.87L2466.09 1216.26ZM2685.76 1178.62C2684.99 1180.67 2683.97 1184.13 2683.97 1187.71C2683.97 1194.88 2694.08 1204.74 2700.61 1204.74C2704.71 1204.74 2707.39 1201.41 2710.21 1199.62C2717.89 1194.62 2735.3 1188.1 2750.79 1184.64C2752.07 1184.38 2752.19 1185.15 2751.04 1185.92C2736.45 1195.01 2726.08 1210.5 2726.08 1230.46C2726.08 1247.62 2732.61 1256.96 2741.83 1262.34C2749.51 1266.82 2757.19 1268.35 2768.32 1268.35C2774.21 1268.35 2782.15 1266.82 2782.15 1259.39C2782.15 1253.76 2776 1248.64 2771.01 1248.64C2768.07 1248.64 2758.08 1249.15 2751.43 1245.95C2747.2 1243.9 2740.29 1239.55 2740.29 1224.19C2740.29 1204.48 2750.02 1194.62 2753.99 1191.55C2761.03 1186.18 2768.32 1185.92 2773.95 1185.92C2777.03 1185.92 2781.51 1186.43 2785.35 1186.43C2790.21 1186.43 2793.41 1183.36 2793.41 1179.39C2793.41 1175.17 2790.08 1172.35 2786.37 1170.69C2782.4 1168.9 2778.56 1168.26 2774.47 1168.26C2770.63 1168.26 2755.39 1172.22 2742.47 1175.42C2719.3 1181.18 2703.68 1184.77 2695.49 1184.77C2691.91 1184.77 2689.47 1181.44 2686.91 1178.24L2685.76 1178.62ZM2945.22 1171.84C2947.65 1174.27 2948.16 1177.09 2948.16 1184.13C2948.16 1194.88 2945.73 1218.69 2945.73 1236.22C2945.73 1261.18 2957.76 1271.04 2976.19 1271.04C3004.35 1271.04 3023.3 1251.2 3031.11 1229.82L3029.19 1228.42C3016.51 1242.75 2996.16 1253.12 2979.27 1253.12C2963.52 1253.12 2960.07 1247.87 2960.07 1234.18C2960.07 1220.74 2963.14 1204.86 2966.08 1192.45C2967.75 1185.66 2971.71 1183.1 2971.71 1179.01C2971.71 1172.86 2957.76 1161.86 2947.78 1161.86C2943.94 1161.86 2940.23 1163.52 2936.9 1165.18V1166.85C2941.63 1168.77 2943.04 1169.66 2945.22 1171.84ZM3212.86 1245.31C3212.86 1256.32 3205.06 1258.11 3194.18 1258.11C3188.29 1258.11 3183.42 1255.81 3183.42 1251.71C3183.42 1247.36 3190.21 1243.52 3199.68 1243.52C3204.54 1243.52 3208.9 1243.9 3212.86 1244.67V1245.31ZM3199.42 1166.72C3203.52 1168 3206.21 1169.02 3208.9 1170.3C3211.07 1171.46 3212.1 1172.74 3212.1 1175.3V1184.13C3206.21 1184.77 3199.81 1185.28 3193.41 1185.28C3183.68 1185.28 3178.18 1182.72 3171.52 1178.62L3170.37 1179.39C3176.26 1194.75 3185.73 1198.08 3198.66 1198.08C3203.39 1198.08 3207.74 1197.95 3211.97 1197.7V1203.33C3211.97 1205.38 3211.97 1207.55 3211.97 1209.73C3207.36 1210.24 3202.5 1210.5 3197.25 1210.5C3187.78 1210.5 3185.22 1207.81 3189.31 1200.38L3187.9 1199.36C3170.75 1211.14 3181.63 1223.17 3198.66 1223.17C3203.26 1223.17 3207.87 1223.04 3212.35 1222.66L3212.74 1234.56C3211.07 1234.43 3209.28 1234.43 3207.49 1234.43C3189.57 1234.43 3176.64 1241.6 3176.64 1252.74C3176.64 1265.15 3187.26 1271.17 3203.01 1271.17C3218.62 1271.17 3227.71 1264.26 3227.71 1254.02C3227.71 1252.61 3227.71 1251.2 3227.58 1249.79C3234.37 1253.25 3240.26 1257.86 3246.27 1263.23C3249.73 1266.18 3251.26 1267.58 3254.85 1267.58C3258.69 1267.58 3261.63 1264.9 3261.63 1259.65C3261.63 1254.4 3258.18 1250.43 3253.18 1246.85C3249.09 1243.9 3240.13 1238.78 3226.3 1236.22C3225.79 1231.74 3225.15 1227.01 3224.9 1221.38C3236.93 1219.84 3246.78 1217.66 3250.24 1216.13C3253.57 1214.72 3256.26 1212.8 3256.26 1208.58C3256.26 1203.46 3250.37 1202.05 3243.97 1202.05C3243.33 1202.05 3241.54 1203.2 3235.52 1204.99C3232.06 1206.02 3228.48 1207.04 3224.9 1207.81C3225.02 1203.84 3225.15 1200 3225.41 1196.42C3238.21 1194.75 3247.3 1192.19 3251.9 1190.53C3256.51 1188.86 3258.94 1187.46 3258.94 1182.98C3258.94 1176.96 3249.73 1175.68 3245.89 1175.68C3245.25 1175.68 3243.58 1176.83 3237.31 1178.88C3235.01 1179.65 3231.42 1180.54 3227.07 1181.57C3227.33 1180.03 3227.71 1178.75 3227.97 1177.86C3228.99 1174.78 3230.91 1172.86 3230.91 1170.43C3230.91 1164.8 3221.7 1160.96 3212.22 1160.96C3206.85 1160.96 3202.62 1163.14 3199.3 1165.44L3199.42 1166.72ZM3406.91 1216.26C3406.52 1218.69 3405.88 1222.14 3406.78 1225.22C3408.44 1230.72 3416 1236.35 3421.24 1236.35C3424.83 1236.35 3427 1233.92 3431.87 1229.57C3436.22 1225.73 3449.28 1210.24 3463.1 1210.24C3472.83 1210.24 3477.82 1219.2 3477.82 1227.52C3477.82 1245.57 3455.93 1256.83 3430.97 1260.29L3431.36 1262.21C3444.92 1263.62 3464.89 1263.1 3476.92 1256.19C3486.27 1250.82 3494.2 1243.26 3494.2 1229.82C3494.2 1216.13 3481.4 1203.2 3463.48 1203.2C3446.33 1203.2 3431.87 1213.44 3418.3 1218.56C3416.89 1219.07 3415.48 1219.33 3414.59 1219.33C3411.64 1219.33 3408.96 1216.9 3408.19 1215.87L3406.91 1216.26ZM3689.15 1210.75C3695.04 1209.86 3700.03 1209.34 3703.23 1209.34C3706.94 1209.34 3711.68 1209.86 3714.11 1210.75C3715.13 1211.14 3715.26 1211.78 3714.75 1212.42C3713.6 1213.82 3708.09 1218.69 3704.64 1220.99L3705.53 1222.27C3710.14 1220.86 3715.39 1219.97 3721.92 1219.46C3725.24 1219.2 3728.44 1219.07 3730.62 1219.07C3737.53 1219.07 3740.09 1216.38 3740.09 1212.29C3740.09 1209.22 3738.56 1205.89 3734.2 1203.07C3731.64 1201.41 3726.4 1199.23 3718.08 1199.23C3706.68 1199.23 3695.42 1203.97 3688.51 1209.47L3689.15 1210.75ZM3657.79 1162.88C3661.12 1164.16 3663.42 1165.57 3665.08 1167.23C3667.13 1169.28 3667.39 1170.18 3667.26 1173.63C3667.13 1176.45 3666.36 1181.7 3665.21 1187.46C3660.6 1188.35 3655.1 1188.99 3649.98 1188.86C3644.99 1188.74 3641.4 1187.84 3634.24 1182.98L3632.96 1183.87C3637.05 1200.13 3642.81 1202.3 3653.69 1202.3C3656 1202.3 3658.94 1202.05 3662.01 1201.66C3661.24 1204.48 3660.48 1207.17 3659.71 1209.34C3654.46 1224.7 3648.7 1235.71 3644.86 1242.24C3640.51 1249.66 3636.28 1251.84 3636.28 1258.37C3636.28 1264.77 3640 1270.02 3644.86 1270.02C3650.62 1270.02 3652.8 1266.56 3655.36 1261.44C3660.09 1251.97 3668.03 1227.9 3672.12 1214.85C3673.79 1209.6 3675.32 1204.1 3676.73 1199.1C3684.16 1197.44 3691.45 1195.39 3695.55 1193.98C3707.2 1190.02 3710.65 1187.46 3710.65 1183.23C3710.65 1176.96 3702.97 1174.91 3699.26 1174.91C3697.98 1174.91 3695.8 1176.7 3692.86 1178.37C3689.66 1180.16 3685.95 1181.95 3681.08 1183.49C3684.54 1172.74 3687.36 1170.69 3687.36 1166.85C3687.36 1163.01 3679.04 1158.53 3669.56 1158.53C3665.6 1158.53 3661.63 1159.55 3657.79 1161.47V1162.88ZM3683.39 1231.87C3682.49 1234.94 3681.47 1239.94 3681.47 1243.65C3681.47 1259.52 3692.48 1269.25 3714.49 1269.25C3723.71 1269.25 3729.34 1268.35 3733.44 1267.33C3739.32 1265.92 3742.4 1263.23 3742.4 1259.52C3742.4 1252.61 3735.1 1249.92 3728.96 1249.92C3727.04 1249.92 3721.66 1252.35 3711.29 1252.35C3701.31 1252.35 3694.01 1250.43 3688.76 1243.01C3686.2 1239.42 3685.31 1234.82 3684.92 1231.87H3683.39ZM3935.68 1252.48C3928.89 1252.48 3925.95 1249.66 3925.95 1246.34C3925.95 1241.6 3931.96 1239.17 3937.21 1239.17C3943.23 1239.17 3948.6 1241.22 3953.21 1244.03C3949.37 1249.92 3944 1252.48 3935.68 1252.48ZM3891.77 1246.85C3890.88 1246.21 3888.96 1244.8 3887.04 1243.39C3890.11 1238.4 3892.92 1233.92 3895.87 1229.31C3895.61 1235.97 3895.36 1241.86 3895.23 1245.31C3895.1 1248 3893.82 1248.51 3891.77 1246.85ZM3888.96 1163.39C3892.8 1164.54 3895.48 1165.82 3897.4 1167.1C3899.71 1168.64 3900.09 1169.54 3900.09 1172.22C3900.09 1174.78 3899.58 1180.54 3898.81 1187.33C3891.64 1190.27 3882.81 1193.47 3879.23 1193.47C3875.9 1193.47 3873.6 1191.42 3871.29 1188.61L3869.88 1189.12C3869.63 1191.81 3869.37 1194.75 3870.01 1196.93C3871.8 1202.56 3878.46 1209.34 3885.12 1209.34C3888.19 1209.34 3889.72 1206.14 3892.28 1204.22C3893.31 1203.46 3895.23 1202.18 3897.53 1200.9C3897.4 1203.2 3897.15 1205.5 3897.02 1207.68C3888.32 1220.35 3877.82 1232.77 3871.68 1238.91C3868.86 1241.73 3867.45 1245.18 3867.45 1249.54C3867.45 1255.17 3870.91 1258.24 3874.24 1258.11C3878.08 1257.98 3880.38 1254.14 3883.07 1249.79L3884.86 1246.98C3886.14 1249.28 3887.29 1251.58 3888.19 1253.89C3889.85 1258.11 3890.62 1261.95 3891.26 1265.66C3891.9 1269.63 3893.69 1272.45 3899.32 1272.45C3904.83 1272.45 3909.69 1266.56 3909.69 1257.34C3909.69 1253.38 3908.54 1249.54 3907.9 1243.39C3907 1235.33 3906.24 1224.19 3906.75 1216.26L3906.88 1214.59C3915.96 1200 3934.78 1185.41 3945.53 1185.41C3957.56 1185.41 3960.25 1200.13 3960.25 1218.05C3960.25 1223.55 3959.48 1228.42 3958.2 1232.64C3953.6 1231.49 3948.35 1230.72 3942.08 1230.72C3930.68 1230.72 3920.19 1237.63 3920.19 1248.64C3920.19 1258.62 3929.02 1265.02 3939.9 1265.02C3952.19 1265.02 3960.12 1260.67 3965.5 1254.27C3967.8 1256.7 3969.72 1259.01 3971.26 1260.54C3974.08 1263.49 3975.87 1264.9 3978.94 1264.9C3983.55 1264.9 3986.24 1261.44 3986.24 1257.09C3986.24 1251.97 3984.06 1248.38 3980.86 1245.44C3978.81 1243.65 3976.51 1241.47 3973.44 1239.42C3975.23 1234.18 3976.51 1227.9 3976.51 1218.3C3976.51 1192.83 3966.91 1178.75 3948.35 1178.75C3939 1178.75 3926.84 1186.05 3917.88 1192.7C3918.52 1191.68 3918.91 1190.78 3918.91 1189.63C3918.91 1188.22 3916.73 1184.77 3914.04 1183.1C3914.3 1182.46 3914.56 1181.82 3914.81 1181.31C3916.48 1177.73 3918.27 1175.42 3918.27 1172.35C3918.27 1166.98 3908.41 1158.4 3900.48 1158.4C3896.38 1158.4 3892.92 1159.55 3888.96 1161.47V1163.39Z" fill="white"/>
<path d="M1794.1 960.952H1769.39V950.584H1754.67V960.952H1730.35V972.984H1794.1V960.952ZM1812.14 1037.75H1822.64V1050.42H1812.14V1037.75ZM1822.64 999.864H1812.14V987.96H1822.64V999.864ZM1822.64 1024.95H1812.14V1012.66H1822.64V1024.95ZM1778.74 1029.56V1049.4C1777.71 1044.54 1775.54 1038.14 1773.36 1033.02L1765.42 1035.06C1766.19 1036.98 1766.96 1039.03 1767.6 1041.21L1762.1 1041.46C1762.99 1037.88 1763.89 1033.78 1764.66 1029.56H1778.74ZM1849.78 1050.42H1835.44V1037.75H1847.09V1024.95H1835.44V1012.66H1847.09V999.864H1835.44V987.96H1848.5V974.392H1835.82C1838.26 968.504 1840.82 961.592 1843.25 955.064L1828.91 951.864C1827.5 958.648 1824.94 967.48 1822.38 974.392H1813.17C1815.86 967.736 1818.16 960.696 1820.08 953.784L1806.51 950.712C1802.54 966.072 1796.27 981.816 1788.59 993.208V976.184H1777.71V1002.04H1755.95C1758.64 999.864 1761.33 997.304 1763.76 994.488C1766.45 996.408 1768.88 998.456 1770.54 1000.12L1776.69 992.568C1774.9 990.904 1772.34 988.984 1769.52 987.064C1771.7 983.864 1773.62 980.408 1775.15 976.824L1765.42 974.52C1764.27 977.08 1762.86 979.512 1761.33 981.944C1758.77 980.408 1756.21 979 1753.9 977.72L1748.02 984.376C1750.45 985.784 1753.14 987.32 1755.7 988.984C1753.14 991.8 1750.19 994.36 1747.12 996.536C1749.17 997.944 1752.37 1000.38 1754.42 1002.04H1746.48V976.184H1735.98V1012.41H1755.82C1755.57 1014.46 1755.31 1016.5 1755.06 1018.68H1733.04V1070.26H1745.33V1029.56H1753.65C1752.88 1033.91 1752.24 1038.26 1751.34 1041.98L1746.61 1042.23L1747.63 1052.09C1754.54 1051.7 1762.1 1051.06 1770.03 1050.42C1770.42 1052.09 1770.67 1053.62 1770.8 1054.9L1778.74 1052.47V1057.21C1778.74 1058.49 1778.35 1058.87 1776.82 1058.87C1775.41 1058.87 1770.54 1059 1766.06 1058.74C1767.6 1061.94 1769.39 1066.68 1769.9 1070.14C1777.33 1070.14 1782.7 1070.01 1786.42 1068.22C1790.51 1066.17 1791.54 1063.1 1791.54 1057.34V1018.68H1766.83L1767.98 1012.41H1788.59V1001.02C1791.41 1003.32 1794.35 1006.01 1796.02 1007.67C1796.78 1006.52 1797.68 1005.37 1798.45 1004.09V1070.26H1812.14V1064.25H1849.78V1050.42ZM1993.52 1041.85C1992.62 1041.08 1990.58 1039.67 1988.66 1038.26C1991.73 1033.27 1994.54 1028.66 1997.49 1024.06C1997.23 1030.84 1997.1 1036.73 1996.98 1040.31C1996.85 1043 1995.57 1043.51 1993.52 1041.85ZM2090.67 1032.25C2083.12 1037.62 2076.72 1040.44 2069.42 1040.44C2064.05 1040.44 2062.13 1038.14 2062.13 1031.48C2062.13 1018.04 2066.48 1007.8 2066.48 994.872C2066.48 981.56 2062 973.24 2047.54 973.24C2038.06 973.24 2027.7 979.384 2019.38 986.168C2019.25 985.016 2017.2 982.584 2014.9 980.664C2015.54 979 2016.05 977.464 2016.56 976.312C2018.22 972.728 2020.02 970.424 2020.02 967.352C2020.02 961.976 2010.16 953.4 2002.22 953.4C1998.13 953.4 1994.67 954.552 1990.7 956.472V958.392C1994.54 959.544 1997.23 960.824 1999.15 962.104C2001.46 963.64 2001.84 964.536 2001.84 967.224C2001.84 969.656 2001.33 975.16 2000.69 981.56C1993.39 985.272 1983.15 990.136 1978.93 990.136C1975.6 990.136 1973.42 987.576 1971.12 984.76L1969.71 985.272C1969.46 987.704 1968.94 991.288 1969.58 993.464C1971.38 999.352 1979.18 1007.03 1985.84 1007.03C1988.91 1007.03 1990.19 1002.81 1992.75 1000.89C1993.9 999.992 1996.46 998.328 1999.28 996.664C1999.15 998.584 1998.9 1000.38 1998.77 1002.17C1990.06 1014.97 1979.44 1027.64 1973.17 1033.91C1970.35 1036.73 1968.94 1040.18 1968.94 1044.54C1968.94 1050.17 1972.4 1053.24 1975.73 1053.11C1979.57 1052.98 1981.87 1049.14 1984.56 1044.79L1986.48 1041.72C1987.89 1044.15 1988.91 1046.46 1989.94 1048.89C1991.6 1053.11 1992.37 1056.95 1993.01 1060.66C1993.65 1064.63 1995.44 1067.45 2001.07 1067.45C2006.58 1067.45 2011.44 1061.56 2011.44 1052.34C2011.44 1048.38 2010.29 1044.54 2009.65 1038.39C2008.75 1030.33 2007.98 1019.19 2008.5 1011.26C2008.62 1009.34 2009.01 1006.52 2009.52 1003.19C2018.86 990.392 2031.54 980.408 2042.16 980.408C2048.3 980.408 2049.97 984.504 2049.97 992.312C2049.97 1006.52 2045.23 1019.58 2045.23 1035.58C2045.23 1050.3 2051.38 1056.18 2062.38 1056.18C2078.26 1056.18 2087.47 1043.51 2091.57 1033.14L2090.67 1032.25ZM2270.26 960.952H2245.55V950.584H2230.83V960.952H2206.51V972.984H2270.26V960.952ZM2288.3 1037.75H2298.8V1050.42H2288.3V1037.75ZM2298.8 999.864H2288.3V987.96H2298.8V999.864ZM2298.8 1024.95H2288.3V1012.66H2298.8V1024.95ZM2254.9 1029.56V1049.4C2253.87 1044.54 2251.7 1038.14 2249.52 1033.02L2241.58 1035.06C2242.35 1036.98 2243.12 1039.03 2243.76 1041.21L2238.26 1041.46C2239.15 1037.88 2240.05 1033.78 2240.82 1029.56H2254.9ZM2325.94 1050.42H2311.6V1037.75H2323.25V1024.95H2311.6V1012.66H2323.25V999.864H2311.6V987.96H2324.66V974.392H2311.98C2314.42 968.504 2316.98 961.592 2319.41 955.064L2305.07 951.864C2303.66 958.648 2301.1 967.48 2298.54 974.392H2289.33C2292.02 967.736 2294.32 960.696 2296.24 953.784L2282.67 950.712C2278.7 966.072 2272.43 981.816 2264.75 993.208V976.184H2253.87V1002.04H2232.11C2234.8 999.864 2237.49 997.304 2239.92 994.488C2242.61 996.408 2245.04 998.456 2246.7 1000.12L2252.85 992.568C2251.06 990.904 2248.5 988.984 2245.68 987.064C2247.86 983.864 2249.78 980.408 2251.31 976.824L2241.58 974.52C2240.43 977.08 2239.02 979.512 2237.49 981.944C2234.93 980.408 2232.37 979 2230.06 977.72L2224.18 984.376C2226.61 985.784 2229.3 987.32 2231.86 988.984C2229.3 991.8 2226.35 994.36 2223.28 996.536C2225.33 997.944 2228.53 1000.38 2230.58 1002.04H2222.64V976.184H2212.14V1012.41H2231.98C2231.73 1014.46 2231.47 1016.5 2231.22 1018.68H2209.2V1070.26H2221.49V1029.56H2229.81C2229.04 1033.91 2228.4 1038.26 2227.5 1041.98L2222.77 1042.23L2223.79 1052.09C2230.7 1051.7 2238.26 1051.06 2246.19 1050.42C2246.58 1052.09 2246.83 1053.62 2246.96 1054.9L2254.9 1052.47V1057.21C2254.9 1058.49 2254.51 1058.87 2252.98 1058.87C2251.57 1058.87 2246.7 1059 2242.22 1058.74C2243.76 1061.94 2245.55 1066.68 2246.06 1070.14C2253.49 1070.14 2258.86 1070.01 2262.58 1068.22C2266.67 1066.17 2267.7 1063.1 2267.7 1057.34V1018.68H2242.99L2244.14 1012.41H2264.75V1001.02C2267.57 1003.32 2270.51 1006.01 2272.18 1007.67C2272.94 1006.52 2273.84 1005.37 2274.61 1004.09V1070.26H2288.3V1064.25H2325.94V1050.42ZM2469.68 1041.85C2468.78 1041.08 2466.74 1039.67 2464.82 1038.26C2467.89 1033.27 2470.7 1028.66 2473.65 1024.06C2473.39 1030.84 2473.26 1036.73 2473.14 1040.31C2473.01 1043 2471.73 1043.51 2469.68 1041.85ZM2566.83 1032.25C2559.28 1037.62 2552.88 1040.44 2545.58 1040.44C2540.21 1040.44 2538.29 1038.14 2538.29 1031.48C2538.29 1018.04 2542.64 1007.8 2542.64 994.872C2542.64 981.56 2538.16 973.24 2523.7 973.24C2514.22 973.24 2503.86 979.384 2495.54 986.168C2495.41 985.016 2493.36 982.584 2491.06 980.664C2491.7 979 2492.21 977.464 2492.72 976.312C2494.38 972.728 2496.18 970.424 2496.18 967.352C2496.18 961.976 2486.32 953.4 2478.38 953.4C2474.29 953.4 2470.83 954.552 2466.86 956.472V958.392C2470.7 959.544 2473.39 960.824 2475.31 962.104C2477.62 963.64 2478 964.536 2478 967.224C2478 969.656 2477.49 975.16 2476.85 981.56C2469.55 985.272 2459.31 990.136 2455.09 990.136C2451.76 990.136 2449.58 987.576 2447.28 984.76L2445.87 985.272C2445.62 987.704 2445.1 991.288 2445.74 993.464C2447.54 999.352 2455.34 1007.03 2462 1007.03C2465.07 1007.03 2466.35 1002.81 2468.91 1000.89C2470.06 999.992 2472.62 998.328 2475.44 996.664C2475.31 998.584 2475.06 1000.38 2474.93 1002.17C2466.22 1014.97 2455.6 1027.64 2449.33 1033.91C2446.51 1036.73 2445.1 1040.18 2445.1 1044.54C2445.1 1050.17 2448.56 1053.24 2451.89 1053.11C2455.73 1052.98 2458.03 1049.14 2460.72 1044.79L2462.64 1041.72C2464.05 1044.15 2465.07 1046.46 2466.1 1048.89C2467.76 1053.11 2468.53 1056.95 2469.17 1060.66C2469.81 1064.63 2471.6 1067.45 2477.23 1067.45C2482.74 1067.45 2487.6 1061.56 2487.6 1052.34C2487.6 1048.38 2486.45 1044.54 2485.81 1038.39C2484.91 1030.33 2484.14 1019.19 2484.66 1011.26C2484.78 1009.34 2485.17 1006.52 2485.68 1003.19C2495.02 990.392 2507.7 980.408 2518.32 980.408C2524.46 980.408 2526.13 984.504 2526.13 992.312C2526.13 1006.52 2521.39 1019.58 2521.39 1035.58C2521.39 1050.3 2527.54 1056.18 2538.54 1056.18C2554.42 1056.18 2563.63 1043.51 2567.73 1033.14L2566.83 1032.25ZM2736.18 984.12C2736.18 991.288 2733.74 1000.76 2729.9 1008.82C2726.45 1015.86 2715.31 1032.25 2708.91 1032.25C2703.41 1032.25 2699.82 1022.78 2699.82 1013.69C2699.82 1003.58 2703.41 995.768 2710.45 987.576C2716.34 980.92 2724.27 976.056 2732.21 973.624C2734.38 976.184 2736.18 980.28 2736.18 984.12ZM2735.54 1062.2C2779.06 1060.92 2797.87 1040.7 2797.87 1015.1C2797.87 988.216 2776.62 966.2 2745.65 966.2C2729.01 966.2 2716.21 971.064 2705.97 979.768C2691.89 991.288 2686.26 1007.54 2686.26 1018.94C2686.26 1036.09 2695.98 1052.86 2707.12 1052.86C2724.02 1052.86 2737.97 1030.33 2743.98 1013.69C2747.18 1005.62 2748.34 996.536 2748.34 989.752C2748.34 983.096 2742.7 976.056 2738.35 972.088C2740.14 971.832 2741.94 971.704 2743.73 971.704C2764.34 971.704 2778.54 987.064 2778.54 1011C2778.54 1032.63 2767.79 1051.32 2735.02 1060.02L2735.54 1062.2ZM3037.87 957.496H3005.87V970.808H3037.87V957.496ZM2971.95 989.752H2955.06V1002.94H3002.8V989.752H2986.42V977.336H3000.88V964.664H2986.42V950.584H2971.95V964.664H2957.49V977.336H2971.95V989.752ZM2941.23 950.712C2936.88 958.776 2927.92 969.016 2919.73 975.16C2922.03 977.848 2925.87 983.48 2927.66 986.552C2937.52 978.872 2948.14 966.84 2954.93 955.704L2941.23 950.712ZM2944.18 977.592C2938.29 990.776 2928.3 1004.09 2918.19 1012.41C2920.88 1015.61 2925.1 1023.29 2926.51 1026.36C2929.07 1024.06 2931.63 1021.37 2934.32 1018.3V1070.14H2948.27V999.736C2951.98 993.976 2955.06 987.96 2957.74 982.2L2944.18 977.592ZM3039.92 991.672H3004.98V1005.24H3015.34V1052.98C3015.34 1054.52 3014.83 1054.9 3013.17 1054.9C3011.76 1055.03 3008.43 1054.9 3004.46 1054.9L3004.08 1042.74C2998.06 1043.38 2992.05 1044.02 2986.16 1044.66V1030.84H3001.9V1017.78H2986.16V1005.11H2971.82V1017.78H2955.95V1030.84H2971.82V1046.07C2964.66 1046.71 2958 1047.35 2952.5 1047.74L2954.03 1061.69C2967.09 1060.28 2984.62 1058.36 3001.39 1056.31C3003.06 1060.66 3004.46 1066.17 3004.98 1070.01C3013.68 1070.01 3020.08 1069.75 3024.56 1067.32C3029.3 1064.76 3030.32 1060.66 3030.32 1053.24V1005.24H3039.92V991.672ZM3244.72 986.808C3246.9 988.088 3249.71 990.136 3250.99 991.672C3252.66 993.592 3252.27 995.128 3249.97 996.536C3245.1 999.608 3236.02 1004.09 3227.95 1008.31C3226.03 1001.02 3220.78 996.792 3212.85 996.792C3207.86 996.792 3203.89 998.712 3199.15 1002.04C3198.13 1002.81 3197.62 1002.17 3198.26 1001.27C3201.97 995.896 3204.78 991.288 3207.09 987.32C3221.04 984.76 3231.79 980.664 3235.5 978.616C3239.47 976.568 3240.5 974.136 3240.5 972.088C3240.5 966.584 3236.02 964.92 3230.51 964.92C3228.98 964.92 3227.57 966.968 3223.86 968.504C3221.81 969.4 3218.86 970.296 3215.54 971.32L3218.99 965.048C3220.14 962.872 3221.04 961.72 3221.04 959.928C3221.04 954.808 3209.78 953.272 3203.63 953.272C3200.82 953.272 3196.34 954.936 3193.14 956.6L3193.01 958.008C3196.46 959.544 3198.9 960.696 3200.94 962.232C3203.12 963.896 3202.99 965.816 3202.48 967.736C3202.22 969.016 3201.33 971.576 3199.92 975.16C3195.31 976.056 3190.58 976.696 3186.61 976.824C3178.03 977.08 3172.53 973.24 3168.43 970.424L3167.02 971.192C3169.71 981.304 3172.53 989.752 3182.38 989.752C3185.97 989.752 3189.55 989.624 3193.14 989.24C3189.04 996.408 3183.54 1004.22 3176.62 1011.13C3172.02 1015.86 3167.92 1018.04 3168.05 1022.9C3168.18 1029.05 3170.22 1033.78 3175.6 1033.53C3181.36 1033.14 3185.46 1024.31 3190.19 1018.04C3194.16 1012.54 3201.84 1002.42 3208.11 1002.42C3213.74 1002.42 3214.64 1006.01 3214.64 1015.74C3202.48 1023.42 3188.02 1035.06 3188.02 1046.46C3188.02 1058.23 3195.95 1067.96 3221.68 1067.96C3232.43 1067.96 3243.95 1066.68 3250.74 1064.5C3255.6 1062.97 3257.65 1060.54 3257.65 1056.06C3257.65 1049.14 3250.22 1047.74 3243.06 1047.74C3238.58 1047.74 3231.02 1052.09 3211.82 1052.09C3199.28 1052.09 3196.08 1047.99 3196.08 1043.9C3196.08 1037.5 3204.4 1030.71 3214.38 1025.46C3214.13 1030.07 3213.74 1034.17 3213.74 1037.37C3213.74 1043.26 3217.71 1045.69 3222.32 1045.69C3227.7 1045.69 3230.51 1041.72 3230.51 1036.6C3230.51 1031.99 3230.51 1025.46 3229.74 1018.81C3239.73 1015.1 3251.38 1011.38 3259.57 1009.21C3266.61 1007.29 3271.6 1007.67 3271.6 1003.06C3271.6 997.432 3265.2 990.008 3260.08 987.32C3256.37 985.4 3252.78 984.76 3245.49 984.76L3244.72 986.808Z" fill="white"/>
</svg>
