<svg width="299" height="277" viewBox="0 0 299 277" fill="none" xmlns="http://www.w3.org/2000/svg">
<path d="M187 0L132 62.5H187V0Z" fill="white"/>
<path d="M178 207L233 144.5H178V207Z" fill="white"/>
<path d="M112 206V144.5H167L136 179.164L207 276.5L112 206Z" fill="white"/>
<path d="M253 0L198 62.5H253V0Z" fill="white"/>
<path d="M132 62.5H187L299 144.5H244L132 62.5Z" fill="white"/>
<path d="M121 0L66 62.5H121V0Z" fill="white"/>
<path d="M55 0L0 62.5H55V0Z" fill="white"/>
<path d="M66 62.5H121L233 144.5H178L66 62.5Z" fill="white"/>
<path d="M0 62.5H55L167 144.5H112L0 62.5Z" fill="white"/>
</svg>
