<svg width="2013" height="581" viewBox="0 0 2013 581" fill="none" xmlns="http://www.w3.org/2000/svg">
<g clip-path="url(#clip0_118_2)">
<rect width="2013" height="581" fill="url(#paint0_linear_118_2)"/>
<mask id="mask0_118_2" style="mask-type:alpha" maskUnits="userSpaceOnUse" x="0" y="0" width="2013" height="583">
<rect width="2013" height="583" fill="url(#paint1_linear_118_2)"/>
</mask>
<g mask="url(#mask0_118_2)">
<path d="M554.883 373.407H592.125L501.674 532.579L550.058 581L669 371.691V303.002L518.992 303L388.533 532.574L436.918 580.997L554.883 373.407Z" stroke="#E9EAED" stroke-width="2"/>
<path d="M300.57 373.407L244 303H481.752L323.778 580.997L275.395 532.574L365.843 373.407H300.57Z" stroke="#E9EAED" stroke-width="2"/>
<path d="M1498.88 373.407H1536.12L1445.67 532.579L1494.06 581L1613 371.691V303.002L1462.99 303L1332.53 532.574L1380.92 580.997L1498.88 373.407Z" stroke="#E9EAED" stroke-width="2"/>
<path d="M1244.57 373.407L1188 303H1425.75L1267.78 580.997L1219.39 532.574L1309.84 373.407H1244.57Z" stroke="#E9EAED" stroke-width="2"/>
<path d="M245.883 71.4069H283.125L192.674 230.579L241.058 279L360 69.6907V1.00228L209.992 1L79.5334 230.574L127.918 278.997L245.883 71.4069Z" stroke="#E9EAED" stroke-width="2"/>
<path d="M-8.43003 71.4069L-65 1H172.752L14.7782 278.997L-33.6053 230.574L56.843 71.4069H-8.43003Z" stroke="#E9EAED" stroke-width="2"/>
<path d="M1189.88 71.4069H1227.12L1136.67 230.579L1185.06 279L1304 69.6907V1.00228L1153.99 1L1023.53 230.574L1071.92 278.997L1189.88 71.4069Z" stroke="#E9EAED" stroke-width="2"/>
<path d="M935.57 71.4069L879 1H1116.75L958.778 278.997L910.395 230.574L1000.84 71.4069H935.57Z" stroke="#E9EAED" stroke-width="2"/>
<path d="M2133.88 71.4069H2171.12L2080.67 230.579L2129.06 279L2248 69.6907V1.00228L2097.99 1L1967.53 230.574L2015.92 278.997L2133.88 71.4069Z" stroke="#E9EAED" stroke-width="2"/>
<path d="M1879.57 71.4069L1823 1H2060.75L1902.78 278.997L1854.39 230.574L1944.84 71.4069H1879.57Z" stroke="#E9EAED" stroke-width="2"/>
<path d="M92.883 373.407H130.125L39.6739 532.579L88.058 581L207 371.691V303.002L56.9923 303L-73.4666 532.574L-25.0819 580.997L92.883 373.407Z" stroke="#E9EAED" stroke-width="2"/>
<path d="M-161.43 373.407L-218 303H19.7524L-138.222 580.997L-186.605 532.574L-96.157 373.407H-161.43Z" stroke="#E9EAED" stroke-width="2"/>
<path d="M1036.88 373.407H1074.12L983.674 532.579L1032.06 581L1151 371.691V303.002L1000.99 303L870.533 532.574L918.918 580.997L1036.88 373.407Z" stroke="#E9EAED" stroke-width="2"/>
<path d="M782.57 373.407L726 303H963.752L805.778 580.997L757.395 532.574L847.843 373.407H782.57Z" stroke="#E9EAED" stroke-width="2"/>
<path d="M1980.88 373.407H2018.12L1927.67 532.579L1976.06 581L2095 371.691V303.002L1944.99 303L1814.53 532.574L1862.92 580.997L1980.88 373.407Z" stroke="#E9EAED" stroke-width="2"/>
<path d="M1726.57 373.407L1670 303H1907.75L1749.78 580.997L1701.39 532.574L1791.84 373.407H1726.57Z" stroke="#E9EAED" stroke-width="2"/>
<path d="M707.883 71.4069H745.125L654.674 230.579L703.058 279L822 69.6907V1.00228L671.992 1L541.533 230.574L589.918 278.997L707.883 71.4069Z" stroke="#E9EAED" stroke-width="2"/>
<path d="M453.57 71.4069L397 1H634.752L476.778 278.997L428.395 230.574L518.843 71.4069H453.57Z" stroke="#E9EAED" stroke-width="2"/>
<path d="M1651.88 71.4069H1689.12L1598.67 230.579L1647.06 279L1766 69.6907V1.00228L1615.99 1L1485.53 230.574L1533.92 278.997L1651.88 71.4069Z" stroke="#E9EAED" stroke-width="2"/>
<path d="M1397.57 71.4069L1341 1H1578.75L1420.78 278.997L1372.39 230.574L1462.84 71.4069H1397.57Z" stroke="#E9EAED" stroke-width="2"/>
</g>
</g>
<defs>
<linearGradient id="paint0_linear_118_2" x1="-1.4998e-05" y1="290.5" x2="2013" y2="290.5" gradientUnits="userSpaceOnUse">
<stop stop-color="white"/>
<stop offset="1" stop-color="#EDF5FF"/>
</linearGradient>
<linearGradient id="paint1_linear_118_2" x1="2013" y1="291.5" x2="7.12207e-06" y2="291.5" gradientUnits="userSpaceOnUse">
<stop stop-color="white" stop-opacity="0.5"/>
<stop offset="0.0001" stop-color="white" stop-opacity="0.4"/>
<stop offset="1" stop-color="white"/>
</linearGradient>
<clipPath id="clip0_118_2">
<rect width="2013" height="581" fill="white"/>
</clipPath>
</defs>
</svg>
