<svg width="403" height="266" viewBox="0 0 403 266" fill="none" xmlns="http://www.w3.org/2000/svg">
<path d="M268.826 48.5H294.501L232.143 158.146L265.5 191.501L347.5 47.3178V0.00157209L244.083 0L154.143 158.143L187.5 191.499L268.826 48.5Z" fill="white"/>
<path d="M93.5 48.5L54.5 0H218.409L109.5 191.499L76.1439 158.143L138.5 48.5H93.5Z" fill="white"/>
<path fill-rule="evenodd" clip-rule="evenodd" d="M80.1469 261H99.9489V266H74.1865V229H80.1469V261ZM122.391 261H142.193V266H116.431V229H122.391V261ZM164.635 261H188.398V266H158.675V229H188.398V234H164.635V245H183.117V250H164.635V261ZM229.302 255.848L210.358 229H204.88V266H210.84V239.152L229.784 266H235.262V229H229.302V255.848ZM276.167 255.848L257.223 229H251.744V266H257.705V239.152L276.648 266H282.127V229H276.167V255.848ZM344.814 258.042V229H350.774V259.937L344.225 266H327.6L321.051 259.937V229H327.012V258.066L330.154 261H341.387L344.814 258.042ZM0.259155 266V229H5.04904L17.7608 245.37L30.4726 229H35.2625V266H29.3021V239.847L19.561 252H15.9606L6.21955 239.847V266H0.259155ZM51.7443 266V229H57.7047V266H51.7443ZM298.609 266V229H304.569V266H298.609ZM367.256 266V229H372.046L384.758 245.37L397.469 229H402.259V266H396.299V239.847L386.558 252H382.957L373.216 239.847V266H367.256Z" fill="white"/>
</svg>
