<svg width="465" height="557" viewBox="0 0 465 557" fill="none" xmlns="http://www.w3.org/2000/svg">
<path d="M158.696 523.068C158.652 521.301 158.008 519.797 156.765 518.554C156.136 517.91 155.44 517.431 154.676 517.116C153.927 516.787 153.126 516.622 152.273 516.622C151.554 516.622 150.873 516.727 150.229 516.937C149.6 517.131 149.008 517.446 148.454 517.88C147.226 518.778 146.613 519.924 146.613 521.316C146.613 522.395 146.979 523.3 147.713 524.034L158.113 535.265C158.831 536.028 159.37 536.859 159.73 537.758C160.089 538.656 160.269 539.645 160.269 540.723C160.269 542.984 159.483 544.885 157.91 546.428C156.338 548.03 154.459 548.831 152.273 548.831C149.547 548.831 147.399 547.76 145.826 545.619V548H144.209V540.768H145.826C145.871 542.49 146.515 543.994 147.758 545.282C148.986 546.57 150.491 547.214 152.273 547.214C153.605 547.214 154.893 546.787 156.136 545.934C156.705 545.469 157.132 544.96 157.416 544.406C157.716 543.837 157.865 543.193 157.865 542.475C157.865 541.411 157.514 540.506 156.81 539.757L146.365 528.549C144.958 527.036 144.254 525.21 144.254 523.068C144.254 521.96 144.441 520.935 144.816 519.991C145.19 519.033 145.774 518.157 146.568 517.363C148.11 515.806 150.012 515.027 152.273 515.027C153.605 515.027 154.811 515.297 155.889 515.836C156.982 516.36 157.918 517.161 158.696 518.239V515.791H160.314V523.068H158.696ZM168.703 545.619C168.703 545.934 168.636 546.241 168.501 546.54C168.381 546.825 168.209 547.079 167.985 547.304C167.76 547.513 167.498 547.686 167.198 547.82C166.914 547.94 166.607 548 166.278 548C165.933 548 165.611 547.94 165.312 547.82C165.027 547.686 164.78 547.513 164.57 547.304C164.361 547.079 164.189 546.825 164.054 546.54C163.934 546.241 163.874 545.934 163.874 545.619C163.874 545.29 163.934 544.975 164.054 544.676C164.189 544.376 164.361 544.114 164.57 543.89C164.78 543.665 165.027 543.493 165.312 543.373C165.611 543.238 165.933 543.171 166.278 543.171C166.607 543.171 166.914 543.238 167.198 543.373C167.498 543.493 167.76 543.665 167.985 543.89C168.209 544.114 168.381 544.376 168.501 544.676C168.636 544.975 168.703 545.29 168.703 545.619ZM188.683 548V545.619C187.066 547.76 184.924 548.831 182.259 548.831C180.013 548.831 178.096 548.045 176.509 546.473C175.715 545.694 175.131 544.833 174.757 543.89C174.383 542.931 174.195 541.891 174.195 540.768V523.068C174.195 520.807 174.967 518.906 176.509 517.363C178.081 515.806 179.998 515.027 182.259 515.027C183.592 515.027 184.79 515.297 185.853 515.836C186.931 516.36 187.874 517.161 188.683 518.239V515.791H190.3V523.068H188.683C188.683 521.286 188.054 519.767 186.796 518.509C185.493 517.251 183.981 516.622 182.259 516.622C181.705 516.622 181.181 516.727 180.687 516.937C180.193 517.146 179.758 517.431 179.384 517.79C179.025 518.149 178.733 518.576 178.508 519.07C178.298 519.549 178.193 520.066 178.193 520.62V543.171C178.193 543.725 178.298 544.249 178.508 544.743C178.733 545.222 179.025 545.649 179.384 546.023C179.758 546.383 180.193 546.675 180.687 546.899C181.181 547.109 181.705 547.214 182.259 547.214C184.011 547.214 185.523 546.57 186.796 545.282C188.054 544.054 188.683 542.549 188.683 540.768H190.3V548H188.683ZM199.543 545.619C199.543 545.934 199.476 546.241 199.341 546.54C199.221 546.825 199.049 547.079 198.824 547.304C198.6 547.513 198.338 547.686 198.038 547.82C197.754 547.94 197.447 548 197.117 548C196.773 548 196.451 547.94 196.151 547.82C195.867 547.686 195.62 547.513 195.41 547.304C195.201 547.079 195.028 546.825 194.894 546.54C194.774 546.241 194.714 545.934 194.714 545.619C194.714 545.29 194.774 544.975 194.894 544.676C195.028 544.376 195.201 544.114 195.41 543.89C195.62 543.665 195.867 543.493 196.151 543.373C196.451 543.238 196.773 543.171 197.117 543.171C197.447 543.171 197.754 543.238 198.038 543.373C198.338 543.493 198.6 543.665 198.824 543.89C199.049 544.114 199.221 544.376 199.341 544.676C199.476 544.975 199.543 545.29 199.543 545.619ZM216.086 548V546.383H217.681V532.727H209.64V546.383H211.257V548H204.024V546.383H205.642V517.408H204.024V515.791H211.257V517.408H209.64V531.109H217.681V517.408H216.086V515.791H223.341V517.408H221.746V546.383H223.341V548H216.086ZM232.09 545.619C232.09 545.934 232.022 546.241 231.888 546.54C231.768 546.825 231.596 547.079 231.371 547.304C231.146 547.513 230.884 547.686 230.585 547.82C230.3 547.94 229.993 548 229.664 548C229.32 548 228.998 547.94 228.698 547.82C228.414 547.686 228.167 547.513 227.957 547.304C227.747 547.079 227.575 546.825 227.44 546.54C227.321 546.241 227.261 545.934 227.261 545.619C227.261 545.29 227.321 544.975 227.44 544.676C227.575 544.376 227.747 544.114 227.957 543.89C228.167 543.665 228.414 543.493 228.698 543.373C228.998 543.238 229.32 543.171 229.664 543.171C229.993 543.171 230.3 543.238 230.585 543.373C230.884 543.493 231.146 543.665 231.371 543.89C231.596 544.114 231.768 544.376 231.888 544.676C232.022 544.975 232.09 545.29 232.09 545.619ZM246.364 521.361L241.827 538.342H250.924L246.364 521.361ZM251.103 548V546.383H253.08L251.328 539.959H241.445L239.693 546.383H241.67V548H235.561V546.383H238.009L246.185 515.791H249.082L257.28 546.383H259.302V548H251.103ZM267.646 545.619C267.646 545.934 267.579 546.241 267.444 546.54C267.324 546.825 267.152 547.079 266.928 547.304C266.703 547.513 266.441 547.686 266.142 547.82C265.857 547.94 265.55 548 265.221 548C264.876 548 264.554 547.94 264.255 547.82C263.97 547.686 263.723 547.513 263.514 547.304C263.304 547.079 263.132 546.825 262.997 546.54C262.877 546.241 262.817 545.934 262.817 545.619C262.817 545.29 262.877 544.975 262.997 544.676C263.132 544.376 263.304 544.114 263.514 543.89C263.723 543.665 263.97 543.493 264.255 543.373C264.554 543.238 264.876 543.171 265.221 543.171C265.55 543.171 265.857 543.238 266.142 543.373C266.441 543.493 266.703 543.665 266.928 543.89C267.152 544.114 267.324 544.376 267.444 544.676C267.579 544.975 267.646 545.29 267.646 545.619ZM272.128 548V546.383H273.745V517.408H272.128V515.791H279.36V517.408H277.743V546.383H286.615V544.788H288.232V548H272.128ZM297.588 545.619C297.588 545.934 297.52 546.241 297.386 546.54C297.266 546.825 297.094 547.079 296.869 547.304C296.644 547.513 296.382 547.686 296.083 547.82C295.798 547.94 295.491 548 295.162 548C294.818 548 294.496 547.94 294.196 547.82C293.912 547.686 293.665 547.513 293.455 547.304C293.245 547.079 293.073 546.825 292.938 546.54C292.819 546.241 292.759 545.934 292.759 545.619C292.759 545.29 292.819 544.975 292.938 544.676C293.073 544.376 293.245 544.114 293.455 543.89C293.665 543.665 293.912 543.493 294.196 543.373C294.496 543.238 294.818 543.171 295.162 543.171C295.491 543.171 295.798 543.238 296.083 543.373C296.382 543.493 296.644 543.665 296.869 543.89C297.094 544.114 297.266 544.376 297.386 544.676C297.52 544.975 297.588 545.29 297.588 545.619ZM302.069 548V546.383H303.686V517.408H302.069V515.791H319.791V519.025H318.174V517.408H307.684V531.109H314.131V529.515H315.725V534.344H314.131V532.727H307.684V546.383H318.174V544.788H319.791V548H302.069Z" fill="white"/>
<path d="M54.9521 503V501.645H55.5991V486.85H54.9521V485.495H58.1016V486.85H57.5034V501.645H58.1016V503H54.9521ZM65.7422 503V501.645H66.4136V492.624C66.4136 492.372 66.3729 492.136 66.2915 491.916C66.2183 491.696 66.1125 491.505 65.9741 491.342C65.8439 491.18 65.6893 491.049 65.5103 490.952C65.3312 490.854 65.14 490.805 64.9365 490.805C64.7331 490.805 64.5418 490.854 64.3628 490.952C64.1838 491.049 64.0251 491.18 63.8867 491.342C63.7565 491.505 63.6507 491.696 63.5693 491.916C63.4961 492.136 63.4595 492.372 63.4595 492.624V501.645H64.1309V503H60.7373V501.645H61.4087V491.196H60.7373V489.853H62.959V490.646C63.195 490.272 63.4839 489.979 63.8257 489.768C64.1756 489.556 64.5459 489.45 64.9365 489.45C65.4248 489.45 65.8724 489.56 66.2793 489.78C66.6943 489.991 67.0809 490.325 67.439 490.781C68.1388 491.652 68.4888 492.693 68.4888 493.906V501.645H69.1357V503H65.7422ZM77.1914 492.526C77.1914 492.274 77.1507 492.038 77.0693 491.818C76.9961 491.59 76.8903 491.391 76.752 491.22C76.6217 491.049 76.4671 490.915 76.2881 490.817C76.109 490.72 75.9219 490.671 75.7266 490.671C75.5231 490.671 75.3319 490.72 75.1528 490.817C74.9819 490.915 74.8314 491.049 74.7012 491.22C74.571 491.391 74.4652 491.59 74.3838 491.818C74.3105 492.038 74.2739 492.274 74.2739 492.526V500.205C74.2739 500.457 74.3105 500.697 74.3838 500.925C74.4652 501.145 74.571 501.34 74.7012 501.511C74.8314 501.674 74.9819 501.804 75.1528 501.901C75.3319 501.999 75.5231 502.048 75.7266 502.048C75.9219 502.048 76.109 501.999 76.2881 501.901C76.4671 501.804 76.6217 501.674 76.752 501.511C76.8903 501.34 76.9961 501.145 77.0693 500.925C77.1507 500.697 77.1914 500.457 77.1914 500.205V492.526ZM77.6675 503V502.231C77.4315 502.597 77.1466 502.886 76.813 503.098C76.4793 503.317 76.1172 503.427 75.7266 503.427C74.7581 503.427 73.9321 502.984 73.2485 502.097C72.8905 501.649 72.63 501.165 72.4673 500.644C72.3045 500.115 72.2231 499.533 72.2231 498.898V493.82C72.2231 493.194 72.3045 492.624 72.4673 492.111C72.63 491.59 72.8905 491.102 73.2485 490.646C73.5985 490.199 73.9769 489.861 74.3838 489.633C74.7907 489.397 75.2383 489.279 75.7266 489.279C76.2718 489.279 76.7601 489.487 77.1914 489.902V485.971H76.52V484.604H79.2422V501.645H79.9258V503H77.6675ZM85.0151 494.895H87.9082V492.624C87.9082 492.372 87.8675 492.136 87.7861 491.916C87.7129 491.688 87.6112 491.493 87.481 491.33C87.3589 491.159 87.2124 491.025 87.0415 490.927C86.8706 490.83 86.6875 490.781 86.4922 490.781C86.2887 490.781 86.0975 490.83 85.9185 490.927C85.7394 491.025 85.5807 491.159 85.4424 491.33C85.3122 491.493 85.2064 491.688 85.125 491.916C85.0518 492.136 85.0151 492.372 85.0151 492.624V494.895ZM88.9092 503V502.17C88.2581 503.008 87.4525 503.427 86.4922 503.427C86.0039 503.427 85.5563 503.313 85.1494 503.085C84.7425 502.866 84.3641 502.536 84.0142 502.097C83.3306 501.21 82.9888 500.16 82.9888 498.947V493.906C82.9888 493.287 83.0701 492.718 83.2329 492.197C83.3957 491.668 83.6479 491.184 83.9897 490.744C84.6978 489.865 85.5319 489.426 86.4922 489.426C87.4118 489.426 88.2256 489.865 88.9336 490.744C89.6335 491.615 89.9834 492.669 89.9834 493.906V496.274H85.0151V500.229C85.0151 500.481 85.0518 500.721 85.125 500.949C85.2064 501.169 85.3122 501.364 85.4424 501.535C85.5807 501.698 85.7394 501.828 85.9185 501.926C86.0975 502.023 86.2887 502.072 86.4922 502.072C87.1514 502.072 87.7251 501.771 88.2134 501.169C88.6772 500.559 88.9092 499.737 88.9092 498.703H89.9834V503H88.9092ZM98.271 492.551C98.271 492.299 98.2303 492.058 98.1489 491.831C98.0757 491.603 97.9699 491.403 97.8315 491.232C97.7013 491.062 97.5467 490.927 97.3677 490.83C97.1886 490.724 96.9974 490.671 96.7939 490.671C96.5986 490.671 96.4115 490.724 96.2324 490.83C96.0615 490.927 95.9069 491.062 95.7686 491.232C95.6383 491.403 95.5326 491.603 95.4512 491.831C95.3779 492.058 95.3413 492.299 95.3413 492.551V500.205C95.3413 500.457 95.3779 500.697 95.4512 500.925C95.5326 501.145 95.6383 501.34 95.7686 501.511C95.9069 501.674 96.0615 501.804 96.2324 501.901C96.4115 501.999 96.5986 502.048 96.7939 502.048C96.9974 502.048 97.1886 501.999 97.3677 501.901C97.5467 501.804 97.7013 501.674 97.8315 501.511C97.9699 501.34 98.0757 501.145 98.1489 500.925C98.2303 500.697 98.271 500.457 98.271 500.205V492.551ZM100.297 498.898C100.297 500.152 99.9556 501.218 99.272 502.097C98.5802 502.984 97.7542 503.427 96.7939 503.427C96.2406 503.427 95.7563 503.228 95.3413 502.829V505.905H96.0127V507.248H92.5947V505.905H93.2661V491.098H92.5947V489.755H94.8408V490.524C95.0768 490.158 95.3617 489.865 95.6953 489.646C96.0371 489.418 96.4033 489.304 96.7939 489.304C97.2822 489.304 97.7257 489.422 98.1245 489.658C98.5314 489.886 98.9139 490.223 99.272 490.671C99.9556 491.534 100.297 492.583 100.297 493.82V498.898ZM105.838 494.895H108.731V492.624C108.731 492.372 108.691 492.136 108.609 491.916C108.536 491.688 108.434 491.493 108.304 491.33C108.182 491.159 108.036 491.025 107.865 490.927C107.694 490.83 107.511 490.781 107.315 490.781C107.112 490.781 106.921 490.83 106.742 490.927C106.563 491.025 106.404 491.159 106.266 491.33C106.135 491.493 106.03 491.688 105.948 491.916C105.875 492.136 105.838 492.372 105.838 492.624V494.895ZM109.732 503V502.17C109.081 503.008 108.276 503.427 107.315 503.427C106.827 503.427 106.38 503.313 105.973 503.085C105.566 502.866 105.187 502.536 104.837 502.097C104.154 501.21 103.812 500.16 103.812 498.947V493.906C103.812 493.287 103.893 492.718 104.056 492.197C104.219 491.668 104.471 491.184 104.813 490.744C105.521 489.865 106.355 489.426 107.315 489.426C108.235 489.426 109.049 489.865 109.757 490.744C110.457 491.615 110.807 492.669 110.807 493.906V496.274H105.838V500.229C105.838 500.481 105.875 500.721 105.948 500.949C106.03 501.169 106.135 501.364 106.266 501.535C106.404 501.698 106.563 501.828 106.742 501.926C106.921 502.023 107.112 502.072 107.315 502.072C107.975 502.072 108.548 501.771 109.037 501.169C109.5 500.559 109.732 499.737 109.732 498.703H110.807V503H109.732ZM118.862 503V501.645H119.534V492.624C119.534 492.372 119.493 492.136 119.412 491.916C119.338 491.696 119.233 491.505 119.094 491.342C118.964 491.18 118.809 491.049 118.63 490.952C118.451 490.854 118.26 490.805 118.057 490.805C117.853 490.805 117.662 490.854 117.483 490.952C117.304 491.049 117.145 491.18 117.007 491.342C116.877 491.505 116.771 491.696 116.689 491.916C116.616 492.136 116.58 492.372 116.58 492.624V501.645H117.251V503H113.857V501.645H114.529V491.196H113.857V489.853H116.079V490.646C116.315 490.272 116.604 489.979 116.946 489.768C117.296 489.556 117.666 489.45 118.057 489.45C118.545 489.45 118.993 489.56 119.399 489.78C119.814 489.991 120.201 490.325 120.559 490.781C121.259 491.652 121.609 492.693 121.609 493.906V501.645H122.256V503H118.862ZM130.312 492.526C130.312 492.274 130.271 492.038 130.189 491.818C130.116 491.59 130.01 491.391 129.872 491.22C129.742 491.049 129.587 490.915 129.408 490.817C129.229 490.72 129.042 490.671 128.847 490.671C128.643 490.671 128.452 490.72 128.273 490.817C128.102 490.915 127.951 491.049 127.821 491.22C127.691 491.391 127.585 491.59 127.504 491.818C127.431 492.038 127.394 492.274 127.394 492.526V500.205C127.394 500.457 127.431 500.697 127.504 500.925C127.585 501.145 127.691 501.34 127.821 501.511C127.951 501.674 128.102 501.804 128.273 501.901C128.452 501.999 128.643 502.048 128.847 502.048C129.042 502.048 129.229 501.999 129.408 501.901C129.587 501.804 129.742 501.674 129.872 501.511C130.01 501.34 130.116 501.145 130.189 500.925C130.271 500.697 130.312 500.457 130.312 500.205V492.526ZM130.788 503V502.231C130.552 502.597 130.267 502.886 129.933 503.098C129.599 503.317 129.237 503.427 128.847 503.427C127.878 503.427 127.052 502.984 126.369 502.097C126.011 501.649 125.75 501.165 125.587 500.644C125.425 500.115 125.343 499.533 125.343 498.898V493.82C125.343 493.194 125.425 492.624 125.587 492.111C125.75 491.59 126.011 491.102 126.369 490.646C126.719 490.199 127.097 489.861 127.504 489.633C127.911 489.397 128.358 489.279 128.847 489.279C129.392 489.279 129.88 489.487 130.312 489.902V485.971H129.64V484.604H132.362V501.645H133.046V503H130.788ZM138.135 494.895H141.028V492.624C141.028 492.372 140.988 492.136 140.906 491.916C140.833 491.688 140.731 491.493 140.601 491.33C140.479 491.159 140.333 491.025 140.162 490.927C139.991 490.83 139.808 490.781 139.612 490.781C139.409 490.781 139.218 490.83 139.039 490.927C138.86 491.025 138.701 491.159 138.562 491.33C138.432 491.493 138.326 491.688 138.245 491.916C138.172 492.136 138.135 492.372 138.135 492.624V494.895ZM142.029 503V502.17C141.378 503.008 140.573 503.427 139.612 503.427C139.124 503.427 138.676 503.313 138.27 503.085C137.863 502.866 137.484 502.536 137.134 502.097C136.451 501.21 136.109 500.16 136.109 498.947V493.906C136.109 493.287 136.19 492.718 136.353 492.197C136.516 491.668 136.768 491.184 137.11 490.744C137.818 489.865 138.652 489.426 139.612 489.426C140.532 489.426 141.346 489.865 142.054 490.744C142.754 491.615 143.104 492.669 143.104 493.906V496.274H138.135V500.229C138.135 500.481 138.172 500.721 138.245 500.949C138.326 501.169 138.432 501.364 138.562 501.535C138.701 501.698 138.86 501.828 139.039 501.926C139.218 502.023 139.409 502.072 139.612 502.072C140.271 502.072 140.845 501.771 141.333 501.169C141.797 500.559 142.029 499.737 142.029 498.703H143.104V503H142.029ZM151.159 503V501.645H151.831V492.624C151.831 492.372 151.79 492.136 151.708 491.916C151.635 491.696 151.529 491.505 151.391 491.342C151.261 491.18 151.106 491.049 150.927 490.952C150.748 490.854 150.557 490.805 150.354 490.805C150.15 490.805 149.959 490.854 149.78 490.952C149.601 491.049 149.442 491.18 149.304 491.342C149.174 491.505 149.068 491.696 148.986 491.916C148.913 492.136 148.876 492.372 148.876 492.624V501.645H149.548V503H146.154V501.645H146.826V491.196H146.154V489.853H148.376V490.646C148.612 490.272 148.901 489.979 149.243 489.768C149.593 489.556 149.963 489.45 150.354 489.45C150.842 489.45 151.289 489.56 151.696 489.78C152.111 489.991 152.498 490.325 152.856 490.781C153.556 491.652 153.906 492.693 153.906 493.906V501.645H154.553V503H151.159ZM161.192 503.427C160.248 503.427 159.455 502.976 158.812 502.072C158.486 501.617 158.238 501.132 158.067 500.62C157.896 500.107 157.811 499.533 157.811 498.898V491.098H157.188V489.755H157.811V486.85H157.188V485.471H160.436V486.85H159.789V489.755H161.388V491.098H159.789V500.205C159.789 500.457 159.829 500.697 159.911 500.925C160 501.145 160.114 501.34 160.252 501.511C160.399 501.674 160.57 501.804 160.765 501.901C160.96 501.999 161.168 502.048 161.388 502.048V503.171L161.192 503.427ZM179.538 487.705V486.85H175.631V493.576H177.89V492.722H178.964V495.773H177.89V494.919H175.631V501.645H176.303V503H172.885V501.645H173.556V486.85H172.885V485.495H180.587V487.705H179.538ZM184.346 494.895H187.239V492.624C187.239 492.372 187.199 492.136 187.117 491.916C187.044 491.688 186.942 491.493 186.812 491.33C186.69 491.159 186.543 491.025 186.373 490.927C186.202 490.83 186.019 490.781 185.823 490.781C185.62 490.781 185.429 490.83 185.25 490.927C185.07 491.025 184.912 491.159 184.773 491.33C184.643 491.493 184.537 491.688 184.456 491.916C184.383 492.136 184.346 492.372 184.346 492.624V494.895ZM188.24 503V502.17C187.589 503.008 186.784 503.427 185.823 503.427C185.335 503.427 184.887 503.313 184.48 503.085C184.074 502.866 183.695 502.536 183.345 502.097C182.662 501.21 182.32 500.16 182.32 498.947V493.906C182.32 493.287 182.401 492.718 182.564 492.197C182.727 491.668 182.979 491.184 183.321 490.744C184.029 489.865 184.863 489.426 185.823 489.426C186.743 489.426 187.557 489.865 188.265 490.744C188.965 491.615 189.314 492.669 189.314 493.906V496.274H184.346V500.229C184.346 500.481 184.383 500.721 184.456 500.949C184.537 501.169 184.643 501.364 184.773 501.535C184.912 501.698 185.07 501.828 185.25 501.926C185.429 502.023 185.62 502.072 185.823 502.072C186.482 502.072 187.056 501.771 187.544 501.169C188.008 500.559 188.24 499.737 188.24 498.703H189.314V503H188.24ZM197.761 492.526C197.761 492.274 197.72 492.038 197.639 491.818C197.565 491.59 197.46 491.391 197.321 491.22C197.191 491.049 197.036 490.915 196.857 490.817C196.678 490.72 196.491 490.671 196.296 490.671C196.092 490.671 195.901 490.72 195.722 490.817C195.551 490.915 195.401 491.049 195.271 491.22C195.14 491.391 195.035 491.59 194.953 491.818C194.88 492.038 194.843 492.274 194.843 492.526V500.205C194.843 500.457 194.88 500.697 194.953 500.925C195.035 501.145 195.14 501.34 195.271 501.511C195.401 501.674 195.551 501.804 195.722 501.901C195.901 501.999 196.092 502.048 196.296 502.048C196.491 502.048 196.678 501.999 196.857 501.901C197.036 501.804 197.191 501.674 197.321 501.511C197.46 501.34 197.565 501.145 197.639 500.925C197.72 500.697 197.761 500.457 197.761 500.205V492.526ZM198.237 503V502.231C198.001 502.597 197.716 502.886 197.382 503.098C197.049 503.317 196.687 503.427 196.296 503.427C195.327 503.427 194.501 502.984 193.818 502.097C193.46 501.649 193.199 501.165 193.037 500.644C192.874 500.115 192.792 499.533 192.792 498.898V493.82C192.792 493.194 192.874 492.624 193.037 492.111C193.199 491.59 193.46 491.102 193.818 490.646C194.168 490.199 194.546 489.861 194.953 489.633C195.36 489.397 195.808 489.279 196.296 489.279C196.841 489.279 197.329 489.487 197.761 489.902V485.971H197.089V484.604H199.812V501.645H200.495V503H198.237ZM205.584 494.895H208.478V492.624C208.478 492.372 208.437 492.136 208.355 491.916C208.282 491.688 208.181 491.493 208.05 491.33C207.928 491.159 207.782 491.025 207.611 490.927C207.44 490.83 207.257 490.781 207.062 490.781C206.858 490.781 206.667 490.83 206.488 490.927C206.309 491.025 206.15 491.159 206.012 491.33C205.882 491.493 205.776 491.688 205.694 491.916C205.621 492.136 205.584 492.372 205.584 492.624V494.895ZM209.479 503V502.17C208.827 503.008 208.022 503.427 207.062 503.427C206.573 503.427 206.126 503.313 205.719 503.085C205.312 502.866 204.933 502.536 204.583 502.097C203.9 501.21 203.558 500.16 203.558 498.947V493.906C203.558 493.287 203.639 492.718 203.802 492.197C203.965 491.668 204.217 491.184 204.559 490.744C205.267 489.865 206.101 489.426 207.062 489.426C207.981 489.426 208.795 489.865 209.503 490.744C210.203 491.615 210.553 492.669 210.553 493.906V496.274H205.584V500.229C205.584 500.481 205.621 500.721 205.694 500.949C205.776 501.169 205.882 501.364 206.012 501.535C206.15 501.698 206.309 501.828 206.488 501.926C206.667 502.023 206.858 502.072 207.062 502.072C207.721 502.072 208.294 501.771 208.783 501.169C209.247 500.559 209.479 499.737 209.479 498.703H210.553V503H209.479ZM219.182 492.905C219.182 492.612 219.141 492.339 219.06 492.087C218.987 491.826 218.885 491.603 218.755 491.416C218.625 491.22 218.47 491.07 218.291 490.964C218.112 490.858 217.925 490.805 217.729 490.805C217.534 490.805 217.347 490.854 217.168 490.952C216.997 491.049 216.847 491.18 216.716 491.342C216.594 491.505 216.493 491.696 216.411 491.916C216.338 492.136 216.301 492.372 216.301 492.624V501.645H216.948V503H213.579V501.645H214.25V491.196H213.579V489.853H215.63V490.671C216.126 489.857 216.826 489.45 217.729 489.45C218.006 489.45 218.263 489.495 218.499 489.584C218.743 489.674 218.971 489.82 219.182 490.024V489.853H220.232V492.905H219.182ZM228.3 496.848C228.3 496.595 228.259 496.355 228.178 496.127C228.104 495.9 227.999 495.704 227.86 495.542C227.73 495.379 227.576 495.249 227.396 495.151C227.217 495.053 227.03 495.004 226.835 495.004C226.632 495.004 226.44 495.053 226.261 495.151C226.09 495.249 225.94 495.379 225.81 495.542C225.679 495.704 225.574 495.9 225.492 496.127C225.419 496.355 225.382 496.595 225.382 496.848V500.229C225.382 500.481 225.419 500.721 225.492 500.949C225.574 501.169 225.679 501.364 225.81 501.535C225.94 501.698 226.09 501.828 226.261 501.926C226.44 502.023 226.632 502.072 226.835 502.072C227.03 502.072 227.217 502.023 227.396 501.926C227.576 501.828 227.73 501.698 227.86 501.535C227.999 501.364 228.104 501.169 228.178 500.949C228.259 500.721 228.3 500.481 228.3 500.229V496.848ZM228.776 503V502.231C228.54 502.597 228.251 502.886 227.909 503.098C227.567 503.317 227.209 503.427 226.835 503.427C226.347 503.427 225.903 503.313 225.504 503.085C225.106 502.866 224.731 502.536 224.381 502.097C223.681 501.218 223.332 500.168 223.332 498.947V498.105C223.332 496.876 223.681 495.834 224.381 494.98C224.731 494.524 225.106 494.191 225.504 493.979C225.903 493.759 226.347 493.649 226.835 493.649C227.405 493.649 227.893 493.849 228.3 494.248V492.624C228.3 492.372 228.259 492.136 228.178 491.916C228.104 491.688 227.999 491.493 227.86 491.33C227.73 491.159 227.576 491.025 227.396 490.927C227.217 490.83 227.03 490.781 226.835 490.781C226.493 490.781 226.176 490.854 225.883 491C225.59 491.147 225.329 491.371 225.102 491.672C224.866 491.957 224.687 492.315 224.564 492.746C224.442 493.169 224.381 493.637 224.381 494.15H223.332V489.853H224.381V490.671C224.707 490.256 225.069 489.947 225.468 489.743C225.875 489.532 226.33 489.426 226.835 489.426C227.771 489.426 228.593 489.865 229.301 490.744C230.001 491.615 230.351 492.669 230.351 493.906V501.645H231.034V503H228.776ZM233.597 503V501.645H234.244V485.971H233.597V484.628H236.148V501.645H236.746V503H233.597ZM248.194 503V501.645H248.841V486.85H248.194V485.495H251.344V486.85H250.746V501.645H251.344V503H248.194ZM258.984 503V501.645H259.656V492.624C259.656 492.372 259.615 492.136 259.534 491.916C259.46 491.696 259.355 491.505 259.216 491.342C259.086 491.18 258.931 491.049 258.752 490.952C258.573 490.854 258.382 490.805 258.179 490.805C257.975 490.805 257.784 490.854 257.605 490.952C257.426 491.049 257.267 491.18 257.129 491.342C256.999 491.505 256.893 491.696 256.812 491.916C256.738 492.136 256.702 492.372 256.702 492.624V501.645H257.373V503H253.979V501.645H254.651V491.196H253.979V489.853H256.201V490.646C256.437 490.272 256.726 489.979 257.068 489.768C257.418 489.556 257.788 489.45 258.179 489.45C258.667 489.45 259.115 489.56 259.521 489.78C259.937 489.991 260.323 490.325 260.681 490.781C261.381 491.652 261.731 492.693 261.731 493.906V501.645H262.378V503H258.984ZM273.266 491.22L270.214 503H268.615L265.539 491.22H264.611V489.877H268.468V491.22H267.711L269.933 499.777L272.143 491.22H271.41V489.877H274.364V491.22H273.266ZM278.648 494.895H281.541V492.624C281.541 492.372 281.5 492.136 281.419 491.916C281.346 491.688 281.244 491.493 281.114 491.33C280.992 491.159 280.845 491.025 280.674 490.927C280.503 490.83 280.32 490.781 280.125 490.781C279.922 490.781 279.73 490.83 279.551 490.927C279.372 491.025 279.214 491.159 279.075 491.33C278.945 491.493 278.839 491.688 278.758 491.916C278.685 492.136 278.648 492.372 278.648 492.624V494.895ZM282.542 503V502.17C281.891 503.008 281.085 503.427 280.125 503.427C279.637 503.427 279.189 503.313 278.782 503.085C278.375 502.866 277.997 502.536 277.647 502.097C276.963 501.21 276.622 500.16 276.622 498.947V493.906C276.622 493.287 276.703 492.718 276.866 492.197C277.028 491.668 277.281 491.184 277.623 490.744C278.331 489.865 279.165 489.426 280.125 489.426C281.045 489.426 281.858 489.865 282.566 490.744C283.266 491.615 283.616 492.669 283.616 493.906V496.274H278.648V500.229C278.648 500.481 278.685 500.721 278.758 500.949C278.839 501.169 278.945 501.364 279.075 501.535C279.214 501.698 279.372 501.828 279.551 501.926C279.73 502.023 279.922 502.072 280.125 502.072C280.784 502.072 281.358 501.771 281.846 501.169C282.31 500.559 282.542 499.737 282.542 498.703H283.616V503H282.542ZM293.015 494.15C292.99 493.108 292.742 492.29 292.27 491.696C292.042 491.387 291.786 491.159 291.501 491.013C291.224 490.858 290.923 490.781 290.598 490.781C290.305 490.781 290.036 490.821 289.792 490.903C289.556 490.984 289.332 491.106 289.121 491.269H289.145C288.909 491.448 288.734 491.668 288.62 491.928C288.514 492.181 288.461 492.461 288.461 492.771C288.461 493.584 288.905 494.211 289.792 494.65C290.231 494.878 290.691 495.106 291.171 495.334C291.652 495.562 292.115 495.778 292.563 495.981C293.564 496.656 294.064 497.714 294.064 499.155C294.064 499.765 293.983 500.331 293.82 500.852C293.658 501.364 293.397 501.824 293.039 502.231C292.339 503.028 291.525 503.427 290.598 503.427C289.589 503.427 288.771 503.008 288.144 502.17V503H287.094V498.703H288.144C288.144 499.216 288.205 499.676 288.327 500.083C288.449 500.481 288.628 500.843 288.864 501.169C289.328 501.771 289.906 502.072 290.598 502.072C291.143 502.072 291.615 501.897 292.014 501.547C292.469 501.206 292.697 500.713 292.697 500.07C292.697 499.257 292.254 498.634 291.367 498.203C290.911 497.975 290.447 497.751 289.975 497.531C289.503 497.303 289.035 497.084 288.571 496.872C287.587 496.197 287.094 495.139 287.094 493.698C287.094 492.453 287.436 491.428 288.12 490.622C288.47 490.223 288.848 489.926 289.255 489.731C289.662 489.528 290.109 489.426 290.598 489.426C291.55 489.426 292.355 489.841 293.015 490.671V489.853H294.089V494.15H293.015ZM301.119 503.427C300.175 503.427 299.382 502.976 298.739 502.072C298.413 501.617 298.165 501.132 297.994 500.62C297.823 500.107 297.738 499.533 297.738 498.898V491.098H297.115V489.755H297.738V486.85H297.115V485.471H300.362V486.85H299.715V489.755H301.314V491.098H299.715V500.205C299.715 500.457 299.756 500.697 299.837 500.925C299.927 501.145 300.041 501.34 300.179 501.511C300.326 501.674 300.497 501.804 300.692 501.901C300.887 501.999 301.095 502.048 301.314 502.048V503.171L301.119 503.427ZM306.721 486.826C306.721 487.062 306.689 487.285 306.624 487.497C306.558 487.709 306.469 487.892 306.355 488.046C306.241 488.201 306.107 488.323 305.952 488.413C305.798 488.502 305.631 488.547 305.452 488.547C305.281 488.547 305.118 488.502 304.963 488.413C304.809 488.323 304.674 488.201 304.561 488.046C304.447 487.892 304.357 487.709 304.292 487.497C304.227 487.285 304.194 487.062 304.194 486.826C304.194 486.573 304.227 486.341 304.292 486.13C304.357 485.918 304.447 485.735 304.561 485.581C304.674 485.426 304.809 485.304 304.963 485.214C305.118 485.125 305.281 485.08 305.452 485.08C305.631 485.08 305.798 485.125 305.952 485.214C306.107 485.304 306.241 485.426 306.355 485.581C306.469 485.735 306.558 485.918 306.624 486.13C306.689 486.341 306.721 486.573 306.721 486.826ZM303.877 503V501.645H304.524V491.098H303.877V489.755H306.428V501.645H307.026V503H303.877ZM315.058 492.551C315.058 492.299 315.017 492.058 314.936 491.831C314.862 491.603 314.757 491.403 314.618 491.232C314.488 491.062 314.333 490.927 314.154 490.83C313.975 490.724 313.788 490.671 313.593 490.671C313.389 490.671 313.198 490.724 313.019 490.83C312.848 490.927 312.698 491.062 312.567 491.232C312.437 491.403 312.331 491.603 312.25 491.831C312.177 492.058 312.14 492.299 312.14 492.551V500.205C312.14 500.457 312.177 500.697 312.25 500.925C312.331 501.145 312.437 501.34 312.567 501.511C312.698 501.674 312.848 501.804 313.019 501.901C313.198 501.999 313.389 502.048 313.593 502.048C313.788 502.048 313.975 501.999 314.154 501.901C314.333 501.804 314.488 501.674 314.618 501.511C314.757 501.34 314.862 501.145 314.936 500.925C315.017 500.697 315.058 500.457 315.058 500.205V492.551ZM317.108 491.098V503.171C317.108 504.408 316.758 505.466 316.059 506.345C315.359 507.232 314.476 507.675 313.41 507.675V506.32C313.638 506.32 313.849 506.271 314.044 506.174C314.248 506.076 314.423 505.942 314.569 505.771C314.724 505.6 314.842 505.401 314.923 505.173C315.013 504.953 315.058 504.713 315.058 504.453V502.829C314.634 503.228 314.146 503.427 313.593 503.427C313.104 503.427 312.661 503.313 312.262 503.085C311.863 502.866 311.489 502.528 311.139 502.072C310.781 501.617 310.517 501.132 310.346 500.62C310.175 500.107 310.089 499.533 310.089 498.898V493.82C310.089 492.6 310.439 491.542 311.139 490.646C311.489 490.199 311.863 489.865 312.262 489.646C312.661 489.418 313.104 489.304 313.593 489.304C313.983 489.304 314.346 489.414 314.679 489.633C315.013 489.845 315.298 490.134 315.534 490.5V489.731H317.792V491.098H317.108ZM325.823 496.848C325.823 496.595 325.783 496.355 325.701 496.127C325.628 495.9 325.522 495.704 325.384 495.542C325.254 495.379 325.099 495.249 324.92 495.151C324.741 495.053 324.554 495.004 324.358 495.004C324.155 495.004 323.964 495.053 323.785 495.151C323.614 495.249 323.463 495.379 323.333 495.542C323.203 495.704 323.097 495.9 323.016 496.127C322.942 496.355 322.906 496.595 322.906 496.848V500.229C322.906 500.481 322.942 500.721 323.016 500.949C323.097 501.169 323.203 501.364 323.333 501.535C323.463 501.698 323.614 501.828 323.785 501.926C323.964 502.023 324.155 502.072 324.358 502.072C324.554 502.072 324.741 502.023 324.92 501.926C325.099 501.828 325.254 501.698 325.384 501.535C325.522 501.364 325.628 501.169 325.701 500.949C325.783 500.721 325.823 500.481 325.823 500.229V496.848ZM326.299 503V502.231C326.063 502.597 325.774 502.886 325.433 503.098C325.091 503.317 324.733 503.427 324.358 503.427C323.87 503.427 323.427 503.313 323.028 503.085C322.629 502.866 322.255 502.536 321.905 502.097C321.205 501.218 320.855 500.168 320.855 498.947V498.105C320.855 496.876 321.205 495.834 321.905 494.98C322.255 494.524 322.629 494.191 323.028 493.979C323.427 493.759 323.87 493.649 324.358 493.649C324.928 493.649 325.416 493.849 325.823 494.248V492.624C325.823 492.372 325.783 492.136 325.701 491.916C325.628 491.688 325.522 491.493 325.384 491.33C325.254 491.159 325.099 491.025 324.92 490.927C324.741 490.83 324.554 490.781 324.358 490.781C324.017 490.781 323.699 490.854 323.406 491C323.113 491.147 322.853 491.371 322.625 491.672C322.389 491.957 322.21 492.315 322.088 492.746C321.966 493.169 321.905 493.637 321.905 494.15H320.855V489.853H321.905V490.671C322.23 490.256 322.592 489.947 322.991 489.743C323.398 489.532 323.854 489.426 324.358 489.426C325.294 489.426 326.116 489.865 326.824 490.744C327.524 491.615 327.874 492.669 327.874 493.906V501.645H328.558V503H326.299ZM334.538 503.427C333.594 503.427 332.801 502.976 332.158 502.072C331.832 501.617 331.584 501.132 331.413 500.62C331.242 500.107 331.157 499.533 331.157 498.898V491.098H330.534V489.755H331.157V486.85H330.534V485.471H333.781V486.85H333.134V489.755H334.733V491.098H333.134V500.205C333.134 500.457 333.175 500.697 333.256 500.925C333.346 501.145 333.46 501.34 333.598 501.511C333.745 501.674 333.916 501.804 334.111 501.901C334.306 501.999 334.514 502.048 334.733 502.048V503.171L334.538 503.427ZM340.14 486.826C340.14 487.062 340.108 487.285 340.042 487.497C339.977 487.709 339.888 487.892 339.774 488.046C339.66 488.201 339.526 488.323 339.371 488.413C339.216 488.502 339.05 488.547 338.871 488.547C338.7 488.547 338.537 488.502 338.382 488.413C338.228 488.323 338.093 488.201 337.979 488.046C337.866 487.892 337.776 487.709 337.711 487.497C337.646 487.285 337.613 487.062 337.613 486.826C337.613 486.573 337.646 486.341 337.711 486.13C337.776 485.918 337.866 485.735 337.979 485.581C338.093 485.426 338.228 485.304 338.382 485.214C338.537 485.125 338.7 485.08 338.871 485.08C339.05 485.08 339.216 485.125 339.371 485.214C339.526 485.304 339.66 485.426 339.774 485.581C339.888 485.735 339.977 485.918 340.042 486.13C340.108 486.341 340.14 486.573 340.14 486.826ZM337.296 503V501.645H337.943V491.098H337.296V489.755H339.847V501.645H340.445V503H337.296ZM348.428 492.624C348.428 492.372 348.387 492.136 348.306 491.916C348.232 491.688 348.131 491.493 348 491.33C347.878 491.159 347.732 491.025 347.561 490.927C347.39 490.83 347.207 490.781 347.012 490.781C346.808 490.781 346.617 490.83 346.438 490.927C346.259 491.025 346.1 491.159 345.962 491.33C345.832 491.493 345.726 491.688 345.645 491.916C345.571 492.136 345.535 492.372 345.535 492.624V500.229C345.535 500.481 345.571 500.721 345.645 500.949C345.726 501.169 345.832 501.364 345.962 501.535C346.1 501.698 346.259 501.828 346.438 501.926C346.617 502.023 346.808 502.072 347.012 502.072C347.207 502.072 347.39 502.023 347.561 501.926C347.732 501.828 347.878 501.698 348 501.535C348.131 501.364 348.232 501.169 348.306 500.949C348.387 500.721 348.428 500.481 348.428 500.229V492.624ZM350.503 498.947C350.503 500.184 350.153 501.242 349.453 502.121C348.761 502.992 347.948 503.427 347.012 503.427C346.035 503.427 345.201 502.992 344.509 502.121C344.167 501.674 343.915 501.189 343.752 500.668C343.59 500.139 343.508 499.566 343.508 498.947V493.906C343.508 493.287 343.59 492.718 343.752 492.197C343.915 491.668 344.167 491.184 344.509 490.744C345.217 489.865 346.051 489.426 347.012 489.426C347.931 489.426 348.745 489.865 349.453 490.744C350.153 491.615 350.503 492.669 350.503 493.906V498.947ZM358.559 503V501.645H359.23V492.624C359.23 492.372 359.189 492.136 359.108 491.916C359.035 491.696 358.929 491.505 358.791 491.342C358.66 491.18 358.506 491.049 358.327 490.952C358.148 490.854 357.956 490.805 357.753 490.805C357.549 490.805 357.358 490.854 357.179 490.952C357 491.049 356.841 491.18 356.703 491.342C356.573 491.505 356.467 491.696 356.386 491.916C356.312 492.136 356.276 492.372 356.276 492.624V501.645H356.947V503H353.554V501.645H354.225V491.196H353.554V489.853H355.775V490.646C356.011 490.272 356.3 489.979 356.642 489.768C356.992 489.556 357.362 489.45 357.753 489.45C358.241 489.45 358.689 489.56 359.096 489.78C359.511 489.991 359.897 490.325 360.255 490.781C360.955 491.652 361.305 492.693 361.305 493.906V501.645H361.952V503H358.559ZM379.846 503V502.17C379.195 503.008 378.389 503.427 377.429 503.427C376.444 503.427 375.61 502.984 374.926 502.097C374.584 501.649 374.332 501.165 374.169 500.644C374.007 500.115 373.925 499.533 373.925 498.898V489.572C373.925 488.946 374.007 488.376 374.169 487.863C374.332 487.342 374.584 486.854 374.926 486.398C375.618 485.503 376.452 485.056 377.429 485.056C377.901 485.056 378.34 485.161 378.747 485.373C379.154 485.576 379.52 485.894 379.846 486.325V485.471H380.92V489.804H379.846C379.846 488.763 379.614 487.937 379.15 487.326C378.67 486.724 378.096 486.423 377.429 486.423C377.225 486.423 377.034 486.472 376.855 486.569C376.676 486.667 376.517 486.801 376.379 486.972C376.249 487.143 376.143 487.342 376.062 487.57C375.988 487.79 375.952 488.026 375.952 488.278V500.205C375.952 500.457 375.988 500.697 376.062 500.925C376.143 501.145 376.249 501.34 376.379 501.511C376.517 501.674 376.676 501.804 376.855 501.901C377.034 501.999 377.225 502.048 377.429 502.048C377.754 502.048 378.063 501.975 378.356 501.828C378.649 501.682 378.914 501.454 379.15 501.145C379.614 500.534 379.846 499.712 379.846 498.679H380.92V503H379.846ZM383.897 503V501.645H384.544V485.971H383.897V484.628H386.449V501.645H387.047V503H383.897ZM395.859 503V502.231C395.607 502.597 395.31 502.886 394.968 503.098C394.635 503.317 394.272 503.427 393.882 503.427C393.394 503.427 392.946 503.313 392.539 503.085C392.14 502.866 391.762 502.536 391.404 502.097C391.054 501.649 390.789 501.169 390.61 500.656C390.439 500.135 390.354 499.566 390.354 498.947V491.196H389.683V489.853H392.405V500.229C392.405 500.481 392.441 500.721 392.515 500.949C392.596 501.169 392.702 501.364 392.832 501.535C392.97 501.698 393.129 501.828 393.308 501.926C393.487 502.023 393.678 502.072 393.882 502.072C394.085 502.072 394.277 502.023 394.456 501.926C394.635 501.828 394.789 501.698 394.919 501.535C395.058 501.364 395.164 501.169 395.237 500.949C395.318 500.721 395.359 500.481 395.359 500.229V491.196H394.688V489.853H397.434V501.645H398.081V503H395.859ZM406.393 492.526C406.393 492.274 406.352 492.038 406.271 491.818C406.198 491.59 406.092 491.391 405.954 491.22C405.823 491.049 405.669 490.915 405.49 490.817C405.311 490.72 405.119 490.671 404.916 490.671C404.721 490.671 404.534 490.72 404.354 490.817C404.184 490.915 404.029 491.049 403.891 491.22C403.76 491.391 403.655 491.59 403.573 491.818C403.5 492.038 403.463 492.274 403.463 492.526V500.205C403.463 500.457 403.5 500.697 403.573 500.925C403.655 501.145 403.76 501.34 403.891 501.511C404.029 501.674 404.184 501.804 404.354 501.901C404.534 501.999 404.721 502.048 404.916 502.048C405.119 502.048 405.311 501.999 405.49 501.901C405.669 501.804 405.823 501.674 405.954 501.511C406.092 501.34 406.198 501.145 406.271 500.925C406.352 500.697 406.393 500.457 406.393 500.205V492.526ZM408.419 498.898C408.419 499.533 408.334 500.107 408.163 500.62C408 501.132 407.744 501.617 407.394 502.072C407.036 502.528 406.653 502.866 406.247 503.085C405.848 503.313 405.404 503.427 404.916 503.427C404.525 503.427 404.159 503.317 403.817 503.098C403.484 502.886 403.199 502.597 402.963 502.231V503H400.717V501.645H401.388V485.971H400.717V484.604H403.463V489.902C403.667 489.69 403.891 489.536 404.135 489.438C404.379 489.332 404.639 489.279 404.916 489.279C405.404 489.279 405.848 489.397 406.247 489.633C406.653 489.861 407.036 490.199 407.394 490.646C408.078 491.534 408.419 492.591 408.419 493.82V498.898Z" fill="white"/>
<circle cx="232" cy="245" r="129.5" stroke="white" stroke-width="5"/>
<circle cx="232" cy="245" r="110" stroke="white" stroke-width="2"/>
<circle cx="232" cy="245" r="98" stroke="white" stroke-width="14"/>
<path fill-rule="evenodd" clip-rule="evenodd" d="M232.5 465.5C231 461 229.5 451 229.5 447V292.5C229.5 274.304 215.696 248.5 192.5 248.5H15C11 248.5 4.5 247 0 245.5C4.5 244 11 242.5 15 242.5H192.5C210.696 242.5 229.5 217.696 229.5 196.5L229.5 55H235.5V196.5C235.5 217.696 254.304 242.5 272.5 242.5H450C454 242.5 460.5 244 465 245.5C460.5 247 449 248.5 445 248.5H272.5C249.304 248.5 235.5 274.304 235.5 292.5V447C235.5 451 234 461 232.5 465.5ZM235.5 52V18.5C235.5 14.5 234 4.5 232.5 0C231 4.5 229.5 14.5 229.5 18.5L229.5 52H235.5ZM246 244C246 251.732 239.732 258 232 258C224.268 258 218 251.732 218 244C218 236.268 224.268 230 232 230C239.732 230 246 236.268 246 244Z" fill="white"/>
<path fill-rule="evenodd" clip-rule="evenodd" d="M232 108C313.186 108 379 94.7924 379 78.5C379 62.2076 313.186 49 232 49C150.814 49 85 62.2076 85 78.5C85 94.7924 150.814 108 232 108ZM232.5 104C295.737 104 347 92.5833 347 78.5C347 64.4167 295.737 53 232.5 53C169.263 53 118 64.4167 118 78.5C118 92.5833 169.263 104 232.5 104Z" fill="white"/>
<path d="M168.5 185.5L173.5 180.5L186 197L185.5 197.5L168.5 185.5Z" fill="white"/>
<path d="M168 304.5L173 309.5L185.5 293L185 292.5L168 304.5Z" fill="white"/>
<path d="M294.5 186L289.5 181L277 197.5L277.5 198L294.5 186Z" fill="white"/>
<path d="M294 304L289 309L276.5 292.5L277 292L294 304Z" fill="white"/>
</svg>
