<svg width="436" height="381" viewBox="0 0 436 381" fill="none" xmlns="http://www.w3.org/2000/svg">
<path d="M179.58 1.44999C178.58 1.74999 188.28 41.25 189.78 42.65C190.08 42.95 190.68 42.55 191.08 41.85C191.58 41.05 190.98 36.95 189.58 31.85C188.28 27.15 185.98 18.75 184.58 13.25C181.58 1.94999 181.18 0.849993 179.58 1.44999Z" fill="white"/>
<path d="M257.78 1.8501C257.48 2.6501 254.98 11.5501 252.28 21.7501C247.78 38.6501 247.18 42.7501 249.08 42.7501C250.48 42.7501 260.38 2.5501 259.28 1.4501C258.58 0.750107 258.08 0.850107 257.78 1.8501Z" fill="white"/>
<path d="M197.08 39.45C174.213 71.05 163.113 87.1167 163.78 87.65C164.28 88.15 166.78 89.75 169.38 91.15L174.08 93.85L184.38 79.95C190.08 72.25 200.48 58.05 207.48 48.35C214.58 38.65 220.58 30.75 220.98 30.85C221.38 30.85 231.28 44.25 242.98 60.55C254.68 76.85 264.88 91.05 265.68 92.05C266.98 93.75 267.28 93.75 272.38 91.15C275.28 89.75 277.78 88.35 277.98 88.25C278.58 87.75 221.08 8.75 220.18 8.75C219.68 8.75 209.28 22.55 197.08 39.45Z" fill="white"/>
<path d="M142.78 16.65C142.38 17.25 142.78 19.05 143.58 20.65C145.38 24.05 170.28 67.05 170.78 67.65C171.08 67.95 171.68 67.65 172.18 67.15C172.88 66.45 168.38 57.75 159.08 41.65C151.28 28.25 144.58 16.85 144.18 16.45C143.78 15.95 143.08 16.05 142.78 16.65Z" fill="white"/>
<path d="M202.18 20.75C202.18 22.95 202.68 24.75 203.18 24.75C203.78 24.75 204.18 22.95 204.18 20.75C204.18 18.55 203.78 16.75 203.18 16.75C202.68 16.75 202.18 18.55 202.18 20.75Z" fill="white"/>
<path d="M236.88 17.4501C235.78 18.4501 236.08 25.7501 237.18 25.7501C237.78 25.7501 238.18 24.4501 238.18 22.8501C238.18 21.2501 238.48 19.2501 238.78 18.3501C239.38 16.7501 238.08 16.1501 236.88 17.4501Z" fill="white"/>
<path d="M280.28 41.35C270.38 58.55 266.38 66.35 267.08 67.05C267.68 67.65 268.28 67.95 268.48 67.65C269.48 66.45 297.18 17.75 297.18 17.35C297.18 16.95 296.58 16.75 295.88 16.75C295.08 16.75 288.08 27.85 280.28 41.35Z" fill="white"/>
<path d="M168.18 26.65C168.18 27.95 179.28 54.15 180.28 55.15C182.48 57.55 180.78 51.85 175.48 39.25C170.68 27.55 168.18 23.35 168.18 26.65Z" fill="white"/>
<path d="M264.98 39.45C257.78 56.85 257.78 56.75 258.98 56.75C259.48 56.75 260.98 54.35 262.18 51.45C270.58 32.05 272.98 25.75 271.88 25.75C271.18 25.75 268.08 31.95 264.98 39.45Z" fill="white"/>
<path fill-rule="evenodd" clip-rule="evenodd" d="M214.58 72.95C217.68 53.15 220.18 36.35 220.28 35.55C220.48 31.65 222.48 42.75 227.28 74.05L232.58 108.75L229.38 112.05C226.08 115.45 226.08 116.75 229.28 116.75C232.28 116.75 240.48 120.75 245.08 124.45C250.28 128.75 254.48 135.15 256.78 142.15C257.68 144.95 258.58 147.45 258.78 147.65C259.08 147.95 260.68 146.65 262.58 144.85L265.88 141.65L294.88 146.25L296.381 146.483C312.582 148.994 320.368 150.201 324 150.497L333.68 152.15C336.104 152.66 337.846 152.988 337.863 153.385C337.897 154.233 330.06 155.4 304.18 159.35C270.188 164.5 265.892 165.381 263.584 163.635C262.979 163.177 262.511 162.539 261.68 161.75L258.38 158.55L257.68 161.85C254.78 175.15 242.48 187.45 229.38 190.25L225.98 190.95L229.28 194.35L232.58 197.75L227.28 232.55C221.88 267.75 221.18 272.05 220.68 271.55C220.48 271.35 217.78 254.85 214.68 234.85L209.08 198.45L212.08 195.35C213.78 193.55 215.18 191.85 215.18 191.55C215.18 191.15 213.68 190.55 211.98 190.25C199.38 187.45 187.68 175.95 184.18 162.85L183.08 158.45L179.68 161.75C178.841 162.568 178.372 163.223 177.758 163.688C175.446 165.439 171.085 164.487 137.18 159.35C104.88 154.35 101.08 153.75 102.68 153.15C103.223 152.969 116.847 150.826 134.017 148.125C135.835 147.839 137.694 147.547 139.58 147.25L175.48 141.65L179.28 145.35L182.98 148.95L184.18 143.75C185.78 136.95 192.08 127.65 198.18 123.25C202.38 120.15 204.98 119.05 214.08 116.15C215.08 115.85 214.58 114.75 212.28 112.35L208.98 108.95L214.58 72.95ZM331 151C331.1 151 331.392 150.997 331.906 150.991C333.955 150.967 339.525 150.903 350.48 150.85C369.98 150.75 373.18 150.55 373.18 149.25C373.18 147.95 369.88 147.75 349.68 147.75C346.852 147.75 344.362 147.745 342.17 147.741C328.704 147.714 326.5 147.71 326.5 149C326.5 149.359 327 150 327 150C327 150 327.217 150.408 328 150.669C328.783 150.931 331 151 331 151Z" fill="white"/>
<path d="M110.78 41.55C110.48 42.05 120.78 52.85 133.58 65.65C149.18 81.25 157.18 88.55 157.68 87.75C158.18 86.95 150.58 78.65 135.58 63.65C122.98 51.05 112.38 40.75 111.98 40.75C111.58 40.75 111.08 41.15 110.78 41.55Z" fill="white"/>
<path d="M303.88 63.05C291.38 75.25 281.08 85.85 281.18 86.45C281.18 87.15 281.78 87.75 282.48 87.75C284.18 87.75 329.38 42.35 328.58 41.45C328.18 41.05 327.58 40.75 327.28 40.75C326.98 40.85 316.38 50.85 303.88 63.05Z" fill="white"/>
<path d="M138.18 43.8501C138.18 45.3501 163.18 77.7501 164.38 77.7501C165.98 77.7501 165.18 76.4501 152.18 59.3501C140.28 43.6501 138.18 41.3501 138.18 43.8501Z" fill="white"/>
<path d="M288.28 59.75C276.08 75.75 274.08 78.85 275.98 78.75C276.48 78.65 288.78 63.05 301.48 46.25C302.48 44.95 302.78 43.65 302.28 43.35C301.78 42.95 295.48 50.45 288.28 59.75Z" fill="white"/>
<path d="M195.88 79.25C183.48 96.35 182.28 98.35 183.88 99.45C184.78 100.15 185.88 100.75 186.18 100.75C186.48 100.75 192.08 93.55 198.58 84.75C209.78 69.65 210.28 68.65 209.98 64.55L209.68 60.25L195.88 79.25Z" fill="white"/>
<path d="M231.38 65.2501C231.78 69.7501 232.88 71.7501 242.58 84.7501C248.48 92.7501 253.78 99.3501 254.48 99.5501C255.18 99.6501 256.48 99.2501 257.38 98.5501C258.78 97.3501 257.58 95.3501 246.58 80.2501C236.047 65.9168 230.98 60.9168 231.38 65.2501Z" fill="white"/>
<path d="M113.28 68.55C113.68 69.65 149.78 97.75 150.68 97.75C150.98 97.75 151.18 97.15 151.08 96.45C151.08 95.35 116.78 68.75 114.18 67.95C113.48 67.65 113.08 67.95 113.28 68.55Z" fill="white"/>
<path d="M308.68 80.85C290.28 94.95 286.98 97.75 288.98 97.75C290.58 97.75 327.18 69.75 327.18 68.65C327.18 68.15 326.88 67.75 326.48 67.75C325.98 67.75 318.08 73.65 308.68 80.85Z" fill="white"/>
<path d="M86.68 72.85C86.28 73.45 86.18 74.05 86.28 74.15C86.48 74.35 99.48 81.75 115.08 90.65C133.68 101.35 143.78 106.55 144.38 105.95C145.08 105.25 144.58 104.45 143.08 103.45C139.08 100.95 88.08 71.75 87.68 71.75C87.48 71.75 86.98 72.25 86.68 72.85Z" fill="white"/>
<path d="M323.18 87.7501C308.08 96.5501 295.28 103.85 294.68 104.15C294.08 104.35 294.08 104.95 294.78 105.65C295.58 106.55 302.98 102.75 324.28 90.5501C349.78 75.9501 354.28 72.8501 351.48 72.0501C351.08 71.9501 338.28 79.0501 323.18 87.7501Z" fill="white"/>
<path d="M160.18 93.0499C160.18 93.5499 168.18 108.35 175.38 120.95L180.28 129.75L184.28 124.75C186.48 121.95 190.08 118.45 192.18 116.85L196.18 113.95L181.38 105.25C173.28 100.45 165.18 95.6499 163.48 94.5499C161.68 93.4499 160.18 92.7499 160.18 93.0499Z" fill="white"/>
<path d="M277.68 95.65C276.08 96.65 268.38 100.95 260.68 105.25C252.98 109.55 246.48 113.25 246.28 113.35C246.08 113.55 248.08 115.65 250.68 117.95C253.28 120.25 256.78 123.95 258.28 126.05L260.98 129.85L271.58 112.15C277.38 102.45 282.18 94.35 282.18 94.15C282.18 93.35 280.58 93.85 277.68 95.65Z" fill="white"/>
<path d="M95.18 98.55C95.18 99.15 131.78 114.95 135.68 115.95C136.28 116.15 136.78 115.75 136.78 115.25C136.88 114.65 133.48 112.85 129.28 111.15C106.547 101.75 95.18 97.55 95.18 98.55Z" fill="white"/>
<path d="M322.78 106.35C302.18 114.95 301.48 115.35 302.38 116.35C303.18 117.15 345.18 99.7501 345.18 98.6501C345.18 97.0501 342.78 97.8501 322.78 106.35Z" fill="white"/>
<path d="M151.88 101.95C140.38 117.45 122.18 142.95 122.18 143.65C122.18 144.05 126.08 143.65 130.88 142.85L139.58 141.25L150.88 125.85L162.18 110.45L158.98 104.65C157.18 101.35 155.38 98.75 154.98 98.75C154.58 98.75 153.18 100.25 151.88 101.95Z" fill="white"/>
<path d="M282.68 104.05C280.98 106.95 279.58 109.55 279.38 109.95C279.18 110.35 296.78 135.65 300.78 140.55C301.28 141.25 316.28 142.95 316.88 142.45C317.38 141.95 287.68 100.25 286.18 99.2499C285.88 99.0499 284.28 101.25 282.68 104.05Z" fill="white"/>
<path d="M71.38 109.95C71.68 110.75 84.48 114.55 100.48 118.85C124.08 125.05 129.38 126.15 130.28 125.05C130.88 124.35 131.18 123.75 130.78 123.75C130.48 123.75 117.38 120.35 101.78 116.25C86.18 112.15 72.88 108.75 72.18 108.75C71.58 108.75 71.18 109.35 71.38 109.95Z" fill="white"/>
<path d="M340.68 115.25C327.48 118.75 314.98 122.15 312.98 122.75C309.08 123.85 307.78 125.75 310.98 125.75C314.88 125.65 367.58 111.15 367.98 109.95C368.58 108.05 366.08 108.55 340.68 115.25Z" fill="white"/>
<path d="M273.28 120.65C271.58 123.75 271.98 124.85 277.18 131.85C281.08 137.25 282.68 138.55 285.38 139.05C287.18 139.25 288.78 139.35 288.98 139.25C289.18 139.05 285.88 134.35 281.78 128.75C275.08 119.65 274.18 118.85 273.28 120.65Z" fill="white"/>
<path d="M159.78 128.75C156.08 133.85 153.28 138.15 153.58 138.45C153.78 138.75 155.28 138.65 156.88 138.25C158.78 137.85 161.18 135.55 164.48 131.25C169.68 124.15 169.78 123.95 167.88 121.35C166.68 119.75 165.88 120.45 159.78 128.75Z" fill="white"/>
<path d="M86.78 132.65C87.88 133.85 120.98 138.25 121.88 137.35C122.28 137.05 122.28 136.55 122.08 136.35C121.58 135.85 91.38 131.75 88.08 131.75C86.68 131.75 86.18 132.15 86.78 132.65Z" fill="white"/>
<path d="M342.18 132.75C339.18 133.25 332.28 134.15 326.88 134.75C320.08 135.65 317.38 136.35 318.08 137.05C318.78 137.75 324.18 137.35 335.38 135.95C344.38 134.75 352.28 133.75 352.98 133.75C353.68 133.75 354.18 133.25 354.18 132.75C354.18 131.65 350.18 131.65 342.18 132.75Z" fill="white"/>
<path d="M66.18 149.25C66.18 150.55 69.18 150.75 89.38 150.55C106.78 150.35 112.58 149.95 112.98 148.95C113.28 148.05 108.18 147.75 89.78 147.75C69.38 147.75 66.18 147.95 66.18 149.25Z" fill="white"/>
<path d="M87.08 191.35C75.18 207.85 61.38 226.95 56.38 233.85C51.28 240.85 47.18 246.85 47.18 247.15C47.18 247.45 83.88 247.75 128.78 247.75H210.48L209.78 243.15C209.48 240.55 209.18 237.65 209.18 236.65C209.18 234.85 206.78 234.75 140.68 234.75C102.98 234.75 72.18 234.45 72.28 233.95C72.28 233.55 83.68 217.75 97.58 198.75C111.58 179.75 122.68 163.95 122.28 163.55C121.98 163.15 118.78 162.55 115.18 162.15L108.68 161.55L87.08 191.35Z" fill="white"/>
<path d="M322.48 162.45C320.08 162.65 318.18 163.25 318.18 163.75C318.18 164.25 322.38 170.45 327.48 177.45C356.98 217.95 368.18 233.65 368.18 234.15C368.18 234.45 337.58 234.75 300.18 234.75C234.58 234.75 232.18 234.85 232.18 236.65C232.18 237.65 231.88 240.55 231.58 243.15L230.88 247.75H394.18L380.88 229.45C373.58 219.45 361.58 202.95 354.28 192.75C346.88 182.55 338.78 171.45 336.38 167.95C331.48 161.35 332.18 161.65 322.48 162.45Z" fill="white"/>
<path d="M93.18 165.45C87.68 166.25 86.08 166.85 86.68 167.75C87.08 168.35 88.28 168.55 89.48 168.35C90.68 168.05 93.78 167.55 96.48 167.25C99.08 166.95 101.18 166.25 101.18 165.65C101.18 164.75 97.98 164.65 93.18 165.45Z" fill="white"/>
<path d="M111.68 194.95C99.58 211.55 89.58 225.55 89.38 225.95C89.18 226.35 115.88 226.75 148.68 226.75C202.68 226.75 208.38 226.55 207.78 225.15C207.48 224.25 207.18 223.15 207.18 222.65C207.18 222.15 185.08 221.75 152.68 221.75C122.68 221.75 98.18 221.55 98.18 221.15C98.18 220.85 107.18 208.45 118.18 193.55C137.68 167.25 139.08 164.85 134.68 164.75C134.18 164.75 123.78 178.35 111.68 194.95Z" fill="white"/>
<path d="M303.98 165.55C302.68 166.15 306.08 171.35 322.18 193.25C333.18 208.05 342.08 220.55 342.08 220.95C342.18 221.45 317.88 221.75 288.18 221.75C256.08 221.75 234.18 222.15 234.18 222.65C234.18 223.15 233.88 224.25 233.58 225.15C232.98 226.55 238.68 226.75 292.58 226.75C325.38 226.75 352.18 226.55 352.18 226.25C352.18 224.85 307.78 164.75 306.78 164.85C306.18 164.85 304.98 165.15 303.98 165.55Z" fill="white"/>
<path d="M338.68 165.65C339.88 166.85 352.18 168.85 353.58 167.95C355.18 167.05 351.68 165.95 344.68 165.25C339.58 164.75 337.98 164.85 338.68 165.65Z" fill="white"/>
<path d="M170.18 195.55C164.48 205.25 159.68 213.65 159.38 214.05C159.18 214.55 160.48 214.15 162.28 213.15C169.18 209.65 194.68 195.45 195.88 194.55C196.88 193.75 196.18 192.85 193.38 190.75C191.28 189.25 187.58 185.75 185.08 182.85L180.58 177.75L170.18 195.55Z" fill="white"/>
<path d="M256.48 183.15C254.68 185.55 251.28 188.85 248.78 190.35C246.28 191.95 244.28 193.55 244.18 193.85C244.18 194.15 252.48 199.45 262.68 205.55C272.88 211.65 281.18 216.35 281.18 215.95C281.18 215.55 277.68 208.95 273.38 201.25C262.58 181.95 260.78 178.75 260.18 178.75C259.88 178.85 258.28 180.75 256.48 183.15Z" fill="white"/>
<path d="M79.28 185.15C75.18 186.25 71.68 187.85 71.38 188.45C70.88 190.15 72.08 190.05 79.58 188.15C85.68 186.55 88.18 185.25 88.18 183.65C88.18 182.917 85.2133 183.417 79.28 185.15Z" fill="white"/>
<path d="M353.28 185.35C355.48 187.55 366.18 190.15 367.48 188.85C368.28 188.05 365.88 186.883 360.28 185.35C357.28 184.45 354.08 183.75 353.28 183.75C351.88 183.75 351.88 183.95 353.28 185.35Z" fill="white"/>
<path d="M112.28 254.15C108.68 257.95 111.78 258.65 115.48 254.85C118.28 252.05 118.48 251.75 116.58 251.75C115.48 251.75 113.48 252.85 112.28 254.15Z" fill="white"/>
<path d="M139.38 252.95C138.08 254.25 137.78 256.75 138.78 256.75C139.58 256.75 142.08 253.55 142.18 252.45C142.18 251.35 140.68 251.65 139.38 252.95Z" fill="white"/>
<path d="M150.38 265.75C145.88 273.55 142.18 280.25 142.18 280.75C142.18 281.35 142.78 281.75 143.48 281.75C144.48 281.65 161.18 254.05 161.18 252.35C161.18 252.05 160.58 251.75 159.88 251.75C159.18 251.75 154.88 258.05 150.38 265.75Z" fill="white"/>
<path d="M176.38 253.45C173.18 259.45 168.08 272.85 168.48 273.95C168.88 275.15 173.18 266.75 177.28 256.45C179.08 252.05 178.28 249.65 176.38 253.45Z" fill="white"/>
<path d="M190.38 253.45C188.48 257.25 178.98 294.85 179.58 296.35C179.98 297.25 180.48 297.85 180.78 297.55C181.28 296.95 193.18 253.85 193.18 252.45C193.18 251.05 191.28 251.75 190.38 253.45Z" fill="white"/>
<path d="M205.68 252.95C205.48 253.65 204.58 260.05 203.68 267.25C202.78 274.35 201.98 280.75 201.88 281.25C201.78 281.85 202.18 282.45 202.68 282.65C203.88 283.15 208.18 252.85 206.98 252.15C206.48 251.85 205.98 252.25 205.68 252.95Z" fill="white"/>
<path d="M233.18 253.95C233.18 256.85 236.18 280.75 236.78 282.65C237.88 286.05 238.98 281.85 238.18 277.25C237.78 274.45 236.88 267.65 236.18 261.95C235.48 256.35 234.58 251.75 234.08 251.75C233.58 251.75 233.18 252.75 233.18 253.95Z" fill="white"/>
<path d="M246.18 252.65C246.18 253.55 256.88 294.25 257.78 296.65C258.08 297.65 258.58 297.75 259.28 297.05C259.98 296.35 258.78 289.95 255.18 276.25C252.38 265.35 249.68 255.45 249.18 254.15C248.28 251.85 246.18 250.75 246.18 252.65Z" fill="white"/>
<path d="M262.18 252.85C262.18 254.25 270.18 273.05 271.28 274.15C273.18 276.25 272.08 271.85 267.98 261.95C264.28 252.95 262.18 249.55 262.18 252.85Z" fill="white"/>
<path d="M278.18 252.45C278.18 254.45 294.68 281.75 295.88 281.75C296.58 281.75 297.18 281.45 297.18 281.05C297.18 280.25 284.68 258.45 281.98 254.45C280.18 251.95 278.18 250.85 278.18 252.45Z" fill="white"/>
<path d="M298.18 252.45C298.28 253.85 300.88 256.75 302.08 256.75C303.68 256.75 303.38 255.25 301.38 253.45C299.38 251.65 298.18 251.25 298.18 252.45Z" fill="white"/>
<path d="M321.18 252.25C321.18 253.05 326.48 257.65 327.48 257.75C328.88 257.75 328.18 255.05 326.38 253.45C324.58 251.85 321.18 251.15 321.18 252.25Z" fill="white"/>
<path d="M26.39 311.34L44.07 355.67C44.7633 356.753 45.3267 357.403 45.76 357.62C45.89 357.793 47.2983 358.162 49.985 358.725V361H34.97V358.725C35.7933 358.725 36.205 358.075 36.205 356.775C36.205 356.428 36.01 355.692 35.62 354.565L32.305 345.53C31.915 344.23 30.42 343.58 27.82 343.58H16.835C14.9717 343.58 13.845 344.23 13.455 345.53L10.92 353.135C10.7467 353.655 10.66 354.305 10.66 355.085C10.66 357.338 11.9383 358.465 14.495 358.465V361H0.519989V358.465C3.33666 358.248 5.41666 356.472 6.75999 353.135L24.44 311.015L26.39 311.34ZM23.27 321.415L16.835 336.82C16.2717 337.903 15.99 338.748 15.99 339.355C15.99 340.135 16.9217 340.525 18.785 340.525H28.08C29.5533 340.525 30.29 340.243 30.29 339.68C30.29 339.247 30.0083 338.402 29.445 337.145L23.27 321.415ZM95.8323 331.945C95.8323 332.595 96.114 332.92 96.6773 332.92C98.7573 332.92 100.447 332.812 101.747 332.595C103.091 332.378 104.109 331.967 104.802 331.36C105.539 330.753 106.037 329.952 106.297 328.955C106.557 327.915 106.687 326.572 106.687 324.925C106.687 321.415 105.972 318.88 104.542 317.32C103.156 315.76 101.336 314.98 99.0823 314.98C96.9157 314.98 95.8323 315.305 95.8323 315.955V331.945ZM100.252 312.12C104.196 312.12 107.294 313.03 109.547 314.85C111.801 316.627 112.927 319.205 112.927 322.585C112.927 323.798 112.711 324.947 112.277 326.03C111.887 327.113 111.367 328.11 110.717 329.02C110.067 329.93 109.331 330.775 108.507 331.555C107.727 332.292 106.947 332.942 106.167 333.505V333.765C107.857 334.025 109.439 334.545 110.912 335.325C112.386 336.062 113.664 337.015 114.747 338.185C115.874 339.312 116.741 340.633 117.347 342.15C117.997 343.623 118.322 345.205 118.322 346.895C118.322 348.845 117.954 350.708 117.217 352.485C116.481 354.218 115.441 355.735 114.097 357.035C112.754 358.335 111.129 359.375 109.222 360.155C107.316 360.892 105.171 361.26 102.787 361.26C102.311 361.26 101.726 361.26 101.032 361.26C100.382 361.26 99.7757 361.238 99.2123 361.195C98.649 361.195 97.9557 361.195 97.1323 361.195C96.3523 361.195 95.464 361.173 94.4673 361.13C93.4707 361.087 92.4523 361.065 91.4123 361.065C90.4157 361.065 89.3757 361.043 88.2923 361H84.1323V358.725C87.079 358.725 88.5523 358.378 88.5523 357.685V316.28C88.5523 315.023 86.9707 314.395 83.8073 314.395V312.12H100.252ZM96.6773 335.715C96.114 335.715 95.8323 336.04 95.8323 336.69V355.41C95.8323 356.32 96.2007 357.057 96.9373 357.62C97.7173 358.183 98.9523 358.465 100.642 358.465H102.462C105.452 358.465 107.597 357.815 108.897 356.515C110.197 355.215 110.847 353.005 110.847 349.885C110.847 348.022 110.609 346.245 110.132 344.555C109.656 342.822 108.919 341.305 107.922 340.005C106.926 338.705 105.647 337.665 104.087 336.885C102.527 336.105 100.686 335.715 98.5623 335.715H96.6773ZM163.609 312.12V314.395C162.829 314.395 162.439 314.807 162.439 315.63C162.439 316.237 162.807 317.233 163.544 318.62L173.424 336.69L182.979 319.725C183.456 318.902 183.846 318.208 184.149 317.645C184.452 317.038 184.604 316.54 184.604 316.15C184.604 315.5 184.322 315.045 183.759 314.785C183.239 314.525 182.567 314.395 181.744 314.395V312.12H195.264V314.395C193.444 314.395 192.079 314.612 191.169 315.045C190.259 315.435 189.501 316.15 188.894 317.19L177.974 335.52C177.237 336.777 176.739 338.315 176.479 340.135C176.219 341.955 176.089 343.645 176.089 345.205V355.735C176.089 357.728 177.649 358.725 180.769 358.725V361H163.934V358.725C167.011 358.725 168.549 357.642 168.549 355.475V345.4C168.549 343.883 168.419 342.367 168.159 340.85C167.942 339.29 167.357 337.752 166.404 336.235L156.849 320.57C156.112 319.4 155.419 318.425 154.769 317.645C154.119 316.822 153.491 316.172 152.884 315.695C152.321 315.218 151.736 314.893 151.129 314.72C150.566 314.503 149.959 314.395 149.309 314.395V312.12H163.609ZM253.157 311.86C257.36 311.86 261.065 312.423 264.272 313.55C267.522 314.677 270.252 316.302 272.462 318.425C274.672 320.548 276.34 323.148 277.467 326.225C278.637 329.258 279.222 332.703 279.222 336.56C279.222 340.373 278.593 343.797 277.337 346.83C276.123 349.82 274.368 352.377 272.072 354.5C269.818 356.58 267.067 358.183 263.817 359.31C260.61 360.437 257.013 361 253.027 361H230.017V358.725C232.963 358.725 234.437 357.577 234.437 355.28V318.165C234.437 315.652 232.877 314.395 229.757 314.395V312.12C230.363 312.207 230.97 312.293 231.577 312.38C232.227 312.423 232.898 312.445 233.592 312.445C236.625 312.445 239.832 312.358 243.212 312.185C246.592 311.968 249.907 311.86 253.157 311.86ZM246.332 314.98C245.422 314.98 244.663 315.023 244.057 315.11C243.45 315.197 242.973 315.392 242.627 315.695C242.28 315.998 242.042 316.453 241.912 317.06C241.782 317.623 241.717 318.425 241.717 319.465V352.55C241.717 353.85 241.825 354.89 242.042 355.67C242.258 356.407 242.627 356.97 243.147 357.36C243.667 357.75 244.338 357.988 245.162 358.075C245.985 358.162 247.025 358.205 248.282 358.205H253.677C259.527 358.205 263.838 356.472 266.612 353.005C269.428 349.495 270.837 344.013 270.837 336.56C270.837 329.237 269.233 323.82 266.027 320.31C262.863 316.757 258.335 314.98 252.442 314.98H246.332ZM342.227 313.81C339.28 313.81 336.724 314.352 334.557 315.435C332.39 316.518 330.592 318.013 329.162 319.92C327.732 321.783 326.649 324.015 325.912 326.615C325.219 329.172 324.872 331.945 324.872 334.935C324.872 338.142 325.284 341.218 326.107 344.165C326.93 347.068 328.165 349.647 329.812 351.9C331.459 354.153 333.495 355.952 335.922 357.295C338.349 358.638 341.187 359.31 344.437 359.31C347.557 359.31 350.2 358.747 352.367 357.62C354.534 356.45 356.289 354.89 357.632 352.94C359.019 350.947 360.015 348.65 360.622 346.05C361.229 343.407 361.532 340.59 361.532 337.6C361.532 333.96 361.055 330.688 360.102 327.785C359.192 324.838 357.892 322.347 356.202 320.31C354.512 318.23 352.475 316.627 350.092 315.5C347.709 314.373 345.087 313.81 342.227 313.81ZM342.877 311.275C346.907 311.275 350.569 311.838 353.862 312.965C357.199 314.048 360.037 315.652 362.377 317.775C364.76 319.855 366.602 322.412 367.902 325.445C369.245 328.435 369.917 331.815 369.917 335.585C369.917 339.182 369.289 342.583 368.032 345.79C366.819 348.997 365.042 351.813 362.702 354.24C360.362 356.667 357.524 358.595 354.187 360.025C350.85 361.412 347.08 362.105 342.877 362.105C338.327 362.105 334.384 361.39 331.047 359.96C327.754 358.53 325.002 356.623 322.792 354.24C320.625 351.857 319.022 349.127 317.982 346.05C316.942 342.973 316.422 339.767 316.422 336.43C316.422 333.267 316.964 330.19 318.047 327.2C319.13 324.167 320.755 321.48 322.922 319.14C325.089 316.757 327.819 314.85 331.112 313.42C334.449 311.99 338.37 311.275 342.877 311.275ZM422.797 311.015C424.183 311.015 425.657 311.145 427.217 311.405C428.82 311.665 430.748 312.055 433.002 312.575L432.677 320.96H430.467C429.99 319.27 429.47 317.948 428.907 316.995C428.343 315.998 427.693 315.283 426.957 314.85C426.263 314.373 425.462 314.092 424.552 314.005C423.685 313.875 422.688 313.81 421.562 313.81C419.308 313.81 417.575 314.352 416.362 315.435C415.148 316.518 414.542 318.252 414.542 320.635C414.542 321.632 414.607 322.498 414.737 323.235C414.91 323.972 415.3 324.752 415.907 325.575C416.513 326.355 417.423 327.265 418.637 328.305C419.893 329.345 421.605 330.667 423.772 332.27C425.722 333.743 427.325 335.087 428.582 336.3C429.882 337.513 430.922 338.727 431.702 339.94C432.482 341.11 433.023 342.345 433.327 343.645C433.63 344.945 433.782 346.397 433.782 348C433.782 349.517 433.5 351.098 432.937 352.745C432.373 354.392 431.442 355.908 430.142 357.295C428.885 358.682 427.217 359.83 425.137 360.74C423.057 361.65 420.5 362.105 417.467 362.105C416.687 362.105 415.928 362.083 415.192 362.04C414.498 361.997 413.762 361.888 412.982 361.715C412.202 361.542 411.335 361.303 410.382 361C409.428 360.697 408.323 360.285 407.067 359.765L408.107 350.015L410.512 350.21C410.468 350.427 410.447 350.622 410.447 350.795C410.447 350.925 410.447 351.098 410.447 351.315C410.447 352.962 410.663 354.305 411.097 355.345C411.573 356.385 412.18 357.208 412.917 357.815C413.697 358.378 414.585 358.768 415.582 358.985C416.622 359.202 417.705 359.31 418.832 359.31C420.435 359.31 421.778 359.072 422.862 358.595C423.988 358.075 424.898 357.425 425.592 356.645C426.285 355.865 426.783 354.998 427.087 354.045C427.39 353.048 427.542 352.052 427.542 351.055C427.542 349.972 427.368 348.975 427.022 348.065C426.718 347.155 426.198 346.245 425.462 345.335C424.768 344.425 423.858 343.472 422.732 342.475C421.648 341.435 420.305 340.265 418.702 338.965C416.795 337.405 415.17 336.04 413.827 334.87C412.527 333.7 411.465 332.552 410.642 331.425C409.862 330.255 409.277 329.02 408.887 327.72C408.54 326.42 408.367 324.882 408.367 323.105C408.367 321.285 408.713 319.638 409.407 318.165C410.1 316.648 411.075 315.37 412.332 314.33C413.632 313.247 415.148 312.423 416.882 311.86C418.658 311.297 420.63 311.015 422.797 311.015Z" fill="white"/>
</svg>
