<svg width="344" height="542" viewBox="0 0 344 542" fill="none" xmlns="http://www.w3.org/2000/svg">
<path d="M137.088 521.824L137.053 521.999C136.773 522.139 136.213 522.454 135.373 522.944C134.557 523.411 133.437 524.064 132.013 524.904C131.803 525.021 131.57 525.172 131.313 525.359V527.984C132.037 528.101 132.702 528.252 133.308 528.439C133.938 528.626 134.522 528.847 135.058 529.104L135.898 528.229L136.773 529.034L133.588 532.534L133.238 532.359C132.748 532.102 132.27 531.857 131.803 531.624C131.337 531.414 130.8 531.251 130.193 531.134C129.167 530.924 128.28 530.819 127.533 530.819C127.253 530.819 126.973 530.842 126.693 530.889C126.413 530.912 126.133 530.947 125.853 530.994C125.9 530.877 125.947 530.784 125.993 530.714C126.04 530.621 126.087 530.551 126.133 530.504V530.539C126.297 530.282 126.425 530.072 126.518 529.909C126.635 529.746 126.705 529.652 126.728 529.629C126.892 529.419 127.207 529.139 127.673 528.789V520.319C127.673 519.969 127.487 519.386 127.113 518.569V518.079L127.428 518.394H127.638L127.673 518.429H127.778L127.883 518.464H128.023C129.867 518.464 131.943 517.694 134.253 516.154C134.37 516.574 134.522 517.029 134.708 517.519C134.895 518.009 135.152 518.557 135.478 519.164C135.782 519.701 136.062 520.202 136.318 520.669C136.598 521.112 136.855 521.497 137.088 521.824ZM132.433 521.159C132.27 520.856 132.118 520.541 131.978 520.214C131.838 519.887 131.71 519.561 131.593 519.234L131.313 519.304V523.784L133.203 522.559C133.11 522.419 132.993 522.244 132.853 522.034C132.737 521.801 132.597 521.509 132.433 521.159ZM147.095 517.694L147.305 517.799C147.258 518.616 146.92 519.304 146.29 519.864C145.683 520.401 144.971 520.669 144.155 520.669C143.081 520.669 142.323 520.342 141.88 519.689V527.809C142.09 527.926 142.358 527.984 142.685 527.984C142.708 528.007 142.813 528.054 143 528.124C143.21 528.171 143.513 528.264 143.91 528.404C144.143 528.497 144.341 528.602 144.505 528.719C144.691 528.812 144.843 528.929 144.96 529.069L145.87 527.984L146.71 528.649L143.525 532.569C141.915 531.216 140.141 530.539 138.205 530.539C137.551 530.539 137.038 530.749 136.665 531.169C136.898 530.049 137.423 529.209 138.24 528.649V520.669C138.24 520.599 138.228 520.517 138.205 520.424C138.205 520.331 138.205 520.214 138.205 520.074C138.135 519.934 138.1 519.736 138.1 519.479C137.983 519.199 137.925 519.001 137.925 518.884C137.901 518.861 137.866 518.744 137.82 518.534V518.079L138.135 518.394C138.181 518.441 138.403 518.464 138.8 518.464C139.663 518.464 140.503 518.266 141.32 517.869C142.136 517.472 142.801 516.924 143.315 516.224C144.318 517.531 145.24 518.184 146.08 518.184C146.243 518.184 146.581 518.021 147.095 517.694ZM157.256 517.694L157.466 517.799C157.419 518.616 157.081 519.304 156.451 519.864C155.844 520.401 155.132 520.669 154.316 520.669C153.242 520.669 152.484 520.342 152.041 519.689V527.809C152.251 527.926 152.519 527.984 152.846 527.984C152.869 528.007 152.974 528.054 153.161 528.124C153.371 528.171 153.674 528.264 154.071 528.404C154.304 528.497 154.502 528.602 154.666 528.719C154.852 528.812 155.004 528.929 155.121 529.069L156.031 527.984L156.871 528.649L153.686 532.569C152.076 531.216 150.302 530.539 148.366 530.539C147.712 530.539 147.199 530.749 146.826 531.169C147.059 530.049 147.584 529.209 148.401 528.649V520.669C148.401 520.599 148.389 520.517 148.366 520.424C148.366 520.331 148.366 520.214 148.366 520.074C148.296 519.934 148.261 519.736 148.261 519.479C148.144 519.199 148.086 519.001 148.086 518.884C148.062 518.861 148.027 518.744 147.981 518.534V518.079L148.296 518.394C148.342 518.441 148.564 518.464 148.961 518.464C149.824 518.464 150.664 518.266 151.481 517.869C152.297 517.472 152.962 516.924 153.476 516.224C154.479 517.531 155.401 518.184 156.241 518.184C156.404 518.184 156.742 518.021 157.256 517.694ZM162.306 529.944L159.681 532.534L156.986 529.944L159.681 527.214L162.306 529.944Z" fill="white"/>
<path d="M181.278 529.489L178.453 532.239C177.753 531.406 176.812 530.989 175.628 530.989C174.995 530.989 174.612 531.081 174.478 531.264L173.778 530.889C173.895 530.739 174.02 530.581 174.153 530.414C174.303 530.231 174.42 530.097 174.503 530.014L174.578 529.939C175.045 529.389 175.603 529.014 176.253 528.814V520.364C176.253 520.131 176.153 519.889 175.953 519.639C175.753 519.372 175.528 519.197 175.278 519.114C175.195 519.097 175.07 519.072 174.903 519.039C174.737 519.006 174.562 518.972 174.378 518.939V518.189C174.395 518.189 174.42 518.197 174.453 518.214C174.503 518.214 174.537 518.214 174.553 518.214C174.603 518.231 174.662 518.239 174.728 518.239C174.828 518.239 174.945 518.214 175.078 518.164C176.245 517.847 177.128 517.372 177.728 516.739C178.512 517.222 178.903 518.281 178.903 519.914V528.689C178.953 528.706 178.995 528.722 179.028 528.739C179.078 528.756 179.17 528.789 179.303 528.839H179.278C179.395 528.872 179.52 528.939 179.653 529.039C179.787 529.139 179.945 529.256 180.128 529.389L180.653 528.814L181.278 529.489ZM190.765 529.639L188.34 532.264C187.257 531.381 186.099 530.939 184.865 530.939C183.415 530.939 182.149 531.364 181.065 532.214C181.132 531.631 181.174 531.056 181.19 530.489C181.224 529.922 181.249 529.322 181.265 528.689L181.29 527.089C181.324 526.406 181.482 525.897 181.765 525.564C182.049 525.264 182.499 524.981 183.115 524.714C183.182 524.681 183.274 524.647 183.39 524.614C183.524 524.564 183.69 524.497 183.89 524.414L184.165 524.314H184.14L184.19 524.289H184.24H184.265C184.365 524.289 184.665 524.189 185.165 523.989C186.199 523.589 186.715 523.172 186.715 522.739V519.164L186.515 519.114C185.882 519.964 185.099 520.389 184.165 520.389C183.382 520.389 182.707 520.206 182.14 519.839C181.357 519.356 180.965 518.647 180.965 517.714C181.332 517.964 181.774 518.089 182.29 518.089C183.174 518.089 183.99 517.614 184.74 516.664C185.124 517.281 185.799 517.756 186.765 518.089C187.549 518.356 188.349 518.489 189.165 518.489H189.215L189.265 518.464H189.44H189.465H189.64L189.665 518.439H189.99C189.624 518.806 189.44 519.147 189.44 519.464V522.964C189.44 523.064 189.565 523.364 189.815 523.864C188.782 523.964 187.532 524.256 186.065 524.739C184.399 525.322 183.365 525.856 182.965 526.339C182.815 526.522 182.724 526.722 182.69 526.939H182.715V528.939C182.715 528.972 182.707 529.014 182.69 529.064C182.69 529.114 182.69 529.181 182.69 529.264C182.69 529.314 182.682 529.372 182.665 529.439C182.665 529.506 182.665 529.581 182.665 529.664C182.649 529.764 182.64 529.856 182.64 529.939C182.64 530.006 182.64 530.064 182.64 530.114C183.74 528.914 184.965 528.314 186.315 528.314C187.432 528.314 188.532 528.714 189.615 529.514L190.065 529.014L190.765 529.639ZM194.194 524.689L192.319 526.689L190.394 524.689L192.319 522.689L194.194 524.689ZM194.194 530.239L192.319 532.139L190.394 530.239L192.319 528.214L194.194 530.239ZM204.068 518.289L204.193 518.414C204.127 518.931 203.827 519.356 203.293 519.689V523.264L203.543 523.914C202.977 523.914 202.235 523.989 201.318 524.139L200.618 524.364V524.389C200.935 524.556 201.577 524.639 202.543 524.639C202.81 524.639 202.952 524.631 202.968 524.614H203.643L203.293 525.339V529.914L203.668 530.739C203.585 530.772 203.518 530.797 203.468 530.814C203.435 530.814 203.393 530.814 203.343 530.814C203.16 530.814 203.01 530.814 202.893 530.814C202.777 530.797 202.677 530.764 202.593 530.714C202.377 530.714 202.243 530.706 202.193 530.689H202.168C200.685 530.689 199.16 531.164 197.593 532.114C197.16 531.731 196.743 531.431 196.343 531.214C195.96 531.014 195.568 530.914 195.168 530.914H195.118C195.085 530.931 195.018 530.939 194.918 530.939C194.785 530.956 194.627 530.989 194.443 531.039C194.277 531.072 194.093 531.156 193.893 531.289C193.91 530.756 194.327 530.131 195.143 529.414V525.489C195.11 525.289 195.052 525.047 194.968 524.764C194.968 524.747 194.96 524.697 194.943 524.614C194.943 524.514 194.943 524.456 194.943 524.439L195.143 524.614H195.318L195.368 524.639H195.493C196.56 524.639 197.352 524.556 197.868 524.389C197.585 524.289 197.193 524.197 196.693 524.114C196.21 524.031 195.618 523.956 194.918 523.889L195.143 523.039L195.118 519.739V519.789L195.068 519.639C195.035 519.572 195.018 519.514 195.018 519.464L194.993 519.439V519.414C194.91 519.264 194.843 519.131 194.793 519.014C194.76 518.897 194.727 518.806 194.693 518.739C195.877 518.722 197.01 518.572 198.093 518.289C199.41 517.956 200.443 517.522 201.193 516.989L201.343 517.139L201.368 517.189C201.368 517.206 201.393 517.239 201.443 517.289L201.468 517.314C201.518 517.364 201.577 517.439 201.643 517.539C201.727 517.622 201.81 517.706 201.893 517.789C201.977 517.872 202.052 517.956 202.118 518.039C202.202 518.106 202.26 518.156 202.293 518.189H202.268C202.518 518.356 202.885 518.439 203.368 518.439C203.452 518.406 203.552 518.381 203.668 518.364C203.785 518.347 203.918 518.322 204.068 518.289ZM200.493 529.889L200.543 529.864H200.593V525.489C200.377 525.439 199.952 525.256 199.318 524.939C199.118 525.022 198.985 525.064 198.918 525.064C198.802 525.147 198.71 525.189 198.643 525.189C198.593 525.206 198.527 525.222 198.443 525.239C198.377 525.256 198.302 525.281 198.218 525.314C198.152 525.347 198.093 525.372 198.043 525.389C198.01 525.406 197.952 525.431 197.868 525.464V529.139C198.452 529.322 198.968 529.572 199.418 529.889V529.864L199.493 529.914C199.51 529.964 199.577 530.014 199.693 530.064C200.01 529.947 200.26 529.889 200.443 529.889H200.493ZM199.818 523.539C199.952 523.506 200.085 523.464 200.218 523.414C200.352 523.347 200.477 523.289 200.593 523.239V520.214C200.36 520.131 200.193 520.031 200.093 519.914C199.86 519.897 199.485 519.622 198.968 519.089C198.918 519.106 198.86 519.122 198.793 519.139C198.727 519.139 198.66 519.156 198.593 519.189C198.46 519.222 198.335 519.256 198.218 519.289C198.118 519.306 198.052 519.322 198.018 519.339C197.968 519.356 197.927 519.364 197.893 519.364H197.868V523.214L198.568 523.564H198.543H198.643L198.668 523.589C198.685 523.606 198.702 523.614 198.718 523.614C198.735 523.614 198.76 523.622 198.793 523.639C198.843 523.672 198.902 523.706 198.968 523.739C199.052 523.756 199.16 523.797 199.293 523.864C199.41 523.764 199.56 523.664 199.743 523.564C199.777 523.547 199.785 523.547 199.768 523.564C199.768 523.564 199.785 523.556 199.818 523.539Z" fill="white"/>
<path d="M51.1899 492.194L45.5226 500.11H45.4326L45.3427 500.2H44.9828L44.8929 500.29H44.623L44.533 500.38H43.8134C42.3741 500.38 40.8748 499.72 39.3155 498.401C38.7158 497.801 38.176 497.231 37.6963 496.692C37.2165 496.212 36.8267 495.672 36.5268 495.072L30.4097 500.29H29.8699C27.2912 500.29 24.7723 499.54 22.3135 498.041C21.1141 497.201 20.1245 496.302 19.3449 495.342C18.6252 494.383 18.1155 493.303 17.8156 492.104C17.5757 491.324 17.4558 490.215 17.4558 488.775C17.4558 484.037 20.1845 479.809 25.6419 476.091C25.522 475.911 25.2521 475.611 24.8323 475.192C24.4725 474.712 23.9028 474.052 23.1231 473.213C22.6434 472.673 22.1036 472.073 21.5039 471.413C20.9641 470.694 20.3344 469.914 19.6148 469.075H19.7047C19.105 468.715 18.1755 467.845 16.916 466.466C21.234 464.906 24.6824 462.568 27.2612 459.449L27.711 459.989L27.8009 460.169C28.1008 460.469 28.5206 461.008 29.0603 461.788C29.6001 462.508 30.0199 463.107 30.3197 463.587V463.497C31.3393 464.817 32.3888 465.476 33.4683 465.476H33.2883L33.7381 465.296C33.8581 465.416 33.978 465.476 34.098 465.476C35.2974 465.476 37.1265 463.857 39.5854 460.619L39.6753 460.439C39.7953 460.259 39.8852 460.109 39.9452 459.989C40.0651 459.869 40.365 459.569 40.8448 459.089C40.8448 459.629 40.8748 459.929 40.9347 459.989C40.8748 459.989 40.9048 460.109 41.0247 460.349C41.2046 460.529 41.4145 460.738 41.6544 460.978V460.888C43.2137 462.807 44.713 463.767 46.1523 463.767C46.812 463.767 47.9514 463.497 49.5707 462.957V463.677C49.5707 466.256 48.2813 468.295 45.7025 469.794V488.415C45.7025 489.555 46.1223 490.484 46.9619 491.204C47.8015 491.864 48.851 492.224 50.1104 492.284L50.2004 492.194H51.1899ZM34.008 492.553C34.9675 492.553 35.6872 492.374 36.167 492.014H36.2569L36.3469 491.924V470.514C35.5073 470.514 34.6077 469.884 33.6482 468.625C32.3288 470.304 30.6796 471.144 28.7005 471.144L28.5206 471.234H26.6315C26.5115 471.234 26.3316 471.234 26.0917 471.234C25.9118 471.234 25.7319 471.204 25.552 471.144L35.6272 482.568L33.3783 484.547L27.8009 478.52C27.2012 479.66 26.7814 480.679 26.5415 481.579C26.3016 482.418 26.1817 483.168 26.1817 483.828C26.1817 486.166 26.9313 488.176 28.4306 489.855C30.0499 491.654 31.909 492.553 34.008 492.553ZM113.214 464.217C113.214 466.496 112.525 468.385 111.145 469.884C109.766 471.383 107.997 472.133 105.838 472.133C104.099 472.133 102.419 471.353 100.8 469.794L98.3713 472.313V488.505C98.4912 488.565 98.6711 488.625 98.911 488.685C99.1509 488.745 99.4208 488.805 99.7207 488.865H99.6307C100.83 488.985 102.06 489.675 103.319 490.934L104.938 489.315L106.917 491.474L97.6516 500.47C94.2932 497.291 91.1447 495.702 88.2061 495.702C87.6064 495.702 87.0666 495.792 86.5868 495.972C86.167 496.092 85.7172 496.212 85.2375 496.332L84.068 496.781C84.068 494.922 84.9976 493.063 86.8567 491.204C87.2165 490.844 87.5164 490.574 87.7563 490.394C88.0561 490.215 88.296 490.065 88.4759 489.945L88.296 490.035L88.5659 489.765H88.8358L88.9257 489.675V471.054C88.5059 470.454 88.0262 469.974 87.4864 469.614C87.0066 469.194 86.4369 468.835 85.7772 468.535C85.5973 468.475 85.3274 468.385 84.9676 468.265C84.8477 468.205 84.5778 468.145 84.158 468.085C83.7981 467.965 83.5283 467.875 83.3484 467.815C87.0666 465.656 89.9752 462.538 92.0743 458.46C95.2528 460.079 97.3518 462.957 98.3713 467.095L99.1809 466.016C99.4808 465.716 99.7806 465.416 100.08 465.116C100.38 464.757 100.71 464.367 101.07 463.947C102.209 462.807 103.469 461.158 104.848 458.999V458.729L105.568 458.639C106.647 462.058 108.237 463.767 110.336 463.767C111.055 463.767 112.015 463.227 113.214 462.148V464.217ZM166.622 492.823L158.886 500.29C157.927 500.23 156.967 500.02 156.007 499.66C155.048 499.36 154.148 498.851 153.309 498.131C151.51 496.692 150.61 495.042 150.61 493.183V470.514C149.71 470.454 149.021 469.914 148.541 468.895L147.282 469.614L146.022 467.815L146.292 467.365L146.382 467.455L146.562 467.275L146.742 467.185C147.342 466.646 148.001 466.046 148.721 465.386C149.441 464.667 150.4 463.797 151.6 462.777C152.259 462.358 153.069 461.698 154.028 460.798C154.028 460.798 154.118 460.708 154.298 460.529C154.538 460.349 154.748 460.169 154.928 459.989V458.909C157.387 462.388 159.546 464.127 161.405 464.127C161.825 464.127 162.784 463.707 164.284 462.867V463.947C164.164 464.307 164.104 464.727 164.104 465.206C163.624 466.586 162.994 467.725 162.215 468.625C161.435 469.464 160.625 470.064 159.786 470.424V489.585C159.786 489.945 159.936 490.424 160.235 491.024C160.775 492.164 162.005 492.733 163.924 492.733C164.583 492.733 165.363 492.553 166.263 492.194L166.622 492.823ZM163.204 451.803C163.204 452.642 162.994 453.452 162.574 454.232C162.215 454.951 161.705 455.611 161.045 456.211C160.445 456.75 159.726 457.2 158.886 457.56C158.106 457.92 157.297 458.1 156.457 458.1H155.738V458.01H154.838L154.658 457.92C152.379 457.92 150.97 456.99 150.43 455.131L148.991 455.851L147.821 453.872C148.301 453.392 148.811 453.032 149.351 452.792C149.89 452.492 150.4 452.222 150.88 451.983L150.7 452.162C150.88 452.043 151.12 451.863 151.42 451.623C151.779 451.323 152.109 451.053 152.409 450.813C152.829 450.513 153.309 450.153 153.848 449.734C154.448 449.314 155.078 448.864 155.738 448.384C157.297 450.663 158.916 451.803 160.595 451.803C160.895 451.683 161.135 451.623 161.315 451.623C161.555 451.563 161.825 451.473 162.125 451.353H162.035L162.215 451.173H162.304L162.394 451.083H162.484L162.574 450.993H163.204V451.803ZM239.133 492.464L230.766 500.38C226.089 499.24 223.42 496.722 222.76 492.823C222.64 492.883 222.55 492.943 222.49 493.003C222.49 493.063 222.43 493.123 222.31 493.183C221.651 493.603 220.901 494.113 220.061 494.712C219.222 495.312 218.202 496.032 217.003 496.871C216.463 497.291 215.863 497.771 215.204 498.311C214.604 498.91 213.884 499.63 213.045 500.47C209.267 496.991 206.118 495.252 203.599 495.252C202.4 495.252 201.41 495.552 200.631 496.152C201.17 493.093 202.49 491.024 204.589 489.945V470.694C204.289 469.914 203.659 469.254 202.7 468.715L202.79 468.805C202.49 468.685 202.13 468.595 201.71 468.535C201.29 468.475 200.93 468.385 200.631 468.265C200.511 468.205 200.391 468.175 200.271 468.175H199.461V467.545L208.187 458.549C212.265 460.648 214.304 463.377 214.304 466.736V488.775C214.664 489.075 215.594 489.435 217.093 489.855C217.033 489.855 216.913 489.825 216.733 489.765C216.553 489.705 216.523 489.705 216.643 489.765C217.183 490.125 217.633 490.454 217.992 490.754C218.412 490.994 218.742 491.204 218.982 491.384L219.162 491.204L219.342 491.114C219.462 491.054 219.522 490.994 219.522 490.934C219.582 490.874 219.672 490.814 219.792 490.754V490.844C220.031 490.724 220.271 490.544 220.511 490.305C220.751 490.065 221.111 489.765 221.591 489.405C221.771 489.405 221.951 489.315 222.131 489.135L222.67 488.865L222.49 469.884H222.4L222.22 469.794L221.951 469.704C221.831 469.584 221.681 469.464 221.501 469.344C221.381 469.164 221.201 468.925 220.961 468.625L219.162 469.524L217.453 467.005C219.372 466.406 222.61 463.827 227.168 459.269C230.227 462.508 232.416 464.127 233.735 464.127C234.275 464.127 234.725 464.067 235.084 463.947L235.264 463.767L235.354 463.677H235.534L235.624 463.587H235.804L235.894 463.497H236.524C236.524 467.095 235.024 469.344 232.026 470.244V487.876C232.026 490.934 233.465 492.464 236.344 492.464H236.524L236.704 492.374C237.183 492.374 237.873 492.194 238.773 491.834L239.133 492.464ZM305.691 459.629L306.051 460.079C304.492 464.877 301.193 469.854 296.156 475.012L304.612 474.832C304.612 474.892 304.582 475.012 304.522 475.192C304.522 475.372 304.522 475.492 304.522 475.551C304.462 475.671 304.432 475.821 304.432 476.001L304.342 476.091V476.271L304.162 476.451V476.631L304.072 476.811C304.072 476.931 304.042 477.021 303.982 477.081C303.982 477.141 303.982 477.201 303.982 477.261V477.171C303.922 477.351 303.862 477.591 303.802 477.89C303.742 478.13 303.712 478.22 303.712 478.16V493.453C303.712 493.573 303.742 493.663 303.802 493.723V493.993L303.892 494.173V494.083C303.952 494.143 303.982 494.203 303.982 494.263C303.982 494.263 304.012 494.413 304.072 494.712L303.982 494.533C303.862 494.413 303.892 494.503 304.072 494.802C304.252 495.102 304.432 495.402 304.612 495.702L304.972 496.422C304.312 496.422 303.922 496.392 303.802 496.332H303.892C303.832 496.272 303.742 496.242 303.622 496.242C302.903 496.242 302.303 496.242 301.823 496.242C301.343 496.182 300.954 496.062 300.654 495.882C299.754 495.882 299.214 495.852 299.034 495.792H298.495C293.937 495.792 290.189 497.351 287.25 500.47L284.641 497.861C284.161 497.441 283.712 497.111 283.292 496.871C282.872 496.692 282.392 496.602 281.853 496.602C281.493 496.422 280.983 496.332 280.323 496.332C277.565 496.332 275.645 497.651 274.566 500.29H271.957C272.437 498.191 273.277 496.062 274.476 493.903C275.675 491.684 277.295 489.315 279.334 486.796L279.694 486.436C279.873 486.256 280.083 486.017 280.323 485.717C280.623 485.417 280.953 485.087 281.313 484.727L275.376 484.457L276.005 483.828L275.915 484.097C276.455 483.378 276.725 482.628 276.725 481.849L276.815 481.669L276.725 466.016C276.725 465.956 276.695 465.926 276.635 465.926C276.635 465.866 276.635 465.806 276.635 465.746V465.836C276.575 465.776 276.545 465.626 276.545 465.386L276.275 464.757V464.667C276.155 464.547 276.095 464.367 276.095 464.127C276.095 463.887 276.095 463.617 276.095 463.317C276.695 463.857 277.325 464.127 277.984 464.127C278.404 464.367 279.454 464.487 281.133 464.487C281.193 464.547 281.493 464.577 282.032 464.577C284.791 464.577 287.46 463.887 290.039 462.508C290.279 462.388 291.478 461.248 293.637 459.089C295.556 461.308 297.355 462.418 299.034 462.418C300.774 462.418 302.183 461.548 303.262 459.809L305.691 459.629ZM294.357 492.823L294.447 492.733V481.399L294.267 481.219H289.679L285.001 485.897C284.581 486.316 284.101 486.856 283.562 487.516C283.022 488.116 282.362 488.805 281.583 489.585C282.302 489.465 282.932 489.375 283.472 489.315C284.012 489.195 284.431 489.135 284.731 489.135C287.85 489.135 290.518 490.514 292.737 493.273L293.097 493.093C293.097 493.093 293.157 493.093 293.277 493.093C293.457 493.033 293.697 492.943 293.997 492.823H294.357ZM292.917 473.662C294.956 471.503 296.456 469.914 297.415 468.895C296.396 469.314 295.316 469.524 294.177 469.524C292.438 469.524 290.458 468.655 288.24 466.916C288.06 466.976 287.94 467.035 287.88 467.095H287.52C287.16 467.275 286.83 467.365 286.53 467.365V478.7H287.52C288 478.4 288.659 477.83 289.499 476.991C290.399 476.151 291.538 475.042 292.917 473.662Z" fill="white"/>
<path fill-rule="evenodd" clip-rule="evenodd" d="M131.661 49.9003C111.343 76.9586 92.1151 102.233 88.9434 106.098C85.6727 109.865 83.1949 113.136 83.294 113.235C83.3931 113.334 86.4656 111.847 90.2319 109.964C96.8725 106.693 97.2689 106.594 109.063 106.594L121.056 106.693L115.109 108.973C98.0618 115.514 83.4922 124.831 70.112 137.716C57.822 149.709 53.2628 155.755 48.3071 167.252C43.4506 178.353 39.4861 184.994 34.6296 189.949L31.2597 193.518L32.35 199.96C35.2242 216.116 27.8899 234.452 16.0954 241.093C14.6087 241.886 14.9061 243.967 18.8706 263.691C21.2493 275.684 23.4298 286.884 23.7271 288.569C24.3218 291.542 24.1236 291.74 18.6724 293.921C15.5999 295.209 12.6265 296.498 12.23 296.894C11.7345 297.291 11.2389 304.328 11.1398 312.356C10.9416 320.483 10.5451 328.611 10.0495 330.395C9.35576 333.468 9.25665 333.567 7.3735 331.981C5.78769 330.494 5.39124 330.395 4.10277 331.683C2.41785 333.368 0.63382 343.676 0.63382 351.606V357.156L5.19301 358.94C10.1487 360.823 11.5362 360.129 11.5362 355.768C11.5362 353.191 16.1946 336.937 17.483 334.657C18.0777 333.567 18.1768 334.657 17.7804 337.729C17.1857 342.983 18.0777 343.676 21.0511 340.406C25.3129 335.648 26.4032 336.54 22.9342 341.991C18.9697 348.136 17.0866 352.795 16.1945 358.94L15.5008 363.103L22.0422 364.193C25.7094 364.887 28.7819 365.184 28.9801 364.986C29.5748 364.391 31.7553 350.02 31.7553 345.956C31.8544 343.775 31.5571 340.406 31.0615 338.522C30.3677 335.252 30.4668 335.152 32.0526 336.738C32.9446 337.729 34.2331 341 34.8278 344.172L36.0171 349.921L38.5941 344.965C39.9817 342.19 41.171 340.406 41.171 341C41.2701 342.784 38.495 351.209 37.0083 353.588C36.2154 354.876 35.3233 358.147 35.026 360.922L34.4313 366.076L38.9905 366.77C42.2613 367.266 43.7479 367.067 44.3426 366.076C45.532 364.391 47.1178 358.444 48.8027 349.921L50.0912 342.983L49.7938 355.471L49.4965 367.959L55.4433 368.653C59.8042 369.05 61.6874 368.951 62.2821 368.059C63.2732 366.671 62.6785 351.407 61.5883 347.839C61.0927 346.352 61.6874 344.866 63.4714 342.883L66.0484 340.009L65.4537 343.181C65.0572 344.965 65.4537 347.641 66.1475 349.326C67.6342 352.696 69.0217 353.29 69.1209 350.614C69.1209 349.722 70.4093 347.938 72.0942 346.65C75.1667 344.172 75.8605 344.767 73.4818 348.136C72.6889 349.227 70.8058 354.282 69.4182 359.336C66.3457 370.041 66.4448 370.239 75.1667 370.239C81.51 370.239 81.2126 370.636 82.7984 360.625C83.294 357.156 83.1949 354.876 82.3029 353.29C80.3206 349.524 81.9064 349.029 85.3754 352.398L88.547 355.471L91.4213 352.696C93.0071 351.209 95.3858 348.434 96.7734 346.65L99.2512 343.379L99.4494 348.632C99.6476 353.191 99.5485 353.687 98.3592 352.2C97.1698 350.515 96.9716 350.515 95.584 352.2C94.0973 353.885 88.8443 367.365 88.8443 369.446C88.8443 370.239 91.223 370.338 96.476 369.843C100.639 369.545 104.207 369.05 104.405 368.851C104.603 368.653 104.405 365.184 103.91 361.22C102.72 352.2 103.81 350.416 110.055 350.515L110.082 350.516C114.019 350.614 114.111 350.617 111.244 351.606L108.469 352.597L108.865 359.931C109.162 363.995 109.658 367.563 109.955 367.86C110.847 368.752 122.543 365.085 122.543 363.896C122.543 363.301 121.452 360.526 120.065 357.85C118.38 354.381 117.686 351.209 117.587 347.145C117.587 341.991 117.884 341 120.461 338.621C123.831 335.45 129.382 333.567 135.527 333.468C137.905 333.468 140.68 333.071 141.771 332.675C143.356 332.08 142.96 331.386 138.698 327.818C132.751 322.961 130.868 317.708 131.859 309.68C132.652 303.733 136.617 294.416 139.788 290.947C145.636 284.802 149.303 272.908 149.303 260.519V252.293H155.746C164.269 252.293 176.163 249.815 182.209 246.742C190.336 242.579 196.679 240.399 201.635 240.101C205.5 239.903 206.392 239.408 206.59 237.723C207.086 234.551 211.447 231.082 221.16 226.126C231.27 221.071 236.126 216.909 237.316 212.25L238.208 209.178L245.74 209.277C257.435 209.475 265.067 213.539 278.348 226.622C289.251 237.425 292.026 241.786 292.026 247.832C292.026 251.202 292.224 251.5 294.305 250.806C295.495 250.508 297.973 249.815 299.757 249.319C304.018 248.229 303.721 248.625 304.911 242.381C308.181 225.333 302.928 198.87 292.125 177.56C280.826 155.557 262.094 135.238 241.28 122.551L237.514 120.272V134.247V148.321L243.262 154.565C246.335 158.035 249.209 161.008 249.506 161.008C249.903 161.107 251.191 156.647 252.381 151.196C253.669 145.744 254.958 141.284 255.255 141.284C255.552 141.284 257.237 148.718 258.922 157.935L262.094 174.488L270.518 189.355C275.177 197.482 278.844 204.321 278.646 204.519C278.447 204.718 239 194.707 234.342 193.22C233.45 192.923 229.684 188.165 226.017 182.714C199.058 142.176 165.855 116.406 130.472 108.675L122.047 106.891L126.507 105.603C135.923 103.026 144.348 101.638 156.241 100.647C163.08 100.052 168.928 99.2595 169.225 98.863C169.522 98.4666 171.207 93.0152 173.09 86.771L179.434 64.0737C183.795 49.5039 188.948 30.8703 188.651 30.6721C188.453 30.3748 171.405 55.7481 152.277 85.0861C147.222 92.9161 143.555 97.5745 142.762 97.2772C142.068 96.9798 137.707 96.4843 133.148 96.0878L124.723 95.394L130.174 83.8967C133.148 77.5533 138.896 65.4614 142.861 57.0366C146.825 48.6119 154.358 32.5553 159.611 21.4544C164.864 10.3536 169.027 1.0368 168.828 0.937683C168.63 0.739441 151.88 22.7429 131.661 49.9003ZM112.334 274.197C113.722 254.275 96.476 219.486 80.5188 210.169C75.1667 206.997 63.8679 205.907 60.0025 208.087L57.4255 209.574L59.4078 215.323C62.0838 223.351 61.39 235.344 57.6238 244.661C55.4433 250.013 55.0468 252.293 55.5424 255.861C57.0291 266.962 65.5528 277.567 77.4463 283.216C89.6372 288.866 99.1521 290.353 105.198 287.379C109.955 285.1 111.839 281.631 112.334 274.197ZM30.0704 280.342C29.773 279.351 27.8899 273.008 25.9076 266.169C21.0511 249.815 20.6546 249.517 22.4387 263.195C23.7271 272.908 26.1058 279.846 28.5837 281.135C30.2686 282.027 30.4668 281.928 30.0704 280.342Z" fill="white"/>
<path d="M264.815 341.971C281.563 337.727 282.669 316.696 279.965 305.853C279.919 305.669 279.664 305.678 279.628 305.865C278.583 311.269 276.536 322.499 275.095 324.284C273.245 326.574 262.598 333.607 264.182 341.584C264.238 341.87 264.532 342.043 264.815 341.971Z" fill="white"/>
<path d="M198.761 84.7887C191.327 100.052 190.794 101.517 188.354 101.242C187.264 100.944 182.407 100.35 177.551 100.052C169.721 99.4577 168.928 99.5568 169.225 101.043C169.522 102.134 172.793 104.017 178.046 106.098C182.704 107.982 186.57 109.567 186.669 109.567C186.867 109.567 187.858 107.783 188.949 105.504C190.435 102.728 191.526 101.638 192.715 102.035C193.607 102.233 197.571 103.422 201.437 104.612L208.375 106.792L207.483 114.226C206.789 120.569 206.888 121.957 208.077 122.651C208.87 123.047 212.042 125.426 215.114 127.904C221.259 132.958 220.566 133.355 224.629 122.948C225.918 119.677 227.567 115.89 227.964 115.493C228.459 114.998 230.18 116.406 232.36 117.596C234.541 118.884 236.622 119.677 237.018 119.38C237.316 118.983 237.415 112.343 237.316 104.513L237.018 90.24L234.144 97.6736C232.558 101.737 230.972 105.504 230.576 106.098C230.18 106.594 229.486 108.576 229.089 110.261C228.792 112.045 228.098 113.73 227.702 113.928C227.305 114.226 222.944 112.739 218.088 110.658C216.105 109.797 214.51 109.141 213.244 108.509C207.806 105.792 208.446 103.508 210.456 87.2666L212.24 73.3905L213.529 55.5499L198.761 84.7887Z" fill="white"/>
<path d="M214.42 237.227C212.636 239.11 210.357 244.264 209.366 248.625C208.771 251.103 208.969 251.4 210.654 250.806C213.826 249.815 223.638 250.013 225.026 251.202C225.818 251.896 227.305 251.995 229.386 251.4C236.919 249.22 246.533 256.356 253.273 269.241C257.535 277.369 263.283 285 265.067 285C267.347 285 265.959 275.783 262.391 267.457C258.327 258.041 258.327 255.563 262.391 260.222C267.941 266.565 272.402 279.946 272.302 290.154C272.302 296.002 266.257 324.052 263.68 330.197C261.598 335.252 263.779 334.26 268.437 328.016C272.996 322.069 275.177 316.023 275.177 309.283C275.177 301.255 277.159 287.974 278.745 284.703C280.727 280.937 280.033 278.261 275.573 273.007C270.617 267.061 266.257 257.942 265.563 252.193C265.265 249.517 264.274 246.742 263.481 246.147C262.49 245.255 258.03 244.859 250.002 244.76C236.523 244.661 227.999 242.579 222.647 238.02C218.98 235.047 216.601 234.749 214.42 237.227Z" fill="white"/>
<path d="M295.396 255.663C291.629 257.348 290.737 260.321 292.521 265.078C293.215 267.061 294.107 272.017 294.305 276.08C294.603 280.144 295.792 285.992 296.882 288.965C299.36 295.507 299.459 297.687 297.477 307.301C294.999 319.096 289.944 329.007 282.015 337.531L278.844 341L284.691 341.694C287.863 342.091 293.513 343.379 297.081 344.568L303.622 346.65L307.587 344.568C319.777 338.423 323.742 331.684 328.103 309.581C329.986 299.967 333.554 292.434 339.104 286.19L343.366 281.432L341.781 277.963C340.889 276.08 337.717 272.116 334.644 269.142C323.445 257.942 304.811 251.599 295.396 255.663Z" fill="white"/>
<path d="M196.481 261.312C193.21 263.889 193.21 265.971 196.58 267.259C202.23 269.341 206.194 265.971 203.32 261.61C201.437 258.735 199.851 258.636 196.481 261.312Z" fill="white"/>
<path d="M175.965 261.708C172.694 263.492 170.414 266.961 168.135 273.701C165.954 280.045 166.648 283.514 170.613 285C174.181 286.388 174.082 286.388 174.082 282.721C174.082 277.864 175.667 273.107 179.533 266.763C181.416 263.592 183.002 260.816 183.002 260.618C183.002 259.726 178.343 260.42 175.965 261.708Z" fill="white"/>
<path d="M206.789 266.763C206.789 268.151 207.185 269.043 207.78 268.647C208.374 268.349 208.771 267.16 208.771 266.07C208.771 265.078 208.374 264.186 207.78 264.186C207.284 264.186 206.789 265.376 206.789 266.763Z" fill="white"/>
<path d="M205.5 272.81C205.104 273.107 204.807 274.891 204.807 276.774C204.807 281.234 206.987 281.928 211.249 278.657C215.015 275.783 215.61 273.702 213.132 272.71C211.051 271.918 206.293 271.918 205.5 272.81Z" fill="white"/>
<path d="M188.651 276.774C188.255 277.071 187.957 278.063 187.957 278.855C187.957 280.045 188.255 280.045 189.444 279.054C190.237 278.36 190.931 277.468 190.931 276.972C190.931 275.882 189.543 275.783 188.651 276.774Z" fill="white"/>
<path d="M193.409 281.532C189.543 282.82 189.444 282.82 191.922 283.811C194.499 284.901 197.869 283.613 198.662 281.234C199.058 279.847 198.562 279.847 193.409 281.532Z" fill="white"/>
<path d="M211.645 283.414C210.158 284.901 185.281 290.253 178.938 290.551C169.919 290.848 166.846 292.236 161.296 298.48C157.629 302.643 152.574 313.347 153.664 314.536C154.754 315.528 159.314 313.545 163.675 310.275C167.044 307.598 168.63 307.004 169.919 307.698C173.189 309.482 175.865 313.347 178.046 319.492C181.019 327.52 186.867 333.666 195.391 337.729C198.959 339.315 202.428 340.505 203.121 340.207C204.311 339.712 206.789 328.908 211.348 302.841C213.826 288.866 214.321 283.018 212.934 283.018C212.438 283.018 211.843 283.216 211.645 283.414Z" fill="white"/>
<path d="M226.512 285.694C225.917 287.478 225.917 289.956 226.611 293.326C227.801 299.471 227.107 302.543 222.052 311.464C219.376 316.221 218.385 319.492 217.988 323.952C217.493 329.701 217.196 330.395 212.24 335.549C209.366 338.522 206.491 341.991 205.897 343.279C204.806 345.262 205.005 345.559 207.482 346.55C218.682 350.812 232.756 351.803 240.487 348.929C250.299 345.262 255.354 344.271 258.526 345.361C260.211 345.956 261.697 346.352 261.895 346.154C261.995 346.055 261.499 342.784 260.706 339.018C259.814 335.152 259.12 327.619 258.922 322.069C258.625 310.175 257.039 306.607 247.821 297.885C242.271 292.632 229.585 283.018 228.197 283.018C227.801 283.018 227.107 284.207 226.512 285.694Z" fill="white"/>
<path d="M160.8 335.45C160.503 335.846 162.089 336.738 164.269 337.432C166.648 338.126 170.712 340.901 174.181 344.073C177.352 347.046 180.92 349.425 182.011 349.425C184.389 349.425 190.633 353.191 193.508 356.462C194.697 357.751 197.076 361.715 198.959 365.283C203.122 373.312 214.817 385.205 223.638 390.359C234.144 396.505 242.073 398.487 255.354 398.487C270.518 398.388 280.826 395.612 286.575 390.161C295.297 381.836 307.289 374.303 314.624 372.717C318.588 371.924 318.786 369.644 315.317 363.797C310.659 355.867 298.468 349.722 283.106 347.542C276.862 346.749 273.888 346.848 265.265 348.434C249.407 351.209 232.36 352.696 221.656 352.2C212.141 351.705 211.645 351.606 198.265 345.163C190.633 341.595 181.416 337.729 177.65 336.639C170.811 334.558 161.692 333.864 160.8 335.45Z" fill="white"/>
<path d="M142.563 341.496C138.103 347.443 131.958 360.526 130.472 367.166C129.282 372.221 129.58 384.908 130.967 387.088C131.265 387.683 135.229 388.08 139.788 388.08C144.248 388.08 148.312 388.476 148.907 388.972C150.79 390.756 159.809 393.134 166.45 393.63C174.18 394.126 177.352 395.513 181.317 399.973C182.902 401.658 186.074 403.938 188.453 404.929C198.166 409.092 216.105 411.173 222.151 408.894C223.539 408.398 227.206 405.623 230.179 402.749L235.63 397.595L227.9 393.63C212.835 385.701 203.121 377.276 195.192 365.085C192.814 361.418 189.741 357.552 188.155 356.363C185.083 353.885 179.533 351.407 177.154 351.407C176.262 351.407 174.676 349.623 173.586 347.145C172.198 344.469 170.216 342.289 167.837 341L164.17 339.018L157.728 341.397C149.898 344.172 146.627 343.676 146.132 339.811C145.834 337.135 145.834 337.135 142.563 341.496Z" fill="white"/>
</svg>
