<svg width="396" height="526" viewBox="0 0 396 526" fill="none" xmlns="http://www.w3.org/2000/svg">
<g clip-path="url(#clip0_1314_26)">
<path d="M87.9755 118.774H22.5582L14.7753 137.204L181.427 512.426H214.673L381.273 137.204L374.172 118.774H308.464C308.647 114.146 308.87 109.62 309.128 105.2L383.42 105.2L396 137.204L223.438 526H172.542L0 137.204L13.5724 105.2H87.3113C87.5694 109.62 87.7923 114.146 87.9755 118.774Z" fill="white"/>
<path d="M149.32 105.2L158.427 118.774H238.565L247.672 105.2H149.32Z" fill="white"/>
<path d="M265.251 105.2L295.321 105.2C295.128 108.956 294.961 112.751 294.819 116.569C294.791 117.303 294.765 118.038 294.739 118.774H256.495L265.251 105.2Z" fill="white"/>
<path d="M88.329 129.803H32.1098L28.2525 137.204L187.789 501.397H208.211L367.12 137.204L364.619 129.803H308.109C308.151 128.094 308.199 126.397 308.252 124.713H368.287L372.573 137.204L211.519 506.487H184.439L22.6422 137.204L28.9642 124.713H88.1859C88.239 126.397 88.2868 128.094 88.329 129.803Z" fill="white"/>
<path d="M162.411 124.713L163.593 126.474L168.824 129.803H228.166L233.398 126.474L234.579 124.713H162.411Z" fill="white"/>
<path d="M252.663 124.713H294.551C294.504 126.407 294.46 128.104 294.421 129.803H249.38L252.663 124.713Z" fill="white"/>
<path fill-rule="evenodd" clip-rule="evenodd" d="M161.194 128.955L74.658 0C76.4397 5.56767 78.4669 13.3233 80.491 23.0493C88.7479 62.7241 96.9536 135.187 88.2322 225.671C110.885 233.761 162.235 264.687 194.026 325.216C195.573 328.162 197.074 331.178 198.523 334.265C199.971 331.178 201.472 328.162 203.02 325.216C234.81 264.687 286.161 233.761 308.813 225.671C300.091 135.187 308.297 62.7241 316.554 23.0493C318.578 13.3233 320.605 5.56767 322.387 0L235.852 128.955L198.523 152.71L161.194 128.955ZM305.327 39.7793L241.561 134.804L198.523 162.192L161.194 138.5L155.484 134.804L91.7177 39.7793C98.5166 81.2256 103.523 144.387 96.7511 220.444C120.419 230.641 161.763 257.674 191.956 305.615C192.115 305.867 192.273 306.12 192.432 306.374C194.52 309.717 196.553 313.162 198.523 316.709C229.008 261.807 274.859 231.403 300.294 220.444C293.522 144.387 298.528 81.2256 305.327 39.7793Z" fill="white"/>
<path fill-rule="evenodd" clip-rule="evenodd" d="M96.7511 220.444C103.523 144.387 98.5166 81.2256 91.7177 39.7793L155.484 134.804L161.194 138.5L215.49 198.523L184.948 235.852L220.04 265.815C207.507 278.776 196.804 294.453 191.956 305.615C161.763 257.674 120.419 230.641 96.7511 220.444Z" fill="white"/>
<path d="M151.301 381.265V346.705H158.693V381.265H151.301ZM154.757 367.873V362.209H174.581V367.873H154.757ZM154.757 352.369V346.705H175.685V352.369H154.757Z" fill="white"/>
<path d="M195.662 381.745C193.102 381.745 190.734 381.313 188.558 380.449C186.414 379.585 184.542 378.369 182.942 376.801C181.374 375.201 180.142 373.313 179.246 371.137C178.382 368.929 177.95 366.497 177.95 363.841C177.95 360.321 178.702 357.249 180.206 354.625C181.71 351.969 183.79 349.905 186.446 348.433C189.134 346.961 192.19 346.225 195.614 346.225C199.102 346.225 202.174 346.961 204.83 348.433C207.486 349.905 209.566 351.969 211.07 354.625C212.606 357.281 213.374 360.369 213.374 363.889C213.374 366.513 212.926 368.929 212.03 371.137C211.166 373.313 209.934 375.201 208.334 376.801C206.766 378.369 204.894 379.585 202.718 380.449C200.574 381.313 198.222 381.745 195.662 381.745ZM195.614 375.889C197.63 375.889 199.406 375.377 200.942 374.353C202.478 373.329 203.678 371.921 204.542 370.129C205.438 368.305 205.886 366.193 205.886 363.793C205.886 361.425 205.454 359.361 204.59 357.601C203.726 355.841 202.526 354.481 200.99 353.521C199.454 352.561 197.662 352.081 195.614 352.081C193.598 352.081 191.822 352.561 190.286 353.521C188.75 354.481 187.55 355.841 186.686 357.601C185.854 359.329 185.438 361.393 185.438 363.793C185.438 366.225 185.87 368.353 186.734 370.177C187.598 371.969 188.798 373.377 190.334 374.401C191.87 375.393 193.63 375.889 195.614 375.889Z" fill="white"/>
<path d="M227.563 360.913L230.011 367.105L232.562 363.561L229.188 358.433L227.563 360.913Z" fill="white"/>
<path fill-rule="evenodd" clip-rule="evenodd" d="M236.059 381.265L228.22 368.856L220.075 381.265H212.251L224.875 363.767L213.163 346.705H221.803L229.188 358.433L227.563 360.913L230.011 367.105L232.562 363.561L244.699 381.265H236.059ZM234.94 360.259L244.699 346.705H236.875L231.46 354.967L234.94 360.259Z" fill="white"/>
<path d="M171.423 406.135C170.063 406.135 168.978 405.825 168.168 405.205C167.368 404.575 166.898 403.69 166.758 402.55H168.633C168.723 403.21 169.018 403.725 169.518 404.095C170.018 404.455 170.673 404.635 171.483 404.635C172.153 404.635 172.663 404.515 173.013 404.275C173.373 404.025 173.553 403.68 173.553 403.24C173.553 402.85 173.443 402.535 173.223 402.295C173.003 402.055 172.633 401.86 172.113 401.71L170.163 401.125C169.173 400.825 168.443 400.43 167.973 399.94C167.513 399.45 167.283 398.835 167.283 398.095C167.283 397.475 167.443 396.935 167.763 396.475C168.083 396.015 168.533 395.66 169.113 395.41C169.703 395.16 170.388 395.035 171.168 395.035C172.368 395.035 173.323 395.33 174.033 395.92C174.753 396.5 175.163 397.29 175.263 398.29H173.388C173.278 397.69 173.028 397.25 172.638 396.97C172.248 396.68 171.723 396.535 171.063 396.535C170.483 396.535 170.023 396.65 169.683 396.88C169.343 397.11 169.173 397.425 169.173 397.825C169.173 398.155 169.273 398.435 169.473 398.665C169.683 398.895 170.068 399.095 170.628 399.265L172.608 399.865C173.598 400.155 174.318 400.55 174.768 401.05C175.218 401.55 175.443 402.185 175.443 402.955C175.443 403.975 175.088 404.76 174.378 405.31C173.678 405.86 172.693 406.135 171.423 406.135ZM176.789 406V395.2H181.634C182.424 395.2 183.099 395.335 183.659 395.605C184.229 395.875 184.664 396.255 184.964 396.745C185.274 397.235 185.429 397.815 185.429 398.485C185.429 399.145 185.274 399.725 184.964 400.225C184.654 400.725 184.219 401.115 183.659 401.395C183.099 401.665 182.424 401.8 181.634 401.8H178.304V400.27H181.544C182.164 400.27 182.639 400.11 182.969 399.79C183.309 399.47 183.479 399.035 183.479 398.485C183.479 397.945 183.309 397.52 182.969 397.21C182.639 396.9 182.164 396.745 181.544 396.745H178.739V406H176.789ZM186.794 406V395.2H188.744V406H186.794ZM187.724 406V404.455H194.564V406H187.724ZM187.724 401.2V399.685H194.039V401.2H187.724ZM187.724 396.745V395.2H194.399V396.745H187.724ZM200.708 406.15C199.938 406.15 199.228 406.015 198.578 405.745C197.938 405.465 197.378 405.075 196.898 404.575C196.418 404.075 196.048 403.485 195.788 402.805C195.528 402.125 195.398 401.38 195.398 400.57C195.398 399.76 195.528 399.02 195.788 398.35C196.048 397.68 196.413 397.1 196.883 396.61C197.363 396.11 197.923 395.725 198.563 395.455C199.213 395.185 199.928 395.05 200.708 395.05C201.568 395.05 202.343 395.22 203.033 395.56C203.723 395.9 204.288 396.38 204.728 397C205.178 397.61 205.453 398.33 205.553 399.16H203.633C203.513 398.35 203.188 397.73 202.658 397.3C202.128 396.86 201.483 396.64 200.723 396.64C200.053 396.64 199.468 396.8 198.968 397.12C198.468 397.44 198.078 397.895 197.798 398.485C197.518 399.065 197.378 399.755 197.378 400.555C197.378 401.375 197.518 402.085 197.798 402.685C198.078 403.275 198.473 403.735 198.983 404.065C199.493 404.395 200.078 404.56 200.738 404.56C201.478 404.56 202.113 404.345 202.643 403.915C203.173 403.475 203.508 402.855 203.648 402.055H205.583C205.463 402.875 205.178 403.595 204.728 404.215C204.288 404.835 203.723 405.315 203.033 405.655C202.343 405.985 201.568 406.15 200.708 406.15ZM206.979 406V395.2H208.929V406H206.979ZM210.278 406L214.253 395.2H215.933L212.198 406H210.278ZM218.423 406L214.703 395.2H216.473L220.433 406H218.423ZM212.333 401.755H218.243V403.315H212.333V401.755ZM221.789 406V395.2H223.739V406H221.789ZM222.719 406V404.455H229.049V406H222.719ZM158.8 421V410.2H163.36C164.13 410.2 164.8 410.33 165.37 410.59C165.94 410.85 166.375 411.215 166.675 411.685C166.985 412.155 167.14 412.705 167.14 413.335C167.14 413.955 166.985 414.5 166.675 414.97C166.375 415.44 165.94 415.805 165.37 416.065C164.8 416.325 164.13 416.455 163.36 416.455H160.33V414.97H163.3C163.93 414.97 164.41 414.825 164.74 414.535C165.08 414.245 165.25 413.845 165.25 413.335C165.25 412.825 165.085 412.435 164.755 412.165C164.425 411.885 163.94 411.745 163.3 411.745H160.75V421H158.8ZM164.98 421L160.165 415.48H162.355L167.68 421H164.98ZM168.805 421V410.2H170.755V421H168.805ZM169.735 421V419.455H176.575V421H169.735ZM169.735 416.2V414.685H176.05V416.2H169.735ZM169.735 411.745V410.2H176.41V411.745H169.735ZM181.941 421.135C180.581 421.135 179.496 420.825 178.686 420.205C177.886 419.575 177.416 418.69 177.276 417.55H179.151C179.241 418.21 179.536 418.725 180.036 419.095C180.536 419.455 181.191 419.635 182.001 419.635C182.671 419.635 183.181 419.515 183.531 419.275C183.891 419.025 184.071 418.68 184.071 418.24C184.071 417.85 183.961 417.535 183.741 417.295C183.521 417.055 183.151 416.86 182.631 416.71L180.681 416.125C179.691 415.825 178.961 415.43 178.491 414.94C178.031 414.45 177.801 413.835 177.801 413.095C177.801 412.475 177.961 411.935 178.281 411.475C178.601 411.015 179.051 410.66 179.631 410.41C180.221 410.16 180.906 410.035 181.686 410.035C182.886 410.035 183.841 410.33 184.551 410.92C185.271 411.5 185.681 412.29 185.781 413.29H183.906C183.796 412.69 183.546 412.25 183.156 411.97C182.766 411.68 182.241 411.535 181.581 411.535C181.001 411.535 180.541 411.65 180.201 411.88C179.861 412.11 179.691 412.425 179.691 412.825C179.691 413.155 179.791 413.435 179.991 413.665C180.201 413.895 180.586 414.095 181.146 414.265L183.126 414.865C184.116 415.155 184.836 415.55 185.286 416.05C185.736 416.55 185.961 417.185 185.961 417.955C185.961 418.975 185.606 419.76 184.896 420.31C184.196 420.86 183.211 421.135 181.941 421.135ZM187.306 421V410.2H192.151C192.941 410.2 193.616 410.335 194.176 410.605C194.746 410.875 195.181 411.255 195.481 411.745C195.791 412.235 195.946 412.815 195.946 413.485C195.946 414.145 195.791 414.725 195.481 415.225C195.171 415.725 194.736 416.115 194.176 416.395C193.616 416.665 192.941 416.8 192.151 416.8H188.821V415.27H192.061C192.681 415.27 193.156 415.11 193.486 414.79C193.826 414.47 193.996 414.035 193.996 413.485C193.996 412.945 193.826 412.52 193.486 412.21C193.156 411.9 192.681 411.745 192.061 411.745H189.256V421H187.306ZM202.263 421.15C201.483 421.15 200.763 421.015 200.103 420.745C199.443 420.475 198.868 420.09 198.378 419.59C197.898 419.09 197.523 418.5 197.253 417.82C196.993 417.13 196.863 416.375 196.863 415.555C196.863 414.465 197.093 413.51 197.553 412.69C198.013 411.86 198.648 411.215 199.458 410.755C200.278 410.285 201.208 410.05 202.248 410.05C203.308 410.05 204.243 410.285 205.053 410.755C205.873 411.215 206.513 411.86 206.973 412.69C207.433 413.52 207.663 414.48 207.663 415.57C207.663 416.39 207.528 417.14 207.258 417.82C206.998 418.5 206.623 419.09 206.133 419.59C205.653 420.09 205.083 420.475 204.423 420.745C203.763 421.015 203.043 421.15 202.263 421.15ZM202.248 419.56C202.928 419.56 203.523 419.39 204.033 419.05C204.553 418.71 204.958 418.24 205.248 417.64C205.538 417.03 205.683 416.33 205.683 415.54C205.683 414.76 205.538 414.08 205.248 413.5C204.968 412.91 204.568 412.455 204.048 412.135C203.538 411.805 202.938 411.64 202.248 411.64C201.568 411.64 200.968 411.805 200.448 412.135C199.938 412.455 199.543 412.905 199.263 413.485C198.983 414.065 198.843 414.75 198.843 415.54C198.843 416.34 198.983 417.04 199.263 417.64C199.553 418.24 199.953 418.71 200.463 419.05C200.983 419.39 201.578 419.56 202.248 419.56ZM209.147 421V410.2H211.562L216.827 419.59L216.272 419.725V410.2H218.162V421H215.747L210.482 411.61L211.037 411.475V421H209.147ZM224.201 421.135C222.841 421.135 221.756 420.825 220.946 420.205C220.146 419.575 219.676 418.69 219.536 417.55H221.411C221.501 418.21 221.796 418.725 222.296 419.095C222.796 419.455 223.451 419.635 224.261 419.635C224.931 419.635 225.441 419.515 225.791 419.275C226.151 419.025 226.331 418.68 226.331 418.24C226.331 417.85 226.221 417.535 226.001 417.295C225.781 417.055 225.411 416.86 224.891 416.71L222.941 416.125C221.951 415.825 221.221 415.43 220.751 414.94C220.291 414.45 220.061 413.835 220.061 413.095C220.061 412.475 220.221 411.935 220.541 411.475C220.861 411.015 221.311 410.66 221.891 410.41C222.481 410.16 223.166 410.035 223.946 410.035C225.146 410.035 226.101 410.33 226.811 410.92C227.531 411.5 227.941 412.29 228.041 413.29H226.166C226.056 412.69 225.806 412.25 225.416 411.97C225.026 411.68 224.501 411.535 223.841 411.535C223.261 411.535 222.801 411.65 222.461 411.88C222.121 412.11 221.951 412.425 221.951 412.825C221.951 413.155 222.051 413.435 222.251 413.665C222.461 413.895 222.846 414.095 223.406 414.265L225.386 414.865C226.376 415.155 227.096 415.55 227.546 416.05C227.996 416.55 228.221 417.185 228.221 417.955C228.221 418.975 227.866 419.76 227.156 420.31C226.456 420.86 225.471 421.135 224.201 421.135ZM229.567 421V410.2H231.517V421H229.567ZM230.497 421V419.455H237.337V421H230.497ZM230.497 416.2V414.685H236.812V416.2H230.497ZM230.497 411.745V410.2H237.172V411.745H230.497ZM180.15 436V426.745H176.565V425.2H185.685V426.745H182.1V436H180.15ZM187.035 436V425.2H188.985V436H187.035ZM187.965 436V434.455H194.805V436H187.965ZM187.965 431.2V429.685H194.28V431.2H187.965ZM187.965 426.745V425.2H194.64V426.745H187.965ZM195.798 436L199.773 425.2H201.453L197.718 436H195.798ZM203.943 436L200.223 425.2H201.993L205.953 436H203.943ZM197.853 431.755H203.763V433.315H197.853V431.755ZM207.309 436V425.2H210.339L213.639 435.61H212.574L215.874 425.2H218.919V436H216.999V425.845H217.314L214.104 436H212.019L208.839 425.935H209.139V436H207.309Z" fill="white"/>
</g>
<defs>
<clipPath id="clip0_1314_26">
<rect width="396" height="526" fill="white"/>
</clipPath>
</defs>
</svg>
