<svg width="249" height="482" viewBox="0 0 249 482" fill="none" xmlns="http://www.w3.org/2000/svg">
<path d="M33.5994 211.617L76.0475 337.967L76.0994 338.121L76.0505 338.255L66.5994 364.121L52.5994 338.121L18 243.586L33.5994 211.617Z" fill="#EBEBEB"/>
<path d="M124.05 105.954L137.3 78.7993L124.05 51.645L110.8 78.7993L124.05 105.954Z" fill="#EBEBEB"/>
<path d="M160.034 300.177L148 262.181L135.966 300.177L148 336.46L160.034 300.177Z" fill="#EBEBEB"/>
<path d="M112.084 300.177L100.05 262.181L88.0159 300.177L100.05 336.46L112.084 300.177Z" fill="#EBEBEB"/>
<path d="M99 0.308594V54.6172L110.8 78.7993L124.05 51.645L99 0.308594Z" fill="black" fill-opacity="0.75"/>
<path d="M136.637 226.147L166 137.617L137.3 78.7993L124.05 105.954L139.5 137.617L124.05 186.401L136.637 226.147Z" fill="black" fill-opacity="0.75"/>
<path d="M124.05 264.099L111.462 226.147L100.05 262.181L112.084 300.177L124.05 264.099Z" fill="black" fill-opacity="0.75"/>
<path d="M85.5 364.117L99.5 338.117L100.05 336.46L88.0159 300.177L76.0475 337.967L76.0994 338.121L76.0505 338.255L85.5 364.117Z" fill="black" fill-opacity="0.75"/>
<path d="M133.45 364.117L147.45 338.117L148 336.46L135.966 300.177L124 337.96L124.05 338.117L124 338.253L133.45 364.117Z" fill="black" fill-opacity="0.75"/>
<path fill-rule="evenodd" clip-rule="evenodd" d="M82.0994 137.617L110.8 78.7993L124.05 105.954L108.599 137.617L124.05 186.401L136.637 226.147L148 262.181L135.966 300.177L124.05 264.099L111.462 226.147L82.0994 137.617ZM160.034 300.177L148 336.46L148.599 338.117L162.599 364.117L171.999 338.255L172.05 338.117L172.002 337.967L160.034 300.177ZM124.05 338.117L124 338.253L114.599 364.117L100.599 338.117L100.05 336.46L112.084 300.177L124 337.96L124.05 338.117ZM76.0505 338.255L76.0994 338.121L76.0475 337.967L76 338.117L76.0505 338.255ZM88.0159 300.177L100.05 262.181L66.8945 157.494L51.2951 189.463L88.0159 300.177ZM137.3 78.7993L149.099 54.6172V0.308594L124.05 51.645L137.3 78.7993Z" fill="#EBEBEB"/>
<path d="M196.755 189.463L181.155 157.494L148 262.181L160.034 300.177L196.755 189.463Z" fill="black" fill-opacity="0.75"/>
<path fill-rule="evenodd" clip-rule="evenodd" d="M171.999 338.255L172.05 338.117L172.002 337.967L172 338.121L171.999 338.255Z" fill="#EBEBEB"/>
<path d="M181.45 364.121L195.45 338.121L230.05 243.586L214.45 211.617L172.002 337.967L172.05 338.117L171.999 338.255L181.45 364.121Z" fill="black" fill-opacity="0.75"/>
<path d="M44.928 394.353L28.296 414.441L46.656 445.617H37.512L23.112 420.345L14.472 430.713V445.617H6.696V394.353H14.472V420.129L35.424 394.353H44.928ZM63.9506 436.833V445.617H55.1666V436.833H63.9506ZM92.7737 393.921C99.6137 393.921 104.294 395.649 108.686 399.753L103.79 404.649C100.622 401.625 96.8777 400.689 92.4857 400.689C86.4377 400.689 83.1977 404.001 83.1977 408.681C83.1977 410.553 83.7017 412.281 85.0697 413.433C86.3657 414.585 87.8777 415.305 90.6857 415.737L96.8057 416.673C101.486 417.393 104.078 418.473 106.31 420.489C109.046 423.009 110.486 426.537 110.486 431.001C110.486 440.433 102.854 446.049 92.0537 446.049C84.3497 446.049 78.8777 444.249 73.9097 439.281L79.0217 434.169C82.7657 437.913 87.0137 439.137 92.1977 439.137C98.9657 439.137 102.782 436.257 102.782 431.217C102.782 428.913 102.206 427.113 100.766 425.889C99.4697 424.737 97.7417 424.089 95.1497 423.729L89.1017 422.865C84.9257 422.217 81.6857 420.921 79.4537 418.761C76.9337 416.457 75.6377 413.145 75.6377 408.897C75.6377 399.969 82.1177 393.921 92.7737 393.921ZM130.778 436.833V445.617H121.994V436.833H130.778ZM145.273 394.353H164.713C174.722 394.353 181.13 400.977 181.13 409.905C181.13 418.833 174.722 425.385 164.713 425.385H153.049V445.617H145.273V394.353ZM164.282 401.337H153.049V418.401H164.282C169.754 418.401 173.354 415.305 173.354 409.905C173.354 404.433 169.754 401.337 164.282 401.337ZM192.473 436.833V445.617H183.689V436.833H192.473ZM206.969 394.353H224.969C231.377 394.353 235.913 396.369 239.513 400.833C243.257 405.441 243.401 411.777 243.401 419.985C243.401 428.193 243.257 434.529 239.513 439.137C235.913 443.601 231.377 445.617 224.969 445.617H206.969V394.353ZM224.105 401.337H214.745V438.633H224.105C227.777 438.633 230.729 437.697 232.889 435.177C235.409 432.369 235.625 427.617 235.625 419.985C235.625 412.353 235.409 407.601 232.889 404.793C230.729 402.273 227.777 401.337 224.105 401.337Z" fill="black"/>
<path d="M20.2889 461.681L13.7369 481.617H12.0009L5.44892 461.681H7.68892L12.8689 477.809L18.0489 461.681H20.2889ZM45.4824 461.681L52.7904 481.617H50.5224L48.9264 477.109H40.2184L38.6224 481.617H36.3544L43.6904 461.681H45.4824ZM44.5864 464.705L40.8624 475.261H48.2824L44.5864 464.705ZM74.6675 461.681V479.713H84.8595V481.617H72.5395V461.681H74.6675ZM119.138 461.681L112.866 469.381L120.034 481.617H117.514L111.438 471.005L107.238 476.073V481.617H105.11V461.681H107.238V473.161L116.562 461.681H119.138ZM150.934 461.681L145.054 473.385V481.617H142.926V473.385L136.99 461.681H139.286L143.99 471.229L148.638 461.681H150.934ZM170.553 461.681H178.197C181.669 461.681 184.105 463.781 184.105 467.225C184.105 470.137 182.341 472.041 179.765 472.573L184.497 481.617H182.005L177.469 472.769H172.681V481.617H170.553V461.681ZM178.001 463.585H172.681V470.893H178.001C180.325 470.893 181.977 469.689 181.977 467.253C181.977 464.817 180.325 463.585 178.001 463.585ZM207.576 461.681V481.617H205.448V461.681H207.576ZM242.246 461.681V463.585H231.998V470.613H240.734V472.517H231.998V479.713H242.246V481.617H229.87V461.681H242.246Z" fill="black"/>
</svg>
