<svg width="983" height="218" viewBox="0 0 983 218" fill="none" xmlns="http://www.w3.org/2000/svg">
<path d="M69 1V19H83V1H69Z" fill="#03FBD1"/>
<path d="M83 19V36H97V19H83Z" fill="#03FBD1"/>
<path d="M97 36V51H111V36H97Z" fill="#03FBD1"/>
<path d="M170 51V36H156V51H170Z" fill="#FF1795"/>
<path d="M184 36V19H170V36H184Z" fill="#FF1795"/>
<path d="M198 19V1H184V19H198Z" fill="#FF1795"/>
<path d="M240 1V71H253V1H240Z" fill="#03FBD1"/>
<path d="M253 71V182H267V71H253Z" fill="#03FBD1"/>
<path d="M253 182H239V202H253V182Z" fill="#03FBD1"/>
<path d="M239 202H225V217H239V202Z" fill="#03FBD1"/>
<path d="M28 182H14V202H28V182Z" fill="#FF1795"/>
<path d="M42 202H28V217H42V202Z" fill="#FF1795"/>
<path d="M14 71H0V182H14V71Z" fill="#FF1795"/>
<path d="M27 71V1H14V71H27Z" fill="#FF1795"/>
<path d="M27 1V71H14V182H28V202H42V217H225V202H239V182H253V71H240V1H198V19H184V36H170V51H156H111H97V36H83V19H69V1H27Z" fill="white"/>
<path d="M348 46.8V52H301.2V46.8H296V5.2H301.2V0H353.2V10.4H316.8V41.6H332.4V31.2H322V20.8H348V26H353.2V46.8H348Z" fill="white"/>
<path d="M379.159 31.2V52H358.359V5.2H363.559V0H410.359V5.2H415.559V52H394.759V31.2H379.159ZM379.159 10.4V20.8H394.759V10.4H379.159Z" fill="white"/>
<path d="M441.519 26V52H420.719V0H441.519V5.2H446.719V10.4H451.919V15.6H457.119V10.4H462.319V5.2H467.519V0H488.319V52H467.519V26H462.319V31.2H457.119V36.4H451.919V31.2H446.719V26H441.519Z" fill="white"/>
<path d="M498.739 52V46.8H493.539V5.2H498.739V0H550.739V10.4H514.339V20.8H529.939V31.2H514.339V41.6H550.739V52H498.739Z" fill="white"/>
<path d="M342.8 129.8V135H296V83H342.8V88.2H348V93.4H353.2V124.6H348V129.8H342.8ZM327.2 98.6V93.4H316.8V124.6H327.2V119.4H332.4V98.6H327.2Z" fill="white"/>
<path d="M363.559 135V129.8H358.359V88.2H363.559V83H415.559V93.4H379.159V103.8H394.759V114.2H379.159V124.6H415.559V135H363.559Z" fill="white"/>
<path d="M457.119 129.8V135H420.719V83H441.519V119.4H446.719V114.2H451.919V109H457.119V83H477.919V114.2H472.719V119.4H467.519V124.6H462.319V129.8H457.119Z" fill="white"/>
<path d="M488.278 135V129.8H483.078V88.2H488.278V83H540.278V93.4H503.878V103.8H519.478V114.2H503.878V124.6H540.278V135H488.278Z" fill="white"/>
<path d="M545.438 135V83H566.237V124.6H602.638V135H545.438Z" fill="white"/>
<path d="M659.797 129.8V135H612.997V129.8H607.797V88.2H612.997V83H659.797V88.2H664.997V129.8H659.797ZM644.197 93.4H628.597V124.6H644.197V93.4Z" fill="white"/>
<path d="M690.956 114.2V135H670.156V83H722.156V88.2H727.356V109H722.156V114.2H690.956ZM690.956 93.4V103.8H706.556V93.4H690.956Z" fill="white"/>
<path d="M753.316 109V135H732.516V83H753.316V88.2H758.516V93.4H763.716V98.6H768.916V93.4H774.116V88.2H779.316V83H800.116V135H779.316V109H774.116V114.2H768.916V119.4H763.716V114.2H758.516V109H753.316Z" fill="white"/>
<path d="M810.536 135V129.8H805.336V88.2H810.536V83H862.536V93.4H826.136V103.8H841.736V114.2H826.136V124.6H862.536V135H810.536Z" fill="white"/>
<path d="M888.495 109V135H867.695V83H888.495V88.2H893.695V93.4H898.895V98.6H904.095V83H924.895V135H904.095V119.4H898.895V114.2H893.695V109H888.495Z" fill="white"/>
<path d="M966.455 93.4V135H945.655V93.4H930.055V83H982.055V93.4H966.455Z" fill="white"/>
<path d="M342.8 212.8V218H296V166H342.8V171.2H348V176.4H353.2V207.6H348V212.8H342.8ZM327.2 181.6V176.4H316.8V207.6H327.2V202.4H332.4V181.6H327.2Z" fill="white"/>
<path d="M363.559 218V212.8H358.359V171.2H363.559V166H415.559V176.4H379.159V186.8H394.759V197.2H379.159V207.6H415.559V218H363.559Z" fill="white"/>
<path d="M441.519 197.2V218H420.719V166H472.719V171.2H477.919V192H472.719V197.2H441.519ZM441.519 176.4V186.8H457.119V176.4H441.519Z" fill="white"/>
<path d="M503.878 197.2V218H483.078V171.2H488.278V166H535.078V171.2H540.278V218H519.478V197.2H503.878ZM503.878 176.4V186.8H519.478V176.4H503.878Z" fill="white"/>
<path d="M566.237 197.2V218H545.438V166H597.438V171.2H602.638V186.8H597.438V197.2H602.638V218H581.838V197.2H566.237ZM566.237 176.4V186.8H581.838V176.4H566.237Z" fill="white"/>
<path d="M644.197 176.4V218H623.397V176.4H607.797V166H659.797V176.4H644.197Z" fill="white"/>
<path d="M685.777 192V218H664.977V166H685.777V171.2H690.977V176.4H696.177V181.6H701.377V176.4H706.577V171.2H711.777V166H732.577V218H711.777V192H706.577V197.2H701.377V202.4H696.177V197.2H690.977V192H685.777Z" fill="white"/>
<path d="M742.997 218V212.8H737.797V171.2H742.997V166H794.997V176.4H758.597V186.8H774.197V197.2H758.597V207.6H794.997V218H742.997Z" fill="white"/>
<path d="M820.956 192V218H800.156V166H820.956V171.2H826.156V176.4H831.356V181.6H836.556V166H857.356V218H836.556V202.4H831.356V197.2H826.156V192H820.956Z" fill="white"/>
<path d="M898.916 176.4V218H878.116V176.4H862.516V166H914.516V176.4H898.916Z" fill="white"/>
<path d="M64 96H100V132H64V96Z" fill="#03FBD1"/>
<path d="M170 96H206V132H170V96Z" fill="#FF1795"/>
<path d="M129 139H139V155H129V139Z" fill="black"/>
<path d="M108 157H119V168H108V157Z" fill="black"/>
<path d="M119 150H129V160H119V150Z" fill="black"/>
<path d="M139 150H149V160H139V150Z" fill="black"/>
<path d="M149 157H160V168H149V157Z" fill="black"/>
<path d="M87 101H98V112H87V101Z" fill="white"/>
<path d="M193 101H204V112H193V101Z" fill="white"/>
</svg>
