<svg width="510" height="277" viewBox="0 0 510 277" fill="none" xmlns="http://www.w3.org/2000/svg">
<path d="M187 0L132 62.5H187V0Z" fill="black"/>
<path d="M178 207L233 144.5H178V207Z" fill="black"/>
<path d="M112 206V144.5H167L136 179.164L207 276.5L112 206Z" fill="black"/>
<path d="M253 0L198 62.5H253V0Z" fill="black"/>
<path d="M132 62.5H187L299 144.5H244L132 62.5Z" fill="black"/>
<path d="M121 0L66 62.5H121V0Z" fill="black"/>
<path d="M55 0L0 62.5H55V0Z" fill="black"/>
<path d="M66 62.5H121L233 144.5H178L66 62.5Z" fill="black"/>
<path d="M0 62.5H55L167 144.5H112L0 62.5Z" fill="black"/>
<path d="M256.5 198L263 192.5C261.167 190.5 255.428 187 249.5 187C241 187 231 192.5 231 206C231 219 239.5 226 249.5 226C251.9 226 254.5 225.333 255.5 225L263.5 232H264.5V204H248.5L256.5 213.5C256.333 214.667 254.7 217 249.5 217C243 217 239.5 212 239.5 206C239.5 199.5 245.361 195.722 250.5 196C253.296 196.151 255.667 197.333 256.5 198Z" fill="black"/>
<path d="M277.889 227V188.5H301.984V195.43H286.249V203.79H298.924V210.61H286.249V220.07H301.984V227H277.889Z" fill="black"/>
<path d="M313.497 227V188.5H321.857V203.735H334.357V188.5H342.717V227H334.357V210.665H321.857V227H313.497Z" fill="black"/>
<path d="M355.283 227V188.5H379.378V195.43H363.643V203.79H376.318V210.61H363.643V220.07H379.378V227H355.283Z" fill="black"/>
<path d="M390.891 227V188.5H402.496L412.766 210.865V188.5H421.126V227H413.426L399.251 199.135V227H390.891Z" fill="black"/>
<path d="M433.651 227V188.5H445.256L455.526 210.865V188.5H463.886V227H456.186L442.011 199.135V227H433.651Z" fill="black"/>
<path d="M481.625 227L484.338 217.98L486.396 211.05L491.027 196.21L495.611 211.05L498.5 221.002L500.242 227H509.1L496.704 188.5H485.489L473 227H481.625Z" fill="black"/>
<path d="M495.611 211.05H486.396L498.5 221.002L495.611 211.05Z" fill="black"/>
</svg>
