<svg width="198" height="282" viewBox="0 0 198 282" fill="none" xmlns="http://www.w3.org/2000/svg">
<path d="M29.454 246.728H29.074L31.43 244.144L36.294 247.83C36.028 248.134 35.572 248.476 34.774 248.628V258.622C34.736 258.926 32.19 259.99 30.366 259.99H29.454V246.728ZM15.774 257.33H31.658V258.394H15.774V257.33ZM15.774 251.896H31.658V252.96H15.774V251.896ZM13.38 246.728V244.638L18.852 246.728H31.734V247.792H18.586V259.268C18.586 259.762 16.306 260.902 14.14 260.902H13.38V246.728ZM21.322 237.684L28.048 238.292C27.972 238.862 27.706 239.242 26.642 239.394V266.184C26.642 266.64 24.324 267.818 22.31 267.818H21.322V237.684ZM10.72 265.386C13.38 267.97 15.926 268.312 23.184 268.312C27.44 268.312 33.216 268.312 38.042 268.16V268.578C36.028 269.11 34.888 270.668 34.66 273.062C31.468 273.062 26.908 273.062 23.222 273.062C15.774 273.062 12.848 271.846 10.302 265.956C8.744 268.274 6.388 271.238 4.83 272.948C4.83 273.48 4.564 273.746 4.184 273.898L1.486 268.198C3.804 267.476 7.832 265.956 10.72 264.778V265.386ZM10.72 256.304V265.272L5.628 267.932V255.62H1.6L1.372 254.556H5.02L7.49 251.25L12.734 255.43C12.392 255.81 11.822 256.114 10.72 256.304ZM2.436 238.938C14.786 240.458 10.15 249.958 5.286 246.31C4.944 243.726 3.614 240.99 2.17 239.128L2.436 238.938ZM11.442 242.586H29.644L32.304 239.28C32.304 239.28 35.306 241.484 37.13 243.042C37.054 243.46 36.598 243.65 36.066 243.65H11.746L11.442 242.586ZM11.176 262.536H30.29L32.95 259.268C32.95 259.268 35.952 261.472 37.814 262.992C37.7 263.41 37.282 263.6 36.712 263.6H11.48L11.176 262.536ZM41.728 245.018H54.952L57.46 241.56C57.46 241.56 60.272 243.916 61.868 245.474C61.792 245.892 61.374 246.082 60.804 246.082H42.032L41.728 245.018ZM40.892 261.13H54.648L57.27 257.482C57.27 257.482 60.196 259.952 61.906 261.586C61.792 262.004 61.374 262.194 60.804 262.194H41.196L40.892 261.13ZM42.26 252.808H54.952L57.346 249.54C57.346 249.54 60.006 251.744 61.564 253.264C61.45 253.682 61.07 253.872 60.538 253.872H42.564L42.26 252.808ZM64.642 241.446H72.356V242.51H64.642V241.446ZM61.526 241.446V238.786L67.378 241.446H66.846V272.302C66.846 272.682 65.212 273.936 62.514 273.936H61.526V241.446ZM70.228 241.446H69.734L72.508 238.786L77.79 243.498C77.486 243.916 76.992 244.068 76.042 244.068C74.522 246.614 71.824 250.642 69.43 253.264C74.18 255.696 76.27 260.028 76.27 263.41C76.27 267.324 74.598 270.098 69.582 270.098C69.582 268.502 69.354 266.222 68.974 265.5C68.708 264.968 68.1 264.512 67.188 264.246V263.828C67.872 263.828 69.088 263.828 69.506 263.828C69.848 263.828 70.038 263.79 70.304 263.638C70.836 263.334 71.14 262.764 71.14 261.7C71.14 259.002 70.38 255.81 68.442 253.378C69.164 250.338 70.038 244.6 70.228 241.446ZM48.378 238.216L55.066 238.862C54.99 239.394 54.686 239.774 53.698 239.926V256.418C53.622 264.512 50.696 270.516 41.88 273.822L41.614 273.48C46.744 269.186 48.378 263.676 48.378 256.418V238.216ZM80.45 270.744H107.696L110.85 266.754C110.85 266.754 114.384 269.414 116.512 271.2C116.398 271.618 115.98 271.808 115.372 271.808H80.754L80.45 270.744ZM85.086 258.052H104.884L107.924 254.252C107.924 254.252 111.382 256.798 113.472 258.508C113.358 258.926 112.94 259.116 112.37 259.116H85.39L85.086 258.052ZM87.48 247.222H106.024L109.026 243.536C109.026 243.536 112.332 245.892 114.46 247.678C114.346 248.096 113.928 248.286 113.32 248.286H86.948L87.48 247.222ZM95.308 238.026L102.794 238.71C102.718 239.28 102.452 239.66 101.388 239.812V271.39H95.308V238.026ZM86.378 239.09L94.054 241.294C93.902 241.788 93.408 242.13 92.496 242.13C89.684 249.464 85.656 254.442 80.412 257.824L80.032 257.558C82.73 253.036 85.352 245.968 86.378 239.09ZM133.536 241.522C133.346 241.864 132.966 242.13 132.054 241.978C129.242 244.486 124.872 247.374 120.236 249.122L119.97 248.78C123.01 245.664 126.088 240.838 127.456 237.76L133.536 241.522ZM133.992 249.122C133.802 249.502 133.46 249.768 132.51 249.692C129.66 253.036 125.176 257.254 120.046 259.99L119.704 259.648C123.048 255.62 126.24 249.464 127.646 245.588L133.992 249.122ZM130.952 253.796C130.838 254.176 130.534 254.404 129.774 254.556V271.998C129.774 272.53 127.76 273.898 125.442 273.898H124.454V253.796L125.86 251.934L130.952 253.796ZM147.102 253.34C147.064 253.834 146.798 254.176 145.886 254.328V269.186H140.452V252.808L147.102 253.34ZM147.14 238.292C147.102 238.786 146.836 239.128 145.924 239.28V252.01H140.49V237.76L147.14 238.292ZM136.348 260.978C138.59 266.564 142.428 267.742 149.686 267.742C151.13 267.742 154.512 267.742 156.222 267.742V268.122C154.664 268.54 153.904 270.668 153.942 273.1C152.878 273.1 150.446 273.1 149.42 273.1C141.668 273.1 137.602 270.668 136.082 261.092L136.348 260.978ZM140.186 256.114C140.072 256.684 139.692 257.064 138.742 257.102C138.02 263.296 136.196 269.87 129.85 274.012L129.546 273.67C132.928 268.388 133.612 260.712 133.308 255.05L140.186 256.114ZM150.636 256.114C150.636 256.114 153.448 258.28 155.12 259.8C155.044 260.218 154.626 260.408 154.056 260.408H143.644V259.344H148.166L150.636 256.114ZM150.104 241.484C150.104 241.484 152.878 243.65 154.588 245.17C154.474 245.588 154.056 245.778 153.524 245.778H133.612L133.308 244.714H147.596L150.104 241.484ZM151.396 248.058C151.396 248.058 154.284 250.338 156.032 251.896C155.918 252.314 155.5 252.504 154.968 252.504H131.788L131.484 251.44H148.812L151.396 248.058ZM181.302 261.282C197.794 264.854 193.348 277.318 187.306 272.948C186.394 268.882 183.81 264.55 180.998 261.51L181.302 261.282ZM161.39 258.204H186.166L189.092 254.518C189.092 254.518 192.436 256.988 194.45 258.66C194.336 259.078 193.918 259.268 193.348 259.268H161.694L161.39 258.204ZM168.192 251.63H179.478L182.138 248.286C182.138 248.286 185.178 250.528 187.04 252.086C186.926 252.504 186.508 252.694 185.976 252.694H168.496L168.192 251.63ZM162.15 267.742C166.672 267.704 176.78 267.362 187.952 266.83L187.99 267.324C183.658 268.92 177.274 270.63 166.596 273.138C166.33 273.594 165.874 273.898 165.418 273.974L162.15 267.742ZM171.042 258.47H178.376C175.64 262.346 171.764 267.096 168.686 269.756H167.926C169.028 266.868 170.396 261.852 171.042 258.47ZM179.402 240.762C175.982 246.614 167.584 252.314 159.49 254.898L159.262 254.518C166.026 250.414 172.524 242.662 173.854 237.304L182.024 239.356C181.872 239.926 181.34 240.192 179.972 240.306C183.468 244.676 190.726 247.222 196.084 248.02L196.046 248.628C193.614 249.426 192.17 252.048 191.828 254.214C186.128 251.668 181.492 246.956 179.402 240.762Z" fill="#1A2237"/>
<path d="M7.48628 229.478C4.71428 229.478 2.84228 227.69 2.84228 224.786C2.84228 221.954 4.76228 220.142 7.55828 220.142C8.60228 220.142 9.40628 220.382 10.1503 220.802L10.1383 222.914H9.45428L8.84228 220.514L9.70628 220.838V221.33C9.03428 220.79 8.51828 220.586 7.77428 220.586C5.98628 220.586 4.64228 222.014 4.64228 224.81C4.64228 227.438 5.92628 229.034 7.67828 229.034C8.27828 229.034 8.79428 228.914 9.33428 228.674L8.75828 229.034V228.05C8.75828 226.994 8.73428 225.998 8.71028 224.93H10.4143C10.3903 225.926 10.3663 226.934 10.3663 228.098V228.698C9.43028 229.238 8.60228 229.478 7.48628 229.478ZM7.40228 225.314V224.93H11.1823V225.314L9.74228 225.494H9.07028L7.40228 225.314ZM12.1666 229.25V228.866L14.0026 228.686H14.1706V229.25H12.1666ZM13.2826 229.25C13.3186 227.906 13.3186 226.502 13.3186 225.098V224.534C13.3186 223.13 13.3186 221.75 13.2826 220.37H15.0586C15.0226 221.726 15.0226 223.13 15.0226 224.606V224.942C15.0226 226.478 15.0226 227.87 15.0586 229.25H13.2826ZM14.1706 229.25V228.806H18.7666L17.9026 229.214L18.4906 226.874H19.1026L19.0906 229.25H14.1706ZM14.1706 224.942V224.522H17.1226V224.942H14.1706ZM16.9906 226.154L16.8106 224.822V224.57L16.9906 223.25H17.5306V226.154H16.9906ZM12.1666 220.766V220.37H14.1706V220.922H14.0026L12.1666 220.766ZM18.2386 222.674L17.6746 220.394L18.5146 220.826H14.1706V220.37H18.8626L18.8746 222.674H18.2386ZM20.4348 229.25V228.866L21.6948 228.686H22.0308L23.6748 228.866V229.25H20.4348ZM21.5988 229.25V220.694H22.0428L22.1748 226.13V229.25H21.5988ZM26.0868 220.766V220.37H29.3268V220.766L28.0668 220.922H27.7548L26.0868 220.766ZM27.2748 229.298L21.9108 221.498L21.8748 221.462L21.4788 220.85L20.4708 220.766V220.37H23.1348L27.9228 227.342L27.6948 227.426L27.6468 223.862V220.37H28.1508V229.298H27.2748ZM30.5702 229.25V228.866L32.4062 228.686H32.5742V229.25H30.5702ZM31.6862 229.25C31.7222 227.906 31.7222 226.502 31.7222 225.098V224.534C31.7222 223.13 31.7222 221.75 31.6862 220.37H33.4622C33.4262 221.726 33.4262 223.13 33.4262 224.606V224.942C33.4262 226.478 33.4262 227.87 33.4622 229.25H31.6862ZM32.5742 229.25V228.806H37.1702L36.3062 229.214L36.8942 226.874H37.5062L37.4942 229.25H32.5742ZM32.5742 224.942V224.522H35.5262V224.942H32.5742ZM35.3942 226.154L35.2142 224.822V224.57L35.3942 223.25H35.9342V226.154H35.3942ZM30.5702 220.766V220.37H32.5742V220.922H32.4062L30.5702 220.766ZM36.6422 222.674L36.0782 220.394L36.9182 220.826H32.5742V220.37H37.2662L37.2782 222.674H36.6422ZM38.9223 229.25V228.866L40.7583 228.686H41.1063L42.9423 228.866V229.25H38.9223ZM40.0383 229.25C40.0743 227.906 40.0743 226.502 40.0743 225.098V224.534C40.0743 223.13 40.0743 221.75 40.0383 220.37H41.7903C41.7543 221.738 41.7543 223.106 41.7543 224.714V225.026C41.7543 226.478 41.7543 227.87 41.7903 229.25H40.0383ZM45.9903 229.418C44.9943 229.418 44.4783 229.118 44.3463 228.29L43.9143 226.502C43.7103 225.506 43.4103 225.074 42.4383 225.074H40.9503V224.642H42.6303C43.9743 224.642 44.5863 223.754 44.5863 222.65C44.5863 221.474 43.9263 220.802 42.6303 220.802H40.9263V220.37H43.0263C45.0663 220.37 46.1943 221.186 46.1943 222.626C46.1943 223.754 45.3303 224.774 43.0623 224.906V224.774C44.9583 224.87 45.4503 225.47 45.7023 226.73L46.2543 229.118L45.4143 228.746L47.2863 228.866V229.25C46.8663 229.358 46.5303 229.418 45.9903 229.418ZM38.9223 220.766V220.37H40.9263V220.922H40.7583L38.9223 220.766ZM48.039 229.25V228.866L49.227 228.698H49.455L50.751 228.866V229.25H48.039ZM48.867 229.25L51.855 220.322H52.899L55.947 229.25H54.207L51.675 221.378H51.927L51.891 221.546L49.467 229.25H48.867ZM50.199 226.358L50.283 225.962H54.087L54.171 226.358H50.199ZM52.815 229.25V228.854L54.435 228.686H55.047L56.715 228.854V229.25H52.815ZM57.6775 229.25V228.866L59.5135 228.686H59.6935L59.6815 229.25H57.6775ZM58.7935 229.25C58.8295 227.906 58.8295 226.502 58.8295 225.35V224.534C58.8295 223.13 58.8295 221.738 58.7935 220.37H60.5695C60.5335 221.738 60.5335 223.13 60.5335 224.462V225.206C60.5335 226.478 60.5335 227.87 60.5695 229.25H58.7935ZM59.6815 229.25L59.6935 228.806H64.0375L63.1975 229.202L63.8095 226.682H64.4215L64.4095 229.25H59.6815ZM57.6775 220.766V220.37H61.7695V220.766L59.9095 220.922H59.5135L57.6775 220.766ZM71.8807 229.478C70.8847 229.478 69.8407 229.214 69.1687 228.77L69.2527 226.802H69.8767L70.4887 229.07L69.7447 228.746L69.6127 228.302C70.4047 228.854 70.9087 228.998 71.7247 228.998C72.9487 228.998 73.6687 228.422 73.6687 227.414C73.6687 226.586 73.3087 226.142 72.2287 225.674L71.6647 225.434C70.1287 224.75 69.3127 223.97 69.3127 222.602C69.3127 221.018 70.5967 220.142 72.4207 220.142C73.3567 220.142 74.1367 220.394 74.7607 220.814L74.6767 222.698H74.0407L73.4647 220.526L74.2567 220.862L74.3407 221.342C73.6687 220.814 73.2727 220.622 72.6007 220.622C71.5327 220.622 70.8007 221.15 70.8007 222.11C70.8007 222.962 71.2927 223.43 72.1807 223.814L72.7687 224.078C74.5807 224.87 75.2047 225.566 75.2047 226.874C75.2047 228.446 73.9927 229.478 71.8807 229.478ZM77.9057 229.25V228.866L79.7897 228.686H80.2577L82.1897 228.866V229.25H77.9057ZM79.1537 229.25C79.1897 227.906 79.1897 226.502 79.1897 225.098V224.534C79.1897 223.13 79.1897 221.75 79.1537 220.37H80.9297C80.8937 221.726 80.8937 223.13 80.8937 224.534V225.098C80.8937 226.478 80.8937 227.87 80.9297 229.25H79.1537ZM76.1417 222.854L76.2137 220.37H83.8817L83.9417 222.854H83.3177L82.6697 220.37L83.4737 220.826H76.5977L77.4137 220.37L76.7897 222.854H76.1417ZM89.3845 229.478C87.3925 229.478 86.0125 228.506 86.0125 225.782V224.45C86.0125 223.094 86.0125 221.726 85.9765 220.37H87.7405C87.7165 221.714 87.7165 223.07 87.7165 224.45V225.602C87.7165 227.81 88.4845 228.614 89.8765 228.614C91.3525 228.614 92.1445 227.726 92.1325 225.506L92.0965 220.37H92.6725L92.6365 225.602C92.6005 228.254 91.4725 229.478 89.3845 229.478ZM84.9205 220.766V220.37H88.9405V220.766L87.0685 220.922H86.7445L84.9205 220.766ZM90.7045 220.766V220.37H93.8845V220.766L92.5405 220.934H92.2045L90.7045 220.766ZM94.9267 229.25V228.866L96.7627 228.686H96.9307V229.25H94.9267ZM96.0427 229.25C96.0787 227.906 96.0787 226.502 96.0787 224.942V224.57C96.0787 223.13 96.0787 221.75 96.0427 220.37H97.8187C97.7827 221.726 97.7827 223.13 97.7827 224.57V224.942C97.7827 226.478 97.7827 227.87 97.8187 229.25H96.0427ZM96.9307 229.25V228.83H98.4907C100.435 228.83 101.515 227.33 101.515 224.81C101.515 222.194 100.435 220.802 98.5627 220.802H96.9307V220.37H98.7307C101.587 220.37 103.279 222.026 103.279 224.798C103.279 227.558 101.491 229.25 98.5387 229.25H96.9307ZM94.9267 220.766V220.37H96.9307V220.922H96.7627L94.9267 220.766ZM104.486 229.25V228.866L106.322 228.686H106.49V229.25H104.486ZM105.602 229.25C105.638 227.906 105.638 226.502 105.638 225.098V224.534C105.638 223.13 105.638 221.75 105.602 220.37H107.378C107.342 221.726 107.342 223.13 107.342 224.606V224.942C107.342 226.478 107.342 227.87 107.378 229.25H105.602ZM106.49 229.25V228.806H111.086L110.222 229.214L110.81 226.874H111.422L111.41 229.25H106.49ZM106.49 224.942V224.522H109.442V224.942H106.49ZM109.31 226.154L109.13 224.822V224.57L109.31 223.25H109.85V226.154H109.31ZM104.486 220.766V220.37H106.49V220.922H106.322L104.486 220.766ZM110.558 222.674L109.994 220.394L110.834 220.826H106.49V220.37H111.182L111.194 222.674H110.558ZM112.754 229.25V228.866L114.014 228.686H114.35L115.994 228.866V229.25H112.754ZM113.918 229.25V220.694H114.362L114.494 226.13V229.25H113.918ZM118.406 220.766V220.37H121.646V220.766L120.386 220.922H120.074L118.406 220.766ZM119.594 229.298L114.23 221.498L114.194 221.462L113.798 220.85L112.79 220.766V220.37H115.454L120.242 227.342L120.014 227.426L119.966 223.862V220.37H120.47V229.298H119.594ZM124.471 229.25V228.866L126.355 228.686H126.823L128.755 228.866V229.25H124.471ZM125.719 229.25C125.755 227.906 125.755 226.502 125.755 225.098V224.534C125.755 223.13 125.755 221.75 125.719 220.37H127.495C127.459 221.726 127.459 223.13 127.459 224.534V225.098C127.459 226.478 127.459 227.87 127.495 229.25H125.719ZM122.707 222.854L122.779 220.37H130.447L130.507 222.854H129.883L129.235 220.37L130.039 220.826H123.163L123.979 220.37L123.355 222.854H122.707ZM139.715 229.478C137.075 229.478 135.071 227.93 135.071 224.882C135.071 221.786 137.135 220.142 139.727 220.142C140.795 220.142 141.527 220.382 142.307 220.826L142.283 222.914H141.635L140.999 220.526L141.863 220.814V221.21C141.239 220.778 140.711 220.586 140.003 220.586C138.215 220.586 136.871 221.966 136.871 224.822C136.871 227.69 138.215 229.034 140.015 229.034C140.699 229.034 141.275 228.842 141.935 228.362V228.794L141.095 229.07L141.719 226.706H142.367L142.391 228.782C141.635 229.238 140.795 229.478 139.715 229.478ZM147.938 229.478C145.73 229.478 143.798 227.858 143.798 224.81C143.798 221.798 145.73 220.142 147.938 220.142C150.158 220.142 152.078 221.774 152.078 224.81C152.078 227.834 150.17 229.478 147.938 229.478ZM147.938 229.034C149.534 229.034 150.29 227.21 150.29 224.81C150.29 222.422 149.534 220.586 147.938 220.586C146.354 220.586 145.586 222.422 145.586 224.81C145.586 227.21 146.354 229.034 147.938 229.034ZM157.725 229.478C155.733 229.478 154.353 228.506 154.353 225.782V224.45C154.353 223.094 154.353 221.726 154.317 220.37H156.081C156.057 221.714 156.057 223.07 156.057 224.45V225.602C156.057 227.81 156.825 228.614 158.217 228.614C159.693 228.614 160.485 227.726 160.473 225.506L160.437 220.37H161.013L160.977 225.602C160.941 228.254 159.813 229.478 157.725 229.478ZM153.261 220.766V220.37H157.281V220.766L155.409 220.922H155.085L153.261 220.766ZM159.045 220.766V220.37H162.225V220.766L160.881 220.934H160.545L159.045 220.766ZM163.277 229.25V228.866L164.537 228.686H164.873L166.517 228.866V229.25H163.277ZM164.441 229.25V220.694H164.885L165.017 226.13V229.25H164.441ZM168.929 220.766V220.37H172.169V220.766L170.909 220.922H170.597L168.929 220.766ZM170.117 229.298L164.753 221.498L164.717 221.462L164.321 220.85L163.313 220.766V220.37H165.977L170.765 227.342L170.537 227.426L170.489 223.862V220.37H170.993V229.298H170.117ZM177.975 229.478C175.335 229.478 173.331 227.93 173.331 224.882C173.331 221.786 175.395 220.142 177.987 220.142C179.055 220.142 179.787 220.382 180.567 220.826L180.543 222.914H179.895L179.259 220.526L180.123 220.814V221.21C179.499 220.778 178.971 220.586 178.263 220.586C176.475 220.586 175.131 221.966 175.131 224.822C175.131 227.69 176.475 229.034 178.275 229.034C178.959 229.034 179.535 228.842 180.195 228.362V228.794L179.355 229.07L179.979 226.706H180.627L180.651 228.782C179.895 229.238 179.055 229.478 177.975 229.478ZM182.093 229.25V228.866L183.929 228.686H184.253L186.113 228.866V229.25H182.093ZM183.209 229.25C183.257 227.906 183.257 226.502 183.257 225.098V224.534C183.257 223.13 183.257 221.75 183.209 220.37H184.997C184.961 221.726 184.961 223.13 184.961 224.534V225.098C184.961 226.478 184.961 227.87 184.997 229.25H183.209ZM182.093 220.766V220.37H186.113V220.766L184.253 220.922H183.929L182.093 220.766ZM187.562 229.25V228.866L189.398 228.686H189.578L189.566 229.25H187.562ZM188.678 229.25C188.714 227.906 188.714 226.502 188.714 225.35V224.534C188.714 223.13 188.714 221.738 188.678 220.37H190.454C190.418 221.738 190.418 223.13 190.418 224.462V225.206C190.418 226.478 190.418 227.87 190.454 229.25H188.678ZM189.566 229.25L189.578 228.806H193.922L193.082 229.202L193.694 226.682H194.306L194.294 229.25H189.566ZM187.562 220.766V220.37H191.654V220.766L189.794 220.922H189.398L187.562 220.766Z" fill="#1A2237"/>
<path fill-rule="evenodd" clip-rule="evenodd" d="M99.5 201.25C151.139 201.25 193 159.389 193 107.75C193 57.9577 154.079 17.256 105 14.4091V20.921C150.486 23.7586 186.5 61.5486 186.5 107.75C186.5 116.075 185.331 124.127 183.148 131.75H172.5V141.75H167.5L165 144.25V152.75H161V150.25H155.5V148.25H150V149.879L143 151.25V155.75H135V151.25H130.5V152H127V159.75H124V156.75H119V66.75L113 59.25V43.75L107 36.25V32.25L100.25 26.25V0.75H97.75V26.25L91 32.25V36.25L85 43.75V59.25L79 66.75V155.25H71V159.75H67V156.75H63V148.25H55.5V151.75H51.5V143.75H50.2726H42.6943H39V144.75H34.5V147.75H29.5V139.25H26V130.25H15.4375C13.5214 123.073 12.5 115.531 12.5 107.75C12.5 61.8877 47.987 24.3138 93 20.9892V14.4724C44.3938 17.8101 6 58.2964 6 107.75C6 159.389 47.8614 201.25 99.5 201.25ZM98 52.75V42.75H100V52.75H98ZM95.5 71.3603C95.5 70.6237 95.6027 69.8907 95.805 69.1824L96.0602 68.2892C96.3463 67.2879 96.9369 66.4005 97.75 65.75V65.75V123.25H95.5V71.3603ZM83.9114 70.25L87.75 66.25V70.25H86.25V123.25H83.75L83.9114 70.25ZM86.25 144.25H83.75V151.75H86.25V144.25ZM97.5 144.25H95.5V151.75H97.5V144.25ZM102.5 71.3603C102.5 70.6237 102.397 69.8907 102.195 69.1824L101.94 68.2892C101.654 67.2879 101.063 66.4005 100.25 65.75V65.75V123.25H102.5V71.3603ZM114.25 70.25L110 66.25V70.25H111.75V123.25H114.25V70.25ZM111.75 144.25H114.25V151.75H111.75V144.25ZM100.5 144.25H102.5V151.75H100.5V144.25Z" fill="#1A2237"/>
<path d="M50.2726 143.75V143.051H42.6943V143.75H50.2726Z" fill="#1A2237"/>
</svg>
