<svg width="426" height="198" viewBox="0 0 426 198" fill="none" xmlns="http://www.w3.org/2000/svg">
<path d="M404.19 1.22694C400.194 3.79889 390.499 14.6406 387.017 20.5363C384.445 24.8492 383.733 27.0255 383.694 30.6657C383.694 33.396 383.852 34.1873 384.762 36.0866C385.356 37.3132 386.543 39.0542 387.413 39.9247L388.996 41.547L387.255 44.0794C384.485 48.1153 383.694 50.5686 383.694 55.0002C383.694 58.324 383.812 59.0362 384.841 61.1333C385.553 62.6369 386.978 64.5362 388.719 66.2772C391.212 68.77 391.41 69.0865 390.935 69.8383C386.899 76.2879 385.989 84.0829 388.363 91.6009C389.748 95.9534 391.726 99.0793 396.039 103.788C398.73 106.756 400.115 108.694 401.262 110.989C403.794 116.133 404.23 118.309 404.19 126.025C404.19 133.385 403.676 136.63 401.618 142.723C400.985 144.622 400.471 146.482 400.471 146.878C400.471 147.946 402.251 149.568 403.438 149.568C405.615 149.568 406.683 148.54 408.582 144.701C411.431 138.885 412.341 134.018 412.341 124.601C412.341 112.255 409.888 106.122 401.816 98.3275C396.435 93.1045 394.971 90.1368 394.931 84.4786C394.931 79.3743 396.791 73.2016 398.294 73.2016C399.363 73.2016 405.338 76.6836 408.186 78.939C417.643 86.4174 421.956 98.1692 417.881 105.371C416.377 108.022 416.575 109.09 418.712 110.198C420.413 111.108 421.64 110.673 423.025 108.773C426.032 104.619 426.863 97.3778 425.043 91.403C421.837 80.9966 414.873 73.5182 400.945 65.6045C395.525 62.5182 393.744 61.0542 392.359 58.4822C390.697 55.4355 390.776 53.4966 392.755 49.6189C393.942 47.2448 394.575 46.4535 395.248 46.3743C397.503 46.0578 407.632 50.3312 412.776 53.7736C416.535 56.306 417.999 57.8096 419.424 60.8167C421.323 64.6944 424.053 65.5649 425.24 62.6765C426.15 60.5002 425.953 57.4535 424.726 55.0002C422.906 51.3204 419.74 48.5902 414.201 45.9391C411.55 44.6333 406.248 42.101 402.449 40.2808C396.949 37.6298 395.208 36.601 394.021 35.2557C392.201 33.2377 391.766 32.1693 391.766 29.8348C391.766 27.3024 392.715 25.7988 397.899 19.9823C407.237 9.53629 409.453 6.88521 410.125 5.57945C410.798 4.31328 410.798 4.19456 410.125 2.69098C409.453 1.22694 407.909 0.000335693 406.683 0.000335693C406.406 0.000335693 405.298 0.554291 404.19 1.22694Z" fill="white"/>
<path d="M151.705 1.58269C150.043 2.57188 149.727 3.95677 150.004 9.49634C150.122 11.9891 150.162 14.2445 150.083 14.4819C150.004 14.7589 148.381 15.0359 146.126 15.1942C137.263 15.8668 127.529 18.7553 123.216 22.0395C119.615 24.8092 118.784 32.6833 120.961 43.7229C122.187 49.8164 123.374 52.9423 125.392 55.079C126.381 56.1473 127.925 57.4531 128.835 57.9674C131.842 59.7085 138.489 61.2912 145.572 61.9638C147.63 62.1617 148.421 62.3595 148.263 62.7156C148.183 62.9926 147.867 64.971 147.55 67.0681C147.194 69.8379 146.878 70.9854 146.442 71.1437C143.317 72.1724 139.399 73.953 136.788 75.4962C130.773 79.0573 124.086 86.7336 120.565 94.1724C116.45 102.877 115.817 114.55 118.586 131.169C119.773 138.093 120.486 139.992 122.385 141.179C124.245 142.327 125.55 142.287 127.054 140.982C128.241 139.992 128.32 139.795 128.122 138.054C128.004 137.025 127.529 135.482 127.133 134.651C124.799 130.021 123.335 116.449 124.284 108.417C125.273 99.7911 127.094 95.9925 133.583 89.1077C139.914 82.3811 145.137 79.8091 152.457 79.7696C155.701 79.73 156.453 79.8487 157.403 80.5609C158.788 81.5501 159.935 83.8451 160.212 86.1005C160.45 88.1976 159.698 89.5429 154.91 95.8738C149.845 102.521 148.817 105.252 148.54 113.165C148.223 121.198 149.885 126.618 154 131.129C159.223 136.867 170.223 141.061 177.227 140.072C182.964 139.28 186.565 137.5 188.187 134.769C189.928 131.762 189.295 129.111 186.604 128.201C184.665 127.568 183.201 128.003 181.183 129.744C178.414 132.197 177.108 132.672 174.338 132.435C171.727 132.197 166.345 130.338 163.655 128.795C161.004 127.212 158.155 123.967 157.165 121.277C154.673 114.669 156.176 107.151 161.478 99.712C167.137 91.7983 168.719 84.4782 166.187 77.7911C164.842 74.1113 162.547 72.0933 158.155 70.5897C156.77 70.1149 156.374 69.7984 156.493 69.284C156.612 68.9279 156.889 67.266 157.165 65.5646C157.719 62.0034 156.809 62.3991 165.514 61.6077C171.094 61.1329 172.004 60.9351 174.299 59.7876C177.424 58.284 180.709 55.079 182.331 51.9531C183.004 50.6869 184.111 47.8775 184.824 45.7013C185.892 42.338 186.129 40.9531 186.288 36.6006C186.486 32.1294 186.406 30.9819 185.615 27.8956C184.586 23.82 183.281 20.615 181.817 18.7157C179.719 15.946 175.446 14.7985 165.633 14.3237L159.302 14.0467L159.104 9.10065C158.986 6.37044 158.669 3.75894 158.392 3.28412C157.047 0.870453 154.119 0.118652 151.705 1.58269ZM168.205 22.356C173.23 22.91 176.554 25.6006 178.097 30.4279C178.572 31.892 178.888 33.633 178.809 34.2265L178.691 35.3344L169.392 35.2553C164.288 35.2157 160.014 35.0574 159.896 34.8992C159.777 34.7409 159.737 31.8128 159.817 28.41L159.935 22.1977L161.795 22.0395C163.694 21.9208 164.446 21.9208 168.205 22.356ZM150.399 29.0431V35.1761L148.737 35.374C147.788 35.4927 142.525 35.6905 136.986 35.8488L126.935 36.0862L127.212 33.9891C127.371 32.8416 127.727 31.3776 128.004 30.7049C128.755 28.9243 131.367 26.7085 133.899 25.7985C136.115 24.928 146.166 23.0682 148.935 22.9891L150.399 22.9495V29.0431ZM177.504 44.3955C177.978 44.8704 175.209 49.4998 173.586 50.8847C172.716 51.6365 171.37 52.3883 170.619 52.6257C168.799 53.1005 159.144 53.9711 158.867 53.6941C158.748 53.5754 158.788 51.4782 158.986 48.9855L159.302 44.5142L160.885 44.2768C163.101 43.9603 177.187 44.079 177.504 44.3955ZM150.004 45.1078C150.004 45.5034 149.806 47.6401 149.568 49.856L149.094 53.8128H146.284C141.734 53.8128 135.957 52.784 133.741 51.597C131.802 50.5286 129.23 47.3632 128.953 45.7013C128.835 44.9495 129.112 44.9099 134.968 44.7121C149.014 44.1977 150.004 44.2373 150.004 45.1078Z" fill="white"/>
<path d="M261.151 1.38495C259.172 2.45329 258.935 3.28423 258.658 10.4856C258.5 14.1655 258.302 17.2518 258.262 17.2914C258.223 17.3705 256.759 17.6871 254.978 18.0036C248.291 19.2698 241.446 22.1979 234.68 26.7086C227.557 31.4173 225.737 33.6331 226.924 35.9676C227.28 36.6403 227.913 37.3525 228.309 37.5899C230.09 38.5395 231.316 38.0647 235.906 34.6223C242.475 29.7158 249.32 26.5899 256.759 25.1259L258.025 24.8489V26.6295C258.025 29.0827 256.6 46.0575 255.651 55.1978C253.87 71.6582 250.744 87.9999 247.421 97.9315C243.859 108.536 238.043 120.406 234.007 125.313C230.09 130.14 229.417 131.208 229.219 133.266C228.982 135.917 229.773 136.669 232.385 136.431C234.957 136.154 236.5 134.888 240.417 129.705C247.341 120.565 252.723 108.773 256.957 93.6581C257.234 92.5898 257.629 91.7193 257.827 91.6797C257.985 91.6401 259.054 93.8955 260.201 96.7445C266.69 113.086 274.367 125.392 284.338 135.482C288.809 139.993 291.064 141.457 293.082 141.14C294.823 140.863 295.575 140.23 296.287 138.608C297.039 136.788 296.525 135.996 292.568 132.752C281.805 123.888 273.1 110.554 267.561 94.4495C264.989 86.9711 264 80.6402 263.129 66.3165C262.654 58.1654 262.852 52.6258 264.198 39.1726C264.514 36.0072 264.87 31.4964 265.029 29.1223L265.266 24.8094L268.748 25.0468C275.87 25.5611 285.644 28.1331 297.831 32.6439C301.59 34.0683 305.19 35.2158 305.823 35.2158C307.208 35.2158 308.158 34.2266 308.514 32.5252C308.87 30.705 307.921 29.518 304.795 27.9352C301.273 26.1547 290.51 22.1583 285.129 20.6151C280.539 19.3094 270.687 17.4101 268.313 17.4101C265.859 17.4101 265.82 17.2122 266.295 12.7015C266.849 7.47845 266.849 3.52164 266.216 2.76984C265.424 1.74106 263.841 0.791428 262.971 0.791428C262.536 0.830994 261.705 1.06841 261.151 1.38495Z" fill="white"/>
<path d="M355.996 4.78798C354.492 6.56854 354.651 8.07214 356.51 9.93185C357.974 11.4354 358.133 11.475 360.784 11.475C363.989 11.475 366.679 12.1872 368.816 13.6117C371.902 15.6297 373.564 21.5253 372.219 25.6009C371.23 28.6081 368.777 30.7843 360.428 36.1656C354.334 40.0433 351.367 43.4066 348.162 50.0936C346.579 53.3382 346.46 53.8526 346.46 56.7807C346.46 59.5504 346.618 60.2231 347.726 62.3994C348.438 63.7447 349.428 65.1296 349.903 65.4461C350.931 66.1979 352.672 66.277 353.899 65.644C356.313 64.4173 356.787 61.885 355.126 59.3526C354.255 58.0469 354.097 57.4533 354.255 55.7915C354.532 52.8238 356.55 49.3023 360.388 44.9498C362.287 42.7735 364.068 40.9534 364.266 40.8742C364.859 40.6764 367.115 47.0864 367.669 50.4102C368.42 54.8814 367.59 59.313 365.453 62.5576C364.938 63.349 362.881 65.367 360.823 67.0684C358.805 68.7303 356.471 70.867 355.64 71.7375C353.582 73.9533 350.773 78.2662 349.428 81.2338C346.539 87.7626 345.352 100.781 347.251 105.568C348.795 109.406 352.633 110.831 355.007 108.457C356.392 107.032 356.431 106.676 355.126 102.68C353.068 96.2302 354.097 89.7806 358.291 82.8166C360.863 78.6223 365.136 73.518 365.967 73.6763C366.877 73.8346 369.884 77.7123 371.902 81.2338C374.197 85.2698 374.593 87.723 373.762 91.9173C372.496 98.0899 370.28 102.64 365.73 108.496C358.093 118.23 355.086 127.806 356.154 138.885C356.906 146.838 357.816 149.173 360.349 149.806C362.841 150.439 364.385 148.025 363.91 144.227C362.96 136.906 362.92 135.719 363.277 132.475C363.751 128.32 365.255 123.414 367.075 119.852C367.827 118.428 370.082 115.223 372.061 112.73C376.453 107.23 378.787 103.273 380.172 99.1187C381.122 96.3094 381.241 95.3597 381.241 90.8094C381.241 86.3382 381.082 85.2698 380.172 82.5C378.906 78.7015 376.018 73.9137 372.971 70.5108L370.715 68.0576L372.338 64.7735C374.395 60.5792 375.187 56.8202 375.226 51.0433C375.226 46.3346 374.474 41.7447 373.169 38.3023L372.456 36.4426L374.554 34.6224C378.392 31.3383 380.093 25.9174 379.183 19.7052C378.313 13.6908 375.305 9.53616 369.687 6.60812C366.482 4.90668 361.654 3.56136 358.885 3.56136C357.302 3.56136 356.867 3.71964 355.996 4.78798Z" fill="white"/>
<path d="M38.619 11.3564C37.3132 11.3959 28.9643 11.7521 20.0219 12.0686C11.119 12.4247 3.3241 12.8995 2.69101 13.1369C-0.11834 14.2053 -0.909705 17.7269 1.18741 19.824L2.33489 20.9715H7.4392C10.209 20.9715 15.1946 20.7736 18.4392 20.5758C21.7233 20.4175 27.5399 20.101 31.4176 19.9427L38.4211 19.6657V24.6117C38.4211 37.4319 34.2665 48.9462 27.0651 55.9894C24.3744 58.68 19.9428 61.4894 15.709 63.1908C12.3457 64.5361 11.119 64.7735 11.119 64.0613C11.119 63.5073 12.6226 54.8815 13.0975 52.7843C13.8097 49.6584 15.0759 41.1513 15.0759 39.6081C15.0759 38.3419 14.8385 37.8671 13.691 36.8383C11.7126 35.0973 9.69459 35.1369 7.87445 36.8779L6.52913 38.1836L5.65863 49.0649C4.27374 66.5145 3.87805 76.8023 4.15503 88.6332C4.62985 110.831 6.60826 125.432 10.0111 131.881C10.8025 133.385 12.5039 135.561 14.4823 137.54C20.6154 143.673 28.5291 146.403 40.3996 146.403C55.8312 146.403 66.8707 140.547 73.3995 128.874C75.5757 124.957 77.8707 117.558 78.5829 112.097C79.3743 106.162 79.9283 80.8382 79.9678 51.6764V29.993L78.6621 28.6873C76.9606 26.9858 75.5362 26.6297 73.7952 27.4211C71.0254 28.7664 71.065 28.4499 71.8168 43.8419C72.1729 51.3994 72.4499 59.3131 72.4499 61.4102C72.4499 65.0901 72.4103 65.2879 71.5794 65.4462C65.7628 66.6332 60.3024 65.2088 53.7736 60.7771C50.6873 58.7196 47.878 56.2268 43.4067 51.5182L41.4679 49.5002L42.7341 46.6908C44.5938 42.6944 46.137 34.1477 46.9679 23.5434C47.1262 21.565 47.4031 19.8635 47.6406 19.7053C47.878 19.547 49.5003 19.5074 51.2808 19.5866C53.0218 19.6657 56.6621 19.8635 59.3923 19.9823C62.1225 20.101 67.1873 20.4966 70.6693 20.8132C74.1513 21.1297 78.2664 21.4858 79.8491 21.6441C83.1729 21.9211 84.6369 21.4463 85.6261 19.824C86.8923 17.6873 86.1009 15.0362 83.9246 13.8492C82.975 13.3348 68.1369 11.9895 58.0074 11.4751C50.3312 11.119 44.5147 11.0794 38.619 11.3564ZM39.2125 59.5901C47.047 67.5829 56.583 72.2915 67.7808 73.7555C70.1945 74.0721 72.252 74.4282 72.3311 74.5469C72.4499 74.6656 72.3707 77.9102 72.0937 81.7879C71.8563 85.6656 71.6585 90.0181 71.6585 91.4821C71.6585 93.3814 71.5002 94.1727 71.1837 94.1332C68.2952 94.0145 28.4104 94.6871 21.0111 94.9641C15.709 95.1619 11.1982 95.2015 11.0399 95.0432C10.6047 94.608 10.1298 77.831 10.486 75.5757L10.7629 73.7951L13.8097 72.6476C18.0831 71.0649 23.9787 68.1368 27.4212 65.8419C30.5075 63.7843 35.414 59.0757 35.8492 57.7699C35.9679 57.3347 36.2449 56.9786 36.3636 56.9786C36.5219 56.9786 37.8276 58.1656 39.2125 59.5901ZM71.7376 105.054C71.5398 112.018 69.7988 119.219 66.9894 125.036C65.1693 128.716 61.0542 133.029 57.6118 134.809C53.1405 137.144 45.7017 138.568 38.2233 138.568C27.3816 138.529 19.3888 134.414 15.3528 126.698C13.5327 123.255 12.9788 120.683 12.1083 111.424C11.5543 105.845 11.5147 104.302 11.9104 104.065C12.5831 103.63 19.4284 102.996 28.6082 102.442C35.6118 102.047 64.8923 101.335 69.8779 101.453L71.8563 101.493L71.7376 105.054Z" fill="white"/>
<path d="M284.971 38.1837C280.777 39.1333 276.899 41.2304 273.813 44.1585C270.41 47.4822 269.104 49.9354 269.104 53.1405C269.104 55.1585 269.262 55.5937 270.252 56.6225C270.885 57.2556 271.795 57.77 272.23 57.77C273.457 57.77 274.881 56.1872 275.593 54.0505C276.226 52.1117 278.838 47.8779 279.431 47.8779C280.144 47.8779 282.557 53.6944 283.467 57.6513C284.417 61.6476 285.723 70.3922 285.723 72.7663C285.723 73.5577 284.971 74.5469 282.716 76.7627C277.532 81.8275 276.582 83.6872 278.046 85.7843C278.363 86.2591 279.154 86.9318 279.748 87.2483C280.737 87.7627 281.014 87.7231 282.597 86.9318C285.327 85.5864 293.953 76.8023 296.802 72.4498C302.381 63.8239 304.834 56.2268 304.122 49.6189C303.568 44.475 300.284 40.2017 295.615 38.5398C293.082 37.6693 288.018 37.4714 284.971 38.1837ZM292.726 44.9103C296.921 46.6513 298.147 50.6081 296.367 56.4246C295.417 59.511 292.251 65.6836 291.618 65.6836C291.5 65.6836 291.064 63.4282 290.669 60.6584C289.917 55.2772 288.532 49.6189 287.305 46.77C286.87 45.8203 286.514 44.8707 286.514 44.6729C286.514 44.0793 291.183 44.2772 292.726 44.9103Z" fill="white"/>
<path d="M242 40.8344C241.011 41.7444 240.971 41.8632 240.813 47.8775C240.536 60.302 239.507 64.7732 232.147 86.14C230.723 90.3343 229.536 94.3702 229.536 95.122C229.536 96.1508 229.813 96.7048 230.762 97.4961C231.435 98.0501 232.385 98.5249 232.899 98.5249C234.957 98.5249 235.708 97.1796 239.665 86.2587C245.561 69.9566 247.144 62.6365 247.618 48.9854L247.856 42.3775L246.629 41.1905C245.165 39.6869 243.464 39.5682 242 40.8344Z" fill="white"/>
<path d="M186.891 63.3962C189.7 71.0278 187.711 77.7993 185.905 80.6369C184.59 82.7039 182.419 85.6758 180.557 87.644C173.688 94.9039 172.713 98.8685 172.713 103.224C172.713 108.546 173.95 111.075 178.108 114.01C181.639 116.503 186.023 117.294 190.165 117.294C199.448 117.294 203.299 111.743 204.79 106.863C207.294 98.665 202.828 92.2348 198.016 88.8246C197.373 88.3686 196.641 88.0008 196.102 89.0817L194.77 91.8157C194.096 93.3128 194.597 94.0131 195.423 95.2346C204.53 108.699 190.883 108.417 190.165 108.417C185.997 108.417 183.581 108.237 181.91 106.863C177.483 103.224 183.059 95.7043 189.444 87.4504C191.657 84.5905 192.49 80.7237 192.876 76.709C193.49 70.3254 192.208 65.3351 186.891 63.3962Z" fill="#02A0FF"/>
<path d="M15.8267 196.458C15.081 196.458 14.4764 195.853 14.4764 195.108V183.032H7.06925V195.088C7.06925 195.845 6.45608 196.458 5.6997 196.458C4.94331 196.458 4.33014 195.845 4.33014 195.088V169.587C4.33014 168.831 4.94331 168.218 5.6997 168.218C6.45608 168.218 7.06925 168.831 7.06925 169.587V180.563H14.4764V169.568C14.4764 168.822 15.081 168.218 15.8267 168.218C16.5724 168.218 17.177 168.822 17.177 169.568V195.108C17.177 195.853 16.5724 196.458 15.8267 196.458Z" fill="white"/>
<path d="M58.3794 179.252C57.865 180.409 57.222 182.184 56.4504 184.575C56.4247 184.678 56.4119 186.53 56.4119 190.131L56.4422 195.103C56.4467 195.85 55.8427 196.458 55.0961 196.458C54.3526 196.458 53.7499 195.855 53.7499 195.112C53.7499 194.801 53.7499 194.439 53.7499 194.027C53.7756 191.713 53.7885 190.401 53.7885 190.092C53.7885 186.44 53.7756 184.575 53.7499 184.498C53.5956 183.752 53.3127 182.865 52.9012 181.836C52.2067 180.087 51.8595 179.213 51.8595 179.213L48.6057 170.121C48.2738 169.194 48.9612 168.218 49.9461 168.218C50.5589 168.218 51.1029 168.61 51.2967 169.191L55.1002 180.602L58.9771 169.184C59.1733 168.607 59.7158 168.218 60.326 168.218C61.3126 168.218 62.0005 169.197 61.6662 170.125L58.3794 179.252Z" fill="white"/>
<path d="M105.829 196.458C105.153 196.458 104.566 195.992 104.413 195.333L102.745 188.163H96.2254L94.5561 195.342C94.4041 195.995 93.8215 196.458 93.1505 196.458C92.207 196.458 91.5173 195.567 91.7532 194.654L98.6428 167.974C98.7641 167.504 99.1878 167.176 99.673 167.176C100.163 167.176 100.59 167.511 100.706 167.987L107.242 194.657C107.467 195.573 106.773 196.458 105.829 196.458ZM99.5047 174.468L96.6884 185.656H102.282L99.5047 174.468Z" fill="white"/>
<path d="M228.88 196.458C228.187 196.458 227.626 195.896 227.626 195.204C227.626 194.511 228.187 193.95 228.88 193.95H231.291V170.726H228.88C228.187 170.726 227.626 170.164 227.626 169.472C227.626 168.779 228.187 168.218 228.88 168.218H236.325C237.018 168.218 237.579 168.779 237.579 169.472C237.579 170.164 237.018 170.726 236.325 170.726H233.914V193.95H236.325C237.018 193.95 237.579 194.511 237.579 195.204C237.579 195.896 237.018 196.458 236.325 196.458H228.88Z" fill="white"/>
<path d="M280.209 179.252C279.695 180.409 279.052 182.184 278.28 184.575C278.254 184.678 278.241 186.53 278.241 190.131L278.272 195.103C278.276 195.85 277.672 196.458 276.926 196.458C276.182 196.458 275.579 195.855 275.579 195.112C275.579 194.801 275.579 194.439 275.579 194.027C275.605 191.713 275.618 190.401 275.618 190.092C275.618 186.44 275.605 184.575 275.579 184.498C275.425 183.752 275.142 182.865 274.731 181.836C274.036 180.087 273.689 179.213 273.689 179.213L270.435 170.121C270.103 169.194 270.791 168.218 271.776 168.218C272.388 168.218 272.932 168.61 273.126 169.191L276.93 180.602L280.807 169.184C281.003 168.607 281.545 168.218 282.156 168.218C283.142 168.218 283.83 169.197 283.496 170.125L280.209 179.252Z" fill="white"/>
<path d="M327.659 196.458C326.983 196.458 326.395 195.992 326.242 195.333L324.575 188.163H318.055L316.386 195.342C316.234 195.995 315.651 196.458 314.98 196.458C314.037 196.458 313.347 195.567 313.583 194.654L320.472 167.974C320.594 167.504 321.017 167.176 321.503 167.176C321.993 167.176 322.419 167.511 322.536 167.987L329.072 194.657C329.296 195.573 328.602 196.458 327.659 196.458ZM321.334 174.468L318.518 185.656H324.112L321.334 174.468Z" fill="white"/>
<path d="M184.649 184.421V195.108C184.649 195.853 184.044 196.458 183.298 196.458C182.553 196.458 181.948 195.853 181.948 195.108V169.568C181.948 168.822 182.553 168.218 183.298 168.218C184.044 168.218 184.649 168.822 184.649 169.568V180.718L193.003 168.793C193.256 168.432 193.668 168.218 194.108 168.218C195.197 168.218 195.837 169.441 195.216 170.336L186.809 182.454L195.663 194.297C196.194 195.009 195.95 196.028 195.153 196.42C194.542 196.721 193.804 196.546 193.393 196.002L184.649 184.421Z" fill="white"/>
<path d="M140.339 184.421V195.107C140.339 195.853 139.735 196.457 138.989 196.457C138.243 196.457 137.639 195.853 137.639 195.107V169.568C137.639 168.822 138.243 168.218 138.989 168.218C139.735 168.218 140.339 168.822 140.339 169.568V180.717L148.694 168.792C148.946 168.432 149.358 168.218 149.798 168.218C150.887 168.218 151.527 169.441 150.907 170.335L142.5 182.453L151.353 194.297C151.885 195.008 151.64 196.027 150.843 196.42C150.233 196.721 149.494 196.545 149.084 196.002L140.339 184.421Z" fill="white"/>
<path d="M362.317 184.421V195.107C362.317 195.853 361.712 196.457 360.967 196.457C360.221 196.457 359.616 195.853 359.616 195.107V169.568C359.616 168.822 360.221 168.218 360.967 168.218C361.712 168.218 362.317 168.822 362.317 169.568V180.717L370.672 168.792C370.924 168.432 371.336 168.218 371.776 168.218C372.865 168.218 373.505 169.441 372.885 170.335L364.477 182.453L373.331 194.297C373.863 195.008 373.618 196.027 372.821 196.42C372.211 196.721 371.472 196.545 371.062 196.002L362.317 184.421Z" fill="white"/>
<path d="M417.939 186.673C417.414 193.657 414.74 197.149 409.918 197.149C406.363 197.149 403.967 195.293 402.73 191.582C402.081 189.546 401.757 186.505 401.757 182.459C401.757 178.413 402.097 175.372 402.777 173.336C403.982 169.625 406.363 167.77 409.918 167.77C413.473 167.77 415.853 169.625 417.058 173.336C417.739 175.398 418.079 178.439 418.079 182.459C418.079 184.237 418.032 185.642 417.939 186.673ZM412.282 171.094C411.757 170.579 410.969 170.321 409.918 170.321C408.836 170.321 408.032 170.579 407.506 171.094C405.93 172.615 405.142 176.403 405.142 182.459C405.142 185.114 405.219 187.085 405.373 188.374C405.714 190.977 406.424 192.794 407.506 193.824C408.032 194.34 408.836 194.598 409.918 194.598C410.969 194.598 411.757 194.34 412.282 193.824C413.89 192.278 414.694 188.49 414.694 182.459C414.694 176.429 413.89 172.64 412.282 171.094Z" fill="white"/>
</svg>
