<svg width="381" height="428" viewBox="0 0 381 428" fill="none" xmlns="http://www.w3.org/2000/svg">
<path d="M129.125 222.75V259.125H165.375V265.875H136.25C125.875 265.875 113.417 273.042 109.125 276.625C112.708 272.333 121.875 259.75 121.875 249.5V222.75H129.125Z" fill="black"/>
<path d="M251.875 222.75V259.125H215.625V265.875H244.75C255.125 265.875 267.583 273.042 271.875 276.625C268.292 272.333 259.125 259.75 259.125 249.5V222.75H251.875Z" fill="black"/>
<path d="M129.125 157.25V120.875H165.375V114.125H136.25C125.875 114.125 113.417 106.958 109.125 103.375C112.708 107.667 121.875 120.25 121.875 130.5V157.25H129.125Z" fill="black"/>
<path d="M251.875 157.25V120.875H215.625V114.125H244.75C255.125 114.125 267.583 106.958 271.875 103.375C268.292 107.667 259.125 120.25 259.125 130.5V157.25H251.875Z" fill="black"/>
<path fill-rule="evenodd" clip-rule="evenodd" d="M167.319 330.467L186.5 380H194.5L213.681 330.467C273.205 320.557 320.039 273.127 329.054 213.306L380.5 194V186L328.244 166.39C317.624 109.466 272.588 64.6509 215.549 54.3575L194.5 0H186.5L165.451 54.3575C108.412 64.6509 63.3765 109.466 52.7563 166.39L0.5 186V194L51.9465 213.306C60.9614 273.127 107.795 320.557 167.319 330.467ZM97.75 203.75L123.875 194.5V185.5L97.75 176.25C75.8983 168.805 76.2421 153.281 78.6239 145.745C92.896 111.45 122.478 85.1259 158.837 75.3054C168.125 72.7967 172.445 83.2389 176.75 95.875L185.75 122H195.25L204.25 95.875C208.555 83.2389 214.5 73.2356 222.163 75.3054C258.522 85.1259 288.104 111.45 302.376 145.746C304.758 153.281 305.102 168.805 283.25 176.25L257.125 185.5V194.5L283.25 203.75C305.517 211.336 306.436 227.311 303.987 234.675C292.03 266.646 266.951 292.212 235.303 304.819C227.998 307.321 211.881 306.522 204.25 284.125L195.25 258H185.75L176.75 284.125C169.119 306.521 153.002 307.321 145.697 304.819C114.05 292.212 88.9699 266.646 77.0129 234.675C74.5644 227.312 75.483 211.337 97.75 203.75ZM208.625 61.75L190.5 19.125L172.375 61.75L176.25 70.5L190.5 37.125L204.75 70.5L208.625 61.75ZM308.125 175.75L341.5 190L308.125 204.25L316.875 208.125L359.5 190L316.875 171.875L308.125 175.75ZM176.25 309.5L172.375 318.25L190.5 360.875L208.625 318.25L204.75 309.5L190.5 342.875L176.25 309.5ZM21.5 190L64.125 171.875L72.875 175.75L39.5 190L72.875 204.25L64.125 208.125L21.5 190Z" fill="black"/>
<path d="M190.5 250.125L179 211.125H183.25C186.25 211.125 187 208.625 187 207.375V193.875H173.25C172 193.875 169.5 194.625 169.5 197.625V201.625L130.5 190L169.5 178.375V182.375C169.5 185.375 172 186.125 173.25 186.125H187V172.625C187 171.375 186.25 168.875 183.25 168.875H179L190.5 129.875L202 168.875H197.75C194.75 168.875 194 171.375 194 172.625V186.125H207.75C209 186.125 211.5 185.375 211.5 182.375V178.375L250.5 190L211.5 201.625V197.625C211.5 194.625 209 193.875 207.75 193.875H194V207.375C194 208.625 194.75 211.125 197.75 211.125H202L190.5 250.125Z" fill="black"/>
<path d="M167.531 359.692L179.767 380H155.294L167.531 359.692Z" fill="black"/>
<path d="M115.145 425.631H106.195L90.0257 407.982L85.6225 412.169V425.631H67.75V369.473H85.6225V405.492L105.22 385.317H113.774L95.0424 403.94L115.145 425.631Z" fill="black"/>
<path d="M145.667 392.716H145.306C144.295 392.475 143.309 392.307 142.346 392.21C141.408 392.09 140.289 392.03 138.99 392.03C136.896 392.03 134.875 392.499 132.926 393.437C130.977 394.352 129.101 395.543 127.296 397.01V425.631H120.511V385.317H127.296V391.272C129.991 389.106 132.361 387.579 134.406 386.688C136.475 385.774 138.581 385.317 140.722 385.317C141.901 385.317 142.755 385.353 143.285 385.425C143.814 385.473 144.608 385.581 145.667 385.75V392.716Z" fill="black"/>
<path d="M185.675 405.492C185.675 412.061 183.991 417.246 180.622 421.047C177.253 424.849 172.742 426.75 167.088 426.75C161.385 426.75 156.85 424.849 153.481 421.047C150.137 417.246 148.464 412.061 148.464 405.492C148.464 398.923 150.137 393.738 153.481 389.937C156.85 386.111 161.385 384.198 167.088 384.198C172.742 384.198 177.253 386.111 180.622 389.937C183.991 393.738 185.675 398.923 185.675 405.492ZM178.673 405.492C178.673 400.271 177.65 396.397 175.605 393.871C173.56 391.32 170.721 390.045 167.088 390.045C163.406 390.045 160.543 391.32 158.498 393.871C156.477 396.397 155.466 400.271 155.466 405.492C155.466 410.545 156.489 414.382 158.534 417.005C160.579 419.604 163.43 420.903 167.088 420.903C170.697 420.903 173.524 419.616 175.569 417.041C177.638 414.443 178.673 410.593 178.673 405.492Z" fill="black"/>
<path d="M228.663 425.631H221.878V402.677C221.878 400.824 221.77 399.092 221.553 397.48C221.337 395.844 220.94 394.568 220.362 393.654C219.761 392.643 218.894 391.897 217.763 391.416C216.633 390.911 215.165 390.658 213.36 390.658C211.508 390.658 209.571 391.116 207.55 392.03C205.528 392.944 203.592 394.111 201.739 395.531V425.631H194.954V385.317H201.739V389.792C203.856 388.036 206.046 386.664 208.308 385.678C210.569 384.691 212.891 384.198 215.273 384.198C219.628 384.198 222.949 385.509 225.234 388.132C227.52 390.755 228.663 394.532 228.663 399.465V425.631Z" fill="black"/>
<path d="M275.348 405.492C275.348 412.061 273.664 417.246 270.295 421.047C266.927 424.849 262.415 426.75 256.761 426.75C251.059 426.75 246.523 424.849 243.155 421.047C239.81 417.246 238.138 412.061 238.138 405.492C238.138 398.923 239.81 393.738 243.155 389.937C246.523 386.111 251.059 384.198 256.761 384.198C262.415 384.198 266.927 386.111 270.295 389.937C273.664 393.738 275.348 398.923 275.348 405.492ZM268.346 405.492C268.346 400.271 267.324 396.397 265.279 393.871C263.233 391.32 260.394 390.045 256.761 390.045C253.08 390.045 250.216 391.32 248.171 393.871C246.15 396.397 245.14 400.271 245.14 405.492C245.14 410.545 246.162 414.382 248.207 417.005C250.253 419.604 253.104 420.903 256.761 420.903C260.37 420.903 263.197 419.616 265.243 417.041C267.312 414.443 268.346 410.593 268.346 405.492Z" fill="black"/>
<path d="M313.428 414.01C313.428 417.691 311.9 420.711 308.844 423.069C305.813 425.426 301.662 426.605 296.393 426.605C293.409 426.605 290.666 426.257 288.164 425.559C285.686 424.837 283.604 424.055 281.92 423.213V415.598H282.281C284.423 417.21 286.805 418.497 289.427 419.459C292.05 420.398 294.564 420.867 296.97 420.867C299.954 420.867 302.288 420.386 303.972 419.423C305.656 418.461 306.499 416.945 306.499 414.876C306.499 413.288 306.041 412.085 305.127 411.267C304.213 410.449 302.456 409.751 299.858 409.173C298.895 408.957 297.632 408.704 296.068 408.415C294.528 408.127 293.121 407.814 291.845 407.477C288.308 406.539 285.794 405.167 284.302 403.363C282.835 401.534 282.101 399.296 282.101 396.65C282.101 394.989 282.438 393.425 283.111 391.958C283.809 390.49 284.856 389.179 286.251 388.024C287.599 386.893 289.307 386.003 291.376 385.353C293.469 384.679 295.803 384.342 298.378 384.342C300.784 384.342 303.214 384.643 305.668 385.245C308.147 385.822 310.204 386.532 311.84 387.374V394.628H311.479C309.747 393.353 307.641 392.282 305.163 391.416C302.685 390.526 300.255 390.081 297.873 390.081C295.394 390.081 293.301 390.562 291.593 391.525C289.884 392.463 289.03 393.871 289.03 395.747C289.03 397.407 289.548 398.659 290.582 399.501C291.593 400.343 293.229 401.029 295.491 401.558C296.742 401.847 298.137 402.135 299.677 402.424C301.241 402.713 302.54 402.978 303.575 403.218C306.727 403.94 309.157 405.179 310.866 406.936C312.574 408.716 313.428 411.074 313.428 414.01Z" fill="black"/>
</svg>
