<svg width="373" height="430" viewBox="0 0 373 430" fill="none" xmlns="http://www.w3.org/2000/svg">
<path d="M129.756 141.578C129.756 162.602 140.658 191.803 146.109 203.775C126.807 235.29 105.487 295.167 102.992 326.931C100.794 354.898 121.54 381.18 184.461 381.18C240.717 381.18 267.887 350.329 279.467 334.904C273.387 329.848 260.058 317.338 255.381 307.744C249.535 295.751 247.714 284.398 243.497 264.657C240.124 248.864 230.72 223.45 226.44 212.717C230.209 208.884 238.898 199.838 243.497 194.318C249.247 187.418 262.741 172.994 268.413 160.586C273.265 149.972 277.834 127.672 264.033 120.442C248.333 112.219 234.503 129.974 224.037 149.972C215.664 165.971 210.206 187.289 208.524 195.949C205.632 194.023 197.928 190.203 190.834 189.539C182.829 188.789 174.26 190.174 170.265 191.558C172.741 175.123 172.879 158.178 172.879 141.578C172.879 127.608 172.69 104.073 153.437 104.073C143.759 104.073 129.756 115.298 129.756 141.578Z" fill="white"/>
<circle cx="302.314" cy="299.697" r="20" fill="white"/>
<path fill-rule="evenodd" clip-rule="evenodd" d="M191.316 4.23837C289.713 7.91834 368.351 88.8469 368.351 188.143C368.351 229.678 354.597 267.988 331.393 298.784L334.574 301.208C358.291 269.74 372.351 230.585 372.351 188.143C372.351 86.6375 291.922 3.9171 191.316 0.235556V3.02067V4.23837ZM285.917 341.616L288.11 344.961C294.395 340.793 300.414 336.257 306.139 331.384L303.53 328.351C297.937 333.112 292.056 337.543 285.917 341.616Z" fill="white"/>
<path fill-rule="evenodd" clip-rule="evenodd" d="M108.616 265.191C105.146 272.129 96.3986 299.465 94.3677 313.072C92.5662 325.143 91.1106 335.556 94.3677 344.514C47.7098 318.433 -3.92157 249.459 0.801563 176.871C5.62275 102.777 46.7321 39.0135 112.344 12.3851C134.18 3.52295 159.472 0.95085 182.781 0.309303V2.28579L190.316 2.93457L191.316 3.02067L211.25 4.73703C152.09 21.1484 115.933 66.4836 91.1716 126.136C70.1115 176.871 94.348 239.203 108.616 265.191Z" fill="white"/>
<path fill-rule="evenodd" clip-rule="evenodd" d="M190.316 2.93457L182.781 2.28579V0.309303C185.25 0.241366 187.762 0.204829 190.316 0.203125V2.93457Z" fill="white"/>
<path d="M190.316 2.93457L191.316 3.02067V0.235556L190.316 0.203125V2.93457Z" fill="white"/>
<path fill-rule="evenodd" clip-rule="evenodd" d="M336.869 110.355V83.814H340.869V110.355C340.869 161.277 320.424 200.215 315.085 208.645C313.795 210.682 310.249 215.326 305.256 221.387C305.676 221.164 306.095 220.938 306.512 220.709C332.622 206.405 357.824 176.997 366.927 164.465L370.164 166.815C360.946 179.504 335.324 209.486 308.434 224.217C305.326 225.92 302.144 227.48 298.928 228.908C297.488 230.586 295.982 232.32 294.422 234.094C283.863 246.092 270.676 260.031 258.228 270.857L255.603 267.838C267.584 257.419 280.327 244.007 290.706 232.259C275.286 238.016 259.817 241.004 248.453 242.345L247.984 238.373C260.939 236.843 279.226 233.14 296.482 225.614C304.423 216.327 310.121 209.007 311.706 206.505C316.775 198.5 336.869 160.3 336.869 110.355ZM101.337 112.64V92.5403H105.337V112.64C105.337 155.341 121.618 181.626 134.132 201.235L130.76 203.387C118.146 183.62 101.337 156.526 101.337 112.64ZM123.954 217.843C112.847 208.769 94.2549 193.168 79.4802 179.285L82.2193 176.37C96.8931 190.158 115.401 205.691 126.484 214.746L123.954 217.843ZM260.447 282.327C264.926 283.638 271.242 284.953 276.53 285.436L276.166 289.419C270.585 288.91 264.013 287.539 259.323 286.166L260.447 282.327Z" fill="white"/>
<path d="M103.43 429.129L93.1201 416.727C91.5972 416.903 90.1978 416.992 88.9219 416.992H76.5743V429.129H73.4257V392.029H88.9219C94.3548 392.029 98.6147 393.142 101.702 395.368C104.789 397.558 106.332 400.615 106.332 404.537C106.332 407.469 105.447 409.943 103.677 411.957C101.949 413.935 99.4585 415.331 96.207 416.144L107.011 429.129H103.43ZM88.9219 414.607C93.5317 414.607 97.0507 413.741 99.4791 412.01C101.907 410.243 103.122 407.752 103.122 404.537C103.122 401.321 101.907 398.848 99.4791 397.117C97.0507 395.35 93.5317 394.467 88.9219 394.467H76.5743V414.607H88.9219Z" fill="white"/>
<path d="M144.593 418.688H119.527L114.032 429.129H110.637L130.516 392.029H133.665L153.545 429.129H150.149L144.593 418.688ZM143.42 416.409L132.06 394.997L120.762 416.409H143.42Z" fill="white"/>
<path d="M187.073 409.996C190.16 410.49 192.506 411.533 194.111 413.123C195.758 414.713 196.581 416.78 196.581 419.324C196.581 422.468 195.243 424.889 192.568 426.585C189.893 428.281 185.921 429.129 180.652 429.129H161.39V392.029H179.418C184.11 392.029 187.752 392.859 190.345 394.52C192.979 396.145 194.297 398.477 194.297 401.516C194.297 403.636 193.638 405.42 192.321 406.869C191.045 408.317 189.296 409.36 187.073 409.996ZM164.539 394.361V409.148H179.294C183.081 409.148 185.982 408.529 187.999 407.293C190.057 406.021 191.086 404.166 191.086 401.728C191.086 399.325 190.057 397.505 187.999 396.269C185.982 394.997 183.081 394.361 179.294 394.361H164.539ZM180.652 426.797C184.851 426.797 188.02 426.178 190.16 424.942C192.341 423.67 193.432 421.726 193.432 419.112C193.432 416.497 192.341 414.571 190.16 413.335C188.02 412.098 184.851 411.48 180.652 411.48H164.539V426.797H180.652Z" fill="white"/>
<path d="M233.497 409.996C236.584 410.49 238.93 411.533 240.535 413.123C242.182 414.713 243.005 416.78 243.005 419.324C243.005 422.468 241.667 424.889 238.992 426.585C236.317 428.281 232.345 429.129 227.076 429.129H207.814V392.029H225.842C230.534 392.029 234.176 392.859 236.769 394.52C239.404 396.145 240.721 398.477 240.721 401.516C240.721 403.636 240.062 405.42 238.745 406.869C237.469 408.317 235.72 409.36 233.497 409.996ZM210.963 394.361V409.148H225.718C229.505 409.148 232.407 408.529 234.423 407.293C236.481 406.021 237.51 404.166 237.51 401.728C237.51 399.325 236.481 397.505 234.423 396.269C232.407 394.997 229.505 394.361 225.718 394.361H210.963ZM227.076 426.797C231.275 426.797 234.444 426.178 236.584 424.942C238.766 423.67 239.856 421.726 239.856 419.112C239.856 416.497 238.766 414.571 236.584 413.335C234.444 412.098 231.275 411.48 227.076 411.48H210.963V426.797H227.076Z" fill="white"/>
<path d="M254.238 392.029H257.387V429.129H254.238V392.029Z" fill="white"/>
<path d="M280.719 394.467H265.161V392.029H299.426V394.467H283.868V429.129H280.719V394.467Z" fill="white"/>
</svg>
