<svg width="321" height="322" viewBox="0 0 321 322" fill="none" xmlns="http://www.w3.org/2000/svg">
<path d="M147.5 0H173.5L190 48H131L147.5 0Z" fill="white"/>
<path d="M173.5 322H147.5L131 274H190L173.5 322Z" fill="white"/>
<path d="M0 174V148L48 131.5V190.5L0 174Z" fill="white"/>
<path d="M38.3665 56.7513L56.7513 38.3665L102.36 60.6404L60.6404 102.36L38.3665 56.7513Z" fill="white"/>
<path d="M38.2261 265.108L56.6109 283.493L102.219 261.219L60.5 219.5L38.2261 265.108Z" fill="white"/>
<path d="M321 174V148L273 131.5V190.5L321 174Z" fill="white"/>
<path d="M282.634 56.7512L264.249 38.3665L218.64 60.6403L260.36 102.36L282.634 56.7512Z" fill="white"/>
<path d="M282.774 265.108L264.389 283.493L218.781 261.219L260.5 219.5L282.774 265.108Z" fill="white"/>
<path fill-rule="evenodd" clip-rule="evenodd" d="M160.5 270C220.423 270 269 221.423 269 161.5C269 101.577 220.423 53 160.5 53C100.577 53 52 101.577 52 161.5C52 221.423 100.577 270 160.5 270ZM160.5 283C227.603 283 282 228.603 282 161.5C282 94.3974 227.603 40 160.5 40C93.3974 40 39 94.3974 39 161.5C39 228.603 93.3974 283 160.5 283Z" fill="white"/>
<path d="M166.102 93.6611L170.721 101.661L166.102 109.661H156.864L152.246 101.661L156.864 93.6611H166.102Z" fill="white"/>
<path fill-rule="evenodd" clip-rule="evenodd" d="M161.5 82.5C162.052 82.5 162.5 82.9477 162.5 83.5V120C162.5 120.552 162.052 121 161.5 121C160.948 121 160.5 120.552 160.5 120V83.5C160.5 82.9477 160.948 82.5 161.5 82.5Z" fill="white"/>
<path fill-rule="evenodd" clip-rule="evenodd" d="M178.154 92.0362C178.43 92.5145 178.266 93.1261 177.788 93.4022L146.178 111.652C145.7 111.928 145.088 111.764 144.812 111.286C144.536 110.808 144.7 110.196 145.178 109.92L176.788 91.6702C177.266 91.394 177.878 91.5579 178.154 92.0362Z" fill="white"/>
<path fill-rule="evenodd" clip-rule="evenodd" d="M178.154 111.286C178.43 110.808 178.266 110.196 177.788 109.92L146.178 91.67C145.7 91.3939 145.088 91.5578 144.812 92.0361C144.536 92.5144 144.7 93.126 145.178 93.4021L176.788 111.652C177.266 111.928 177.878 111.764 178.154 111.286Z" fill="white"/>
<path fill-rule="evenodd" clip-rule="evenodd" d="M146.438 103.5C146.714 103.022 147.326 102.858 147.804 103.134L153.5 106.423V113C153.5 113.552 153.052 114 152.5 114C151.948 114 151.5 113.552 151.5 113V107.577L146.804 104.866C146.326 104.59 146.162 103.978 146.438 103.5Z" fill="white"/>
<path fill-rule="evenodd" clip-rule="evenodd" d="M161.5 110.845L167.196 114.134C167.674 114.41 167.838 115.022 167.562 115.5C167.286 115.978 166.674 116.142 166.196 115.866L161.5 113.155L156.804 115.866C156.326 116.142 155.714 115.978 155.438 115.5C155.162 115.022 155.326 114.41 155.804 114.134L161.5 110.845Z" fill="white"/>
<path fill-rule="evenodd" clip-rule="evenodd" d="M161.5 92.1548L167.196 88.8661C167.674 88.59 167.838 87.9784 167.562 87.5001C167.286 87.0218 166.674 86.8579 166.196 87.1341L161.5 89.8454L156.804 87.1341C156.326 86.8579 155.714 87.0218 155.438 87.5001C155.162 87.9784 155.326 88.59 155.804 88.8661L161.5 92.1548Z" fill="white"/>
<path fill-rule="evenodd" clip-rule="evenodd" d="M177.062 103.5C176.786 103.022 176.174 102.858 175.696 103.134L170 106.423V113C170 113.552 170.448 114 171 114C171.552 114 172 113.552 172 113V107.577L176.696 104.866C177.174 104.59 177.338 103.978 177.062 103.5Z" fill="white"/>
<path fill-rule="evenodd" clip-rule="evenodd" d="M146.438 100.5C146.714 100.978 147.326 101.142 147.804 100.866L153.5 97.5774V91.0001C153.5 90.4478 153.052 90.0001 152.5 90.0001C151.948 90.0001 151.5 90.4478 151.5 91.0001V96.4227L146.804 99.1341C146.326 99.4102 146.162 100.022 146.438 100.5Z" fill="white"/>
<path fill-rule="evenodd" clip-rule="evenodd" d="M177.062 100.5C176.786 100.978 176.174 101.142 175.696 100.866L170 97.5774V91.0001C170 90.4478 170.448 90.0001 171 90.0001C171.552 90.0001 172 90.4478 172 91.0001V96.4227L176.696 99.1341C177.174 99.4102 177.338 100.022 177.062 100.5Z" fill="white"/>
<path d="M175.635 220.722V220.44H174.519V224.22L175.391 225.12V221.461C175.301 221.341 175.257 221.23 175.257 221.126C175.257 220.921 175.383 220.786 175.635 220.722Z" fill="white"/>
<path d="M220.301 225.564C220.898 225.564 221.32 225.547 221.566 225.512C221.812 225.477 222.038 225.403 222.243 225.292C222.688 225.052 222.911 224.618 222.911 223.991C222.911 223.364 222.688 222.931 222.243 222.69C222.032 222.573 221.807 222.5 221.566 222.471C221.332 222.436 220.91 222.418 220.301 222.418H216.258V225.564H217.284H220.301Z" fill="white"/>
<path d="M217.284 225.564H216.258V227.542H217.284V225.564Z" fill="white"/>
<path fill-rule="evenodd" clip-rule="evenodd" d="M265 161.5C265 219.214 218.214 266 160.5 266C102.786 266 56 219.214 56 161.5C56 103.786 102.786 57 160.5 57C218.214 57 265 103.786 265 161.5ZM252 161.5C252 110.966 211.034 70 160.5 70C109.966 70 69 110.966 69 161.5C69 179.785 74.3632 196.817 83.6024 211.109L106 193V192H104C101.2 192 100.5 191.429 100.5 190.26C100.5 189.092 101.93 187.194 102.5 186.5L108 180L113 159.5L110 165C101.941 160.127 99.9756 152.303 100 149V145.5C100 135.5 110 129 119.5 129C127.9 129 132 133 133 135C137 132.167 148.3 126.5 161.5 126.5C174.7 126.5 186 132.167 190 135C191 133 195.1 129 203.5 129C213 129 223 135.5 223 145.5V149C223.024 152.303 221.059 160.127 213 165L210 159.5L215 180L220.5 186.5C221.07 187.194 222.5 189.092 222.5 190.26C222.5 191.429 221.8 192 219 192H217V193L238.077 210.041C246.899 195.972 252 179.332 252 161.5ZM115.5 136C115.5 135.667 115.7 135 116.5 135C118.5 135 123.614 135.486 126.414 139.086C126.65 139.321 126.98 139.934 126.414 140.5C126.179 140.736 125.566 141.066 125 140.5C123.833 139.333 120.5 137 116.5 137C116.167 137 115.5 136.8 115.5 136ZM148.5 147.5L135.5 144C135.124 147.5 135.87 152.223 140.27 153.023C144.67 153.823 147.373 150.021 148.5 147.5ZM139 137.5C142.5 135.5 151.9 131.5 161.5 131.5C171.1 131.5 180.5 135.5 184 137.5L169.5 142.5L165.5 138.5L162 144L162.083 143.944C162.599 143.598 163.49 143 164.5 143C167 143 172 149.5 175 157.5C177.4 163.9 178.333 172.833 178.5 176.5L163.5 167.5V160.5L165.5 163L169 158.5C170.2 156.9 170.5 155.167 170.5 154.5C170.5 151.3 167.167 150.5 165.5 150.5H157.5C155.833 150.5 152.5 151.3 152.5 154.5C152.5 155.167 152.8 156.9 154 158.5L157.5 163L159.5 160.5V167.5L144.5 176.5C144.667 172.833 145.6 163.9 148 157.5C151 149.5 156 143 158.5 143C159.51 143 160.401 143.598 160.917 143.944L161 144L157.5 138.5L153.5 142.5L139 137.5ZM145 179L161.5 168.5L178 179C176.167 181.167 169.9 185.5 161.5 185.5C153.1 185.5 146.833 181.167 145 179ZM207.5 136C207.5 135.667 207.3 135 206.5 135C204.5 135 199.386 135.486 196.586 139.086C196.35 139.321 196.02 139.934 196.586 140.5C196.821 140.736 197.434 141.066 198 140.5C199.167 139.333 202.5 137 206.5 137C206.833 137 207.5 136.8 207.5 136ZM174.5 147.5L187.5 144C187.876 147.5 187.13 152.223 182.73 153.023C178.33 153.823 175.627 150.021 174.5 147.5ZM100.682 231.523C100.682 231.699 100.723 231.837 100.805 231.937C100.893 232.03 101.039 232.104 101.244 232.156V232.438H97.5V232.156C97.7109 232.098 97.8574 232.021 97.9395 231.928C98.0215 231.834 98.0625 231.699 98.0625 231.523V221.363C98.0625 221.182 98.0215 221.044 97.9395 220.95C97.8574 220.856 97.7109 220.78 97.5 220.722V220.44H105.006C105.92 220.44 106.644 220.493 107.177 220.599C107.716 220.704 108.185 220.889 108.583 221.152C109.046 221.457 109.392 221.87 109.62 222.392C109.837 222.896 109.945 223.435 109.945 224.009C109.945 225.966 108.858 227.111 106.685 227.445L109.014 230.759C109.424 231.339 109.723 231.714 109.91 231.884C110.104 232.048 110.338 232.139 110.613 232.156V232.438H106.271V232.156C106.57 232.109 106.72 232.004 106.72 231.84C106.72 231.734 106.582 231.479 106.307 231.075L103.881 227.542H101.784H100.682V231.523ZM115.236 227.173V230.46H122.953C123.129 230.46 123.264 230.419 123.357 230.337C123.451 230.255 123.527 230.108 123.586 229.897H123.867V233H123.586C123.527 232.789 123.451 232.643 123.357 232.561C123.264 232.479 123.129 232.438 122.953 232.438H112.055V232.156C112.266 232.098 112.412 232.021 112.494 231.928C112.576 231.834 112.617 231.696 112.617 231.515V221.363C112.617 221.182 112.576 221.044 112.494 220.95C112.412 220.856 112.266 220.78 112.055 220.722V220.44H122.742C122.918 220.44 123.053 220.399 123.146 220.317C123.24 220.229 123.316 220.08 123.375 219.869H123.656V222.972H123.375C123.316 222.767 123.24 222.623 123.146 222.541C123.053 222.459 122.918 222.418 122.742 222.418H115.236V225.266H116.284H120.105C120.281 225.266 120.416 225.225 120.51 225.143C120.604 225.061 120.68 224.914 120.738 224.703H121.02V227.735H120.738C120.68 227.53 120.604 227.387 120.51 227.305C120.416 227.217 120.281 227.173 120.105 227.173H116.284H115.236ZM126.293 231.515V221.363C126.293 221.182 126.252 221.044 126.17 220.95C126.088 220.856 125.941 220.78 125.73 220.722V220.44H132.419C133.884 220.44 135.009 220.607 135.794 220.941C136.919 221.428 137.751 222.23 138.29 223.35C138.718 224.229 138.932 225.257 138.932 226.435C138.932 228.503 138.296 230.079 137.024 231.163C136.491 231.62 135.867 231.948 135.152 232.147C134.438 232.341 133.526 232.438 132.419 232.438H129.784H128.912H125.73V232.156C125.941 232.098 126.088 232.021 126.17 231.928C126.252 231.834 126.293 231.696 126.293 231.515ZM151.676 230.917L154.418 223.991L157.063 230.776C157.245 231.192 157.336 231.456 157.336 231.567C157.336 231.896 157.131 232.092 156.721 232.156V232.438H160.632V232.156C160.216 232.086 160.008 231.907 160.008 231.62C160.008 231.479 160.09 231.198 160.254 230.776L163.69 221.926C163.872 221.463 164.019 221.167 164.13 221.038C164.241 220.909 164.443 220.804 164.736 220.722V220.44H160.614V220.722C161.036 220.804 161.247 220.974 161.247 221.231C161.247 221.384 161.186 221.615 161.062 221.926L158.698 228.192L156.255 221.82C156.155 221.562 156.105 221.387 156.105 221.293C156.105 221.018 156.305 220.827 156.703 220.722V220.44H152.344V220.722C152.736 220.798 152.933 220.971 152.933 221.24C152.933 221.328 152.877 221.51 152.766 221.785L150.199 228.166L147.826 221.82C147.732 221.568 147.686 221.375 147.686 221.24C147.686 220.977 147.87 220.804 148.239 220.722V220.44H144.073V220.722C144.337 220.774 144.536 220.88 144.671 221.038C144.812 221.19 144.967 221.486 145.137 221.926L148.573 230.776C148.737 231.21 148.819 231.471 148.819 231.559C148.819 231.881 148.623 232.08 148.23 232.156V232.438H152.089V232.156C151.655 232.045 151.438 231.854 151.438 231.585C151.438 231.491 151.518 231.269 151.676 230.917ZM166.213 221.354V231.515C166.213 231.696 166.172 231.834 166.09 231.928C166.008 232.021 165.861 232.098 165.65 232.156V232.438H169.395V232.156C169.189 232.104 169.043 232.03 168.955 231.937C168.873 231.837 168.832 231.696 168.832 231.515V221.354C168.832 221.179 168.873 221.044 168.955 220.95C169.037 220.851 169.184 220.774 169.395 220.722V220.44H165.65V220.722C165.861 220.78 166.008 220.856 166.09 220.95C166.172 221.044 166.213 221.179 166.213 221.354ZM174.519 224.22V231.515C174.519 231.696 174.56 231.834 174.642 231.928C174.724 232.021 174.87 232.098 175.081 232.156V232.438H171.557V232.156C171.768 232.098 171.914 232.021 171.996 231.928C172.078 231.834 172.119 231.696 172.119 231.515V221.354C172.119 221.179 172.078 221.044 171.996 220.95C171.914 220.856 171.768 220.78 171.557 220.722V220.44H174.519H175.635V220.722C175.383 220.786 175.257 220.921 175.257 221.126C175.257 221.23 175.301 221.341 175.391 221.461C175.422 221.503 175.46 221.547 175.503 221.592L182.121 228.474V221.354C182.121 221.179 182.08 221.044 181.998 220.95C181.916 220.856 181.77 220.78 181.559 220.722V220.44H185.083V220.722C184.872 220.78 184.726 220.856 184.644 220.95C184.562 221.044 184.521 221.179 184.521 221.354V231.515C184.521 231.696 184.562 231.834 184.644 231.928C184.726 232.021 184.872 232.098 185.083 232.156V232.438H181.304V232.156C181.55 232.104 181.673 231.978 181.673 231.778C181.673 231.661 181.529 231.456 181.242 231.163L175.391 225.12L174.519 224.22ZM193.556 231.515V222.418H197.273C197.455 222.418 197.593 222.459 197.687 222.541C197.78 222.617 197.856 222.761 197.915 222.972H198.196V219.869H197.915C197.856 220.086 197.78 220.235 197.687 220.317C197.593 220.399 197.455 220.44 197.273 220.44H187.21C187.034 220.44 186.899 220.399 186.806 220.317C186.718 220.235 186.642 220.086 186.577 219.869H186.296V222.972H186.577C186.636 222.761 186.712 222.617 186.806 222.541C186.899 222.459 187.034 222.418 187.21 222.418H190.937V231.515C190.937 231.696 190.896 231.834 190.813 231.928C190.731 232.021 190.585 232.098 190.374 232.156V232.438H194.118V232.156C193.907 232.098 193.761 232.021 193.679 231.928C193.597 231.834 193.556 231.696 193.556 231.515ZM202.582 227.173V230.46H210.299C210.475 230.46 210.609 230.419 210.703 230.337C210.797 230.255 210.873 230.108 210.932 229.897H211.213V233H210.932C210.873 232.789 210.797 232.643 210.703 232.561C210.609 232.479 210.475 232.438 210.299 232.438H199.4V232.156C199.611 232.098 199.758 232.021 199.84 231.928C199.922 231.834 199.963 231.696 199.963 231.515V221.363C199.963 221.182 199.922 221.044 199.84 220.95C199.758 220.856 199.611 220.78 199.4 220.722V220.44H210.088C210.264 220.44 210.398 220.399 210.492 220.317C210.586 220.229 210.662 220.08 210.721 219.869H211.002V222.972H210.721C210.662 222.767 210.586 222.623 210.492 222.541C210.398 222.459 210.264 222.418 210.088 222.418H202.582V225.266H203.596H207.451C207.627 225.266 207.762 225.225 207.855 225.143C207.949 225.061 208.025 224.914 208.084 224.703H208.365V227.735H208.084C208.025 227.53 207.949 227.387 207.855 227.305C207.762 227.217 207.627 227.173 207.451 227.173H203.596H202.582ZM216.258 227.542V231.523C216.258 231.699 216.299 231.837 216.381 231.937C216.469 232.03 216.615 232.104 216.82 232.156V232.438H213.076V232.156C213.287 232.098 213.434 232.021 213.516 231.928C213.598 231.834 213.639 231.699 213.639 231.523V221.363C213.639 221.182 213.598 221.044 213.516 220.95C213.434 220.856 213.287 220.78 213.076 220.722V220.44H220.582C221.496 220.44 222.22 220.493 222.753 220.599C223.292 220.704 223.761 220.889 224.159 221.152C224.622 221.457 224.968 221.87 225.196 222.392C225.413 222.896 225.521 223.435 225.521 224.009C225.521 225.966 224.435 227.111 222.261 227.445L224.59 230.759C225 231.339 225.299 231.714 225.486 231.884C225.68 232.048 225.914 232.139 226.189 232.156V232.438H221.848V232.156C222.146 232.109 222.296 232.004 222.296 231.84C222.296 231.734 222.158 231.479 221.883 231.075L219.457 227.542H217.284H216.258Z" fill="white"/>
<path d="M116.284 225.266H115.236V227.173H116.284V225.266Z" fill="white"/>
<path d="M101.784 225.564H100.682V227.542H101.784V225.564Z" fill="white"/>
<path d="M129.784 230.46H128.912V232.438H129.784V230.46Z" fill="white"/>
<path d="M202.582 227.173H203.596V225.266H202.582V227.173Z" fill="white"/>
<path d="M132.199 230.46C133.248 230.46 134.036 230.316 134.563 230.029C135.694 229.414 136.26 228.216 136.26 226.435C136.26 225.146 135.955 224.158 135.346 223.473C135.006 223.092 134.596 222.822 134.115 222.664C133.635 222.5 132.996 222.418 132.199 222.418H128.912V230.46H129.784H132.199Z" fill="white"/>
<path d="M104.725 225.564C105.322 225.564 105.744 225.547 105.99 225.512C106.236 225.477 106.462 225.403 106.667 225.292C107.112 225.052 107.335 224.618 107.335 223.991C107.335 223.364 107.112 222.931 106.667 222.69C106.456 222.573 106.23 222.5 105.99 222.471C105.756 222.436 105.334 222.418 104.725 222.418H100.682V225.564H101.784H104.725Z" fill="white"/>
</svg>
