<svg width="600" height="216" viewBox="0 0 600 216" fill="none" xmlns="http://www.w3.org/2000/svg">
<path d="M70 33.5L87 66.5" stroke="black" stroke-width="6"/>
<path d="M214.5 70.5L186.5 87" stroke="black" stroke-width="6"/>
<path d="M183 163.5L211 180.5" stroke="black" stroke-width="6"/>
<path d="M160.513 173L182.995 196.823" stroke="black" stroke-width="6"/>
<path d="M54 163L26 180" stroke="black" stroke-width="6"/>
<path d="M189.947 86.25L118.5 45L47.0529 86.25V168.75L78.5 187.5L101 154V101.5C101 98.7 98 98 96.5 98H95.5C93.5 98 93 96.6667 93 96V95C93 94.2 93.6667 94 94 94H143C143.333 94 144 94.2 144 95V96C144 96.6667 143.5 98 141.5 98H140.5C139 98 136 98.7 136 101.5V154L158.5 187.5L189.947 168.75V86.25Z" fill="black"/>
<path d="M98.3595 165L81.9042 189.5L118.5 211L154.722 189.72L144.5 174.5C142.241 176.436 139.365 177.5 136.39 177.5H132.352C127.045 177.5 121.995 175.209 118.5 171.214L113.5 165.5C112.333 164.167 109.5 161.5 105.5 161.5C102.068 161.5 99.5119 163.455 98.3595 165Z" fill="black"/>
<circle cx="132" cy="168" r="5" fill="black"/>
<circle cx="113.5" cy="152.5" r="7.5" fill="black"/>
<circle cx="21" cy="183" r="21" fill="black"/>
<circle cx="223" cy="187" r="15" fill="black"/>
<circle cx="62.5" cy="18.5" r="18.5" fill="black"/>
<circle cx="224.5" cy="65.5" r="12.5" stroke="black" stroke-width="4"/>
<circle cx="157.5" cy="59.5" r="22.5" stroke="black" stroke-width="4"/>
<circle cx="47" cy="115" r="12" stroke="black" stroke-width="4"/>
<circle cx="188.5" cy="203.5" r="10.5" stroke="black" stroke-width="4"/>
<circle cx="122" cy="138" r="4" fill="black"/>
<path d="M282.352 126.696C285.48 126.696 287.747 126.152 289.152 125.064C290.557 123.931 291.26 122.525 291.26 120.848V120.1C291.26 118.105 290.512 116.632 289.016 115.68C287.565 114.683 285.435 113.867 282.624 113.232C280.584 112.779 278.521 112.303 276.436 111.804C274.396 111.305 272.537 110.557 270.86 109.56C269.228 108.563 267.891 107.225 266.848 105.548C265.805 103.825 265.284 101.536 265.284 98.68V97.796C265.284 96.3 265.579 94.7587 266.168 93.172C266.757 91.54 267.732 90.044 269.092 88.684C270.452 87.324 272.243 86.2133 274.464 85.352C276.731 84.4453 279.519 83.992 282.828 83.992C285.548 83.992 288.155 84.2867 290.648 84.876C293.141 85.42 295.635 86.4853 298.128 88.072L294.048 94.804C292.053 93.5347 290.195 92.7187 288.472 92.356C286.749 91.948 284.913 91.744 282.964 91.744C281.423 91.744 280.085 91.9253 278.952 92.288C277.819 92.6507 276.867 93.1267 276.096 93.716C275.371 94.3053 274.827 94.94 274.464 95.62C274.101 96.3 273.92 96.98 273.92 97.66V98.476C273.92 99.6547 274.192 100.607 274.736 101.332C275.325 102.057 276.096 102.669 277.048 103.168C278 103.621 279.111 104.007 280.38 104.324C281.695 104.596 283.077 104.891 284.528 105.208C287.429 105.843 289.855 106.636 291.804 107.588C293.799 108.495 295.385 109.537 296.564 110.716C297.788 111.895 298.649 113.209 299.148 114.66C299.692 116.065 299.964 117.607 299.964 119.284V120.168C299.964 122.888 299.465 125.177 298.468 127.036C297.516 128.849 296.201 130.323 294.524 131.456C292.847 132.544 290.92 133.315 288.744 133.768C286.568 134.267 284.301 134.516 281.944 134.516C280.176 134.516 278.431 134.357 276.708 134.04C275.031 133.768 273.444 133.383 271.948 132.884C270.452 132.385 269.047 131.796 267.732 131.116C266.463 130.391 265.352 129.643 264.4 128.872L268.616 121.936C270.112 123.205 272.039 124.316 274.396 125.268C276.753 126.22 279.405 126.696 282.352 126.696ZM346.338 84.74V91.948H323.422V105.14H344.91V112.212H323.422V126.56H346.814V133.768H314.786V84.74H346.338ZM372.477 99.768C372.115 98.9067 371.752 97.9093 371.389 96.776C371.027 95.5973 370.551 94.124 369.961 92.356V133.768H361.869V84.74H374.245L386.281 115.204L397.841 84.74H410.353V133.768H402.125V92.356C401.627 94.396 401.196 95.9373 400.833 96.98C400.471 97.9773 400.131 98.9067 399.813 99.768L389.545 125.608H382.609L372.477 99.768ZM427.082 84.74H435.786V133.768H427.082V84.74ZM452.516 84.74H462.512L479.24 114.456C479.739 115.363 480.283 116.496 480.872 117.856C481.507 119.171 482.005 120.621 482.368 122.208V84.74H490.528V133.768H480.532L463.736 103.984C463.101 102.896 462.512 101.717 461.968 100.448C461.424 99.1787 460.993 97.8413 460.676 96.436V133.768H452.516V84.74ZM547.424 133.768H537.972L533.212 120.304H516.688L511.86 133.768H502.952L521.176 84.74H528.996L547.424 133.768ZM519.204 113.028H530.696L527.364 103.032C526.775 101.4 526.299 100.04 525.936 98.952C525.619 97.8187 525.279 96.6627 524.916 95.484C524.735 96.164 524.553 96.776 524.372 97.32C524.236 97.864 524.077 98.4307 523.896 99.02C523.715 99.564 523.511 100.153 523.284 100.788C523.103 101.423 522.853 102.171 522.536 103.032L519.204 113.028ZM578.597 114.116H568.601V133.768H559.897V84.74H578.461C581 84.74 583.244 85.08 585.193 85.76C587.188 86.44 588.843 87.3693 590.157 88.548C591.517 89.7267 592.537 91.1547 593.217 92.832C593.943 94.464 594.305 96.2547 594.305 98.204V100.72C594.305 103.304 593.671 105.639 592.401 107.724C591.132 109.764 589.228 111.351 586.689 112.484C588.321 116.065 589.908 119.624 591.449 123.16C593.036 126.651 594.645 130.187 596.277 133.768H586.825L578.597 114.116ZM568.601 92.016V106.84H576.625C579.98 106.84 582.315 106.251 583.629 105.072C584.989 103.893 585.669 102.375 585.669 100.516V98.476C585.669 96.572 585.035 95.0307 583.765 93.852C582.496 92.628 580.365 92.016 577.373 92.016H568.601Z" fill="black"/>
<path d="M269.24 167.94C270.267 167.94 271.033 167.733 271.54 167.32C272.06 166.907 272.32 166.413 272.32 165.84V165.52C272.32 165.2 272.267 164.92 272.16 164.68C272.053 164.44 271.873 164.227 271.62 164.04C271.367 163.853 271.04 163.687 270.64 163.54C270.24 163.38 269.747 163.24 269.16 163.12C268.48 162.973 267.847 162.807 267.26 162.62C266.673 162.42 266.167 162.173 265.74 161.88C265.313 161.573 264.973 161.2 264.72 160.76C264.48 160.307 264.36 159.753 264.36 159.1V158.74C264.36 158.247 264.46 157.773 264.66 157.32C264.86 156.853 265.167 156.44 265.58 156.08C265.993 155.72 266.507 155.433 267.12 155.22C267.747 154.993 268.473 154.88 269.3 154.88C270.18 154.88 270.98 154.987 271.7 155.2C272.42 155.413 273.087 155.727 273.7 156.14L272.76 157.68C272.227 157.32 271.687 157.06 271.14 156.9C270.593 156.74 269.987 156.66 269.32 156.66C268.413 156.66 267.687 156.86 267.14 157.26C266.607 157.66 266.34 158.147 266.34 158.72V159.04C266.34 159.373 266.413 159.66 266.56 159.9C266.707 160.127 266.92 160.327 267.2 160.5C267.48 160.673 267.827 160.827 268.24 160.96C268.653 161.08 269.127 161.2 269.66 161.32C270.553 161.52 271.293 161.753 271.88 162.02C272.48 162.273 272.96 162.567 273.32 162.9C273.68 163.233 273.933 163.607 274.08 164.02C274.24 164.433 274.32 164.887 274.32 165.38V165.74C274.32 166.407 274.187 166.987 273.92 167.48C273.667 167.973 273.313 168.393 272.86 168.74C272.407 169.073 271.86 169.32 271.22 169.48C270.593 169.653 269.913 169.74 269.18 169.74C268.153 169.74 267.207 169.573 266.34 169.24C265.487 168.92 264.76 168.52 264.16 168.04L265.16 166.42C265.427 166.62 265.733 166.813 266.08 167C266.427 167.187 266.78 167.353 267.14 167.5C267.5 167.633 267.86 167.74 268.22 167.82C268.593 167.9 268.933 167.94 269.24 167.94ZM288.204 167.9C287.484 168.593 286.698 169.073 285.844 169.34C284.991 169.607 284.078 169.74 283.104 169.74C282.238 169.74 281.451 169.607 280.744 169.34C280.038 169.087 279.431 168.693 278.924 168.16C278.418 167.627 278.024 166.967 277.744 166.18C277.464 165.393 277.324 164.467 277.324 163.4V161.22C277.324 160.167 277.464 159.247 277.744 158.46C278.024 157.673 278.418 157.013 278.924 156.48C279.444 155.947 280.058 155.547 280.764 155.28C281.471 155.013 282.251 154.88 283.104 154.88C284.104 154.88 284.978 155.007 285.724 155.26C286.471 155.5 287.184 155.887 287.864 156.42L286.844 158.04C286.191 157.507 285.564 157.153 284.964 156.98C284.378 156.807 283.758 156.72 283.104 156.72C282.558 156.72 282.051 156.813 281.584 157C281.131 157.187 280.731 157.473 280.384 157.86C280.051 158.247 279.791 158.74 279.604 159.34C279.418 159.94 279.324 160.653 279.324 161.48V163.14C279.324 163.967 279.418 164.68 279.604 165.28C279.791 165.88 280.051 166.373 280.384 166.76C280.731 167.147 281.131 167.433 281.584 167.62C282.051 167.807 282.558 167.9 283.104 167.9C283.798 167.9 284.491 167.793 285.184 167.58C285.878 167.367 286.524 166.967 287.124 166.38L288.204 167.9ZM293.415 155.1V169.52H291.435V155.1H293.415ZM306.469 155.1V156.8H299.469V161.28H306.049V162.98H299.469V167.82H306.609V169.52H297.489V155.1H306.469ZM312.522 155.1L318.122 164.82C318.269 165.06 318.429 165.367 318.602 165.74C318.789 166.1 318.969 166.493 319.142 166.92V155.1H320.982V169.52H318.702L313.102 159.84C312.956 159.573 312.789 159.26 312.602 158.9C312.429 158.54 312.256 158.147 312.082 157.72V169.52H310.242V155.1H312.522ZM335.506 167.9C334.786 168.593 333.999 169.073 333.146 169.34C332.292 169.607 331.379 169.74 330.406 169.74C329.539 169.74 328.752 169.607 328.046 169.34C327.339 169.087 326.732 168.693 326.226 168.16C325.719 167.627 325.326 166.967 325.046 166.18C324.766 165.393 324.626 164.467 324.626 163.4V161.22C324.626 160.167 324.766 159.247 325.046 158.46C325.326 157.673 325.719 157.013 326.226 156.48C326.746 155.947 327.359 155.547 328.066 155.28C328.772 155.013 329.552 154.88 330.406 154.88C331.406 154.88 332.279 155.007 333.026 155.26C333.772 155.5 334.486 155.887 335.166 156.42L334.146 158.04C333.492 157.507 332.866 157.153 332.266 156.98C331.679 156.807 331.059 156.72 330.406 156.72C329.859 156.72 329.352 156.813 328.886 157C328.432 157.187 328.032 157.473 327.686 157.86C327.352 158.247 327.092 158.74 326.906 159.34C326.719 159.94 326.626 160.653 326.626 161.48V163.14C326.626 163.967 326.719 164.68 326.906 165.28C327.092 165.88 327.352 166.373 327.686 166.76C328.032 167.147 328.432 167.433 328.886 167.62C329.352 167.807 329.859 167.9 330.406 167.9C331.099 167.9 331.792 167.793 332.486 167.58C333.179 167.367 333.826 166.967 334.426 166.38L335.506 167.9ZM347.717 155.1V156.8H340.717V161.28H347.297V162.98H340.717V167.82H347.857V169.52H338.737V155.1H347.717ZM351.85 167.94H354.15L352.61 172.5H351.01L351.85 167.94ZM365.949 155.1V169.52H363.969V155.1H365.949ZM372.303 155.1L377.903 164.82C378.049 165.06 378.209 165.367 378.383 165.74C378.569 166.1 378.749 166.493 378.923 166.92V155.1H380.763V169.52H378.483L372.883 159.84C372.736 159.573 372.569 159.26 372.383 158.9C372.209 158.54 372.036 158.147 371.863 157.72V169.52H370.023V155.1H372.303ZM387.926 169.52V156.8H383.526V155.1H394.306V156.8H389.906V169.52H387.926ZM406.052 155.1V156.8H399.052V161.28H405.632V162.98H399.052V167.82H406.192V169.52H397.072V155.1H406.052ZM411.805 155.1V167.82H418.705V169.52H409.825V155.1H411.805ZM423.523 155.1V167.82H430.423V169.52H421.543V155.1H423.523ZM435.241 155.1V169.52H433.261V155.1H435.241ZM449.935 168.44C449.295 168.88 448.542 169.207 447.675 169.42C446.822 169.633 445.942 169.74 445.035 169.74C444.075 169.74 443.215 169.607 442.455 169.34C441.695 169.087 441.048 168.693 440.515 168.16C439.995 167.627 439.588 166.967 439.295 166.18C439.015 165.393 438.875 164.467 438.875 163.4V161.22C438.875 160.167 439.015 159.247 439.295 158.46C439.575 157.673 439.975 157.013 440.495 156.48C441.015 155.947 441.642 155.547 442.375 155.28C443.122 155.013 443.955 154.88 444.875 154.88C445.808 154.88 446.668 155 447.455 155.24C448.242 155.48 448.975 155.867 449.655 156.4L448.635 158C448.008 157.507 447.395 157.167 446.795 156.98C446.195 156.78 445.555 156.68 444.875 156.68C443.622 156.68 442.635 157.067 441.915 157.84C441.208 158.6 440.855 159.813 440.855 161.48V163.14C440.855 164.807 441.235 166.027 441.995 166.8C442.768 167.56 443.802 167.94 445.095 167.94C445.642 167.94 446.155 167.893 446.635 167.8C447.128 167.693 447.568 167.547 447.955 167.36V163.3H444.755V161.6H449.935V168.44ZM462.513 155.1V156.8H455.513V161.28H462.093V162.98H455.513V167.82H462.653V169.52H453.533V155.1H462.513ZM468.566 155.1L474.166 164.82C474.313 165.06 474.473 165.367 474.646 165.74C474.833 166.1 475.013 166.493 475.186 166.92V155.1H477.026V169.52H474.746L469.146 159.84C468.999 159.573 468.833 159.26 468.646 158.9C468.473 158.54 468.299 158.147 468.126 157.72V169.52H466.286V155.1H468.566ZM491.55 167.9C490.83 168.593 490.043 169.073 489.19 169.34C488.336 169.607 487.423 169.74 486.45 169.74C485.583 169.74 484.796 169.607 484.09 169.34C483.383 169.087 482.776 168.693 482.27 168.16C481.763 167.627 481.37 166.967 481.09 166.18C480.81 165.393 480.67 164.467 480.67 163.4V161.22C480.67 160.167 480.81 159.247 481.09 158.46C481.37 157.673 481.763 157.013 482.27 156.48C482.79 155.947 483.403 155.547 484.11 155.28C484.816 155.013 485.596 154.88 486.45 154.88C487.45 154.88 488.323 155.007 489.07 155.26C489.816 155.5 490.53 155.887 491.21 156.42L490.19 158.04C489.536 157.507 488.91 157.153 488.31 156.98C487.723 156.807 487.103 156.72 486.45 156.72C485.903 156.72 485.396 156.813 484.93 157C484.476 157.187 484.076 157.473 483.73 157.86C483.396 158.247 483.136 158.74 482.95 159.34C482.763 159.94 482.67 160.653 482.67 161.48V163.14C482.67 163.967 482.763 164.68 482.95 165.28C483.136 165.88 483.396 166.373 483.73 166.76C484.076 167.147 484.476 167.433 484.93 167.62C485.396 167.807 485.903 167.9 486.45 167.9C487.143 167.9 487.836 167.793 488.53 167.58C489.223 167.367 489.87 166.967 490.47 166.38L491.55 167.9ZM503.761 155.1V156.8H496.761V161.28H503.341V162.98H496.761V167.82H503.901V169.52H494.781V155.1H503.761ZM507.894 167.94H510.194L508.654 172.5H507.054L507.894 167.94ZM528.933 155.1V156.8H521.993V161.62H528.513V163.32H521.993V169.52H520.013V155.1H528.933ZM543.033 155.1V163.74C543.033 164.833 542.913 165.76 542.673 166.52C542.433 167.28 542.086 167.9 541.633 168.38C541.179 168.86 540.619 169.207 539.953 169.42C539.286 169.633 538.526 169.74 537.673 169.74C536.819 169.74 536.059 169.633 535.393 169.42C534.726 169.207 534.166 168.86 533.713 168.38C533.259 167.9 532.913 167.28 532.673 166.52C532.433 165.76 532.313 164.833 532.313 163.74V155.1H534.293V163.5C534.293 164.313 534.359 165.007 534.493 165.58C534.626 166.14 534.833 166.6 535.113 166.96C535.393 167.307 535.746 167.56 536.173 167.72C536.599 167.88 537.099 167.96 537.673 167.96C538.246 167.96 538.746 167.88 539.173 167.72C539.599 167.56 539.953 167.307 540.233 166.96C540.513 166.6 540.719 166.14 540.853 165.58C540.986 165.007 541.053 164.313 541.053 163.5V155.1H543.033ZM550.025 169.52V156.8H545.625V155.1H556.405V156.8H552.005V169.52H550.025ZM569.73 155.1V163.74C569.73 164.833 569.61 165.76 569.37 166.52C569.13 167.28 568.784 167.9 568.33 168.38C567.877 168.86 567.317 169.207 566.65 169.42C565.984 169.633 565.224 169.74 564.37 169.74C563.517 169.74 562.757 169.633 562.09 169.42C561.424 169.207 560.864 168.86 560.41 168.38C559.957 167.9 559.61 167.28 559.37 166.52C559.13 165.76 559.01 164.833 559.01 163.74V155.1H560.99V163.5C560.99 164.313 561.057 165.007 561.19 165.58C561.324 166.14 561.53 166.6 561.81 166.96C562.09 167.307 562.444 167.56 562.87 167.72C563.297 167.88 563.797 167.96 564.37 167.96C564.944 167.96 565.444 167.88 565.87 167.72C566.297 167.56 566.65 167.307 566.93 166.96C567.21 166.6 567.417 166.14 567.55 165.58C567.684 165.007 567.75 164.313 567.75 163.5V155.1H569.73ZM575.622 169.52H573.642V155.1H578.862C579.596 155.1 580.249 155.2 580.822 155.4C581.396 155.6 581.876 155.873 582.262 156.22C582.649 156.567 582.942 156.98 583.142 157.46C583.356 157.94 583.462 158.467 583.462 159.04V159.56C583.462 160.373 583.249 161.093 582.822 161.72C582.409 162.347 581.816 162.813 581.042 163.12L583.902 169.52H581.762L579.162 163.5H575.622V169.52ZM575.622 161.82H578.382C579.502 161.82 580.296 161.613 580.762 161.2C581.242 160.773 581.482 160.207 581.482 159.5V159.1C581.482 158.393 581.249 157.833 580.782 157.42C580.316 157.007 579.582 156.8 578.582 156.8H575.622V161.82ZM596.313 155.1V156.8H589.313V161.28H595.893V162.98H589.313V167.82H596.453V169.52H587.333V155.1H596.313Z" fill="black"/>
</svg>
