<svg width="293" height="346" viewBox="0 0 293 346" fill="none" xmlns="http://www.w3.org/2000/svg">
<path d="M52.6993 243.405C27.4696 200.788 10.6868 143.498 10.2584 64.6017C15.5545 63.7673 21.2841 61.7786 25.8952 56.7372C31.1234 51.021 34.3875 41.9589 34.7216 27.9257C73.476 13.3333 99.439 10 146.25 10.0002C193.064 10 219.027 13.3337 257.786 27.9286C258.215 42.1905 262.434 51.3833 268.15 57.0999C272.857 61.8066 278.299 63.8752 282.741 64.6379C282.305 143.511 265.402 200.788 240.054 243.398C214.798 285.855 181.014 313.994 146.25 334.446C111.494 313.996 77.8333 285.86 52.6993 243.405Z" stroke="white" stroke-width="7"/>
<path d="M46.4656 248.243C19.6393 202.929 1.98432 142.032 1.85762 58.228C7.69607 57.6162 13.9767 55.903 18.8558 50.5685C23.9046 45.0484 27.2896 35.8302 27.3879 20.4903C69.0917 4.59914 96.5551 0.999747 146.239 1C195.924 0.999747 223.388 4.59918 265.092 20.4906C265.218 35.9001 269.571 45.2799 275.152 50.8612C280.415 56.1243 286.657 57.8955 291.142 58.2598C291.01 142.046 273.227 202.933 246.275 248.241C219.344 293.513 183.217 323.302 146.239 344.843C109.265 323.303 73.2669 293.515 46.4656 248.243Z" stroke="white" stroke-width="2"/>
<path d="M129.25 181.5C129.25 187.9 126.25 194.833 124.75 197.5C123.15 201.1 122.75 208.833 122.75 211.5C122.75 218.3 125.971 223.663 130.758 227.929L137.701 233.72C136.501 231.32 136.25 229.167 136.25 228.5C136.25 219.5 146.25 213.5 153.25 211L152.75 221C154.583 219 159.05 214.4 162.25 212C165.45 209.6 170.583 207 172.75 206C172.35 209.6 168.917 213.833 167.25 215.5C170.083 213.667 176.55 209.3 179.75 206.5C182.95 203.7 185.75 199.667 186.75 198C187.95 195.6 187.75 190.5 186.25 187C187.417 187.333 189.75 188.7 189.75 191.5C189.75 194.3 189.417 196.333 189.25 197C195.25 190.6 196.75 177 196.75 171C196.75 154.225 185.75 149 180.25 147.5C185.05 146.7 190.917 150.5 193.25 152.5C192.417 149.5 189.224 142.789 183.75 139C179.417 136 175.25 134.5 175.25 134.5C175.25 134.5 171.854 136.198 167.25 138.5C162.25 141 158.083 142.333 156.75 142C159.083 141 165.05 138.2 170.25 135C175.45 131.8 180.75 128.5 183.25 123.5C176.25 124 172.15 124.9 165.75 126.5C157.75 128.5 150.75 132 147.75 132C150.583 129.333 157.45 123.6 162.25 122C168.25 120 176.25 117.5 185.25 122C194.25 126.5 200.25 133 199.25 141C199.917 140.167 201.25 137.5 201.25 133.5C201.25 129.435 197.878 120.48 189.665 113.686C189.625 114.52 189.024 116.314 186.939 116.812C187.348 116.229 188.13 114.526 187.991 112.383C186.004 110.928 183.768 109.605 181.267 108.493C181.527 109.876 181.407 112.96 178.851 114.233C179.277 113.149 179.972 110.325 179.342 107.702C176.531 106.634 173.413 105.831 169.968 105.388C170.692 107.178 171.348 111.537 168.178 114.655C168.913 113.121 169.821 109.072 167.571 105.143C166.336 105.049 165.063 105 163.75 105C161.461 105 159.301 105.069 157.26 105.2C158.715 106.832 161.401 111.083 160.513 115.026C160.206 113.004 158.498 108.26 154.122 105.457C152.13 105.831 147.709 107.971 145.737 109.57C147.36 110.253 150.624 112.729 150.866 117.994C150.494 117.378 149.429 115.764 148.146 114.233C147.296 113.159 145.144 111.01 143.345 111.01C141.545 111.01 138.319 114.323 136.931 115.979C135.505 117.682 132.603 121.325 131.055 125.093C130.755 125.826 129.886 127.005 128.846 126.518C127.805 126.03 128.269 124.688 128.722 123.693C132.875 114.575 137.111 111.704 146.73 106.579C132.101 109.637 126.031 116.462 122.25 121C118.295 125.746 116.417 132.167 115.25 134.5C106.088 142.216 99.75 148.5 96.25 162L88.2096 172.914C87.6099 173.814 87.4692 174.214 87.5322 174.675C87.6845 175.789 89.1248 176.583 89.75 177C89.9783 177.143 90.3044 177.31 90.7156 177.489C92.9139 175.145 94.2723 171.201 94.6768 169.522C95.0298 173.11 93.5405 176.821 92.7518 178.228C94.9145 178.893 97.9305 179.5 101.25 179.5C106.75 179.5 110.821 178 113.25 177C121.75 173.5 129.25 172.418 129.25 181.5Z" fill="white"/>
<path fill-rule="evenodd" clip-rule="evenodd" d="M205.201 134.962L251.014 109.427C257.188 105.985 261.531 99.9973 262.885 93.0596L264.75 83.5L200.168 119.496C200.891 120.601 201.529 121.699 202.086 122.771C204.127 126.697 205.25 130.6 205.25 133.5C205.25 134.001 205.233 134.488 205.201 134.962Z" fill="white"/>
<path fill-rule="evenodd" clip-rule="evenodd" d="M200.37 165.556C200.617 167.253 200.75 169.066 200.75 171C200.75 174.208 200.362 179.29 199.21 184.473L223.514 170.927C229.688 167.485 234.031 161.497 235.385 154.56L237.25 145L200.37 165.556ZM121.095 195.875C120.668 196.835 120.325 197.946 120.048 199.109L69.4865 170.927C63.3122 167.485 58.969 161.497 57.6153 154.56L55.75 145L89.776 163.965L85.4834 169.689C85.4183 169.786 85.3532 169.884 85.2907 169.983C81.6297 175.736 84.7797 179.449 86.8388 180.596C89.5554 182.113 95.349 183.327 100.219 183.483C100.559 183.494 100.903 183.5 101.25 183.5C107.504 183.5 112.135 181.785 114.773 180.699C115.848 180.256 116.848 179.88 117.771 179.569L125.122 183.666C124.578 188.49 122.431 193.464 121.264 195.539L121.171 195.703L121.095 195.875ZM237.514 139.927L199.755 160.973L197.104 151.429C197.02 151.127 196.92 150.803 196.804 150.46L202.373 143.499C202.946 142.783 203.571 141.691 204.091 140.285L251.25 114L249.385 123.56C248.031 130.497 243.688 136.485 237.514 139.927ZM41.75 114L98.8964 145.852C96.2993 149.783 94.174 154.379 92.5838 160.222L92.3814 160.491L55.4865 139.927C49.3122 136.485 44.969 130.497 43.6153 123.56L41.75 114Z" fill="white"/>
<path d="M28.25 83.5L30.1153 93.0596C31.469 99.9973 35.8122 105.985 41.9865 109.427L101.336 142.507C104.396 138.687 107.97 135.426 111.981 132.025L112.596 130.513L28.25 83.5Z" fill="white"/>
<path d="M147.155 80.2771C147.186 80.1869 147.314 80.1869 147.345 80.2771L148.303 83.0844C149.004 85.1354 150.615 86.7463 152.666 87.4467L155.473 88.4054C155.563 88.4362 155.563 88.5638 155.473 88.5946L152.666 89.5533C150.615 90.2537 149.004 91.8646 148.303 93.9156L147.345 96.7229C147.314 96.8131 147.186 96.8131 147.155 96.7229L146.197 93.9156C145.496 91.8646 143.885 90.2537 141.834 89.5533L139.027 88.5946C138.937 88.5638 138.937 88.4362 139.027 88.4054L141.834 87.4467C143.885 86.7463 145.496 85.1354 146.197 83.0844L147.155 80.2771Z" fill="white"/>
<path d="M132.136 278.244C132.136 289.086 128.002 294.702 117.472 294.702C107.878 294.702 103.276 289.632 103.12 280.506C103.12 280.038 103.276 279.726 103.744 279.648L112.09 278.322C112.636 278.244 112.948 278.478 112.948 278.946C113.104 283.86 114.508 285.81 117.55 285.81C120.436 285.81 121.762 284.328 121.762 279.492C121.762 274.812 120.826 273.174 116.848 271.614L113.65 270.366C106.162 267.48 103.588 263.502 103.588 255C103.588 245.406 108.19 240.258 117.628 240.258C126.91 240.258 131.278 245.094 131.668 253.44C131.668 253.908 131.434 254.22 130.966 254.298L123.01 255.546C122.542 255.624 122.152 255.39 122.152 254.922C122.074 251.1 120.748 249.15 117.94 249.15C115.21 249.15 113.884 250.866 113.884 254.454C113.884 258.432 114.742 259.68 118.876 261.318L122.074 262.566C129.328 265.374 132.136 269.274 132.136 278.244ZM164.416 294H155.056C154.588 294 154.354 293.844 154.198 293.376L148.192 273.252H145.228C144.916 273.252 144.76 273.408 144.76 273.72V293.22C144.76 293.688 144.448 294 143.98 294H135.322C134.854 294 134.542 293.688 134.542 293.22V241.74C134.542 241.272 134.854 240.96 135.322 240.96H147.958C157.396 240.96 163.48 245.406 163.48 257.184C163.48 263.892 161.218 268.26 157.552 270.756L164.806 293.22C164.962 293.61 164.806 294 164.416 294ZM147.49 264.438C151.468 264.438 153.184 262.8 153.184 257.184C153.184 251.646 151.468 249.93 147.49 249.93H145.228C144.916 249.93 144.76 250.086 144.76 250.398V263.97C144.76 264.282 144.916 264.438 145.228 264.438H147.49ZM182.921 294H174.263C173.795 294 173.483 293.688 173.483 293.22V250.632C173.483 250.32 173.327 250.164 173.015 250.164H164.669C164.201 250.164 163.889 249.852 163.889 249.384V241.74C163.889 241.272 164.201 240.96 164.669 240.96H192.515C192.983 240.96 193.295 241.272 193.295 241.74V249.384C193.295 249.852 192.983 250.164 192.515 250.164H184.169C183.857 250.164 183.701 250.32 183.701 250.632V293.22C183.701 293.688 183.389 294 182.921 294Z" fill="white"/>
<path d="M111.973 38.7057C112.644 42.5394 111.53 44.7811 107.806 45.4329C104.414 46.0268 102.473 44.5189 101.853 41.3016C101.824 41.1361 101.859 41.0162 102.02 40.9596L104.889 39.9741C105.077 39.9128 105.202 39.9762 105.231 40.1417C105.591 41.8696 106.208 42.4722 107.283 42.2839C108.304 42.1053 108.681 41.4991 108.382 39.7891C108.092 38.1343 107.66 37.6131 106.156 37.3077L104.948 37.0643C102.122 36.5074 100.966 35.2601 100.439 32.2538C99.8454 28.8614 101.154 26.7562 104.491 26.172C107.773 25.5974 109.617 27.0371 110.272 29.964C110.301 30.1295 110.237 30.2543 110.077 30.3109L107.341 31.2447C107.18 31.3012 107.028 31.2426 106.999 31.0771C106.734 29.7305 106.145 29.1231 105.152 29.2969C104.187 29.4659 103.824 30.1547 104.046 31.4234C104.292 32.83 104.673 33.2182 106.236 33.5415L107.444 33.7848C110.183 34.3287 111.417 35.5339 111.973 38.7057Z" fill="white"/>
<path d="M120.479 43.1525L117.378 43.3639C117.211 43.3753 117.091 43.2712 117.08 43.1036L115.823 24.6664C115.812 24.4988 115.916 24.3794 116.083 24.368L120.553 24.0633C124.017 23.8272 126.252 25.3306 126.548 29.6606C126.841 33.9626 124.748 35.7891 121.368 36.0196L120.446 36.0824C120.334 36.09 120.282 36.1497 120.29 36.2614L120.739 42.8541C120.751 43.0217 120.647 43.1411 120.479 43.1525ZM121.037 32.8146C122.462 32.7175 123.035 32.061 122.888 29.91C122.741 27.759 122.085 27.1863 120.66 27.2835L119.85 27.3387C119.738 27.3463 119.686 27.406 119.694 27.5177L120.048 32.7137C120.056 32.8254 120.115 32.8775 120.227 32.8699L121.037 32.8146Z" fill="white"/>
<path d="M131.627 41.4688L130.478 23.0245C130.468 22.8568 130.572 22.7381 130.74 22.7277L139.04 22.2105C139.208 22.2001 139.326 22.3049 139.337 22.4726L139.508 25.2113C139.518 25.379 139.413 25.4977 139.246 25.5082L134.495 25.8041C134.383 25.8111 134.331 25.8705 134.337 25.9823L134.595 30.1182C134.602 30.23 134.662 30.2824 134.773 30.2755L138.881 30.0195C139.049 30.0091 139.168 30.1139 139.178 30.2816L139.349 33.0203C139.359 33.1879 139.254 33.3067 139.087 33.3171L134.979 33.5731C134.867 33.58 134.815 33.6394 134.822 33.7512L135.09 38.0549C135.097 38.1666 135.156 38.219 135.268 38.2121L140.019 37.9161C140.186 37.9057 140.305 38.0105 140.315 38.1781L140.486 40.9168C140.496 41.0845 140.392 41.2033 140.224 41.2137L131.924 41.7308C131.756 41.7413 131.638 41.6364 131.627 41.4688Z" fill="white"/>
<path d="M144.729 38.1019C144.486 37.2872 144.384 36.418 144.439 31.4903C144.494 26.5626 144.615 25.6959 144.876 24.8868C145.571 22.8503 147.123 21.7475 149.643 21.7755C152.695 21.8094 154.469 23.4533 154.601 26.6469C154.599 26.8149 154.542 26.9543 154.346 26.9801L151.4 27.4514C151.232 27.4775 151.093 27.392 151.095 27.196C151.056 25.6835 150.586 25.0902 149.662 25.0799C148.99 25.0725 148.595 25.3481 148.393 25.9339C148.276 26.3526 148.216 26.688 148.163 31.5317C148.109 36.3754 148.161 36.712 148.268 37.1332C148.458 37.7233 148.847 38.0077 149.519 38.0152C150.443 38.0254 150.925 37.4427 150.998 35.9315C151 35.7355 151.141 35.653 151.309 35.6829L154.243 36.2195C154.439 36.2497 154.493 36.3903 154.491 36.5583C154.288 39.7482 152.478 41.3522 149.426 41.3183C146.906 41.2903 145.379 40.1533 144.729 38.1019Z" fill="white"/>
<path d="M159.877 41.3505L160.528 22.882C160.534 22.7141 160.65 22.6061 160.817 22.612L163.924 22.7215C164.091 22.7274 164.199 22.8433 164.194 23.0112L163.542 41.4797C163.537 41.6476 163.421 41.7556 163.253 41.7497L160.147 41.6402C159.979 41.6343 159.871 41.5184 159.877 41.3505Z" fill="white"/>
<path d="M166.875 41.6734L172.805 23.6867C172.877 23.525 172.972 23.4217 173.139 23.4381L176.427 23.761C176.594 23.7774 176.695 23.8998 176.706 24.0697L178.969 42.8607C178.981 43.0307 178.886 43.1339 178.719 43.1175L175.626 42.8138C175.431 42.7947 175.358 42.675 175.347 42.5051L175.07 39.0174L171.475 38.6644L170.498 42.029C170.454 42.1935 170.359 42.2967 170.164 42.2776L167.071 41.9739C166.904 41.9575 166.831 41.8378 166.875 41.6734ZM172.289 35.8183L174.825 36.0673L174.273 29.3733L174.189 29.3651L172.289 35.8183Z" fill="white"/>
<path d="M182.537 43.5562L185.446 25.3066C185.472 25.1407 185.601 25.0478 185.766 25.0742L188.836 25.5635C189.002 25.5899 189.095 25.7182 189.068 25.8841L186.661 40.9814C186.644 41.092 186.69 41.1562 186.801 41.1738L191.557 41.932C191.723 41.9584 191.816 42.0867 191.789 42.2526L191.357 44.9624C191.331 45.1283 191.202 45.2212 191.037 45.1948L182.769 43.8768C182.603 43.8503 182.51 43.7221 182.537 43.5562Z" fill="white"/>
<path d="M66.94 81.0142L63.6987 81.8996C63.5367 81.9439 63.4409 81.912 63.3426 81.7647L59.3591 75.3641L58.3327 75.6445C58.2247 75.674 58.1854 75.7428 58.2149 75.8509L60.0596 82.6034C60.1038 82.7655 60.0253 82.9031 59.8632 82.9473L56.8651 83.7663C56.703 83.8106 56.5655 83.7321 56.5212 83.57L51.6514 65.7432C51.6071 65.5811 51.6857 65.4436 51.8477 65.3993L56.2234 64.204C59.4917 63.3112 62.019 64.2753 63.1332 68.3538C63.7677 70.6767 63.3976 72.4033 62.3643 73.6144L67.0012 80.7072C67.0921 80.8275 67.075 80.9773 66.94 81.0142ZM58.2823 72.3784C59.6598 72.0021 60.0991 71.2725 59.5678 69.3278C59.0439 67.4101 58.2874 66.9782 56.9099 67.3545L56.1266 67.5684C56.0185 67.598 55.9793 67.6667 56.0088 67.7748L57.2926 72.4746C57.3221 72.5826 57.3909 72.6219 57.499 72.5924L58.2823 72.3784Z" fill="white"/>
<path d="M71.5024 78.9012L67.4295 60.8756C67.3924 60.7117 67.477 60.5778 67.6409 60.5408L75.7524 58.708C75.9162 58.6709 76.0502 58.7555 76.0872 58.9194L76.692 61.5959C76.729 61.7598 76.6444 61.8937 76.4806 61.9307L71.8376 62.9798C71.7284 63.0045 71.6861 63.0715 71.7108 63.1807L72.6241 67.2228C72.6488 67.3321 72.7158 67.3743 72.825 67.3496L76.8398 66.4425C77.0037 66.4055 77.1376 66.49 77.1746 66.6539L77.7794 69.3304C77.8164 69.4943 77.7319 69.6282 77.568 69.6652L73.5532 70.5724C73.4439 70.5971 73.4017 70.6641 73.4264 70.7733L74.3767 74.9793C74.4014 75.0885 74.4684 75.1308 74.5776 75.1061L79.2206 74.057C79.3844 74.02 79.5184 74.1046 79.5554 74.2684L80.1602 76.9449C80.1972 77.1088 80.1126 77.2427 79.9487 77.2798L71.8372 79.1126C71.6734 79.1496 71.5394 79.0651 71.5024 78.9012Z" fill="white"/>
<path d="M93.1806 68.2462C93.8739 72.076 92.7728 74.3241 89.0532 74.9974C85.6643 75.6109 83.7145 74.1143 83.0759 70.9006C83.0459 70.7353 83.0811 70.6151 83.2414 70.5577L86.1047 69.5556C86.2926 69.4931 86.4178 69.5558 86.4477 69.7211C86.817 71.447 87.4376 72.046 88.5122 71.8515C89.5316 71.6669 89.9052 71.0586 89.596 69.3504C89.2967 67.6973 88.8614 67.1785 87.3565 66.8819L86.147 66.6455C83.3175 66.1049 82.1539 64.8643 81.6102 61.8611C80.9968 58.4722 82.2931 56.3595 85.627 55.756C88.9057 55.1625 90.7578 56.5914 91.4293 59.5145C91.4592 59.6799 91.3965 59.805 91.2362 59.8625L88.5056 60.8121C88.3453 60.8696 88.1926 60.8118 88.1627 60.6465C87.8907 59.3015 87.2976 58.6974 86.3058 58.877C85.3414 59.0516 84.9828 59.7425 85.2122 61.0099C85.4666 62.4151 85.8495 62.801 87.4145 63.1153L88.6239 63.3516C91.3658 63.8797 92.6071 65.0777 93.1806 68.2462Z" fill="white"/>
<path d="M101.614 72.0941L98.5339 72.5072C98.3674 72.5296 98.2415 72.4335 98.2191 72.267L95.7624 53.951C95.7401 53.7845 95.8362 53.6586 96.0027 53.6362L100.443 53.0407C103.884 52.5791 106.213 53.9336 106.79 58.235C107.363 62.5088 105.394 64.4679 102.036 64.9183L101.12 65.0411C101.009 65.056 100.961 65.119 100.976 65.23L101.855 71.7793C101.877 71.9458 101.781 72.0717 101.614 72.0941ZM101.497 61.7418C102.912 61.5519 103.441 60.8595 103.154 58.7227C102.868 56.5858 102.175 56.0571 100.76 56.247L99.9552 56.3549C99.8442 56.3698 99.7962 56.4328 99.8111 56.5438L100.503 61.7055C100.518 61.8166 100.581 61.8646 100.692 61.8497L101.497 61.7418Z" fill="white"/>
<path d="M117.445 70.5383C114.962 70.7531 113.192 69.782 112.313 67.7501C111.932 66.9119 111.781 66.1381 111.358 61.2563C110.936 56.3745 110.952 55.5862 111.184 54.6949C111.701 52.5424 113.278 51.2818 115.761 51.067C118.243 50.8523 120.014 51.8234 120.892 53.8553C121.274 54.6935 121.425 55.4673 121.847 60.3491C122.269 65.2309 122.253 66.0192 122.021 66.9105C121.505 69.063 119.927 70.3236 117.445 70.5383ZM117.16 67.2466C117.857 67.1863 118.298 66.7548 118.419 66.2103C118.52 65.7519 118.535 65.2728 118.137 60.67C117.739 56.0672 117.642 55.5978 117.464 55.1635C117.251 54.648 116.743 54.2984 116.045 54.3587C115.348 54.4191 114.908 54.8506 114.786 55.3951C114.685 55.8535 114.67 56.3326 115.068 60.9354C115.467 65.5382 115.563 66.0076 115.741 66.4419C115.955 66.9574 116.463 67.307 117.16 67.2466Z" fill="white"/>
<path d="M127.387 69.1251L126.687 50.6584C126.68 50.4905 126.788 50.3743 126.956 50.368L130.454 50.2353C130.677 50.2268 130.792 50.3065 130.856 50.5003L134.471 62.3277L134.611 62.3224L134.157 50.375C134.151 50.2072 134.259 50.091 134.427 50.0846L137.085 49.9838C137.253 49.9774 137.369 50.0851 137.375 50.253L138.076 68.7197C138.082 68.8876 137.974 69.0038 137.806 69.0101L134.449 69.1375C134.225 69.146 134.11 69.0663 134.046 68.8725L130.292 57.0503L130.152 57.0556L130.605 69.0031C130.611 69.1709 130.504 69.2871 130.336 69.2935L127.678 69.3943C127.51 69.4006 127.394 69.293 127.387 69.1251Z" fill="white"/>
<path d="M153.246 63.0353C153.211 66.9271 151.708 68.9295 147.929 68.8949C144.485 68.8634 142.85 67.0283 142.824 63.7519C142.825 63.584 142.882 63.4725 143.05 63.446L146.051 62.9974C146.247 62.9712 146.358 63.0563 146.356 63.2243C146.396 64.9887 146.894 65.6933 147.986 65.7033C149.022 65.7127 149.503 65.1851 149.519 63.4492C149.534 61.7693 149.203 61.1782 147.781 60.6052L146.637 60.1467C143.958 59.0861 143.047 57.6497 143.075 54.5979C143.107 51.154 144.776 49.3212 148.163 49.3522C151.495 49.3827 153.047 51.133 153.16 54.1301C153.158 54.2981 153.073 54.4093 152.905 54.4358L150.045 54.8577C149.877 54.8841 149.738 54.7988 149.739 54.6308C149.724 53.2586 149.254 52.5543 148.246 52.5451C147.266 52.5361 146.785 53.1477 146.773 54.4357C146.76 55.8636 147.064 56.3144 148.542 56.916L149.686 57.3745C152.281 58.4063 153.276 59.8154 153.246 63.0353Z" fill="white"/>
<path d="M157.574 68.6731L158.539 50.2184C158.548 50.0506 158.666 49.9446 158.834 49.9534L167.138 50.388C167.306 50.3968 167.412 50.5145 167.403 50.6823L167.26 53.4225C167.251 53.5903 167.133 53.6963 166.966 53.6875L162.212 53.4387C162.1 53.4329 162.041 53.4859 162.036 53.5977L161.819 57.736C161.813 57.8479 161.866 57.9067 161.978 57.9126L166.088 58.1277C166.256 58.1365 166.362 58.2542 166.353 58.422L166.21 61.1622C166.201 61.33 166.083 61.436 165.916 61.4272L161.805 61.2121C161.693 61.2062 161.635 61.2592 161.629 61.3711L161.403 65.6772C161.397 65.789 161.45 65.8479 161.562 65.8537L166.316 66.1025C166.484 66.1113 166.59 66.229 166.581 66.3968L166.437 69.137C166.429 69.3048 166.311 69.4108 166.143 69.402L157.839 68.9674C157.671 68.9586 157.565 68.8409 157.574 68.6731Z" fill="white"/>
<path d="M185.793 71.5374L182.709 71.1524C182.542 71.1316 182.445 71.0066 182.465 70.8399L184.359 55.6696C184.373 55.5585 184.324 55.496 184.213 55.4821L181.24 55.111C181.074 55.0902 180.976 54.9652 180.997 54.7985L181.337 52.0756C181.358 51.9089 181.483 51.8116 181.65 51.8324L191.569 53.0706C191.735 53.0914 191.833 53.2164 191.812 53.3831L191.472 56.106C191.451 56.2727 191.326 56.3699 191.159 56.3491L188.186 55.978C188.075 55.9642 188.013 56.0128 187.999 56.1239L186.105 71.2942C186.084 71.4609 185.959 71.5582 185.793 71.5374Z" fill="white"/>
<path d="M193.737 72.7326L196.815 54.5107C196.843 54.3451 196.972 54.2533 197.138 54.2813L205.337 55.6662C205.503 55.6942 205.595 55.8233 205.567 55.9889L205.11 58.6946C205.082 58.8603 204.953 58.9521 204.787 58.9241L200.094 58.1313C199.983 58.1127 199.919 58.1586 199.9 58.269L199.21 62.3551C199.191 62.4656 199.237 62.5301 199.348 62.5488L203.406 63.2343C203.572 63.2622 203.663 63.3913 203.636 63.557L203.179 66.2627C203.151 66.4283 203.021 66.5201 202.856 66.4921L198.797 65.8066C198.687 65.788 198.622 65.8339 198.604 65.9443L197.886 70.1961C197.867 70.3065 197.913 70.3711 198.023 70.3897L202.717 71.1825C202.882 71.2104 202.974 71.3395 202.946 71.5052L202.489 74.2109C202.461 74.3765 202.332 74.4683 202.166 74.4403L193.967 73.0554C193.801 73.0274 193.709 72.8983 193.737 72.7326Z" fill="white"/>
<path d="M205.711 75.7475L213.647 58.5513C213.737 58.3988 213.843 58.307 214.007 58.3423L217.237 59.0368C217.401 59.0721 217.487 59.2051 217.479 59.3752L217.592 78.3017C217.584 78.4718 217.478 78.5636 217.314 78.5283L214.276 77.8751C214.084 77.8339 214.025 77.7067 214.033 77.5366L214.155 74.0401L210.624 73.2809L209.27 76.5126C209.207 76.6709 209.102 76.7628 208.91 76.7216L205.872 76.0683C205.707 76.033 205.649 75.9059 205.711 75.7475ZM211.756 70.5457L214.247 71.0813L214.459 64.3678L214.377 64.3502L211.756 70.5457Z" fill="white"/>
<path d="M221.509 80.2551L226.309 62.4093C226.352 62.2471 226.49 62.168 226.652 62.2117L229.572 62.9971C229.815 63.0626 229.929 63.18 229.932 63.3839L230.148 73.7931L230.256 73.8222L235.556 64.8965C235.661 64.7218 235.818 64.6771 236.061 64.7425L238.955 65.5207C239.117 65.5643 239.196 65.7016 239.152 65.8638L234.352 83.7096C234.309 83.8718 234.172 83.9509 234.009 83.9072L231.387 83.2018C231.224 83.1582 231.145 83.0209 231.189 82.8587L234.047 72.2323L233.885 72.1887L229.906 79.0052C229.808 79.1528 229.671 79.2319 229.482 79.181L227.994 78.781C227.805 78.7301 227.726 78.5929 227.716 78.4161L227.693 70.5233L227.531 70.4797L224.672 81.106C224.629 81.2682 224.492 81.3473 224.329 81.3037L221.707 80.5982C221.544 80.5546 221.465 80.4174 221.509 80.2551Z" fill="white"/>
</svg>
