<svg width="292" height="346" viewBox="0 0 292 346" fill="none" xmlns="http://www.w3.org/2000/svg">
<path d="M51.8424 243.405C26.6127 200.788 9.82988 143.498 9.40147 64.6017C14.6976 63.7673 20.4272 61.7786 25.0382 56.7372C30.2664 51.021 33.5306 41.9589 33.8647 27.9257C72.6191 13.3333 98.5821 10 145.393 10.0002C192.207 10 218.17 13.3337 256.929 27.9286C257.358 42.1905 261.577 51.3833 267.293 57.0999C272 61.8066 277.442 63.8752 281.884 64.6379C281.448 143.511 264.545 200.788 239.198 243.398C213.941 285.855 180.157 313.994 145.393 334.446C110.637 313.996 76.9764 285.86 51.8424 243.405Z" stroke="black" stroke-width="7"/>
<path d="M45.6086 248.243C18.7824 202.929 1.12739 142.032 1.00069 58.228C6.83913 57.6162 13.1197 55.903 17.9988 50.5685C23.0477 45.0484 26.4327 35.8302 26.5309 20.4903C68.2348 4.59914 95.6982 0.999747 145.383 1C195.067 0.999747 222.531 4.59918 264.235 20.4906C264.361 35.9001 268.714 45.2799 274.295 50.8612C279.558 56.1243 285.8 57.8955 290.285 58.2598C290.153 142.046 272.37 202.933 245.418 248.241C218.487 293.513 182.36 323.302 145.383 344.843C108.408 323.303 72.41 293.515 45.6086 248.243Z" stroke="black" stroke-width="2"/>
<path d="M128.393 181.5C128.393 187.9 125.393 194.833 123.893 197.5C122.293 201.1 121.893 208.833 121.893 211.5C121.893 218.3 125.114 223.663 129.901 227.929L136.844 233.72C135.644 231.32 135.393 229.167 135.393 228.5C135.393 219.5 145.393 213.5 152.393 211L151.893 221C153.726 219 158.193 214.4 161.393 212C164.593 209.6 169.726 207 171.893 206C171.493 209.6 168.06 213.833 166.393 215.5C169.226 213.667 175.693 209.3 178.893 206.5C182.093 203.7 184.893 199.667 185.893 198C187.093 195.6 186.893 190.5 185.393 187C186.56 187.333 188.893 188.7 188.893 191.5C188.893 194.3 188.56 196.333 188.393 197C194.393 190.6 195.893 177 195.893 171C195.893 154.225 184.893 149 179.393 147.5C184.193 146.7 190.06 150.5 192.393 152.5C191.56 149.5 188.367 142.789 182.893 139C178.56 136 174.393 134.5 174.393 134.5C174.393 134.5 170.997 136.198 166.393 138.5C161.393 141 157.226 142.333 155.893 142C158.226 141 164.193 138.2 169.393 135C174.593 131.8 179.893 128.5 182.393 123.5C175.393 124 171.293 124.9 164.893 126.5C156.893 128.5 149.893 132 146.893 132C149.726 129.333 156.593 123.6 161.393 122C167.393 120 175.393 117.5 184.393 122C193.393 126.5 199.393 133 198.393 141C199.06 140.167 200.393 137.5 200.393 133.5C200.393 129.435 197.021 120.48 188.808 113.686C188.768 114.52 188.167 116.314 186.082 116.812C186.491 116.229 187.273 114.526 187.134 112.383C185.147 110.928 182.911 109.605 180.41 108.493C180.67 109.876 180.55 112.96 177.994 114.233C178.42 113.149 179.115 110.325 178.485 107.702C175.674 106.634 172.556 105.831 169.111 105.388C169.835 107.178 170.491 111.537 167.322 114.655C168.056 113.121 168.964 109.072 166.714 105.143C165.479 105.049 164.206 105 162.893 105C160.604 105 158.444 105.069 156.403 105.2C157.858 106.832 160.544 111.083 159.656 115.026C159.349 113.004 157.641 108.26 153.265 105.457C151.273 105.831 146.852 107.971 144.881 109.57C146.503 110.253 149.767 112.729 150.009 117.994C149.637 117.378 148.572 115.764 147.289 114.233C146.439 113.159 144.287 111.01 142.488 111.01C140.688 111.01 137.462 114.323 136.075 115.979C134.648 117.682 131.746 121.325 130.199 125.093C129.898 125.826 129.03 127.005 127.989 126.518C126.948 126.03 127.412 124.688 127.865 123.693C132.018 114.575 136.254 111.704 145.873 106.579C131.244 109.637 125.174 116.462 121.393 121C117.438 125.746 115.56 132.167 114.393 134.5C105.231 142.216 98.8931 148.5 95.3931 162L87.3527 172.914C86.753 173.814 86.6123 174.214 86.6753 174.675C86.8276 175.789 88.2679 176.583 88.8931 177C89.1214 177.143 89.4475 177.31 89.8587 177.489C92.057 175.145 93.4154 171.201 93.8199 169.522C94.1729 173.11 92.6836 176.821 91.8949 178.228C94.0576 178.893 97.0736 179.5 100.393 179.5C105.893 179.5 109.964 178 112.393 177C120.893 173.5 128.393 172.418 128.393 181.5Z" fill="black"/>
<path fill-rule="evenodd" clip-rule="evenodd" d="M204.344 134.962L250.157 109.427C256.331 105.985 260.674 99.9973 262.028 93.0596L263.893 83.5L199.311 119.496C200.034 120.601 200.672 121.699 201.229 122.771C203.27 126.697 204.393 130.6 204.393 133.5C204.393 134.001 204.376 134.488 204.344 134.962Z" fill="black"/>
<path fill-rule="evenodd" clip-rule="evenodd" d="M199.513 165.556C199.76 167.253 199.893 169.066 199.893 171C199.893 174.208 199.505 179.29 198.353 184.473L222.657 170.927C228.831 167.485 233.174 161.497 234.528 154.56L236.393 145L199.513 165.556ZM120.238 195.875C119.811 196.835 119.469 197.946 119.191 199.109L68.6295 170.927C62.4553 167.485 58.1121 161.497 56.7584 154.56L54.8931 145L88.919 163.965L84.6264 169.689C84.5613 169.786 84.4963 169.884 84.4338 169.983C80.7727 175.736 83.9228 179.449 85.9818 180.596C88.6985 182.113 94.4921 183.327 99.3622 183.483C99.7025 183.494 100.046 183.5 100.393 183.5C106.647 183.5 111.279 181.785 113.916 180.699C114.991 180.256 115.991 179.88 116.914 179.569L124.265 183.666C123.721 188.49 121.574 193.464 120.407 195.539L120.314 195.703L120.238 195.875ZM236.657 139.927L198.898 160.973L196.247 151.429C196.163 151.127 196.063 150.803 195.947 150.46L201.517 143.499C202.089 142.783 202.714 141.691 203.234 140.285L250.393 114L248.528 123.56C247.174 130.497 242.831 136.485 236.657 139.927ZM40.8931 114L98.0395 145.852C95.4424 149.783 93.317 154.379 91.7269 160.222L91.5245 160.491L54.6295 139.927C48.4553 136.485 44.1121 130.497 42.7584 123.56L40.8931 114Z" fill="black"/>
<path d="M27.3931 83.5L29.2584 93.0596C30.6121 99.9973 34.9553 105.985 41.1295 109.427L100.48 142.507C103.539 138.687 107.113 135.426 111.124 132.025L111.739 130.513L27.3931 83.5Z" fill="black"/>
<path d="M146.298 80.2771C146.329 80.1869 146.457 80.1869 146.488 80.2771L147.446 83.0844C148.147 85.1354 149.758 86.7463 151.809 87.4467L154.616 88.4054C154.706 88.4362 154.706 88.5638 154.616 88.5946L151.809 89.5533C149.758 90.2537 148.147 91.8646 147.446 93.9156L146.488 96.7229C146.457 96.8131 146.329 96.8131 146.298 96.7229L145.34 93.9156C144.639 91.8646 143.028 90.2537 140.978 89.5533L138.17 88.5946C138.08 88.5638 138.08 88.4362 138.17 88.4054L140.978 87.4467C143.028 86.7463 144.639 85.1354 145.34 83.0844L146.298 80.2771Z" fill="black"/>
<path d="M131.279 278.244C131.279 289.086 127.145 294.702 116.615 294.702C107.021 294.702 102.419 289.632 102.263 280.506C102.263 280.038 102.419 279.726 102.887 279.648L111.233 278.322C111.779 278.244 112.091 278.478 112.091 278.946C112.247 283.86 113.651 285.81 116.693 285.81C119.579 285.81 120.905 284.328 120.905 279.492C120.905 274.812 119.969 273.174 115.991 271.614L112.793 270.366C105.305 267.48 102.731 263.502 102.731 255C102.731 245.406 107.333 240.258 116.771 240.258C126.053 240.258 130.421 245.094 130.811 253.44C130.811 253.908 130.577 254.22 130.109 254.298L122.153 255.546C121.685 255.624 121.295 255.39 121.295 254.922C121.217 251.1 119.891 249.15 117.083 249.15C114.353 249.15 113.027 250.866 113.027 254.454C113.027 258.432 113.885 259.68 118.019 261.318L121.217 262.566C128.471 265.374 131.279 269.274 131.279 278.244ZM163.559 294H154.199C153.731 294 153.497 293.844 153.341 293.376L147.335 273.252H144.371C144.059 273.252 143.903 273.408 143.903 273.72V293.22C143.903 293.688 143.591 294 143.123 294H134.465C133.997 294 133.685 293.688 133.685 293.22V241.74C133.685 241.272 133.997 240.96 134.465 240.96H147.101C156.539 240.96 162.623 245.406 162.623 257.184C162.623 263.892 160.361 268.26 156.695 270.756L163.949 293.22C164.105 293.61 163.949 294 163.559 294ZM146.633 264.438C150.611 264.438 152.327 262.8 152.327 257.184C152.327 251.646 150.611 249.93 146.633 249.93H144.371C144.059 249.93 143.903 250.086 143.903 250.398V263.97C143.903 264.282 144.059 264.438 144.371 264.438H146.633ZM182.064 294H173.406C172.938 294 172.626 293.688 172.626 293.22V250.632C172.626 250.32 172.47 250.164 172.158 250.164H163.812C163.344 250.164 163.032 249.852 163.032 249.384V241.74C163.032 241.272 163.344 240.96 163.812 240.96H191.658C192.126 240.96 192.438 241.272 192.438 241.74V249.384C192.438 249.852 192.126 250.164 191.658 250.164H183.312C183 250.164 182.844 250.32 182.844 250.632V293.22C182.844 293.688 182.532 294 182.064 294Z" fill="black"/>
<path d="M111.116 38.7057C111.787 42.5394 110.673 44.7811 106.949 45.4329C103.557 46.0268 101.616 44.5189 100.996 41.3016C100.967 41.1361 101.003 41.0162 101.163 40.9596L104.032 39.9741C104.22 39.9128 104.345 39.9762 104.374 40.1417C104.734 41.8696 105.351 42.4722 106.426 42.2839C107.447 42.1053 107.824 41.4991 107.525 39.7891C107.235 38.1343 106.803 37.6131 105.299 37.3077L104.091 37.0643C101.265 36.5074 100.109 35.2601 99.5823 32.2538C98.9885 28.8614 100.297 26.7562 103.634 26.172C106.916 25.5974 108.76 27.0371 109.415 29.964C109.444 30.1295 109.38 30.2543 109.22 30.3109L106.484 31.2447C106.323 31.3012 106.171 31.2426 106.142 31.0771C105.878 29.7305 105.288 29.1231 104.295 29.2969C103.33 29.4659 102.967 30.1547 103.189 31.4234C103.435 32.83 103.816 33.2182 105.379 33.5415L106.587 33.7848C109.326 34.3287 110.56 35.5339 111.116 38.7057Z" fill="black"/>
<path d="M119.622 43.1525L116.521 43.3639C116.354 43.3753 116.234 43.2712 116.223 43.1036L114.966 24.6664C114.955 24.4988 115.059 24.3794 115.226 24.368L119.696 24.0633C123.16 23.8272 125.395 25.3306 125.691 29.6606C125.984 33.9626 123.891 35.7891 120.511 36.0196L119.589 36.0824C119.478 36.09 119.425 36.1497 119.433 36.2614L119.883 42.8541C119.894 43.0217 119.79 43.1411 119.622 43.1525ZM120.18 32.8146C121.605 32.7175 122.178 32.061 122.031 29.91C121.885 27.759 121.228 27.1863 119.803 27.2835L118.993 27.3387C118.881 27.3463 118.829 27.406 118.837 27.5177L119.191 32.7137C119.199 32.8254 119.259 32.8775 119.37 32.8699L120.18 32.8146Z" fill="black"/>
<path d="M130.77 41.4688L129.621 23.0245C129.611 22.8568 129.716 22.7381 129.883 22.7277L138.183 22.2105C138.351 22.2001 138.47 22.3049 138.48 22.4726L138.651 25.2113C138.661 25.379 138.556 25.4977 138.389 25.5082L133.638 25.8041C133.526 25.8111 133.474 25.8705 133.481 25.9823L133.738 30.1182C133.745 30.23 133.805 30.2824 133.916 30.2755L138.024 30.0195C138.192 30.0091 138.311 30.1139 138.321 30.2816L138.492 33.0203C138.502 33.1879 138.398 33.3067 138.23 33.3171L134.122 33.5731C134.01 33.58 133.958 33.6394 133.965 33.7512L134.233 38.0549C134.24 38.1666 134.299 38.219 134.411 38.2121L139.162 37.9161C139.329 37.9057 139.448 38.0105 139.458 38.1781L139.629 40.9168C139.64 41.0845 139.535 41.2033 139.367 41.2137L131.067 41.7308C130.899 41.7413 130.781 41.6364 130.77 41.4688Z" fill="black"/>
<path d="M143.872 38.1019C143.63 37.2872 143.527 36.418 143.582 31.4903C143.637 26.5626 143.758 25.6959 144.019 24.8868C144.714 22.8503 146.266 21.7475 148.786 21.7755C151.838 21.8094 153.612 23.4533 153.744 26.6469C153.742 26.8149 153.685 26.9543 153.489 26.9801L150.543 27.4514C150.375 27.4775 150.236 27.392 150.238 27.196C150.199 25.6835 149.729 25.0902 148.805 25.0799C148.134 25.0725 147.738 25.3481 147.536 25.9339C147.419 26.3526 147.36 26.688 147.306 31.5317C147.252 36.3754 147.304 36.712 147.411 37.1332C147.601 37.7233 147.99 38.0077 148.662 38.0152C149.586 38.0254 150.068 37.4427 150.141 35.9315C150.143 35.7355 150.284 35.653 150.452 35.6829L153.386 36.2195C153.582 36.2497 153.636 36.3903 153.634 36.5583C153.431 39.7482 151.621 41.3522 148.569 41.3183C146.049 41.2903 144.522 40.1533 143.872 38.1019Z" fill="black"/>
<path d="M159.02 41.3505L159.671 22.882C159.677 22.7141 159.793 22.6061 159.961 22.612L163.067 22.7215C163.235 22.7274 163.342 22.8433 163.337 23.0112L162.686 41.4797C162.68 41.6476 162.564 41.7556 162.396 41.7497L159.29 41.6402C159.122 41.6343 159.014 41.5184 159.02 41.3505Z" fill="black"/>
<path d="M166.018 41.6734L171.948 23.6867C172.02 23.525 172.115 23.4217 172.282 23.4381L175.57 23.761C175.738 23.7774 175.838 23.8998 175.85 24.0697L178.112 42.8607C178.124 43.0307 178.029 43.1339 177.862 43.1175L174.769 42.8138C174.574 42.7947 174.501 42.675 174.49 42.5051L174.213 39.0174L170.618 38.6644L169.641 42.029C169.597 42.1935 169.502 42.2967 169.307 42.2776L166.214 41.9739C166.047 41.9575 165.974 41.8378 166.018 41.6734ZM171.432 35.8183L173.968 36.0673L173.416 29.3733L173.332 29.3651L171.432 35.8183Z" fill="black"/>
<path d="M181.68 43.5562L184.589 25.3066C184.615 25.1407 184.744 25.0478 184.909 25.0742L187.979 25.5635C188.145 25.5899 188.238 25.7182 188.211 25.8841L185.804 40.9814C185.787 41.092 185.833 41.1562 185.944 41.1738L190.7 41.932C190.866 41.9584 190.959 42.0867 190.932 42.2526L190.5 44.9624C190.474 45.1283 190.345 45.2212 190.18 45.1948L181.912 43.8768C181.746 43.8503 181.653 43.7221 181.68 43.5562Z" fill="black"/>
<path d="M66.083 81.0142L62.8418 81.8996C62.6797 81.9439 62.5839 81.912 62.4856 81.7647L58.5022 75.3641L57.4758 75.6445C57.3677 75.674 57.3285 75.7428 57.358 75.8509L59.2026 82.6034C59.2469 82.7655 59.1683 82.9031 59.0063 82.9473L56.0081 83.7663C55.8461 83.8106 55.7085 83.7321 55.6643 83.57L50.7944 65.7432C50.7502 65.5811 50.8287 65.4436 50.9908 65.3993L55.3664 64.204C58.6347 63.3112 61.1621 64.2753 62.2762 68.3538C62.9108 70.6767 62.5407 72.4033 61.5073 73.6144L66.1443 80.7072C66.2352 80.8275 66.218 80.9773 66.083 81.0142ZM57.4253 72.3784C58.8028 72.0021 59.2421 71.2725 58.7109 69.3278C58.187 67.4101 57.4304 66.9782 56.0529 67.3545L55.2696 67.5684C55.1616 67.598 55.1223 67.6667 55.1518 67.7748L56.4357 72.4746C56.4652 72.5826 56.534 72.6219 56.642 72.5924L57.4253 72.3784Z" fill="black"/>
<path d="M70.6454 78.9012L66.5725 60.8756C66.5354 60.7117 66.62 60.5778 66.7839 60.5408L74.8954 58.708C75.0593 58.6709 75.1932 58.7555 75.2302 58.9194L75.835 61.5959C75.872 61.7598 75.7874 61.8937 75.6236 61.9307L70.9806 62.9798C70.8714 63.0045 70.8291 63.0715 70.8538 63.1807L71.7671 67.2228C71.7918 67.3321 71.8588 67.3743 71.968 67.3496L75.9828 66.4425C76.1467 66.4055 76.2806 66.49 76.3176 66.6539L76.9224 69.3304C76.9594 69.4943 76.8749 69.6282 76.711 69.6652L72.6962 70.5724C72.587 70.5971 72.5447 70.6641 72.5694 70.7733L73.5197 74.9793C73.5444 75.0885 73.6114 75.1308 73.7206 75.1061L78.3636 74.057C78.5274 74.02 78.6614 74.1046 78.6984 74.2684L79.3032 76.9449C79.3402 77.1088 79.2556 77.2427 79.0918 77.2798L70.9802 79.1126C70.8164 79.1496 70.6824 79.0651 70.6454 78.9012Z" fill="black"/>
<path d="M92.3237 68.2462C93.0169 72.076 91.9158 74.3241 88.1962 74.9974C84.8073 75.6109 82.8575 74.1143 82.2189 70.9006C82.1889 70.7353 82.2241 70.6151 82.3844 70.5577L85.2477 69.5556C85.4356 69.4931 85.5608 69.5558 85.5907 69.7211C85.96 71.447 86.5807 72.046 87.6552 71.8515C88.6746 71.6669 89.0482 71.0586 88.739 69.3504C88.4398 67.6973 88.0044 67.1785 86.4995 66.8819L85.29 66.6455C82.4605 66.1049 81.2969 64.8643 80.7532 61.8611C80.1398 58.4722 81.4362 56.3595 84.77 55.756C88.0487 55.1625 89.9008 56.5914 90.5723 59.5145C90.6022 59.6799 90.5395 59.805 90.3792 59.8625L87.6486 60.8121C87.4883 60.8696 87.3356 60.8118 87.3057 60.6465C87.0337 59.3015 86.4406 58.6974 85.4488 58.877C84.4844 59.0516 84.1258 59.7425 84.3552 61.0099C84.6096 62.4151 84.9925 62.801 86.5575 63.1153L87.7669 63.3516C90.5088 63.8797 91.7501 65.0777 92.3237 68.2462Z" fill="black"/>
<path d="M100.757 72.0941L97.6769 72.5072C97.5104 72.5296 97.3845 72.4335 97.3622 72.267L94.9055 53.951C94.8831 53.7845 94.9793 53.6586 95.1458 53.6362L99.586 53.0407C103.027 52.5791 105.356 53.9336 105.933 58.235C106.506 62.5088 104.537 64.4679 101.179 64.9183L100.263 65.0411C100.152 65.056 100.104 65.119 100.119 65.23L100.998 71.7793C101.02 71.9458 100.924 72.0717 100.757 72.0941ZM100.64 61.7418C102.055 61.5519 102.584 60.8595 102.297 58.7227C102.011 56.5858 101.318 56.0571 99.9031 56.247L99.0983 56.3549C98.9873 56.3698 98.9392 56.4328 98.9541 56.5438L99.6464 61.7055C99.6613 61.8166 99.7243 61.8646 99.8353 61.8497L100.64 61.7418Z" fill="black"/>
<path d="M116.588 70.5383C114.105 70.7531 112.335 69.782 111.456 67.7501C111.075 66.9119 110.924 66.1381 110.501 61.2563C110.079 56.3745 110.095 55.5862 110.327 54.6949C110.844 52.5424 112.421 51.2818 114.904 51.067C117.386 50.8523 119.157 51.8234 120.035 53.8553C120.417 54.6935 120.568 55.4673 120.99 60.3491C121.412 65.2309 121.396 66.0192 121.164 66.9105C120.648 69.063 119.071 70.3236 116.588 70.5383ZM116.303 67.2466C117 67.1863 117.441 66.7548 117.562 66.2103C117.663 65.7519 117.678 65.2728 117.28 60.67C116.882 56.0672 116.785 55.5978 116.607 55.1635C116.394 54.648 115.886 54.2984 115.188 54.3587C114.491 54.4191 114.051 54.8506 113.929 55.3951C113.828 55.8535 113.813 56.3326 114.211 60.9354C114.61 65.5382 114.706 66.0076 114.884 66.4419C115.098 66.9574 115.606 67.307 116.303 67.2466Z" fill="black"/>
<path d="M126.53 69.1251L125.83 50.6584C125.824 50.4905 125.931 50.3743 126.099 50.368L129.597 50.2353C129.82 50.2268 129.936 50.3065 129.999 50.5003L133.614 62.3277L133.754 62.3224L133.301 50.375C133.294 50.2072 133.402 50.091 133.57 50.0846L136.228 49.9838C136.396 49.9774 136.512 50.0851 136.518 50.253L137.219 68.7197C137.225 68.8876 137.117 69.0038 136.949 69.0101L133.592 69.1375C133.368 69.146 133.253 69.0663 133.189 68.8725L129.435 57.0503L129.295 57.0556L129.748 69.0031C129.754 69.1709 129.647 69.2871 129.479 69.2935L126.821 69.3943C126.653 69.4006 126.537 69.293 126.53 69.1251Z" fill="black"/>
<path d="M152.39 63.0353C152.354 66.9271 150.852 68.9295 147.072 68.8949C143.628 68.8634 141.993 67.0283 141.967 63.7519C141.968 63.584 142.025 63.4725 142.193 63.446L145.194 62.9974C145.39 62.9712 145.501 63.0563 145.499 63.2243C145.539 64.9887 146.037 65.6933 147.129 65.7033C148.165 65.7127 148.646 65.1851 148.662 63.4492C148.677 61.7693 148.346 61.1782 146.924 60.6052L145.78 60.1467C143.101 59.0861 142.19 57.6497 142.218 54.5979C142.25 51.154 143.919 49.3212 147.306 49.3522C150.638 49.3827 152.19 51.133 152.303 54.1301C152.301 54.2981 152.216 54.4093 152.048 54.4358L149.188 54.8577C149.02 54.8841 148.881 54.7988 148.882 54.6308C148.867 53.2586 148.397 52.5543 147.389 52.5451C146.409 52.5361 145.928 53.1477 145.916 54.4357C145.903 55.8636 146.207 56.3144 147.685 56.916L148.829 57.3745C151.424 58.4063 152.419 59.8154 152.39 63.0353Z" fill="black"/>
<path d="M156.717 68.6731L157.682 50.2184C157.691 50.0506 157.809 49.9446 157.977 49.9534L166.281 50.388C166.449 50.3968 166.555 50.5145 166.546 50.6823L166.403 53.4225C166.394 53.5903 166.276 53.6963 166.109 53.6875L161.355 53.4387C161.243 53.4329 161.184 53.4859 161.179 53.5977L160.962 57.736C160.956 57.8479 161.009 57.9067 161.121 57.9126L165.231 58.1277C165.399 58.1365 165.505 58.2542 165.496 58.422L165.353 61.1622C165.344 61.33 165.226 61.436 165.059 61.4272L160.948 61.2121C160.836 61.2062 160.778 61.2592 160.772 61.3711L160.546 65.6772C160.541 65.789 160.594 65.8479 160.705 65.8537L165.459 66.1025C165.627 66.1113 165.733 66.229 165.724 66.3968L165.58 69.137C165.572 69.3048 165.454 69.4108 165.286 69.402L156.982 68.9674C156.814 68.9586 156.708 68.8409 156.717 68.6731Z" fill="black"/>
<path d="M184.936 71.5374L181.852 71.1524C181.685 71.1316 181.588 71.0066 181.609 70.8399L183.502 55.6696C183.516 55.5585 183.467 55.496 183.356 55.4821L180.383 55.111C180.217 55.0902 180.119 54.9652 180.14 54.7985L180.48 52.0756C180.501 51.9089 180.626 51.8116 180.793 51.8324L190.712 53.0706C190.878 53.0914 190.976 53.2164 190.955 53.3831L190.615 56.106C190.594 56.2727 190.469 56.3699 190.302 56.3491L187.329 55.978C187.218 55.9642 187.156 56.0128 187.142 56.1239L185.248 71.2942C185.227 71.4609 185.102 71.5582 184.936 71.5374Z" fill="black"/>
<path d="M192.88 72.7326L195.958 54.5107C195.986 54.3451 196.115 54.2533 196.281 54.2813L204.48 55.6662C204.646 55.6942 204.738 55.8233 204.71 55.9889L204.253 58.6946C204.225 58.8603 204.096 58.9521 203.93 58.9241L199.237 58.1313C199.126 58.1127 199.062 58.1586 199.043 58.269L198.353 62.3551C198.334 62.4656 198.38 62.5301 198.491 62.5488L202.549 63.2343C202.715 63.2622 202.807 63.3913 202.779 63.557L202.322 66.2627C202.294 66.4283 202.165 66.5201 201.999 66.4921L197.94 65.8066C197.83 65.788 197.765 65.8339 197.747 65.9443L197.029 70.1961C197.01 70.3065 197.056 70.3711 197.166 70.3897L201.86 71.1825C202.025 71.2104 202.117 71.3395 202.089 71.5052L201.632 74.2109C201.604 74.3765 201.475 74.4683 201.31 74.4403L193.11 73.0554C192.944 73.0274 192.852 72.8983 192.88 72.7326Z" fill="black"/>
<path d="M204.854 75.7475L212.79 58.5513C212.88 58.3988 212.986 58.307 213.15 58.3423L216.38 59.0368C216.544 59.0721 216.63 59.2051 216.622 59.3752L216.735 78.3017C216.727 78.4718 216.621 78.5636 216.457 78.5283L213.419 77.8751C213.227 77.8339 213.168 77.7067 213.176 77.5366L213.298 74.0401L209.767 73.2809L208.413 76.5126C208.35 76.6709 208.245 76.7628 208.053 76.7216L205.015 76.0683C204.85 76.033 204.792 75.9059 204.854 75.7475ZM210.899 70.5457L213.39 71.0813L213.602 64.3678L213.52 64.3502L210.899 70.5457Z" fill="black"/>
<path d="M220.652 80.2551L225.452 62.4093C225.495 62.2471 225.633 62.168 225.795 62.2117L228.715 62.9971C228.958 63.0626 229.072 63.18 229.075 63.3839L229.291 73.7931L229.399 73.8222L234.699 64.8965C234.804 64.7218 234.961 64.6771 235.204 64.7425L238.098 65.5207C238.26 65.5643 238.339 65.7016 238.295 65.8638L233.495 83.7096C233.452 83.8718 233.315 83.9509 233.152 83.9072L230.53 83.2018C230.367 83.1582 230.288 83.0209 230.332 82.8587L233.19 72.2323L233.028 72.1887L229.049 79.0052C228.951 79.1528 228.814 79.2319 228.625 79.181L227.137 78.781C226.948 78.7301 226.869 78.5929 226.859 78.4161L226.836 70.5233L226.674 70.4797L223.815 81.106C223.772 81.2682 223.635 81.3473 223.472 81.3037L220.85 80.5982C220.687 80.5546 220.608 80.4174 220.652 80.2551Z" fill="black"/>
</svg>
