<svg width="284" height="266" viewBox="0 0 284 266" fill="none" xmlns="http://www.w3.org/2000/svg">
<path fill-rule="evenodd" clip-rule="evenodd" d="M157.27 88.5C157.27 127.436 125.706 159 86.77 159C83.8243 159 80.9209 158.819 78.07 158.468C76.2927 164.102 75.2451 170.059 75.038 176.229C78.8765 176.738 82.7926 177 86.77 177C135.647 177 175.27 137.377 175.27 88.5C175.27 39.6228 135.647 0 86.77 0C43.8838 0 8.12243 30.5047 0 71H16.27H18.459C26.2417 40.5295 53.8749 18 86.77 18C125.706 18 157.27 49.5639 157.27 88.5ZM53.2943 150.561C51.4437 156.409 50.1586 162.508 49.5031 168.794C24.344 157.098 5.60091 133.924 0 106H16.27H18.459C23.3754 125.248 36.2129 141.328 53.2943 150.561Z" fill="white"/>
<path fill-rule="evenodd" clip-rule="evenodd" d="M126.27 88.5C126.27 127.436 157.834 159 196.77 159C229.665 159 257.298 136.471 265.081 106H267.27H283.54C275.418 146.495 239.656 177 196.77 177C147.893 177 108.27 137.377 108.27 88.5C108.27 68.395 114.974 49.8558 126.269 34.9961C131.162 38.6146 135.542 42.8883 139.277 47.6878C131.086 59.2056 126.27 73.2903 126.27 88.5ZM196.77 18C182.477 18 169.177 22.2536 158.067 29.564C154.166 24.8506 149.807 20.5304 145.058 16.6718C159.604 6.18094 177.465 0 196.77 0C239.656 0 275.418 30.5047 283.54 71H267.27H265.081C257.298 40.5295 229.665 18 196.77 18Z" fill="white"/>
<path fill-rule="evenodd" clip-rule="evenodd" d="M142 216L45 64H239L142 216ZM142 186.258L74.1909 80H209.809L142 186.258Z" fill="white"/>
<path fill-rule="evenodd" clip-rule="evenodd" d="M141.5 108C102.564 108 71 139.564 71 178.5C71 211.395 93.5295 239.028 124 246.811V265.27C83.5047 257.148 53 221.386 53 178.5C53 129.623 92.6228 90 141.5 90C179.952 90 212.676 114.522 224.886 148.781C219.5 151.297 213.722 153.113 207.668 154.111C197.743 127.195 171.863 108 141.5 108Z" fill="white"/>
<path d="M159 265.27C199.495 257.148 230 221.386 230 178.5C230 177.287 229.976 176.081 229.927 174.88C224.2 177.08 218.199 178.726 211.989 179.754C211.425 212.096 189.083 239.127 159 246.811V265.27Z" fill="white"/>
</svg>
