<svg width="445" height="672" viewBox="0 0 445 672" fill="none" xmlns="http://www.w3.org/2000/svg">
<path d="M187.6 182.99H115.5L151 238.89C153.477 236.359 160.176 230.662 163.027 229.09L144.5 198.99H184.1C184.867 193.413 186.192 187.729 187.6 182.99Z" fill="white"/>
<path d="M225.5 356.49L160.7 254.19C163.7 251.19 169.545 245.987 173.045 243.987L226 327.49L242.094 304.684C246.373 306.743 250.073 308.381 255.556 309.89L225.5 356.49Z" fill="white"/>
<path d="M201.676 198.99H305.5C305.5 198.99 272.022 254.249 250.543 288.966C254.924 290.993 259.252 292.567 264.494 294.303L335.5 182.99H205.6C203.752 187.92 201.839 194.899 201.676 198.99Z" fill="white"/>
<path d="M285.5 110.99C262.931 110.99 241.954 118.838 225.178 131.399C229.636 134.756 232.387 137.32 235.583 141.236C249.607 131.432 267.091 125.49 285.5 125.49C323.238 125.49 355.359 149.043 367.176 182.745C372.445 181.619 376.864 179.782 379.697 176.773C366.658 138.25 330.038 110.99 285.5 110.99Z" fill="white"/>
<path d="M210.734 144.638C194.44 162.501 185 185.907 185 211.99C185 213.707 185.043 215.414 185.128 217.111C190.125 215.226 192.893 214.232 199 213.003C198.999 212.8 199 212.193 199 211.99C199 189.581 207.025 169.518 221.004 154.153C217.962 150.364 214.357 147.128 210.734 144.638Z" fill="white"/>
<path d="M187.571 235.864C198.551 279.466 238.49 312.49 285.5 312.49C333.513 312.49 373.661 278.721 383.625 233.707C380.942 228.469 378.19 226.359 371.117 224.295C365.1 266.19 329.06 298.49 285.5 298.49C244.357 298.49 209.54 269.223 200.776 230.734C195.323 232.448 192.401 233.54 187.571 235.864Z" fill="white"/>
<path d="M221.539 226.49C173.766 226.49 135.039 265.217 135.039 312.99C135.039 342.788 150.106 369.068 173.039 384.624V401.034C142.037 383.919 121.039 350.907 121.039 312.99C121.039 257.485 166.034 212.49 221.539 212.49C229.774 212.49 237.361 213.359 245.02 215.228C245.02 221.411 244.202 224.775 243.386 229.194C236.162 227.238 229.381 226.49 221.539 226.49Z" fill="white"/>
<path d="M273.039 382.495C294.276 366.733 308.039 340.796 308.039 312.317C313.332 310.87 316.676 309.873 321.853 307.59C321.97 309.575 322.039 310.975 322.039 312.99C322.039 349.671 302.387 381.762 273.039 399.309V382.495Z" fill="white"/>
<path d="M319.286 289.396C316.211 291.199 311.224 292.871 305.988 294.123C303.129 280.615 297.387 269.254 289.029 258.879L297.106 246.722C307.508 258.656 315.434 273.505 319.286 289.396Z" fill="white"/>
<path d="M282.492 233.413L274.982 245.291C270.298 241.103 265.763 237.371 259.984 235.068C261.042 230.221 261.784 226.103 262.284 220.378C268.946 223.473 276.72 228.998 282.492 233.413Z" fill="white"/>
<path d="M261 212.19C261 238.341 251.312 261.559 234.942 279.438C230.696 276.615 228.157 274.382 224.279 270.362C238.699 254.908 247 234.993 247 212.19C247 208.463 246.765 204.692 246.307 201.09H260.405C260.798 204.702 261 208.472 261 212.19Z" fill="white"/>
<path d="M66.7309 175.001C81.5217 137.921 118.144 110.99 160.5 110.99C207.635 110.99 243.051 140.908 256.178 181.136H241.317C228.799 148.784 197.271 125.49 160.5 125.49C123.275 125.49 91.1565 149.232 78.9587 182.218C72.0535 179.506 69.571 177.773 66.7309 175.001Z" fill="white"/>
<path d="M138.819 295.719C137.664 300.888 137.283 303.79 136.856 308.966C154.601 313.35 175.032 313.107 192.287 307.359L184.173 295.211C169.686 299.324 153.402 299.722 138.819 295.719Z" fill="white"/>
<path d="M202.632 287.482L210.435 299.259C214.085 297.142 218.154 294.177 221.494 291.633C217.065 287.918 214.768 285.839 211.123 282.138C208.32 284.164 205.673 285.797 202.632 287.482Z" fill="white"/>
<path d="M119.826 303.34C89.64 288.853 69.7625 261.799 63.1162 235.748L72.8285 226.303H74.2991C79.5936 253.895 96.0995 277.818 122.212 289.94C120.881 294.146 120.103 298.229 119.826 303.34Z" fill="white"/>
<path d="M63.1162 235.748L72.8285 226.303H74.2991C74.0432 225.083 73.9244 224.266 73.897 224.01L72.1962 223.543C67.3682 225.453 63.6131 229.563 62.2324 231.52C62.4843 233.141 62.8326 234.636 63.1162 235.748Z" fill="white"/>
<path d="M78.9587 182.218C72.0535 179.506 69.571 177.773 66.7309 175.001L65.7161 177.644C67.0525 178.789 71.3381 181.482 78.2396 184.031L78.9587 182.218Z" fill="white"/>
<path d="M256 82.4898C260.418 82.4898 264 86.0715 264 90.4898V111.99C266.679 110.761 268.203 110.254 271 109.99V91.4898C271 81.5486 262.941 74.9897 253 74.9897H241C244.09 62.4558 249.581 59.1889 261.5 55.4897C242.25 38.2031 233.722 26.143 222.5 0.489746C211.714 24.3422 203.431 36.4659 184 55.4897C195.539 59.0195 199.964 63.2372 204 74.9897H193C183.059 74.9897 175 81.5486 175 91.4898V108.688C177.499 109.042 180.006 109.71 182 110.707V90.4898C182 86.0715 185.582 82.4898 190 82.4898H215.5L210.5 74.9897C209.873 66.6454 208.106 61.8946 196.5 52.9897C208.184 40.338 213.973 32.7385 222.5 17.9897C231.008 33.021 236.614 40.7568 248.5 52.9897C236.894 61.8946 235.127 66.6454 234.5 74.9897L229.5 82.4897L256 82.4898Z" fill="white"/>
<path d="M91 236.49C88.7305 235.518 85.994 232.879 85 230.49V210.49C68.8576 212.328 62.1724 216.726 53 228.49C41.2242 217.568 33.9021 211.77 18.5 202.49C33.2756 193.639 40.98 188.183 53 176.99C61.8104 187.997 68.6717 192.4 85 196.49V176.49C86.077 173.896 88.8114 171.244 91 170.49H182V129.768C180.17 128.969 177.372 128.327 175 127.909V163.49H93C89.8971 165.038 85 172.84 82.3528 177.99V181.99C80.9664 183.728 79.8181 184.684 78 185.99C65.7056 182.149 59.3015 178.163 55.6717 163.49C37.9432 183.349 25.6896 191.384 0.5 202.49C25.2631 213.09 37.1782 221.657 55 241.49C59.2191 231.148 62.0583 225.845 72 221.49L77 223.093V226.49C76.4744 236.29 84.1155 243.877 94 243.49H147.124L150 240.49L146.5 236.49H91Z" fill="white"/>
<path d="M359.5 230.49C359.5 233.803 356.314 236.49 353 236.49H303.5L299 243.49H351C360.389 243.49 368 235.879 368 226.49V221.99C380.423 222.38 385.577 228.062 389.5 242.49C407.702 223.77 417.961 213.323 445 202.49C420.3 192.296 408.174 183.715 389.5 163.49C384.757 177.038 379.891 182.49 368 184.99C366.005 184.343 364.901 183.676 363 180.99V176.201C360.133 170.508 356.312 164.995 352.093 163.49H271V128.024C268.651 128.193 265.346 128.943 264 129.729V163.49V170.49H271H353C355.67 171.056 358.779 173.81 359.5 176.49V197.49C377.518 191.988 384.725 187.649 392 177.49C404.086 188.489 411.545 193.95 426 202.49C411.432 210.854 404.129 216.744 392 228.49C381.136 215.022 373.539 210.929 359.5 209.99V230.49Z" fill="white"/>
<path d="M264 432.49C264 436.908 260.418 440.49 256 440.49H235.5L240 447.49L240.5 447.49L249 447.49H253C262.941 447.49 271 439.431 271 429.49V312.07C268.189 311.919 266.649 311.797 264 311.49V432.49Z" fill="white"/>
<path d="M195 447.49C194.276 465.272 188.532 471.512 169.5 476.49C195.935 499.315 206.987 517.769 222.5 556.99C236.666 521.121 245.84 501.914 273.5 476.99C254.021 470.505 248.894 463.924 249 447.49L240.5 447.49C243.783 466.068 247.239 474.187 259.5 479.99C241.414 496.705 234.136 510.533 222.5 536.49C209.976 509.855 202.001 496.64 184.5 479.99C199.564 472.026 202.037 463.973 203.329 447.49H195Z" fill="white"/>
<path d="M174.5 243.09L180 239.49L182 241.49V254.501L174.5 243.09Z" fill="white"/>
<path d="M264 262.99L271 252.49V242.99L265.5 240.49L264 241.49V262.99Z" fill="white"/>
<path d="M175 295.49C177.836 295.119 179.378 294.719 182 293.49V291.49L175 279.49V295.49Z" fill="white"/>
<path d="M190 440.49C185.582 440.49 182 436.908 182 432.49V311.143C179.268 311.798 177.735 312.068 175 312.409V429.49C175 439.431 183.059 447.49 193 447.49H195H203.329H204L208.5 440.49H190Z" fill="white"/>
<path fill-rule="evenodd" clip-rule="evenodd" d="M267.289 294.927C268.599 294.823 269.581 294.582 271 293.99V286.49L266.22 294.617L267.289 294.927Z" fill="white"/>
<path d="M34.5 242.521H60.5M40.5 291.49L64.5 284.99M60 336.49L81 323.99M106.5 357.99L89 375.49M141 384.49L128.5 405.49M59.5 148.49L77 158.49M90 109.99L107.5 127.49M411.5 242.521H381.5M378 283.99L404.5 291.49M363 323.49L385.5 336.49M337.5 357.49L355.5 374.99M304.5 383.99L316.5 404.49M355.5 109.99L340 125.99M385.5 148.99L370 158.49M174 61.4897L179 78.4897M271.5 61.4897L267 77.9897M317 80.4897L301.5 106.49M128.5 80.4897L143 104.49M73.5 306.49L69 308.49M95 342.99L90.5 346.49M125 372.49L121 377.49M159 398.99L162 392.99M288 398.99L284.5 391.99M325.5 376.99L321.5 371.99M356.5 346.49L351.5 342.49M378 308.49L373 305.99M389.5 266.49L383.5 265.49M325 111.49L321 117.49M287.5 89.9897L285 94.9897M159 89.9897L161.5 94.9897M121.5 111.99L124.5 115.99M57 266.49L62 265.49" stroke="white" stroke-width="2" stroke-linecap="round"/>
<path d="M71.5382 591.141L72.1442 591.545C71.9422 592.421 71.5382 593.33 70.9322 594.272C70.3935 595.215 69.7539 596.09 69.0132 596.898C68.2725 597.706 67.4645 598.447 66.5892 599.12C65.7139 599.726 64.8385 600.198 63.9632 600.534V638.51C65.2425 637.568 67.1615 635.346 69.7202 631.844C69.7202 642.618 64.1989 650.092 53.1562 654.266C49.7222 655.546 46.5912 656.185 43.7632 656.185C39.3192 656.185 35.6832 655.647 32.8552 654.569C27.9399 652.617 24.1019 649.654 21.3412 645.681C18.5805 641.709 17.2002 637.063 17.2002 631.743V631.339L17.3012 631.238C17.3012 624.034 19.5905 617.334 24.1692 611.139C27.5359 606.291 31.7105 603.564 36.6932 602.958C30.4985 609.894 27.4012 616.425 27.4012 622.552C27.4012 625.784 27.8389 628.747 28.7142 631.44C29.5895 634.066 30.9025 636.457 32.6532 638.611V638.51C36.4912 643.156 41.4065 645.479 47.3992 645.479H47.5002L47.7022 645.378C52.4829 645.378 56.6575 644.133 60.2262 641.641V602.049H60.0242C59.4855 602.251 59.0479 602.352 58.7112 602.352C58.1052 602.622 56.4892 602.756 53.8632 602.756L53.7622 602.857H53.4592C52.1125 602.857 50.8332 602.824 49.6212 602.756C48.4765 602.689 47.3992 602.588 46.3892 602.453C46.1199 602.386 45.6822 602.319 45.0762 602.251C44.5375 602.117 43.7969 601.982 42.8542 601.847C42.1135 601.713 41.2719 601.578 40.3292 601.443C39.3865 601.241 38.3092 601.039 37.0972 600.837C33.5285 600.164 30.4649 599.827 27.9062 599.827H27.4012C27.1319 599.895 26.3575 599.928 25.0782 599.928C22.0482 600.265 19.5232 601.814 17.5032 604.574V603.261C17.5032 601.713 18.1092 599.928 19.3212 597.908C22.7552 592.522 28.0409 589.795 35.1782 589.727L35.6832 589.525C37.9052 589.66 41.5412 590.064 46.5912 590.737L52.1462 591.747C52.4829 591.882 52.9542 592.017 53.5602 592.151C54.2335 592.286 55.0752 592.421 56.0852 592.555L58.2062 592.757L60.3272 593.06H62.8522L62.9532 592.959H64.3672L64.4682 593.06C67.2289 593.06 69.5855 592.421 71.5382 591.141ZM52.8532 631.137C52.8532 633.763 51.5402 636.288 48.9142 638.712C46.4229 641.002 43.7969 642.146 41.0362 642.146H40.4302V642.045H39.5212L40.2282 641.237V640.934L40.4302 640.833C40.4302 640.699 40.4639 640.598 40.5312 640.53L40.8342 640.227C40.8342 639.958 41.0025 639.655 41.3392 639.318V639.015L41.4402 638.914V638.712L41.5412 638.611V613.563L38.6122 614.977V610.836L50.7322 603.766H52.8532V631.137Z" fill="white"/>
<path d="M133.492 615.684C133.492 618.243 132.718 620.364 131.169 622.047C129.621 623.731 127.634 624.572 125.21 624.572C123.258 624.572 121.372 623.697 119.554 621.946L116.827 624.774V642.954C116.962 643.022 117.164 643.089 117.433 643.156C117.703 643.224 118.006 643.291 118.342 643.358H118.241C119.588 643.493 120.968 644.267 122.382 645.681L124.2 643.863L126.422 646.287L116.019 656.387C112.249 652.819 108.714 651.034 105.414 651.034C104.741 651.034 104.135 651.135 103.596 651.337C103.125 651.472 102.62 651.607 102.081 651.741L100.768 652.246C100.768 650.159 101.812 648.072 103.899 645.984C104.303 645.58 104.64 645.277 104.909 645.075C105.246 644.873 105.515 644.705 105.717 644.57L105.515 644.671L105.818 644.368H106.121L106.222 644.267V623.36C105.751 622.687 105.212 622.148 104.606 621.744C104.068 621.273 103.428 620.869 102.687 620.532C102.485 620.465 102.182 620.364 101.778 620.229C101.644 620.162 101.341 620.095 100.869 620.027C100.465 619.893 100.162 619.792 99.9602 619.724C104.135 617.3 107.401 613.799 109.757 609.22C113.326 611.038 115.683 614.27 116.827 618.916L117.736 617.704C118.073 617.368 118.41 617.031 118.746 616.694C119.083 616.29 119.453 615.853 119.857 615.381C121.137 614.102 122.551 612.25 124.099 609.826V609.523L124.907 609.422C126.119 613.26 127.904 615.179 130.26 615.179C131.068 615.179 132.146 614.573 133.492 613.361V615.684Z" fill="white"/>
<path d="M184.871 647.802L176.185 656.185C175.108 656.118 174.031 655.882 172.953 655.478C171.876 655.142 170.866 654.569 169.923 653.761C167.903 652.145 166.893 650.294 166.893 648.206V622.754C165.883 622.687 165.109 622.081 164.57 620.936L163.156 621.744L161.742 619.724L162.045 619.219L162.146 619.32L162.348 619.118L162.55 619.017C163.224 618.411 163.964 617.738 164.772 616.997C165.58 616.189 166.658 615.213 168.004 614.068C168.745 613.597 169.654 612.856 170.731 611.846C170.731 611.846 170.832 611.745 171.034 611.543C171.304 611.341 171.539 611.139 171.741 610.937V609.725C174.502 613.631 176.926 615.583 179.013 615.583C179.485 615.583 180.562 615.112 182.245 614.169V615.381C182.111 615.785 182.043 616.257 182.043 616.795C181.505 618.344 180.798 619.623 179.922 620.633C179.047 621.576 178.138 622.249 177.195 622.653V644.166C177.195 644.57 177.364 645.109 177.7 645.782C178.306 647.062 179.687 647.701 181.841 647.701C182.582 647.701 183.457 647.499 184.467 647.095L184.871 647.802ZM181.033 601.746C181.033 602.689 180.798 603.598 180.326 604.473C179.922 605.281 179.35 606.022 178.609 606.695C177.936 607.301 177.128 607.806 176.185 608.21C175.31 608.614 174.401 608.816 173.458 608.816H172.65V608.715H171.64L171.438 608.614C168.88 608.614 167.297 607.571 166.691 605.483L165.075 606.291L163.762 604.069C164.301 603.531 164.873 603.127 165.479 602.857C166.085 602.521 166.658 602.218 167.196 601.948L166.994 602.15C167.196 602.016 167.466 601.814 167.802 601.544C168.206 601.208 168.577 600.905 168.913 600.635C169.385 600.299 169.923 599.895 170.529 599.423C171.203 598.952 171.91 598.447 172.65 597.908C174.401 600.467 176.219 601.746 178.104 601.746C178.441 601.612 178.71 601.544 178.912 601.544C179.182 601.477 179.485 601.376 179.821 601.241H179.72L179.922 601.039H180.023L180.124 600.938H180.225L180.326 600.837H181.033V601.746Z" fill="white"/>
<path d="M255.551 645.984L246.865 656.488C245.922 656.421 244.98 656.185 244.037 655.781C243.094 655.377 242.185 654.839 241.31 654.165C239.694 652.886 238.886 651.304 238.886 649.418V622.956C238.617 622.956 238.415 622.923 238.28 622.855H238.078L237.977 622.754L237.573 622.552H237.674C236.597 622.283 235.721 621.913 235.048 621.441C234.375 620.97 233.769 620.364 233.23 619.623L229.089 622.956V644.166C229.897 644.503 230.638 644.84 231.311 645.176C231.984 645.513 232.523 645.85 232.927 646.186C233.668 646.658 234.307 647.196 234.846 647.802C235.452 648.341 235.991 648.913 236.462 649.519L227.069 656.286C223.433 652.852 219.73 651.135 215.959 651.135H215.656L215.555 651.236H215.05L214.949 651.337H214.545L214.444 651.438H213.434C213.973 648.812 215.555 646.725 218.181 645.176V622.451C216.969 620.431 215.286 619.421 213.131 619.421L212.929 619.32H212.424V618.613L222.726 608.311C223.803 609.254 224.712 610.129 225.453 610.937C226.261 611.678 226.901 612.419 227.372 613.159C228.449 614.843 229.022 616.627 229.089 618.512L241.007 608.513C243.835 612.419 246.023 614.371 247.572 614.371C248.313 614.371 250.03 613.799 252.723 612.654V614.068L252.622 614.27V615.28L252.521 615.482C252.521 617.098 251.612 618.815 249.794 620.633V644.166C249.794 645.513 250.804 646.186 252.824 646.186H253.228L253.329 646.085H254.137L254.238 645.984H255.551Z" fill="white"/>
<path d="M306.59 647.802L297.904 656.185C296.827 656.118 295.749 655.882 294.672 655.478C293.595 655.142 292.585 654.569 291.642 653.761C289.622 652.145 288.612 650.294 288.612 648.206V622.754C287.602 622.687 286.828 622.081 286.289 620.936L284.875 621.744L283.461 619.724L283.764 619.219L283.865 619.32L284.067 619.118L284.269 619.017C284.942 618.411 285.683 617.738 286.491 616.997C287.299 616.189 288.376 615.213 289.723 614.068C290.464 613.597 291.373 612.856 292.45 611.846C292.45 611.846 292.551 611.745 292.753 611.543C293.022 611.341 293.258 611.139 293.46 610.937V609.725C296.221 613.631 298.645 615.583 300.732 615.583C301.203 615.583 302.281 615.112 303.964 614.169V615.381C303.829 615.785 303.762 616.257 303.762 616.795C303.223 618.344 302.516 619.623 301.641 620.633C300.766 621.576 299.857 622.249 298.914 622.653V644.166C298.914 644.57 299.082 645.109 299.419 645.782C300.025 647.062 301.405 647.701 303.56 647.701C304.301 647.701 305.176 647.499 306.186 647.095L306.59 647.802ZM302.752 601.746C302.752 602.689 302.516 603.598 302.045 604.473C301.641 605.281 301.069 606.022 300.328 606.695C299.655 607.301 298.847 607.806 297.904 608.21C297.029 608.614 296.12 608.816 295.177 608.816H294.369V608.715H293.359L293.157 608.614C290.598 608.614 289.016 607.571 288.41 605.483L286.794 606.291L285.481 604.069C286.02 603.531 286.592 603.127 287.198 602.857C287.804 602.521 288.376 602.218 288.915 601.948L288.713 602.15C288.915 602.016 289.184 601.814 289.521 601.544C289.925 601.208 290.295 600.905 290.632 600.635C291.103 600.299 291.642 599.895 292.248 599.423C292.921 598.952 293.628 598.447 294.369 597.908C296.12 600.467 297.938 601.746 299.823 601.746C300.16 601.612 300.429 601.544 300.631 601.544C300.9 601.477 301.203 601.376 301.54 601.241H301.439L301.641 601.039H301.742L301.843 600.938H301.944L302.045 600.837H302.752V601.746Z" fill="white"/>
<path d="M359.721 647.701L349.924 656.387C346.288 652.953 342.786 651.236 339.42 651.236C337.804 651.236 336.592 651.842 335.784 653.054V651.64C335.784 651.371 336.087 650.563 336.693 649.216C337.635 647.062 338.948 645.547 340.632 644.671V619.32H338.814C338.342 619.59 337.804 619.792 337.198 619.926C337.13 619.994 336.827 620.095 336.289 620.229L336.087 620.431H335.885L334.774 621.037C334.774 620.768 334.774 620.532 334.774 620.33C334.774 620.061 334.807 619.859 334.875 619.724V619.421L334.976 619.219C334.976 618.95 335.009 618.748 335.077 618.613V617.805C335.077 617.603 335.077 617.401 335.077 617.199C335.144 616.997 335.211 616.762 335.279 616.492V615.886L335.178 615.583V614.573C334.908 613.833 334.774 612.587 334.774 610.836C335.649 611.308 336.39 611.644 336.996 611.846C337.602 612.048 338.073 612.183 338.41 612.25C338.544 612.183 339.016 612.149 339.824 612.149H340.632V607.503L340.531 607.301V606.291C340.531 606.291 340.497 606.258 340.43 606.19C340.43 606.056 340.396 605.921 340.329 605.786C340.261 605.652 340.194 605.517 340.127 605.382C340.127 605.18 340.093 605.012 340.026 604.877V604.776C339.891 604.642 339.824 604.339 339.824 603.867L340.531 603.665L340.632 603.867H341.137V603.968C345.042 603.968 348.745 601.814 352.247 597.504V598.918L352.146 599.019C352.078 599.154 352.011 599.356 351.944 599.625C351.944 599.895 351.876 600.231 351.742 600.635C351.742 600.501 351.742 600.534 351.742 600.736C351.742 600.938 351.708 601.107 351.641 601.241C351.371 602.386 351.237 603.228 351.237 603.766V612.149H354.469L354.671 612.25C355.815 612.25 357.061 611.779 358.408 610.836C358.408 610.904 358.374 611.106 358.307 611.442C358.307 611.712 358.307 611.88 358.307 611.947C358.239 612.082 358.206 612.284 358.206 612.553C358.004 612.957 357.903 613.833 357.903 615.179H358.004C358.004 616.661 358.206 618.613 358.61 621.037L357.398 620.431L357.297 620.33H357.196C356.455 620.061 355.58 619.859 354.57 619.724C353.627 619.522 352.516 619.388 351.237 619.32V643.459C351.708 643.931 352.28 644.166 352.954 644.166C352.954 644.166 353.055 644.2 353.257 644.267C353.459 644.335 353.593 644.402 353.661 644.469C353.863 644.671 354.065 644.772 354.267 644.772C354.334 644.84 354.401 644.907 354.469 644.974C354.603 644.974 354.704 645.008 354.772 645.075H354.671C354.873 645.21 355.142 645.412 355.479 645.681C355.815 645.883 356.186 646.119 356.59 646.388L357.6 645.277L359.721 647.701Z" fill="white"/>
<path d="M428.348 621.179V621.684C428.348 623.923 425.717 626.621 423.803 627.441V648.408C423.803 651.91 420.874 654.334 415.016 655.68C414.208 655.815 413.434 655.916 412.693 655.983C412.02 656.118 411.414 656.185 410.875 656.185H410.269C410.202 656.185 409.899 656.219 409.36 656.286C402.223 656.825 398.654 658.441 398.654 661.134C398.654 662.144 399.294 662.649 400.573 662.649C401.179 662.649 403.233 661.673 406.734 659.72C410.101 657.835 413.211 656.892 415.824 656.892C418.181 656.892 420.201 657.633 421.884 659.114C423.568 660.596 424.409 662.447 424.409 664.669C424.409 666.622 423.669 668.238 422.187 669.517C420.773 670.797 419.023 671.436 416.935 671.436C415.05 671.436 413.838 671.167 413.299 670.628V667.194C414.377 667.8 415.42 668.103 416.43 668.103C417.181 668.103 417.805 667.901 418.45 667.497C418.989 667.161 419.258 666.79 419.258 666.386C419.258 665.376 418.45 665.275 417.743 665.275H417.642C416.094 665.275 414.006 666.083 411.38 667.699C409.832 668.709 408.485 669.484 407.34 670.022C406.263 670.561 405.421 670.898 404.815 671.032C404.479 671.1 404.075 671.133 403.603 671.133C403.132 671.201 402.526 671.234 401.785 671.234C400.641 671.234 399.53 670.999 398.452 670.527C397.375 670.123 396.432 669.551 395.624 668.81C394.816 668.07 394.143 667.194 393.604 666.184C393.133 665.242 392.897 664.198 392.897 663.053V662.548H392.998C393.133 659.114 394.85 656.589 398.149 654.973C396.803 654.367 395.591 653.526 394.513 652.448C392.897 650.967 392.089 649.452 392.089 647.903V621.542C392.089 619.994 390.473 619.051 387.241 618.714V618.007L398.048 609.523C398.52 609.793 399.025 610.163 399.563 610.634C400.102 611.106 400.607 611.644 401.078 612.25C402.223 613.799 402.795 614.944 402.795 615.684L402.896 615.886V616.492L402.997 616.593V649.418C402.997 651.425 405.954 652.246 408.146 652.246C409.556 652.246 412.693 652.115 412.693 650.024V621.554C411.351 621.554 409.853 620.549 409.281 619.869L417.733 617.118C419.82 619.946 421.898 621.179 424.75 621.179C426.163 621.179 427.406 620.304 428.348 619.563V621.179Z" fill="white"/>
</svg>
