<svg width="399" height="403" viewBox="0 0 399 403" fill="none" xmlns="http://www.w3.org/2000/svg">
<path d="M112.38 94.2111C112.911 93.5737 114.77 93.3081 117.957 93.4144C128.031 95.5798 132.317 99.4976 134.346 105.599C134.878 107.2 134.92 108.916 134.712 110.59C132.361 129.5 129.899 143.669 127.966 154.148C127.541 156.485 129.081 157.441 132.587 157.016C147.884 155.317 158.985 154.679 165.891 155.104C169.077 155.317 170.883 153.829 171.308 150.642C172.264 142.356 171.627 138.107 169.715 133.752C169.184 132.796 168.387 131.84 167.325 130.883C166.156 130.034 165.625 129.29 165.731 128.653C166.156 127.909 168.015 127.909 171.308 128.653C174.874 129.885 179.116 132.583 179.435 135.982C181.772 145.225 182.622 153.829 181.985 161.797C181.878 167.958 180.338 172.42 177.364 175.182C174.708 177.519 171.893 176.935 168.918 173.429C167.431 170.986 167.006 168.383 167.643 165.621C169.131 162.328 168.281 160.788 165.094 161C132.693 163.656 107.728 169.923 90.2001 179.803C87.0132 182.353 83.8262 183.627 80.6392 183.627C77.0273 183.202 73.2561 179.856 69.3255 173.588C67.2009 168.383 68.9537 163.178 74.584 157.972C78.8333 152.023 81.011 146.128 81.1173 140.285C80.9048 137.098 80.9579 135.239 81.2766 134.708C81.8078 134.176 83.5075 135.982 86.3758 140.125C87.9692 142.675 88.5004 146.128 87.9692 150.483C87.4381 155.901 86.1102 160.894 83.9855 165.462C82.6045 168.011 83.6668 168.596 87.1725 167.215C97.3708 163.709 107.41 161.053 117.289 159.247C120.051 158.822 121.379 157.069 121.273 153.989C120.954 139.541 120.795 125.094 120.795 110.646C119.939 103.56 118.96 101.82 116.204 98.9916C113.229 97.3981 111.955 95.8046 112.38 94.2111Z" fill="black"/>
<path d="M264.285 83.1956C262.879 80.9142 262.929 79.7734 264.435 79.7734C267.548 81.0092 269.305 83.3857 269.707 86.903C268.903 92.9869 266.494 99.6411 262.477 106.866C260.971 109.813 260.67 111.286 261.574 111.286C262.477 111.096 263.481 110.668 264.586 110.003C272.117 106.105 279.647 102.398 287.178 98.8806C289.487 98.0251 292.399 98.6905 295.914 100.877C297.42 101.828 297.52 103.348 296.215 105.44C290.893 110.478 286.224 115.944 282.208 121.838C280.702 124.214 281.605 124.785 284.919 123.549C289.738 121.933 293.554 121.505 296.365 122.266C301.285 124.167 304.247 128.54 305.252 135.384V140.517C305.051 143.084 306.356 144.557 309.168 144.938C312.983 145.318 316.246 147.029 318.957 150.071C319.861 151.877 320.012 153.208 319.409 154.063C317.702 156.155 315.041 156.345 311.427 154.634C309.82 153.873 308.163 153.303 306.456 152.923C304.348 152.542 302.792 153.921 301.787 157.058C300.281 162.096 298.524 167.277 296.516 172.6C295.612 174.882 296.616 176.735 299.528 178.161C303.344 180.158 305.754 183.104 306.758 187.002C307.36 191.47 305.402 192.515 300.884 190.139C298.976 188.713 297.068 187.477 295.16 186.432C292.449 185.196 290.291 185.861 288.684 188.428C283.463 197.554 277.438 202.117 270.61 202.117C268.201 201.641 265.188 199.645 261.574 196.128C258.26 192.801 256.854 190.994 257.356 190.709C257.758 190.519 259.766 191.137 263.381 192.563C270.008 195.225 275.43 192.611 279.647 184.72C281.354 182.154 280.852 180.3 278.141 179.159C267.096 174.501 257.658 173.456 249.826 176.022C245.809 179.064 243.048 178.922 241.542 175.595C240.437 173.979 240.337 172.363 241.241 170.747C243.349 169.416 245.257 167.182 246.964 164.045C248.269 162.049 247.617 161.05 245.006 161.05C242.295 161.145 238.58 160.718 233.861 159.767C232.756 159.767 231.501 159.244 230.095 158.199C229.493 157.153 230.296 156.345 232.505 155.774C236.522 155.679 244.203 153.873 255.549 150.356C261.373 141.991 269.807 128.92 280.852 111.143C282.358 108.672 282.71 107.436 281.906 107.436C270.761 112.664 261.272 118.13 253.44 123.834C250.729 125.07 248.47 123.834 246.663 120.127C245.157 116.705 246.512 113.663 250.729 111.001C260.067 99.7837 264.586 90.5153 264.285 83.1956ZM218.95 101.162C215.837 97.835 215.837 96.2189 218.95 96.314C224.974 94.9832 230.597 97.2646 235.819 103.158C237.224 104.965 238.028 106.581 238.228 108.006C236.722 110.478 234.614 111.048 231.903 109.718C229.694 109.242 227.434 108.957 225.125 108.862C221.812 109.242 220.155 109.147 220.155 108.577C220.155 108.197 220.506 107.721 221.209 107.151C223.619 105.155 222.866 103.158 218.95 101.162ZM295.914 127.399C294.207 126.068 290.943 126.448 286.124 128.54L280.4 130.108C277.79 130.583 275.631 132.152 273.924 134.814L267.146 145.08C265.741 147.362 266.544 148.217 269.556 147.647C272.669 147.172 275.48 145.46 277.991 142.514L280.4 139.662C282.107 136.81 282.71 134.909 282.208 133.958C281.605 132.912 281.455 132.199 281.756 131.819C282.76 131.534 284.015 131.867 285.521 132.817C287.73 134.909 288.784 137.19 288.684 139.662C288.684 140.517 287.881 141.848 286.274 143.654C283.864 145.08 284.467 145.603 288.082 145.223L290.642 144.938C293.353 144.938 294.96 143.654 295.462 141.088C297.169 134.623 297.319 130.061 295.914 127.399ZM204.943 129.966C205.244 129.49 207.353 129.728 211.269 130.678C216.088 130.869 220.105 131.677 223.318 133.103C225.326 133.958 226.33 135.241 226.33 136.952C226.029 139.614 224.171 141.135 220.757 141.515C217.946 141.801 215.185 143.797 212.474 147.504C211.369 149.405 210.616 150.546 210.214 150.926C209.813 150.926 209.361 150.641 208.859 150.071C209.361 147.884 210.014 145.698 210.817 143.512C212.022 140.28 211.269 137.475 208.558 135.099C206.148 133.578 204.943 131.867 204.943 129.966ZM288.533 151.782C285.622 151.592 282.66 151.734 279.647 152.21C277.137 152.495 277.539 153.446 280.852 155.062C286.475 158.389 287.479 161.716 283.864 165.043C278.442 166.564 273.422 166.992 268.803 166.326C268.301 166.136 268.15 165.803 268.351 165.328C268.954 164.948 270.259 164.377 272.267 163.617C277.288 162.571 278.091 160.242 274.677 156.63C272.97 154.539 270.661 153.778 267.749 154.349L263.381 155.489C260.77 156.345 258.963 157.438 257.959 158.769L254.344 164.473C252.838 167.514 252.236 169.226 252.537 169.606C262.979 170.176 272.619 171.174 281.455 172.6C284.266 173.171 286.073 172.505 286.877 170.604C288.985 166.041 290.742 160.955 292.148 155.347C292.751 152.97 291.546 151.782 288.533 151.782ZM224.673 158.911C226.581 155.965 227.736 154.444 228.137 154.349C228.74 154.254 228.639 155.727 227.836 158.769L218.649 181.583C214.632 191.185 209.009 192.611 201.78 185.861C199.169 180.823 199.621 174.454 203.135 166.754C204.541 163.997 205.495 162.619 205.997 162.619C206.6 164.33 206.399 166.469 205.395 169.035C204.993 170.937 204.792 172.838 204.792 174.739C205.495 178.732 207.051 179.872 209.461 178.161C215.084 172.838 220.155 166.421 224.673 158.911Z" fill="black"/>
<path d="M97.246 206.013C97.3514 202.923 97.5624 201.178 97.8788 200.779C99.7773 200.281 101.518 201.427 103.1 204.219C107.424 208.805 108.215 212.793 105.473 216.183C104.102 218.177 102.467 220.171 100.568 222.165C94.0291 229.343 88.1753 236.322 83.0072 243.101C81.0032 245.993 81.2669 246.84 83.7982 245.644C90.7594 242.354 96.7186 238.316 101.676 233.53C105.473 231.736 108.637 232.982 111.168 237.269C111.274 237.867 110.219 239.562 108.004 242.354L93.7654 259.851C91.7614 262.343 92.4997 263.091 95.9803 262.094C97.3514 261.695 98.8808 261.097 100.568 260.3C104.154 257.707 107.74 257.309 111.327 259.103C113.225 260.499 113.647 262.094 112.592 263.889C107.951 271.167 101.201 277.846 92.3415 283.928C91.8141 283.928 91.2868 283.679 90.7594 283.18C90.7594 282.582 92.1306 280.788 94.8728 277.797C96.7713 275.304 98.4589 272.812 99.9355 270.319C101.939 267.229 102.783 265.534 102.467 265.235C97.2987 266.83 90.7067 270.22 82.6908 275.404C79.5266 277.697 77.7336 278.843 77.3117 278.843C74.7803 277.747 73.7256 276.301 74.1475 274.507C74.1475 272.712 75.2022 271.316 77.3117 270.319C83.851 264.636 90.1793 256.81 96.2967 246.84C98.3007 243.65 97.8788 243.052 95.0311 245.046C89.0191 250.13 83.0599 254.417 77.1535 257.907C73.9893 260.698 71.247 260.1 68.9266 256.112C68.1883 254.517 68.5575 252.373 70.0341 249.682C73.7256 245.694 77.2062 241.706 80.4759 237.718C89.652 226.551 95.242 215.983 97.246 206.013ZM164.168 201.228C169.442 200.032 173.45 201.029 176.192 204.219C177.141 205.615 177.616 206.662 177.616 207.359C177.194 208.257 175.348 208.705 172.079 208.705C160.371 207.808 148.084 209.553 135.216 213.94C129.731 215.036 125.513 214.787 122.559 213.192C121.716 212.494 121.557 211.796 122.085 211.098C123.034 210.101 125.038 209.304 128.097 208.705C138.222 206.213 150.246 203.72 164.168 201.228ZM163.852 217.529C164.274 216.831 165.487 216.482 167.491 216.482C175.823 218.675 176.35 224.109 169.073 232.783C166.119 235.175 164.432 237.419 164.01 239.512C169.917 241.506 173.924 243.151 176.034 244.447C179.198 246.84 180.727 249.283 180.622 251.775C180.727 253.769 179.831 255.015 177.932 255.514C174.03 255.913 169.495 256.91 164.326 258.505C163.694 258.206 164.326 256.661 166.225 253.869C170.76 249.582 170.233 246.292 164.643 243.999C161.057 241.606 160.002 238.615 161.479 235.026C163.377 230.639 164.696 226.651 165.434 223.062C166.067 221.567 165.856 220.32 164.801 219.323C164.168 218.725 163.852 218.127 163.852 217.529ZM145.5 220.968C147.504 220.071 149.719 220.171 152.144 221.267C154.676 222.165 155.783 223.86 155.467 226.352C154.728 229.941 152.566 233.929 148.98 238.316C146.343 241.307 145.922 243.65 147.715 245.345C149.402 246.94 150.984 247.289 152.461 246.392C154.359 244.996 155.52 244.547 155.941 245.046C156.047 245.743 155.52 247.588 154.359 250.579C153.199 252.772 152.935 254.766 153.568 256.561C154.201 257.558 153.832 258.754 152.461 260.15C149.508 260.848 147.451 258.954 146.291 254.467C146.08 252.473 145.658 250.479 145.025 248.485C144.709 247.089 143.548 245.943 141.544 245.046C140.384 244.846 139.646 244.398 139.329 243.7C139.224 243.002 139.962 242.104 141.544 241.008C144.287 238.914 146.238 234.428 147.398 227.548C147.293 225.156 146.924 223.56 146.291 222.763C145.447 222.065 145.183 221.467 145.5 220.968ZM126.989 225.455C127.306 224.757 128.044 224.408 129.204 224.408C139.329 225.903 139.329 231.985 129.204 242.653C127.095 245.245 126.989 247.638 128.888 249.831C130.575 252.324 132.105 253.121 133.476 252.224C134.53 251.127 135.374 250.579 136.007 250.579C136.429 250.579 136.165 252.324 135.216 255.813C134.372 258.605 134.161 260.599 134.583 261.795C134.478 263.789 134.32 265.035 134.109 265.534C132.527 266.83 131.208 266.78 130.153 265.384C128.044 263.091 127.042 260.599 127.147 257.907C127.253 253.121 125.513 249.981 121.927 248.485C120.872 248.186 120.292 247.737 120.186 247.139C120.186 246.541 120.925 245.793 122.401 244.896C125.46 242.603 127.517 238.366 128.571 232.184C129.731 230.29 129.204 228.047 126.989 225.455ZM162.27 266.281C166.805 265.982 170.497 267.528 173.344 270.917C173.872 272.014 173.555 272.961 172.395 273.759C170.286 274.856 165.698 275.204 158.631 274.806L156.416 275.105C153.99 275.404 153.199 276.002 154.043 276.899C157.313 281.486 155.572 287.069 148.822 293.649C146.396 296.241 146.818 297.238 150.088 296.64C157.787 295.842 165.645 295.244 173.661 294.845C177.458 294.745 180.622 295.693 183.153 297.687C188.216 301.276 189.06 304.317 185.685 306.809C183.575 307.607 181.729 307.457 180.147 306.36C175.507 303.968 171.288 302.771 167.491 302.771C153.041 301.076 139.91 303.569 128.097 310.249C125.565 312.442 122.032 312.641 117.497 310.847C113.805 308.753 112.065 306.061 112.276 302.771C112.487 300.977 113.383 300.727 114.965 302.023C117.18 304.516 119.87 304.865 123.034 303.07C127.042 301.575 131.208 300.428 135.532 299.631C138.38 298.933 140.384 297.537 141.544 295.443C145.236 288.464 146.818 282.482 146.291 277.498C146.08 276.999 144.392 277.099 141.228 277.797L134.741 279.741C130.312 280.04 127.411 278.943 126.04 276.451C126.145 276.052 128.097 275.105 131.894 273.609C136.113 272.214 140.331 270.967 144.55 269.871L162.27 266.281ZM104.524 287.517C107.688 284.925 110.061 283.33 111.643 282.732C112.276 282.632 112.645 282.881 112.75 283.479C112.539 284.078 111.696 285.374 110.219 287.368C105.367 293.35 100.094 299.332 94.3982 305.314C89.2301 311.595 82.4271 313.489 73.9893 310.996C70.8251 309.8 69.0848 308.953 68.7684 308.454C68.8739 306.56 70.0868 305.662 72.4072 305.762C73.7784 306.061 76.046 305.413 79.2102 303.818C84.4838 301.126 92.9216 295.693 104.524 287.517Z" fill="black"/>
<path d="M209.906 223.815C209.906 222.63 210.116 221.57 210.536 220.633C210.985 219.669 211.601 218.87 212.385 218.237C213.17 217.603 214.094 217.135 215.158 216.832C216.223 216.501 217.385 216.35 218.646 216.377C219.963 216.432 221.139 216.68 222.176 217.121C223.212 217.534 224.024 218.016 224.613 218.567C224.809 218.732 225.019 218.967 225.243 219.27C225.495 219.573 225.691 219.889 225.831 220.22C225.999 220.55 226.083 220.867 226.083 221.17C226.111 221.473 225.999 221.707 225.747 221.873C225.579 222.01 225.355 222.079 225.075 222.079C224.823 222.079 224.557 222.052 224.276 221.997C223.996 221.914 223.73 221.818 223.478 221.707C223.226 221.57 223.03 221.446 222.89 221.336C222.302 220.867 221.601 220.495 220.789 220.22C220.005 219.917 219.29 219.752 218.646 219.724C217.806 219.697 217.063 219.779 216.419 219.972C215.775 220.137 215.228 220.385 214.78 220.716C214.36 221.046 214.038 221.432 213.814 221.873C213.59 222.286 213.478 222.713 213.478 223.154C213.478 223.925 213.786 224.6 214.402 225.178C215.018 225.729 215.691 226.17 216.419 226.5C217.203 226.831 218.016 227.175 218.856 227.533C219.724 227.864 220.579 228.236 221.419 228.649C222.26 229.062 223.058 229.517 223.814 230.013C224.571 230.508 225.229 231.087 225.789 231.748C226.377 232.382 226.84 233.125 227.176 233.979C227.512 234.806 227.68 235.756 227.68 236.83C227.68 237.712 227.484 238.579 227.092 239.433C226.7 240.26 226.139 241.017 225.411 241.706C224.683 242.395 223.786 242.959 222.722 243.4C221.685 243.841 220.509 244.075 219.192 244.102C218.212 244.13 217.189 244.033 216.125 243.813C215.06 243.593 214.08 243.235 213.184 242.739C212.287 242.243 211.503 241.609 210.831 240.838C210.186 240.039 209.78 239.075 209.612 237.946C209.556 237.533 209.57 237.147 209.654 236.789C209.738 236.431 209.864 236.128 210.032 235.88C210.2 235.604 210.382 235.398 210.578 235.26C210.803 235.095 211.013 235.012 211.209 235.012C211.405 235.012 211.601 235.122 211.797 235.343C211.993 235.536 212.161 235.77 212.301 236.045C212.441 236.293 212.553 236.541 212.637 236.789C212.749 237.037 212.833 237.216 212.889 237.326C213.17 237.96 213.548 238.497 214.024 238.937C214.5 239.378 215.004 239.736 215.537 240.012C216.097 240.287 216.671 240.494 217.259 240.632C217.848 240.742 218.38 240.783 218.856 240.756C219.5 240.728 220.117 240.618 220.705 240.425C221.293 240.232 221.811 239.97 222.26 239.64C222.708 239.282 223.058 238.855 223.31 238.359C223.59 237.836 223.73 237.257 223.73 236.624C223.73 235.935 223.45 235.26 222.89 234.599C222.358 233.91 221.671 233.277 220.831 232.698C220.019 232.12 219.108 231.596 218.1 231.128C217.119 230.632 216.181 230.219 215.284 229.889C213.716 229.283 212.427 228.456 211.419 227.409C210.41 226.335 209.906 225.137 209.906 223.815Z" fill="black"/>
<path d="M235.425 218.939C235.425 218.636 235.313 218.485 235.089 218.485C234.837 218.485 234.487 218.485 234.039 218.485C233.618 218.457 233.24 218.402 232.904 218.319C232.568 218.237 232.288 218.071 232.064 217.823C231.84 217.576 231.728 217.41 231.728 217.328C231.728 217.135 231.882 216.928 232.19 216.708C232.498 216.487 232.75 216.322 232.946 216.212C233.618 215.881 234.389 215.565 235.257 215.262C236.153 214.959 236.896 214.807 237.484 214.807C237.652 214.807 237.82 214.876 237.988 215.014C238.184 215.151 238.352 215.317 238.492 215.51C238.661 215.675 238.787 215.854 238.871 216.047C238.983 216.212 239.039 216.35 239.039 216.46V226.748C239.515 226.197 240.187 225.702 241.056 225.261C241.952 224.82 242.89 224.6 243.871 224.6C244.823 224.6 245.72 224.765 246.56 225.096C247.428 225.399 248.171 225.894 248.787 226.583C249.431 227.272 249.936 228.167 250.3 229.269C250.692 230.371 250.888 231.707 250.888 233.277C250.888 234.048 250.86 234.902 250.804 235.839C250.748 236.775 250.706 237.725 250.678 238.69C250.678 239.654 250.706 240.618 250.762 241.582C250.846 242.518 251.014 243.372 251.266 244.144C251.406 244.502 251.574 244.887 251.77 245.301C251.966 245.741 251.952 246.072 251.728 246.292C251.616 246.375 251.448 246.402 251.224 246.375C251 246.375 250.762 246.334 250.51 246.251C250.258 246.196 250.006 246.127 249.753 246.044C249.529 245.962 249.361 245.879 249.249 245.796C248.689 245.438 248.255 244.943 247.947 244.309C247.667 243.675 247.456 242.987 247.316 242.243C247.176 241.499 247.092 240.728 247.064 239.929C247.064 239.13 247.064 238.373 247.064 237.657C247.092 235.949 247.036 234.544 246.896 233.442C246.784 232.34 246.574 231.459 246.266 230.798C245.986 230.109 245.622 229.613 245.173 229.31C244.725 228.98 244.193 228.745 243.577 228.608C242.932 228.47 242.148 228.511 241.224 228.732C240.327 228.924 239.599 229.296 239.039 229.847V236.706C239.039 238.056 238.927 239.227 238.703 240.218C238.506 241.21 238.24 242.036 237.904 242.698C237.596 243.359 237.246 243.841 236.854 244.144C236.49 244.447 236.139 244.571 235.803 244.516C235.607 244.488 235.481 244.213 235.425 243.689C235.369 243.166 235.341 242.532 235.341 241.788C235.341 241.017 235.355 240.218 235.383 239.392C235.411 238.566 235.425 237.822 235.425 237.161V218.939Z" fill="black"/>
<path d="M271.299 231.872C271.299 231.293 271.215 230.715 271.047 230.137C270.879 229.53 270.613 228.993 270.249 228.525C269.884 228.029 269.408 227.63 268.82 227.327C268.232 227.024 267.503 226.872 266.635 226.872C265.935 226.872 265.248 226.927 264.576 227.038C263.932 227.148 263.358 227.272 262.853 227.409C260.893 227.905 259.8 227.836 259.576 227.203C259.464 226.872 259.576 226.487 259.912 226.046C260.248 225.605 260.752 225.192 261.425 224.806C262.125 224.421 262.951 224.09 263.904 223.815C264.884 223.539 265.949 223.401 267.097 223.401C268.246 223.401 269.296 223.594 270.249 223.98C271.229 224.366 272.069 224.903 272.77 225.591C273.47 226.253 274.016 227.038 274.408 227.947C274.801 228.856 274.997 229.834 274.997 230.88V239.888C274.997 240.301 275.011 240.838 275.039 241.499C275.067 242.16 275.151 242.753 275.291 243.276C275.515 244.102 275.543 244.598 275.375 244.763C275.235 244.874 275.011 244.915 274.703 244.887C274.422 244.887 274.142 244.832 273.862 244.722C273.498 244.584 273.134 244.295 272.77 243.854C272.434 243.441 272.139 242.877 271.887 242.16C271.747 242.326 271.495 242.532 271.131 242.78C270.795 243.056 270.361 243.317 269.828 243.565C269.296 243.841 268.694 244.075 268.022 244.268C267.377 244.46 266.691 244.571 265.963 244.598C264.506 244.626 263.274 244.474 262.265 244.144C261.257 243.841 260.43 243.414 259.786 242.863C259.17 242.312 258.708 241.678 258.399 240.962C258.119 240.218 257.965 239.447 257.937 238.648C257.909 237.822 258.049 237.009 258.357 236.21C258.666 235.412 259.156 234.709 259.828 234.103C260.5 233.497 261.369 233.015 262.433 232.657C263.498 232.299 264.772 232.134 266.257 232.161C267.069 232.189 267.966 232.34 268.946 232.616C269.926 232.891 270.711 233.235 271.299 233.649V231.872ZM271.341 235.88C270.557 235.604 269.688 235.37 268.736 235.177C267.812 234.985 266.873 234.902 265.921 234.93C263.147 234.985 261.761 236.1 261.761 238.276C261.761 239.351 262.097 240.067 262.769 240.425C263.47 240.783 264.506 240.962 265.879 240.962C266.327 240.962 266.803 240.907 267.307 240.797C267.84 240.687 268.344 240.549 268.82 240.384C269.324 240.191 269.786 239.97 270.207 239.723C270.655 239.475 271.033 239.227 271.341 238.979V235.88Z" fill="black"/>
<path d="M287.3 228.525C287.468 228.277 287.706 228.043 288.015 227.823C288.351 227.602 288.701 227.409 289.065 227.244C289.457 227.079 289.863 226.955 290.284 226.872C290.704 226.762 291.082 226.707 291.418 226.707C293.687 226.707 295.396 227.437 296.544 228.897C297.721 230.357 298.309 232.588 298.309 235.591C298.309 236.279 298.267 236.982 298.183 237.698C298.127 238.414 298.085 239.144 298.057 239.888C298.057 240.632 298.085 241.362 298.141 242.078C298.225 242.794 298.407 243.496 298.687 244.185C298.771 244.35 298.855 244.529 298.939 244.722C299.051 244.943 299.149 245.149 299.234 245.342C299.318 245.562 299.36 245.755 299.36 245.92C299.36 246.086 299.29 246.223 299.149 246.334C299.037 246.416 298.869 246.444 298.645 246.416C298.421 246.416 298.183 246.375 297.931 246.292C297.679 246.237 297.427 246.168 297.175 246.086C296.951 246.003 296.782 245.92 296.67 245.838C296.166 245.507 295.76 245.039 295.452 244.433C295.172 243.827 294.962 243.138 294.822 242.367C294.682 241.623 294.597 240.852 294.569 240.053C294.541 239.227 294.527 238.442 294.527 237.698C294.527 236.844 294.485 236.018 294.401 235.219C294.317 234.392 294.149 233.662 293.897 233.029C293.645 232.368 293.281 231.831 292.805 231.417C292.356 230.977 291.768 230.715 291.04 230.632C290.508 230.577 289.891 230.619 289.191 230.756C288.519 230.866 287.931 231.211 287.426 231.789C287.426 233.277 287.412 234.778 287.384 236.293C287.356 237.781 287.314 239.309 287.258 240.879C287.23 241.678 287.118 242.408 286.922 243.069C286.726 243.758 286.474 244.35 286.166 244.846C285.886 245.369 285.563 245.769 285.199 246.044C284.863 246.347 284.513 246.499 284.149 246.499C283.925 246.499 283.785 246.223 283.729 245.672C283.673 245.122 283.645 244.474 283.645 243.73C283.673 243.014 283.701 242.284 283.729 241.541C283.785 240.797 283.813 240.218 283.813 239.805C283.813 238.152 283.827 236.431 283.855 234.64C283.911 232.822 283.869 230.88 283.729 228.814C283.337 228.566 282.972 228.263 282.636 227.905C282.328 227.547 282.118 227.134 282.006 226.666C281.978 226.556 281.964 226.418 281.964 226.253C281.964 226.06 281.978 225.881 282.006 225.715C282.034 225.55 282.076 225.412 282.132 225.302C282.216 225.164 282.328 225.096 282.468 225.096C282.608 225.096 282.776 225.123 282.972 225.178C283.168 225.233 283.351 225.288 283.519 225.343C283.715 225.426 283.953 225.523 284.233 225.633C284.513 225.743 284.793 225.867 285.073 226.005C285.353 226.115 285.62 226.239 285.872 226.376C286.152 226.514 286.376 226.638 286.544 226.748C286.796 226.941 286.978 227.175 287.09 227.451C287.23 227.699 287.3 228.029 287.3 228.442V228.525Z" fill="black"/>
<path d="M211.943 249.114C211.943 248.81 211.832 248.659 211.61 248.659C211.36 248.659 211.012 248.659 210.567 248.659C210.15 248.631 209.775 248.576 209.441 248.493C209.107 248.411 208.829 248.245 208.607 247.997C208.384 247.749 208.273 247.583 208.273 247.5C208.273 247.307 208.426 247.1 208.732 246.88C209.038 246.659 209.288 246.494 209.483 246.383C210.15 246.052 210.915 245.735 211.777 245.432C212.666 245.128 213.403 244.977 213.987 244.977C214.154 244.977 214.321 245.046 214.488 245.183C214.682 245.321 214.849 245.487 214.988 245.68C215.155 245.845 215.28 246.025 215.364 246.218C215.475 246.383 215.53 246.521 215.53 246.631V256.933C216.003 256.382 216.67 255.885 217.532 255.444C218.422 255.003 219.354 254.782 220.327 254.782C221.272 254.782 222.162 254.947 222.996 255.278C223.858 255.582 224.595 256.078 225.207 256.768C225.846 257.457 226.347 258.354 226.708 259.457C227.098 260.56 227.292 261.898 227.292 263.47C227.292 264.243 227.264 265.098 227.209 266.035C227.153 266.973 227.112 267.925 227.084 268.89C227.084 269.855 227.112 270.821 227.167 271.786C227.251 272.724 227.417 273.579 227.668 274.351C227.807 274.71 227.974 275.096 228.168 275.51C228.363 275.951 228.349 276.282 228.126 276.503C228.015 276.585 227.848 276.613 227.626 276.585C227.404 276.585 227.167 276.544 226.917 276.461C226.667 276.406 226.416 276.337 226.166 276.254C225.944 276.172 225.777 276.089 225.666 276.006C225.11 275.648 224.679 275.151 224.373 274.517C224.095 273.882 223.886 273.193 223.747 272.448C223.608 271.703 223.525 270.931 223.497 270.131C223.497 269.331 223.497 268.573 223.497 267.856C223.525 266.146 223.469 264.739 223.33 263.636C223.219 262.532 223.01 261.65 222.704 260.988C222.426 260.298 222.065 259.802 221.62 259.498C221.175 259.167 220.647 258.933 220.035 258.795C219.395 258.657 218.617 258.699 217.699 258.919C216.81 259.112 216.087 259.485 215.53 260.036V266.904C215.53 268.256 215.419 269.428 215.197 270.421C215.002 271.414 214.738 272.241 214.404 272.903C214.098 273.565 213.751 274.048 213.362 274.351C213 274.655 212.653 274.779 212.319 274.724C212.124 274.696 211.999 274.42 211.943 273.896C211.888 273.372 211.86 272.738 211.86 271.993C211.86 271.221 211.874 270.421 211.902 269.593C211.93 268.766 211.943 268.021 211.943 267.359V249.114Z" fill="black"/>
<path d="M247.553 262.064C247.553 261.484 247.47 260.905 247.303 260.326C247.136 259.719 246.872 259.181 246.51 258.712C246.149 258.216 245.676 257.816 245.092 257.513C244.508 257.209 243.785 257.057 242.923 257.057C242.228 257.057 241.547 257.113 240.88 257.223C240.24 257.333 239.67 257.457 239.17 257.595C237.223 258.092 236.139 258.023 235.916 257.388C235.805 257.057 235.916 256.671 236.25 256.23C236.584 255.789 237.084 255.375 237.751 254.989C238.447 254.603 239.267 254.272 240.212 253.996C241.185 253.72 242.242 253.582 243.382 253.582C244.522 253.582 245.565 253.775 246.51 254.161C247.483 254.547 248.318 255.085 249.013 255.775C249.708 256.437 250.25 257.223 250.639 258.133C251.029 259.043 251.223 260.022 251.223 261.071V270.09C251.223 270.504 251.237 271.041 251.265 271.703C251.293 272.365 251.376 272.958 251.515 273.482C251.738 274.31 251.766 274.806 251.599 274.972C251.46 275.082 251.237 275.124 250.931 275.096C250.653 275.096 250.375 275.041 250.097 274.931C249.736 274.793 249.374 274.503 249.013 274.062C248.679 273.648 248.387 273.083 248.137 272.365C247.998 272.531 247.748 272.738 247.386 272.986C247.052 273.262 246.621 273.524 246.093 273.772C245.565 274.048 244.967 274.282 244.3 274.475C243.66 274.668 242.979 274.779 242.256 274.806C240.81 274.834 239.587 274.682 238.586 274.351C237.585 274.048 236.764 273.62 236.125 273.069C235.513 272.517 235.054 271.883 234.748 271.166C234.47 270.421 234.317 269.649 234.29 268.849C234.262 268.021 234.401 267.208 234.707 266.408C235.013 265.608 235.499 264.904 236.166 264.298C236.834 263.691 237.696 263.208 238.752 262.85C239.809 262.491 241.074 262.326 242.548 262.353C243.354 262.381 244.244 262.532 245.217 262.808C246.19 263.084 246.969 263.429 247.553 263.843V262.064ZM247.595 266.077C246.816 265.801 245.954 265.566 245.009 265.373C244.091 265.18 243.16 265.098 242.214 265.125C239.461 265.18 238.085 266.297 238.085 268.476C238.085 269.552 238.419 270.269 239.086 270.628C239.781 270.986 240.81 271.166 242.173 271.166C242.617 271.166 243.09 271.11 243.591 271C244.119 270.89 244.619 270.752 245.092 270.586C245.593 270.393 246.051 270.173 246.469 269.924C246.913 269.676 247.289 269.428 247.595 269.18V266.077Z" fill="black"/>
<path d="M260.725 257.885C260.725 257.719 260.697 257.623 260.642 257.595C260.614 257.54 260.572 257.499 260.517 257.471C260.238 257.388 259.905 257.306 259.516 257.223C259.126 257.113 258.834 257.016 258.64 256.933C258.362 256.795 258.125 256.602 257.931 256.354C257.736 256.078 257.639 255.802 257.639 255.527C257.639 255.334 257.792 255.168 258.097 255.03C258.403 254.865 258.654 254.754 258.848 254.699C259.543 254.479 260.183 254.313 260.767 254.203C261.351 254.092 261.976 254.051 262.644 254.079C262.977 254.079 263.242 254.148 263.436 254.285C263.659 254.423 263.812 254.589 263.895 254.782C264.006 254.947 264.076 255.127 264.104 255.32C264.159 255.485 264.187 255.623 264.187 255.734V268.435C264.187 269.097 264.117 269.828 263.978 270.628C263.839 271.4 263.659 272.117 263.436 272.779C263.242 273.469 262.991 274.034 262.685 274.475C262.407 274.917 262.129 275.137 261.851 275.137C261.601 275.137 261.406 274.875 261.267 274.351C261.128 273.855 261.017 273.248 260.934 272.531C260.85 271.814 260.795 271.083 260.767 270.338C260.739 269.593 260.725 268.973 260.725 268.476V257.885ZM262.06 251.886C261.754 251.941 261.323 251.858 260.767 251.638C260.238 251.389 259.807 251.072 259.474 250.686C259.251 250.438 259.14 250.148 259.14 249.817C259.168 249.459 259.251 249.128 259.39 248.824C259.557 248.493 259.766 248.217 260.016 247.997C260.294 247.776 260.586 247.666 260.892 247.666C261.226 247.666 261.559 247.721 261.893 247.831C262.254 247.914 262.574 248.052 262.852 248.245C263.158 248.411 263.408 248.604 263.603 248.824C263.798 249.045 263.895 249.279 263.895 249.528C263.895 249.996 263.714 250.493 263.353 251.017C262.991 251.541 262.56 251.831 262.06 251.886Z" fill="black"/>
<path d="M214 288.562C213.86 288.454 213.635 288.319 213.327 288.157C213.046 287.968 212.821 287.806 212.653 287.671C212.457 287.509 212.246 287.28 212.022 286.983C211.825 286.66 211.657 286.336 211.516 286.012C211.404 285.688 211.348 285.391 211.348 285.122C211.348 284.825 211.432 284.609 211.601 284.474C211.741 284.366 212.022 284.339 212.443 284.393C212.892 284.447 213.313 284.542 213.705 284.676C213.79 284.703 214.056 284.811 214.505 285C214.954 285.162 215.333 285.31 215.642 285.445C216.063 285.661 216.47 285.891 216.863 286.133C217.256 286.376 217.466 286.687 217.494 287.064C217.635 289.007 217.705 291.03 217.705 293.135C217.733 295.239 217.719 297.29 217.663 299.287C217.607 300.474 217.522 301.728 217.41 303.05C217.298 304.399 217.017 305.641 216.568 306.774C216.147 307.907 215.516 308.851 214.674 309.607C213.832 310.362 212.681 310.78 211.222 310.861C210.324 310.915 209.411 310.767 208.485 310.416C207.559 310.065 206.829 309.58 206.296 308.959C205.959 308.581 205.735 308.204 205.622 307.826C205.482 307.475 205.482 307.232 205.622 307.097C205.763 306.963 205.973 306.895 206.254 306.895C206.535 306.922 206.843 306.976 207.18 307.057C207.489 307.138 207.784 307.232 208.064 307.34C208.345 307.448 208.569 307.516 208.738 307.543C209.692 307.839 210.492 307.853 211.137 307.583C211.811 307.34 212.358 306.922 212.779 306.329C213.2 305.762 213.495 305.047 213.663 304.184C213.86 303.347 213.986 302.457 214.042 301.512C214.07 300.838 214.098 299.975 214.126 298.922C214.155 297.87 214.169 296.75 214.169 295.563C214.169 294.349 214.155 293.135 214.126 291.921C214.098 290.707 214.056 289.587 214 288.562ZM212.863 281.479C212.667 281.371 212.527 281.142 212.443 280.791C212.358 280.44 212.344 280.076 212.4 279.698C212.485 279.294 212.639 278.957 212.863 278.687C213.116 278.39 213.481 278.255 213.958 278.282C214.183 278.309 214.463 278.376 214.8 278.484C215.165 278.565 215.502 278.687 215.81 278.849C216.147 278.983 216.428 279.159 216.652 279.375C216.905 279.564 217.031 279.793 217.031 280.063C217.031 280.252 216.975 280.467 216.863 280.71C216.779 280.953 216.652 281.196 216.484 281.439C216.316 281.682 216.119 281.897 215.895 282.086C215.67 282.248 215.432 282.343 215.179 282.37C214.814 282.424 214.421 282.356 214 282.167C213.607 281.951 213.228 281.722 212.863 281.479Z" fill="black"/>
<path d="M227.204 287.752C227.204 287.59 227.176 287.496 227.12 287.469C227.092 287.415 227.05 287.375 226.994 287.348C226.713 287.267 226.377 287.186 225.984 287.105C225.591 286.997 225.296 286.902 225.1 286.821C224.819 286.687 224.58 286.498 224.384 286.255C224.187 285.985 224.089 285.715 224.089 285.445C224.089 285.257 224.243 285.095 224.552 284.96C224.861 284.798 225.114 284.69 225.31 284.636C226.012 284.42 226.657 284.258 227.247 284.15C227.836 284.042 228.467 284.002 229.141 284.029C229.478 284.029 229.744 284.096 229.941 284.231C230.165 284.366 230.32 284.528 230.404 284.717C230.516 284.879 230.586 285.054 230.614 285.243C230.671 285.405 230.699 285.54 230.699 285.648V298.072C230.699 298.72 230.629 299.435 230.488 300.217C230.348 300.973 230.165 301.674 229.941 302.322C229.744 302.996 229.492 303.55 229.183 303.981C228.902 304.413 228.622 304.629 228.341 304.629C228.089 304.629 227.892 304.372 227.752 303.86C227.611 303.374 227.499 302.781 227.415 302.079C227.331 301.378 227.275 300.663 227.247 299.934C227.218 299.206 227.204 298.599 227.204 298.113V287.752ZM228.552 281.884C228.243 281.938 227.808 281.857 227.247 281.641C226.713 281.398 226.278 281.088 225.941 280.71C225.717 280.467 225.605 280.184 225.605 279.86C225.633 279.51 225.717 279.186 225.857 278.889C226.026 278.565 226.236 278.295 226.489 278.08C226.769 277.864 227.064 277.756 227.373 277.756C227.71 277.756 228.046 277.81 228.383 277.918C228.748 277.999 229.071 278.134 229.352 278.322C229.66 278.484 229.913 278.673 230.109 278.889C230.306 279.105 230.404 279.334 230.404 279.577C230.404 280.036 230.222 280.521 229.857 281.034C229.492 281.547 229.057 281.83 228.552 281.884Z" fill="black"/>
<path d="M242.307 288.562C242.476 288.319 242.714 288.09 243.023 287.874C243.36 287.658 243.711 287.469 244.076 287.307C244.469 287.145 244.876 287.024 245.297 286.943C245.717 286.835 246.096 286.781 246.433 286.781C248.707 286.781 250.419 287.496 251.569 288.926C252.748 290.356 253.337 292.541 253.337 295.482C253.337 296.157 253.295 296.845 253.211 297.546C253.155 298.248 253.113 298.963 253.085 299.691C253.085 300.42 253.113 301.135 253.169 301.836C253.253 302.538 253.436 303.226 253.716 303.9C253.801 304.062 253.885 304.238 253.969 304.426C254.081 304.642 254.179 304.845 254.264 305.033C254.348 305.249 254.39 305.438 254.39 305.6C254.39 305.762 254.32 305.897 254.179 306.005C254.067 306.086 253.899 306.113 253.674 306.086C253.45 306.086 253.211 306.045 252.959 305.964C252.706 305.91 252.453 305.843 252.201 305.762C251.976 305.681 251.808 305.6 251.696 305.519C251.19 305.195 250.783 304.737 250.475 304.143C250.194 303.55 249.984 302.875 249.843 302.12C249.703 301.391 249.619 300.636 249.591 299.853C249.563 299.044 249.549 298.275 249.549 297.546C249.549 296.71 249.506 295.9 249.422 295.118C249.338 294.309 249.17 293.594 248.917 292.973C248.664 292.325 248.3 291.799 247.822 291.395C247.373 290.963 246.784 290.707 246.054 290.626C245.521 290.572 244.904 290.612 244.202 290.747C243.528 290.855 242.939 291.192 242.434 291.759C242.434 293.216 242.42 294.686 242.392 296.17C242.364 297.627 242.322 299.125 242.265 300.663C242.237 301.445 242.125 302.16 241.929 302.808C241.732 303.482 241.48 304.062 241.171 304.548C240.89 305.06 240.567 305.452 240.203 305.721C239.866 306.018 239.515 306.167 239.15 306.167C238.926 306.167 238.785 305.897 238.729 305.357C238.673 304.818 238.645 304.184 238.645 303.455C238.673 302.754 238.701 302.039 238.729 301.31C238.785 300.582 238.813 300.015 238.813 299.61C238.813 297.991 238.827 296.305 238.855 294.551C238.911 292.771 238.869 290.869 238.729 288.845C238.336 288.602 237.971 288.305 237.634 287.955C237.326 287.604 237.115 287.199 237.003 286.74C236.975 286.633 236.961 286.498 236.961 286.336C236.961 286.147 236.975 285.972 237.003 285.81C237.031 285.648 237.073 285.513 237.129 285.405C237.213 285.27 237.326 285.203 237.466 285.203C237.606 285.203 237.775 285.23 237.971 285.284C238.168 285.337 238.35 285.391 238.519 285.445C238.715 285.526 238.954 285.621 239.234 285.729C239.515 285.837 239.796 285.958 240.076 286.093C240.357 286.201 240.624 286.322 240.876 286.457C241.157 286.592 241.381 286.713 241.55 286.821C241.802 287.01 241.985 287.24 242.097 287.509C242.237 287.752 242.307 288.076 242.307 288.481V288.562Z" fill="black"/>
<path d="M264.108 303.01C263.266 302.848 262.607 302.619 262.13 302.322C261.68 302.052 261.344 301.769 261.119 301.472C260.923 301.148 260.81 300.865 260.782 300.622C260.754 300.352 260.74 300.163 260.74 300.055C260.74 299.678 260.839 299.3 261.035 298.922C261.259 298.518 261.512 298.14 261.793 297.789C262.101 297.438 262.424 297.128 262.761 296.858C263.126 296.588 263.463 296.386 263.771 296.251C262.901 295.685 262.186 294.997 261.624 294.187C261.091 293.378 260.824 292.582 260.824 291.799C260.824 291.206 260.951 290.545 261.203 289.816C261.484 289.088 261.919 288.413 262.508 287.793C263.126 287.172 263.926 286.646 264.908 286.214C265.918 285.783 267.167 285.553 268.655 285.526C269.188 285.526 269.707 285.621 270.213 285.81C270.746 285.972 271.251 286.201 271.728 286.498C272.065 285.85 272.584 285.284 273.286 284.798C273.987 284.312 274.787 283.961 275.685 283.746C275.854 283.692 276.134 283.651 276.527 283.624C276.92 283.57 277.173 283.597 277.285 283.705C277.397 283.813 277.454 284.002 277.454 284.272C277.482 284.515 277.482 284.771 277.454 285.041C277.426 285.31 277.369 285.567 277.285 285.81C277.229 286.025 277.173 286.16 277.117 286.214C276.976 286.349 276.752 286.511 276.443 286.7C276.134 286.862 275.798 287.024 275.433 287.186C275.068 287.348 274.703 287.496 274.338 287.631C273.973 287.766 273.651 287.874 273.37 287.955C273.847 288.44 274.184 289.02 274.38 289.695C274.577 290.369 274.647 291.044 274.591 291.718C274.535 292.528 274.324 293.283 273.959 293.985C273.595 294.686 273.103 295.293 272.486 295.806C271.868 296.319 271.139 296.723 270.297 297.02C269.455 297.29 268.529 297.411 267.518 297.384C267.181 297.384 266.971 297.371 266.887 297.344C266.494 297.344 266.101 297.438 265.708 297.627C265.343 297.789 265.006 297.991 264.698 298.234C264.417 298.477 264.178 298.733 263.982 299.003C263.813 299.246 263.729 299.435 263.729 299.57C263.757 299.867 263.954 300.096 264.319 300.258C264.712 300.42 265.147 300.528 265.624 300.582L271.56 301.351C272.823 301.512 273.847 301.796 274.633 302.2C275.447 302.632 276.078 303.104 276.527 303.617C277.005 304.157 277.327 304.71 277.496 305.276C277.664 305.843 277.748 306.369 277.748 306.855C277.72 307.826 277.524 308.73 277.159 309.566C276.794 310.403 276.233 311.118 275.475 311.711C274.745 312.332 273.805 312.804 272.654 313.128C271.504 313.478 270.128 313.654 268.529 313.654C266.929 313.654 265.596 313.465 264.529 313.087C263.463 312.709 262.607 312.237 261.961 311.671C261.316 311.131 260.853 310.551 260.572 309.93C260.319 309.31 260.193 308.743 260.193 308.231C260.165 307.664 260.291 307.057 260.572 306.409C260.881 305.762 261.189 305.236 261.498 304.831C261.751 304.507 262.017 304.238 262.298 304.022C262.579 303.806 262.831 303.752 263.056 303.86C263.28 303.968 263.35 304.17 263.266 304.467C263.182 304.764 263.112 305.128 263.056 305.56C263 305.883 262.957 306.194 262.929 306.49C262.929 306.787 263 307.165 263.14 307.624C263.168 307.705 263.238 307.88 263.35 308.15C263.491 308.447 263.743 308.743 264.108 309.04C264.473 309.337 265.006 309.593 265.708 309.809C266.41 310.052 267.35 310.173 268.529 310.173C269.876 310.173 270.928 310.052 271.686 309.809C272.472 309.566 273.061 309.269 273.454 308.919C273.875 308.568 274.128 308.204 274.212 307.826C274.324 307.448 274.38 307.124 274.38 306.855C274.38 306.45 274.128 306.005 273.623 305.519C273.117 305.033 272.121 304.642 270.634 304.345L264.108 303.01ZM267.139 294.997C268.346 294.889 269.314 294.511 270.044 293.863C270.802 293.189 271.181 292.447 271.181 291.637C271.181 290.747 270.83 290.046 270.128 289.533C269.455 288.993 268.571 288.724 267.476 288.724C267.083 288.724 266.676 288.764 266.255 288.845C265.834 288.899 265.441 289.02 265.076 289.209C264.74 289.398 264.445 289.668 264.192 290.019C263.968 290.369 263.842 290.815 263.813 291.354C263.785 291.732 263.87 292.042 264.066 292.285C264.291 292.501 264.557 292.73 264.866 292.973C265.483 293.351 266.003 293.702 266.424 294.025C266.845 294.322 267.083 294.646 267.139 294.997Z" fill="black"/>
<path d="M176.021 0.663513C172.924 1.09372 169.052 1.78204 167.417 2.29828C165.696 2.90054 162.513 3.07263 160.018 2.72849C154.855 2.12619 150.209 3.76096 148.058 7.03046C145.993 10.1279 143.842 10.472 138.938 8.75125L134.722 7.20255L125.43 12.0208C120.354 14.688 113.126 17.8715 109.34 19.162C101.167 22.0014 98.0692 23.4641 87.6584 29.6589C83.3564 32.1541 79.2265 35.2515 78.4522 36.37C77.0755 38.435 70.2784 41.1022 66.4066 41.1022C64.2556 41.1882 57.8026 47.125 54.6192 51.9432C53.1565 54.1803 51.2636 55.729 49.0266 56.5033C42.1434 58.9124 38.6158 61.0634 37.4112 63.3005C36.8089 64.5911 35.0021 67.1722 33.5394 69.0651C24.4192 80.5084 17.7081 91.4355 13.5782 101.502C8.58791 113.634 7.0392 121.291 7.8996 130.067C8.50188 136.606 9.96455 139.101 14.4386 141.425C17.45 142.973 23.1286 142.973 26.14 141.425C33.1953 137.725 37.5833 129.379 45.671 104.427L51.5217 86.4452L58.0608 78.6155C67.9553 66.7421 72.4294 62.6122 82.7542 55.815C94.1974 48.2435 116.482 37.1444 128.613 32.9284C138.078 29.745 152.446 26.4754 157.351 26.4754C159.588 26.4754 160.448 26.9056 160.792 28.1962C161.394 30.5193 164.234 30.4333 169.998 27.68C177.484 24.1524 187.206 21.227 188.755 22.0874C189.616 22.4316 192.713 23.0338 195.81 23.378C213.535 25.0128 237.195 29.4008 247.864 32.9284C274.365 41.6184 295.702 53.7501 311.362 68.9791C317.815 75.26 326.075 85.7568 328.742 90.9192C329.774 92.9842 330.463 93.5004 331.151 92.8121C333.216 90.7471 337.088 91.7796 340.099 95.0491C351.198 107.611 351.542 108.127 351.542 111.655C351.542 113.634 350.854 116.129 350.08 117.333C349.047 118.882 348.961 119.743 349.649 120.173C351.026 120.947 354.64 129.293 355.93 134.455C356.533 136.778 358.081 140.478 359.372 142.715C366.341 153.9 373.052 188.23 373.052 211.977C373.052 223.334 372.45 226.002 369.869 227.034C368.75 227.464 368.062 228.239 368.32 228.669C368.664 229.185 368.836 236.326 368.836 244.586C368.836 261.106 368.578 262.052 362.555 270.054C360.835 272.291 359.028 276.249 358.081 279.69C356.361 286.057 353.951 289.757 351.628 289.757C350.51 289.757 346.896 294.919 339.411 307.137C330.893 321.162 327.537 325.808 322.461 330.798C312.91 340.262 291.659 354.115 270.579 364.698C262.921 368.483 261.545 368.914 256.382 368.914C251.048 368.914 250.446 369.086 247.348 371.925C242.616 376.141 237.626 378.464 232.807 378.55C229.366 378.636 228.333 378.292 226.957 376.657L225.236 374.592L220.332 377.948C216.116 380.873 214.739 381.389 210.781 381.389C208.2 381.389 206.135 381.647 206.135 381.992C206.135 386.38 180.495 387.928 165.266 384.487C145.563 380.013 142.466 378.808 135.927 372.957C131.711 369.172 131.711 369.172 126.118 369.516C121.3 369.86 119.751 369.516 114.761 367.279C111.577 365.816 105.211 363.665 100.65 362.547C90.1536 359.793 84.9052 356.61 75.957 347.49C68.6436 340.004 63.9975 337.165 59.2653 337.079C56.9422 337.079 56.512 337.423 56.2539 339.402C55.9958 341.553 55.8237 341.467 53.2425 337.251C51.4357 334.326 48.8545 331.744 45.7571 329.852C42.4015 327.615 39.9064 325.033 36.7229 320.215C34.3138 316.687 32.3349 313.246 32.3349 312.644C32.3349 312.041 31.5605 310.837 30.528 309.89C25.6238 305.502 17.1058 288.639 10.7389 270.828C8.93207 265.838 7.4694 262.482 7.4694 263.343C7.38336 264.289 8.58791 272.033 10.0506 280.551C11.5133 289.155 12.9759 299.307 13.3201 303.007L13.8363 309.804L17.8802 310.837C23.1286 312.127 24.1611 313.16 27.3446 319.355C33.1092 330.798 38.7879 337.423 46.5314 341.897C48.9405 343.274 55.1354 348.35 60.2978 353.168C67.0089 359.363 70.3644 362.03 71.9132 362.03C78.3661 362.116 84.1308 365.558 88.0026 371.753C90.4117 375.539 96.5205 378.722 103.404 379.669C105.727 380.013 109.599 380.873 112.008 381.561C115.535 382.68 116.998 382.766 119.235 381.906C121.73 381.131 122.505 381.217 126.204 383.196C128.441 384.487 130.506 386.035 130.85 386.81C131.539 388.703 128.957 391.198 124.914 392.316C122.935 392.833 121.042 393.521 120.698 393.865C119.837 394.553 136.787 397.565 154.511 399.802C212.33 407.201 261.373 401.695 296.907 383.971C310.501 377.173 324.612 366.074 330.893 357.298C331.581 356.266 335.797 352.824 340.099 349.469C371.245 325.722 387.851 304.814 392.669 283.304C393.616 279.002 395.595 272.893 397.057 269.624C399.208 264.978 399.466 263.859 398.262 264.289C396.369 265.064 395.423 263.429 395.423 259.385C395.423 257.664 395.164 256.202 394.734 256.202C394.39 256.202 393.185 258.008 391.981 260.245C388.711 266.354 385.27 270.828 383.721 270.828C381.57 270.828 382.517 260.59 386.388 242.865C389.314 229.271 389.744 228.067 392.325 225.657C395.853 222.474 397.143 217.226 397.143 206.471C397.143 193.737 393.96 166.376 390.604 149.77C388.453 139.015 375.719 101.33 372.88 97.2001C358.339 76.0343 335.195 53.0617 314.631 39.2953C299.402 29.1427 276.688 18.7319 269.546 18.7319C267.74 18.7319 264.642 17.5273 261.028 15.3763C254.834 11.5906 241.153 5.65384 238.916 5.8259C238.142 5.8259 231.087 5.99799 223.171 6.08401C212.33 6.17007 208.716 5.99799 208.716 5.22363C208.716 3.58887 205.791 2.38431 201.661 2.38431C199.596 2.29828 195.638 1.78204 192.799 1.09372C187.292 -0.282928 184.711 -0.282928 176.021 0.663513Z" fill="black"/>
<path d="M0.5 234.089C0.5 236.412 1.01624 237.186 2.73703 238.047C4.80199 238.907 4.88803 238.907 4.28575 237.1C3.68347 235.035 1.3604 231.25 0.844159 231.25C0.672079 231.25 0.5 232.54 0.5 234.089Z" fill="black"/>
<path d="M5.31811 242.005C4.54375 243.984 4.62979 244.156 6.09246 244.156C7.55514 244.156 7.72722 243.382 6.6087 241.747C6.00643 240.801 5.74831 240.887 5.31811 242.005Z" fill="black"/>
</svg>
