<svg width="1450" height="650" viewBox="0 0 1450 650" fill="none" xmlns="http://www.w3.org/2000/svg">
<g clip-path="url(#clip0_46_331)">
<rect width="1450" height="650" fill="white"/>
<g opacity="0.02">
<path d="M-15 135.394H21.5159V85.3254H68.3843V135.394H104.9V3.63517H68.3843V52.9505H21.5159V3.63517H-15V135.394Z" fill="url(#paint0_linear_46_331)"/>
<path d="M114.075 135.394H152.285L161.696 111.677H212.705L222.117 135.394H261.268L205.176 2.69404H169.978L114.075 135.394ZM172.425 83.2549L187.295 45.9861L201.976 83.2549H172.425Z" fill="url(#paint1_linear_46_331)"/>
<path d="M325.453 138.029C354.44 138.029 371.004 125.418 383.615 108.289L356.134 88.7135C348.04 98.313 340.135 104.713 326.394 104.713C307.948 104.713 294.96 89.2782 294.96 69.5144V69.1379C294.96 49.9389 307.948 34.1278 326.394 34.1278C339.193 34.1278 347.664 40.3393 355.193 49.5624L382.674 28.2928C371.192 12.2936 353.499 1 326.771 1C286.867 1 257.503 31.1162 257.503 69.5144V69.8909C257.503 109.23 287.808 138.029 325.453 138.029Z" fill="url(#paint2_linear_46_331)"/>
<path d="M395.745 135.394H432.261V85.3254H479.129V135.394H515.645V3.63517H479.129V52.9505H432.261V3.63517H395.745V135.394Z" fill="url(#paint3_linear_46_331)"/>
<path d="M536.114 135.394H572.629V3.63517H536.114V135.394Z" fill="url(#paint4_linear_46_331)"/>
<path d="M592.986 135.394H629.502V95.4896H645.689L672.229 135.394H714.204L682.77 89.4664C699.334 82.502 709.874 69.1379 709.874 48.8095V48.433C709.874 35.8219 705.922 25.4694 698.204 17.7522C689.358 8.90551 675.617 3.63517 655.289 3.63517H592.986V135.394ZM629.502 66.8792V35.069H653.595C665.641 35.069 673.359 40.3393 673.359 50.88V51.2564C673.359 60.856 666.018 66.8792 653.783 66.8792H629.502Z" fill="url(#paint5_linear_46_331)"/>
<path d="M790.953 138.029C831.61 138.029 862.103 107.348 862.103 69.5144V69.1379C862.103 31.4927 831.986 1 791.329 1C750.672 1 720.18 31.6809 720.18 69.5144V69.8909C720.18 107.536 750.296 138.029 790.953 138.029ZM791.329 105.089C771.189 105.089 757.449 88.337 757.449 69.5144V69.1379C757.449 50.1271 770.813 33.9396 790.953 33.9396C811.093 33.9396 824.646 50.3153 824.646 69.5144V69.8909C824.646 88.9017 811.281 105.089 791.329 105.089Z" fill="url(#paint6_linear_46_331)"/>
<path d="M877.171 135.394H913.687V101.136L927.051 86.4548L960.367 135.394H1004.04L952.461 60.1031L1002.34 3.63517H959.049L913.687 57.0915V3.63517H877.171V135.394Z" fill="url(#paint7_linear_46_331)"/>
<path d="M1065.78 137.841C1103.24 137.841 1127.52 119.018 1127.52 76.667V3.63517H1090.63V77.7964C1090.63 96.4308 1081.21 104.901 1066.16 104.901C1051.29 104.901 1041.87 95.8661 1041.87 76.8552V3.63517H1004.98V77.6081C1004.98 119.018 1028.51 137.841 1065.78 137.841Z" fill="url(#paint8_linear_46_331)"/>
<path d="M1249.42 137.276C1277.09 137.276 1296.47 122.782 1296.47 97.9366V97.5601C1296.47 75.5376 1281.98 66.1263 1254.31 58.9737C1228.9 52.9505 1222.88 48.433 1222.88 38.2688V37.8924C1222.88 29.0457 1230.78 22.2696 1244.33 22.2696C1256.38 22.2696 1268.05 26.9752 1280.1 35.8219L1292.52 18.3168C1278.97 7.58793 1264.1 1.75291 1244.71 1.75291C1218.55 1.75291 1199.72 17.3757 1199.72 39.9629V40.3393C1199.72 64.4323 1215.54 73.0907 1243.58 79.6786C1268.05 85.1372 1273.32 90.5957 1273.32 99.8188V100.195C1273.32 109.983 1264.29 116.759 1249.98 116.759C1233.61 116.759 1221.18 110.736 1208.38 99.6306L1194.45 116.195C1210.27 130.5 1229.09 137.276 1249.42 137.276Z" fill="url(#paint9_linear_46_331)"/>
<path d="M1349.55 135.394H1372.7V25.093H1414.67V3.63517H1307.57V25.093H1349.55V135.394Z" fill="url(#paint10_linear_46_331)"/>
<path d="M1488.94 137.464C1523.38 137.464 1545.59 117.7 1545.59 78.361V3.63517H1522.44V79.4904C1522.44 103.772 1509.83 116.006 1489.31 116.006C1468.42 116.006 1456 103.207 1456 78.5493V3.63517H1432.84V79.4904C1432.84 117.7 1454.87 137.464 1488.94 137.464Z" fill="url(#paint11_linear_46_331)"/>
<path d="M1573.61 135.394H1622.73C1664.14 135.394 1692.75 106.595 1692.75 69.5144V69.1379C1692.75 32.0574 1664.14 3.63517 1622.73 3.63517H1573.61V135.394ZM1622.73 24.7165C1650.4 24.7165 1668.47 43.7274 1668.47 69.5144V69.8909C1668.47 95.6779 1650.4 114.312 1622.73 114.312H1596.76V24.7165H1622.73Z" fill="url(#paint12_linear_46_331)"/>
<path d="M1718.4 135.394H1741.55V3.63517H1718.4V135.394Z" fill="url(#paint13_linear_46_331)"/>
<path d="M1835.92 137.652C1876.39 137.652 1905 106.407 1905 69.5144V69.1379C1905 32.0574 1876.77 1.37646 1836.3 1.37646C1795.83 1.37646 1767.22 32.622 1767.22 69.5144V69.8909C1767.22 106.971 1795.45 137.652 1835.92 137.652ZM1836.3 116.195C1809.95 116.195 1791.5 95.1132 1791.5 69.5144V69.1379C1791.5 43.5392 1809.76 22.8343 1835.92 22.8343C1862.27 22.8343 1880.72 43.9156 1880.72 69.5144V69.8909C1880.72 95.4896 1862.46 116.195 1836.3 116.195Z" fill="url(#paint14_linear_46_331)"/>
</g>
<g opacity="0.04">
<path d="M-105 305.394H-68.4841V255.325H-21.6157V305.394H14.9002V173.635H-21.6157V222.95H-68.4841V173.635H-105V305.394Z" fill="url(#paint15_linear_46_331)"/>
<path d="M24.0748 305.394H62.2847L71.696 281.677H122.705L132.117 305.394H171.268L115.176 172.694H79.978L24.0748 305.394ZM82.4249 253.255L97.2948 215.986L111.976 253.255H82.4249Z" fill="url(#paint16_linear_46_331)"/>
<path d="M235.453 308.029C264.44 308.029 281.004 295.418 293.615 278.289L266.134 258.713C258.04 268.313 250.135 274.713 236.394 274.713C217.948 274.713 204.96 259.278 204.96 239.514V239.138C204.96 219.939 217.948 204.128 236.394 204.128C249.193 204.128 257.664 210.339 265.193 219.562L292.674 198.293C281.192 182.294 263.499 171 236.771 171C196.867 171 167.503 201.116 167.503 239.514V239.891C167.503 279.23 197.808 308.029 235.453 308.029Z" fill="url(#paint17_linear_46_331)"/>
<path d="M305.745 305.394H342.261V255.325H389.129V305.394H425.645V173.635H389.129V222.95H342.261V173.635H305.745V305.394Z" fill="url(#paint18_linear_46_331)"/>
<path d="M446.114 305.394H482.629V173.635H446.114V305.394Z" fill="url(#paint19_linear_46_331)"/>
<path d="M502.986 305.394H539.502V265.49H555.689L582.229 305.394H624.204L592.77 259.466C609.334 252.502 619.874 239.138 619.874 218.809V218.433C619.874 205.822 615.922 195.469 608.204 187.752C599.358 178.906 585.617 173.635 565.289 173.635H502.986V305.394ZM539.502 236.879V205.069H563.595C575.641 205.069 583.359 210.339 583.359 220.88V221.256C583.359 230.856 576.018 236.879 563.783 236.879H539.502Z" fill="url(#paint20_linear_46_331)"/>
<path d="M700.953 308.029C741.61 308.029 772.103 277.348 772.103 239.514V239.138C772.103 201.493 741.986 171 701.329 171C660.672 171 630.18 201.681 630.18 239.514V239.891C630.18 277.536 660.296 308.029 700.953 308.029ZM701.329 275.089C681.189 275.089 667.449 258.337 667.449 239.514V239.138C667.449 220.127 680.813 203.94 700.953 203.94C721.093 203.94 734.646 220.315 734.646 239.514V239.891C734.646 258.902 721.281 275.089 701.329 275.089Z" fill="url(#paint21_linear_46_331)"/>
<path d="M787.171 305.394H823.687V271.136L837.051 256.455L870.367 305.394H914.035L862.461 230.103L912.341 173.635H869.049L823.687 227.091V173.635H787.171V305.394Z" fill="url(#paint22_linear_46_331)"/>
<path d="M975.78 307.841C1013.24 307.841 1037.52 289.018 1037.52 246.667V173.635H1000.63V247.796C1000.63 266.431 991.214 274.901 976.156 274.901C961.286 274.901 951.875 265.866 951.875 246.855V173.635H914.983V247.608C914.983 289.018 938.511 307.841 975.78 307.841Z" fill="url(#paint23_linear_46_331)"/>
<path d="M1159.42 307.276C1187.09 307.276 1206.47 292.782 1206.47 267.937V267.56C1206.47 245.538 1191.98 236.126 1164.31 228.974C1138.9 222.95 1132.88 218.433 1132.88 208.269V207.892C1132.88 199.046 1140.78 192.27 1154.33 192.27C1166.38 192.27 1178.05 196.975 1190.1 205.822L1202.52 188.317C1188.97 177.588 1174.1 171.753 1154.71 171.753C1128.55 171.753 1109.72 187.376 1109.72 209.963V210.339C1109.72 234.432 1125.54 243.091 1153.58 249.679C1178.05 255.137 1183.32 260.596 1183.32 269.819V270.195C1183.32 279.983 1174.29 286.759 1159.98 286.759C1143.61 286.759 1131.18 280.736 1118.38 269.631L1104.45 286.195C1120.27 300.5 1139.09 307.276 1159.42 307.276Z" fill="url(#paint24_linear_46_331)"/>
<path d="M1259.55 305.394H1282.7V195.093H1324.67V173.635H1217.57V195.093H1259.55V305.394Z" fill="url(#paint25_linear_46_331)"/>
<path d="M1398.94 307.464C1433.38 307.464 1455.59 287.7 1455.59 248.361V173.635H1432.44V249.49C1432.44 273.772 1419.83 286.006 1399.31 286.006C1378.42 286.006 1366 273.207 1366 248.549V173.635H1342.84V249.49C1342.84 287.7 1364.87 307.464 1398.94 307.464Z" fill="url(#paint26_linear_46_331)"/>
<path d="M1483.61 305.394H1532.73C1574.14 305.394 1602.75 276.595 1602.75 239.514V239.138C1602.75 202.057 1574.14 173.635 1532.73 173.635H1483.61V305.394ZM1532.73 194.717C1560.4 194.717 1578.47 213.727 1578.47 239.514V239.891C1578.47 265.678 1560.4 284.312 1532.73 284.312H1506.76V194.717H1532.73Z" fill="url(#paint27_linear_46_331)"/>
<path d="M1628.4 305.394H1651.55V173.635H1628.4V305.394Z" fill="url(#paint28_linear_46_331)"/>
<path d="M1745.92 307.652C1786.39 307.652 1815 276.407 1815 239.514V239.138C1815 202.057 1786.77 171.376 1746.3 171.376C1705.83 171.376 1677.22 202.622 1677.22 239.514V239.891C1677.22 276.971 1705.45 307.652 1745.92 307.652ZM1746.3 286.195C1719.95 286.195 1701.5 265.113 1701.5 239.514V239.138C1701.5 213.539 1719.76 192.834 1745.92 192.834C1772.27 192.834 1790.72 213.916 1790.72 239.514V239.891C1790.72 265.49 1772.46 286.195 1746.3 286.195Z" fill="url(#paint29_linear_46_331)"/>
</g>
<g opacity="0.06">
<path d="M-195 475.394H-158.484V425.325H-111.616V475.394H-75.0998V343.635H-111.616V392.95H-158.484V343.635H-195V475.394Z" fill="url(#paint30_linear_46_331)"/>
<path d="M-65.9252 475.394H-27.7153L-18.304 451.677H32.7054L42.1167 475.394H81.2678L25.1763 342.694H-10.022L-65.9252 475.394ZM-7.57507 423.255L7.29483 385.986L21.9765 423.255H-7.57507Z" fill="url(#paint31_linear_46_331)"/>
<path d="M145.453 478.029C174.44 478.029 191.004 465.418 203.615 448.289L176.134 428.713C168.04 438.313 160.135 444.713 146.394 444.713C127.948 444.713 114.96 429.278 114.96 409.514V409.138C114.96 389.939 127.948 374.128 146.394 374.128C159.193 374.128 167.664 380.339 175.193 389.562L202.674 368.293C191.192 352.294 173.499 341 146.771 341C106.867 341 77.5032 371.116 77.5032 409.514V409.891C77.5032 449.23 107.808 478.029 145.453 478.029Z" fill="url(#paint32_linear_46_331)"/>
<path d="M215.745 475.394H252.261V425.325H299.129V475.394H335.645V343.635H299.129V392.95H252.261V343.635H215.745V475.394Z" fill="url(#paint33_linear_46_331)"/>
<path d="M356.114 475.394H392.629V343.635H356.114V475.394Z" fill="url(#paint34_linear_46_331)"/>
<path d="M412.986 475.394H449.502V435.49H465.689L492.229 475.394H534.204L502.77 429.466C519.334 422.502 529.874 409.138 529.874 388.809V388.433C529.874 375.822 525.922 365.469 518.204 357.752C509.358 348.906 495.617 343.635 475.289 343.635H412.986V475.394ZM449.502 406.879V375.069H473.595C485.641 375.069 493.359 380.339 493.359 390.88V391.256C493.359 400.856 486.018 406.879 473.783 406.879H449.502Z" fill="url(#paint35_linear_46_331)"/>
<path d="M610.953 478.029C651.61 478.029 682.103 447.348 682.103 409.514V409.138C682.103 371.493 651.986 341 611.329 341C570.672 341 540.18 371.681 540.18 409.514V409.891C540.18 447.536 570.296 478.029 610.953 478.029ZM611.329 445.089C591.189 445.089 577.449 428.337 577.449 409.514V409.138C577.449 390.127 590.813 373.94 610.953 373.94C631.093 373.94 644.646 390.315 644.646 409.514V409.891C644.646 428.902 631.281 445.089 611.329 445.089Z" fill="url(#paint36_linear_46_331)"/>
<path d="M697.171 475.394H733.687V441.136L747.051 426.455L780.367 475.394H824.035L772.461 400.103L822.341 343.635H779.049L733.687 397.091V343.635H697.171V475.394Z" fill="url(#paint37_linear_46_331)"/>
<path d="M885.78 477.841C923.237 477.841 947.518 459.018 947.518 416.667V343.635H910.626V417.796C910.626 436.431 901.214 444.901 886.156 444.901C871.286 444.901 861.875 435.866 861.875 416.855V343.635H824.983V417.608C824.983 459.018 848.511 477.841 885.78 477.841Z" fill="url(#paint38_linear_46_331)"/>
<path d="M1069.42 477.276C1097.09 477.276 1116.47 462.782 1116.47 437.937V437.56C1116.47 415.538 1101.98 406.126 1074.31 398.974C1048.9 392.95 1042.88 388.433 1042.88 378.269V377.892C1042.88 369.046 1050.78 362.27 1064.33 362.27C1076.38 362.27 1088.05 366.975 1100.1 375.822L1112.52 358.317C1098.97 347.588 1084.1 341.753 1064.71 341.753C1038.55 341.753 1019.72 357.376 1019.72 379.963V380.339C1019.72 404.432 1035.54 413.091 1063.58 419.679C1088.05 425.137 1093.32 430.596 1093.32 439.819V440.195C1093.32 449.983 1084.29 456.759 1069.98 456.759C1053.61 456.759 1041.18 450.736 1028.38 439.631L1014.45 456.195C1030.27 470.5 1049.09 477.276 1069.42 477.276Z" fill="url(#paint39_linear_46_331)"/>
<path d="M1169.55 475.394H1192.7V365.093H1234.67V343.635H1127.57V365.093H1169.55V475.394Z" fill="url(#paint40_linear_46_331)"/>
<path d="M1308.94 477.464C1343.38 477.464 1365.59 457.7 1365.59 418.361V343.635H1342.44V419.49C1342.44 443.772 1329.83 456.006 1309.31 456.006C1288.42 456.006 1276 443.207 1276 418.549V343.635H1252.84V419.49C1252.84 457.7 1274.87 477.464 1308.94 477.464Z" fill="url(#paint41_linear_46_331)"/>
<path d="M1393.61 475.394H1442.73C1484.14 475.394 1512.75 446.595 1512.75 409.514V409.138C1512.75 372.057 1484.14 343.635 1442.73 343.635H1393.61V475.394ZM1442.73 364.717C1470.4 364.717 1488.47 383.727 1488.47 409.514V409.891C1488.47 435.678 1470.4 454.312 1442.73 454.312H1416.76V364.717H1442.73Z" fill="url(#paint42_linear_46_331)"/>
<path d="M1538.4 475.394H1561.55V343.635H1538.4V475.394Z" fill="url(#paint43_linear_46_331)"/>
<path d="M1655.92 477.652C1696.39 477.652 1725 446.407 1725 409.514V409.138C1725 372.057 1696.77 341.376 1656.3 341.376C1615.83 341.376 1587.22 372.622 1587.22 409.514V409.891C1587.22 446.971 1615.45 477.652 1655.92 477.652ZM1656.3 456.195C1629.95 456.195 1611.5 435.113 1611.5 409.514V409.138C1611.5 383.539 1629.76 362.834 1655.92 362.834C1682.27 362.834 1700.72 383.916 1700.72 409.514V409.891C1700.72 435.49 1682.46 456.195 1656.3 456.195Z" fill="url(#paint44_linear_46_331)"/>
</g>
<g opacity="0.08">
<path d="M-285 645.394H-248.484V595.325H-201.616V645.394H-165.1V513.635H-201.616V562.95H-248.484V513.635H-285V645.394Z" fill="url(#paint45_linear_46_331)"/>
<path d="M-155.925 645.394H-117.715L-108.304 621.677H-57.2946L-47.8833 645.394H-8.73221L-64.8237 512.694H-100.022L-155.925 645.394ZM-97.5751 593.255L-82.7052 555.986L-68.0235 593.255H-97.5751Z" fill="url(#paint46_linear_46_331)"/>
<path d="M55.453 648.029C84.4398 648.029 101.004 635.418 113.615 618.289L86.1339 598.713C78.0402 608.313 70.1346 614.713 56.3941 614.713C37.9479 614.713 24.9603 599.278 24.9603 579.514V579.138C24.9603 559.939 37.9479 544.128 56.3941 544.128C69.1935 544.128 77.6637 550.339 85.1927 559.562L112.674 538.293C101.192 522.294 83.4987 511 56.7706 511C16.8666 511 -12.4968 541.116 -12.4968 579.514V579.891C-12.4968 619.23 17.8077 648.029 55.453 648.029Z" fill="url(#paint47_linear_46_331)"/>
<path d="M125.745 645.394H162.261V595.325H209.129V645.394H245.645V513.635H209.129V562.95H162.261V513.635H125.745V645.394Z" fill="url(#paint48_linear_46_331)"/>
<path d="M266.114 645.394H302.629V513.635H266.114V645.394Z" fill="url(#paint49_linear_46_331)"/>
<path d="M322.986 645.394H359.502V605.49H375.689L402.229 645.394H444.204L412.77 599.466C429.334 592.502 439.874 579.138 439.874 558.809V558.433C439.874 545.822 435.922 535.469 428.204 527.752C419.358 518.906 405.617 513.635 385.289 513.635H322.986V645.394ZM359.502 576.879V545.069H383.595C395.641 545.069 403.359 550.339 403.359 560.88V561.256C403.359 570.856 396.018 576.879 383.783 576.879H359.502Z" fill="url(#paint50_linear_46_331)"/>
<path d="M520.953 648.029C561.61 648.029 592.103 617.348 592.103 579.514V579.138C592.103 541.493 561.986 511 521.329 511C480.672 511 450.18 541.681 450.18 579.514V579.891C450.18 617.536 480.296 648.029 520.953 648.029ZM521.329 615.089C501.189 615.089 487.449 598.337 487.449 579.514V579.138C487.449 560.127 500.813 543.94 520.953 543.94C541.093 543.94 554.646 560.315 554.646 579.514V579.891C554.646 598.902 541.281 615.089 521.329 615.089Z" fill="url(#paint51_linear_46_331)"/>
<path d="M607.171 645.394H643.687V611.136L657.051 596.455L690.367 645.394H734.035L682.461 570.103L732.341 513.635H689.049L643.687 567.091V513.635H607.171V645.394Z" fill="url(#paint52_linear_46_331)"/>
<path d="M795.78 647.841C833.237 647.841 857.518 629.018 857.518 586.667V513.635H820.626V587.796C820.626 606.431 811.214 614.901 796.156 614.901C781.286 614.901 771.875 605.866 771.875 586.855V513.635H734.983V587.608C734.983 629.018 758.511 647.841 795.78 647.841Z" fill="url(#paint53_linear_46_331)"/>
<path d="M979.416 647.276C1007.09 647.276 1026.47 632.782 1026.47 607.937V607.56C1026.47 585.538 1011.98 576.126 984.31 568.974C958.9 562.95 952.876 558.433 952.876 548.269V547.892C952.876 539.046 960.782 532.27 974.334 532.27C986.381 532.27 998.051 536.975 1010.1 545.822L1022.52 528.317C1008.97 517.588 994.098 511.753 974.711 511.753C948.547 511.753 929.725 527.376 929.725 549.963V550.339C929.725 574.432 945.536 583.091 973.581 589.679C998.051 595.137 1003.32 600.596 1003.32 609.819V610.195C1003.32 619.983 994.286 626.759 979.981 626.759C963.605 626.759 951.182 620.736 938.383 609.631L924.454 626.195C940.265 640.5 959.088 647.276 979.416 647.276Z" fill="url(#paint54_linear_46_331)"/>
<path d="M1079.55 645.394H1102.7V535.093H1144.67V513.635H1037.57V535.093H1079.55V645.394Z" fill="url(#paint55_linear_46_331)"/>
<path d="M1218.94 647.464C1253.38 647.464 1275.59 627.7 1275.59 588.361V513.635H1252.44V589.49C1252.44 613.772 1239.83 626.006 1219.31 626.006C1198.42 626.006 1186 613.207 1186 588.549V513.635H1162.84V589.49C1162.84 627.7 1184.87 647.464 1218.94 647.464Z" fill="url(#paint56_linear_46_331)"/>
<path d="M1303.61 645.394H1352.73C1394.14 645.394 1422.75 616.595 1422.75 579.514V579.138C1422.75 542.057 1394.14 513.635 1352.73 513.635H1303.61V645.394ZM1352.73 534.717C1380.4 534.717 1398.47 553.727 1398.47 579.514V579.891C1398.47 605.678 1380.4 624.312 1352.73 624.312H1326.76V534.717H1352.73Z" fill="url(#paint57_linear_46_331)"/>
<path d="M1448.4 645.394H1471.55V513.635H1448.4V645.394Z" fill="url(#paint58_linear_46_331)"/>
<path d="M1565.92 647.652C1606.39 647.652 1635 616.407 1635 579.514V579.138C1635 542.057 1606.77 511.376 1566.3 511.376C1525.83 511.376 1497.22 542.622 1497.22 579.514V579.891C1497.22 616.971 1525.45 647.652 1565.92 647.652ZM1566.3 626.195C1539.95 626.195 1521.5 605.113 1521.5 579.514V579.138C1521.5 553.539 1539.76 532.834 1565.92 532.834C1592.27 532.834 1610.72 553.916 1610.72 579.514V579.891C1610.72 605.49 1592.46 626.195 1566.3 626.195Z" fill="url(#paint59_linear_46_331)"/>
</g>
<rect x="42" y="100" width="10" height="550" fill="#DE0000"/>
<rect x="67" y="100" width="2" height="550" fill="#DE0000"/>
<rect x="61" y="100" width="2" height="550" fill="#8A0000"/>
<rect x="54" y="100" width="5" height="550" fill="#8A0000"/>
<path d="M192.856 369.216V392H197.176V384.032H202.872C207.992 384.032 210.936 381.12 210.936 376.64C210.936 372.128 207.992 369.216 202.872 369.216H192.856ZM197.176 380.32V372.928H202.68C205.208 372.928 206.584 374.24 206.584 376.64C206.584 379.04 205.208 380.32 202.68 380.32H197.176ZM226.528 392C226.08 391.36 225.856 390.304 225.856 388.864V380.064C225.856 376.768 223.552 375.104 218.976 375.104C214.272 375.104 211.776 376.992 211.552 380.736H215.52C215.68 378.784 216.608 378.112 218.944 378.112C221.152 378.112 221.952 378.784 221.952 380.16C221.952 381.344 221.248 381.824 219.616 382.048L217.12 382.272C212.896 382.688 210.784 384.384 210.784 387.424C210.784 390.592 213.152 392.384 216.736 392.384C219.136 392.384 220.928 391.584 222.048 389.984C222.144 390.944 222.272 391.616 222.496 392H226.528ZM217.696 389.504C215.872 389.504 214.912 388.672 214.912 387.264C214.912 385.888 215.712 385.152 217.888 384.896L220.064 384.64C220.928 384.544 221.568 384.32 221.952 383.968V385.472C221.952 388.16 220.096 389.504 217.696 389.504ZM239.881 377.76C238.729 376 237.001 375.104 234.665 375.104C229.769 375.104 227.241 378.944 227.241 383.52C227.241 388.096 229.801 391.936 234.697 391.936C236.905 391.936 238.569 391.104 239.753 389.472V391.552C239.753 394.144 238.345 395.552 235.689 395.552C233.417 395.552 232.201 394.656 232.009 392.896H228.041C228.297 396.448 230.985 398.656 235.625 398.656C240.905 398.656 243.785 395.904 243.785 391.456V375.488H239.881V377.76ZM235.593 388.608C233.001 388.608 231.369 386.72 231.369 383.552C231.369 380.352 233.001 378.432 235.593 378.432C238.249 378.432 239.849 380.288 239.849 383.52C239.849 386.752 238.249 388.608 235.593 388.608ZM261.984 384.032C261.984 379.008 259.104 375.104 253.824 375.104C248.672 375.104 245.664 378.752 245.664 383.744C245.664 388.736 248.736 392.384 253.888 392.384C257.824 392.384 260.704 390.24 261.568 386.88H257.696C257.024 388.448 255.776 389.248 253.92 389.248C251.488 389.248 249.92 387.84 249.632 384.992H261.984V384.032ZM253.792 378.24C256.128 378.24 257.6 379.776 257.952 382.176H249.664C250.048 379.52 251.584 378.24 253.792 378.24ZM281.989 377.632C280.805 375.936 279.109 375.104 276.901 375.104C271.845 375.104 269.477 379.072 269.477 383.744C269.477 388.384 271.877 392.384 276.901 392.384C279.173 392.384 280.901 391.488 282.117 389.696V392H286.021V369.216H281.989V377.632ZM273.605 383.872C273.605 380.416 275.237 378.432 277.829 378.432C280.485 378.432 282.085 380.288 282.085 383.744C282.085 386.528 280.997 389.056 277.829 389.056C274.725 389.056 273.605 386.656 273.605 383.872ZM304.7 383.744C304.7 378.592 301.532 375.104 296.316 375.104C291.164 375.104 287.9 378.656 287.9 383.744C287.9 388.832 291.164 392.384 296.316 392.384C301.5 392.384 304.7 388.832 304.7 383.744ZM296.316 389.056C293.628 389.056 292.028 387.168 292.028 383.744C292.028 380.32 293.628 378.432 296.316 378.432C298.972 378.432 300.604 380.32 300.604 383.744C300.604 387.168 298.972 389.056 296.316 389.056ZM322.173 384.032C322.173 379.008 319.293 375.104 314.013 375.104C308.861 375.104 305.853 378.752 305.853 383.744C305.853 388.736 308.925 392.384 314.077 392.384C318.013 392.384 320.893 390.24 321.757 386.88H317.885C317.213 388.448 315.965 389.248 314.109 389.248C311.677 389.248 310.109 387.84 309.821 384.992H322.173V384.032ZM313.981 378.24C316.317 378.24 317.789 379.776 318.141 382.176H309.853C310.237 379.52 311.773 378.24 313.981 378.24ZM330.602 392.448C335.242 392.448 337.93 390.592 337.93 387.264C337.93 384.448 336.202 382.976 332.202 382.24L330.122 381.92C328.202 381.568 327.37 381.056 327.37 379.904C327.37 378.624 328.33 377.984 330.25 377.984C332.458 377.984 333.642 378.688 333.738 380.704H337.546C337.386 376.96 334.954 375.104 330.25 375.104C325.866 375.104 323.402 376.992 323.402 380.096C323.402 382.816 325.194 384.48 328.81 385.088L330.698 385.408C333.162 385.824 333.93 386.4 333.93 387.584C333.93 388.896 332.842 389.568 330.666 389.568C328.234 389.568 327.21 388.8 326.986 386.752H323.05C323.274 390.56 325.802 392.448 330.602 392.448ZM354.757 375.104C352.549 375.104 350.853 376.032 349.605 377.856V375.488H345.701V392H349.733V382.752C349.733 380.032 351.461 378.592 353.413 378.592C355.493 378.592 356.517 379.648 356.517 381.728V392H360.549V381.056C360.549 377.216 358.309 375.104 354.757 375.104ZM379.25 383.744C379.25 378.592 376.082 375.104 370.866 375.104C365.714 375.104 362.45 378.656 362.45 383.744C362.45 388.832 365.714 392.384 370.866 392.384C376.05 392.384 379.25 388.832 379.25 383.744ZM370.866 389.056C368.178 389.056 366.578 387.168 366.578 383.744C366.578 380.32 368.178 378.432 370.866 378.432C373.522 378.432 375.154 380.32 375.154 383.744C375.154 387.168 373.522 389.056 370.866 389.056ZM388.904 375.488H385.64V370.688H381.64V375.488H379.08V378.56H381.64V387.904C381.64 390.88 383.24 392.128 386.792 392.128C387.208 392.128 387.912 392.096 388.904 392V388.928H387.528C386.152 388.928 385.64 388.544 385.64 387.488V378.56H388.904V375.488ZM412.475 384.032C412.475 379.008 409.595 375.104 404.315 375.104C399.163 375.104 396.155 378.752 396.155 383.744C396.155 388.736 399.227 392.384 404.379 392.384C408.315 392.384 411.195 390.24 412.059 386.88H408.187C407.515 388.448 406.267 389.248 404.411 389.248C401.979 389.248 400.411 387.84 400.123 384.992H412.475V384.032ZM404.283 378.24C406.619 378.24 408.091 379.776 408.443 382.176H400.155C400.539 379.52 402.075 378.24 404.283 378.24ZM427.944 375.488H423.432L422.568 376.704C421 379.008 420.136 380.32 419.944 380.608C419.016 379.168 418.12 377.888 417.288 376.704L416.424 375.488H411.816L417.64 383.552L411.496 392H416.008L416.616 391.136C417.064 390.496 418.152 388.928 419.848 386.464C420.072 386.816 420.584 387.552 421.32 388.608C422.056 389.696 422.632 390.528 423.048 391.136L423.656 392H428.264L422.12 383.52L427.944 375.488ZM433.111 373.344V369.568H429.143V373.344H433.111ZM433.143 392V375.488H429.111V392H433.143ZM442.248 392.448C446.888 392.448 449.576 390.592 449.576 387.264C449.576 384.448 447.848 382.976 443.848 382.24L441.768 381.92C439.848 381.568 439.016 381.056 439.016 379.904C439.016 378.624 439.976 377.984 441.896 377.984C444.104 377.984 445.288 378.688 445.384 380.704H449.192C449.032 376.96 446.6 375.104 441.896 375.104C437.512 375.104 435.048 376.992 435.048 380.096C435.048 382.816 436.84 384.48 440.456 385.088L442.344 385.408C444.808 385.824 445.576 386.4 445.576 387.584C445.576 388.896 444.488 389.568 442.312 389.568C439.88 389.568 438.856 388.8 438.632 386.752H434.696C434.92 390.56 437.448 392.448 442.248 392.448ZM459.439 375.488H456.175V370.688H452.175V375.488H449.615V378.56H452.175V387.904C452.175 390.88 453.775 392.128 457.327 392.128C457.743 392.128 458.447 392.096 459.439 392V388.928H458.063C456.687 388.928 456.175 388.544 456.175 387.488V378.56H459.439V375.488ZM465.447 392V387.424H460.743V392H465.447Z" fill="black"/>
<rect x="561" y="257" width="189" height="93" fill="black"/>
<path d="M267.136 273.24C267.136 267.672 262.528 262.968 256.96 262.968C251.296 262.968 246.784 267.672 246.784 273.24C246.784 278.808 251.296 283.416 256.96 283.416C262.528 283.416 267.136 278.808 267.136 273.24ZM276.448 342.456V328.44C266.08 323.736 258.304 309.528 249.664 292.824C239.104 271.8 233.92 269.784 218.656 269.784H208.096L196.288 298.296C194.272 303.384 191.968 307.128 188.416 309.048V322.104C197.44 320.376 203.296 314.904 206.848 306.168L217.12 282.648H220.384C228.256 282.648 229.792 283.992 238.72 301.272C250.048 323.448 260.416 338.616 276.448 342.456ZM261.664 273.24C261.664 275.928 259.456 278.04 256.96 278.04C254.272 278.04 252.064 275.928 252.064 273.24C252.064 270.648 254.272 268.44 256.96 268.44C259.456 268.44 261.664 270.648 261.664 273.24ZM365.92 305.688V293.112H286.144V305.688H365.92ZM459.328 275.16V261.24H451.168V275.16H459.328ZM447.328 275.16V261.24H439.36V275.16H447.328ZM424.288 281.112V268.536C411.808 266.904 395.776 265.464 383.584 265.08V277.368C395.296 277.656 412.096 279.384 424.288 281.112ZM423.424 307.8V295.416C411.328 293.592 395.008 292.248 382.72 291.864V304.152C394.24 304.44 410.848 305.976 423.424 307.8ZM460.864 278.808H447.136C443.296 315.768 424.384 329.208 384.832 330.552V343.32C428.896 342.648 457.12 325.656 460.864 278.808ZM552.448 273.432V260.28H544.384V273.432H552.448ZM540.448 273.432V260.28H532.48V273.432H540.448ZM560.32 313.944C558.88 301.464 555.52 287.64 549.472 276.12H535.168C542.272 287.832 545.728 300.504 547.264 313.944H560.32ZM536.224 304.536C536.224 281.4 529.216 277.944 513.376 277.944H504.352C505.216 273.048 505.984 268.152 506.656 263.064H493.408C492.928 268.056 492.352 272.952 491.584 277.944H473.44V289.656H489.568C485.92 308.568 480.448 326.808 473.056 343.704H487.552C493.504 327 498.496 309.144 502.336 289.656H512.512C521.536 289.656 523.36 292.248 523.36 304.536C523.36 322.68 520.288 331.704 511.936 331.704C507.808 331.704 502.432 330.072 498.976 328.728V341.208C502.24 342.552 508.384 343.896 513.664 343.896C529.888 343.896 536.224 334.008 536.224 304.536ZM835.84 296.088H822.784C821.056 320.664 811.648 331.992 795.04 331.992C784.288 331.992 776.128 327.768 776.128 314.424V264.408H763.36V314.52C763.36 337.848 777.568 344.376 794.944 344.376C819.424 344.376 834.208 327.576 835.84 296.088ZM930.112 337.656V323.736C924.352 320.088 914.56 314.616 903.04 310.776V300.408H929.632V289.656H903.04V281.688H929.632V270.744H903.04V262.104H890.272V270.744H852.544V281.688H890.272V289.656H852.544V300.216H890.272V307.608C886.816 307.032 883.36 306.744 879.712 306.744C860.608 306.744 852.544 315.288 852.544 325.656C852.544 337.944 862.432 345.144 877.408 345.144C889.696 345.144 903.04 340.824 903.04 323.16V322.968C913.792 327.288 923.68 333.24 930.112 337.656ZM890.272 320.184C890.272 330.072 886.432 333.72 876.928 333.72C869.248 333.72 864.736 330.456 864.736 325.56C864.736 321.048 869.056 317.496 878.56 317.496C882.304 317.496 886.336 318.072 890.272 318.936V320.184ZM1025.87 294.36V282.36H1010.03V263.544H997.837V282.36H966.445V263.544H954.253V282.36H939.661V294.36H954.253V322.776C954.253 338.136 964.525 343.8 986.893 343.8C998.605 343.8 1007.44 343.032 1015.69 341.976V329.4C1007.34 330.84 997.645 331.896 987.949 331.896C969.421 331.896 966.445 328.344 966.445 319.224V294.36H997.837V318.456H1010.03V294.36H1025.87ZM1109.62 295.8H1096.37C1096.18 315.96 1090.99 330.84 1081.78 330.84C1078.8 330.84 1076.79 329.88 1076.79 325.752V309.912C1076.79 300.984 1073.43 295.032 1064.5 295.032C1059.22 295.032 1053.84 298.008 1050.58 301.56C1053.75 291.864 1059.7 275.256 1064.98 263.448H1050.67C1042.03 285.624 1033.59 314.04 1025.62 343.224H1039.35C1040.69 338.136 1042.8 329.112 1045.01 323.448C1047.6 316.728 1055.28 307.512 1060.85 307.512C1063.54 307.512 1064.4 308.952 1064.4 313.56V328.536C1064.4 339 1070.74 343.992 1080.82 343.992C1101.94 343.992 1109.14 319.8 1109.62 295.8Z" fill="black"/>
<path d="M649.12 278.712V267.192H606.112C607.456 264.504 608.608 261.24 608.608 261.24L596.608 259.224C596.608 259.224 595.264 263.352 593.44 267.192H567.424V278.712H587.872C582.4 288.12 573.856 297.24 564.64 302.808L569.728 315.48C572.512 313.656 574.816 311.832 577.12 309.432V346.2H589.12V298.104C593.632 291.96 597.376 286.008 601.024 278.712H649.12ZM651.52 322.104V310.872H630.592V308.28C636.064 304.728 640.48 300.6 645.184 294.744V284.952H601.12V296.28H630.976C628.192 298.68 625.12 300.792 622.624 301.944H618.592V310.872H593.824V322.104H618.592V328.44C618.592 333.72 618.496 333.912 604.096 333.912L608.224 346.2C629.248 345.048 630.592 344.088 630.688 326.424V322.104H651.52ZM743.968 278.904V267.384H703.84C704.608 265.848 705.472 263.256 706.048 261.24L693.472 259.224C692.896 261.72 691.936 264.888 690.976 267.384H662.272V278.904H686.176C679.552 291.48 670.432 302.328 658.048 310.68L663.616 323.448C666.88 321.24 669.568 318.648 672.352 315.96V346.2H684.16V303.576C690.112 296.472 696.256 286.008 699.52 278.904H743.968ZM745.12 344.376V333.24H723.232V311.832H742.72V300.6H723.232V282.936H711.52V300.6H691.168V311.832H711.52V333.24H688.672V344.376H745.12Z" fill="white"/>
<path d="M82.9375 101.605V105.76H82.0703V102.602H80.1309V105.379H79.2168V102.602H76.9844V105.865H76.0586V101.605H82.9375ZM82.0469 109.51H79.8262V110.278C79.8262 110.766 79.9141 111.131 80.0898 111.373C80.2695 111.619 80.5391 111.742 80.8984 111.742C81.3008 111.742 81.5918 111.625 81.7715 111.391C81.9551 111.156 82.0469 110.778 82.0469 110.254V109.51ZM82.9375 108.514V110.389C82.9375 111.205 82.7715 111.815 82.4395 112.217C82.1113 112.619 81.6133 112.821 80.9453 112.821C80.4375 112.821 80.0254 112.698 79.709 112.451C79.3965 112.209 79.1875 111.854 79.082 111.385L76 113.184V111.983L78.918 110.36V109.51H76V108.514H82.9375ZM82.0469 116.5H79.8262V117.268C79.8262 117.756 79.9141 118.122 80.0898 118.364C80.2695 118.61 80.5391 118.733 80.8984 118.733C81.3008 118.733 81.5918 118.616 81.7715 118.381C81.9551 118.147 82.0469 117.768 82.0469 117.245V116.5ZM82.9375 115.504V117.379C82.9375 118.196 82.7715 118.805 82.4395 119.208C82.1113 119.61 81.6133 119.811 80.9453 119.811C80.4375 119.811 80.0254 119.688 79.709 119.442C79.3965 119.2 79.1875 118.844 79.082 118.375L76 120.174V118.973L78.918 117.35V116.5H76V115.504H82.9375Z" fill="black"/>
<path d="M1130.69 261.078V258.189H1131.81L1136.58 260.434V261.512L1131.61 259.174V261.078H1133.2V262.086H1131.61V263.07H1130.69V262.086H1129V261.078H1130.69ZM1129.81 267.6C1129.81 267.928 1129.83 268.172 1129.87 268.332C1129.92 268.492 1129.98 268.61 1130.08 268.684C1130.23 268.809 1130.53 268.901 1130.97 268.959C1131.42 269.022 1132.01 269.053 1132.76 269.053C1133.46 269.053 1134.04 269.026 1134.47 268.971C1134.91 268.92 1135.23 268.84 1135.43 268.731C1135.55 268.668 1135.64 268.555 1135.69 268.391C1135.74 268.227 1135.77 267.963 1135.77 267.6C1135.77 267.24 1135.74 266.979 1135.69 266.815C1135.64 266.651 1135.55 266.537 1135.43 266.475C1135.22 266.365 1134.9 266.283 1134.46 266.229C1134.03 266.178 1133.46 266.153 1132.76 266.153C1132.15 266.153 1131.63 266.174 1131.21 266.217C1130.79 266.26 1130.47 266.326 1130.27 266.416C1130.1 266.487 1129.97 266.596 1129.91 266.744C1129.85 266.897 1129.81 267.182 1129.81 267.6ZM1132.76 270.137C1131.92 270.137 1131.22 270.08 1130.68 269.967C1130.14 269.854 1129.72 269.682 1129.42 269.451C1129.24 269.311 1129.11 269.09 1129.02 268.789C1128.94 268.489 1128.89 268.092 1128.89 267.6C1128.89 267.104 1128.94 266.707 1129.02 266.41C1129.11 266.117 1129.25 265.895 1129.45 265.742C1129.73 265.52 1130.15 265.352 1130.71 265.239C1131.26 265.125 1131.95 265.069 1132.76 265.069C1133.57 265.069 1134.26 265.125 1134.82 265.239C1135.38 265.356 1135.81 265.524 1136.09 265.742C1136.28 265.895 1136.42 266.117 1136.51 266.41C1136.6 266.707 1136.65 267.104 1136.65 267.6C1136.65 268.033 1136.61 268.397 1136.54 268.69C1136.46 268.983 1136.36 269.203 1136.21 269.352C1135.97 269.61 1135.56 269.805 1134.97 269.938C1134.38 270.071 1133.65 270.137 1132.76 270.137ZM1130.69 275.059V272.17H1131.81L1136.58 274.415V275.493L1131.61 273.155V275.059H1133.2V276.067H1131.61V277.051H1130.69V276.067H1129V275.059H1130.69Z" fill="black"/>
<path d="M1150 258H1144V279H1150V258Z" fill="black"/>
<path d="M1156 258H1154V279H1156V258Z" fill="black"/>
<path d="M1162 258H1160V279H1162V258Z" fill="black"/>
<path d="M1172 258H1166V279H1172V258Z" fill="black"/>
<path d="M1178 258H1176V279H1178V258Z" fill="black"/>
<path d="M1188 258H1182V279H1188V258Z" fill="black"/>
<path d="M1194 258H1192V279H1194V258Z" fill="black"/>
<path d="M1204 258H1198V279H1204V258Z" fill="black"/>
</g>
<defs>
<linearGradient id="paint0_linear_46_331" x1="945" y1="1" x2="945" y2="138.029" gradientUnits="userSpaceOnUse">
<stop stop-color="#1A1A1A"/>
<stop offset="1" stop-color="#1A1A1A" stop-opacity="0"/>
</linearGradient>
<linearGradient id="paint1_linear_46_331" x1="945" y1="1" x2="945" y2="138.029" gradientUnits="userSpaceOnUse">
<stop stop-color="#1A1A1A"/>
<stop offset="1" stop-color="#1A1A1A" stop-opacity="0"/>
</linearGradient>
<linearGradient id="paint2_linear_46_331" x1="945" y1="1" x2="945" y2="138.029" gradientUnits="userSpaceOnUse">
<stop stop-color="#1A1A1A"/>
<stop offset="1" stop-color="#1A1A1A" stop-opacity="0"/>
</linearGradient>
<linearGradient id="paint3_linear_46_331" x1="945" y1="1" x2="945" y2="138.029" gradientUnits="userSpaceOnUse">
<stop stop-color="#1A1A1A"/>
<stop offset="1" stop-color="#1A1A1A" stop-opacity="0"/>
</linearGradient>
<linearGradient id="paint4_linear_46_331" x1="945" y1="1" x2="945" y2="138.029" gradientUnits="userSpaceOnUse">
<stop stop-color="#1A1A1A"/>
<stop offset="1" stop-color="#1A1A1A" stop-opacity="0"/>
</linearGradient>
<linearGradient id="paint5_linear_46_331" x1="945" y1="1" x2="945" y2="138.029" gradientUnits="userSpaceOnUse">
<stop stop-color="#1A1A1A"/>
<stop offset="1" stop-color="#1A1A1A" stop-opacity="0"/>
</linearGradient>
<linearGradient id="paint6_linear_46_331" x1="945" y1="1" x2="945" y2="138.029" gradientUnits="userSpaceOnUse">
<stop stop-color="#1A1A1A"/>
<stop offset="1" stop-color="#1A1A1A" stop-opacity="0"/>
</linearGradient>
<linearGradient id="paint7_linear_46_331" x1="945" y1="1" x2="945" y2="138.029" gradientUnits="userSpaceOnUse">
<stop stop-color="#1A1A1A"/>
<stop offset="1" stop-color="#1A1A1A" stop-opacity="0"/>
</linearGradient>
<linearGradient id="paint8_linear_46_331" x1="945" y1="1" x2="945" y2="138.029" gradientUnits="userSpaceOnUse">
<stop stop-color="#1A1A1A"/>
<stop offset="1" stop-color="#1A1A1A" stop-opacity="0"/>
</linearGradient>
<linearGradient id="paint9_linear_46_331" x1="945" y1="1" x2="945" y2="138.029" gradientUnits="userSpaceOnUse">
<stop stop-color="#1A1A1A"/>
<stop offset="1" stop-color="#1A1A1A" stop-opacity="0"/>
</linearGradient>
<linearGradient id="paint10_linear_46_331" x1="945" y1="1" x2="945" y2="138.029" gradientUnits="userSpaceOnUse">
<stop stop-color="#1A1A1A"/>
<stop offset="1" stop-color="#1A1A1A" stop-opacity="0"/>
</linearGradient>
<linearGradient id="paint11_linear_46_331" x1="945" y1="1" x2="945" y2="138.029" gradientUnits="userSpaceOnUse">
<stop stop-color="#1A1A1A"/>
<stop offset="1" stop-color="#1A1A1A" stop-opacity="0"/>
</linearGradient>
<linearGradient id="paint12_linear_46_331" x1="945" y1="1" x2="945" y2="138.029" gradientUnits="userSpaceOnUse">
<stop stop-color="#1A1A1A"/>
<stop offset="1" stop-color="#1A1A1A" stop-opacity="0"/>
</linearGradient>
<linearGradient id="paint13_linear_46_331" x1="945" y1="1" x2="945" y2="138.029" gradientUnits="userSpaceOnUse">
<stop stop-color="#1A1A1A"/>
<stop offset="1" stop-color="#1A1A1A" stop-opacity="0"/>
</linearGradient>
<linearGradient id="paint14_linear_46_331" x1="945" y1="1" x2="945" y2="138.029" gradientUnits="userSpaceOnUse">
<stop stop-color="#1A1A1A"/>
<stop offset="1" stop-color="#1A1A1A" stop-opacity="0"/>
</linearGradient>
<linearGradient id="paint15_linear_46_331" x1="855" y1="171" x2="855" y2="308.029" gradientUnits="userSpaceOnUse">
<stop stop-color="#1A1A1A"/>
<stop offset="1" stop-color="#1A1A1A" stop-opacity="0"/>
</linearGradient>
<linearGradient id="paint16_linear_46_331" x1="855" y1="171" x2="855" y2="308.029" gradientUnits="userSpaceOnUse">
<stop stop-color="#1A1A1A"/>
<stop offset="1" stop-color="#1A1A1A" stop-opacity="0"/>
</linearGradient>
<linearGradient id="paint17_linear_46_331" x1="855" y1="171" x2="855" y2="308.029" gradientUnits="userSpaceOnUse">
<stop stop-color="#1A1A1A"/>
<stop offset="1" stop-color="#1A1A1A" stop-opacity="0"/>
</linearGradient>
<linearGradient id="paint18_linear_46_331" x1="855" y1="171" x2="855" y2="308.029" gradientUnits="userSpaceOnUse">
<stop stop-color="#1A1A1A"/>
<stop offset="1" stop-color="#1A1A1A" stop-opacity="0"/>
</linearGradient>
<linearGradient id="paint19_linear_46_331" x1="855" y1="171" x2="855" y2="308.029" gradientUnits="userSpaceOnUse">
<stop stop-color="#1A1A1A"/>
<stop offset="1" stop-color="#1A1A1A" stop-opacity="0"/>
</linearGradient>
<linearGradient id="paint20_linear_46_331" x1="855" y1="171" x2="855" y2="308.029" gradientUnits="userSpaceOnUse">
<stop stop-color="#1A1A1A"/>
<stop offset="1" stop-color="#1A1A1A" stop-opacity="0"/>
</linearGradient>
<linearGradient id="paint21_linear_46_331" x1="855" y1="171" x2="855" y2="308.029" gradientUnits="userSpaceOnUse">
<stop stop-color="#1A1A1A"/>
<stop offset="1" stop-color="#1A1A1A" stop-opacity="0"/>
</linearGradient>
<linearGradient id="paint22_linear_46_331" x1="855" y1="171" x2="855" y2="308.029" gradientUnits="userSpaceOnUse">
<stop stop-color="#1A1A1A"/>
<stop offset="1" stop-color="#1A1A1A" stop-opacity="0"/>
</linearGradient>
<linearGradient id="paint23_linear_46_331" x1="855" y1="171" x2="855" y2="308.029" gradientUnits="userSpaceOnUse">
<stop stop-color="#1A1A1A"/>
<stop offset="1" stop-color="#1A1A1A" stop-opacity="0"/>
</linearGradient>
<linearGradient id="paint24_linear_46_331" x1="855" y1="171" x2="855" y2="308.029" gradientUnits="userSpaceOnUse">
<stop stop-color="#1A1A1A"/>
<stop offset="1" stop-color="#1A1A1A" stop-opacity="0"/>
</linearGradient>
<linearGradient id="paint25_linear_46_331" x1="855" y1="171" x2="855" y2="308.029" gradientUnits="userSpaceOnUse">
<stop stop-color="#1A1A1A"/>
<stop offset="1" stop-color="#1A1A1A" stop-opacity="0"/>
</linearGradient>
<linearGradient id="paint26_linear_46_331" x1="855" y1="171" x2="855" y2="308.029" gradientUnits="userSpaceOnUse">
<stop stop-color="#1A1A1A"/>
<stop offset="1" stop-color="#1A1A1A" stop-opacity="0"/>
</linearGradient>
<linearGradient id="paint27_linear_46_331" x1="855" y1="171" x2="855" y2="308.029" gradientUnits="userSpaceOnUse">
<stop stop-color="#1A1A1A"/>
<stop offset="1" stop-color="#1A1A1A" stop-opacity="0"/>
</linearGradient>
<linearGradient id="paint28_linear_46_331" x1="855" y1="171" x2="855" y2="308.029" gradientUnits="userSpaceOnUse">
<stop stop-color="#1A1A1A"/>
<stop offset="1" stop-color="#1A1A1A" stop-opacity="0"/>
</linearGradient>
<linearGradient id="paint29_linear_46_331" x1="855" y1="171" x2="855" y2="308.029" gradientUnits="userSpaceOnUse">
<stop stop-color="#1A1A1A"/>
<stop offset="1" stop-color="#1A1A1A" stop-opacity="0"/>
</linearGradient>
<linearGradient id="paint30_linear_46_331" x1="765" y1="341" x2="765" y2="478.029" gradientUnits="userSpaceOnUse">
<stop stop-color="#1A1A1A"/>
<stop offset="1" stop-color="#1A1A1A" stop-opacity="0"/>
</linearGradient>
<linearGradient id="paint31_linear_46_331" x1="765" y1="341" x2="765" y2="478.029" gradientUnits="userSpaceOnUse">
<stop stop-color="#1A1A1A"/>
<stop offset="1" stop-color="#1A1A1A" stop-opacity="0"/>
</linearGradient>
<linearGradient id="paint32_linear_46_331" x1="765" y1="341" x2="765" y2="478.029" gradientUnits="userSpaceOnUse">
<stop stop-color="#1A1A1A"/>
<stop offset="1" stop-color="#1A1A1A" stop-opacity="0"/>
</linearGradient>
<linearGradient id="paint33_linear_46_331" x1="765" y1="341" x2="765" y2="478.029" gradientUnits="userSpaceOnUse">
<stop stop-color="#1A1A1A"/>
<stop offset="1" stop-color="#1A1A1A" stop-opacity="0"/>
</linearGradient>
<linearGradient id="paint34_linear_46_331" x1="765" y1="341" x2="765" y2="478.029" gradientUnits="userSpaceOnUse">
<stop stop-color="#1A1A1A"/>
<stop offset="1" stop-color="#1A1A1A" stop-opacity="0"/>
</linearGradient>
<linearGradient id="paint35_linear_46_331" x1="765" y1="341" x2="765" y2="478.029" gradientUnits="userSpaceOnUse">
<stop stop-color="#1A1A1A"/>
<stop offset="1" stop-color="#1A1A1A" stop-opacity="0"/>
</linearGradient>
<linearGradient id="paint36_linear_46_331" x1="765" y1="341" x2="765" y2="478.029" gradientUnits="userSpaceOnUse">
<stop stop-color="#1A1A1A"/>
<stop offset="1" stop-color="#1A1A1A" stop-opacity="0"/>
</linearGradient>
<linearGradient id="paint37_linear_46_331" x1="765" y1="341" x2="765" y2="478.029" gradientUnits="userSpaceOnUse">
<stop stop-color="#1A1A1A"/>
<stop offset="1" stop-color="#1A1A1A" stop-opacity="0"/>
</linearGradient>
<linearGradient id="paint38_linear_46_331" x1="765" y1="341" x2="765" y2="478.029" gradientUnits="userSpaceOnUse">
<stop stop-color="#1A1A1A"/>
<stop offset="1" stop-color="#1A1A1A" stop-opacity="0"/>
</linearGradient>
<linearGradient id="paint39_linear_46_331" x1="765" y1="341" x2="765" y2="478.029" gradientUnits="userSpaceOnUse">
<stop stop-color="#1A1A1A"/>
<stop offset="1" stop-color="#1A1A1A" stop-opacity="0"/>
</linearGradient>
<linearGradient id="paint40_linear_46_331" x1="765" y1="341" x2="765" y2="478.029" gradientUnits="userSpaceOnUse">
<stop stop-color="#1A1A1A"/>
<stop offset="1" stop-color="#1A1A1A" stop-opacity="0"/>
</linearGradient>
<linearGradient id="paint41_linear_46_331" x1="765" y1="341" x2="765" y2="478.029" gradientUnits="userSpaceOnUse">
<stop stop-color="#1A1A1A"/>
<stop offset="1" stop-color="#1A1A1A" stop-opacity="0"/>
</linearGradient>
<linearGradient id="paint42_linear_46_331" x1="765" y1="341" x2="765" y2="478.029" gradientUnits="userSpaceOnUse">
<stop stop-color="#1A1A1A"/>
<stop offset="1" stop-color="#1A1A1A" stop-opacity="0"/>
</linearGradient>
<linearGradient id="paint43_linear_46_331" x1="765" y1="341" x2="765" y2="478.029" gradientUnits="userSpaceOnUse">
<stop stop-color="#1A1A1A"/>
<stop offset="1" stop-color="#1A1A1A" stop-opacity="0"/>
</linearGradient>
<linearGradient id="paint44_linear_46_331" x1="765" y1="341" x2="765" y2="478.029" gradientUnits="userSpaceOnUse">
<stop stop-color="#1A1A1A"/>
<stop offset="1" stop-color="#1A1A1A" stop-opacity="0"/>
</linearGradient>
<linearGradient id="paint45_linear_46_331" x1="675" y1="511" x2="675" y2="648.029" gradientUnits="userSpaceOnUse">
<stop stop-color="#1A1A1A"/>
<stop offset="1" stop-color="#1A1A1A" stop-opacity="0"/>
</linearGradient>
<linearGradient id="paint46_linear_46_331" x1="675" y1="511" x2="675" y2="648.029" gradientUnits="userSpaceOnUse">
<stop stop-color="#1A1A1A"/>
<stop offset="1" stop-color="#1A1A1A" stop-opacity="0"/>
</linearGradient>
<linearGradient id="paint47_linear_46_331" x1="675" y1="511" x2="675" y2="648.029" gradientUnits="userSpaceOnUse">
<stop stop-color="#1A1A1A"/>
<stop offset="1" stop-color="#1A1A1A" stop-opacity="0"/>
</linearGradient>
<linearGradient id="paint48_linear_46_331" x1="675" y1="511" x2="675" y2="648.029" gradientUnits="userSpaceOnUse">
<stop stop-color="#1A1A1A"/>
<stop offset="1" stop-color="#1A1A1A" stop-opacity="0"/>
</linearGradient>
<linearGradient id="paint49_linear_46_331" x1="675" y1="511" x2="675" y2="648.029" gradientUnits="userSpaceOnUse">
<stop stop-color="#1A1A1A"/>
<stop offset="1" stop-color="#1A1A1A" stop-opacity="0"/>
</linearGradient>
<linearGradient id="paint50_linear_46_331" x1="675" y1="511" x2="675" y2="648.029" gradientUnits="userSpaceOnUse">
<stop stop-color="#1A1A1A"/>
<stop offset="1" stop-color="#1A1A1A" stop-opacity="0"/>
</linearGradient>
<linearGradient id="paint51_linear_46_331" x1="675" y1="511" x2="675" y2="648.029" gradientUnits="userSpaceOnUse">
<stop stop-color="#1A1A1A"/>
<stop offset="1" stop-color="#1A1A1A" stop-opacity="0"/>
</linearGradient>
<linearGradient id="paint52_linear_46_331" x1="675" y1="511" x2="675" y2="648.029" gradientUnits="userSpaceOnUse">
<stop stop-color="#1A1A1A"/>
<stop offset="1" stop-color="#1A1A1A" stop-opacity="0"/>
</linearGradient>
<linearGradient id="paint53_linear_46_331" x1="675" y1="511" x2="675" y2="648.029" gradientUnits="userSpaceOnUse">
<stop stop-color="#1A1A1A"/>
<stop offset="1" stop-color="#1A1A1A" stop-opacity="0"/>
</linearGradient>
<linearGradient id="paint54_linear_46_331" x1="675" y1="511" x2="675" y2="648.029" gradientUnits="userSpaceOnUse">
<stop stop-color="#1A1A1A"/>
<stop offset="1" stop-color="#1A1A1A" stop-opacity="0"/>
</linearGradient>
<linearGradient id="paint55_linear_46_331" x1="675" y1="511" x2="675" y2="648.029" gradientUnits="userSpaceOnUse">
<stop stop-color="#1A1A1A"/>
<stop offset="1" stop-color="#1A1A1A" stop-opacity="0"/>
</linearGradient>
<linearGradient id="paint56_linear_46_331" x1="675" y1="511" x2="675" y2="648.029" gradientUnits="userSpaceOnUse">
<stop stop-color="#1A1A1A"/>
<stop offset="1" stop-color="#1A1A1A" stop-opacity="0"/>
</linearGradient>
<linearGradient id="paint57_linear_46_331" x1="675" y1="511" x2="675" y2="648.029" gradientUnits="userSpaceOnUse">
<stop stop-color="#1A1A1A"/>
<stop offset="1" stop-color="#1A1A1A" stop-opacity="0"/>
</linearGradient>
<linearGradient id="paint58_linear_46_331" x1="675" y1="511" x2="675" y2="648.029" gradientUnits="userSpaceOnUse">
<stop stop-color="#1A1A1A"/>
<stop offset="1" stop-color="#1A1A1A" stop-opacity="0"/>
</linearGradient>
<linearGradient id="paint59_linear_46_331" x1="675" y1="511" x2="675" y2="648.029" gradientUnits="userSpaceOnUse">
<stop stop-color="#1A1A1A"/>
<stop offset="1" stop-color="#1A1A1A" stop-opacity="0"/>
</linearGradient>
<clipPath id="clip0_46_331">
<rect width="1450" height="650" fill="white"/>
</clipPath>
</defs>
</svg>
