<svg width="96" height="48" viewBox="0 0 96 48" fill="none" xmlns="http://www.w3.org/2000/svg">
<path fill-rule="evenodd" clip-rule="evenodd" d="M24.0003 12C25.6572 12 27.0003 13.3431 27.0003 15V18.3944L31.3362 15.5038C32.7148 14.5848 34.5774 14.9573 35.4965 16.3359C36.4155 17.7145 36.043 19.5771 34.6644 20.4962L29.4086 24L34.6644 27.5038C36.043 28.4229 36.4155 30.2855 35.4965 31.6641C34.5774 33.0427 32.7148 33.4152 31.3362 32.4962L27.0003 29.6056V33C27.0003 34.6569 25.6572 36 24.0003 36C22.3435 36 21.0003 34.6569 21.0003 33V29.6056L16.6644 32.4962C15.2858 33.4152 13.4232 33.0427 12.5042 31.6641C11.5851 30.2855 11.9576 28.4229 13.3362 27.5038L18.592 24L13.3362 20.4962C11.9576 19.5771 11.5851 17.7145 12.5042 16.3359C13.4232 14.9573 15.2858 14.5848 16.6644 15.5038L21.0003 18.3944V15C21.0003 13.3431 22.3435 12 24.0003 12Z" fill="#EA7878"/>
<path fill-rule="evenodd" clip-rule="evenodd" d="M72.0003 12C73.6572 12 75.0003 13.3431 75.0003 15V18.3944L79.3362 15.5038C80.7148 14.5848 82.5774 14.9573 83.4965 16.3359C84.4155 17.7145 84.043 19.5771 82.6644 20.4962L77.4086 24L82.6644 27.5038C84.043 28.4229 84.4155 30.2855 83.4965 31.6641C82.5774 33.0427 80.7148 33.4152 79.3362 32.4962L75.0003 29.6056V33C75.0003 34.6569 73.6572 36 72.0003 36C70.3435 36 69.0003 34.6569 69.0003 33V29.6056L64.6644 32.4962C63.2858 33.4152 61.4232 33.0427 60.5042 31.6641C59.5851 30.2855 59.9576 28.4229 61.3362 27.5038L66.592 24L61.3362 20.4962C59.9576 19.5771 59.5851 17.7145 60.5042 16.3359C61.4232 14.9573 63.2858 14.5848 64.6644 15.5038L69.0003 18.3944V15C69.0003 13.3431 70.3435 12 72.0003 12Z" fill="#EAC378"/>
</svg>
