<svg width="235" height="30" viewBox="0 0 235 30" fill="none" xmlns="http://www.w3.org/2000/svg">
<path d="M8.4 1H14V17.8H8.4V1Z" fill="white"/>
<path d="M11.2 20.6L0 9.4V17.8L11.2 29L22.4 17.8V9.4L11.2 20.6Z" fill="white"/>
<path d="M69.9741 5C69.9741 9.35547 66.3413 10.4492 64.5249 10.4492V14.1016C67.064 14.1016 68.9194 13.3594 70.2866 12.2656H84.5249V15H71.7905V18.6328H84.0171C83.1577 20.4688 81.1069 21.3672 77.2593 21.3672V25C86.3413 25 88.1772 19.5508 88.1772 15.918V8.63281H89.4468V5H87.2593V8.63281H72.9038C73.4312 7.30469 73.6265 5.99609 73.6265 5H69.9741ZM93.0796 5H90.8921V8.63281H93.0796V5ZM109.212 5H112.845V8.63281H122.865V14.1016C122.865 17.7344 120.677 25 111.947 25V21.3672C114.369 21.3672 119.212 19.9219 119.212 14.1016V12.2656H102.845V17.7344H99.2124V8.63281H109.212V5ZM132.689 5H129.056V14.1016H132.689V5ZM152.708 8.63281C152.708 21.7383 141.791 25 136.322 25H129.056V21.3672H136.322C146.517 21.3672 149.056 12.8906 149.056 8.63281H152.708ZM158.744 5.9375V24.1211H182.396V5.9375H158.744ZM178.744 9.57031V20.4883H162.376V9.57031H178.744ZM188.587 13.125H212.24V16.7578H188.587V13.125ZM222.064 5H218.431V25H222.064V13.9453L227.689 19.5508L230.267 16.9922L223.548 10.2734L222.064 11.7773V5ZM225.345 5H227.533V8.63281H225.345V5ZM231.166 5H228.978V8.63281H231.166V5Z" fill="white"/>
</svg>
