<svg width="436" height="20" viewBox="0 0 436 20" fill="none" xmlns="http://www.w3.org/2000/svg">
<g opacity="0.5">
<path d="M20 20L0 0H18L38 20H20Z" fill="url(#paint0_linear_45_133)"/>
<path d="M50 20L30 0H48L68 20H50Z" fill="url(#paint1_linear_45_133)"/>
<path d="M80 20L60 0H78L98 20H80Z" fill="url(#paint2_linear_45_133)"/>
<path d="M268 20L248 0H266L286 20H268Z" fill="url(#paint3_linear_45_133)"/>
<path d="M110 20L90 0H108L128 20H110Z" fill="url(#paint4_linear_45_133)"/>
<path d="M298 20L278 0H296L316 20H298Z" fill="url(#paint5_linear_45_133)"/>
<path d="M140 20L120 0H138L158 20H140Z" fill="url(#paint6_linear_45_133)"/>
<path d="M328 20L308 0H326L346 20H328Z" fill="url(#paint7_linear_45_133)"/>
<path d="M170 20L150 0H168L188 20H170Z" fill="url(#paint8_linear_45_133)"/>
<path d="M358 20L338 0H356L376 20H358Z" fill="url(#paint9_linear_45_133)"/>
<path d="M200 20L180 0H198L218 20H200Z" fill="url(#paint10_linear_45_133)"/>
<path d="M388 20L368 0H386L406 20H388Z" fill="url(#paint11_linear_45_133)"/>
<path d="M230 20L210 0H228L248 20H230Z" fill="url(#paint12_linear_45_133)"/>
<path d="M418 20L398 0H416L436 20H418Z" fill="url(#paint13_linear_45_133)"/>
</g>
<defs>
<linearGradient id="paint0_linear_45_133" x1="417" y1="0" x2="417" y2="20" gradientUnits="userSpaceOnUse">
<stop stop-color="#AAAAAA" stop-opacity="0"/>
<stop offset="1" stop-color="#AAAAAA"/>
</linearGradient>
<linearGradient id="paint1_linear_45_133" x1="417" y1="0" x2="417" y2="20" gradientUnits="userSpaceOnUse">
<stop stop-color="#AAAAAA" stop-opacity="0"/>
<stop offset="1" stop-color="#AAAAAA"/>
</linearGradient>
<linearGradient id="paint2_linear_45_133" x1="417" y1="0" x2="417" y2="20" gradientUnits="userSpaceOnUse">
<stop stop-color="#AAAAAA" stop-opacity="0"/>
<stop offset="1" stop-color="#AAAAAA"/>
</linearGradient>
<linearGradient id="paint3_linear_45_133" x1="417" y1="0" x2="417" y2="20" gradientUnits="userSpaceOnUse">
<stop stop-color="#AAAAAA" stop-opacity="0"/>
<stop offset="1" stop-color="#AAAAAA"/>
</linearGradient>
<linearGradient id="paint4_linear_45_133" x1="417" y1="0" x2="417" y2="20" gradientUnits="userSpaceOnUse">
<stop stop-color="#AAAAAA" stop-opacity="0"/>
<stop offset="1" stop-color="#AAAAAA"/>
</linearGradient>
<linearGradient id="paint5_linear_45_133" x1="417" y1="0" x2="417" y2="20" gradientUnits="userSpaceOnUse">
<stop stop-color="#AAAAAA" stop-opacity="0"/>
<stop offset="1" stop-color="#AAAAAA"/>
</linearGradient>
<linearGradient id="paint6_linear_45_133" x1="417" y1="0" x2="417" y2="20" gradientUnits="userSpaceOnUse">
<stop stop-color="#AAAAAA" stop-opacity="0"/>
<stop offset="1" stop-color="#AAAAAA"/>
</linearGradient>
<linearGradient id="paint7_linear_45_133" x1="417" y1="0" x2="417" y2="20" gradientUnits="userSpaceOnUse">
<stop stop-color="#AAAAAA" stop-opacity="0"/>
<stop offset="1" stop-color="#AAAAAA"/>
</linearGradient>
<linearGradient id="paint8_linear_45_133" x1="417" y1="0" x2="417" y2="20" gradientUnits="userSpaceOnUse">
<stop stop-color="#AAAAAA" stop-opacity="0"/>
<stop offset="1" stop-color="#AAAAAA"/>
</linearGradient>
<linearGradient id="paint9_linear_45_133" x1="417" y1="0" x2="417" y2="20" gradientUnits="userSpaceOnUse">
<stop stop-color="#AAAAAA" stop-opacity="0"/>
<stop offset="1" stop-color="#AAAAAA"/>
</linearGradient>
<linearGradient id="paint10_linear_45_133" x1="417" y1="0" x2="417" y2="20" gradientUnits="userSpaceOnUse">
<stop stop-color="#AAAAAA" stop-opacity="0"/>
<stop offset="1" stop-color="#AAAAAA"/>
</linearGradient>
<linearGradient id="paint11_linear_45_133" x1="417" y1="0" x2="417" y2="20" gradientUnits="userSpaceOnUse">
<stop stop-color="#AAAAAA" stop-opacity="0"/>
<stop offset="1" stop-color="#AAAAAA"/>
</linearGradient>
<linearGradient id="paint12_linear_45_133" x1="417" y1="0" x2="417" y2="20" gradientUnits="userSpaceOnUse">
<stop stop-color="#AAAAAA" stop-opacity="0"/>
<stop offset="1" stop-color="#AAAAAA"/>
</linearGradient>
<linearGradient id="paint13_linear_45_133" x1="417" y1="0" x2="417" y2="20" gradientUnits="userSpaceOnUse">
<stop stop-color="#AAAAAA" stop-opacity="0"/>
<stop offset="1" stop-color="#AAAAAA"/>
</linearGradient>
</defs>
</svg>
