<svg width="1244" height="1952" viewBox="0 0 1244 1952" fill="none" xmlns="http://www.w3.org/2000/svg">
<path d="M1243.5 1830L117.5 1951.5H1243.5V1830Z" fill="url(#paint0_linear_6_40)"/>
<path d="M1243.5 0H0V506L1243.5 435V0Z" fill="#0C092E"/>
<path fill-rule="evenodd" clip-rule="evenodd" d="M1243.5 1830V1149.5L0 1227.5V1951.5H117.5L1243.5 1830Z" fill="#D30E0E"/>
<path d="M0 1227.5L1243.5 1149.5V435L0 506V1227.5Z" fill="#FFD600"/>
<path d="M239.861 1471.2C232.448 1497.42 219.402 1525.42 202.5 1544.42L235.117 1561.12C252.315 1540.32 264.472 1508.81 272.478 1481.37L239.861 1471.2ZM405.909 1460.72C398.496 1484.86 384.56 1516.47 373.292 1536.66L403.833 1547.23C415.397 1527.92 429.927 1498.65 441.491 1471.62L405.909 1460.72ZM194.791 1402.3V1437.64L305.687 1431.82C303.908 1529.9 302.722 1600.93 183.523 1640.73C192.122 1648.29 201.907 1661.74 205.762 1671.63C278.704 1645.24 312.507 1606.35 328.519 1558.3C348.682 1610.1 382.781 1642.16 446.235 1655.46C450.979 1645.42 460.764 1629.76 468.177 1621.65C386.043 1608.44 355.205 1559.58 342.158 1479.2C343.048 1463.42 343.641 1446.76 343.937 1429.82L455.13 1423.99V1388.66L194.791 1402.3ZM528.962 1432.89C522.736 1463.21 510.578 1494.72 493.974 1516.67L529.555 1531.14C546.457 1508.88 557.131 1473.28 564.248 1442.03L528.962 1432.89ZM709.836 1423.41C702.72 1450.8 689.08 1486.56 676.923 1509.76L708.057 1521.19C720.807 1499.74 736.226 1465.97 749.272 1435.89L709.836 1423.41ZM601.015 1372.4C600.126 1476.37 606.649 1571.64 483.892 1625.28C493.677 1632.49 504.352 1645.29 508.799 1654.26C569.881 1626.12 602.498 1587 619.992 1541.84C642.824 1592.6 678.109 1625.5 738.598 1639.55C743.342 1629.2 754.017 1612.91 762.022 1604.77C689.08 1591.96 652.016 1549.07 635.114 1482.85C640.452 1446.94 640.748 1408.62 641.045 1370.3L601.015 1372.4ZM837.337 1399.8L870.25 1398.08V1424.8L837.337 1426.53V1399.8ZM962.17 1393.26L998.048 1391.38V1418.1L962.17 1419.99V1393.26ZM949.716 1461.02C959.204 1464.38 970.472 1469.43 979.664 1474.59L913.541 1478.06C918.285 1470.39 922.437 1462.45 926.291 1454.53L904.053 1451.54V1366.32L805.61 1371.48V1458.18L888.931 1453.81C884.779 1462.64 879.442 1471.53 873.215 1480.17L783.371 1484.88V1515.76L842.081 1512.68C824.587 1527.55 802.645 1540.88 775.959 1552.08C782.482 1557.97 791.377 1570.86 794.936 1578.99L805.61 1573.68V1638.41L838.227 1636.7V1629.57L869.954 1627.91V1633.26L904.053 1631.47V1539.13L856.61 1541.61C869.064 1531.76 880.035 1521.09 889.82 1510.18L939.338 1507.59C948.53 1517.79 959.501 1527.31 971.361 1535.6L930.443 1537.74V1631.87L963.059 1630.16V1623.03L998.048 1621.2V1626.54L1032.44 1624.74V1565.06L1040.15 1567.33C1045.19 1558.45 1054.98 1544.58 1062.69 1537.64C1033.63 1531.74 1005.46 1520.15 984.112 1505.24L1053.5 1501.6V1470.72L1002.79 1473.38L1011.98 1463.69C1005.46 1458.69 995.083 1453.3 984.112 1448.82L1032.15 1446.31V1359.61L930.146 1364.95V1451.65L960.39 1450.07L949.716 1461.02ZM838.227 1598.99V1573.16L869.954 1571.5V1597.33L838.227 1598.99ZM963.059 1592.45V1566.62L998.048 1564.78V1590.62L963.059 1592.45Z" fill="#EBEBEB"/>
<path d="M481.229 979.674C489.434 983.073 496.047 986.875 501.066 991.079C506.085 995.204 509.789 999.358 512.179 1003.54C514.649 1007.72 516.043 1011.59 516.362 1015.17C516.68 1018.74 516.242 1021.72 515.047 1024.09C513.852 1026.39 512.099 1027.76 509.789 1028.2C507.558 1028.63 505.049 1027.81 502.261 1025.72C501.703 1021.84 500.667 1017.91 499.154 1013.92C497.64 1009.85 495.847 1005.83 493.776 1001.87C491.784 997.908 489.594 994.154 487.204 990.609C484.814 986.985 482.384 983.602 479.914 980.461L481.229 979.674ZM428.29 980.893L447.888 987.524C447.649 988.175 447.211 988.716 446.574 989.149C445.936 989.581 444.861 989.837 443.347 989.916C441.037 995.063 438.129 1000.52 434.624 1006.29C431.118 1011.98 426.976 1017.54 422.196 1022.97C417.495 1028.33 412.038 1033.08 405.824 1037.24L404.868 1036.21C407.975 1032.3 410.763 1028 413.233 1023.32C415.782 1018.64 418.013 1013.82 419.925 1008.85C421.917 1003.88 423.59 999.009 424.944 994.231C426.378 989.449 427.493 985.003 428.29 980.893ZM455.417 951.35L474.656 952.256C474.497 953.063 474.098 953.801 473.461 954.473C472.824 955.065 471.748 955.52 470.235 955.839V1043.19C470.235 1046.62 469.757 1049.56 468.801 1052C467.845 1054.53 465.893 1056.62 462.945 1058.29C459.997 1059.96 455.456 1061.24 449.322 1062.12C449.003 1059.66 448.565 1057.57 448.008 1055.85C447.45 1054.2 446.494 1052.81 445.14 1051.69C443.865 1050.64 442.192 1049.77 440.121 1049.08C438.049 1048.31 435.022 1047.67 431.039 1047.16V1045.61C431.039 1045.61 431.636 1045.62 432.831 1045.63C434.106 1045.65 435.659 1045.64 437.492 1045.63C439.404 1045.61 441.355 1045.62 443.347 1045.68C445.418 1045.65 447.251 1045.63 448.844 1045.63C450.517 1045.62 451.672 1045.6 452.31 1045.57C453.584 1045.5 454.421 1045.26 454.819 1044.84C455.217 1044.42 455.417 1043.77 455.417 1042.89V951.35ZM573.602 945.037C580.533 947.067 586.07 949.489 590.213 952.303C594.435 955.113 597.502 958.064 599.414 961.155C601.406 964.162 602.441 967.059 602.521 969.847C602.68 972.551 602.163 974.812 600.968 976.63C599.773 978.447 598.139 979.53 596.068 979.878C593.997 980.226 591.766 979.545 589.376 977.835C588.659 974.124 587.384 970.361 585.552 966.548C583.799 962.731 581.768 959.048 579.458 955.499C577.147 951.951 574.797 948.763 572.407 945.937L573.602 945.037ZM573.244 966.954C573.164 967.756 572.805 968.493 572.168 969.164C571.531 969.756 570.495 970.169 569.061 970.404V1032.39C569.061 1033.83 569.499 1034.8 570.376 1035.31C571.332 1035.82 573.124 1036.01 575.753 1035.87L590.332 1035.1C593.12 1034.96 595.55 1034.83 597.622 1034.72C599.693 1034.53 601.286 1034.37 602.402 1034.23C603.437 1034.1 604.234 1033.9 604.792 1033.63C605.429 1033.28 605.987 1032.73 606.465 1031.99C607.261 1030.67 608.217 1028.34 609.333 1025.01C610.448 1021.61 611.643 1017.59 612.918 1012.98L614.232 1012.91L614.71 1032.39C616.861 1033.08 618.295 1033.88 619.012 1034.8C619.809 1035.63 620.207 1036.77 620.207 1038.21C620.207 1039.88 619.729 1041.34 618.773 1042.59C617.897 1043.83 616.303 1044.91 613.993 1045.83C611.683 1046.75 608.536 1047.47 604.553 1048C600.569 1048.61 595.431 1049.08 589.137 1049.41L573.722 1050.21C569.021 1050.46 565.277 1050.3 562.489 1049.73C559.78 1049.15 557.828 1047.9 556.633 1045.96C555.518 1043.95 554.96 1041.07 554.96 1037.32V966.117L573.244 966.954ZM611.125 980.046C617.339 983.55 622.318 987.118 626.063 990.751C629.887 994.38 632.715 998.021 634.547 1001.67C636.459 1005.24 637.574 1008.62 637.893 1011.79C638.212 1014.88 637.933 1017.61 637.057 1019.97C636.26 1022.33 635.105 1024.14 633.591 1025.42C632.157 1026.61 630.524 1027.09 628.692 1026.87C626.859 1026.65 625.146 1025.5 623.553 1023.43C623.394 1019.53 622.836 1015.09 621.88 1010.12C620.924 1005.14 619.49 1000.11 617.578 995.025C615.746 989.856 613.236 985.201 610.05 981.06L611.125 980.046ZM541.457 981.184C544.404 988.21 546.117 994.622 546.595 1000.42C547.073 1006.14 546.754 1011.14 545.639 1015.43C544.603 1019.71 543.13 1023.26 541.218 1026.07C539.943 1028.05 538.429 1029.53 536.677 1030.5C534.924 1031.39 533.171 1031.76 531.419 1031.61C529.746 1031.46 528.312 1030.78 527.117 1029.56C525.603 1027.97 525.005 1026.16 525.324 1024.15C525.643 1022.06 526.559 1020.14 528.073 1018.38C530.064 1016.44 531.976 1013.59 533.809 1009.83C535.641 1005.98 537.115 1001.64 538.23 996.79C539.425 991.861 539.943 986.728 539.784 981.392L541.457 981.184ZM712.342 936.569L729.55 937.342C729.47 938.144 729.111 938.881 728.474 939.553C727.916 940.14 726.881 940.594 725.367 940.912V1019.41C725.367 1019.81 724.809 1020.36 723.694 1021.06C722.658 1021.75 721.304 1022.42 719.631 1023.06C718.038 1023.63 716.365 1023.95 714.612 1024.04L712.342 1024.16V936.569ZM688.442 947.514L706.128 948.502C706.048 949.304 705.689 950.041 705.052 950.712C704.415 951.304 703.339 951.759 701.826 952.078V1026.99C701.826 1028.82 702.383 1030.07 703.499 1030.73C704.614 1031.31 706.685 1031.52 709.713 1031.36L725.845 1030.52C728.872 1030.36 731.541 1030.18 733.852 1029.98C736.242 1029.77 738.074 1029.56 739.349 1029.33C741.261 1029.07 742.734 1028.39 743.77 1027.3C744.487 1026.15 745.403 1024.11 746.519 1021.18C747.634 1018.17 748.829 1014.59 750.104 1010.46L751.418 1010.39L751.896 1027.36C754.127 1028.04 755.64 1028.83 756.437 1029.75C757.313 1030.58 757.752 1031.64 757.752 1032.91C757.752 1034.51 757.234 1035.89 756.198 1037.06C755.242 1038.31 753.569 1039.35 751.179 1040.2C748.789 1041.04 745.443 1041.73 741.141 1042.28C736.919 1042.82 731.462 1043.26 724.77 1043.62L708.279 1044.48C703.419 1044.73 699.515 1044.54 696.568 1043.9C693.7 1043.33 691.628 1042.08 690.354 1040.15C689.079 1038.23 688.442 1035.31 688.442 1031.4V947.514ZM645.063 976.951L671.712 975.555L677.567 965.196C677.567 965.196 677.926 965.576 678.643 966.336C679.439 967.013 680.395 967.92 681.511 969.058C682.626 970.196 683.781 971.412 684.976 972.706C686.171 973.999 687.167 975.184 687.964 976.259C687.725 977.548 686.729 978.238 684.976 978.33L646.019 980.372L645.063 976.951ZM657.73 941.824L675.297 942.459C675.217 943.261 674.858 943.998 674.221 944.67C673.663 945.257 672.548 945.754 670.875 946.161V1019.16L657.73 1024.15V941.824ZM643.39 1024.55C646.019 1023.77 649.604 1022.54 654.145 1020.87C658.686 1019.2 663.745 1017.26 669.322 1015.05C674.898 1012.76 680.475 1010.36 686.052 1007.83L686.53 1009C682.945 1012.3 678.404 1016.29 672.907 1020.96C667.489 1025.64 660.957 1030.84 653.309 1036.59C652.831 1038.29 651.875 1039.5 650.441 1040.21L643.39 1024.55ZM735.047 962.423L738.154 961.183L739.349 964.232L676.731 990.369L674.46 987.616L735.047 962.423ZM737.198 961.951L736.003 962.014L742.934 954.95L755.123 964.363C754.724 964.862 754.127 965.332 753.33 965.773C752.613 966.129 751.657 966.419 750.462 966.641C750.382 974.623 750.223 981.253 749.984 986.53C749.825 991.804 749.506 996.089 749.028 999.384C748.55 1002.68 747.913 1005.31 747.116 1007.26C746.319 1009.14 745.284 1010.63 744.009 1011.73C742.416 1013.25 740.583 1014.39 738.512 1015.13C736.441 1015.88 734.13 1016.32 731.581 1016.45C731.581 1014.38 731.501 1012.63 731.342 1011.2C731.262 1009.69 730.904 1008.47 730.267 1007.55C729.709 1006.7 728.992 1006.02 728.116 1005.51C727.319 1004.91 726.164 1004.41 724.65 1004.01V1002.34C725.526 1002.37 726.642 1002.43 727.996 1002.52C729.43 1002.53 730.585 1002.5 731.462 1002.46C732.736 1002.39 733.732 1001.98 734.449 1001.23C735.086 1000.47 735.564 998.734 735.883 996.005C736.281 993.272 736.56 989.148 736.72 983.636C736.959 978.119 737.118 970.89 737.198 961.951ZM771.733 1009.32C772.609 1009.28 773.247 1009.16 773.645 1008.98C774.123 1008.72 774.681 1007.93 775.318 1006.62C775.796 1005.72 776.234 1004.82 776.633 1003.92C777.111 1003.02 777.748 1001.71 778.545 999.992C779.341 998.195 780.457 995.544 781.891 992.038C783.404 988.449 785.436 983.556 787.985 977.359C790.534 971.162 793.801 963.213 797.784 953.511L799.696 953.889C798.899 956.803 797.983 960.122 796.948 963.846C795.912 967.49 794.876 971.294 793.841 975.257C792.805 979.141 791.809 982.863 790.853 986.423C789.897 989.983 789.061 993.138 788.344 995.888C787.627 998.558 787.109 1000.54 786.79 1001.83C786.392 1003.85 786.033 1005.86 785.715 1007.87C785.396 1009.88 785.276 1011.65 785.356 1013.16C785.356 1014.83 785.595 1016.38 786.073 1017.79C786.631 1019.19 787.228 1020.68 787.866 1022.24C788.503 1023.8 789.021 1025.57 789.419 1027.54C789.897 1029.51 790.096 1031.82 790.017 1034.45C789.937 1037.49 788.981 1039.97 787.149 1041.9C785.316 1043.83 782.966 1044.87 780.098 1045.02C778.744 1045.09 777.429 1044.68 776.155 1043.79C774.96 1042.98 774.123 1041.47 773.645 1039.26C774.442 1034.99 774.88 1031.02 774.96 1027.34C775.119 1023.67 774.999 1020.6 774.601 1018.15C774.203 1015.62 773.526 1014.06 772.57 1013.47C771.773 1012.87 770.857 1012.48 769.821 1012.3C768.865 1012.03 767.75 1011.89 766.475 1011.87V1009.6C766.475 1009.6 766.834 1009.58 767.551 1009.54C768.268 1009.5 769.024 1009.47 769.821 1009.42C770.697 1009.38 771.335 1009.34 771.733 1009.32ZM764.802 962.419C770.06 962.622 774.163 963.365 777.111 964.646C780.138 965.844 782.249 967.329 783.444 969.101C784.719 970.869 785.276 972.635 785.117 974.398C784.958 976.082 784.281 977.553 783.086 978.812C781.97 979.988 780.536 980.741 778.784 981.072C777.031 981.324 775.159 980.783 773.167 979.452C772.769 977.478 772.092 975.48 771.136 973.455C770.18 971.431 769.024 969.537 767.67 967.774C766.395 966.005 765.121 964.477 763.846 963.187L764.802 962.419ZM774.243 934.402C779.819 934.588 784.241 935.394 787.507 936.818C790.773 938.162 793.084 939.757 794.438 941.6C795.872 943.44 796.549 945.319 796.47 947.238C796.39 949.077 795.753 950.666 794.558 952.005C793.442 953.34 791.929 954.177 790.017 954.516C788.184 954.772 786.193 954.238 784.042 952.915C783.564 950.786 782.727 948.636 781.532 946.465C780.337 944.294 779.023 942.249 777.589 940.329C776.155 938.33 774.721 936.61 773.287 935.17L774.243 934.402ZM834.471 951.349V954.7L819.055 955.507V952.157L834.471 951.349ZM830.288 951.568L834.829 946.185L845.226 953.418C844.907 953.833 844.349 954.301 843.553 954.822C842.756 955.263 841.84 955.59 840.804 955.804V970.642C840.724 970.646 840.167 970.675 839.131 970.73C838.095 970.784 836.98 970.842 835.785 970.905C834.59 970.968 833.634 971.018 832.917 971.055L831.364 971.137V951.512L830.288 951.568ZM822.521 1038.25C822.521 1038.73 821.963 1039.36 820.848 1040.14C819.812 1040.91 818.418 1041.62 816.665 1042.27C814.992 1042.92 813.2 1043.29 811.288 1043.39L809.256 1043.5V984.501V978.877L823.118 983.775L854.786 982.115V985.585L822.521 987.276V1038.25ZM861.956 967.738L867.931 961.442L878.447 971.062C877.65 971.822 876.136 972.3 873.906 972.497C872.392 974.012 870.48 975.868 868.17 978.063C865.939 980.174 864.027 981.95 862.434 983.389L860.88 982.753C861.119 981.464 861.398 979.894 861.717 978.042C862.035 976.111 862.354 974.219 862.673 972.368C862.991 970.436 863.19 968.87 863.27 967.67L861.956 967.738ZM804.237 963.942C805.91 968.96 806.786 973.222 806.866 976.728C807.025 980.15 806.667 982.922 805.791 985.042C804.914 987.162 803.759 988.698 802.325 989.651C800.891 990.603 799.417 991.04 797.904 990.959C796.47 990.875 795.235 990.381 794.199 989.478C793.243 988.571 792.765 987.32 792.765 985.724C792.765 984.129 793.522 982.334 795.036 980.34C797.107 978.955 798.82 976.911 800.174 974.207C801.528 971.424 802.365 968.029 802.684 964.024L804.237 963.942ZM809.973 933.247L822.999 937.71L847.257 936.439L852.874 929.084L866.377 937.71C865.501 938.873 863.668 939.767 860.88 940.392V969.47L848.572 970.115V939.721L821.804 941.123V971.518L809.973 972.138V938.393V933.247ZM847.616 982.491L853.471 975.483L866.377 984.619C866.058 985.034 865.501 985.502 864.704 986.023C863.907 986.463 862.951 986.832 861.836 987.13V1025.06C861.836 1028.02 861.478 1030.59 860.761 1032.78C860.044 1034.97 858.49 1036.77 856.1 1038.17C853.79 1039.57 850.165 1040.63 845.226 1041.37C845.146 1039.3 844.947 1037.48 844.628 1035.9C844.309 1034.32 843.712 1033.07 842.836 1032.16C842.039 1031.17 840.924 1030.35 839.49 1029.71C838.135 1029.06 836.144 1028.56 833.515 1028.22V1026.55C833.515 1026.55 834.032 1026.56 835.068 1026.59C836.183 1026.61 837.498 1026.62 839.012 1026.62C840.605 1026.62 842.079 1026.62 843.433 1026.63C844.867 1026.63 845.863 1026.62 846.421 1026.59C847.377 1026.54 848.014 1026.31 848.333 1025.89C848.651 1025.48 848.811 1024.91 848.811 1024.19V982.428L847.616 982.491ZM853.71 1011.97V1015.32L818.697 1017.15V1013.8L853.71 1011.97ZM853.71 997.488V1000.96L818.697 1002.79V999.323L853.71 997.488ZM866.138 967.519V970.87L804.118 974.12V970.77L866.138 967.519Z" fill="black"/>
<path d="M233.747 151.511C233.747 148.842 233.384 143.888 232.657 136.648C243.438 136.326 249.555 136.976 251.009 138.598C251.009 138.962 250.766 139.52 250.282 140.273C248.101 144.512 247.011 150.27 247.011 157.548V186.478C266.029 179.417 278.446 174.096 284.26 170.516C285.108 170.35 285.472 170.695 285.35 171.551C284.987 174.481 284.745 178.618 284.624 183.961C284.503 187 284.381 189.129 284.26 190.349C284.018 194.243 283.715 200.749 283.352 209.865C282.746 224.332 282.322 233.876 282.08 238.498C281.111 246.434 272.934 251.775 257.55 254.522C256.702 248.623 254.279 242.503 250.282 236.162C258.519 236.943 263.364 236.871 264.818 235.946C266.756 235.48 267.725 233.064 267.725 228.697C267.725 228.576 267.786 226.45 267.907 222.32C268.634 207.968 269.058 198.06 269.179 192.595L247.011 200.307V242.884C247.011 251.617 247.435 258.752 248.283 264.287C248.404 265.494 248.465 266.279 248.465 266.643L232.293 267.491C232.293 267.248 232.354 266.578 232.475 265.48C233.323 259.37 233.747 252.07 233.747 243.579V204.823L214.305 212.756V272.982C214.184 278.932 214.971 282.409 216.667 283.411C217.878 284.682 221.997 285.073 229.023 284.583L256.823 283.127C267.604 282.804 274.024 281.315 276.084 278.66C278.627 276.95 280.626 270.295 282.08 258.695C287.289 263.638 292.679 266.873 298.251 268.401C294.375 280.977 290.499 288.518 286.622 291.026C283.231 294.237 275.236 296.051 262.638 296.468L224.662 298.458C213.881 299.145 207.279 298.338 204.856 296.039C202.07 294.487 200.798 289.216 201.041 280.227V217.818L186.141 225.877L181.417 209.021L201.041 203.08V182.701C201.041 172.755 200.798 166.399 200.314 163.634C211.458 163.293 217.575 163.943 218.666 165.584C218.787 166.063 218.423 166.931 217.575 168.188C215.395 171.699 214.305 175.153 214.305 178.549V198.018L233.747 190.813V151.511ZM151.254 149.284C163.973 148.86 170.696 149.599 171.423 151.502C171.423 152.109 170.999 153.041 170.151 154.298C167.607 158.192 166.335 163.353 166.335 169.782V192.89L168.516 192.776C174.33 192.471 179.479 191.777 183.961 190.693C184.93 190.52 185.535 190.428 185.778 190.415V206.063C185.656 206.07 185.172 206.034 184.324 205.957C179.357 205.369 173.967 205.227 168.152 205.531L166.335 205.627V262.214L188.321 251.054L189.048 266.846L135.628 292.753L128.541 276.931L152.708 267.659V206.341L150.527 206.455C144.713 206.76 138.838 207.432 132.902 208.47C131.57 208.783 130.722 208.949 130.358 208.968V193.32C130.479 193.313 130.903 193.352 131.63 193.435C136.839 194.011 143.138 194.106 150.527 193.718L152.708 193.604V171.588C152.708 164.553 152.284 157.903 151.436 151.64C151.315 150.433 151.254 149.648 151.254 149.284ZM416.176 126.303C429.622 125.598 436.709 126.076 437.435 127.736C437.435 128.1 437.254 128.776 436.89 129.766C433.862 135.747 432.348 147.107 432.348 163.847L443.977 163.237C454.394 162.691 461.965 161.688 466.69 160.228V175.693C462.45 174.945 454.758 174.863 443.613 175.447L431.984 176.057C431.742 186.137 431.015 196.911 429.804 208.376L447.611 207.443C452.698 207.177 459.058 206.54 466.69 205.534C469.718 205.132 471.898 204.836 473.231 204.645V219.383C471.656 219.344 469.294 219.347 466.144 219.39C458.997 219.28 453.183 219.342 448.701 219.577L435.618 220.262C444.34 248.554 459.24 266.453 480.317 273.961C480.438 274.682 479.772 275.445 478.318 276.249C473.594 278.923 469.354 283.33 465.599 289.47C444.764 270.062 431.803 248.483 426.715 224.732C419.689 257.73 403.094 281.223 376.929 295.209C372.689 290.458 368.328 287.229 363.846 285.524C362.756 284.974 362.15 284.521 362.029 284.163C391.465 271.825 408.787 250.902 413.996 221.396L401.095 222.072C396.855 222.294 389.648 222.975 379.472 224.115C378.867 224.268 378.382 224.354 378.019 224.373V209.635C386.135 210.058 393.827 210.141 401.095 209.881L416.176 209.091C417.63 198.582 418.478 187.803 418.72 176.752L397.461 177.866C397.219 178.606 396.855 179.717 396.371 181.198C393.948 189.574 391.404 197.046 388.739 203.614C384.257 201.059 379.472 199.733 374.385 199.636C383.47 183.027 388.376 163.665 389.103 141.55C401.458 142.236 407.576 143.25 407.455 144.591C407.576 145.07 407.273 145.813 406.546 146.822C403.518 150.984 401.095 157.236 399.278 165.58L418.72 164.561C418.72 162.014 418.66 158.56 418.538 154.199C418.66 141.214 417.872 131.915 416.176 126.303ZM336.591 131.565C348.462 134.218 354.943 136.426 356.033 138.188C356.033 138.916 355.245 139.806 353.671 140.859C351.127 142.448 349.249 144.366 348.038 146.613C346.221 149.62 344.162 152.881 341.86 156.398C341.254 157.279 340.77 157.972 340.406 158.476L357.486 157.581C360.151 157.441 365.118 156.817 372.386 155.708C374.445 155.479 375.959 155.278 376.929 155.106V170.026C368.691 169.245 361.968 168.991 356.76 169.264L335.137 170.397C333.804 172.65 331.806 176.03 329.141 180.537C326.96 184.047 325.204 186.869 323.871 189.001C327.627 189.896 331.866 190.28 336.591 190.154L354.943 189.192C359.303 188.963 364.33 188.215 370.024 186.946V200.592C365.3 199.748 360.515 199.514 355.669 199.889L350.218 200.175V221.463L356.396 221.139C363.664 220.637 369.176 219.802 372.931 218.635V232.645C369.055 231.878 363.907 231.663 357.486 231.999L349.855 232.399V263.877C356.638 259.033 364.452 252.922 373.294 245.545L376.565 261.385C362.15 269.904 349.37 280.399 338.226 292.871L328.232 278.292C328.353 277.922 329.686 276.336 332.23 273.534C334.774 270.732 336.227 269.018 336.591 268.393V233.094L327.869 233.551C320.237 233.83 315.21 234.579 312.788 235.797V222.151C315.816 223.084 321.085 223.354 328.596 222.96L336.954 222.522V200.87C331.261 201.047 326.052 201.805 321.328 203.144V192.773L315.15 201.285C313.09 194.114 310.728 189.811 308.063 188.374C323.326 166.71 332.835 147.774 336.591 131.565ZM566.081 118.81C577.589 118.328 583.766 118.854 584.614 120.386C584.736 120.865 584.554 121.663 584.069 122.78C582.979 125.749 582.434 129.234 582.434 133.237V182L621.682 179.943V147.374C621.682 143.735 621.318 139.387 620.591 134.331C620.228 132.409 620.107 131.384 620.228 131.256C631.372 130.309 637.49 130.473 638.58 131.75C638.701 132.35 638.459 133.334 637.853 134.7C636.642 137.432 636.036 140.435 636.036 143.71V181.011C636.036 185.135 636.339 189.668 636.945 194.609C637.187 197.265 637.369 199.318 637.49 200.767L620.955 201.634L621.682 193.59L582.434 195.647V256.6L626.043 254.315V223.747C626.043 220.351 625.619 216.431 624.771 211.987C624.407 210.065 624.347 209.037 624.589 208.903C627.012 208.898 630.101 208.796 633.856 208.6C639.913 208.161 642.82 208.312 642.577 209.052C642.699 209.652 642.517 210.39 642.032 211.264C640.942 213.747 640.397 217.172 640.397 221.539V258.294C640.397 269.696 640.882 277.494 641.851 281.689L624.952 282.575C625.679 278.17 626.043 273.359 626.043 268.143L524.289 273.476C517.142 273.851 511.752 274.497 508.118 275.415C508.118 275.415 508.118 275.173 508.118 274.687C508.844 269.312 509.208 264.32 509.208 259.71V227.687C509.208 224.048 508.784 219.764 507.936 214.835C507.815 213.749 507.754 213.086 507.754 212.843C519.989 212.08 526.227 212.603 526.47 214.409C526.954 215.597 526.712 216.883 525.743 218.268C524.289 220.649 523.562 223.417 523.562 226.571V259.686L567.898 257.362V196.408L529.377 198.427C522.836 198.77 517.566 199.41 513.569 200.347C513.569 200.347 513.569 200.105 513.569 199.62C514.296 193.759 514.659 188.221 514.659 183.005V154.802C514.659 151.042 514.296 146.694 513.569 141.759C513.205 139.716 513.084 138.57 513.205 138.321C523.986 138.12 530.225 138.885 531.921 140.615C532.042 141.215 531.8 142.077 531.194 143.201C529.74 145.945 529.013 149.077 529.013 152.594V184.8L567.898 182.762V136.546C567.898 131.088 567.353 125.84 566.262 120.802C566.02 119.602 565.96 118.938 566.081 118.81ZM695.271 128.051C702.782 128.507 710.958 128.564 719.801 128.221L795.026 124.279C801.809 123.924 810.834 122.965 822.099 121.405C822.826 121.367 823.19 121.348 823.19 121.348C822.342 128.67 821.857 136.762 821.736 145.623V229.321C821.736 242.179 822.099 251.682 822.826 257.83L805.201 258.754C805.686 252.906 805.928 248.041 805.928 244.16L712.533 249.054C712.533 256.454 712.775 262.142 713.26 266.12L695.635 267.044C696.361 259.363 696.725 249.58 696.725 237.692V151.083C696.725 146.595 696.301 139.46 695.453 129.679C695.332 128.958 695.271 128.415 695.271 128.051ZM712.533 143.704V233.952L805.928 229.058V138.81L712.533 143.704Z" fill="#EBEBEB"/>
<path d="M201.924 1764.66V1699.88L246.276 1697.55V1708.51L214.987 1710.15V1725.49L241.995 1724.07V1735.03L214.987 1736.45V1763.98L201.924 1764.66ZM256.691 1761.79V1697.01L269.754 1696.32V1761.11L256.691 1761.79ZM282.287 1760.45V1695.66L309.781 1694.22C316.695 1693.86 321.711 1694.19 324.83 1695.2C327.978 1696.19 330.494 1698.12 332.376 1700.99C334.259 1703.87 335.201 1707.22 335.201 1711.05C335.201 1715.92 333.774 1720.01 330.92 1723.34C328.066 1726.64 323.8 1728.86 318.122 1729.98C320.946 1731.48 323.271 1733.17 325.095 1735.05C326.948 1736.93 329.434 1740.3 332.553 1745.18L340.453 1757.4L324.83 1758.22L315.386 1744.62C312.032 1739.76 309.737 1736.71 308.501 1735.48C307.266 1734.22 305.956 1733.39 304.574 1732.99C303.191 1732.56 300.999 1732.42 297.998 1732.58L295.35 1732.72V1759.77L282.287 1760.45ZM295.35 1722.38L305.015 1721.87C311.282 1721.54 315.195 1721.07 316.754 1720.46C318.313 1719.85 319.534 1718.87 320.417 1717.53C321.299 1716.19 321.741 1714.54 321.741 1712.6C321.741 1710.42 321.152 1708.7 319.976 1707.43C318.828 1706.14 317.195 1705.37 315.077 1705.13C314.018 1705.03 310.84 1705.13 305.545 1705.41L295.35 1705.94V1722.38ZM347.558 1757.03V1692.24L395.529 1689.73V1700.69L360.621 1702.52V1716.88L393.101 1715.18V1726.09L360.621 1727.8V1745.43L396.764 1743.53V1754.45L347.558 1757.03ZM432.996 1752.55V1687.77L480.967 1685.25V1696.21L446.059 1698.04V1712.4L478.54 1710.7V1721.62L446.059 1723.32V1740.95L482.203 1739.06V1749.97L432.996 1752.55ZM486.704 1749.74L508.814 1714.77L488.779 1684.84L504.048 1684.04L517.023 1704.18L529.733 1682.7L544.87 1681.9L524.746 1714.42L546.856 1746.58L531.101 1747.41L516.758 1725.76L502.371 1748.92L486.704 1749.74ZM568.127 1745.47V1691.64L548.93 1692.65V1681.69L600.343 1679V1689.96L581.19 1690.96V1744.79L568.127 1745.47ZM608.419 1743.36V1678.57L621.482 1677.89V1742.67L608.419 1743.36ZM634.104 1742.01V1677.23L646.813 1676.56L673.292 1718.44V1675.17L685.429 1674.54V1739.32L672.321 1740.01L646.24 1699.13V1741.38L634.104 1742.01ZM696.638 1706.74C696.638 1700.14 697.624 1694.55 699.595 1689.97C701.066 1686.59 703.066 1683.53 705.597 1680.77C708.156 1678.02 710.951 1675.92 713.982 1674.5C718.012 1672.58 722.661 1671.48 727.927 1671.2C737.46 1670.7 745.08 1673.27 750.787 1678.89C756.524 1684.51 759.393 1692.59 759.393 1703.14C759.393 1713.6 756.554 1721.94 750.876 1728.16C745.197 1734.35 737.607 1737.69 728.104 1738.19C718.483 1738.69 710.834 1736.16 705.155 1730.6C699.477 1725 696.638 1717.05 696.638 1706.74ZM710.098 1705.59C710.098 1712.93 711.79 1718.41 715.173 1722.03C718.557 1725.62 722.852 1727.29 728.06 1727.01C733.267 1726.74 737.533 1724.64 740.858 1720.73C744.212 1716.78 745.889 1711.05 745.889 1703.54C745.889 1696.12 744.256 1690.66 740.99 1687.18C737.754 1683.7 733.444 1682.1 728.06 1682.38C722.676 1682.66 718.336 1684.74 715.041 1688.63C711.746 1692.48 710.098 1698.14 710.098 1705.59ZM769.543 1670.13L782.606 1669.44V1704.53C782.606 1710.1 782.768 1713.7 783.092 1715.33C783.651 1717.96 784.974 1720.02 787.063 1721.53C789.182 1723.01 792.065 1723.66 795.713 1723.47C799.42 1723.27 802.215 1722.37 804.098 1720.77C805.981 1719.14 807.114 1717.21 807.496 1714.98C807.879 1712.75 808.07 1709.08 808.07 1703.95V1668.11L821.133 1667.42V1701.45C821.133 1709.23 820.78 1714.74 820.074 1717.99C819.368 1721.24 818.058 1724.02 816.146 1726.33C814.263 1728.64 811.733 1730.54 808.555 1732.03C805.378 1733.49 801.23 1734.36 796.11 1734.63C789.932 1734.95 785.239 1734.49 782.032 1733.24C778.855 1731.97 776.339 1730.24 774.486 1728.07C772.632 1725.87 771.411 1723.53 770.823 1721.06C769.97 1717.39 769.543 1711.93 769.543 1704.69V1670.13ZM834.549 1731.51V1666.72L847.612 1666.04V1730.82L834.549 1731.51ZM860.145 1730.17V1665.38L873.208 1664.7V1690.19L898.804 1688.85V1663.35L911.867 1662.67V1727.45L898.804 1728.14V1699.81L873.208 1701.15V1729.48L860.145 1730.17ZM925.416 1726.74V1661.96L973.387 1659.45V1670.4L938.479 1672.23V1686.6L970.959 1684.89V1695.81L938.479 1697.51V1715.14L974.622 1713.25V1724.17L925.416 1726.74ZM985.743 1723.58V1658.8L1013.24 1657.36C1020.15 1656.99 1025.17 1657.32 1028.29 1658.34C1031.43 1659.32 1033.95 1661.25 1035.83 1664.13C1037.72 1667 1038.66 1670.36 1038.66 1674.19C1038.66 1679.05 1037.23 1683.14 1034.38 1686.48C1031.52 1689.78 1027.26 1691.99 1021.58 1693.11C1024.4 1694.61 1026.73 1696.3 1028.55 1698.18C1030.4 1700.06 1032.89 1703.44 1036.01 1708.31L1043.91 1720.53L1028.29 1721.35L1018.84 1707.75C1015.49 1702.89 1013.19 1699.84 1011.96 1698.61C1010.72 1697.35 1009.41 1696.52 1008.03 1696.12C1006.65 1695.69 1004.46 1695.56 1001.45 1695.71L998.806 1695.85V1722.9L985.743 1723.58ZM998.806 1685.51L1008.47 1685.01C1014.74 1684.68 1018.65 1684.21 1020.21 1683.59C1021.77 1682.98 1022.99 1682.01 1023.87 1680.66C1024.76 1679.32 1025.2 1677.68 1025.2 1675.73C1025.2 1673.55 1024.61 1671.83 1023.43 1670.57C1022.28 1669.27 1020.65 1668.5 1018.53 1668.26C1017.47 1668.17 1014.3 1668.26 1009 1668.54L998.806 1669.07V1685.51Z" fill="#EBEBEB"/>
<path d="M422.77 1118.42C420.901 1118.51 419.239 1118.3 417.785 1117.79C416.331 1117.26 415.077 1116.51 414.022 1115.56L411.482 1118.79L409.948 1118.87V1108.34L411.674 1108.24C412.009 1109.41 412.472 1110.52 413.064 1111.58C413.655 1112.62 414.382 1113.53 415.245 1114.32C416.123 1115.11 417.146 1115.71 418.312 1116.13C419.479 1116.55 420.805 1116.72 422.291 1116.64C423.889 1116.56 425.263 1116.24 426.413 1115.68C427.564 1115.11 428.451 1114.33 429.074 1113.36C429.697 1112.38 430.008 1111.22 430.008 1109.88C430.008 1108.52 429.665 1107.4 428.978 1106.52C428.291 1105.63 427.38 1104.89 426.246 1104.29C425.127 1103.68 423.889 1103.12 422.531 1102.64C421.189 1102.13 419.838 1101.59 418.48 1101.02C417.138 1100.44 415.9 1099.74 414.765 1098.91C413.647 1098.08 412.744 1097.03 412.057 1095.77C411.37 1094.51 411.026 1092.94 411.026 1091.07C411.026 1089.18 411.482 1087.53 412.393 1086.1C413.319 1084.68 414.558 1083.55 416.108 1082.72C417.673 1081.88 419.407 1081.42 421.308 1081.32C422.778 1081.24 424.152 1081.41 425.431 1081.82C426.725 1082.22 427.875 1082.85 428.882 1083.73L431.422 1080.79L432.908 1080.71V1091.03L431.183 1091.12C430.703 1089.34 430.016 1087.84 429.122 1086.64C428.243 1085.42 427.18 1084.52 425.934 1083.93C424.688 1083.34 423.298 1083.08 421.764 1083.16C419.671 1083.27 418.065 1083.81 416.946 1084.78C415.844 1085.75 415.293 1087.03 415.293 1088.61C415.293 1089.83 415.628 1090.85 416.299 1091.66C416.986 1092.45 417.889 1093.14 419.008 1093.72C420.142 1094.29 421.38 1094.82 422.722 1095.33C424.081 1095.83 425.431 1096.39 426.773 1096.99C428.115 1097.57 429.345 1098.3 430.464 1099.17C431.598 1100.02 432.501 1101.1 433.172 1102.39C433.859 1103.68 434.203 1105.28 434.203 1107.18C434.203 1109.33 433.715 1111.23 432.741 1112.88C431.782 1114.53 430.44 1115.84 428.714 1116.81C427.005 1117.76 425.023 1118.3 422.77 1118.42ZM437.608 1116.94V1115.19L441.946 1114.96V1082.47L437.608 1082.69V1080.94L452.18 1080.18V1081.93L447.866 1082.16V1114.65L453.929 1114.33C455.751 1114.24 457.237 1113.98 458.387 1113.55C459.538 1113.12 460.425 1112.51 461.048 1111.73C461.687 1110.94 462.142 1109.98 462.414 1108.83C462.701 1107.67 462.885 1106.34 462.965 1104.81L464.739 1104.72V1115.52L437.608 1116.94ZM468.409 1115.33V1113.58L473.706 1113.3V1080.8L468.409 1081.08V1079.33L485.378 1078.44V1080.19L479.626 1080.49V1112.99L485.378 1112.69V1114.44L468.409 1115.33ZM503.175 1077.51C506.85 1077.31 510.006 1077.92 512.642 1079.34C515.279 1080.73 517.308 1082.76 518.73 1085.4C520.168 1088.03 520.887 1091.09 520.887 1094.58C520.887 1097.2 520.463 1099.63 519.617 1101.87C518.77 1104.1 517.555 1106.07 515.974 1107.77C514.408 1109.45 512.538 1110.8 510.365 1111.81C508.208 1112.8 505.812 1113.37 503.175 1113.51L488.819 1114.26V1112.51L493.157 1112.28V1079.78L488.819 1080.01V1078.26L503.175 1077.51ZM499.077 1111.97L503.175 1111.75C505.204 1111.65 506.914 1111.14 508.304 1110.24C509.694 1109.33 510.805 1108.11 511.636 1106.58C512.466 1105.05 513.066 1103.3 513.433 1101.33C513.817 1099.34 514.008 1097.21 514.008 1094.94C514.008 1092.67 513.801 1090.56 513.385 1088.63C512.97 1086.69 512.323 1084.99 511.444 1083.55C510.581 1082.11 509.463 1081.01 508.088 1080.25C506.73 1079.49 505.093 1079.16 503.175 1079.26L499.077 1079.47V1111.97ZM525.518 1112.33V1110.58L529.857 1110.35V1077.86L525.518 1078.09V1076.33L552.338 1074.93V1084.77L550.588 1084.86C550.476 1083.15 550.141 1081.72 549.581 1080.55C549.022 1079.36 548.167 1078.48 547.017 1077.92C545.883 1077.34 544.381 1077.1 542.511 1077.2L535.776 1077.55V1110.04L542.008 1109.72C544.197 1109.6 545.93 1109.18 547.209 1108.46C548.487 1107.72 549.422 1106.67 550.013 1105.31C550.604 1103.94 550.956 1102.23 551.067 1100.2L552.817 1100.1V1110.9L525.518 1112.33ZM542.775 1098.4C542.663 1097.33 542.391 1096.47 541.96 1095.8C541.529 1095.12 540.969 1094.63 540.282 1094.33C539.595 1094.03 538.796 1093.9 537.886 1093.95L535.393 1094.08V1092.33L537.886 1092.2C538.796 1092.15 539.595 1091.96 540.282 1091.62C540.969 1091.28 541.529 1090.77 541.96 1090.09C542.391 1089.39 542.663 1088.51 542.775 1087.43L544.548 1087.34V1098.3L542.775 1098.4ZM586.934 1109.6C583.531 1109.77 580.575 1109.13 578.066 1107.66C575.558 1106.19 573.616 1104.1 572.242 1101.39C570.868 1098.68 570.181 1095.55 570.181 1091.99C570.181 1088.43 570.868 1085.22 572.242 1082.38C573.616 1079.53 575.558 1077.23 578.066 1075.5C580.575 1073.77 583.531 1072.81 586.934 1072.64C588.452 1072.56 589.898 1072.74 591.272 1073.2C592.646 1073.64 593.877 1074.29 594.963 1075.14L597.624 1072.56L599.157 1072.47V1082.67L597.384 1082.77C596.984 1080.93 596.305 1079.4 595.347 1078.17C594.404 1076.92 593.254 1076 591.895 1075.4C590.537 1074.8 589.043 1074.54 587.414 1074.63C585.464 1074.73 583.826 1075.26 582.5 1076.23C581.174 1077.18 580.112 1078.44 579.313 1080.02C578.514 1081.6 577.939 1083.39 577.587 1085.39C577.236 1087.38 577.06 1089.46 577.06 1091.63C577.06 1093.81 577.236 1095.88 577.587 1097.85C577.939 1099.8 578.514 1101.52 579.313 1103.01C580.112 1104.51 581.174 1105.67 582.5 1106.49C583.826 1107.3 585.464 1107.66 587.414 1107.55C588.9 1107.48 590.226 1107.19 591.392 1106.7C592.558 1106.2 593.573 1105.55 594.436 1104.74C595.299 1103.93 596.01 1102.98 596.569 1101.89C597.144 1100.79 597.584 1099.61 597.887 1098.34L599.637 1098.25V1108.45L598.103 1108.53L595.634 1106.12C594.532 1107.12 593.23 1107.93 591.728 1108.55C590.242 1109.16 588.644 1109.51 586.934 1109.6ZM613.94 1096.92V1095.17L629.758 1094.34V1096.1L613.94 1096.92ZM624.437 1070.45L636.541 1104.76L640.567 1104.55V1106.3L625.324 1107.1V1105.35L629.686 1105.12L620.842 1078.23L611.327 1106.09L615.713 1105.86V1107.61L605.144 1108.16V1106.41L609.338 1106.19L621.705 1070.6L624.437 1070.45ZM652.649 1087.77V1086.78L659.719 1086.41C661.253 1086.33 662.547 1086 663.602 1085.42C664.656 1084.82 665.455 1083.94 665.998 1082.77C666.542 1081.59 666.813 1080.09 666.813 1078.27C666.813 1076.44 666.542 1074.99 665.998 1073.92C665.455 1072.82 664.656 1072.06 663.602 1071.62C662.547 1071.16 661.253 1070.97 659.719 1071.05L643.997 1071.88V1070.13L660.294 1069.27C662.819 1069.14 665.032 1069.37 666.933 1069.96C668.834 1070.54 670.312 1071.51 671.367 1072.84C672.437 1074.16 672.973 1075.86 672.973 1077.94C672.973 1080.02 672.469 1081.74 671.463 1083.09C670.472 1084.42 669.034 1085.43 667.149 1086.12C665.263 1086.81 662.978 1087.23 660.294 1087.37L652.649 1087.77ZM643.997 1106.13V1104.37L660.031 1103.53V1105.28L643.997 1106.13ZM649.078 1104.9V1070.94L654.973 1070.63V1104.59L649.078 1104.9ZM672.038 1104.94C670.536 1105.02 669.354 1104.84 668.491 1104.41C667.644 1103.96 667.021 1103.33 666.621 1102.52C666.238 1101.7 665.99 1100.79 665.878 1099.77C665.783 1098.74 665.727 1097.67 665.711 1096.56C665.695 1095.46 665.631 1094.4 665.519 1093.38C665.423 1092.35 665.191 1091.42 664.824 1090.61C664.456 1089.8 663.857 1089.17 663.026 1088.74C662.212 1088.28 661.069 1088.09 659.599 1088.17L652.649 1088.54V1087.62L661.924 1087.14C664.113 1087.02 665.863 1087.23 667.173 1087.75C668.483 1088.27 669.466 1089.01 670.121 1089.95C670.776 1090.87 671.223 1091.91 671.463 1093.07C671.702 1094.23 671.838 1095.39 671.87 1096.55C671.918 1097.7 671.966 1098.76 672.014 1099.74C672.078 1100.71 672.254 1101.48 672.541 1102.06C672.829 1102.62 673.372 1102.88 674.171 1102.84C674.682 1102.81 675.106 1102.74 675.441 1102.63C675.777 1102.52 676.104 1102.38 676.424 1102.22L677.023 1103.84C676.64 1104.07 675.985 1104.3 675.058 1104.52C674.131 1104.75 673.125 1104.89 672.038 1104.94ZM680.228 1104.23V1102.47L684.566 1102.25V1069.75L680.228 1069.98V1068.23L707.047 1066.82V1076.66L705.298 1076.75C705.186 1075.05 704.85 1073.61 704.291 1072.44C703.732 1071.25 702.877 1070.38 701.727 1069.81C700.592 1069.23 699.09 1068.99 697.221 1069.09L690.486 1069.44V1101.94L696.717 1101.61C698.906 1101.5 700.64 1101.08 701.918 1100.35C703.197 1099.61 704.131 1098.57 704.722 1097.21C705.314 1095.83 705.665 1094.13 705.777 1092.09L707.527 1092V1102.8L680.228 1104.23ZM697.484 1090.29C697.373 1089.22 697.101 1088.36 696.669 1087.69C696.238 1087.01 695.679 1086.52 694.992 1086.22C694.305 1085.92 693.506 1085.79 692.595 1085.84L690.102 1085.97V1084.22L692.595 1084.09C693.506 1084.04 694.305 1083.85 694.992 1083.51C695.679 1083.17 696.238 1082.66 696.669 1081.98C697.101 1081.29 697.373 1080.4 697.484 1079.32L699.258 1079.23V1090.2L697.484 1090.29ZM729.205 1089.25C729.077 1088.19 728.813 1087.33 728.414 1086.68C728.03 1086.01 727.439 1085.54 726.64 1085.26C725.841 1084.96 724.779 1084.85 723.453 1084.92L720.337 1085.08V1083.36L723.453 1083.19C724.779 1083.12 725.841 1082.92 726.64 1082.59C727.439 1082.26 728.03 1081.78 728.414 1081.13C728.813 1080.47 729.077 1079.6 729.205 1078.52L730.954 1078.43V1089.16L729.205 1089.25ZM737.905 1065.2V1075.04L736.155 1075.14C736.043 1073.43 735.724 1071.99 735.197 1070.82C734.685 1069.63 733.878 1068.75 732.776 1068.18C731.673 1067.6 730.211 1067.36 728.39 1067.45L721.943 1067.79V1100.29L726.736 1100.04V1101.79L711.685 1102.58V1100.83L716.023 1100.6V1068.1L711.685 1068.33V1066.58L737.905 1065.2ZM774.564 1063.28V1065.03L770.274 1065.26V1088.47C770.274 1092.42 769.292 1095.41 767.326 1097.45C765.361 1099.49 762.461 1100.61 758.626 1100.81C754.312 1101.04 751.157 1100.29 749.159 1098.55C747.178 1096.81 746.187 1093.87 746.187 1089.73V1066.52L741.849 1066.75V1065L756.901 1064.21V1065.96L752.107 1066.21V1088.94C752.107 1090.52 752.211 1091.94 752.419 1093.19C752.643 1094.43 753.034 1095.47 753.593 1096.33C754.168 1097.16 754.975 1097.78 756.014 1098.19C757.052 1098.58 758.387 1098.74 760.016 1098.65C761.742 1098.56 763.236 1098.2 764.498 1097.55C765.777 1096.89 766.767 1095.84 767.47 1094.4C768.173 1092.94 768.525 1090.99 768.525 1088.56V1065.35L764.307 1065.57V1063.82L774.564 1063.28ZM778.25 1099.09V1097.34L782.588 1097.11V1064.61L778.25 1064.84V1063.09L792.822 1062.33V1064.08L788.508 1064.3V1096.8L794.571 1096.48C796.393 1096.39 797.879 1096.12 799.029 1095.7C800.18 1095.27 801.066 1094.66 801.69 1093.88C802.329 1093.09 802.784 1092.12 803.056 1090.97C803.343 1089.82 803.527 1088.48 803.607 1086.96L805.381 1086.87V1097.67L778.25 1099.09ZM809.051 1097.47V1095.72L813.389 1095.5V1063L809.051 1063.23V1061.47L823.623 1060.71V1062.46L819.309 1062.69V1095.19L825.373 1094.87C827.194 1094.77 828.68 1094.51 829.831 1094.08C830.981 1093.65 831.868 1093.05 832.491 1092.26C833.13 1091.48 833.586 1090.51 833.857 1089.36C834.145 1088.21 834.329 1086.87 834.408 1085.35L836.182 1085.25V1096.05L809.051 1097.47ZM849.392 1095.36V1093.61L853.682 1093.38V1077.83L843.352 1061.43L839.421 1061.64V1059.88L854.688 1059.08V1060.84L850.183 1061.07L858.739 1074.81L867.774 1060.15L863.317 1060.38V1058.63L872.927 1058.13V1059.88L869.812 1060.04L859.602 1076.63V1093.07L864.395 1092.82V1094.57L849.392 1095.36Z" fill="black"/>
<path d="M303.058 366.38V314.136L321.03 313.194C325.087 312.981 328.183 313.069 330.318 313.456C333.308 313.988 335.858 315.102 337.97 316.796C340.722 318.981 342.774 321.855 344.127 325.419C345.503 328.958 346.191 333.056 346.191 337.712C346.191 341.68 345.728 345.22 344.803 348.334C343.877 351.447 342.691 354.051 341.244 356.147C339.797 358.218 338.207 359.881 336.475 361.136C334.767 362.366 332.691 363.342 330.247 364.064C327.827 364.785 325.039 365.228 321.884 365.393L303.058 366.38ZM309.962 359.853L321.101 359.269C324.541 359.089 327.234 358.627 329.179 357.884C331.149 357.139 332.715 356.154 333.877 354.929C335.514 353.204 336.783 350.94 337.685 348.137C338.61 345.308 339.073 341.922 339.073 337.978C339.073 332.514 338.171 328.368 336.368 325.54C334.589 322.688 332.418 320.829 329.856 319.966C328.005 319.35 325.027 319.15 320.923 319.365L309.962 319.939V359.853ZM356.903 363.558V311.314L363.807 310.952V363.196L356.903 363.558ZM389.288 361.861V315.782L372.099 316.683V310.518L413.453 308.35V314.516L396.192 315.42V361.499L389.288 361.861ZM421.745 360.16V307.916L428.649 307.554V359.798L421.745 360.16ZM440.998 359.151V306.907L478.722 304.93V311.095L447.902 312.71V328.711L476.765 327.199V333.328L447.902 334.841V352.624L479.932 350.945V357.11L440.998 359.151ZM546.98 335.279L553.885 336.663C552.437 342.417 549.828 346.89 546.055 350.081C542.307 353.248 537.716 354.973 532.282 355.258C526.659 355.553 522.08 354.652 518.545 352.557C515.034 350.436 512.353 347.25 510.502 343C508.675 338.748 507.762 334.127 507.762 329.138C507.762 323.697 508.794 318.903 510.858 314.756C512.946 310.584 515.9 307.353 519.72 305.062C523.563 302.746 527.786 301.467 532.389 301.226C537.609 300.953 541.998 302.053 545.557 304.527C549.116 307.002 551.595 310.614 552.995 315.363L546.198 317.323C544.987 313.585 543.232 310.91 540.93 309.296C538.629 307.682 535.735 306.967 532.247 307.149C528.237 307.36 524.88 308.498 522.175 310.564C519.494 312.629 517.608 315.317 516.517 318.629C515.425 321.918 514.88 325.284 514.88 328.729C514.88 333.172 515.52 337.023 516.801 340.282C518.106 343.516 520.123 345.881 522.852 347.377C525.58 348.874 528.534 349.538 531.713 349.372C535.58 349.169 538.854 347.881 541.535 345.507C544.216 343.133 546.031 339.724 546.98 335.279ZM562.639 352.776V300.532L569.543 300.17V321.624L596.662 320.202V298.749L603.566 298.387V350.631L596.662 350.993V326.368L569.543 327.789V352.414L562.639 352.776ZM649.333 295.988L656.237 295.627V325.811C656.237 331.062 655.644 335.262 654.457 338.413C653.271 341.564 651.124 344.195 648.016 346.306C644.932 348.392 640.875 349.567 635.845 349.83C630.957 350.086 626.959 349.453 623.851 347.929C620.743 346.405 618.525 344.086 617.196 340.972C615.868 337.834 615.203 333.497 615.203 327.962V297.777L622.108 297.415V327.564C622.108 332.102 622.523 335.43 623.353 337.549C624.207 339.642 625.655 341.218 627.695 342.275C629.759 343.331 632.274 343.781 635.24 343.626C640.317 343.359 643.935 342.018 646.094 339.6C648.253 337.182 649.333 332.695 649.333 326.137V295.988ZM667.483 347.281V295.037L674.387 294.675V320.584L700.295 293.318L709.655 292.827L687.768 315.143L710.616 345.021L701.505 345.498L682.928 320.029L674.387 328.816V346.92L667.483 347.281ZM714.282 319.384C714.282 310.712 716.607 303.807 721.257 298.669C725.907 293.508 731.91 290.734 739.265 290.349C744.081 290.096 748.423 291.021 752.29 293.123C756.157 295.225 759.099 298.29 761.116 302.318C763.156 306.321 764.176 310.936 764.176 316.163C764.176 321.461 763.109 326.257 760.974 330.55C758.838 334.843 755.813 338.174 751.898 340.541C747.984 342.884 743.761 344.175 739.229 344.412C734.318 344.67 729.929 343.712 726.061 341.539C722.194 339.365 719.264 336.276 717.271 332.27C715.278 328.265 714.282 323.969 714.282 319.384ZM721.399 319.118C721.399 325.414 723.084 330.291 726.453 333.749C729.846 337.183 734.092 338.766 739.193 338.498C744.389 338.226 748.66 336.173 752.005 332.339C755.374 328.503 757.059 323.224 757.059 316.5C757.059 312.248 756.335 308.579 754.888 305.495C753.464 302.386 751.365 300.037 748.589 298.449C745.837 296.835 742.74 296.118 739.3 296.298C734.413 296.554 730.201 298.462 726.666 302.021C723.155 305.555 721.399 311.254 721.399 319.118ZM807.345 287.707L814.249 287.345V317.53C814.249 322.781 813.656 326.981 812.47 330.132C811.284 333.283 809.136 335.914 806.028 338.025C802.944 340.111 798.887 341.286 793.857 341.549C788.97 341.805 784.972 341.172 781.864 339.648C778.756 338.124 776.538 335.805 775.209 332.691C773.88 329.553 773.216 325.216 773.216 319.681V289.496L780.12 289.134V319.283C780.12 323.821 780.535 327.149 781.366 329.268C782.22 331.361 783.667 332.936 785.707 333.994C787.772 335.05 790.287 335.5 793.252 335.344C798.329 335.078 801.948 333.736 804.107 331.319C806.266 328.901 807.345 324.414 807.345 317.856V287.707Z" fill="#EBEBEB"/>
<path d="M461.748 912.992L640.255 586.105L818.761 880.187L461.748 912.992Z" fill="#FFD600" stroke="black" stroke-width="13.6227"/>
<path d="M631.793 818.544L624.242 741.957V706.225L655.687 703.336V739.067L648.239 817.032L631.793 818.544ZM625.484 858.387V829.199L654.549 826.528V855.716L625.484 858.387Z" fill="black"/>
<path d="M972.061 1894.52C974.786 1894.52 977.213 1895.14 979.344 1896.38C981.475 1897.59 983.12 1899.29 984.28 1901.48C985.466 1903.63 986.06 1906.1 986.06 1908.88C986.06 1911.66 985.466 1914.14 984.28 1916.32C983.12 1918.48 981.475 1920.18 979.344 1921.42C977.213 1922.64 974.786 1923.24 972.061 1923.24C969.31 1923.24 966.869 1922.64 964.739 1921.42C962.608 1920.18 960.949 1918.48 959.763 1916.32C958.576 1914.14 957.982 1911.66 957.982 1908.88C957.982 1906.1 958.576 1903.63 959.763 1901.48C960.949 1899.29 962.608 1897.59 964.739 1896.38C966.869 1895.14 969.31 1894.52 972.061 1894.52ZM972.061 1896.14C969.553 1896.14 967.368 1896.68 965.507 1897.75C963.646 1898.81 962.217 1900.29 961.219 1902.21C960.221 1904.12 959.722 1906.35 959.722 1908.88C959.722 1911.39 960.221 1913.61 961.219 1915.56C962.217 1917.47 963.646 1918.97 965.507 1920.05C967.368 1921.13 969.553 1921.66 972.061 1921.66C974.543 1921.66 976.701 1921.13 978.535 1920.05C980.396 1918.97 981.825 1917.47 982.823 1915.56C983.821 1913.61 984.32 1911.39 984.32 1908.88C984.32 1906.35 983.821 1904.12 982.823 1902.21C981.825 1900.29 980.396 1898.81 978.535 1897.75C976.701 1896.68 974.543 1896.14 972.061 1896.14ZM971.981 1899.49C970.362 1899.49 968.879 1899.87 967.53 1900.63C966.209 1901.38 965.157 1902.47 964.375 1903.9C963.592 1905.31 963.201 1906.95 963.201 1908.84C963.201 1910.73 963.592 1912.39 964.375 1913.82C965.157 1915.22 966.209 1916.31 967.53 1917.09C968.879 1917.85 970.362 1918.23 971.981 1918.23C974.003 1918.23 975.757 1917.69 977.24 1916.61C978.723 1915.5 979.735 1914.03 980.274 1912.2H976.876C976.067 1914.44 974.435 1915.56 971.981 1915.56C970.362 1915.56 969.041 1914.98 968.016 1913.82C966.991 1912.66 966.478 1911.01 966.478 1908.88C966.478 1906.72 966.991 1905.06 968.016 1903.9C969.041 1902.74 970.362 1902.16 971.981 1902.16C973.167 1902.16 974.192 1902.46 975.055 1903.05C975.918 1903.62 976.525 1904.44 976.876 1905.52H980.274C979.762 1903.61 978.764 1902.12 977.28 1901.07C975.797 1900.02 974.03 1899.49 971.981 1899.49ZM1012.88 1894.8V1923H1009.2V1910.22H994.839V1923H991.157V1894.8H994.839V1907.18H1009.2V1894.8H1012.88ZM1035.84 1916.73H1023.54L1021.27 1923H1017.39L1027.58 1894.96H1031.83L1041.99 1923H1038.1L1035.84 1916.73ZM1034.79 1913.74L1029.69 1899.49L1024.59 1913.74H1034.79ZM1045.05 1908.88C1045.05 1906.13 1045.67 1903.66 1046.92 1901.48C1048.16 1899.27 1049.84 1897.54 1051.97 1896.3C1054.13 1895.06 1056.52 1894.44 1059.13 1894.44C1062.21 1894.44 1064.89 1895.18 1067.18 1896.66C1069.48 1898.15 1071.15 1900.25 1072.2 1902.97H1067.79C1067.01 1901.27 1065.88 1899.97 1064.39 1899.05C1062.94 1898.13 1061.18 1897.67 1059.13 1897.67C1057.16 1897.67 1055.4 1898.13 1053.83 1899.05C1052.27 1899.97 1051.04 1901.27 1050.15 1902.97C1049.26 1904.65 1048.82 1906.61 1048.82 1908.88C1048.82 1911.12 1049.26 1913.09 1050.15 1914.79C1051.04 1916.46 1052.27 1917.75 1053.83 1918.67C1055.4 1919.59 1057.16 1920.05 1059.13 1920.05C1061.18 1920.05 1062.94 1919.6 1064.39 1918.71C1065.88 1917.79 1067.01 1916.49 1067.79 1914.79H1072.2C1071.15 1917.48 1069.48 1919.57 1067.18 1921.06C1064.89 1922.51 1062.21 1923.24 1059.13 1923.24C1056.52 1923.24 1054.13 1922.64 1051.97 1921.42C1049.84 1920.18 1048.16 1918.47 1046.92 1916.28C1045.67 1914.1 1045.05 1911.63 1045.05 1908.88ZM1099.41 1894.8V1923H1095.73V1910.22H1081.36V1923H1077.68V1894.8H1081.36V1907.18H1095.73V1894.8H1099.41ZM1109.37 1894.8V1923H1105.69V1894.8H1109.37ZM1125.38 1920.05C1128.81 1917.3 1131.49 1915.04 1133.43 1913.29C1135.38 1911.51 1137.01 1909.66 1138.33 1907.75C1139.68 1905.81 1140.35 1903.9 1140.35 1902.04C1140.35 1900.29 1139.92 1898.91 1139.06 1897.92C1138.22 1896.89 1136.86 1896.38 1134.97 1896.38C1133.14 1896.38 1131.71 1896.96 1130.68 1898.12C1129.69 1899.25 1129.15 1900.78 1129.07 1902.69H1125.5C1125.61 1899.67 1126.53 1897.34 1128.26 1895.69C1129.98 1894.05 1132.21 1893.22 1134.93 1893.22C1137.71 1893.22 1139.91 1893.99 1141.53 1895.53C1143.17 1897.07 1143.99 1899.18 1143.99 1901.88C1143.99 1904.12 1143.32 1906.3 1141.97 1908.44C1140.65 1910.54 1139.14 1912.4 1137.44 1914.02C1135.74 1915.61 1133.57 1917.47 1130.93 1919.6H1144.84V1922.68H1125.38V1920.05ZM1149.1 1908.07C1149.1 1903.43 1149.85 1899.82 1151.37 1897.23C1152.88 1894.61 1155.52 1893.3 1159.29 1893.3C1163.04 1893.3 1165.67 1894.61 1167.18 1897.23C1168.69 1899.82 1169.45 1903.43 1169.45 1908.07C1169.45 1912.79 1168.69 1916.46 1167.18 1919.08C1165.67 1921.69 1163.04 1923 1159.29 1923C1155.52 1923 1152.88 1921.69 1151.37 1919.08C1149.85 1916.46 1149.1 1912.79 1149.1 1908.07ZM1165.81 1908.07C1165.81 1905.72 1165.65 1903.74 1165.32 1902.12C1165.03 1900.48 1164.39 1899.16 1163.42 1898.16C1162.48 1897.16 1161.1 1896.66 1159.29 1896.66C1157.46 1896.66 1156.06 1897.16 1155.09 1898.16C1154.14 1899.16 1153.51 1900.48 1153.19 1902.12C1152.89 1903.74 1152.74 1905.72 1152.74 1908.07C1152.74 1910.5 1152.89 1912.54 1153.19 1914.18C1153.51 1915.83 1154.14 1917.15 1155.09 1918.15C1156.06 1919.14 1157.46 1919.64 1159.29 1919.64C1161.1 1919.64 1162.48 1919.14 1163.42 1918.15C1164.39 1917.15 1165.03 1915.83 1165.32 1914.18C1165.65 1912.54 1165.81 1910.5 1165.81 1908.07ZM1174.06 1920.05C1177.48 1917.3 1180.17 1915.04 1182.11 1913.29C1184.05 1911.51 1185.68 1909.66 1187 1907.75C1188.35 1905.81 1189.03 1903.9 1189.03 1902.04C1189.03 1900.29 1188.6 1898.91 1187.73 1897.92C1186.9 1896.89 1185.53 1896.38 1183.65 1896.38C1181.81 1896.38 1180.38 1896.96 1179.36 1898.12C1178.36 1899.25 1177.82 1900.78 1177.74 1902.69H1174.18C1174.29 1899.67 1175.2 1897.34 1176.93 1895.69C1178.66 1894.05 1180.88 1893.22 1183.61 1893.22C1186.38 1893.22 1188.58 1893.99 1190.2 1895.53C1191.85 1897.07 1192.67 1899.18 1192.67 1901.88C1192.67 1904.12 1191.99 1906.3 1190.65 1908.44C1189.32 1910.54 1187.81 1912.4 1186.11 1914.02C1184.42 1915.61 1182.24 1917.47 1179.6 1919.6H1193.52V1922.68H1174.06V1920.05ZM1197.69 1901.11C1197.88 1898.63 1198.84 1896.69 1200.57 1895.29C1202.29 1893.88 1204.53 1893.18 1207.28 1893.18C1209.12 1893.18 1210.69 1893.52 1212.02 1894.19C1213.36 1894.84 1214.38 1895.73 1215.05 1896.86C1215.75 1898 1216.1 1899.28 1216.1 1900.71C1216.1 1902.38 1215.62 1903.82 1214.65 1905.04C1213.7 1906.25 1212.46 1907.03 1210.92 1907.38V1907.59C1212.68 1908.02 1214.07 1908.87 1215.09 1910.13C1216.11 1911.4 1216.63 1913.06 1216.63 1915.11C1216.63 1916.65 1216.28 1918.04 1215.58 1919.28C1214.87 1920.49 1213.82 1921.45 1212.42 1922.15C1211.02 1922.85 1209.33 1923.2 1207.36 1923.2C1204.5 1923.2 1202.16 1922.46 1200.32 1920.98C1198.49 1919.47 1197.46 1917.34 1197.25 1914.58H1200.81C1201 1916.2 1201.66 1917.52 1202.79 1918.55C1203.92 1919.57 1205.43 1920.09 1207.32 1920.09C1209.21 1920.09 1210.64 1919.6 1211.61 1918.63C1212.61 1917.63 1213.11 1916.35 1213.11 1914.79C1213.11 1912.76 1212.43 1911.31 1211.08 1910.42C1209.74 1909.53 1207.7 1909.08 1204.98 1909.08H1204.05V1906.01H1205.02C1207.5 1905.98 1209.37 1905.58 1210.64 1904.79C1211.91 1903.99 1212.54 1902.74 1212.54 1901.07C1212.54 1899.64 1212.07 1898.5 1211.13 1897.63C1210.21 1896.77 1208.89 1896.34 1207.16 1896.34C1205.49 1896.34 1204.14 1896.77 1203.11 1897.63C1202.09 1898.5 1201.48 1899.66 1201.29 1901.11H1197.69Z" fill="white"/>
<path d="M1055.61 89.3934C1049.75 83.5355 1040.25 83.5355 1034.39 89.3934L938.934 184.853C933.076 190.711 933.076 200.208 938.934 206.066C944.792 211.924 954.289 211.924 960.147 206.066L1045 121.213L1129.85 206.066C1135.71 211.924 1145.21 211.924 1151.07 206.066C1156.92 200.208 1156.92 190.711 1151.07 184.853L1055.61 89.3934ZM1030 328C1030 336.284 1036.72 343 1045 343C1053.28 343 1060 336.284 1060 328L1030 328ZM1030 100L1030 328L1060 328L1060 100L1030 100Z" fill="#EBEBEB"/>
<defs>
<linearGradient id="paint0_linear_6_40" x1="706" y1="1744.62" x2="777.393" y2="1926.86" gradientUnits="userSpaceOnUse">
<stop offset="0.294792" stop-color="#B0B0B0"/>
<stop offset="1" stop-color="#989898"/>
</linearGradient>
</defs>
</svg>
