<svg xmlns="http://www.w3.org/2000/svg" version="1.1" xmlns:xlink="http://www.w3.org/1999/xlink" xmlns:svgjs="http://svgjs.dev/svgjs" viewBox="0 0 800 800"><defs><linearGradient gradientTransform="rotate(270)" x1="50%" y1="0%" x2="50%" y2="100%" id="sssquiggly-grad"><stop stop-color="hsl(206, 75%, 49%)" stop-opacity="1" offset="0%"></stop><stop stop-color="hsl(331, 90%, 56%)" stop-opacity="1" offset="100%"></stop></linearGradient></defs><g stroke-width="2" stroke="#eee" fill="none" stroke-linecap="round" transform="matrix(1,0,0,1,-5,-161.00030517578125)"><path d="M10,10C49.583333333333336,12.291666666666666,118.75,27.041666666666664,200,21C281.25,14.958333333333334,316.66666666666663,-22.958333333333332,400,-19C483.33333333333337,-15.041666666666668,516.6666666666666,40.208333333333336,600,40C683.3333333333334,39.791666666666664,758.3333333333334,-7.5,800,-20"></path><path d="M10,10C49.583333333333336,12.291666666666666,118.75,27.041666666666664,200,21C281.25,14.958333333333334,316.66666666666663,-22.958333333333332,400,-19C483.33333333333337,-15.041666666666668,516.6666666666666,40.208333333333336,600,40C683.3333333333334,39.791666666666664,758.3333333333334,-7.5,800,-20" transform="matrix(1,0,0,1,0,1102)"></path><path d="M10,10C49.583333333333336,12.291666666666666,118.75,27.041666666666664,200,21C281.25,14.958333333333334,316.66666666666663,-22.958333333333332,400,-19C483.33333333333337,-15.041666666666668,516.6666666666666,40.208333333333336,600,40C683.3333333333334,39.791666666666664,758.3333333333334,-7.5,800,-20" transform="matrix(1,0,0,1,0,1044)"></path><path d="M10,10C49.583333333333336,12.291666666666666,118.75,27.041666666666664,200,21C281.25,14.958333333333334,316.66666666666663,-22.958333333333332,400,-19C483.33333333333337,-15.041666666666668,516.6666666666666,40.208333333333336,600,40C683.3333333333334,39.791666666666664,758.3333333333334,-7.5,800,-20" transform="matrix(1,0,0,1,0,986)"></path><path d="M10,10C49.583333333333336,12.291666666666666,118.75,27.041666666666664,200,21C281.25,14.958333333333334,316.66666666666663,-22.958333333333332,400,-19C483.33333333333337,-15.041666666666668,516.6666666666666,40.208333333333336,600,40C683.3333333333334,39.791666666666664,758.3333333333334,-7.5,800,-20" transform="matrix(1,0,0,1,0,928)"></path><path d="M10,10C49.583333333333336,12.291666666666666,118.75,27.041666666666664,200,21C281.25,14.958333333333334,316.66666666666663,-22.958333333333332,400,-19C483.33333333333337,-15.041666666666668,516.6666666666666,40.208333333333336,600,40C683.3333333333334,39.791666666666664,758.3333333333334,-7.5,800,-20" transform="matrix(1,0,0,1,0,870)"></path><path d="M10,10C49.583333333333336,12.291666666666666,118.75,27.041666666666664,200,21C281.25,14.958333333333334,316.66666666666663,-22.958333333333332,400,-19C483.33333333333337,-15.041666666666668,516.6666666666666,40.208333333333336,600,40C683.3333333333334,39.791666666666664,758.3333333333334,-7.5,800,-20" transform="matrix(1,0,0,1,0,812)"></path><path d="M10,10C49.583333333333336,12.291666666666666,118.75,27.041666666666664,200,21C281.25,14.958333333333334,316.66666666666663,-22.958333333333332,400,-19C483.33333333333337,-15.041666666666668,516.6666666666666,40.208333333333336,600,40C683.3333333333334,39.791666666666664,758.3333333333334,-7.5,800,-20" transform="matrix(1,0,0,1,0,754)"></path><path d="M10,10C49.583333333333336,12.291666666666666,118.75,27.041666666666664,200,21C281.25,14.958333333333334,316.66666666666663,-22.958333333333332,400,-19C483.33333333333337,-15.041666666666668,516.6666666666666,40.208333333333336,600,40C683.3333333333334,39.791666666666664,758.3333333333334,-7.5,800,-20" transform="matrix(1,0,0,1,0,696)"></path><path d="M10,10C49.583333333333336,12.291666666666666,118.75,27.041666666666664,200,21C281.25,14.958333333333334,316.66666666666663,-22.958333333333332,400,-19C483.33333333333337,-15.041666666666668,516.6666666666666,40.208333333333336,600,40C683.3333333333334,39.791666666666664,758.3333333333334,-7.5,800,-20" transform="matrix(1,0,0,1,0,638)"></path><path d="M10,10C49.583333333333336,12.291666666666666,118.75,27.041666666666664,200,21C281.25,14.958333333333334,316.66666666666663,-22.958333333333332,400,-19C483.33333333333337,-15.041666666666668,516.6666666666666,40.208333333333336,600,40C683.3333333333334,39.791666666666664,758.3333333333334,-7.5,800,-20" transform="matrix(1,0,0,1,0,580)"></path><path d="M10,10C49.583333333333336,12.291666666666666,118.75,27.041666666666664,200,21C281.25,14.958333333333334,316.66666666666663,-22.958333333333332,400,-19C483.33333333333337,-15.041666666666668,516.6666666666666,40.208333333333336,600,40C683.3333333333334,39.791666666666664,758.3333333333334,-7.5,800,-20" transform="matrix(1,0,0,1,0,522)"></path><path d="M10,10C49.583333333333336,12.291666666666666,118.75,27.041666666666664,200,21C281.25,14.958333333333334,316.66666666666663,-22.958333333333332,400,-19C483.33333333333337,-15.041666666666668,516.6666666666666,40.208333333333336,600,40C683.3333333333334,39.791666666666664,758.3333333333334,-7.5,800,-20" transform="matrix(1,0,0,1,0,464)"></path><path d="M10,10C49.583333333333336,12.291666666666666,118.75,27.041666666666664,200,21C281.25,14.958333333333334,316.66666666666663,-22.958333333333332,400,-19C483.33333333333337,-15.041666666666668,516.6666666666666,40.208333333333336,600,40C683.3333333333334,39.791666666666664,758.3333333333334,-7.5,800,-20" transform="matrix(1,0,0,1,0,406)"></path><path d="M10,10C49.583333333333336,12.291666666666666,118.75,27.041666666666664,200,21C281.25,14.958333333333334,316.66666666666663,-22.958333333333332,400,-19C483.33333333333337,-15.041666666666668,516.6666666666666,40.208333333333336,600,40C683.3333333333334,39.791666666666664,758.3333333333334,-7.5,800,-20" transform="matrix(1,0,0,1,0,348)"></path><path d="M10,10C49.583333333333336,12.291666666666666,118.75,27.041666666666664,200,21C281.25,14.958333333333334,316.66666666666663,-22.958333333333332,400,-19C483.33333333333337,-15.041666666666668,516.6666666666666,40.208333333333336,600,40C683.3333333333334,39.791666666666664,758.3333333333334,-7.5,800,-20" transform="matrix(1,0,0,1,0,290)"></path><path d="M10,10C49.583333333333336,12.291666666666666,118.75,27.041666666666664,200,21C281.25,14.958333333333334,316.66666666666663,-22.958333333333332,400,-19C483.33333333333337,-15.041666666666668,516.6666666666666,40.208333333333336,600,40C683.3333333333334,39.791666666666664,758.3333333333334,-7.5,800,-20" transform="matrix(1,0,0,1,0,232)"></path><path d="M10,10C49.583333333333336,12.291666666666666,118.75,27.041666666666664,200,21C281.25,14.958333333333334,316.66666666666663,-22.958333333333332,400,-19C483.33333333333337,-15.041666666666668,516.6666666666666,40.208333333333336,600,40C683.3333333333334,39.791666666666664,758.3333333333334,-7.5,800,-20" transform="matrix(1,0,0,1,0,174)"></path><path d="M10,10C49.583333333333336,12.291666666666666,118.75,27.041666666666664,200,21C281.25,14.958333333333334,316.66666666666663,-22.958333333333332,400,-19C483.33333333333337,-15.041666666666668,516.6666666666666,40.208333333333336,600,40C683.3333333333334,39.791666666666664,758.3333333333334,-7.5,800,-20" transform="matrix(1,0,0,1,0,116)"></path><path d="M10,10C49.583333333333336,12.291666666666666,118.75,27.041666666666664,200,21C281.25,14.958333333333334,316.66666666666663,-22.958333333333332,400,-19C483.33333333333337,-15.041666666666668,516.6666666666666,40.208333333333336,600,40C683.3333333333334,39.791666666666664,758.3333333333334,-7.5,800,-20" transform="matrix(1,0,0,1,0,58)"></path></g></svg>