<svg xmlns="http://www.w3.org/2000/svg" version="1.1" xmlns:xlink="http://www.w3.org/1999/xlink" xmlns:svgjs="http://svgjs.dev/svgjs" viewBox="0 0 2400 800" opacity="1"><defs><linearGradient x1="50%" y1="0%" x2="50%" y2="100%" id="sssurf-grad"><stop stop-color="hsl(335, 77%, 60%)" stop-opacity="1" offset="0%"></stop><stop stop-color="hsla(253, 66%, 55%, 1)" stop-opacity="1" offset="100%"></stop></linearGradient></defs><g fill="url(#sssurf-grad)" transform="matrix(1,0,0,1,8.247314453125,-226.9582977294922)"><path d="M-10,10C47.63888888888889,16.875,153.47222222222223,47.583333333333336,266.6666666666667,43C379.86111111111114,38.416666666666664,422.2222222222223,-10.125,533.3333333333334,-12C644.4444444444445,-13.875,688.8888888888889,36.291666666666664,800,34C911.1111111111111,31.708333333333332,955.5555555555557,-21.958333333333332,1066.6666666666667,-23C1177.7777777777778,-24.041666666666668,1222.2222222222224,29,1333.3333333333335,29C1444.4444444444446,29,1488.888888888889,-25.5,1600,-23C1711.111111111111,-20.5,1755.5555555555557,37.875,1866.6666666666667,41C1977.7777777777778,44.125,2022.2222222222224,-8.833333333333334,2133.3333333333335,-8C2244.4444444444443,-7.166666666666667,2292.3611111111113,-40,2400,45C2507.6388888888887,130,3254.1666666666665,221.875,2650,400C2045.8333333333335,578.125,156.25,795.8333333333334,-500,900" transform="matrix(1,0,0,1,0,107)" opacity="0.05"></path><path d="M-10,10C47.63888888888889,16.875,153.47222222222223,47.583333333333336,266.6666666666667,43C379.86111111111114,38.416666666666664,422.2222222222223,-10.125,533.3333333333334,-12C644.4444444444445,-13.875,688.8888888888889,36.291666666666664,800,34C911.1111111111111,31.708333333333332,955.5555555555557,-21.958333333333332,1066.6666666666667,-23C1177.7777777777778,-24.041666666666668,1222.2222222222224,29,1333.3333333333335,29C1444.4444444444446,29,1488.888888888889,-25.5,1600,-23C1711.111111111111,-20.5,1755.5555555555557,37.875,1866.6666666666667,41C1977.7777777777778,44.125,2022.2222222222224,-8.833333333333334,2133.3333333333335,-8C2244.4444444444443,-7.166666666666667,2292.3611111111113,-40,2400,45C2507.6388888888887,130,3254.1666666666665,221.875,2650,400C2045.8333333333335,578.125,156.25,795.8333333333334,-500,900" transform="matrix(1,0,0,1,0,214)" opacity="0.16"></path><path d="M-10,10C47.63888888888889,16.875,153.47222222222223,47.583333333333336,266.6666666666667,43C379.86111111111114,38.416666666666664,422.2222222222223,-10.125,533.3333333333334,-12C644.4444444444445,-13.875,688.8888888888889,36.291666666666664,800,34C911.1111111111111,31.708333333333332,955.5555555555557,-21.958333333333332,1066.6666666666667,-23C1177.7777777777778,-24.041666666666668,1222.2222222222224,29,1333.3333333333335,29C1444.4444444444446,29,1488.888888888889,-25.5,1600,-23C1711.111111111111,-20.5,1755.5555555555557,37.875,1866.6666666666667,41C1977.7777777777778,44.125,2022.2222222222224,-8.833333333333334,2133.3333333333335,-8C2244.4444444444443,-7.166666666666667,2292.3611111111113,-40,2400,45C2507.6388888888887,130,3254.1666666666665,221.875,2650,400C2045.8333333333335,578.125,156.25,795.8333333333334,-500,900" transform="matrix(1,0,0,1,0,321)" opacity="0.26"></path><path d="M-10,10C47.63888888888889,16.875,153.47222222222223,47.583333333333336,266.6666666666667,43C379.86111111111114,38.416666666666664,422.2222222222223,-10.125,533.3333333333334,-12C644.4444444444445,-13.875,688.8888888888889,36.291666666666664,800,34C911.1111111111111,31.708333333333332,955.5555555555557,-21.958333333333332,1066.6666666666667,-23C1177.7777777777778,-24.041666666666668,1222.2222222222224,29,1333.3333333333335,29C1444.4444444444446,29,1488.888888888889,-25.5,1600,-23C1711.111111111111,-20.5,1755.5555555555557,37.875,1866.6666666666667,41C1977.7777777777778,44.125,2022.2222222222224,-8.833333333333334,2133.3333333333335,-8C2244.4444444444443,-7.166666666666667,2292.3611111111113,-40,2400,45C2507.6388888888887,130,3254.1666666666665,221.875,2650,400C2045.8333333333335,578.125,156.25,795.8333333333334,-500,900" transform="matrix(1,0,0,1,0,428)" opacity="0.37"></path><path d="M-10,10C47.63888888888889,16.875,153.47222222222223,47.583333333333336,266.6666666666667,43C379.86111111111114,38.416666666666664,422.2222222222223,-10.125,533.3333333333334,-12C644.4444444444445,-13.875,688.8888888888889,36.291666666666664,800,34C911.1111111111111,31.708333333333332,955.5555555555557,-21.958333333333332,1066.6666666666667,-23C1177.7777777777778,-24.041666666666668,1222.2222222222224,29,1333.3333333333335,29C1444.4444444444446,29,1488.888888888889,-25.5,1600,-23C1711.111111111111,-20.5,1755.5555555555557,37.875,1866.6666666666667,41C1977.7777777777778,44.125,2022.2222222222224,-8.833333333333334,2133.3333333333335,-8C2244.4444444444443,-7.166666666666667,2292.3611111111113,-40,2400,45C2507.6388888888887,130,3254.1666666666665,221.875,2650,400C2045.8333333333335,578.125,156.25,795.8333333333334,-500,900" transform="matrix(1,0,0,1,0,535)" opacity="0.47"></path><path d="M-10,10C47.63888888888889,16.875,153.47222222222223,47.583333333333336,266.6666666666667,43C379.86111111111114,38.416666666666664,422.2222222222223,-10.125,533.3333333333334,-12C644.4444444444445,-13.875,688.8888888888889,36.291666666666664,800,34C911.1111111111111,31.708333333333332,955.5555555555557,-21.958333333333332,1066.6666666666667,-23C1177.7777777777778,-24.041666666666668,1222.2222222222224,29,1333.3333333333335,29C1444.4444444444446,29,1488.888888888889,-25.5,1600,-23C1711.111111111111,-20.5,1755.5555555555557,37.875,1866.6666666666667,41C1977.7777777777778,44.125,2022.2222222222224,-8.833333333333334,2133.3333333333335,-8C2244.4444444444443,-7.166666666666667,2292.3611111111113,-40,2400,45C2507.6388888888887,130,3254.1666666666665,221.875,2650,400C2045.8333333333335,578.125,156.25,795.8333333333334,-500,900" transform="matrix(1,0,0,1,0,642)" opacity="0.58"></path><path d="M-10,10C47.63888888888889,16.875,153.47222222222223,47.583333333333336,266.6666666666667,43C379.86111111111114,38.416666666666664,422.2222222222223,-10.125,533.3333333333334,-12C644.4444444444445,-13.875,688.8888888888889,36.291666666666664,800,34C911.1111111111111,31.708333333333332,955.5555555555557,-21.958333333333332,1066.6666666666667,-23C1177.7777777777778,-24.041666666666668,1222.2222222222224,29,1333.3333333333335,29C1444.4444444444446,29,1488.888888888889,-25.5,1600,-23C1711.111111111111,-20.5,1755.5555555555557,37.875,1866.6666666666667,41C1977.7777777777778,44.125,2022.2222222222224,-8.833333333333334,2133.3333333333335,-8C2244.4444444444443,-7.166666666666667,2292.3611111111113,-40,2400,45C2507.6388888888887,130,3254.1666666666665,221.875,2650,400C2045.8333333333335,578.125,156.25,795.8333333333334,-500,900" transform="matrix(1,0,0,1,0,749)" opacity="0.68"></path><path d="M-10,10C47.63888888888889,16.875,153.47222222222223,47.583333333333336,266.6666666666667,43C379.86111111111114,38.416666666666664,422.2222222222223,-10.125,533.3333333333334,-12C644.4444444444445,-13.875,688.8888888888889,36.291666666666664,800,34C911.1111111111111,31.708333333333332,955.5555555555557,-21.958333333333332,1066.6666666666667,-23C1177.7777777777778,-24.041666666666668,1222.2222222222224,29,1333.3333333333335,29C1444.4444444444446,29,1488.888888888889,-25.5,1600,-23C1711.111111111111,-20.5,1755.5555555555557,37.875,1866.6666666666667,41C1977.7777777777778,44.125,2022.2222222222224,-8.833333333333334,2133.3333333333335,-8C2244.4444444444443,-7.166666666666667,2292.3611111111113,-40,2400,45C2507.6388888888887,130,3254.1666666666665,221.875,2650,400C2045.8333333333335,578.125,156.25,795.8333333333334,-500,900" transform="matrix(1,0,0,1,0,856)" opacity="0.79"></path><path d="M-10,10C47.63888888888889,16.875,153.47222222222223,47.583333333333336,266.6666666666667,43C379.86111111111114,38.416666666666664,422.2222222222223,-10.125,533.3333333333334,-12C644.4444444444445,-13.875,688.8888888888889,36.291666666666664,800,34C911.1111111111111,31.708333333333332,955.5555555555557,-21.958333333333332,1066.6666666666667,-23C1177.7777777777778,-24.041666666666668,1222.2222222222224,29,1333.3333333333335,29C1444.4444444444446,29,1488.888888888889,-25.5,1600,-23C1711.111111111111,-20.5,1755.5555555555557,37.875,1866.6666666666667,41C1977.7777777777778,44.125,2022.2222222222224,-8.833333333333334,2133.3333333333335,-8C2244.4444444444443,-7.166666666666667,2292.3611111111113,-40,2400,45C2507.6388888888887,130,3254.1666666666665,221.875,2650,400C2045.8333333333335,578.125,156.25,795.8333333333334,-500,900" transform="matrix(1,0,0,1,0,963)" opacity="0.89"></path><path d="M-10,10C47.63888888888889,16.875,153.47222222222223,47.583333333333336,266.6666666666667,43C379.86111111111114,38.416666666666664,422.2222222222223,-10.125,533.3333333333334,-12C644.4444444444445,-13.875,688.8888888888889,36.291666666666664,800,34C911.1111111111111,31.708333333333332,955.5555555555557,-21.958333333333332,1066.6666666666667,-23C1177.7777777777778,-24.041666666666668,1222.2222222222224,29,1333.3333333333335,29C1444.4444444444446,29,1488.888888888889,-25.5,1600,-23C1711.111111111111,-20.5,1755.5555555555557,37.875,1866.6666666666667,41C1977.7777777777778,44.125,2022.2222222222224,-8.833333333333334,2133.3333333333335,-8C2244.4444444444443,-7.166666666666667,2292.3611111111113,-40,2400,45C2507.6388888888887,130,3254.1666666666665,221.875,2650,400C2045.8333333333335,578.125,156.25,795.8333333333334,-500,900" transform="matrix(1,0,0,1,0,1070)" opacity="1.00"></path></g></svg>