<svg width="461" height="86" viewBox="0 0 461 86" fill="none" xmlns="http://www.w3.org/2000/svg">
<path d="M2.49512 0C3.89648 0 4.99023 1.12793 4.99023 2.49512V15.0049H19.9951V2.49512C19.9951 1.12793 21.123 0 22.4902 0C23.8916 0 24.9854 1.12793 24.9854 2.49512V32.5049C24.9854 33.8721 23.8916 35 22.4902 35C21.123 35 19.9951 33.8721 19.9951 32.5049V19.9951H4.99023V32.5049C4.99023 33.8721 3.89648 35 2.49512 35C1.12793 35 0 33.8721 0 32.5049V2.49512C0 1.12793 1.12793 0 2.49512 0Z" fill="black"/>
<path d="M44.502 0C43.4082 0 42.4512 0.683594 42.1094 1.70898L32.1289 31.7188C31.6846 33.0176 32.4023 34.4189 33.7012 34.8633C35 35.3076 36.4355 34.5898 36.8799 33.291L39.6143 24.9854H49.3555L52.124 33.291C52.5684 34.5898 53.9697 35.3076 55.2686 34.8633C56.6016 34.4189 57.2852 33.0176 56.875 31.7188L46.8604 1.70898C46.5186 0.683594 45.5615 0 44.502 0ZM41.2891 19.9951L44.502 10.3906L47.6807 19.9951H41.2891Z" fill="black"/>
<path d="M70.5469 4.78516C72.5293 2.05078 75.7764 0 80.5957 0C86.4063 0 89.8242 3.00781 91.5674 6.35742C92.2168 7.58789 91.7041 9.0918 90.5078 9.70703C89.2773 10.3564 87.7734 9.87793 87.124 8.64746C86.167 6.76758 84.3213 4.99023 80.5957 4.99023C77.417 4.99023 75.6396 6.25488 74.6143 7.72461C73.4863 9.2627 73.0762 11.2451 73.0762 12.5098V22.4902C73.0762 23.7549 73.4863 25.7373 74.6143 27.2754C75.6396 28.7109 77.417 30.0098 80.5957 30.0098C84.3213 30.0098 86.167 28.2324 87.124 26.3525C87.7734 25.1221 89.2773 24.6436 90.5078 25.293C91.7041 25.9082 92.2168 27.4121 91.5674 28.6426C89.8242 31.9922 86.4063 35 80.5957 35C75.7764 35 72.5293 32.9492 70.5469 30.2148C68.7012 27.6172 68.0859 24.5752 68.0859 22.4902V12.5098C68.0859 10.4248 68.7012 7.38281 70.5469 4.78516Z" fill="black"/>
<path d="M103.394 0C104.795 0 105.889 1.12793 105.889 2.49512V15.0049H120.894V2.49512C120.894 1.12793 122.021 0 123.389 0C124.79 0 125.884 1.12793 125.884 2.49512V32.5049C125.884 33.8721 124.79 35 123.389 35C122.021 35 120.894 33.8721 120.894 32.5049V19.9951H105.889V32.5049C105.889 33.8721 104.795 35 103.394 35C102.026 35 100.898 33.8721 100.898 32.5049V2.49512C100.898 1.12793 102.026 0 103.394 0Z" fill="black"/>
<path d="M134.531 2.49512C134.531 1.12793 135.659 0 137.026 0H157.021C158.423 0 159.517 1.12793 159.517 2.49512C159.517 3.89648 158.423 4.99023 157.021 4.99023H149.536V30.0098H157.021C158.423 30.0098 159.517 31.1035 159.517 32.5049C159.517 33.8721 158.423 35 157.021 35H137.026C135.659 35 134.531 33.8721 134.531 32.5049C134.531 31.1035 135.659 30.0098 137.026 30.0098H144.546V4.99023H137.026C135.659 4.99023 134.531 3.89648 134.531 2.49512Z" fill="black"/>
<path d="M204.292 0C205.693 0 206.787 1.12793 206.787 2.49512V16.4746L222.544 0.717773C223.501 -0.239258 225.073 -0.239258 226.064 0.717773C227.056 1.70898 227.056 3.28125 226.064 4.27246L212.837 17.5L226.064 30.7275C227.056 31.7188 227.056 33.291 226.064 34.2822C225.073 35.2393 223.501 35.2393 222.544 34.2822L209.282 21.0205L206.787 23.5498V32.5049C206.787 33.8721 205.693 35 204.292 35C202.925 35 201.797 33.8721 201.797 32.5049V2.49512C201.797 1.12793 202.925 0 204.292 0Z" fill="black"/>
<path d="M246.299 0C245.205 0 244.248 0.683594 243.906 1.70898L233.926 31.7188C233.481 33.0176 234.199 34.4189 235.498 34.8633C236.797 35.3076 238.232 34.5898 238.677 33.291L241.411 24.9854H251.152L253.921 33.291C254.365 34.5898 255.767 35.3076 257.065 34.8633C258.398 34.4189 259.082 33.0176 258.672 31.7188L248.657 1.70898C248.315 0.683594 247.358 0 246.299 0ZM243.086 19.9951L246.299 10.3906L249.478 19.9951H243.086Z" fill="black"/>
<path d="M269.063 2.49512C269.063 1.12793 270.19 0 271.558 0H291.553C292.954 0 294.048 1.12793 294.048 2.49512C294.048 3.89648 292.954 4.99023 291.553 4.99023H284.067V32.5049C284.067 33.8721 282.939 35 281.572 35C280.171 35 279.077 33.8721 279.077 32.5049V4.99023H271.558C270.19 4.99023 269.063 3.89648 269.063 2.49512Z" fill="black"/>
<path d="M313.564 0C312.471 0 311.514 0.683594 311.172 1.70898L301.191 31.7188C300.747 33.0176 301.465 34.4189 302.764 34.8633C304.063 35.3076 305.498 34.5898 305.942 33.291L308.677 24.9854H318.418L321.187 33.291C321.631 34.5898 323.032 35.3076 324.331 34.8633C325.664 34.4189 326.348 33.0176 325.938 31.7188L315.923 1.70898C315.581 0.683594 314.624 0 313.564 0ZM310.352 19.9951L313.564 10.3906L316.743 19.9951H310.352Z" fill="black"/>
<path d="M338.823 0C340.225 0 341.318 1.12793 341.318 2.49512V16.4746L357.075 0.717773C358.032 -0.239258 359.604 -0.239258 360.596 0.717773C361.587 1.70898 361.587 3.28125 360.596 4.27246L347.368 17.5L360.596 30.7275C361.587 31.7188 361.587 33.291 360.596 34.2822C359.604 35.2393 358.032 35.2393 357.075 34.2822L343.813 21.0205L341.318 23.5498V32.5049C341.318 33.8721 340.225 35 338.823 35C337.456 35 336.328 33.8721 336.328 32.5049V2.49512C336.328 1.12793 337.456 0 338.823 0Z" fill="black"/>
<path d="M380.83 0C379.736 0 378.779 0.683594 378.438 1.70898L368.457 31.7188C368.013 33.0176 368.73 34.4189 370.029 34.8633C371.328 35.3076 372.764 34.5898 373.208 33.291L375.942 24.9854H385.684L388.452 33.291C388.896 34.5898 390.298 35.3076 391.597 34.8633C392.93 34.4189 393.613 33.0176 393.203 31.7188L383.188 1.70898C382.847 0.683594 381.89 0 380.83 0ZM377.617 19.9951L380.83 10.3906L384.009 19.9951H377.617Z" fill="black"/>
<path d="M405.371 0.102539C406.431 -0.205078 407.559 0.205078 408.174 1.12793L423.589 24.2334V2.49512C423.589 1.12793 424.717 0 426.084 0C427.485 0 428.579 1.12793 428.579 2.49512V32.5049C428.579 33.5986 427.861 34.5557 426.802 34.8975C425.776 35.2051 424.614 34.7949 423.999 33.8721L408.584 10.7666V32.5049C408.584 33.8721 407.49 35 406.089 35C404.722 35 403.594 33.8721 403.594 32.5049V2.49512C403.594 1.40137 404.312 0.410156 405.371 0.102539Z" fill="black"/>
<path d="M448.096 0C447.002 0 446.045 0.683594 445.703 1.70898L435.723 31.7188C435.278 33.0176 435.996 34.4189 437.295 34.8633C438.594 35.3076 440.029 34.5898 440.474 33.291L443.208 24.9854H452.949L455.718 33.291C456.162 34.5898 457.563 35.3076 458.862 34.8633C460.195 34.4189 460.879 33.0176 460.469 31.7188L450.454 1.70898C450.112 0.683594 449.155 0 448.096 0ZM444.883 19.9951L448.096 10.3906L451.274 19.9951H444.883Z" fill="black"/>
<path d="M72.25 55.7129C72.25 55.3223 72.5723 55 72.9629 55H78.6758C79.0762 55 79.3887 55.3223 79.3887 55.7129C79.3887 56.1133 79.0762 56.4258 78.6758 56.4258H73.6758V59.2871H77.9629C78.3633 59.2871 78.6758 59.6094 78.6758 60C78.6758 60.3906 78.3633 60.7129 77.9629 60.7129H73.6758V64.2871C73.6758 64.6777 73.3633 65 72.9629 65C72.5723 65 72.25 64.6777 72.25 64.2871V55.7129ZM81.8594 55.7129V64.2871C81.8594 64.6777 82.1816 65 82.5723 65C82.9727 65 83.2852 64.6777 83.2852 64.2871V61.4258H85.4141L87.6992 64.6973C87.9336 65.0195 88.373 65.0977 88.6953 64.873C89.0176 64.6484 89.0957 64.1992 88.8711 63.877L86.9961 61.2012C87.2598 61.1035 87.5234 60.9668 87.7676 60.791C88.4707 60.2832 88.998 59.4434 88.998 58.2129C88.998 56.9824 88.4707 56.1426 87.7676 55.6348C87.1035 55.1562 86.3223 55 85.7852 55H82.5723C82.1816 55 81.8594 55.3223 81.8594 55.7129ZM83.2852 60V56.4258H85.7852C86.0879 56.4258 86.5566 56.5234 86.9375 56.7969C87.2695 57.041 87.5723 57.4512 87.5723 58.2129C87.5723 58.9844 87.2695 59.3945 86.9375 59.6387C86.5566 59.9023 86.0879 60 85.7852 60H83.2852ZM91.4688 55.7129C91.4688 55.3223 91.791 55 92.1816 55H97.8945C98.2949 55 98.6074 55.3223 98.6074 55.7129C98.6074 56.1133 98.2949 56.4258 97.8945 56.4258H92.8945V59.2871H97.1816C97.582 59.2871 97.8945 59.6094 97.8945 60C97.8945 60.3906 97.582 60.7129 97.1816 60.7129H92.8945V63.5742H97.8945C98.2949 63.5742 98.6074 63.8867 98.6074 64.2871C98.6074 64.6777 98.2949 65 97.8945 65H92.1816C91.791 65 91.4688 64.6777 91.4688 64.2871V55.7129ZM101.078 55.7129C101.078 55.3223 101.4 55 101.791 55H107.504C107.904 55 108.217 55.3223 108.217 55.7129C108.217 56.1133 107.904 56.4258 107.504 56.4258H102.504V59.2871H106.791C107.191 59.2871 107.504 59.6094 107.504 60C107.504 60.3906 107.191 60.7129 106.791 60.7129H102.504V63.5742H107.504C107.904 63.5742 108.217 63.8867 108.217 64.2871C108.217 64.6777 107.904 65 107.504 65H101.791C101.4 65 101.078 64.6777 101.078 64.2871V55.7129ZM122.279 55.498C121.723 55.918 121.371 56.582 121.371 57.5C121.371 58.0176 121.527 58.5547 121.762 59.082C120.727 59.7656 120.297 60.9082 120.297 61.7871C120.297 62.8125 120.59 63.6328 121.146 64.209C121.703 64.7754 122.436 65 123.158 65C123.949 65 124.799 64.668 125.502 64.082C125.756 64.3457 126.01 64.5898 126.234 64.8047C126.518 65.0781 126.977 65.0586 127.24 64.7754C127.514 64.4922 127.504 64.0332 127.211 63.7695C126.977 63.5449 126.713 63.2812 126.439 62.998C126.84 62.3535 127.084 61.582 127.084 60.7129C127.084 60.3223 126.762 60 126.371 60C125.971 60 125.658 60.3223 125.658 60.7129C125.658 61.1426 125.561 61.5332 125.414 61.8848C125.043 61.4551 124.672 61.0059 124.33 60.5469C124.164 60.3223 123.998 60.0879 123.852 59.8633C124.232 59.7754 124.682 59.6484 125.072 59.4434C125.707 59.1113 126.371 58.5156 126.371 57.5C126.371 56.6309 126 55.9863 125.473 55.5664C124.975 55.166 124.369 55 123.871 55C123.412 55 122.797 55.1074 122.279 55.498ZM123.1 58.5645C122.895 58.1152 122.797 57.7539 122.797 57.5C122.797 56.9922 122.973 56.7676 123.139 56.6406C123.334 56.4941 123.607 56.4258 123.871 56.4258C124.076 56.4258 124.359 56.5039 124.584 56.6797C124.779 56.8359 124.936 57.0801 124.936 57.5C124.936 57.7734 124.809 57.9688 124.418 58.1738C124.037 58.3691 123.549 58.4766 123.1 58.5645ZM122.455 60.3516C122.68 60.7031 122.934 61.0547 123.188 61.4062C123.607 61.9629 124.066 62.5195 124.525 63.0371C124.086 63.3789 123.578 63.5742 123.158 63.5742C122.729 63.5742 122.396 63.4375 122.162 63.2031C121.938 62.9688 121.723 62.5488 121.723 61.7871C121.723 61.3379 121.938 60.7422 122.455 60.3516ZM140.141 56.3672C139.613 57.1094 139.438 57.9785 139.438 58.5742V61.4258C139.438 62.0215 139.613 62.8906 140.141 63.6328C140.707 64.4141 141.635 65 143.012 65C144.389 65 145.316 64.4141 145.873 63.6328C146.41 62.8906 146.576 62.0215 146.576 61.4258V58.5742C146.576 57.9785 146.41 57.1094 145.873 56.3672C145.316 55.5859 144.389 55 143.012 55C141.635 55 140.707 55.5859 140.141 56.3672ZM141.303 57.207C141.596 56.7871 142.104 56.4258 143.012 56.4258C143.92 56.4258 144.418 56.7871 144.711 57.207C145.033 57.6465 145.15 58.2129 145.15 58.5742V61.4258C145.15 61.7871 145.033 62.3535 144.711 62.793C144.418 63.2031 143.92 63.5742 143.012 63.5742C142.104 63.5742 141.596 63.2031 141.303 62.793C140.98 62.3535 140.863 61.7871 140.863 61.4258V58.5742C140.863 58.2129 140.98 57.6465 141.303 57.207ZM149.047 55.7129V64.2871C149.047 64.6777 149.369 65 149.76 65C150.16 65 150.473 64.6777 150.473 64.2871V61.4258H152.973C153.51 61.4258 154.291 61.2793 154.955 60.791C155.658 60.2832 156.186 59.4434 156.186 58.2129C156.186 56.9824 155.658 56.1426 154.955 55.6348C154.291 55.1562 153.51 55 152.973 55H149.76C149.369 55 149.047 55.3223 149.047 55.7129ZM150.473 60V56.4258H152.973C153.275 56.4258 153.744 56.5234 154.125 56.7969C154.457 57.041 154.76 57.4512 154.76 58.2129C154.76 58.9844 154.457 59.3945 154.125 59.6387C153.744 59.9023 153.275 60 152.973 60H150.473ZM158.734 55.7129C158.734 55.3223 159.057 55 159.447 55H165.16C165.561 55 165.873 55.3223 165.873 55.7129C165.873 56.1133 165.561 56.4258 165.16 56.4258H160.16V59.2871H164.447C164.848 59.2871 165.16 59.6094 165.16 60C165.16 60.3906 164.848 60.7129 164.447 60.7129H160.16V63.5742H165.16C165.561 63.5742 165.873 63.8867 165.873 64.2871C165.873 64.6777 165.561 65 165.16 65H159.447C159.057 65 158.734 64.6777 158.734 64.2871V55.7129ZM168.852 55.0293C169.154 54.9414 169.477 55.0586 169.652 55.3223L174.057 61.9238V55.7129C174.057 55.3223 174.379 55 174.77 55C175.17 55 175.482 55.3223 175.482 55.7129V64.2871C175.482 64.5996 175.277 64.873 174.975 64.9707C174.682 65.0586 174.35 64.9414 174.174 64.6777L169.77 58.0762V64.2871C169.77 64.6777 169.457 65 169.057 65C168.666 65 168.344 64.6777 168.344 64.2871V55.7129C168.344 55.4004 168.549 55.1172 168.852 55.0293ZM188.383 56.0449C188.939 55.4102 189.828 55 191.137 55C192.475 55 193.363 55.498 193.9 56.1523C194.408 56.7676 194.564 57.4707 194.564 57.8613C194.564 58.252 194.242 58.5742 193.852 58.5742C193.451 58.5742 193.129 58.252 193.129 57.8613C193.129 57.7637 193.07 57.3926 192.797 57.0605C192.553 56.7578 192.084 56.4258 191.137 56.4258C190.15 56.4258 189.682 56.7285 189.457 56.9922C189.203 57.2754 189.135 57.6172 189.135 57.8613C189.135 58.2129 189.33 58.4961 189.779 58.7598C190.238 59.0234 190.824 59.1895 191.303 59.3066C191.381 59.3262 191.488 59.3457 191.605 59.375C192.035 59.4629 192.689 59.6094 193.236 59.873C193.598 60.0488 193.969 60.3027 194.252 60.6836C194.545 61.084 194.701 61.5723 194.701 62.1387C194.701 63.252 193.676 65 191.137 65C189.867 65 188.949 64.668 188.354 64.082C187.748 63.4961 187.562 62.7539 187.562 62.1387C187.562 61.748 187.885 61.4258 188.275 61.4258C188.676 61.4258 188.988 61.748 188.988 62.1387C188.988 62.4805 189.096 62.8125 189.35 63.0566C189.604 63.3105 190.111 63.5742 191.137 63.5742C192.885 63.5742 193.275 62.4609 193.275 62.1387C193.275 61.8457 193.197 61.6699 193.1 61.5332C193.002 61.3965 192.836 61.2695 192.611 61.1523C192.24 60.9766 191.84 60.8887 191.43 60.8008C191.273 60.7715 191.117 60.7324 190.961 60.6934C190.492 60.5762 189.721 60.3809 189.057 59.9902C188.393 59.5996 187.709 58.9258 187.709 57.8613C187.709 57.373 187.846 56.6602 188.383 56.0449ZM197.797 56.3672C197.27 57.1094 197.094 57.9785 197.094 58.5742V61.4258C197.094 62.0215 197.27 62.8906 197.797 63.6328C198.363 64.4141 199.291 65 200.668 65C202.045 65 202.973 64.4141 203.529 63.6328C204.066 62.8906 204.232 62.0215 204.232 61.4258V58.5742C204.232 57.9785 204.066 57.1094 203.529 56.3672C202.973 55.5859 202.045 55 200.668 55C199.291 55 198.363 55.5859 197.797 56.3672ZM198.959 57.207C199.252 56.7871 199.76 56.4258 200.668 56.4258C201.576 56.4258 202.074 56.7871 202.367 57.207C202.689 57.6465 202.807 58.2129 202.807 58.5742V61.4258C202.807 61.7871 202.689 62.3535 202.367 62.793C202.074 63.2031 201.576 63.5742 200.668 63.5742C199.76 63.5742 199.252 63.2031 198.959 62.793C198.637 62.3535 198.52 61.7871 198.52 61.4258V58.5742C198.52 58.2129 198.637 57.6465 198.959 57.207ZM207.494 55C207.895 55 208.207 55.3223 208.207 55.7129V61.4258C208.207 61.7871 208.324 62.3535 208.646 62.793C208.939 63.2031 209.447 63.5742 210.355 63.5742C211.264 63.5742 211.762 63.2031 212.055 62.793C212.377 62.3535 212.494 61.7871 212.494 61.4258V55.7129C212.494 55.3223 212.816 55 213.207 55C213.607 55 213.92 55.3223 213.92 55.7129V61.4258C213.92 62.0215 213.754 62.8906 213.217 63.6328C212.66 64.4141 211.732 65 210.355 65C208.979 65 208.051 64.4141 207.484 63.6328C206.957 62.8906 206.781 62.0215 206.781 61.4258V55.7129C206.781 55.3223 207.104 55 207.494 55ZM216.391 55.7129V64.2871C216.391 64.6777 216.713 65 217.104 65C217.504 65 217.816 64.6777 217.816 64.2871V61.4258H219.945L222.23 64.6973C222.465 65.0195 222.904 65.0977 223.227 64.873C223.549 64.6484 223.627 64.1992 223.402 63.877L221.527 61.2012C221.791 61.1035 222.055 60.9668 222.299 60.791C223.002 60.2832 223.529 59.4434 223.529 58.2129C223.529 56.9824 223.002 56.1426 222.299 55.6348C221.635 55.1562 220.854 55 220.316 55H217.104C216.713 55 216.391 55.3223 216.391 55.7129ZM217.816 60V56.4258H220.316C220.619 56.4258 221.088 56.5234 221.469 56.7969C221.801 57.041 222.104 57.4512 222.104 58.2129C222.104 58.9844 221.801 59.3945 221.469 59.6387C221.088 59.9023 220.619 60 220.316 60H217.816ZM226.938 56.3672C227.504 55.5859 228.432 55 229.809 55C231.469 55 232.445 55.8594 232.943 56.8164C233.129 57.168 232.982 57.5977 232.641 57.7734C232.289 57.959 231.859 57.8223 231.674 57.4707C231.4 56.9336 230.873 56.4258 229.809 56.4258C228.9 56.4258 228.393 56.7871 228.1 57.207C227.777 57.6465 227.66 58.2129 227.66 58.5742V61.4258C227.66 61.7871 227.777 62.3535 228.1 62.793C228.393 63.2031 228.9 63.5742 229.809 63.5742C230.873 63.5742 231.4 63.0664 231.674 62.5293C231.859 62.1777 232.289 62.041 232.641 62.2266C232.982 62.4023 233.129 62.832 232.943 63.1836C232.445 64.1406 231.469 65 229.809 65C228.432 65 227.504 64.4141 226.938 63.6328C226.41 62.8906 226.234 62.0215 226.234 61.4258V58.5742C226.234 57.9785 226.41 57.1094 226.938 56.3672ZM235.609 55.7129C235.609 55.3223 235.932 55 236.322 55H242.035C242.436 55 242.748 55.3223 242.748 55.7129C242.748 56.1133 242.436 56.4258 242.035 56.4258H237.035V59.2871H241.322C241.723 59.2871 242.035 59.6094 242.035 60C242.035 60.3906 241.723 60.7129 241.322 60.7129H237.035V63.5742H242.035C242.436 63.5742 242.748 63.8867 242.748 64.2871C242.748 64.6777 242.436 65 242.035 65H236.322C235.932 65 235.609 64.6777 235.609 64.2871V55.7129ZM260.854 55.0781C261.205 55.2539 261.342 55.6836 261.166 56.0352L256.889 64.6094C256.713 64.9609 256.283 65.0977 255.922 64.9219C255.57 64.7461 255.434 64.3164 255.609 63.9648L259.896 55.3906C260.072 55.0391 260.502 54.9023 260.854 55.0781ZM274.047 55.7129V64.2871C274.047 64.6777 274.369 65 274.76 65H277.621C278.998 65 279.926 64.4141 280.482 63.6328C281.02 62.8906 281.186 62.0215 281.186 61.4258V58.5742C281.186 57.1973 280.6 56.2695 279.818 55.7031C279.076 55.1758 278.207 55 277.621 55H274.76C274.369 55 274.047 55.3223 274.047 55.7129ZM275.473 56.4258H277.621C277.982 56.4258 278.539 56.543 278.988 56.8652C279.398 57.1582 279.76 57.666 279.76 58.5742V61.4258C279.76 61.7871 279.643 62.3535 279.32 62.793C279.027 63.2031 278.529 63.5742 277.621 63.5742H275.473V56.4258ZM284.281 56.3672C283.754 57.1094 283.578 57.9785 283.578 58.5742V61.4258C283.578 62.0215 283.754 62.8906 284.281 63.6328C284.848 64.4141 285.775 65 287.152 65C288.529 65 289.457 64.4141 290.014 63.6328C290.551 62.8906 290.717 62.0215 290.717 61.4258V58.5742C290.717 57.9785 290.551 57.1094 290.014 56.3672C289.457 55.5859 288.529 55 287.152 55C285.775 55 284.848 55.5859 284.281 56.3672ZM285.443 57.207C285.736 56.7871 286.244 56.4258 287.152 56.4258C288.061 56.4258 288.559 56.7871 288.852 57.207C289.174 57.6465 289.291 58.2129 289.291 58.5742V61.4258C289.291 61.7871 289.174 62.3535 288.852 62.793C288.559 63.2031 288.061 63.5742 287.152 63.5742C286.244 63.5742 285.736 63.2031 285.443 62.793C285.121 62.3535 285.004 61.7871 285.004 61.4258V58.5742C285.004 58.2129 285.121 57.6465 285.443 57.207ZM299.857 64.9805C299.535 65.0586 299.203 64.9023 299.057 64.6094L296.84 60.166L294.623 64.6094C294.467 64.9023 294.135 65.0586 293.812 64.9805C293.49 64.9023 293.266 64.6191 293.266 64.2871V55.7129C293.266 55.3223 293.588 55 293.979 55C294.379 55 294.691 55.3223 294.691 55.7129V61.2598L296.195 58.252C296.322 58.0078 296.566 57.8613 296.84 57.8613C297.104 57.8613 297.357 58.0078 297.475 58.252L298.979 61.2598V55.7129C298.979 55.3223 299.301 55 299.691 55C300.092 55 300.404 55.3223 300.404 55.7129V64.2871C300.404 64.6191 300.18 64.9023 299.857 64.9805ZM303.383 55.0293C303.686 54.9414 304.008 55.0586 304.184 55.3223L308.588 61.9238V55.7129C308.588 55.3223 308.91 55 309.301 55C309.701 55 310.014 55.3223 310.014 55.7129V64.2871C310.014 64.5996 309.809 64.873 309.506 64.9707C309.213 65.0586 308.881 64.9414 308.705 64.6777L304.301 58.0762V64.2871C304.301 64.6777 303.988 65 303.588 65C303.197 65 302.875 64.6777 302.875 64.2871V55.7129C302.875 55.4004 303.08 55.1172 303.383 55.0293ZM313.197 55C313.598 55 313.91 55.3223 313.91 55.7129V63.5742H318.91C319.311 63.5742 319.623 63.8867 319.623 64.2871C319.623 64.6777 319.311 65 318.91 65H313.197C312.807 65 312.484 64.6777 312.484 64.2871V55.7129C312.484 55.3223 312.807 55 313.197 55ZM322.719 56.3672C322.191 57.1094 322.016 57.9785 322.016 58.5742V61.4258C322.016 62.0215 322.191 62.8906 322.719 63.6328C323.285 64.4141 324.213 65 325.59 65C326.967 65 327.895 64.4141 328.451 63.6328C328.988 62.8906 329.154 62.0215 329.154 61.4258V58.5742C329.154 57.9785 328.988 57.1094 328.451 56.3672C327.895 55.5859 326.967 55 325.59 55C324.213 55 323.285 55.5859 322.719 56.3672ZM323.881 57.207C324.174 56.7871 324.682 56.4258 325.59 56.4258C326.498 56.4258 326.996 56.7871 327.289 57.207C327.611 57.6465 327.729 58.2129 327.729 58.5742V61.4258C327.729 61.7871 327.611 62.3535 327.289 62.793C326.996 63.2031 326.498 63.5742 325.59 63.5742C324.682 63.5742 324.174 63.2031 323.881 62.793C323.559 62.3535 323.441 61.7871 323.441 61.4258V58.5742C323.441 58.2129 323.559 57.6465 323.881 57.207ZM335.199 55C334.887 55 334.613 55.1953 334.516 55.4883L331.664 64.0625C331.537 64.4336 331.742 64.834 332.113 64.9609C332.484 65.0879 332.895 64.8828 333.021 64.5117L333.803 62.1387H336.586L337.377 64.5117C337.504 64.8828 337.904 65.0879 338.275 64.9609C338.656 64.834 338.852 64.4336 338.734 64.0625L335.873 55.4883C335.775 55.1953 335.502 55 335.199 55ZM334.281 60.7129L335.199 57.9688L336.107 60.7129H334.281ZM341.312 55.7129V64.2871C341.312 64.6777 341.635 65 342.025 65H344.887C346.264 65 347.191 64.4141 347.748 63.6328C348.285 62.8906 348.451 62.0215 348.451 61.4258V58.5742C348.451 57.1973 347.865 56.2695 347.084 55.7031C346.342 55.1758 345.473 55 344.887 55H342.025C341.635 55 341.312 55.3223 341.312 55.7129ZM342.738 56.4258H344.887C345.248 56.4258 345.805 56.543 346.254 56.8652C346.664 57.1582 347.025 57.666 347.025 58.5742V61.4258C347.025 61.7871 346.908 62.3535 346.586 62.793C346.293 63.2031 345.795 63.5742 344.887 63.5742H342.738V56.4258ZM361.039 55.0293C361.342 54.9414 361.664 55.0586 361.84 55.3223L366.244 61.9238V55.7129C366.244 55.3223 366.566 55 366.957 55C367.357 55 367.67 55.3223 367.67 55.7129V64.2871C367.67 64.5996 367.465 64.873 367.162 64.9707C366.869 65.0586 366.537 64.9414 366.361 64.6777L361.957 58.0762V64.2871C361.957 64.6777 361.645 65 361.244 65C360.854 65 360.531 64.6777 360.531 64.2871V55.7129C360.531 55.4004 360.736 55.1172 361.039 55.0293ZM370.766 56.3672C370.238 57.1094 370.062 57.9785 370.062 58.5742V61.4258C370.062 62.0215 370.238 62.8906 370.766 63.6328C371.332 64.4141 372.26 65 373.637 65C375.014 65 375.941 64.4141 376.498 63.6328C377.035 62.8906 377.201 62.0215 377.201 61.4258V58.5742C377.201 57.9785 377.035 57.1094 376.498 56.3672C375.941 55.5859 375.014 55 373.637 55C372.26 55 371.332 55.5859 370.766 56.3672ZM371.928 57.207C372.221 56.7871 372.729 56.4258 373.637 56.4258C374.545 56.4258 375.043 56.7871 375.336 57.207C375.658 57.6465 375.775 58.2129 375.775 58.5742V61.4258C375.775 61.7871 375.658 62.3535 375.336 62.793C375.043 63.2031 374.545 63.5742 373.637 63.5742C372.729 63.5742 372.221 63.2031 371.928 62.793C371.605 62.3535 371.488 61.7871 371.488 61.4258V58.5742C371.488 58.2129 371.605 57.6465 371.928 57.207ZM386.342 64.9805C386.02 65.0586 385.688 64.9023 385.541 64.6094L383.324 60.166L381.107 64.6094C380.951 64.9023 380.619 65.0586 380.297 64.9805C379.975 64.9023 379.75 64.6191 379.75 64.2871V55.7129C379.75 55.3223 380.072 55 380.463 55C380.863 55 381.176 55.3223 381.176 55.7129V61.2598L382.68 58.252C382.807 58.0078 383.051 57.8613 383.324 57.8613C383.588 57.8613 383.842 58.0078 383.959 58.252L385.463 61.2598V55.7129C385.463 55.3223 385.785 55 386.176 55C386.576 55 386.889 55.3223 386.889 55.7129V64.2871C386.889 64.6191 386.664 64.9023 386.342 64.9805Z" fill="black"/>
<path d="M71.4844 74V75.8164H81.4844C81.4844 79.9082 75.5762 82.1836 71.4844 82.1836V84C78.7598 84 83.3105 79.459 83.3105 75.8164V74H71.4844ZM86.3281 74V79.459H88.1445V74H86.3281ZM89.0527 82.1836V84H90.8789C96.6992 84 98.1543 79.1562 98.1543 76.7246V74H96.3281V76.7246C96.3281 78.5508 95.2441 82.1836 90.8789 82.1836H89.0527ZM112.529 74.498C111.973 74.918 111.621 75.582 111.621 76.5C111.621 77.0176 111.777 77.5547 112.012 78.082C110.977 78.7656 110.547 79.9082 110.547 80.7871C110.547 81.8125 110.84 82.6328 111.396 83.209C111.953 83.7754 112.686 84 113.408 84C114.199 84 115.049 83.668 115.752 83.082C116.006 83.3457 116.26 83.5898 116.484 83.8047C116.768 84.0781 117.227 84.0586 117.49 83.7754C117.764 83.4922 117.754 83.0332 117.461 82.7695C117.227 82.5449 116.963 82.2812 116.689 81.998C117.09 81.3535 117.334 80.582 117.334 79.7129C117.334 79.3223 117.012 79 116.621 79C116.221 79 115.908 79.3223 115.908 79.7129C115.908 80.1426 115.811 80.5332 115.664 80.8848C115.293 80.4551 114.922 80.0059 114.58 79.5469C114.414 79.3223 114.248 79.0879 114.102 78.8633C114.482 78.7754 114.932 78.6484 115.322 78.4434C115.957 78.1113 116.621 77.5156 116.621 76.5C116.621 75.6309 116.25 74.9863 115.723 74.5664C115.225 74.166 114.619 74 114.121 74C113.662 74 113.047 74.1074 112.529 74.498ZM113.35 77.5645C113.145 77.1152 113.047 76.7539 113.047 76.5C113.047 75.9922 113.223 75.7676 113.389 75.6406C113.584 75.4941 113.857 75.4258 114.121 75.4258C114.326 75.4258 114.609 75.5039 114.834 75.6797C115.029 75.8359 115.186 76.0801 115.186 76.5C115.186 76.7734 115.059 76.9688 114.668 77.1738C114.287 77.3691 113.799 77.4766 113.35 77.5645ZM112.705 79.3516C112.93 79.7031 113.184 80.0547 113.438 80.4062C113.857 80.9629 114.316 81.5195 114.775 82.0371C114.336 82.3789 113.828 82.5742 113.408 82.5742C112.979 82.5742 112.646 82.4375 112.412 82.2031C112.188 81.9688 111.973 81.5488 111.973 80.7871C111.973 80.3379 112.188 79.7422 112.705 79.3516ZM139.092 74H137.275V75.8164H130V77.6328H135.938L130.01 82.6133L131.182 84L137.275 78.8926V81.2754C137.275 81.998 136.67 82.1836 136.367 82.1836H135.459V84H136.367C138.545 84 139.092 82.1836 139.092 81.2754V77.6328H141.826V75.8164H139.092V74ZM144.922 78.0625H156.748V79.8789H144.922V78.0625ZM173.486 73.5703C173.486 72.8184 172.871 72.2031 172.119 72.2031C171.367 72.2031 170.752 72.8184 170.752 73.5703C170.752 73.7266 170.781 73.8828 170.83 74.0195H159.844V75.8359H169.844C169.844 79.9375 163.936 82.2031 159.844 82.2031V84.0293C167.119 84.0293 171.67 79.4785 171.67 75.8359V74.8496C171.807 74.9082 171.963 74.9277 172.119 74.9277C172.871 74.9277 173.486 74.3223 173.486 73.5703ZM172.754 73.5703C172.754 73.9219 172.471 74.2051 172.119 74.2051C171.768 74.2051 171.484 73.9219 171.484 73.5703C171.484 73.2188 171.768 72.9258 172.119 72.9258C172.471 72.9258 172.754 73.2188 172.754 73.5703ZM178.457 74H176.641V78.5508H178.457V74ZM188.467 75.8164C188.467 82.3691 183.008 84 180.273 84H176.641V82.1836H180.273C185.371 82.1836 186.641 77.9453 186.641 75.8164H188.467ZM193.301 74H191.484V78.5508H193.301V74ZM191.484 84V82.1836C199.482 82.1836 201.484 77.3301 201.484 74.9082H203.311C203.311 82.1836 195.43 84 191.484 84ZM206.406 78.0625H218.232V79.8789H206.406V78.0625ZM221.25 75.8164V74H233.076V75.8164C233.076 77.3301 232.295 78.9902 230.859 80.4258L233.076 82.6426L231.709 84L229.365 81.6562C227.354 83.043 224.59 84 221.25 84V82.1836C225.342 82.1836 231.25 79.9082 231.25 75.8164H221.25ZM251.494 74.0781C251.846 74.2539 251.982 74.6836 251.807 75.0352L247.529 83.6094C247.354 83.9609 246.924 84.0977 246.562 83.9219C246.211 83.7461 246.074 83.3164 246.25 82.9648L250.537 74.3906C250.713 74.0391 251.143 73.9023 251.494 74.0781ZM267.725 74C267.725 76.1777 265.908 76.7246 265 76.7246V78.5508C266.27 78.5508 267.197 78.1797 267.881 77.6328H275V79H268.633V80.8164H274.746C274.316 81.7344 273.291 82.1836 271.367 82.1836V84C275.908 84 276.826 81.2754 276.826 79.459V75.8164H277.461V74H276.367V75.8164H269.189C269.453 75.1523 269.551 74.498 269.551 74H267.725ZM279.277 74H278.184V75.8164H279.277V74ZM287.344 74H289.16V75.8164H294.17V78.5508C294.17 80.3672 293.076 84 288.711 84V82.1836C289.922 82.1836 292.344 81.4609 292.344 78.5508V77.6328H284.16V80.3672H282.344V75.8164H287.344V74ZM299.082 74H297.266V78.5508H299.082V74ZM309.092 75.8164C309.092 82.3691 303.633 84 300.898 84H297.266V82.1836H300.898C305.996 82.1836 307.266 77.9453 307.266 75.8164H309.092ZM312.109 74.4688V83.5605H323.936V74.4688H312.109ZM322.109 76.2852V81.7441H313.926V76.2852H322.109ZM327.031 78.0625H338.857V79.8789H327.031V78.0625ZM343.77 74H341.953V84H343.77V78.4727L346.582 81.2754L347.871 79.9961L344.512 76.6367L343.77 77.3887V74ZM345.41 74H346.504V75.8164H345.41V74ZM348.32 74H347.227V75.8164H348.32V74ZM369.121 74H367.305V75.8164H360.938V77.6328H367.305V78.5508C367.305 81.4609 364.883 82.1836 363.662 82.1836V84C368.027 84 369.121 80.3672 369.121 78.5508V77.6328H372.764V75.8164H369.121V74ZM380.781 74H382.598V75.8164H387.607V78.5508C387.607 80.3672 386.514 84 382.148 84V82.1836C383.359 82.1836 385.781 81.4609 385.781 78.5508V77.6328H377.598V80.3672H375.781V75.8164H380.781V74Z" fill="black"/>
</svg>
