<svg width="77" height="46" viewBox="0 0 77 46" fill="none" xmlns="http://www.w3.org/2000/svg">
<path d="M9.38281 1C9.70312 1 9.95312 1.25781 9.95312 1.57031V6.14062C9.95312 6.42969 10.0469 6.88281 10.3047 7.23438C10.5391 7.5625 10.9453 7.85938 11.6719 7.85938C12.3984 7.85938 12.7969 7.5625 13.0312 7.23438C13.2891 6.88281 13.3828 6.42969 13.3828 6.14062V1.57031C13.3828 1.25781 13.6406 1 13.9531 1C14.2734 1 14.5234 1.25781 14.5234 1.57031V6.14062C14.5234 6.61719 14.3906 7.3125 13.9609 7.90625C13.5156 8.53125 12.7734 9 11.6719 9C10.5703 9 9.82812 8.53125 9.375 7.90625C8.95312 7.3125 8.8125 6.61719 8.8125 6.14062V1.57031C8.8125 1.25781 9.07031 1 9.38281 1ZM16.9062 1.02344C17.1484 0.953125 17.4062 1.04688 17.5469 1.25781L21.0703 6.53906V1.57031C21.0703 1.25781 21.3281 1 21.6406 1C21.9609 1 22.2109 1.25781 22.2109 1.57031V8.42969C22.2109 8.67969 22.0469 8.89844 21.8047 8.97656C21.5703 9.04688 21.3047 8.95312 21.1641 8.74219L17.6406 3.46094V8.42969C17.6406 8.74219 17.3906 9 17.0703 9C16.7578 9 16.5 8.74219 16.5 8.42969V1.57031C16.5 1.32031 16.6641 1.09375 16.9062 1.02344ZM24.1875 1.57031V8.42969C24.1875 8.74219 24.4453 9 24.7578 9C25.0781 9 25.3281 8.74219 25.3281 8.42969V6.14062H27.0312L28.8594 8.75781C29.0469 9.01562 29.3984 9.07812 29.6562 8.89844C29.9141 8.71875 29.9766 8.35938 29.7969 8.10156L28.2969 5.96094C28.5078 5.88281 28.7188 5.77344 28.9141 5.63281C29.4766 5.22656 29.8984 4.55469 29.8984 3.57031C29.8984 2.58594 29.4766 1.91406 28.9141 1.50781C28.3828 1.125 27.7578 1 27.3281 1H24.7578C24.4453 1 24.1875 1.25781 24.1875 1.57031ZM25.3281 5V2.14062H27.3281C27.5703 2.14062 27.9453 2.21875 28.25 2.4375C28.5156 2.63281 28.7578 2.96094 28.7578 3.57031C28.7578 4.1875 28.5156 4.51562 28.25 4.71094C27.9453 4.92188 27.5703 5 27.3281 5H25.3281ZM31.875 1.57031C31.875 1.25781 32.1328 1 32.4453 1H37.0156C37.3359 1 37.5859 1.25781 37.5859 1.57031C37.5859 1.89062 37.3359 2.14062 37.0156 2.14062H33.0156V4.42969H36.4453C36.7656 4.42969 37.0156 4.6875 37.0156 5C37.0156 5.3125 36.7656 5.57031 36.4453 5.57031H33.0156V7.85938H37.0156C37.3359 7.85938 37.5859 8.10938 37.5859 8.42969C37.5859 8.74219 37.3359 9 37.0156 9H32.4453C32.1328 9 31.875 8.74219 31.875 8.42969V1.57031ZM40.1328 1C40.4531 1 40.7031 1.25781 40.7031 1.57031V7.85938H44.7031C45.0234 7.85938 45.2734 8.10938 45.2734 8.42969C45.2734 8.74219 45.0234 9 44.7031 9H40.1328C39.8203 9 39.5625 8.74219 39.5625 8.42969V1.57031C39.5625 1.25781 39.8203 1 40.1328 1ZM50.0469 1C49.7969 1 49.5781 1.15625 49.5 1.39062L47.2188 8.25C47.1172 8.54688 47.2812 8.86719 47.5781 8.96875C47.875 9.07031 48.2031 8.90625 48.3047 8.60938L48.9297 6.71094H51.1562L51.7891 8.60938C51.8906 8.90625 52.2109 9.07031 52.5078 8.96875C52.8125 8.86719 52.9688 8.54688 52.875 8.25L50.5859 1.39062C50.5078 1.15625 50.2891 1 50.0469 1ZM49.3125 5.57031L50.0469 3.375L50.7734 5.57031H49.3125ZM54.9375 1.57031C54.9375 1.25781 55.1953 1 55.5078 1H60.0781C60.3984 1 60.6484 1.25781 60.6484 1.57031C60.6484 1.89062 60.3984 2.14062 60.0781 2.14062H58.3672V8.42969C58.3672 8.74219 58.1094 9 57.7969 9C57.4766 9 57.2266 8.74219 57.2266 8.42969V2.14062H55.5078C55.1953 2.14062 54.9375 1.89062 54.9375 1.57031ZM62.625 1.57031C62.625 1.25781 62.8828 1 63.1953 1H67.7656C68.0859 1 68.3359 1.25781 68.3359 1.57031C68.3359 1.89062 68.0859 2.14062 67.7656 2.14062H63.7656V4.42969H67.1953C67.5156 4.42969 67.7656 4.6875 67.7656 5C67.7656 5.3125 67.5156 5.57031 67.1953 5.57031H63.7656V7.85938H67.7656C68.0859 7.85938 68.3359 8.10938 68.3359 8.42969C68.3359 8.74219 68.0859 9 67.7656 9H63.1953C62.8828 9 62.625 8.74219 62.625 8.42969V1.57031ZM70.3125 1.57031V8.42969C70.3125 8.74219 70.5703 9 70.8828 9H73.1719C74.2734 9 75.0156 8.53125 75.4609 7.90625C75.8906 7.3125 76.0234 6.61719 76.0234 6.14062V3.85938C76.0234 2.75781 75.5547 2.01562 74.9297 1.5625C74.3359 1.14062 73.6406 1 73.1719 1H70.8828C70.5703 1 70.3125 1.25781 70.3125 1.57031ZM71.4531 2.14062H73.1719C73.4609 2.14062 73.9062 2.23438 74.2656 2.49219C74.5938 2.72656 74.8828 3.13281 74.8828 3.85938V6.14062C74.8828 6.42969 74.7891 6.88281 74.5312 7.23438C74.2969 7.5625 73.8984 7.85938 73.1719 7.85938H71.4531V2.14062ZM3.92188 13C3.67188 13 3.45312 13.1562 3.375 13.3906L1.09375 20.25C0.992188 20.5469 1.15625 20.8672 1.45312 20.9688C1.75 21.0703 2.07812 20.9062 2.17969 20.6094L2.80469 18.7109H5.03125L5.66406 20.6094C5.76562 20.9062 6.08594 21.0703 6.38281 20.9688C6.6875 20.8672 6.84375 20.5469 6.75 20.25L4.46094 13.3906C4.38281 13.1562 4.16406 13 3.92188 13ZM3.1875 17.5703L3.92188 15.375L4.64844 17.5703H3.1875ZM9.21875 13.0234C9.46094 12.9531 9.71875 13.0469 9.85938 13.2578L13.3828 18.5391V13.5703C13.3828 13.2578 13.6406 13 13.9531 13C14.2734 13 14.5234 13.2578 14.5234 13.5703V20.4297C14.5234 20.6797 14.3594 20.8984 14.1172 20.9766C13.8828 21.0469 13.6172 20.9531 13.4766 20.7422L9.95312 15.4609V20.4297C9.95312 20.7422 9.70312 21 9.38281 21C9.07031 21 8.8125 20.7422 8.8125 20.4297V13.5703C8.8125 13.3203 8.97656 13.0938 9.21875 13.0234ZM16.5 13.5703C16.5 13.2578 16.7578 13 17.0703 13H21.6406C21.9609 13 22.2109 13.2578 22.2109 13.5703C22.2109 13.8906 21.9609 14.1406 21.6406 14.1406H19.9297V19.8594H21.6406C21.9609 19.8594 22.2109 20.1094 22.2109 20.4297C22.2109 20.7422 21.9609 21 21.6406 21H17.0703C16.7578 21 16.5 20.7422 16.5 20.4297C16.5 20.1094 16.7578 19.8594 17.0703 19.8594H18.7891V14.1406H17.0703C16.7578 14.1406 16.5 13.8906 16.5 13.5703ZM24.625 13.0156C24.8828 12.9531 25.1484 13.0781 25.2734 13.3125L27.0469 16.8672L28.8203 13.3125C28.9375 13.0781 29.2031 12.9531 29.4609 13.0156C29.7188 13.0781 29.8984 13.3047 29.8984 13.5703V20.4297C29.8984 20.7422 29.6484 21 29.3281 21C29.0156 21 28.7578 20.7422 28.7578 20.4297V15.9922L27.5547 18.3984C27.4609 18.5938 27.2578 18.7109 27.0469 18.7109C26.8281 18.7109 26.6328 18.5938 26.5312 18.3984L25.3281 15.9922V20.4297C25.3281 20.7422 25.0781 21 24.7578 21C24.4453 21 24.1875 20.7422 24.1875 20.4297V13.5703C24.1875 13.3047 24.3672 13.0781 24.625 13.0156ZM31.875 13.5703C31.875 13.2578 32.1328 13 32.4453 13H37.0156C37.3359 13 37.5859 13.2578 37.5859 13.5703C37.5859 13.8906 37.3359 14.1406 37.0156 14.1406H33.0156V16.4297H36.4453C36.7656 16.4297 37.0156 16.6875 37.0156 17C37.0156 17.3125 36.7656 17.5703 36.4453 17.5703H33.0156V19.8594H37.0156C37.3359 19.8594 37.5859 20.1094 37.5859 20.4297C37.5859 20.7422 37.3359 21 37.0156 21H32.4453C32.1328 21 31.875 20.7422 31.875 20.4297V13.5703ZM47.8125 14.0938C48.2656 13.4688 49.0078 13 50.1094 13C51.4375 13 52.2188 13.6875 52.6172 14.4531C52.7656 14.7344 52.6484 15.0781 52.375 15.2188C52.0938 15.3672 51.75 15.2578 51.6016 14.9766C51.3828 14.5469 50.9609 14.1406 50.1094 14.1406C49.3828 14.1406 48.9766 14.4297 48.7422 14.7656C48.4844 15.1172 48.3906 15.5703 48.3906 15.8594V18.1406C48.3906 18.4297 48.4844 18.8828 48.7422 19.2344C48.9766 19.5625 49.3828 19.8594 50.1094 19.8594C50.8359 19.8594 51.2344 19.5625 51.4688 19.2344C51.7266 18.8828 51.8203 18.4297 51.8203 18.1406V17.5703H50.1094C49.7891 17.5703 49.5391 17.3125 49.5391 17C49.5391 16.6875 49.7891 16.4297 50.1094 16.4297H52.3906C52.7109 16.4297 52.9609 16.6875 52.9609 17V18.1406C52.9609 18.6172 52.8281 19.3125 52.3984 19.9062C51.9531 20.5312 51.2109 21 50.1094 21C49.0078 21 48.2656 20.5312 47.8125 19.9062C47.3906 19.3125 47.25 18.6172 47.25 18.1406V15.8594C47.25 15.3828 47.3906 14.6875 47.8125 14.0938ZM54.9375 13.5703C54.9375 13.2578 55.1953 13 55.5078 13H60.0781C60.3984 13 60.6484 13.2578 60.6484 13.5703C60.6484 13.8906 60.3984 14.1406 60.0781 14.1406H58.3672V19.8594H60.0781C60.3984 19.8594 60.6484 20.1094 60.6484 20.4297C60.6484 20.7422 60.3984 21 60.0781 21H55.5078C55.1953 21 54.9375 20.7422 54.9375 20.4297C54.9375 20.1094 55.1953 19.8594 55.5078 19.8594H57.2266V14.1406H55.5078C55.1953 14.1406 54.9375 13.8906 54.9375 13.5703ZM62.625 13.5703V20.4297C62.625 20.7422 62.8828 21 63.1953 21C63.5156 21 63.7656 20.7422 63.7656 20.4297V18.1406H65.4688L67.2969 20.7578C67.4844 21.0156 67.8359 21.0781 68.0938 20.8984C68.3516 20.7188 68.4141 20.3594 68.2344 20.1016L66.7344 17.9609C66.9453 17.8828 67.1562 17.7734 67.3516 17.6328C67.9141 17.2266 68.3359 16.5547 68.3359 15.5703C68.3359 14.5859 67.9141 13.9141 67.3516 13.5078C66.8203 13.125 66.1953 13 65.7656 13H63.1953C62.8828 13 62.625 13.2578 62.625 13.5703ZM63.7656 17V14.1406H65.7656C66.0078 14.1406 66.3828 14.2188 66.6875 14.4375C66.9531 14.6328 67.1953 14.9609 67.1953 15.5703C67.1953 16.1875 66.9531 16.5156 66.6875 16.7109C66.3828 16.9219 66.0078 17 65.7656 17H63.7656ZM70.8828 13C71.2031 13 71.4531 13.2578 71.4531 13.5703V19.8594H75.4531C75.7734 19.8594 76.0234 20.1094 76.0234 20.4297C76.0234 20.7422 75.7734 21 75.4531 21H70.8828C70.5703 21 70.3125 20.7422 70.3125 20.4297V13.5703C70.3125 13.2578 70.5703 13 70.8828 13ZM6.53125 37.0938C6.79688 37.2734 6.86719 37.625 6.6875 37.8906C6.52344 38.1406 6.25781 38.6172 6.03125 39.1953C5.80469 39.7734 5.64062 40.4141 5.64062 41C5.64062 41.5859 5.80469 42.2266 6.03125 42.8047C6.25781 43.3828 6.52344 43.8594 6.6875 44.1094C6.86719 44.375 6.79688 44.7266 6.53125 44.9062C6.26562 45.0781 5.91406 45.0078 5.74219 44.7422C5.52344 44.4219 5.21875 43.875 4.96875 43.2188C4.71875 42.5703 4.5 41.7812 4.5 41C4.5 40.2188 4.71875 39.4297 4.96875 38.7812C5.21875 38.125 5.52344 37.5781 5.74219 37.2578C5.91406 36.9922 6.26562 36.9219 6.53125 37.0938ZM9.5625 38.0938C10.0156 37.4688 10.7578 37 11.8594 37C13.1875 37 13.9688 37.6875 14.3672 38.4531C14.5156 38.7344 14.3984 39.0781 14.125 39.2188C13.8438 39.3672 13.5 39.2578 13.3516 38.9766C13.1328 38.5469 12.7109 38.1406 11.8594 38.1406C11.1328 38.1406 10.7266 38.4297 10.4922 38.7656C10.2344 39.1172 10.1406 39.5703 10.1406 39.8594V42.1406C10.1406 42.4297 10.2344 42.8828 10.4922 43.2344C10.7266 43.5625 11.1328 43.8594 11.8594 43.8594C12.7109 43.8594 13.1328 43.4531 13.3516 43.0234C13.5 42.7422 13.8438 42.6328 14.125 42.7812C14.3984 42.9219 14.5156 43.2656 14.3672 43.5469C13.9688 44.3125 13.1875 45 11.8594 45C10.7578 45 10.0156 44.5312 9.5625 43.9062C9.14062 43.3125 9 42.6172 9 42.1406V39.8594C9 39.3828 9.14062 38.6875 9.5625 38.0938ZM16.7578 37.0938C16.4922 37.2734 16.4219 37.625 16.5938 37.8906C16.7656 38.1406 17.0312 38.6172 17.25 39.1953C17.4766 39.7734 17.6406 40.4141 17.6406 41C17.6406 41.5859 17.4766 42.2266 17.25 42.8047C17.0312 43.3828 16.7656 43.8594 16.5938 44.1094C16.4219 44.375 16.4922 44.7266 16.7578 44.9062C17.0156 45.0781 17.375 45.0078 17.5469 44.7422C17.7578 44.4219 18.0625 43.875 18.3203 43.2188C18.5703 42.5703 18.7891 41.7812 18.7891 41C18.7891 40.2188 18.5703 39.4297 18.3203 38.7812C18.0625 38.125 17.7578 37.5781 17.5469 37.2578C17.375 36.9922 17.0156 36.9219 16.7578 37.0938ZM31.875 37.5703C31.875 37.2578 32.1328 37 32.4453 37H37.0156C37.3359 37 37.5859 37.2578 37.5859 37.5703C37.5859 37.8906 37.3359 38.1406 37.0156 38.1406H35.3047V44.4297C35.3047 44.7422 35.0469 45 34.7344 45C34.4141 45 34.1641 44.7422 34.1641 44.4297V38.1406H32.4453C32.1328 38.1406 31.875 37.8906 31.875 37.5703ZM42.0469 37C41.7969 37 41.5781 37.1562 41.5 37.3906L39.2188 44.25C39.1172 44.5469 39.2812 44.8672 39.5781 44.9688C39.875 45.0703 40.2031 44.9062 40.3047 44.6094L40.9297 42.7109H43.1562L43.7891 44.6094C43.8906 44.9062 44.2109 45.0703 44.5078 44.9688C44.8125 44.8672 44.9688 44.5469 44.875 44.25L42.5859 37.3906C42.5078 37.1562 42.2891 37 42.0469 37ZM41.3125 41.5703L42.0469 39.375L42.7734 41.5703H41.3125ZM47.25 37.5703C47.25 37.2578 47.5078 37 47.8203 37H52.3906C52.7109 37 52.9609 37.2578 52.9609 37.5703C52.9609 37.8906 52.7109 38.1406 52.3906 38.1406H50.6797V43.8594H52.3906C52.7109 43.8594 52.9609 44.1094 52.9609 44.4297C52.9609 44.7422 52.7109 45 52.3906 45H47.8203C47.5078 45 47.25 44.7422 47.25 44.4297C47.25 44.1094 47.5078 43.8594 47.8203 43.8594H49.5391V38.1406H47.8203C47.5078 38.1406 47.25 37.8906 47.25 37.5703ZM54.9375 37.5703C54.9375 37.2578 55.1953 37 55.5078 37H60.0781C60.3984 37 60.6484 37.2578 60.6484 37.5703C60.6484 37.8906 60.3984 38.1406 60.0781 38.1406H58.3672V44.4297C58.3672 44.7422 58.1094 45 57.7969 45C57.4766 45 57.2266 44.7422 57.2266 44.4297V38.1406H55.5078C55.1953 38.1406 54.9375 37.8906 54.9375 37.5703ZM65.1094 37C64.8594 37 64.6406 37.1562 64.5625 37.3906L62.2812 44.25C62.1797 44.5469 62.3438 44.8672 62.6406 44.9688C62.9375 45.0703 63.2656 44.9062 63.3672 44.6094L63.9922 42.7109H66.2188L66.8516 44.6094C66.9531 44.9062 67.2734 45.0703 67.5703 44.9688C67.875 44.8672 68.0312 44.5469 67.9375 44.25L65.6484 37.3906C65.5703 37.1562 65.3516 37 65.1094 37ZM64.375 41.5703L65.1094 39.375L65.8359 41.5703H64.375ZM70.3125 37.5703C70.3125 37.2578 70.5703 37 70.8828 37H75.4531C75.7734 37 76.0234 37.2578 76.0234 37.5703C76.0234 37.8906 75.7734 38.1406 75.4531 38.1406H73.7422V43.8594H75.4531C75.7734 43.8594 76.0234 44.1094 76.0234 44.4297C76.0234 44.7422 75.7734 45 75.4531 45H70.8828C70.5703 45 70.3125 44.7422 70.3125 44.4297C70.3125 44.1094 70.5703 43.8594 70.8828 43.8594H72.6016V38.1406H70.8828C70.5703 38.1406 70.3125 37.8906 70.3125 37.5703Z" fill="black"/>
</svg>
