<svg width="24" height="24" viewBox="0 0 24 24" fill="none" xmlns="http://www.w3.org/2000/svg">
<path opacity="0.5" d="M17.2245 5.39598H17.9922C19.3495 5.44452 20.4812 5.91553 21.3836 6.81082C22.2861 7.7052 22.7535 8.83239 22.7859 10.1906V16.8063C22.7535 18.1636 22.2861 19.2953 21.3836 20.1978C20.4812 21.1003 19.3504 21.5677 17.9922 21.6H6.00659C4.64929 21.5677 3.51761 21.1003 2.61513 20.1978C1.71267 19.2953 1.24525 18.1645 1.21289 16.8063V10.1906C1.24525 8.83239 1.71267 7.7052 2.61513 6.81082C3.51761 5.91553 4.64839 5.44452 6.00659 5.39598H6.70232L5.64704 4.38924C5.53852 4.28358 5.45278 4.15681 5.39511 4.01675C5.33745 3.87669 5.30908 3.7263 5.31176 3.57486C5.31176 3.25486 5.42322 2.9834 5.64704 2.75958L5.67131 2.73531C5.91131 2.51148 6.18637 2.40002 6.49828 2.40002C6.81019 2.40002 7.08525 2.51148 7.32525 2.73531L9.88974 5.20452C9.95356 5.26834 10.0102 5.33216 10.0578 5.39598H13.8933C13.9307 5.32489 13.9793 5.26025 14.0371 5.20452L16.6016 2.73531C16.8416 2.51148 17.1167 2.40002 17.4286 2.40002C17.7405 2.40002 18.0236 2.53575 18.2636 2.75958C18.5036 2.9834 18.6151 3.25486 18.6151 3.57486C18.6151 3.89396 18.5036 4.16542 18.2798 4.38924L17.2245 5.39598ZM6.00659 7.72138C5.33603 7.73756 4.77244 7.96947 4.31671 8.41621C3.86187 8.86385 3.62547 9.43194 3.61019 10.1187V16.8783C3.62547 17.565 3.86187 18.1322 4.31671 18.5798C4.77244 19.0275 5.33603 19.2594 6.00659 19.2747H17.9922C18.6627 19.2594 19.2263 19.0275 19.6821 18.5798C20.1369 18.1322 20.3733 17.565 20.3886 16.8783V10.1187C20.3733 9.43104 20.1369 8.86385 19.6821 8.41621C19.2263 7.96947 18.6627 7.73756 17.9922 7.72138H6.00659ZM8.4039 11.1973C8.73918 11.1973 9.01873 11.3088 9.24255 11.5326C9.46727 11.7565 9.58682 12.0441 9.6021 12.3956V13.4499C9.58682 13.8014 9.46727 14.089 9.24255 14.3129C9.01873 14.5376 8.73918 14.649 8.4039 14.649C8.06862 14.649 7.78907 14.5367 7.56525 14.3129C7.34053 14.089 7.22098 13.8014 7.20569 13.4499V12.3956C7.20569 12.0603 7.32165 11.7762 7.55266 11.5443C7.78457 11.3133 8.06862 11.1973 8.4039 11.1973ZM15.5949 11.1973C15.9302 11.1973 16.2097 11.3088 16.4335 11.5326C16.6582 11.7565 16.7778 12.0441 16.7931 12.3956V13.4499C16.7778 13.8014 16.6582 14.089 16.4335 14.3129C16.2097 14.5376 15.9302 14.649 15.5949 14.649C15.2596 14.649 14.98 14.5367 14.7562 14.3129C14.5315 14.089 14.412 13.8014 14.3967 13.4499V12.3956C14.412 12.0441 14.5315 11.7565 14.7562 11.5326C14.98 11.3088 15.2596 11.1973 15.5949 11.1973Z" fill="white"/>
</svg>
