<svg width="24" height="25" viewBox="0 0 24 25" fill="none" xmlns="http://www.w3.org/2000/svg">
<path opacity="0.5" d="M13.0577 4.5C15.3204 4.5 17.2679 5.20134 18.6591 6.41622C19.3524 7.01579 19.9076 7.75836 20.2867 8.59296C20.6656 9.42756 20.8594 10.3343 20.8545 11.2509C20.8597 13.1744 19.9415 14.8571 18.5129 15.9849C17.0863 17.1179 15.1669 17.7455 13.0577 17.7455C10.6569 17.7455 8.43048 16.872 8.43048 16.872V19.6919C8.84234 19.8122 9.51775 20.0705 9.08924 20.5H5.8419C5.41653 20.0747 6.03902 19.8257 6.51005 19.6919V7.73587C5.41757 8.57623 4.85732 9.30252 4.57201 9.84299C4.90401 10.9012 4.27735 10.8483 4.27735 10.8483L3.14648 9.05352C3.14648 9.05352 7.15952 4.5 13.0577 4.5ZM12.8606 5.50739C11.3842 5.50428 9.5572 5.99812 8.43048 6.79802V15.7681C9.4555 16.2733 11.0076 16.6312 12.8502 16.6312H12.8606C14.5164 16.6312 15.9523 16.0161 16.9379 15.0408C17.9256 14.0572 18.4796 12.776 18.4859 11.2198C18.4807 9.62201 17.963 8.24841 17.0126 7.21509C16.0602 6.1859 14.6534 5.50843 12.8606 5.50739Z" fill="white"/>
</svg>
