<svg width="24" height="24" viewBox="0 0 24 24" fill="none" xmlns="http://www.w3.org/2000/svg">
<path opacity="0.5" fill-rule="evenodd" clip-rule="evenodd" d="M23.334 4.9685C22.4854 5.34493 21.5852 5.59212 20.6633 5.70184C21.6343 5.12056 22.3609 4.20627 22.708 3.12917C21.7953 3.67092 20.7967 4.05264 19.7554 4.25784C19.0542 3.51264 18.1271 3.01922 17.1174 2.85389C16.1076 2.68857 15.0716 2.86056 14.1694 3.34325C13.2672 3.82594 12.5492 4.59244 12.1265 5.5242C11.7037 6.45596 11.5998 7.50105 11.8307 8.49784C9.98163 8.40556 8.17266 7.92535 6.52128 7.08841C4.8699 6.25146 3.41305 5.0765 2.24535 3.63984C1.65088 4.66357 1.46874 5.87532 1.736 7.02858C2.00326 8.18183 2.69984 9.18995 3.68402 9.84784C2.94564 9.82463 2.22353 9.62507 1.57802 9.26584C1.57802 9.28517 1.57802 9.3045 1.57802 9.3245C1.57836 10.3987 1.95033 11.4397 2.63081 12.2708C3.31129 13.102 4.25837 13.6721 5.31135 13.8845C4.62654 14.0705 3.90833 14.0978 3.21135 13.9645C3.50811 14.8877 4.08582 15.6952 4.86379 16.2742C5.64175 16.8531 6.58112 17.1747 7.55068 17.1938C5.90337 18.4864 3.86926 19.1876 1.77535 19.1845C1.40458 19.184 1.03417 19.1618 0.666016 19.1178C2.79235 20.4843 5.26715 21.2096 7.79468 21.2072C16.3487 21.2072 21.026 14.1212 21.026 7.97584C21.026 7.77406 21.0216 7.57406 21.0127 7.37584C21.9234 6.71777 22.7095 5.90256 23.334 4.9685Z" fill="white"/>
</svg>
