<svg width="58" height="12" viewBox="0 0 58 12" fill="none" xmlns="http://www.w3.org/2000/svg">
<path d="M0.336 11.46L0 11.088L0.432 6.12H0.756L0.804 6.18L1.476 6.912L1.14 10.716L0.336 11.46ZM0.828 5.82L0.78 5.88H0.456L0.888 0.912L1.296 0.539999L1.968 1.284L1.632 5.088L0.828 5.82ZM1.476 0.372L1.884 0H7.464L7.812 0.372L6.996 1.116H2.16L1.476 0.372ZM7.308 6.012L6.696 6.564V6.552H1.512V6.564L0.984 6L1.608 5.436V5.448H6.792L7.308 6.012ZM7.464 6.18L7.524 6.132H7.848L7.416 11.088L7.008 11.46L6.336 10.716L6.672 6.912L7.464 6.18ZM7.968 0.539999L8.304 0.912L7.872 5.88H7.548L7.5 5.832L6.828 5.1L7.164 1.284L7.968 0.539999ZM6.828 11.628L6.42 12H0.84L0.492 11.628L1.308 10.884H6.144L6.828 11.628Z" fill="white" fill-opacity="0.25"/>
<path d="M10.1329 11.46L9.79688 11.088L10.2289 6.12H10.5529L10.6009 6.18L11.2729 6.912L10.9369 10.716L10.1329 11.46ZM10.6249 5.82L10.5769 5.88H10.2529L10.6849 0.912L11.0929 0.539999L11.7649 1.284L11.4289 5.088L10.6249 5.82ZM11.2729 0.372L11.6809 0H17.2609L17.6089 0.372L16.7929 1.116H11.9569L11.2729 0.372ZM17.1049 6.012L16.4929 6.564V6.552H11.3089V6.564L10.7809 6L11.4049 5.436V5.448H16.5889L17.1049 6.012ZM17.2609 6.18L17.3209 6.132H17.6449L17.2129 11.088L16.8049 11.46L16.1329 10.716L16.4689 6.912L17.2609 6.18ZM17.7649 0.539999L18.1009 0.912L17.6689 5.88H17.3449L17.2969 5.832L16.6249 5.1L16.9609 1.284L17.7649 0.539999ZM16.6249 11.628L16.2169 12H10.6369L10.2889 11.628L11.1049 10.884H15.9409L16.6249 11.628Z" fill="white" fill-opacity="0.25"/>
<path d="M19.9298 11.46L19.5938 11.088L20.0257 6.12H20.3498L20.3978 6.18L21.0697 6.912L20.7337 10.716L19.9298 11.46ZM20.4218 5.82L20.3738 5.88H20.0497L20.4818 0.912L20.8897 0.539999L21.5618 1.284L21.2257 5.088L20.4218 5.82ZM21.0697 0.372L21.4778 0H27.0578L27.4058 0.372L26.5898 1.116H21.7537L21.0697 0.372ZM26.9018 6.012L26.2897 6.564V6.552H21.1057V6.564L20.5777 6L21.2017 5.436V5.448H26.3857L26.9018 6.012ZM27.0578 6.18L27.1178 6.132H27.4417L27.0098 11.088L26.6017 11.46L25.9298 10.716L26.2658 6.912L27.0578 6.18ZM27.5618 0.539999L27.8978 0.912L27.4657 5.88H27.1418L27.0938 5.832L26.4218 5.1L26.7577 1.284L27.5618 0.539999ZM26.4218 11.628L26.0138 12H20.4338L20.0858 11.628L20.9018 10.884H25.7377L26.4218 11.628Z" fill="white" fill-opacity="0.25"/>
<path d="M29.7266 11.46L29.3906 11.088L29.8226 6.12H30.1466L30.1946 6.18L30.8666 6.912L30.5306 10.716L29.7266 11.46ZM30.2186 5.82L30.1706 5.88H29.8466L30.2786 0.912L30.6866 0.539999L31.3586 1.284L31.0226 5.088L30.2186 5.82ZM30.8666 0.372L31.2746 0H36.8546L37.2026 0.372L36.3866 1.116H31.5506L30.8666 0.372ZM36.6986 6.012L36.0866 6.564V6.552H30.9026V6.564L30.3746 6L30.9986 5.436V5.448H36.1826L36.6986 6.012ZM36.8546 6.18L36.9146 6.132H37.2386L36.8066 11.088L36.3986 11.46L35.7266 10.716L36.0626 6.912L36.8546 6.18ZM37.3586 0.539999L37.6946 0.912L37.2626 5.88H36.9386L36.8906 5.832L36.2186 5.1L36.5546 1.284L37.3586 0.539999ZM36.2186 11.628L35.8106 12H30.2306L29.8826 11.628L30.6986 10.884H35.5346L36.2186 11.628Z" fill="white" fill-opacity="0.25"/>
<path d="M38.5995 10.968C38.6395 11.064 38.6595 11.16 38.6595 11.256C38.6595 11.352 38.6395 11.448 38.5995 11.544C38.5595 11.64 38.5075 11.72 38.4435 11.784C38.3795 11.848 38.2995 11.9 38.2035 11.94C38.1075 11.98 38.0115 12 37.9155 12C37.8195 12 37.7235 11.98 37.6275 11.94C37.5315 11.9 37.4515 11.848 37.3875 11.784C37.3235 11.72 37.2715 11.64 37.2315 11.544C37.1915 11.448 37.1715 11.352 37.1715 11.256C37.1715 11.16 37.1915 11.064 37.2315 10.968C37.2715 10.872 37.3235 10.792 37.3875 10.728C37.4515 10.664 37.5315 10.612 37.6275 10.572C37.7235 10.532 37.8195 10.512 37.9155 10.512C38.0115 10.512 38.1075 10.532 38.2035 10.572C38.2995 10.612 38.3795 10.664 38.4435 10.728C38.5075 10.792 38.5595 10.872 38.5995 10.968Z" fill="white" fill-opacity="0.25"/>
<path d="M39.5235 11.46L39.1875 11.088L39.6195 6.12H39.9435L39.9915 6.18L40.6635 6.912L40.3275 10.716L39.5235 11.46ZM40.0155 5.82L39.9675 5.88H39.6435L40.0755 0.912L40.4835 0.539999L41.1555 1.284L40.8195 5.088L40.0155 5.82ZM40.6635 0.372L41.0715 0H46.6515L46.9995 0.372L46.1835 1.116H41.3475L40.6635 0.372ZM46.4955 6.012L45.8835 6.564V6.552H40.6995V6.564L40.1715 6L40.7955 5.436V5.448H45.9795L46.4955 6.012ZM46.6515 6.18L46.7115 6.132H47.0355L46.6035 11.088L46.1955 11.46L45.5235 10.716L45.8595 6.912L46.6515 6.18ZM47.1555 0.539999L47.4915 0.912L47.0595 5.88H46.7355L46.6875 5.832L46.0155 5.1L46.3515 1.284L47.1555 0.539999ZM46.0155 11.628L45.6075 12H40.0275L39.6795 11.628L40.4955 10.884H45.3315L46.0155 11.628Z" fill="white" fill-opacity="0.25"/>
<path d="M49.3204 11.46L48.9844 11.088L49.4164 6.12H49.7404L49.7884 6.18L50.4604 6.912L50.1244 10.716L49.3204 11.46ZM49.8124 5.82L49.7644 5.88H49.4404L49.8724 0.912L50.2804 0.539999L50.9524 1.284L50.6164 5.088L49.8124 5.82ZM50.4604 0.372L50.8684 0H56.4484L56.7964 0.372L55.9804 1.116H51.1444L50.4604 0.372ZM56.2924 6.012L55.6804 6.564V6.552H50.4964V6.564L49.9684 6L50.5924 5.436V5.448H55.7764L56.2924 6.012ZM56.4484 6.18L56.5084 6.132H56.8324L56.4004 11.088L55.9924 11.46L55.3204 10.716L55.6564 6.912L56.4484 6.18ZM56.9524 0.539999L57.2884 0.912L56.8564 5.88H56.5324L56.4844 5.832L55.8124 5.1L56.1484 1.284L56.9524 0.539999ZM55.8124 11.628L55.4044 12H49.8244L49.4764 11.628L50.2924 10.884H55.1284L55.8124 11.628Z" fill="white" fill-opacity="0.25"/>
</svg>
