<svg width="78" height="12" viewBox="0 0 78 12" fill="none" xmlns="http://www.w3.org/2000/svg">
<path d="M1.0799 11.46L0.743896 11.088L1.1759 6.12H1.4999L1.5479 6.18L2.2199 6.912L1.8839 10.716L1.0799 11.46ZM1.5719 5.82L1.5239 5.88H1.1999L1.6319 0.912L2.0399 0.539999L2.7119 1.284L2.3759 5.088L1.5719 5.82ZM2.2199 0.372L2.6279 0H8.2079L8.5559 0.372L7.7399 1.116H2.9039L2.2199 0.372ZM8.0519 6.012L7.4399 6.564V6.552H2.2559V6.564L1.7279 6L2.3519 5.436V5.448H7.5359L8.0519 6.012ZM8.2079 6.18L8.2679 6.132H8.5919L8.1599 11.088L7.7519 11.46L7.0799 10.716L7.4159 6.912L8.2079 6.18ZM8.7119 0.539999L9.0479 0.912L8.6159 5.88H8.2919L8.2439 5.832L7.5719 5.1L7.9079 1.284L8.7119 0.539999ZM7.5719 11.628L7.1639 12H1.5839L1.2359 11.628L2.0519 10.884H6.8879L7.5719 11.628Z" fill="white" fill-opacity="0.25"/>
<path d="M10.8768 11.46L10.5408 11.088L10.9728 6.12H11.2968L11.3448 6.18L12.0168 6.912L11.6808 10.716L10.8768 11.46ZM11.3688 5.82L11.3208 5.88H10.9968L11.4288 0.912L11.8368 0.539999L12.5088 1.284L12.1728 5.088L11.3688 5.82ZM12.0168 0.372L12.4248 0H18.0048L18.3528 0.372L17.5368 1.116H12.7008L12.0168 0.372ZM17.8488 6.012L17.2368 6.564V6.552H12.0528V6.564L11.5248 6L12.1488 5.436V5.448H17.3328L17.8488 6.012ZM18.0048 6.18L18.0648 6.132H18.3888L17.9568 11.088L17.5488 11.46L16.8768 10.716L17.2128 6.912L18.0048 6.18ZM18.5088 0.539999L18.8448 0.912L18.4128 5.88H18.0888L18.0408 5.832L17.3688 5.1L17.7048 1.284L18.5088 0.539999ZM17.3688 11.628L16.9608 12H11.3808L11.0328 11.628L11.8488 10.884H16.6848L17.3688 11.628Z" fill="white" fill-opacity="0.25"/>
<path d="M20.6736 11.46L20.3376 11.088L20.7696 6.12H21.0936L21.1416 6.18L21.8136 6.912L21.4776 10.716L20.6736 11.46ZM21.1656 5.82L21.1176 5.88H20.7936L21.2256 0.912L21.6336 0.539999L22.3056 1.284L21.9696 5.088L21.1656 5.82ZM21.8136 0.372L22.2216 0H27.8016L28.1496 0.372L27.3336 1.116H22.4976L21.8136 0.372ZM27.6456 6.012L27.0336 6.564V6.552H21.8496V6.564L21.3216 6L21.9456 5.436V5.448H27.1296L27.6456 6.012ZM27.8016 6.18L27.8616 6.132H28.1856L27.7536 11.088L27.3456 11.46L26.6736 10.716L27.0096 6.912L27.8016 6.18ZM28.3056 0.539999L28.6416 0.912L28.2096 5.88H27.8856L27.8376 5.832L27.1656 5.1L27.5016 1.284L28.3056 0.539999ZM27.1656 11.628L26.7576 12H21.1776L20.8296 11.628L21.6456 10.884H26.4816L27.1656 11.628Z" fill="white" fill-opacity="0.25"/>
<path d="M30.4705 11.46L30.1345 11.088L30.5665 6.12H30.8905L30.9385 6.18L31.6105 6.912L31.2745 10.716L30.4705 11.46ZM30.9625 5.82L30.9145 5.88H30.5905L31.0225 0.912L31.4305 0.539999L32.1025 1.284L31.7665 5.088L30.9625 5.82ZM31.6105 0.372L32.0185 0H37.5985L37.9465 0.372L37.1305 1.116H32.2945L31.6105 0.372ZM37.4425 6.012L36.8305 6.564V6.552H31.6465V6.564L31.1185 6L31.7425 5.436V5.448H36.9265L37.4425 6.012ZM37.5985 6.18L37.6585 6.132H37.9825L37.5505 11.088L37.1425 11.46L36.4705 10.716L36.8065 6.912L37.5985 6.18ZM38.1025 0.539999L38.4385 0.912L38.0065 5.88H37.6825L37.6345 5.832L36.9625 5.1L37.2985 1.284L38.1025 0.539999ZM36.9625 11.628L36.5545 12H30.9745L30.6265 11.628L31.4425 10.884H36.2785L36.9625 11.628Z" fill="white" fill-opacity="0.25"/>
<path d="M39.3434 10.968C39.3834 11.064 39.4034 11.16 39.4034 11.256C39.4034 11.352 39.3834 11.448 39.3434 11.544C39.3034 11.64 39.2514 11.72 39.1874 11.784C39.1234 11.848 39.0434 11.9 38.9474 11.94C38.8514 11.98 38.7554 12 38.6594 12C38.5634 12 38.4674 11.98 38.3714 11.94C38.2754 11.9 38.1954 11.848 38.1314 11.784C38.0674 11.72 38.0154 11.64 37.9754 11.544C37.9354 11.448 37.9154 11.352 37.9154 11.256C37.9154 11.16 37.9354 11.064 37.9754 10.968C38.0154 10.872 38.0674 10.792 38.1314 10.728C38.1954 10.664 38.2754 10.612 38.3714 10.572C38.4674 10.532 38.5634 10.512 38.6594 10.512C38.7554 10.512 38.8514 10.532 38.9474 10.572C39.0434 10.612 39.1234 10.664 39.1874 10.728C39.2514 10.792 39.3034 10.872 39.3434 10.968Z" fill="white" fill-opacity="0.25"/>
<path d="M40.2674 11.46L39.9314 11.088L40.3634 6.12H40.6874L40.7354 6.18L41.4074 6.912L41.0714 10.716L40.2674 11.46ZM40.7594 5.82L40.7114 5.88H40.3874L40.8194 0.912L41.2274 0.539999L41.8994 1.284L41.5634 5.088L40.7594 5.82ZM41.4074 0.372L41.8154 0H47.3954L47.7434 0.372L46.9274 1.116H42.0914L41.4074 0.372ZM47.2394 6.012L46.6274 6.564V6.552H41.4434V6.564L40.9154 6L41.5394 5.436V5.448H46.7234L47.2394 6.012ZM47.3954 6.18L47.4554 6.132H47.7794L47.3474 11.088L46.9394 11.46L46.2674 10.716L46.6034 6.912L47.3954 6.18ZM47.8994 0.539999L48.2354 0.912L47.8034 5.88H47.4794L47.4314 5.832L46.7594 5.1L47.0954 1.284L47.8994 0.539999ZM46.7594 11.628L46.3514 12H40.7714L40.4234 11.628L41.2394 10.884H46.0754L46.7594 11.628Z" fill="white" fill-opacity="0.25"/>
<path d="M50.0643 11.46L49.7283 11.088L50.1603 6.12H50.4843L50.5323 6.18L51.2043 6.912L50.8683 10.716L50.0643 11.46ZM50.5563 5.82L50.5083 5.88H50.1843L50.6163 0.912L51.0243 0.539999L51.6963 1.284L51.3603 5.088L50.5563 5.82ZM51.2043 0.372L51.6123 0H57.1923L57.5403 0.372L56.7243 1.116H51.8883L51.2043 0.372ZM57.0363 6.012L56.4243 6.564V6.552H51.2403V6.564L50.7123 6L51.3363 5.436V5.448H56.5203L57.0363 6.012ZM57.1923 6.18L57.2523 6.132H57.5763L57.1443 11.088L56.7363 11.46L56.0643 10.716L56.4003 6.912L57.1923 6.18ZM57.6963 0.539999L58.0323 0.912L57.6003 5.88H57.2763L57.2283 5.832L56.5563 5.1L56.8923 1.284L57.6963 0.539999ZM56.5563 11.628L56.1483 12H50.5683L50.2203 11.628L51.0363 10.884H55.8723L56.5563 11.628Z" fill="white" fill-opacity="0.25"/>
<path d="M58.9371 10.968C58.9771 11.064 58.9971 11.16 58.9971 11.256C58.9971 11.352 58.9771 11.448 58.9371 11.544C58.8971 11.64 58.8451 11.72 58.7811 11.784C58.7171 11.848 58.6371 11.9 58.5411 11.94C58.4451 11.98 58.3491 12 58.2531 12C58.1571 12 58.0611 11.98 57.9651 11.94C57.8691 11.9 57.7891 11.848 57.7251 11.784C57.6611 11.72 57.6091 11.64 57.5691 11.544C57.5291 11.448 57.5091 11.352 57.5091 11.256C57.5091 11.16 57.5291 11.064 57.5691 10.968C57.6091 10.872 57.6611 10.792 57.7251 10.728C57.7891 10.664 57.8691 10.612 57.9651 10.572C58.0611 10.532 58.1571 10.512 58.2531 10.512C58.3491 10.512 58.4451 10.532 58.5411 10.572C58.6371 10.612 58.7171 10.664 58.7811 10.728C58.8451 10.792 58.8971 10.872 58.9371 10.968Z" fill="white" fill-opacity="0.25"/>
<path d="M59.8611 11.46L59.5251 11.088L59.9571 6.12H60.2811L60.3291 6.18L61.0011 6.912L60.6651 10.716L59.8611 11.46ZM60.3531 5.82L60.3051 5.88H59.9811L60.4131 0.912L60.8211 0.539999L61.4931 1.284L61.1571 5.088L60.3531 5.82ZM61.0011 0.372L61.4091 0H66.9891L67.3372 0.372L66.5211 1.116H61.6851L61.0011 0.372ZM66.8331 6.012L66.2211 6.564V6.552H61.0371V6.564L60.5091 6L61.1331 5.436V5.448H66.3171L66.8331 6.012ZM66.9891 6.18L67.0491 6.132H67.3731L66.9411 11.088L66.5331 11.46L65.8611 10.716L66.1971 6.912L66.9891 6.18ZM67.4931 0.539999L67.8291 0.912L67.3971 5.88H67.0732L67.0251 5.832L66.3531 5.1L66.6891 1.284L67.4931 0.539999ZM66.3531 11.628L65.9451 12H60.3651L60.0171 11.628L60.8331 10.884H65.6691L66.3531 11.628Z" fill="white" fill-opacity="0.25"/>
<path d="M69.658 11.46L69.322 11.088L69.754 6.12H70.078L70.126 6.18L70.798 6.912L70.462 10.716L69.658 11.46ZM70.15 5.82L70.102 5.88H69.778L70.21 0.912L70.618 0.539999L71.29 1.284L70.954 5.088L70.15 5.82ZM70.798 0.372L71.206 0H76.786L77.134 0.372L76.318 1.116H71.482L70.798 0.372ZM76.63 6.012L76.018 6.564V6.552H70.834V6.564L70.306 6L70.93 5.436V5.448H76.114L76.63 6.012ZM76.786 6.18L76.846 6.132H77.17L76.738 11.088L76.33 11.46L75.658 10.716L75.994 6.912L76.786 6.18ZM77.29 0.539999L77.626 0.912L77.194 5.88H76.87L76.822 5.832L76.15 5.1L76.486 1.284L77.29 0.539999ZM76.15 11.628L75.742 12H70.162L69.814 11.628L70.63 10.884H75.466L76.15 11.628Z" fill="white" fill-opacity="0.25"/>
</svg>
