<svg width="21" height="25" viewBox="0 0 21 25" fill="none" xmlns="http://www.w3.org/2000/svg">
<g id="Vector">
<path d="M17.2857 0.452554C17.3675 0.332272 17.5519 0.438692 17.4886 0.569662L12.9358 9.99351C12.385 11.1337 12.7418 12.5051 13.7785 13.2322L20.6467 18.0498C20.7641 18.1321 20.6597 18.3129 20.5298 18.2524L12.9247 14.7137C11.7761 14.1792 10.4094 14.5565 9.6977 15.6045L3.76048 24.3474C3.67872 24.4678 3.49425 24.3613 3.55764 24.2303L8.1606 14.7171C8.71237 13.5767 8.35578 12.2045 7.31863 11.477L0.451462 6.66018C0.334104 6.57786 0.438464 6.39711 0.568431 6.45758L8.1747 9.99688C9.32277 10.5311 10.6888 10.1544 11.4008 9.10728L17.2857 0.452554Z" fill="#1C84E5"/>
<path d="M2.52653 7.10969C4.3262 4.98584 8.53476 4.90757 12.5978 6.92921L12.317 7.34224C9.75972 6.20605 5.38423 5.31064 3.39779 7.51509L2.52653 7.10969Z" fill="white"/>
<path d="M14.2266 7.86164C18.077 10.3737 20.1575 14.1051 19.201 16.7489L18.4146 16.1972C19.3542 13.3323 16.2879 9.92926 14.0115 8.30679L14.2266 7.86164Z" fill="white"/>
<path d="M2.74742 8.55749L1.96642 8.00967C0.289976 11.8667 4.53954 15.8003 7.60569 17.5705C10.6488 19.3275 16.2169 21.0563 18.7115 17.6654L17.8469 17.263C15.6299 20.1189 10.5656 18.7371 7.84054 17.1638C5.0983 15.5805 1.39497 11.9044 2.74742 8.55749Z" fill="white"/>
</g>
</svg>
