<svg width="720" height="258" viewBox="0 0 720 258" fill="none" xmlns="http://www.w3.org/2000/svg">
<g clip-path="url(#clip0_952_2)">
<path fill-rule="evenodd" clip-rule="evenodd" d="M116.727 102.905H127.262L118.757 117.636H108.222L116.727 102.905ZM103.489 102.905H113.931L105.426 117.636H94.983L103.489 102.905ZM40.514 108.313H97.662L90.88 120.061H111.856C94.759 148.87 87.063 159.777 78.438 167.608C63.148 181.5 46.801 186.72 18.646 186.72H0L12.38 165.276H29.721C47.433 165.276 51.632 164.624 58.22 160.803C62.896 158.191 66.167 155.116 70.327 149.522C72.88 146.071 76.697 140.104 79.819 134.697C80.519 133.485 81.433 131.9 82.632 129.662H28.188L40.514 108.313Z" fill="#128AFA"/>
<path fill-rule="evenodd" clip-rule="evenodd" d="M157.923 106.914H180.298L146.709 165.091C151.356 165.276 155.54 162.388 158.732 156.7L175.741 127.239H196.718L178.847 158.191C169.165 176.093 152.802 186.346 133.807 186.627H111.9L157.923 106.914ZM127.646 149.988C118.172 166.397 114.081 171.711 106.146 177.863C97.29 184.484 87.987 187.84 74.941 188.959L87.698 166.863C94.909 165.837 97.345 163.881 102.39 155.302L130.326 106.915H152.514L127.646 149.988Z" fill="#128AFA"/>
<path fill-rule="evenodd" clip-rule="evenodd" d="M195.224 136.469H277.917L265.752 157.538H183.058L195.224 136.469Z" fill="#128AFA"/>
<path fill-rule="evenodd" clip-rule="evenodd" d="M258.398 169.101C266.694 169.101 271.424 168.821 274.801 167.98C282.697 165.929 288.797 161.175 292.3 154.463L301.02 139.36H320.691C329.283 139.173 333.563 136.285 338.567 127.614H281.791L293.095 108.034H373.645C361.817 128.359 355.625 137.308 349.261 143.648C338.585 153.905 326.703 158.658 310.988 158.753C305.579 167.796 302.117 172.177 296.83 176.653C288.398 183.831 279.307 187.467 266.363 189.053C261.472 189.613 255.385 189.985 249.603 189.985C249.138 189.985 247.74 189.985 246.395 189.89L258.398 169.101Z" fill="white"/>
<path fill-rule="evenodd" clip-rule="evenodd" d="M527.864 140.852L588.545 120.527C599.02 117.076 600.76 115.68 606.902 106.169H629.929C617.033 127.053 613.381 129.663 582.486 140.385L554.386 189.052H531.641L554.303 149.803L515.324 162.575L527.864 140.852Z" fill="white"/>
<mask id="mask0_952_2" style="mask-type:luminance" maskUnits="userSpaceOnUse" x="592" y="102" width="128" height="85">
<path fill-rule="evenodd" clip-rule="evenodd" d="M592.737 102.905H720V186.721H592.737V102.905Z" fill="white"/>
</mask>
<g mask="url(#mask0_952_2)">
<path fill-rule="evenodd" clip-rule="evenodd" d="M709.465 102.905H720L711.495 117.636H700.961L709.465 102.905ZM696.226 102.905H706.668L698.164 117.637H687.72L696.226 102.905ZM633.253 108.314H690.401L683.618 120.062H704.594C687.497 148.871 679.801 159.778 671.178 167.609C655.886 181.502 639.539 186.722 611.386 186.722H592.739L605.119 165.278H622.46C640.173 165.278 644.371 164.626 650.961 160.805C655.636 158.193 658.908 155.118 663.068 149.524C665.619 146.073 669.437 140.106 672.56 134.699C673.26 133.487 674.174 131.902 675.372 129.664H620.929L633.253 108.314Z" fill="white"/>
</g>
<path fill-rule="evenodd" clip-rule="evenodd" d="M383.266 136.469L371.101 157.538H430.256L442.422 136.469H383.266Z" fill="white"/>
<path fill-rule="evenodd" clip-rule="evenodd" d="M474.164 157.225C471.554 156.242 468.957 155.236 466.371 154.215C463.102 152.909 459.866 151.551 456.643 150.17C449.077 160.392 441.759 164.421 429.9 166.024L416.927 188.492C442.286 186.016 458.411 177.674 474.164 157.225Z" fill="white"/>
<path fill-rule="evenodd" clip-rule="evenodd" d="M497.727 119.593L505.801 105.609H482.959L474.886 119.593H456.332L452.102 126.922C459.141 132.19 466.103 137.588 472.901 143.262C475.244 145.233 477.574 147.23 479.889 149.251C481.809 146.394 483.741 143.353 485.699 140.105H501.641L492.544 155.862C491.871 157.027 491.218 158.058 490.568 158.991C492.411 160.765 494.232 162.583 496.011 164.465C493.306 163.739 490.65 162.938 488.019 162.089C485.009 165.081 481.649 166.116 476.461 166.116L470.548 166.021L458.597 186.72C477.67 186.627 480.495 186.255 489.015 182.804C500.071 177.861 505.847 171.895 514.983 156.233L536.137 119.592L497.727 119.593Z" fill="white"/>
<path fill-rule="evenodd" clip-rule="evenodd" d="M327.076 114.61C323.835 111.213 320.768 107.665 317.902 103.963C311.807 95.998 306.644 87.228 303.818 77.874C302.383 73.226 301.599 68.415 301.858 63.746C301.858 62.571 302.081 61.432 302.204 60.281C302.469 59.164 302.622 58.013 303.02 56.94C303.644 54.74 304.678 52.695 305.894 50.789C307.056 48.838 308.645 47.179 310.297 45.61C312.003 44.081 313.931 42.78 315.963 41.632C320.08 39.399 324.701 37.955 329.448 37.056C338.984 35.26 349.021 35.56 358.847 36.966C378.571 39.861 397.718 47.015 415.325 56.709C432.884 66.486 449.177 78.915 462.069 94.315C468.43 102.027 473.954 110.57 477.151 119.945C478.144 122.865 478.901 125.87 479.291 128.899H482.622C482.265 125.47 481.485 122.103 480.438 118.859C477.181 108.851 471.551 99.913 465.1 91.844C452.025 75.753 435.534 62.806 417.693 52.518C399.827 42.253 380.328 34.5 359.737 31.075C349.447 29.515 338.824 28.968 328.283 30.913C323.043 31.949 317.823 33.597 312.993 36.264C310.601 37.635 308.297 39.215 306.221 41.107C304.196 43.039 302.258 45.133 300.809 47.574C299.348 49.987 298.143 52.584 297.437 55.308C296.995 56.648 296.824 58.041 296.552 59.411C296.427 60.792 296.218 62.175 296.244 63.553C296.111 69.088 297.311 74.437 299.072 79.443C302.7 89.472 308.691 98.182 315.407 105.998C318.007 108.998 320.74 111.865 323.581 114.611" fill="white"/>
<mask id="mask1_952_2" style="mask-type:luminance" maskUnits="userSpaceOnUse" x="297" y="0" width="152" height="258">
<path fill-rule="evenodd" clip-rule="evenodd" d="M297.113 0H448.901V257.797H297.113V0Z" fill="white"/>
</mask>
<g mask="url(#mask1_952_2)">
<path fill-rule="evenodd" clip-rule="evenodd" d="M448.901 0C437.997 22.511 426.261 44.53 414.231 66.379C408.295 77.349 402.057 88.141 395.96 99.017L377.219 131.38L358.024 163.473C351.465 174.077 345.065 184.775 338.348 195.285C325.083 216.405 311.517 237.346 297.111 257.797C308.005 235.28 319.737 213.257 331.769 191.41C337.7 180.437 343.951 169.651 350.04 158.772L368.792 126.417L387.998 94.329C394.552 83.723 400.962 73.032 407.674 62.518C420.946 41.402 434.508 20.456 448.901 0Z" fill="#128AFA"/>
</g>
<path fill-rule="evenodd" clip-rule="evenodd" d="M494.929 163.919C476.673 154.56 458.739 144.665 440.917 134.581C431.976 129.589 423.15 124.403 414.271 119.307L387.807 103.732L361.516 87.862C352.814 82.468 344.052 77.178 335.41 71.682C318.064 60.798 300.833 49.722 283.925 38.103C302.184 47.455 320.12 57.348 337.942 67.435C346.885 72.424 355.706 77.618 364.588 82.709L391.049 98.292L417.335 114.169C426.039 119.56 434.798 124.858 443.439 130.35C460.785 141.235 478.017 152.309 494.929 163.919Z" fill="#128AFA"/>
<path fill-rule="evenodd" clip-rule="evenodd" d="M355.327 218.505C358.299 218.461 359.482 217.879 360.816 215.648L361.899 213.772C362.912 211.942 362.417 211.406 359.63 211.362H347.885L343.761 218.506L355.327 218.505ZM345.336 233.95C349.758 233.95 350.563 233.637 352.275 231.138L353.718 228.638C355.065 226.228 354.308 225.602 349.915 225.558H339.688L334.843 233.95H345.336ZM364.927 204.35C371.923 204.217 374.22 206.27 371.946 210.602L368.774 216.092C367.081 218.948 365.196 220.513 361.481 222.074L361.43 222.164C364.053 223.727 364.197 225.021 362.156 228.638L358.856 234.351C357.445 236.719 355.081 238.727 352.22 239.889C349.825 240.869 349.102 240.959 344.703 241.003H322.779L343.941 204.349H364.927V204.35Z" fill="white"/>
<path fill-rule="evenodd" clip-rule="evenodd" d="M390.669 204.306L369.481 241.004H361.398L382.585 204.306H390.669Z" fill="white"/>
<path fill-rule="evenodd" clip-rule="evenodd" d="M399.26 213.013L389.233 230.379C387.346 233.728 387.437 234.264 390.224 234.308H396.701C398.869 234.264 399.868 233.459 401.716 230.335L411.719 213.013H419.489L407.992 232.922C404.885 238.46 400.942 240.96 395.112 241.005H383.992C378.154 241.139 376.983 238.685 380.269 233.147L391.894 213.014H399.26V213.013Z" fill="white"/>
<path fill-rule="evenodd" clip-rule="evenodd" d="M437.269 224.129L438.249 222.433C439.44 220.29 439.17 219.754 436.873 219.71H431.071C428.318 219.754 427.64 220.156 426.152 222.656L425.302 224.129H437.269ZM421.822 230.157L420.767 231.987C419.812 233.95 420.318 234.309 423.757 234.309H439.788L435.923 241.005H418.552C411.484 241.184 409.745 238.236 413.355 231.987L419.206 221.851C422.627 216.002 426.74 213.056 431.588 213.013H443.778C449.478 213.19 450.291 215.11 447.117 220.914L441.782 230.157H421.822Z" fill="white"/>
<path fill-rule="evenodd" clip-rule="evenodd" d="M470.989 225.425L474.759 210.467L461.568 225.425H470.989ZM473.111 204.351H484.094L475.079 241.005H466.551L468.66 232.478H455.488L447.974 241.005H439.49L473.111 204.351Z" fill="white"/>
<path fill-rule="evenodd" clip-rule="evenodd" d="M507.061 219.709H503.22C500.02 219.842 499.281 220.423 497.031 224.397L487.443 241.004H479.405L490.103 222.475C493.906 215.734 497.373 213.055 502.4 213.013H510.928L507.061 219.709Z" fill="white"/>
<path fill-rule="evenodd" clip-rule="evenodd" d="M535.817 219.709H523.67C519.584 219.753 518.674 220.243 516.723 223.548L513.189 229.664C511.849 231.986 511.429 232.789 511.416 232.969C511.409 234.218 511.562 234.263 514.84 234.308H527.387L523.522 241.004H506.597C500.961 240.87 500.207 238.772 503.509 232.746L510.287 221.003C513.567 215.244 516.851 213.189 522.983 213.012H539.682L535.817 219.709Z" fill="white"/>
<path fill-rule="evenodd" clip-rule="evenodd" d="M549.933 204.306H557.655L552.654 212.969H564.621C570.608 213.192 571.101 215.514 566.835 222.746L556.295 241.005H548.57L558.132 224.443C560.483 220.291 560.416 219.709 557.273 219.664H548.789L536.466 241.005H528.744L549.933 204.306Z" fill="white"/>
<path fill-rule="evenodd" clip-rule="evenodd" d="M590.856 205.422L587.633 211.003H579.773L582.996 205.422H590.856ZM578.614 213.013H586.474L570.312 241.005H562.452L578.614 213.013Z" fill="white"/>
<path fill-rule="evenodd" clip-rule="evenodd" d="M593.096 234.175L611.521 213.013H620.318L594.422 241.005H584.242L590.981 213.013H599.242L593.096 234.175Z" fill="white"/>
<path fill-rule="evenodd" clip-rule="evenodd" d="M636.536 224.129L637.516 222.433C638.707 220.29 638.435 219.754 636.141 219.71H630.336C627.587 219.754 626.908 220.156 625.421 222.656L624.569 224.129H636.536ZM621.089 230.157L620.032 231.987C619.078 233.95 619.585 234.309 623.024 234.309H639.055L635.188 241.005H617.817C610.75 241.184 609.014 238.236 612.62 231.987L618.474 221.851C621.893 216.002 626.006 213.056 630.854 213.013H643.044C648.746 213.19 649.557 215.11 646.385 220.914L641.049 230.157H621.089Z" fill="white"/>
</g>
<defs>
<clipPath id="clip0_952_2">
<rect width="720" height="257.797" fill="white"/>
</clipPath>
</defs>
</svg>
