<svg width="22" height="20" viewBox="0 0 22 20" fill="none" xmlns="http://www.w3.org/2000/svg">
<path id="Vector" d="M16.1093 3.796H16.877C18.2343 3.84454 19.366 4.31555 20.2684 5.21084C21.1709 6.10522 21.6383 7.23241 21.6707 8.59061V15.2063C21.6383 16.5636 21.1709 17.6953 20.2684 18.5978C19.366 19.5003 18.2352 19.9677 16.877 20H4.89136C3.53406 19.9677 2.40238 19.5003 1.4999 18.5978C0.597432 17.6953 0.130016 16.5645 0.0976562 15.2063V8.59061C0.130016 7.23241 0.597432 6.10522 1.4999 5.21084C2.40238 4.31555 3.53316 3.84454 4.89136 3.796H5.58709L4.53181 2.78926C4.42329 2.6836 4.33755 2.55683 4.27988 2.41677C4.22222 2.27671 4.19385 2.12632 4.19653 1.97488C4.19653 1.65488 4.30799 1.38342 4.53181 1.1596L4.55608 1.13533C4.79608 0.911509 5.07114 0.800049 5.38305 0.800049C5.69496 0.800049 5.97002 0.911509 6.21002 1.13533L8.77451 3.60454C8.83833 3.66836 8.89496 3.73218 8.9426 3.796H12.7781C12.8155 3.72491 12.8641 3.66027 12.9219 3.60454L15.4864 1.13533C15.7264 0.911509 16.0015 0.800049 16.3134 0.800049C16.6253 0.800049 16.9084 0.935779 17.1484 1.1596C17.3884 1.38342 17.4999 1.65488 17.4999 1.97488C17.4999 2.29398 17.3884 2.56544 17.1646 2.78926L16.1093 3.796ZM4.89136 6.1214C4.2208 6.13758 3.65721 6.36949 3.20148 6.81623C2.74664 7.26387 2.51024 7.83196 2.49496 8.5187V15.2783C2.51024 15.965 2.74664 16.5322 3.20148 16.9798C3.65721 17.4275 4.2208 17.6594 4.89136 17.6747H16.877C17.5475 17.6594 18.1111 17.4275 18.5669 16.9798C19.0217 16.5322 19.2581 15.965 19.2734 15.2783V8.5187C19.2581 7.83106 19.0217 7.26387 18.5669 6.81623C18.1111 6.36949 17.5475 6.13758 16.877 6.1214H4.89136ZM7.28867 9.59735C7.62395 9.59735 7.9035 9.70881 8.12732 9.93263C8.35204 10.1565 8.47159 10.4441 8.48687 10.7956V11.8499C8.47159 12.2014 8.35204 12.489 8.12732 12.7129C7.9035 12.9376 7.62395 13.049 7.28867 13.049C6.95339 13.049 6.67384 12.9367 6.45002 12.7129C6.2253 12.489 6.10575 12.2014 6.09046 11.8499V10.7956C6.09046 10.4603 6.20642 10.1762 6.43743 9.94432C6.66934 9.71331 6.95339 9.59735 7.28867 9.59735ZM14.4797 9.59735C14.815 9.59735 15.0945 9.70881 15.3183 9.93263C15.543 10.1565 15.6626 10.4441 15.6779 10.7956V11.8499C15.6626 12.2014 15.543 12.489 15.3183 12.7129C15.0945 12.9376 14.815 13.049 14.4797 13.049C14.1444 13.049 13.8648 12.9367 13.641 12.7129C13.4163 12.489 13.2968 12.2014 13.2815 11.8499V10.7956C13.2968 10.4441 13.4163 10.1565 13.641 9.93263C13.8648 9.70881 14.1444 9.59735 14.4797 9.59735Z" fill="#EEEEEE"/>
</svg>
