<svg width="24" height="24" viewBox="0 0 24 24" fill="none" xmlns="http://www.w3.org/2000/svg">
<path d="M11.9669 0C8.67921 0 5.78614 1.21668 3.55045 3.48494C1.24925 5.81947 0 8.84394 0 12.0002C0 15.189 1.2163 18.148 3.51788 20.4496C5.81909 22.7508 8.81099 24 11.9669 24C15.1227 24 18.1805 22.7508 20.5476 20.4166C22.7833 18.2139 23.9667 15.2878 23.9667 12.0002C23.9667 8.74548 22.7833 5.78652 20.5147 3.51788C18.2135 1.21668 15.2545 0 11.9669 0ZM11.9998 2.17018C14.6956 2.17018 17.0956 3.18919 18.9697 5.06325C20.8104 6.90437 21.7969 9.33735 21.7969 12.0002C21.7969 14.696 20.8434 17.0631 19.0023 18.8716C17.0623 20.7782 14.5638 21.7976 11.9994 21.7976C9.4021 21.7976 6.96912 20.7786 5.09544 18.9046C3.22138 17.0301 2.16942 14.5646 2.16942 12.0002C2.16942 9.40286 3.22138 6.93731 5.09544 5.03031C6.93655 3.15663 9.30403 2.17018 11.9998 2.17018ZM11.8449 10.0061C11.1671 8.7701 10.0106 8.2782 8.66823 8.2782C6.71427 8.2782 5.15906 9.66036 5.15906 12.0002C5.15906 14.3794 6.62112 15.7222 8.73488 15.7222C10.0909 15.7222 11.247 14.9777 11.8851 13.8481L10.3961 13.0904C10.0636 13.8879 9.55887 14.1272 8.92081 14.1272C7.81735 14.1272 7.31258 13.2101 7.31258 12.0006C7.31258 10.7911 7.73783 9.87355 8.92081 9.87355C9.23965 9.87355 9.87772 10.0466 10.25 10.8437L11.8449 10.0061ZM15.5912 8.2782C16.9336 8.2782 18.0896 8.7701 18.7679 10.0061L17.1729 10.8437C16.8003 10.0466 16.1622 9.87355 15.8434 9.87355C14.6604 9.87355 14.2347 10.7911 14.2347 12.0006C14.2347 13.2101 14.7403 14.1272 15.8434 14.1272C16.4814 14.1272 16.9866 13.8879 17.3187 13.0904L18.8076 13.8481C18.1695 14.9777 17.0135 15.7222 15.6574 15.7222C13.544 15.7222 12.0816 14.3794 12.0816 12.0002C12.0816 9.66036 13.6372 8.2782 15.5912 8.2782Z" fill="white"/>
</svg>
