<svg width="1450" height="650" viewBox="0 0 1450 650" fill="none" xmlns="http://www.w3.org/2000/svg">
<g clip-path="url(#clip0_45_27)">
<rect width="1450" height="650" fill="white"/>
<g opacity="0.02">
<path d="M-15 135.394H21.5159V85.3254H68.3843V135.394H104.9V3.63517H68.3843V52.9505H21.5159V3.63517H-15V135.394Z" fill="url(#paint0_linear_45_27)"/>
<path d="M114.075 135.394H152.285L161.696 111.677H212.705L222.117 135.394H261.268L205.176 2.69404H169.978L114.075 135.394ZM172.425 83.2549L187.295 45.9861L201.976 83.2549H172.425Z" fill="url(#paint1_linear_45_27)"/>
<path d="M325.453 138.029C354.44 138.029 371.004 125.418 383.615 108.289L356.134 88.7135C348.04 98.313 340.135 104.713 326.394 104.713C307.948 104.713 294.96 89.2782 294.96 69.5144V69.1379C294.96 49.9389 307.948 34.1278 326.394 34.1278C339.193 34.1278 347.664 40.3393 355.193 49.5624L382.674 28.2928C371.192 12.2936 353.499 1 326.771 1C286.867 1 257.503 31.1162 257.503 69.5144V69.8909C257.503 109.23 287.808 138.029 325.453 138.029Z" fill="url(#paint2_linear_45_27)"/>
<path d="M395.745 135.394H432.261V85.3254H479.129V135.394H515.645V3.63517H479.129V52.9505H432.261V3.63517H395.745V135.394Z" fill="url(#paint3_linear_45_27)"/>
<path d="M536.114 135.394H572.629V3.63517H536.114V135.394Z" fill="url(#paint4_linear_45_27)"/>
<path d="M592.986 135.394H629.502V95.4896H645.689L672.229 135.394H714.204L682.77 89.4664C699.334 82.502 709.874 69.1379 709.874 48.8095V48.433C709.874 35.8219 705.922 25.4694 698.204 17.7522C689.358 8.90551 675.617 3.63517 655.289 3.63517H592.986V135.394ZM629.502 66.8792V35.069H653.595C665.641 35.069 673.359 40.3393 673.359 50.88V51.2564C673.359 60.856 666.018 66.8792 653.783 66.8792H629.502Z" fill="url(#paint5_linear_45_27)"/>
<path d="M790.953 138.029C831.61 138.029 862.103 107.348 862.103 69.5144V69.1379C862.103 31.4927 831.986 1 791.329 1C750.673 1 720.18 31.6809 720.18 69.5144V69.8909C720.18 107.536 750.296 138.029 790.953 138.029ZM791.329 105.089C771.189 105.089 757.449 88.337 757.449 69.5144V69.1379C757.449 50.1271 770.813 33.9396 790.953 33.9396C811.093 33.9396 824.646 50.3153 824.646 69.5144V69.8909C824.646 88.9017 811.281 105.089 791.329 105.089Z" fill="url(#paint6_linear_45_27)"/>
<path d="M877.171 135.394H913.687V101.136L927.051 86.4548L960.367 135.394H1004.04L952.461 60.1031L1002.34 3.63517H959.049L913.687 57.0915V3.63517H877.171V135.394Z" fill="url(#paint7_linear_45_27)"/>
<path d="M1065.78 137.841C1103.24 137.841 1127.52 119.018 1127.52 76.667V3.63517H1090.63V77.7964C1090.63 96.4308 1081.21 104.901 1066.16 104.901C1051.29 104.901 1041.87 95.8661 1041.87 76.8552V3.63517H1004.98V77.6081C1004.98 119.018 1028.51 137.841 1065.78 137.841Z" fill="url(#paint8_linear_45_27)"/>
<path d="M1249.42 137.276C1277.09 137.276 1296.47 122.782 1296.47 97.9366V97.5601C1296.47 75.5376 1281.98 66.1263 1254.31 58.9737C1228.9 52.9505 1222.88 48.433 1222.88 38.2688V37.8924C1222.88 29.0457 1230.78 22.2696 1244.33 22.2696C1256.38 22.2696 1268.05 26.9752 1280.1 35.8219L1292.52 18.3168C1278.97 7.58793 1264.1 1.75291 1244.71 1.75291C1218.55 1.75291 1199.72 17.3757 1199.72 39.9629V40.3393C1199.72 64.4323 1215.54 73.0907 1243.58 79.6786C1268.05 85.1372 1273.32 90.5957 1273.32 99.8188V100.195C1273.32 109.983 1264.29 116.759 1249.98 116.759C1233.61 116.759 1221.18 110.736 1208.38 99.6306L1194.45 116.195C1210.27 130.5 1229.09 137.276 1249.42 137.276Z" fill="url(#paint9_linear_45_27)"/>
<path d="M1349.55 135.394H1372.7V25.093H1414.67V3.63517H1307.57V25.093H1349.55V135.394Z" fill="url(#paint10_linear_45_27)"/>
<path d="M1488.94 137.464C1523.38 137.464 1545.59 117.7 1545.59 78.361V3.63517H1522.44V79.4904C1522.44 103.772 1509.83 116.006 1489.31 116.006C1468.42 116.006 1456 103.207 1456 78.5493V3.63517H1432.84V79.4904C1432.84 117.7 1454.87 137.464 1488.94 137.464Z" fill="url(#paint11_linear_45_27)"/>
<path d="M1573.61 135.394H1622.73C1664.14 135.394 1692.75 106.595 1692.75 69.5144V69.1379C1692.75 32.0574 1664.14 3.63517 1622.73 3.63517H1573.61V135.394ZM1622.73 24.7165C1650.4 24.7165 1668.47 43.7274 1668.47 69.5144V69.8909C1668.47 95.6779 1650.4 114.312 1622.73 114.312H1596.76V24.7165H1622.73Z" fill="url(#paint12_linear_45_27)"/>
<path d="M1718.4 135.394H1741.55V3.63517H1718.4V135.394Z" fill="url(#paint13_linear_45_27)"/>
<path d="M1835.92 137.652C1876.39 137.652 1905 106.407 1905 69.5144V69.1379C1905 32.0574 1876.77 1.37646 1836.3 1.37646C1795.83 1.37646 1767.22 32.622 1767.22 69.5144V69.8909C1767.22 106.971 1795.45 137.652 1835.92 137.652ZM1836.3 116.195C1809.95 116.195 1791.5 95.1132 1791.5 69.5144V69.1379C1791.5 43.5392 1809.76 22.8343 1835.92 22.8343C1862.27 22.8343 1880.72 43.9156 1880.72 69.5144V69.8909C1880.72 95.4896 1862.46 116.195 1836.3 116.195Z" fill="url(#paint14_linear_45_27)"/>
</g>
<g opacity="0.04">
<path d="M-105 305.394H-68.4841V255.325H-21.6157V305.394H14.9002V173.635H-21.6157V222.95H-68.4841V173.635H-105V305.394Z" fill="url(#paint15_linear_45_27)"/>
<path d="M24.0748 305.394H62.2847L71.696 281.677H122.705L132.117 305.394H171.268L115.176 172.694H79.978L24.0748 305.394ZM82.4249 253.255L97.2948 215.986L111.976 253.255H82.4249Z" fill="url(#paint16_linear_45_27)"/>
<path d="M235.453 308.029C264.44 308.029 281.004 295.418 293.615 278.289L266.134 258.713C258.04 268.313 250.135 274.713 236.394 274.713C217.948 274.713 204.96 259.278 204.96 239.514V239.138C204.96 219.939 217.948 204.128 236.394 204.128C249.193 204.128 257.664 210.339 265.193 219.562L292.674 198.293C281.192 182.294 263.499 171 236.771 171C196.867 171 167.503 201.116 167.503 239.514V239.891C167.503 279.23 197.808 308.029 235.453 308.029Z" fill="url(#paint17_linear_45_27)"/>
<path d="M305.745 305.394H342.261V255.325H389.129V305.394H425.645V173.635H389.129V222.95H342.261V173.635H305.745V305.394Z" fill="url(#paint18_linear_45_27)"/>
<path d="M446.114 305.394H482.629V173.635H446.114V305.394Z" fill="url(#paint19_linear_45_27)"/>
<path d="M502.986 305.394H539.502V265.49H555.689L582.229 305.394H624.204L592.77 259.466C609.334 252.502 619.874 239.138 619.874 218.809V218.433C619.874 205.822 615.922 195.469 608.204 187.752C599.358 178.906 585.617 173.635 565.289 173.635H502.986V305.394ZM539.502 236.879V205.069H563.595C575.641 205.069 583.359 210.339 583.359 220.88V221.256C583.359 230.856 576.018 236.879 563.783 236.879H539.502Z" fill="url(#paint20_linear_45_27)"/>
<path d="M700.953 308.029C741.61 308.029 772.103 277.348 772.103 239.514V239.138C772.103 201.493 741.986 171 701.329 171C660.673 171 630.18 201.681 630.18 239.514V239.891C630.18 277.536 660.296 308.029 700.953 308.029ZM701.329 275.089C681.189 275.089 667.449 258.337 667.449 239.514V239.138C667.449 220.127 680.813 203.94 700.953 203.94C721.093 203.94 734.646 220.315 734.646 239.514V239.891C734.646 258.902 721.281 275.089 701.329 275.089Z" fill="url(#paint21_linear_45_27)"/>
<path d="M787.171 305.394H823.687V271.136L837.051 256.455L870.367 305.394H914.035L862.461 230.103L912.341 173.635H869.049L823.687 227.091V173.635H787.171V305.394Z" fill="url(#paint22_linear_45_27)"/>
<path d="M975.78 307.841C1013.24 307.841 1037.52 289.018 1037.52 246.667V173.635H1000.63V247.796C1000.63 266.431 991.214 274.901 976.156 274.901C961.286 274.901 951.875 265.866 951.875 246.855V173.635H914.983V247.608C914.983 289.018 938.511 307.841 975.78 307.841Z" fill="url(#paint23_linear_45_27)"/>
<path d="M1159.42 307.276C1187.09 307.276 1206.47 292.782 1206.47 267.937V267.56C1206.47 245.538 1191.98 236.126 1164.31 228.974C1138.9 222.95 1132.88 218.433 1132.88 208.269V207.892C1132.88 199.046 1140.78 192.27 1154.33 192.27C1166.38 192.27 1178.05 196.975 1190.1 205.822L1202.52 188.317C1188.97 177.588 1174.1 171.753 1154.71 171.753C1128.55 171.753 1109.72 187.376 1109.72 209.963V210.339C1109.72 234.432 1125.54 243.091 1153.58 249.679C1178.05 255.137 1183.32 260.596 1183.32 269.819V270.195C1183.32 279.983 1174.29 286.759 1159.98 286.759C1143.61 286.759 1131.18 280.736 1118.38 269.631L1104.45 286.195C1120.27 300.5 1139.09 307.276 1159.42 307.276Z" fill="url(#paint24_linear_45_27)"/>
<path d="M1259.55 305.394H1282.7V195.093H1324.67V173.635H1217.57V195.093H1259.55V305.394Z" fill="url(#paint25_linear_45_27)"/>
<path d="M1398.94 307.464C1433.38 307.464 1455.59 287.7 1455.59 248.361V173.635H1432.44V249.49C1432.44 273.772 1419.83 286.006 1399.31 286.006C1378.42 286.006 1366 273.207 1366 248.549V173.635H1342.84V249.49C1342.84 287.7 1364.87 307.464 1398.94 307.464Z" fill="url(#paint26_linear_45_27)"/>
<path d="M1483.61 305.394H1532.73C1574.14 305.394 1602.75 276.595 1602.75 239.514V239.138C1602.75 202.057 1574.14 173.635 1532.73 173.635H1483.61V305.394ZM1532.73 194.717C1560.4 194.717 1578.47 213.727 1578.47 239.514V239.891C1578.47 265.678 1560.4 284.312 1532.73 284.312H1506.76V194.717H1532.73Z" fill="url(#paint27_linear_45_27)"/>
<path d="M1628.4 305.394H1651.55V173.635H1628.4V305.394Z" fill="url(#paint28_linear_45_27)"/>
<path d="M1745.92 307.652C1786.39 307.652 1815 276.407 1815 239.514V239.138C1815 202.057 1786.77 171.376 1746.3 171.376C1705.83 171.376 1677.22 202.622 1677.22 239.514V239.891C1677.22 276.971 1705.45 307.652 1745.92 307.652ZM1746.3 286.195C1719.95 286.195 1701.5 265.113 1701.5 239.514V239.138C1701.5 213.539 1719.76 192.834 1745.92 192.834C1772.27 192.834 1790.72 213.916 1790.72 239.514V239.891C1790.72 265.49 1772.46 286.195 1746.3 286.195Z" fill="url(#paint29_linear_45_27)"/>
</g>
<g opacity="0.06">
<path d="M-195 475.394H-158.484V425.325H-111.616V475.394H-75.0998V343.635H-111.616V392.95H-158.484V343.635H-195V475.394Z" fill="url(#paint30_linear_45_27)"/>
<path d="M-65.9252 475.394H-27.7153L-18.304 451.677H32.7054L42.1167 475.394H81.2678L25.1763 342.694H-10.022L-65.9252 475.394ZM-7.57507 423.255L7.29483 385.986L21.9765 423.255H-7.57507Z" fill="url(#paint31_linear_45_27)"/>
<path d="M145.453 478.029C174.44 478.029 191.004 465.418 203.615 448.289L176.134 428.713C168.04 438.313 160.135 444.713 146.394 444.713C127.948 444.713 114.96 429.278 114.96 409.514V409.138C114.96 389.939 127.948 374.128 146.394 374.128C159.193 374.128 167.664 380.339 175.193 389.562L202.674 368.293C191.192 352.294 173.499 341 146.771 341C106.867 341 77.5032 371.116 77.5032 409.514V409.891C77.5032 449.23 107.808 478.029 145.453 478.029Z" fill="url(#paint32_linear_45_27)"/>
<path d="M215.745 475.394H252.261V425.325H299.129V475.394H335.645V343.635H299.129V392.95H252.261V343.635H215.745V475.394Z" fill="url(#paint33_linear_45_27)"/>
<path d="M356.114 475.394H392.629V343.635H356.114V475.394Z" fill="url(#paint34_linear_45_27)"/>
<path d="M412.986 475.394H449.502V435.49H465.689L492.229 475.394H534.204L502.77 429.466C519.334 422.502 529.874 409.138 529.874 388.809V388.433C529.874 375.822 525.922 365.469 518.204 357.752C509.358 348.906 495.617 343.635 475.289 343.635H412.986V475.394ZM449.502 406.879V375.069H473.595C485.641 375.069 493.359 380.339 493.359 390.88V391.256C493.359 400.856 486.018 406.879 473.783 406.879H449.502Z" fill="url(#paint35_linear_45_27)"/>
<path d="M610.953 478.029C651.61 478.029 682.103 447.348 682.103 409.514V409.138C682.103 371.493 651.986 341 611.329 341C570.673 341 540.18 371.681 540.18 409.514V409.891C540.18 447.536 570.296 478.029 610.953 478.029ZM611.329 445.089C591.189 445.089 577.449 428.337 577.449 409.514V409.138C577.449 390.127 590.813 373.94 610.953 373.94C631.093 373.94 644.646 390.315 644.646 409.514V409.891C644.646 428.902 631.281 445.089 611.329 445.089Z" fill="url(#paint36_linear_45_27)"/>
<path d="M697.171 475.394H733.687V441.136L747.051 426.455L780.367 475.394H824.035L772.461 400.103L822.341 343.635H779.049L733.687 397.091V343.635H697.171V475.394Z" fill="url(#paint37_linear_45_27)"/>
<path d="M885.78 477.841C923.237 477.841 947.518 459.018 947.518 416.667V343.635H910.626V417.796C910.626 436.431 901.214 444.901 886.156 444.901C871.286 444.901 861.875 435.866 861.875 416.855V343.635H824.983V417.608C824.983 459.018 848.511 477.841 885.78 477.841Z" fill="url(#paint38_linear_45_27)"/>
<path d="M1069.42 477.276C1097.09 477.276 1116.47 462.782 1116.47 437.937V437.56C1116.47 415.538 1101.98 406.126 1074.31 398.974C1048.9 392.95 1042.88 388.433 1042.88 378.269V377.892C1042.88 369.046 1050.78 362.27 1064.33 362.27C1076.38 362.27 1088.05 366.975 1100.1 375.822L1112.52 358.317C1098.97 347.588 1084.1 341.753 1064.71 341.753C1038.55 341.753 1019.72 357.376 1019.72 379.963V380.339C1019.72 404.432 1035.54 413.091 1063.58 419.679C1088.05 425.137 1093.32 430.596 1093.32 439.819V440.195C1093.32 449.983 1084.29 456.759 1069.98 456.759C1053.61 456.759 1041.18 450.736 1028.38 439.631L1014.45 456.195C1030.27 470.5 1049.09 477.276 1069.42 477.276Z" fill="url(#paint39_linear_45_27)"/>
<path d="M1169.55 475.394H1192.7V365.093H1234.67V343.635H1127.57V365.093H1169.55V475.394Z" fill="url(#paint40_linear_45_27)"/>
<path d="M1308.94 477.464C1343.38 477.464 1365.59 457.7 1365.59 418.361V343.635H1342.44V419.49C1342.44 443.772 1329.83 456.006 1309.31 456.006C1288.42 456.006 1276 443.207 1276 418.549V343.635H1252.84V419.49C1252.84 457.7 1274.87 477.464 1308.94 477.464Z" fill="url(#paint41_linear_45_27)"/>
<path d="M1393.61 475.394H1442.73C1484.14 475.394 1512.75 446.595 1512.75 409.514V409.138C1512.75 372.057 1484.14 343.635 1442.73 343.635H1393.61V475.394ZM1442.73 364.717C1470.4 364.717 1488.47 383.727 1488.47 409.514V409.891C1488.47 435.678 1470.4 454.312 1442.73 454.312H1416.76V364.717H1442.73Z" fill="url(#paint42_linear_45_27)"/>
<path d="M1538.4 475.394H1561.55V343.635H1538.4V475.394Z" fill="url(#paint43_linear_45_27)"/>
<path d="M1655.92 477.652C1696.39 477.652 1725 446.407 1725 409.514V409.138C1725 372.057 1696.77 341.376 1656.3 341.376C1615.83 341.376 1587.22 372.622 1587.22 409.514V409.891C1587.22 446.971 1615.45 477.652 1655.92 477.652ZM1656.3 456.195C1629.95 456.195 1611.5 435.113 1611.5 409.514V409.138C1611.5 383.539 1629.76 362.834 1655.92 362.834C1682.27 362.834 1700.72 383.916 1700.72 409.514V409.891C1700.72 435.49 1682.46 456.195 1656.3 456.195Z" fill="url(#paint44_linear_45_27)"/>
</g>
<g opacity="0.08">
<path d="M-285 645.394H-248.484V595.325H-201.616V645.394H-165.1V513.635H-201.616V562.95H-248.484V513.635H-285V645.394Z" fill="url(#paint45_linear_45_27)"/>
<path d="M-155.925 645.394H-117.715L-108.304 621.677H-57.2946L-47.8833 645.394H-8.73221L-64.8237 512.694H-100.022L-155.925 645.394ZM-97.5751 593.255L-82.7052 555.986L-68.0235 593.255H-97.5751Z" fill="url(#paint46_linear_45_27)"/>
<path d="M55.453 648.029C84.4398 648.029 101.004 635.418 113.615 618.289L86.1339 598.713C78.0402 608.313 70.1346 614.713 56.3941 614.713C37.9479 614.713 24.9603 599.278 24.9603 579.514V579.138C24.9603 559.939 37.9479 544.128 56.3941 544.128C69.1935 544.128 77.6637 550.339 85.1927 559.562L112.674 538.293C101.192 522.294 83.4987 511 56.7706 511C16.8666 511 -12.4968 541.116 -12.4968 579.514V579.891C-12.4968 619.23 17.8077 648.029 55.453 648.029Z" fill="url(#paint47_linear_45_27)"/>
<path d="M125.745 645.394H162.261V595.325H209.129V645.394H245.645V513.635H209.129V562.95H162.261V513.635H125.745V645.394Z" fill="url(#paint48_linear_45_27)"/>
<path d="M266.114 645.394H302.629V513.635H266.114V645.394Z" fill="url(#paint49_linear_45_27)"/>
<path d="M322.986 645.394H359.502V605.49H375.689L402.229 645.394H444.204L412.77 599.466C429.334 592.502 439.874 579.138 439.874 558.809V558.433C439.874 545.822 435.922 535.469 428.204 527.752C419.358 518.906 405.617 513.635 385.289 513.635H322.986V645.394ZM359.502 576.879V545.069H383.595C395.641 545.069 403.359 550.339 403.359 560.88V561.256C403.359 570.856 396.018 576.879 383.783 576.879H359.502Z" fill="url(#paint50_linear_45_27)"/>
<path d="M520.953 648.029C561.61 648.029 592.103 617.348 592.103 579.514V579.138C592.103 541.493 561.986 511 521.329 511C480.673 511 450.18 541.681 450.18 579.514V579.891C450.18 617.536 480.296 648.029 520.953 648.029ZM521.329 615.089C501.189 615.089 487.449 598.337 487.449 579.514V579.138C487.449 560.127 500.813 543.94 520.953 543.94C541.093 543.94 554.646 560.315 554.646 579.514V579.891C554.646 598.902 541.281 615.089 521.329 615.089Z" fill="url(#paint51_linear_45_27)"/>
<path d="M607.171 645.394H643.687V611.136L657.051 596.455L690.367 645.394H734.035L682.461 570.103L732.341 513.635H689.049L643.687 567.091V513.635H607.171V645.394Z" fill="url(#paint52_linear_45_27)"/>
<path d="M795.78 647.841C833.237 647.841 857.518 629.018 857.518 586.667V513.635H820.626V587.796C820.626 606.431 811.214 614.901 796.156 614.901C781.286 614.901 771.875 605.866 771.875 586.855V513.635H734.983V587.608C734.983 629.018 758.511 647.841 795.78 647.841Z" fill="url(#paint53_linear_45_27)"/>
<path d="M979.416 647.276C1007.09 647.276 1026.47 632.782 1026.47 607.937V607.56C1026.47 585.538 1011.98 576.126 984.31 568.974C958.9 562.95 952.876 558.433 952.876 548.269V547.892C952.876 539.046 960.782 532.27 974.334 532.27C986.381 532.27 998.051 536.975 1010.1 545.822L1022.52 528.317C1008.97 517.588 994.098 511.753 974.711 511.753C948.547 511.753 929.725 527.376 929.725 549.963V550.339C929.725 574.432 945.536 583.091 973.581 589.679C998.051 595.137 1003.32 600.596 1003.32 609.819V610.195C1003.32 619.983 994.286 626.759 979.981 626.759C963.605 626.759 951.182 620.736 938.383 609.631L924.454 626.195C940.265 640.5 959.088 647.276 979.416 647.276Z" fill="url(#paint54_linear_45_27)"/>
<path d="M1079.55 645.394H1102.7V535.093H1144.67V513.635H1037.57V535.093H1079.55V645.394Z" fill="url(#paint55_linear_45_27)"/>
<path d="M1218.94 647.464C1253.38 647.464 1275.59 627.7 1275.59 588.361V513.635H1252.44V589.49C1252.44 613.772 1239.83 626.006 1219.31 626.006C1198.42 626.006 1186 613.207 1186 588.549V513.635H1162.84V589.49C1162.84 627.7 1184.87 647.464 1218.94 647.464Z" fill="url(#paint56_linear_45_27)"/>
<path d="M1303.61 645.394H1352.73C1394.14 645.394 1422.75 616.595 1422.75 579.514V579.138C1422.75 542.057 1394.14 513.635 1352.73 513.635H1303.61V645.394ZM1352.73 534.717C1380.4 534.717 1398.47 553.727 1398.47 579.514V579.891C1398.47 605.678 1380.4 624.312 1352.73 624.312H1326.76V534.717H1352.73Z" fill="url(#paint57_linear_45_27)"/>
<path d="M1448.4 645.394H1471.55V513.635H1448.4V645.394Z" fill="url(#paint58_linear_45_27)"/>
<path d="M1565.92 647.652C1606.39 647.652 1635 616.407 1635 579.514V579.138C1635 542.057 1606.77 511.376 1566.3 511.376C1525.83 511.376 1497.22 542.622 1497.22 579.514V579.891C1497.22 616.971 1525.45 647.652 1565.92 647.652ZM1566.3 626.195C1539.95 626.195 1521.5 605.113 1521.5 579.514V579.138C1521.5 553.539 1539.76 532.834 1565.92 532.834C1592.27 532.834 1610.72 553.916 1610.72 579.514V579.891C1610.72 605.49 1592.46 626.195 1566.3 626.195Z" fill="url(#paint59_linear_45_27)"/>
</g>
<path d="M375 240V230H310V240H375Z" fill="black"/>
<path d="M285 441.029C285 446.527 288.107 451.553 293.024 454.012L315 465V428.971C315 423.473 311.894 418.447 306.976 415.988L285 405V441.029Z" fill="black"/>
<path fill-rule="evenodd" clip-rule="evenodd" d="M290 245L320.968 255H382.678C386.68 255 389.927 258.239 389.936 262.241L389.983 282.803C389.993 287.167 387.396 291.116 383.385 292.835L355 305V295H325V305.428C325 311.235 321.539 316.483 316.202 318.771L290 330V245ZM355 265H325V285H355V265Z" fill="black"/>
<path fill-rule="evenodd" clip-rule="evenodd" d="M280 240L304.828 227.586C308.217 225.891 311.106 223.342 313.208 220.189L340 180L385.647 234.777C388.405 238.086 392.491 240 396.799 240H463.226L453.226 230H410L347.09 155.926C344.332 152.678 340.286 150.806 336.025 150.806H313.71L330.445 169.39L280 235.513V209.535C280 201.524 273.509 195.027 265.498 195.019L230 195V170.058C263.157 144.341 304.791 129.032 350 129.032C419.492 129.032 480.536 165.203 515.331 219.745L542.754 208.871C503.36 143.625 431.775 100 350 100C225.736 100 125 200.736 125 325C125 356.572 131.503 386.626 143.242 413.894L270.961 361.861C276.427 359.634 280 354.319 280 348.417V240ZM195 335L230 315H245V358.172C245 360.946 243.046 362.435 242.069 362.833L166.41 393.693C158.408 372.317 154.032 349.169 154.032 325C154.032 279.825 169.318 238.22 195 205.075V335ZM230 305H245V205H230V305Z" fill="black"/>
<path d="M375 395V447.742C375 452.311 372.849 456.613 369.194 459.355L335 485V442.769C335 437.915 337.426 433.383 341.464 430.691L365 415V395H285V385H375V355H315V345H375V318.437C375 312.535 378.573 307.22 384.039 304.993L556.212 234.849C568.296 262.45 575 292.942 575 325C575 449.264 474.264 550 350 550C269.296 550 198.515 507.51 158.809 443.68L185.783 431.982C220.759 485.559 281.244 520.968 350 520.968C395.209 520.968 436.843 505.659 470 479.942V405L491.976 415.988C496.894 418.447 500 423.473 500 428.971V451.115C528.686 417.033 545.968 373.034 545.968 325C545.968 300.349 541.416 276.761 533.107 255.03L414.52 303.374C411.787 304.487 410 307.144 410 310.095V345H442.742V330L466.241 342.932C468.56 344.207 470 346.644 470 349.29V352.097C470 353.7 468.7 355 467.097 355H410V385H472.742V370L496.241 382.932C498.56 384.207 500 386.644 500 389.29V392.097C500 393.7 498.7 395 497.097 395H445V437.075C445 442.014 442.488 446.615 438.334 449.286L375 490V475L410 450V395H375Z" fill="black"/>
<rect x="42" y="100" width="10" height="550" fill="black"/>
<rect x="1056" y="258" width="10" height="15" fill="black"/>
<rect x="66" y="100" width="2" height="550" fill="black"/>
<rect x="1050" y="258" width="4" height="15" fill="black"/>
<rect x="1070" y="258" width="2" height="21" fill="black"/>
<rect x="61" y="100" width="2" height="550" fill="black"/>
<rect x="56" y="100" width="2" height="550" fill="black"/>
<rect x="1044" y="258" width="2" height="21" fill="black"/>
<rect x="1075" y="258" width="2" height="21" fill="black"/>
<path d="M662.936 392.512C668.536 392.512 672.792 389.12 673.368 383.424H669.048C668.568 386.848 666.008 388.736 662.936 388.736C658.84 388.736 656.408 385.728 656.408 380.608C656.408 375.52 658.872 372.48 662.936 372.48C665.88 372.48 668.12 373.984 668.888 377.056H673.272C672.312 371.648 668.344 368.704 662.936 368.704C655.832 368.704 651.896 373.76 651.896 380.608C651.896 387.36 655.896 392.512 662.936 392.512ZM691.244 383.744C691.244 378.592 688.076 375.104 682.86 375.104C677.708 375.104 674.444 378.656 674.444 383.744C674.444 388.832 677.708 392.384 682.86 392.384C688.044 392.384 691.244 388.832 691.244 383.744ZM682.86 389.056C680.172 389.056 678.572 387.168 678.572 383.744C678.572 380.32 680.172 378.432 682.86 378.432C685.516 378.432 687.148 380.32 687.148 383.744C687.148 387.168 685.516 389.056 682.86 389.056ZM711.981 375.104C709.837 375.104 708.109 376.128 706.861 378.176C705.965 376.128 704.269 375.104 701.741 375.104C699.725 375.104 698.157 376.032 697.037 377.856V375.488H693.133V392H697.165V382.912C697.165 380 698.669 378.592 700.557 378.592C702.477 378.592 703.437 379.648 703.437 381.728V392H707.437V382.912C707.437 380 708.909 378.592 710.861 378.592C712.749 378.592 713.709 379.648 713.709 381.728V392H717.741V381.088C717.741 377.376 715.597 375.104 711.981 375.104ZM729.52 375.104C727.184 375.104 725.424 376.032 724.24 377.856V375.488H720.368V398.272H724.4V389.856C725.584 391.552 727.28 392.384 729.52 392.384C734.576 392.384 736.912 388.384 736.912 383.744C736.912 379.072 734.608 375.104 729.52 375.104ZM724.304 383.744C724.304 380.288 725.904 378.432 728.56 378.432C731.248 378.432 732.816 380.192 732.816 383.616C732.816 386.368 731.728 389.056 728.56 389.056C725.424 389.056 724.304 386.528 724.304 383.744ZM753.451 392C753.003 391.36 752.779 390.304 752.779 388.864V380.064C752.779 376.768 750.475 375.104 745.899 375.104C741.195 375.104 738.699 376.992 738.475 380.736H742.443C742.603 378.784 743.531 378.112 745.867 378.112C748.075 378.112 748.875 378.784 748.875 380.16C748.875 381.344 748.171 381.824 746.539 382.048L744.043 382.272C739.819 382.688 737.707 384.384 737.707 387.424C737.707 390.592 740.075 392.384 743.659 392.384C746.059 392.384 747.851 391.584 748.971 389.984C749.067 390.944 749.195 391.616 749.419 392H753.451ZM744.619 389.504C742.795 389.504 741.835 388.672 741.835 387.264C741.835 385.888 742.635 385.152 744.811 384.896L746.987 384.64C747.851 384.544 748.491 384.32 748.875 383.968V385.472C748.875 388.16 747.019 389.504 744.619 389.504ZM764.269 375.104C762.061 375.104 760.365 376.032 759.117 377.856V375.488H755.213V392H759.245V382.752C759.245 380.032 760.973 378.592 762.925 378.592C765.005 378.592 766.029 379.648 766.029 381.728V392H770.061V381.056C770.061 377.216 767.821 375.104 764.269 375.104ZM781.326 379.648C780.27 383.136 779.374 386.208 778.67 388.832C777.902 385.792 777.038 382.72 776.046 379.616L774.702 375.488H770.35L775.15 389.056C775.662 390.496 775.918 391.616 775.918 392.384C775.918 393.92 775.022 395.04 773.198 395.04H771.662V398.208C772.174 398.272 772.75 398.304 773.422 398.304C777.39 398.304 779.15 397.056 780.526 393.344L786.894 375.488H782.67L781.326 379.648ZM809.527 375.168C809.527 378.944 809.559 382.624 809.655 386.208C808.823 384.64 807.479 382.368 805.623 379.36L799.255 369.216H794.455V392H798.615V386.048C798.615 381.376 798.583 377.696 798.487 375.008C799.351 376.64 800.695 378.944 802.551 381.856L808.887 392H813.687V369.216H809.527V375.168ZM832.144 384.032C832.144 379.008 829.264 375.104 823.984 375.104C818.832 375.104 815.824 378.752 815.824 383.744C815.824 388.736 818.896 392.384 824.048 392.384C827.984 392.384 830.864 390.24 831.728 386.88H827.856C827.184 388.448 825.936 389.248 824.08 389.248C821.648 389.248 820.08 387.84 819.792 384.992H832.144V384.032ZM823.952 378.24C826.288 378.24 827.76 379.776 828.112 382.176H819.824C820.208 379.52 821.744 378.24 823.952 378.24ZM851.823 381.664C851.343 383.232 850.799 385.12 850.191 387.392C849.647 385.248 849.135 383.328 848.623 381.632L846.799 375.488H842.959L841.135 381.632C840.623 383.328 840.111 385.248 839.567 387.392C838.959 385.12 838.415 383.2 837.935 381.664L836.079 375.488H831.759L837.199 392H841.423L843.471 385.216C843.695 384.416 844.175 382.784 844.847 380.288C845.231 381.696 845.711 383.328 846.255 385.216L848.335 392H852.559L857.999 375.488H853.679L851.823 381.664ZM865.276 392.448C869.916 392.448 872.604 390.592 872.604 387.264C872.604 384.448 870.876 382.976 866.876 382.24L864.796 381.92C862.876 381.568 862.044 381.056 862.044 379.904C862.044 378.624 863.004 377.984 864.924 377.984C867.132 377.984 868.316 378.688 868.412 380.704H872.22C872.06 376.96 869.628 375.104 864.924 375.104C860.54 375.104 858.076 376.992 858.076 380.096C858.076 382.816 859.868 384.48 863.484 385.088L865.372 385.408C867.836 385.824 868.604 386.4 868.604 387.584C868.604 388.896 867.516 389.568 865.34 389.568C862.908 389.568 861.884 388.8 861.66 386.752H857.724C857.948 390.56 860.476 392.448 865.276 392.448Z" fill="black"/>
<rect x="832" y="257" width="189" height="93" fill="black"/>
<path d="M736.16 282.744C721.184 278.136 709.28 271.32 699.104 260.664H685.184C675.008 271.32 663.104 278.136 648.128 282.744L654.08 295.608C660.032 293.4 665.216 291 670.112 288.312V297.336H714.464V288.408C719.264 291.096 724.448 293.4 730.208 295.608L736.16 282.744ZM733.28 337.272C726.368 329.016 719.84 321.72 713.6 315.672H732.32V304.152H651.68V315.672H675.392C671.744 321.24 667.328 326.52 663.008 330.456C659.456 330.552 656.096 330.552 652.16 330.552L654.944 343.608C677.792 342.456 696.128 340.536 716.288 337.464C718.496 339.864 721.184 343.32 723.296 346.2L733.28 337.272ZM710.336 286.008H673.856C680.384 281.976 686.24 277.272 692.192 271.416C698.048 277.176 703.904 281.976 710.336 286.008ZM709.76 315.672L702.272 320.28C704.576 322.776 706.688 325.176 708.608 327.576C701.216 328.44 688.928 329.592 678.752 330.072C683.264 325.944 686.816 321.144 690.272 315.672H709.76ZM829.28 344.28V332.568H810.176V298.776H826.88V287.064H810.176V259.8H797.984V287.064H781.568V298.776H797.984V332.568H777.44V344.28H829.28ZM784.928 306.552C780.224 304.536 773.984 300.984 771.2 298.488C778.112 290.136 781.664 282.648 781.664 282.648V272.664H769.28V259.8H757.664V272.664H747.104V284.088H769.28C766.592 288.216 760.064 296.856 743.072 306.648L747.104 318.456C750.848 316.248 754.208 313.944 757.28 311.64V346.2H768.896V308.088C771.68 311.544 776.384 315.96 780.128 318.264L784.928 306.552Z" fill="black"/>
<path d="M847.136 275.64C847.136 274.776 847.136 274.2 847.136 274.2L838.976 272.376C838.976 272.376 838.976 273.528 838.976 275.448C838.976 281.496 838.784 294.936 836.96 304.344L845.312 310.2C847.04 297.336 847.136 280.728 847.136 275.64ZM923.264 296.952V287.448H901.568V283.704H918.752V275.832H901.568V272.376H921.056V263.448H901.568V259.8H889.376V263.448H869.12V272.376H889.376V275.832H871.904V283.704H889.376V287.448H870.56C868.736 280.248 866.24 272.376 866.24 272.376L860.288 275.352V259.8H848.768V346.2H860.288V278.136C860.288 278.136 862.784 287.64 863.744 293.784L867.68 291.384V296.952H923.264ZM920.48 329.592V300.6H869.792V346.2H881.6V332.472H908.672C908.672 335.928 908.192 335.928 896.576 335.928L900.608 346.104C919.232 345.24 920.48 343.512 920.48 329.592ZM908.672 313.272H881.6V309.24H908.672V313.272ZM908.672 324.984H881.6V320.76H908.672V324.984ZM974.24 293.208V282.648H958.88V276.216H972.224V265.848H958.88V259.8H947.36V265.848H933.92V276.216H947.36V282.648H931.04V293.208H936.608C937.376 295.416 938.528 299.352 939.488 302.808H932.288V313.464H947.36V321.144H933.536V331.8H947.36V346.2H958.88V331.8H972.704V321.144H958.88V313.464H973.952V302.808H966.848C968 299.448 968.96 295.512 969.44 293.208H974.24ZM1018.11 336.12C1014.37 334.296 1011.49 332.472 1008.61 329.688C1013.98 319.704 1016.19 302.712 1016.19 294.072H987.104V273.048H1004.67V275.352C1004.67 279.864 1004.58 280.056 996.512 280.056C995.648 280.056 994.592 280.056 993.44 280.056L998.144 290.52C1014.75 290.52 1016.19 288.024 1016.19 270.456V262.104H976.064V346.2H987.104V337.464L993.056 346.2C996.704 343.8 999.68 341.112 1002.46 337.56C1005.25 340.92 1008.03 343.512 1011.58 346.2L1018.11 336.12ZM958.88 293.208C958.4 295.8 957.344 299.736 956.096 302.808H949.76C949.088 299.448 948.032 295.704 947.264 293.208H958.88ZM1005.54 304.728C1005.44 309.432 1004.29 315.96 1002.37 321.432C1000.54 316.248 999.296 309.72 999.2 304.728H1005.54ZM996.608 329.688C993.632 332.664 990.656 334.584 987.104 335.928V304.728H989.312C989.984 312.888 992.384 321.048 996.608 329.688Z" fill="white"/>
<path d="M75.8145 103.609C75.8145 103.938 75.834 104.182 75.873 104.342C75.916 104.502 75.9844 104.619 76.0781 104.693C76.2344 104.818 76.5332 104.91 76.9746 104.969C77.4199 105.031 78.0137 105.062 78.7559 105.062C79.4629 105.062 80.0352 105.035 80.4727 104.98C80.9102 104.93 81.2305 104.85 81.4336 104.74C81.5547 104.678 81.6406 104.564 81.6914 104.4C81.7422 104.236 81.7676 103.973 81.7676 103.609C81.7676 103.25 81.7422 102.988 81.6914 102.824C81.6406 102.66 81.5547 102.547 81.4336 102.484C81.2227 102.375 80.8984 102.293 80.4609 102.238C80.0273 102.188 79.459 102.162 78.7559 102.162C78.1465 102.162 77.6309 102.184 77.209 102.227C76.7871 102.27 76.4746 102.336 76.2715 102.426C76.0957 102.496 75.9746 102.605 75.9082 102.754C75.8457 102.906 75.8145 103.191 75.8145 103.609ZM78.7559 106.146C77.916 106.146 77.2246 106.09 76.6816 105.977C76.1387 105.863 75.7188 105.691 75.4219 105.461C75.2422 105.32 75.1094 105.1 75.0234 104.799C74.9375 104.498 74.8945 104.102 74.8945 103.609C74.8945 103.113 74.9375 102.717 75.0234 102.42C75.1133 102.127 75.2539 101.904 75.4453 101.752C75.7266 101.529 76.1465 101.361 76.7051 101.248C77.2637 101.135 77.9473 101.078 78.7559 101.078C79.5684 101.078 80.2559 101.135 80.8184 101.248C81.3848 101.365 81.8086 101.533 82.0898 101.752C82.2812 101.904 82.4219 102.127 82.5117 102.42C82.6016 102.717 82.6465 103.113 82.6465 103.609C82.6465 104.043 82.6094 104.406 82.5352 104.699C82.4648 104.992 82.3574 105.213 82.2129 105.361C81.9707 105.619 81.5566 105.814 80.9707 105.947C80.3848 106.08 79.6465 106.146 78.7559 106.146ZM75.8145 110.6C75.8145 110.928 75.834 111.172 75.873 111.332C75.916 111.492 75.9844 111.61 76.0781 111.684C76.2344 111.809 76.5332 111.901 76.9746 111.959C77.4199 112.022 78.0137 112.053 78.7559 112.053C79.4629 112.053 80.0352 112.026 80.4727 111.971C80.9102 111.92 81.2305 111.84 81.4336 111.731C81.5547 111.668 81.6406 111.555 81.6914 111.391C81.7422 111.227 81.7676 110.963 81.7676 110.6C81.7676 110.24 81.7422 109.979 81.6914 109.815C81.6406 109.651 81.5547 109.537 81.4336 109.475C81.2227 109.365 80.8984 109.283 80.4609 109.229C80.0273 109.178 79.459 109.153 78.7559 109.153C78.1465 109.153 77.6309 109.174 77.209 109.217C76.7871 109.26 76.4746 109.326 76.2715 109.416C76.0957 109.487 75.9746 109.596 75.9082 109.744C75.8457 109.897 75.8145 110.182 75.8145 110.6ZM78.7559 113.137C77.916 113.137 77.2246 113.08 76.6816 112.967C76.1387 112.854 75.7188 112.682 75.4219 112.451C75.2422 112.311 75.1094 112.09 75.0234 111.789C74.9375 111.489 74.8945 111.092 74.8945 110.6C74.8945 110.104 74.9375 109.707 75.0234 109.41C75.1133 109.117 75.2539 108.895 75.4453 108.742C75.7266 108.52 76.1465 108.352 76.7051 108.239C77.2637 108.125 77.9473 108.069 78.7559 108.069C79.5684 108.069 80.2559 108.125 80.8184 108.239C81.3848 108.356 81.8086 108.524 82.0898 108.742C82.2812 108.895 82.4219 109.117 82.5117 109.41C82.6016 109.707 82.6465 110.104 82.6465 110.6C82.6465 111.033 82.6094 111.397 82.5352 111.69C82.4648 111.983 82.3574 112.203 82.2129 112.352C81.9707 112.61 81.5566 112.805 80.9707 112.938C80.3848 113.071 79.6465 113.137 78.7559 113.137ZM79.3945 115.217V119.969H78.2051V115.217H79.3945ZM78.6621 124.581C78.416 124.057 78.1699 123.684 77.9238 123.462C77.6777 123.243 77.3867 123.134 77.0508 123.134C76.668 123.134 76.3652 123.26 76.1426 123.514C75.9238 123.772 75.8145 124.128 75.8145 124.581C75.8145 125.038 75.9238 125.393 76.1426 125.647C76.3652 125.905 76.668 126.034 77.0508 126.034C77.3828 126.034 77.6719 125.923 77.918 125.7C78.168 125.481 78.416 125.108 78.6621 124.581ZM79.7168 124.581C79.8691 124.948 80.0449 125.229 80.2441 125.425C80.4473 125.624 80.6602 125.723 80.8828 125.723C81.1484 125.723 81.3555 125.624 81.5039 125.425C81.6562 125.225 81.7324 124.944 81.7324 124.581C81.7324 124.233 81.6562 123.956 81.5039 123.749C81.3555 123.546 81.1562 123.444 80.9062 123.444C80.6641 123.444 80.4414 123.542 80.2383 123.737C80.0391 123.932 79.8652 124.214 79.7168 124.581ZM79.2012 125.542C78.8926 126.112 78.5645 126.516 78.2168 126.755C77.8691 126.997 77.4453 127.118 76.9453 127.118C76.293 127.118 75.7871 126.897 75.4277 126.456C75.0723 126.014 74.8945 125.389 74.8945 124.581C74.8945 123.776 75.0801 123.153 75.4512 122.712C75.8223 122.27 76.3438 122.05 77.0156 122.05C77.4844 122.05 77.8887 122.173 78.2285 122.419C78.5723 122.665 78.8965 123.067 79.2012 123.626C79.459 123.219 79.7324 122.915 80.0215 122.712C80.3105 122.512 80.6172 122.413 80.9414 122.413C81.457 122.413 81.8672 122.608 82.1719 122.999C82.4805 123.389 82.6348 123.917 82.6348 124.581C82.6348 125.245 82.4844 125.772 82.1836 126.163C81.8828 126.557 81.4844 126.755 80.9883 126.755C80.6406 126.755 80.3203 126.655 80.0273 126.456C79.7344 126.257 79.459 125.952 79.2012 125.542ZM75.8496 131.601C75.8496 132.046 75.9883 132.394 76.2656 132.644C76.5469 132.897 76.9336 133.024 77.4258 133.024C77.8828 133.024 78.2441 132.895 78.5098 132.638C78.7793 132.38 78.9141 132.024 78.9141 131.571C78.9141 131.13 78.7754 130.778 78.498 130.517C78.2207 130.255 77.8516 130.124 77.3906 130.124C76.9219 130.124 76.5469 130.257 76.2656 130.522C75.9883 130.788 75.8496 131.147 75.8496 131.601ZM82.582 132.063V133.435C82.1758 132.97 81.7363 132.528 81.2637 132.11C80.791 131.692 80.252 131.27 79.6465 130.845C79.7051 130.993 79.748 131.145 79.7754 131.302C79.8066 131.458 79.8223 131.616 79.8223 131.776C79.8223 132.444 79.5957 132.999 79.1426 133.44C78.6895 133.886 78.1211 134.108 77.4375 134.108C76.6914 134.108 76.084 133.876 75.6152 133.411C75.1504 132.946 74.918 132.343 74.918 131.601C74.918 130.823 75.1562 130.202 75.6328 129.737C76.1094 129.272 76.7461 129.04 77.543 129.04C78.2969 129.04 79.0801 129.284 79.8926 129.772C80.709 130.261 81.6055 131.024 82.582 132.063ZM78.6387 137.806L79.2129 138.661C79.4902 139.071 79.7383 139.353 79.957 139.505C80.1797 139.661 80.4277 139.739 80.7012 139.739C81.0059 139.739 81.2617 139.618 81.4688 139.376C81.6758 139.138 81.7793 138.835 81.7793 138.468C81.7793 138.202 81.7109 137.904 81.5742 137.571C81.4375 137.243 81.2227 136.859 80.9297 136.417H82.1016C82.2852 136.71 82.4219 137.021 82.5117 137.349C82.6016 137.681 82.6465 138.038 82.6465 138.421C82.6465 139.175 82.4609 139.769 82.0898 140.202C81.7188 140.64 81.2148 140.859 80.5781 140.859C80.168 140.859 79.7969 140.743 79.4648 140.513C79.1328 140.286 78.7969 139.913 78.457 139.394L78 138.696C77.6758 138.204 77.3789 137.866 77.1094 137.683C76.8438 137.503 76.5371 137.413 76.1895 137.413H75.9727V140.736H75.0586V136.288C75.1172 136.28 75.1758 136.275 75.2344 136.271C75.2969 136.271 75.3867 136.271 75.5039 136.271C76.2852 136.271 76.9062 136.386 77.3672 136.616C77.832 136.847 78.2559 137.243 78.6387 137.806ZM75.8145 145.552C75.8145 145.88 75.834 146.124 75.873 146.285C75.916 146.445 75.9844 146.562 76.0781 146.636C76.2344 146.761 76.5332 146.853 76.9746 146.912C77.4199 146.974 78.0137 147.005 78.7559 147.005C79.4629 147.005 80.0352 146.978 80.4727 146.923C80.9102 146.873 81.2305 146.792 81.4336 146.683C81.5547 146.621 81.6406 146.507 81.6914 146.343C81.7422 146.179 81.7676 145.915 81.7676 145.552C81.7676 145.193 81.7422 144.931 81.6914 144.767C81.6406 144.603 81.5547 144.49 81.4336 144.427C81.2227 144.318 80.8984 144.236 80.4609 144.181C80.0273 144.13 79.459 144.105 78.7559 144.105C78.1465 144.105 77.6309 144.126 77.209 144.169C76.7871 144.212 76.4746 144.279 76.2715 144.369C76.0957 144.439 75.9746 144.548 75.9082 144.697C75.8457 144.849 75.8145 145.134 75.8145 145.552ZM78.7559 148.089C77.916 148.089 77.2246 148.033 76.6816 147.919C76.1387 147.806 75.7188 147.634 75.4219 147.404C75.2422 147.263 75.1094 147.042 75.0234 146.742C74.9375 146.441 74.8945 146.044 74.8945 145.552C74.8945 145.056 74.9375 144.66 75.0234 144.363C75.1133 144.07 75.2539 143.847 75.4453 143.695C75.7266 143.472 76.1465 143.304 76.7051 143.191C77.2637 143.078 77.9473 143.021 78.7559 143.021C79.5684 143.021 80.2559 143.078 80.8184 143.191C81.3848 143.308 81.8086 143.476 82.0898 143.695C82.2812 143.847 82.4219 144.07 82.5117 144.363C82.6016 144.66 82.6465 145.056 82.6465 145.552C82.6465 145.986 82.6094 146.349 82.5352 146.642C82.4648 146.935 82.3574 147.156 82.2129 147.304C81.9707 147.562 81.5566 147.757 80.9707 147.89C80.3848 148.023 79.6465 148.089 78.7559 148.089Z" fill="black"/>
<path d="M1029.81 260.609C1029.81 260.938 1029.83 261.182 1029.87 261.342C1029.92 261.502 1029.98 261.619 1030.08 261.693C1030.23 261.818 1030.53 261.91 1030.97 261.969C1031.42 262.031 1032.01 262.062 1032.76 262.062C1033.46 262.062 1034.04 262.035 1034.47 261.98C1034.91 261.93 1035.23 261.85 1035.43 261.74C1035.55 261.678 1035.64 261.564 1035.69 261.4C1035.74 261.236 1035.77 260.973 1035.77 260.609C1035.77 260.25 1035.74 259.988 1035.69 259.824C1035.64 259.66 1035.55 259.547 1035.43 259.484C1035.22 259.375 1034.9 259.293 1034.46 259.238C1034.03 259.188 1033.46 259.162 1032.76 259.162C1032.15 259.162 1031.63 259.184 1031.21 259.227C1030.79 259.27 1030.47 259.336 1030.27 259.426C1030.1 259.496 1029.97 259.605 1029.91 259.754C1029.85 259.906 1029.81 260.191 1029.81 260.609ZM1032.76 263.146C1031.92 263.146 1031.22 263.09 1030.68 262.977C1030.14 262.863 1029.72 262.691 1029.42 262.461C1029.24 262.32 1029.11 262.1 1029.02 261.799C1028.94 261.498 1028.89 261.102 1028.89 260.609C1028.89 260.113 1028.94 259.717 1029.02 259.42C1029.11 259.127 1029.25 258.904 1029.45 258.752C1029.73 258.529 1030.15 258.361 1030.71 258.248C1031.26 258.135 1031.95 258.078 1032.76 258.078C1033.57 258.078 1034.26 258.135 1034.82 258.248C1035.38 258.365 1035.81 258.533 1036.09 258.752C1036.28 258.904 1036.42 259.127 1036.51 259.42C1036.6 259.717 1036.65 260.113 1036.65 260.609C1036.65 261.043 1036.61 261.406 1036.54 261.699C1036.46 261.992 1036.36 262.213 1036.21 262.361C1035.97 262.619 1035.56 262.814 1034.97 262.947C1034.38 263.08 1033.65 263.146 1032.76 263.146ZM1029.81 267.6C1029.81 267.928 1029.83 268.172 1029.87 268.332C1029.92 268.492 1029.98 268.61 1030.08 268.684C1030.23 268.809 1030.53 268.901 1030.97 268.959C1031.42 269.022 1032.01 269.053 1032.76 269.053C1033.46 269.053 1034.04 269.026 1034.47 268.971C1034.91 268.92 1035.23 268.84 1035.43 268.731C1035.55 268.668 1035.64 268.555 1035.69 268.391C1035.74 268.227 1035.77 267.963 1035.77 267.6C1035.77 267.24 1035.74 266.979 1035.69 266.815C1035.64 266.651 1035.55 266.537 1035.43 266.475C1035.22 266.365 1034.9 266.283 1034.46 266.229C1034.03 266.178 1033.46 266.153 1032.76 266.153C1032.15 266.153 1031.63 266.174 1031.21 266.217C1030.79 266.26 1030.47 266.326 1030.27 266.416C1030.1 266.487 1029.97 266.596 1029.91 266.744C1029.85 266.897 1029.81 267.182 1029.81 267.6ZM1032.76 270.137C1031.92 270.137 1031.22 270.08 1030.68 269.967C1030.14 269.854 1029.72 269.682 1029.42 269.451C1029.24 269.311 1029.11 269.09 1029.02 268.789C1028.94 268.489 1028.89 268.092 1028.89 267.6C1028.89 267.104 1028.94 266.707 1029.02 266.41C1029.11 266.117 1029.25 265.895 1029.45 265.742C1029.73 265.52 1030.15 265.352 1030.71 265.239C1031.26 265.125 1031.95 265.069 1032.76 265.069C1033.57 265.069 1034.26 265.125 1034.82 265.239C1035.38 265.356 1035.81 265.524 1036.09 265.742C1036.28 265.895 1036.42 266.117 1036.51 266.41C1036.6 266.707 1036.65 267.104 1036.65 267.6C1036.65 268.033 1036.61 268.397 1036.54 268.69C1036.46 268.983 1036.36 269.203 1036.21 269.352C1035.97 269.61 1035.56 269.805 1034.97 269.938C1034.38 270.071 1033.65 270.137 1032.76 270.137ZM1035.32 274.52L1033.73 272.698H1035.06L1036.52 274.473V275.616H1029V274.52H1035.32ZM1035.13 281.557L1031.95 280.766V282.354L1035.13 281.557ZM1036.04 280.901V282.301L1029 284.153V283.069L1031.03 282.577V280.538L1029 280.034V279.061L1036.04 280.901Z" fill="black"/>
</g>
<defs>
<linearGradient id="paint0_linear_45_27" x1="945" y1="1" x2="945" y2="138.029" gradientUnits="userSpaceOnUse">
<stop stop-color="#1A1A1A"/>
<stop offset="1" stop-color="#1A1A1A" stop-opacity="0"/>
</linearGradient>
<linearGradient id="paint1_linear_45_27" x1="945" y1="1" x2="945" y2="138.029" gradientUnits="userSpaceOnUse">
<stop stop-color="#1A1A1A"/>
<stop offset="1" stop-color="#1A1A1A" stop-opacity="0"/>
</linearGradient>
<linearGradient id="paint2_linear_45_27" x1="945" y1="1" x2="945" y2="138.029" gradientUnits="userSpaceOnUse">
<stop stop-color="#1A1A1A"/>
<stop offset="1" stop-color="#1A1A1A" stop-opacity="0"/>
</linearGradient>
<linearGradient id="paint3_linear_45_27" x1="945" y1="1" x2="945" y2="138.029" gradientUnits="userSpaceOnUse">
<stop stop-color="#1A1A1A"/>
<stop offset="1" stop-color="#1A1A1A" stop-opacity="0"/>
</linearGradient>
<linearGradient id="paint4_linear_45_27" x1="945" y1="1" x2="945" y2="138.029" gradientUnits="userSpaceOnUse">
<stop stop-color="#1A1A1A"/>
<stop offset="1" stop-color="#1A1A1A" stop-opacity="0"/>
</linearGradient>
<linearGradient id="paint5_linear_45_27" x1="945" y1="1" x2="945" y2="138.029" gradientUnits="userSpaceOnUse">
<stop stop-color="#1A1A1A"/>
<stop offset="1" stop-color="#1A1A1A" stop-opacity="0"/>
</linearGradient>
<linearGradient id="paint6_linear_45_27" x1="945" y1="1" x2="945" y2="138.029" gradientUnits="userSpaceOnUse">
<stop stop-color="#1A1A1A"/>
<stop offset="1" stop-color="#1A1A1A" stop-opacity="0"/>
</linearGradient>
<linearGradient id="paint7_linear_45_27" x1="945" y1="1" x2="945" y2="138.029" gradientUnits="userSpaceOnUse">
<stop stop-color="#1A1A1A"/>
<stop offset="1" stop-color="#1A1A1A" stop-opacity="0"/>
</linearGradient>
<linearGradient id="paint8_linear_45_27" x1="945" y1="1" x2="945" y2="138.029" gradientUnits="userSpaceOnUse">
<stop stop-color="#1A1A1A"/>
<stop offset="1" stop-color="#1A1A1A" stop-opacity="0"/>
</linearGradient>
<linearGradient id="paint9_linear_45_27" x1="945" y1="1" x2="945" y2="138.029" gradientUnits="userSpaceOnUse">
<stop stop-color="#1A1A1A"/>
<stop offset="1" stop-color="#1A1A1A" stop-opacity="0"/>
</linearGradient>
<linearGradient id="paint10_linear_45_27" x1="945" y1="1" x2="945" y2="138.029" gradientUnits="userSpaceOnUse">
<stop stop-color="#1A1A1A"/>
<stop offset="1" stop-color="#1A1A1A" stop-opacity="0"/>
</linearGradient>
<linearGradient id="paint11_linear_45_27" x1="945" y1="1" x2="945" y2="138.029" gradientUnits="userSpaceOnUse">
<stop stop-color="#1A1A1A"/>
<stop offset="1" stop-color="#1A1A1A" stop-opacity="0"/>
</linearGradient>
<linearGradient id="paint12_linear_45_27" x1="945" y1="1" x2="945" y2="138.029" gradientUnits="userSpaceOnUse">
<stop stop-color="#1A1A1A"/>
<stop offset="1" stop-color="#1A1A1A" stop-opacity="0"/>
</linearGradient>
<linearGradient id="paint13_linear_45_27" x1="945" y1="1" x2="945" y2="138.029" gradientUnits="userSpaceOnUse">
<stop stop-color="#1A1A1A"/>
<stop offset="1" stop-color="#1A1A1A" stop-opacity="0"/>
</linearGradient>
<linearGradient id="paint14_linear_45_27" x1="945" y1="1" x2="945" y2="138.029" gradientUnits="userSpaceOnUse">
<stop stop-color="#1A1A1A"/>
<stop offset="1" stop-color="#1A1A1A" stop-opacity="0"/>
</linearGradient>
<linearGradient id="paint15_linear_45_27" x1="855" y1="171" x2="855" y2="308.029" gradientUnits="userSpaceOnUse">
<stop stop-color="#1A1A1A"/>
<stop offset="1" stop-color="#1A1A1A" stop-opacity="0"/>
</linearGradient>
<linearGradient id="paint16_linear_45_27" x1="855" y1="171" x2="855" y2="308.029" gradientUnits="userSpaceOnUse">
<stop stop-color="#1A1A1A"/>
<stop offset="1" stop-color="#1A1A1A" stop-opacity="0"/>
</linearGradient>
<linearGradient id="paint17_linear_45_27" x1="855" y1="171" x2="855" y2="308.029" gradientUnits="userSpaceOnUse">
<stop stop-color="#1A1A1A"/>
<stop offset="1" stop-color="#1A1A1A" stop-opacity="0"/>
</linearGradient>
<linearGradient id="paint18_linear_45_27" x1="855" y1="171" x2="855" y2="308.029" gradientUnits="userSpaceOnUse">
<stop stop-color="#1A1A1A"/>
<stop offset="1" stop-color="#1A1A1A" stop-opacity="0"/>
</linearGradient>
<linearGradient id="paint19_linear_45_27" x1="855" y1="171" x2="855" y2="308.029" gradientUnits="userSpaceOnUse">
<stop stop-color="#1A1A1A"/>
<stop offset="1" stop-color="#1A1A1A" stop-opacity="0"/>
</linearGradient>
<linearGradient id="paint20_linear_45_27" x1="855" y1="171" x2="855" y2="308.029" gradientUnits="userSpaceOnUse">
<stop stop-color="#1A1A1A"/>
<stop offset="1" stop-color="#1A1A1A" stop-opacity="0"/>
</linearGradient>
<linearGradient id="paint21_linear_45_27" x1="855" y1="171" x2="855" y2="308.029" gradientUnits="userSpaceOnUse">
<stop stop-color="#1A1A1A"/>
<stop offset="1" stop-color="#1A1A1A" stop-opacity="0"/>
</linearGradient>
<linearGradient id="paint22_linear_45_27" x1="855" y1="171" x2="855" y2="308.029" gradientUnits="userSpaceOnUse">
<stop stop-color="#1A1A1A"/>
<stop offset="1" stop-color="#1A1A1A" stop-opacity="0"/>
</linearGradient>
<linearGradient id="paint23_linear_45_27" x1="855" y1="171" x2="855" y2="308.029" gradientUnits="userSpaceOnUse">
<stop stop-color="#1A1A1A"/>
<stop offset="1" stop-color="#1A1A1A" stop-opacity="0"/>
</linearGradient>
<linearGradient id="paint24_linear_45_27" x1="855" y1="171" x2="855" y2="308.029" gradientUnits="userSpaceOnUse">
<stop stop-color="#1A1A1A"/>
<stop offset="1" stop-color="#1A1A1A" stop-opacity="0"/>
</linearGradient>
<linearGradient id="paint25_linear_45_27" x1="855" y1="171" x2="855" y2="308.029" gradientUnits="userSpaceOnUse">
<stop stop-color="#1A1A1A"/>
<stop offset="1" stop-color="#1A1A1A" stop-opacity="0"/>
</linearGradient>
<linearGradient id="paint26_linear_45_27" x1="855" y1="171" x2="855" y2="308.029" gradientUnits="userSpaceOnUse">
<stop stop-color="#1A1A1A"/>
<stop offset="1" stop-color="#1A1A1A" stop-opacity="0"/>
</linearGradient>
<linearGradient id="paint27_linear_45_27" x1="855" y1="171" x2="855" y2="308.029" gradientUnits="userSpaceOnUse">
<stop stop-color="#1A1A1A"/>
<stop offset="1" stop-color="#1A1A1A" stop-opacity="0"/>
</linearGradient>
<linearGradient id="paint28_linear_45_27" x1="855" y1="171" x2="855" y2="308.029" gradientUnits="userSpaceOnUse">
<stop stop-color="#1A1A1A"/>
<stop offset="1" stop-color="#1A1A1A" stop-opacity="0"/>
</linearGradient>
<linearGradient id="paint29_linear_45_27" x1="855" y1="171" x2="855" y2="308.029" gradientUnits="userSpaceOnUse">
<stop stop-color="#1A1A1A"/>
<stop offset="1" stop-color="#1A1A1A" stop-opacity="0"/>
</linearGradient>
<linearGradient id="paint30_linear_45_27" x1="765" y1="341" x2="765" y2="478.029" gradientUnits="userSpaceOnUse">
<stop stop-color="#1A1A1A"/>
<stop offset="1" stop-color="#1A1A1A" stop-opacity="0"/>
</linearGradient>
<linearGradient id="paint31_linear_45_27" x1="765" y1="341" x2="765" y2="478.029" gradientUnits="userSpaceOnUse">
<stop stop-color="#1A1A1A"/>
<stop offset="1" stop-color="#1A1A1A" stop-opacity="0"/>
</linearGradient>
<linearGradient id="paint32_linear_45_27" x1="765" y1="341" x2="765" y2="478.029" gradientUnits="userSpaceOnUse">
<stop stop-color="#1A1A1A"/>
<stop offset="1" stop-color="#1A1A1A" stop-opacity="0"/>
</linearGradient>
<linearGradient id="paint33_linear_45_27" x1="765" y1="341" x2="765" y2="478.029" gradientUnits="userSpaceOnUse">
<stop stop-color="#1A1A1A"/>
<stop offset="1" stop-color="#1A1A1A" stop-opacity="0"/>
</linearGradient>
<linearGradient id="paint34_linear_45_27" x1="765" y1="341" x2="765" y2="478.029" gradientUnits="userSpaceOnUse">
<stop stop-color="#1A1A1A"/>
<stop offset="1" stop-color="#1A1A1A" stop-opacity="0"/>
</linearGradient>
<linearGradient id="paint35_linear_45_27" x1="765" y1="341" x2="765" y2="478.029" gradientUnits="userSpaceOnUse">
<stop stop-color="#1A1A1A"/>
<stop offset="1" stop-color="#1A1A1A" stop-opacity="0"/>
</linearGradient>
<linearGradient id="paint36_linear_45_27" x1="765" y1="341" x2="765" y2="478.029" gradientUnits="userSpaceOnUse">
<stop stop-color="#1A1A1A"/>
<stop offset="1" stop-color="#1A1A1A" stop-opacity="0"/>
</linearGradient>
<linearGradient id="paint37_linear_45_27" x1="765" y1="341" x2="765" y2="478.029" gradientUnits="userSpaceOnUse">
<stop stop-color="#1A1A1A"/>
<stop offset="1" stop-color="#1A1A1A" stop-opacity="0"/>
</linearGradient>
<linearGradient id="paint38_linear_45_27" x1="765" y1="341" x2="765" y2="478.029" gradientUnits="userSpaceOnUse">
<stop stop-color="#1A1A1A"/>
<stop offset="1" stop-color="#1A1A1A" stop-opacity="0"/>
</linearGradient>
<linearGradient id="paint39_linear_45_27" x1="765" y1="341" x2="765" y2="478.029" gradientUnits="userSpaceOnUse">
<stop stop-color="#1A1A1A"/>
<stop offset="1" stop-color="#1A1A1A" stop-opacity="0"/>
</linearGradient>
<linearGradient id="paint40_linear_45_27" x1="765" y1="341" x2="765" y2="478.029" gradientUnits="userSpaceOnUse">
<stop stop-color="#1A1A1A"/>
<stop offset="1" stop-color="#1A1A1A" stop-opacity="0"/>
</linearGradient>
<linearGradient id="paint41_linear_45_27" x1="765" y1="341" x2="765" y2="478.029" gradientUnits="userSpaceOnUse">
<stop stop-color="#1A1A1A"/>
<stop offset="1" stop-color="#1A1A1A" stop-opacity="0"/>
</linearGradient>
<linearGradient id="paint42_linear_45_27" x1="765" y1="341" x2="765" y2="478.029" gradientUnits="userSpaceOnUse">
<stop stop-color="#1A1A1A"/>
<stop offset="1" stop-color="#1A1A1A" stop-opacity="0"/>
</linearGradient>
<linearGradient id="paint43_linear_45_27" x1="765" y1="341" x2="765" y2="478.029" gradientUnits="userSpaceOnUse">
<stop stop-color="#1A1A1A"/>
<stop offset="1" stop-color="#1A1A1A" stop-opacity="0"/>
</linearGradient>
<linearGradient id="paint44_linear_45_27" x1="765" y1="341" x2="765" y2="478.029" gradientUnits="userSpaceOnUse">
<stop stop-color="#1A1A1A"/>
<stop offset="1" stop-color="#1A1A1A" stop-opacity="0"/>
</linearGradient>
<linearGradient id="paint45_linear_45_27" x1="675" y1="511" x2="675" y2="648.029" gradientUnits="userSpaceOnUse">
<stop stop-color="#1A1A1A"/>
<stop offset="1" stop-color="#1A1A1A" stop-opacity="0"/>
</linearGradient>
<linearGradient id="paint46_linear_45_27" x1="675" y1="511" x2="675" y2="648.029" gradientUnits="userSpaceOnUse">
<stop stop-color="#1A1A1A"/>
<stop offset="1" stop-color="#1A1A1A" stop-opacity="0"/>
</linearGradient>
<linearGradient id="paint47_linear_45_27" x1="675" y1="511" x2="675" y2="648.029" gradientUnits="userSpaceOnUse">
<stop stop-color="#1A1A1A"/>
<stop offset="1" stop-color="#1A1A1A" stop-opacity="0"/>
</linearGradient>
<linearGradient id="paint48_linear_45_27" x1="675" y1="511" x2="675" y2="648.029" gradientUnits="userSpaceOnUse">
<stop stop-color="#1A1A1A"/>
<stop offset="1" stop-color="#1A1A1A" stop-opacity="0"/>
</linearGradient>
<linearGradient id="paint49_linear_45_27" x1="675" y1="511" x2="675" y2="648.029" gradientUnits="userSpaceOnUse">
<stop stop-color="#1A1A1A"/>
<stop offset="1" stop-color="#1A1A1A" stop-opacity="0"/>
</linearGradient>
<linearGradient id="paint50_linear_45_27" x1="675" y1="511" x2="675" y2="648.029" gradientUnits="userSpaceOnUse">
<stop stop-color="#1A1A1A"/>
<stop offset="1" stop-color="#1A1A1A" stop-opacity="0"/>
</linearGradient>
<linearGradient id="paint51_linear_45_27" x1="675" y1="511" x2="675" y2="648.029" gradientUnits="userSpaceOnUse">
<stop stop-color="#1A1A1A"/>
<stop offset="1" stop-color="#1A1A1A" stop-opacity="0"/>
</linearGradient>
<linearGradient id="paint52_linear_45_27" x1="675" y1="511" x2="675" y2="648.029" gradientUnits="userSpaceOnUse">
<stop stop-color="#1A1A1A"/>
<stop offset="1" stop-color="#1A1A1A" stop-opacity="0"/>
</linearGradient>
<linearGradient id="paint53_linear_45_27" x1="675" y1="511" x2="675" y2="648.029" gradientUnits="userSpaceOnUse">
<stop stop-color="#1A1A1A"/>
<stop offset="1" stop-color="#1A1A1A" stop-opacity="0"/>
</linearGradient>
<linearGradient id="paint54_linear_45_27" x1="675" y1="511" x2="675" y2="648.029" gradientUnits="userSpaceOnUse">
<stop stop-color="#1A1A1A"/>
<stop offset="1" stop-color="#1A1A1A" stop-opacity="0"/>
</linearGradient>
<linearGradient id="paint55_linear_45_27" x1="675" y1="511" x2="675" y2="648.029" gradientUnits="userSpaceOnUse">
<stop stop-color="#1A1A1A"/>
<stop offset="1" stop-color="#1A1A1A" stop-opacity="0"/>
</linearGradient>
<linearGradient id="paint56_linear_45_27" x1="675" y1="511" x2="675" y2="648.029" gradientUnits="userSpaceOnUse">
<stop stop-color="#1A1A1A"/>
<stop offset="1" stop-color="#1A1A1A" stop-opacity="0"/>
</linearGradient>
<linearGradient id="paint57_linear_45_27" x1="675" y1="511" x2="675" y2="648.029" gradientUnits="userSpaceOnUse">
<stop stop-color="#1A1A1A"/>
<stop offset="1" stop-color="#1A1A1A" stop-opacity="0"/>
</linearGradient>
<linearGradient id="paint58_linear_45_27" x1="675" y1="511" x2="675" y2="648.029" gradientUnits="userSpaceOnUse">
<stop stop-color="#1A1A1A"/>
<stop offset="1" stop-color="#1A1A1A" stop-opacity="0"/>
</linearGradient>
<linearGradient id="paint59_linear_45_27" x1="675" y1="511" x2="675" y2="648.029" gradientUnits="userSpaceOnUse">
<stop stop-color="#1A1A1A"/>
<stop offset="1" stop-color="#1A1A1A" stop-opacity="0"/>
</linearGradient>
<clipPath id="clip0_45_27">
<rect width="1450" height="650" fill="white"/>
</clipPath>
</defs>
</svg>
