<svg width="1920" height="543" viewBox="0 0 1920 543" fill="none" xmlns="http://www.w3.org/2000/svg">
<path d="M1552.64 416H1530.84V437.797H1454.44V459.594H1530.84V470.609C1530.84 505.531 1501.78 514.203 1487.13 514.203V536C1539.52 536 1552.64 492.406 1552.64 470.609V459.594H1596.35V437.797H1552.64V416Z" stroke="#0C8CE9" stroke-width="2"/>
<mask id="mask0_28_599" style="mask-type:alpha" maskUnits="userSpaceOnUse" x="1453" y="415" width="145" height="122">
<path d="M1552.64 416H1530.84V437.797H1454.44V459.594H1530.84V470.609C1530.84 505.531 1501.78 514.203 1487.13 514.203V536C1539.52 536 1552.64 492.406 1552.64 470.609V459.594H1596.35V437.797H1552.64V416Z" fill="black" stroke="#0C8CE9" stroke-width="2"/>
</mask>
<g mask="url(#mask0_28_599)">
<rect x="1520.63" y="282" width="1" height="271" transform="rotate(45 1520.63 282)" fill="#0C8CE9"/>
<rect x="1524.87" y="286.243" width="1" height="271" transform="rotate(45 1524.87 286.243)" fill="#0C8CE9"/>
<rect x="1529.11" y="290.485" width="1" height="271" transform="rotate(45 1529.11 290.485)" fill="#0C8CE9"/>
<rect x="1533.35" y="294.728" width="1" height="271" transform="rotate(45 1533.35 294.728)" fill="#0C8CE9"/>
<rect x="1537.6" y="298.971" width="1" height="271" transform="rotate(45 1537.6 298.971)" fill="#0C8CE9"/>
<rect x="1541.84" y="303.213" width="1" height="271" transform="rotate(45 1541.84 303.213)" fill="#0C8CE9"/>
<rect x="1546.08" y="307.456" width="1" height="271" transform="rotate(45 1546.08 307.456)" fill="#0C8CE9"/>
<rect x="1550.32" y="311.698" width="1" height="271" transform="rotate(45 1550.32 311.698)" fill="#0C8CE9"/>
<rect x="1554.57" y="315.941" width="1" height="271" transform="rotate(45 1554.57 315.941)" fill="#0C8CE9"/>
<rect x="1558.81" y="320.184" width="1" height="271" transform="rotate(45 1558.81 320.184)" fill="#0C8CE9"/>
<rect x="1563.05" y="324.426" width="1" height="271" transform="rotate(45 1563.05 324.426)" fill="#0C8CE9"/>
<rect x="1567.29" y="328.669" width="1" height="271" transform="rotate(45 1567.29 328.669)" fill="#0C8CE9"/>
<rect x="1571.54" y="332.912" width="1" height="271" transform="rotate(45 1571.54 332.912)" fill="#0C8CE9"/>
<rect x="1575.78" y="337.154" width="1" height="271" transform="rotate(45 1575.78 337.154)" fill="#0C8CE9"/>
<rect x="1580.02" y="341.397" width="1" height="271" transform="rotate(45 1580.02 341.397)" fill="#0C8CE9"/>
<rect x="1584.27" y="345.64" width="1" height="271" transform="rotate(45 1584.27 345.64)" fill="#0C8CE9"/>
<rect x="1588.51" y="349.882" width="1" height="271" transform="rotate(45 1588.51 349.882)" fill="#0C8CE9"/>
<rect x="1592.75" y="354.125" width="1" height="271" transform="rotate(45 1592.75 354.125)" fill="#0C8CE9"/>
<rect x="1596.99" y="358.368" width="1" height="271" transform="rotate(45 1596.99 358.368)" fill="#0C8CE9"/>
<rect x="1601.24" y="362.61" width="1" height="271" transform="rotate(45 1601.24 362.61)" fill="#0C8CE9"/>
<rect x="1605.48" y="366.853" width="1" height="271" transform="rotate(45 1605.48 366.853)" fill="#0C8CE9"/>
<rect x="1609.72" y="371.095" width="1" height="271" transform="rotate(45 1609.72 371.095)" fill="#0C8CE9"/>
<rect x="1613.96" y="375.338" width="1" height="271" transform="rotate(45 1613.96 375.338)" fill="#0C8CE9"/>
<rect x="1618.21" y="379.581" width="1" height="271" transform="rotate(45 1618.21 379.581)" fill="#0C8CE9"/>
<rect x="1622.45" y="383.823" width="1" height="271" transform="rotate(45 1622.45 383.823)" fill="#0C8CE9"/>
<rect x="1626.69" y="388.066" width="1" height="271" transform="rotate(45 1626.69 388.066)" fill="#0C8CE9"/>
<rect x="1630.93" y="392.309" width="1" height="271" transform="rotate(45 1630.93 392.309)" fill="#0C8CE9"/>
<rect x="1635.18" y="396.551" width="1" height="271" transform="rotate(45 1635.18 396.551)" fill="#0C8CE9"/>
<rect x="1639.42" y="400.794" width="1" height="271" transform="rotate(45 1639.42 400.794)" fill="#0C8CE9"/>
<rect x="1643.66" y="405.037" width="1" height="271" transform="rotate(45 1643.66 405.037)" fill="#0C8CE9"/>
<rect x="1647.91" y="409.279" width="1" height="271" transform="rotate(45 1647.91 409.279)" fill="#0C8CE9"/>
<rect x="1652.15" y="413.522" width="1" height="271" transform="rotate(45 1652.15 413.522)" fill="#0C8CE9"/>
<rect x="1656.39" y="417.765" width="1" height="271" transform="rotate(45 1656.39 417.765)" fill="#0C8CE9"/>
<rect x="1660.63" y="422.007" width="1" height="271" transform="rotate(45 1660.63 422.007)" fill="#0C8CE9"/>
<rect x="1664.88" y="426.25" width="1" height="271" transform="rotate(45 1664.88 426.25)" fill="#0C8CE9"/>
<rect x="1669.12" y="430.492" width="1" height="271" transform="rotate(45 1669.12 430.492)" fill="#0C8CE9"/>
<rect x="1673.36" y="434.735" width="1" height="271" transform="rotate(45 1673.36 434.735)" fill="#0C8CE9"/>
<rect x="1677.6" y="438.978" width="1" height="271" transform="rotate(45 1677.6 438.978)" fill="#0C8CE9"/>
<rect x="1681.85" y="443.22" width="1" height="271" transform="rotate(45 1681.85 443.22)" fill="#0C8CE9"/>
<rect x="1686.09" y="447.463" width="1" height="271" transform="rotate(45 1686.09 447.463)" fill="#0C8CE9"/>
<rect x="1690.33" y="451.706" width="1" height="271" transform="rotate(45 1690.33 451.706)" fill="#0C8CE9"/>
<rect x="1694.57" y="455.948" width="1" height="271" transform="rotate(45 1694.57 455.948)" fill="#0C8CE9"/>
<rect x="1698.82" y="460.191" width="1" height="271" transform="rotate(45 1698.82 460.191)" fill="#0C8CE9"/>
<rect x="1703.06" y="464.434" width="1" height="271" transform="rotate(45 1703.06 464.434)" fill="#0C8CE9"/>
<rect x="1707.3" y="468.676" width="1" height="271" transform="rotate(45 1707.3 468.676)" fill="#0C8CE9"/>
<rect x="1711.54" y="472.919" width="1" height="271" transform="rotate(45 1711.54 472.919)" fill="#0C8CE9"/>
</g>
<rect x="1527.5" y="456.5" width="6" height="6" rx="1.5" fill="white" stroke="#4AB3FF"/>
<rect x="1527.5" y="467.5" width="6" height="6" rx="1.5" fill="white" stroke="#4AB3FF"/>
<rect x="1451.5" y="456.5" width="6" height="6" rx="1.5" fill="white" stroke="#4AB3FF"/>
<rect x="1483.5" y="532.5" width="6" height="6" rx="1.5" fill="white" stroke="#4AB3FF"/>
<rect x="1527.5" y="435.5" width="6" height="6" rx="1.5" fill="white" stroke="#4AB3FF"/>
<rect x="1451.5" y="435.5" width="6" height="6" rx="1.5" fill="white" stroke="#4AB3FF"/>
<rect x="1483.5" y="511.5" width="6" height="6" rx="1.5" fill="white" stroke="#4AB3FF"/>
<rect x="1527.5" y="413.5" width="6" height="6" rx="1.5" fill="white" stroke="#4AB3FF"/>
<rect x="1549.5" y="456.5" width="6" height="6" rx="1.5" fill="white" stroke="#4AB3FF"/>
<rect x="1549.5" y="467.5" width="6" height="6" rx="1.5" fill="white" stroke="#4AB3FF"/>
<rect x="1593.5" y="456.5" width="6" height="6" rx="1.5" fill="white" stroke="#4AB3FF"/>
<rect x="1549.5" y="435.5" width="6" height="6" rx="1.5" fill="white" stroke="#4AB3FF"/>
<rect x="1593.5" y="435.5" width="6" height="6" rx="1.5" fill="white" stroke="#4AB3FF"/>
<rect x="1549.5" y="413.5" width="6" height="6" rx="1.5" fill="white" stroke="#4AB3FF"/>
</svg>
