<svg width="94" height="18" viewBox="0 0 94 18" fill="none" xmlns="http://www.w3.org/2000/svg">
<path d="M23.116 13V4.252H24.412L29.356 11.668H29.428L29.368 8.68V4.252H30.364V13H29.116L24.184 5.644H24.112L24.16 8.452V13H23.116ZM32.5965 13V4.252H38.6085V5.152H33.3885L33.6165 4.912V8.344L33.3885 8.104H38.0205V8.944H33.3885L33.6165 8.704V12.328L33.3885 12.088H38.6205V13H32.5965ZM41.3383 13L39.3583 4.252H40.4743L41.5663 9.316L42.0943 11.872H42.1663L44.2183 4.252H45.5503L47.6143 11.884H47.6983L48.2023 9.316L49.2823 4.252H50.3983L48.4183 13H46.9903L44.9143 5.524H44.8423L42.7663 13H41.3383ZM54.4834 13.108C53.7154 13.108 53.0794 12.988 52.5754 12.748C52.0794 12.508 51.7074 12.176 51.4594 11.752C51.2194 11.32 51.0914 10.828 51.0754 10.276H52.1434C52.1514 10.684 52.2394 11.04 52.4074 11.344C52.5834 11.648 52.8394 11.88 53.1754 12.04C53.5194 12.2 53.9594 12.28 54.4954 12.28C55.1754 12.28 55.7194 12.156 56.1274 11.908C56.5434 11.652 56.7514 11.264 56.7514 10.744C56.7514 10.456 56.7074 10.216 56.6194 10.024C56.5314 9.824 56.3914 9.66 56.1994 9.532C56.0074 9.404 55.7554 9.296 55.4434 9.208C55.1314 9.112 54.7554 9.028 54.3154 8.956C53.8114 8.86 53.3714 8.752 52.9954 8.632C52.6194 8.512 52.3034 8.364 52.0474 8.188C51.7994 8.004 51.6114 7.78 51.4834 7.516C51.3554 7.252 51.2914 6.936 51.2914 6.568C51.2914 6.08 51.4154 5.656 51.6634 5.296C51.9114 4.928 52.2674 4.648 52.7314 4.456C53.1954 4.256 53.7554 4.156 54.4114 4.156C55.0754 4.156 55.6354 4.264 56.0914 4.48C56.5474 4.688 56.8994 4.98 57.1474 5.356C57.3954 5.732 57.5234 6.176 57.5314 6.688H56.4874C56.4714 6.304 56.3754 5.984 56.1994 5.728C56.0234 5.472 55.7794 5.28 55.4674 5.152C55.1554 5.024 54.7874 4.96 54.3634 4.96C53.9314 4.96 53.5674 5.024 53.2714 5.152C52.9754 5.272 52.7474 5.44 52.5874 5.656C52.4274 5.872 52.3474 6.128 52.3474 6.424C52.3474 6.776 52.4274 7.052 52.5874 7.252C52.7554 7.444 53.0194 7.596 53.3794 7.708C53.7474 7.82 54.2234 7.928 54.8074 8.032C55.2074 8.096 55.5874 8.18 55.9474 8.284C56.3074 8.388 56.6274 8.532 56.9074 8.716C57.1874 8.9 57.4074 9.148 57.5674 9.46C57.7354 9.764 57.8194 10.16 57.8194 10.648C57.8194 11.136 57.6914 11.564 57.4354 11.932C57.1794 12.3 56.8034 12.588 56.3074 12.796C55.8114 13.004 55.2034 13.108 54.4834 13.108ZM62.2449 13V4.252H68.2329V5.152H63.0609L63.2649 4.948V8.464L63.0609 8.26H67.7529V9.112H63.0609L63.2649 8.908V13H62.2449ZM69.7215 13V4.252H75.7335V5.152H70.5135L70.7415 4.912V8.344L70.5135 8.104H75.1455V8.944H70.5135L70.7415 8.704V12.328L70.5135 12.088H75.7455V13H69.7215ZM77.4793 13V4.252H83.4913V5.152H78.2713L78.4993 4.912V8.344L78.2713 8.104H82.9033V8.944H78.2713L78.4993 8.704V12.328L78.2713 12.088H83.5033V13H77.4793ZM85.2371 13V4.252H88.6811C89.5051 4.252 90.2091 4.436 90.7931 4.804C91.3771 5.164 91.8251 5.672 92.1371 6.328C92.4491 6.984 92.6051 7.752 92.6051 8.632C92.6051 9.288 92.5171 9.884 92.3411 10.42C92.1651 10.956 91.9051 11.416 91.5611 11.8C91.2251 12.184 90.8131 12.48 90.3251 12.688C89.8451 12.896 89.2971 13 88.6811 13H85.2371ZM86.2571 12.1H88.5491C89.0051 12.1 89.4171 12.028 89.7851 11.884C90.1531 11.732 90.4691 11.508 90.7331 11.212C90.9971 10.916 91.1971 10.552 91.3331 10.12C91.4771 9.68 91.5491 9.176 91.5491 8.608C91.5491 7.84 91.4251 7.2 91.1771 6.688C90.9291 6.176 90.5771 5.792 90.1211 5.536C89.6731 5.28 89.1491 5.152 88.5491 5.152H86.2571V12.1Z" fill="#AAAAAA"/>
<mask id="mask0_42_176" style="mask-type:alpha" maskUnits="userSpaceOnUse" x="0" y="0" width="18" height="18">
<rect width="18" height="18" fill="#D9D9D9"/>
</mask>
<g mask="url(#mask0_42_176)">
<path d="M4.25624 14.8875C3.93124 14.8875 3.65949 14.7782 3.44099 14.5597C3.22199 14.3407 3.11249 14.0688 3.11249 13.7438V4.25625C3.11249 3.93125 3.22199 3.65925 3.44099 3.44025C3.65949 3.22175 3.93124 3.1125 4.25624 3.1125H11.6437L14.8875 6.35625V13.7438C14.8875 14.0688 14.7782 14.3407 14.5597 14.5597C14.3407 14.7782 14.0687 14.8875 13.7437 14.8875H4.25624ZM4.25624 14.2125H13.7437C13.8812 14.2125 13.9937 14.1687 14.0812 14.0812C14.1687 13.9937 14.2125 13.8813 14.2125 13.7438V6.76875H11.2312V3.7875H4.25624C4.11874 3.7875 4.00624 3.83125 3.91874 3.91875C3.83124 4.00625 3.78749 4.11875 3.78749 4.25625V13.7438C3.78749 13.8813 3.83124 13.9937 3.91874 14.0812C4.00624 14.1687 4.11874 14.2125 4.25624 14.2125ZM5.68124 11.925H12.3187V11.2312H5.68124V11.925ZM5.68124 6.76875H8.99999V6.075H5.68124V6.76875ZM5.68124 9.3375H12.3187V8.64375H5.68124V9.3375Z" fill="#AAAAAA"/>
<path d="M2.32276 2.10781H4.22276V4.00781H2.32276V2.10781Z" fill="black" stroke="#AAAAAA" stroke-width="0.5"/>
<path d="M2.32276 14.1078H4.22276V16.0078H2.32276V14.1078Z" fill="black" stroke="#AAAAAA" stroke-width="0.5"/>
<path d="M13.5728 14.1078H15.4728V16.0078H13.5728V14.1078Z" fill="black" stroke="#AAAAAA" stroke-width="0.5"/>
<path d="M13.5728 5.10781H15.4728V7.00781H13.5728V5.10781Z" fill="black" stroke="#AAAAAA" stroke-width="0.5"/>
<path d="M10.2228 2.13282H12.1228V4.03282H10.2228V2.13282Z" fill="black" stroke="#AAAAAA" stroke-width="0.5"/>
</g>
</svg>
