<svg width="1920" height="640" viewBox="0 0 1920 640" fill="none" xmlns="http://www.w3.org/2000/svg">
<g clip-path="url(#clip0_1_7)">
<path d="M96 120L960 0L1824 120H96Z" fill="black"/>
<path d="M0 120H1920V640H0L0 120Z" fill="black"/>
<path d="M0 665.394H36.5159V615.325H83.3843V665.394H119.9V533.635H83.3843V582.95H36.5159V533.635H0V665.394Z" fill="#1A1A1A"/>
<path d="M129.075 665.394H167.285L176.696 641.677H227.705L237.117 665.394H276.268L220.176 532.694H184.978L129.075 665.394ZM187.425 613.255L202.295 575.986L216.976 613.255H187.425Z" fill="#1A1A1A"/>
<path d="M340.453 668.029C369.44 668.029 386.004 655.418 398.615 638.289L371.134 618.713C363.04 628.313 355.135 634.713 341.394 634.713C322.948 634.713 309.96 619.278 309.96 599.514V599.138C309.96 579.939 322.948 564.128 341.394 564.128C354.193 564.128 362.664 570.339 370.193 579.562L397.674 558.293C386.192 542.294 368.499 531 341.771 531C301.867 531 272.503 561.116 272.503 599.514V599.891C272.503 639.23 302.808 668.029 340.453 668.029Z" fill="#1A1A1A"/>
<path d="M410.745 665.394H447.261V615.325H494.129V665.394H530.645V533.635H494.129V582.95H447.261V533.635H410.745V665.394Z" fill="#1A1A1A"/>
<path d="M551.114 665.394H587.629V533.635H551.114V665.394Z" fill="#1A1A1A"/>
<path d="M607.986 665.394H644.502V625.49H660.689L687.229 665.394H729.204L697.77 619.466C714.334 612.502 724.874 599.138 724.874 578.809V578.433C724.874 565.822 720.922 555.469 713.204 547.752C704.358 538.906 690.617 533.635 670.289 533.635H607.986V665.394ZM644.502 596.879V565.069H668.595C680.641 565.069 688.359 570.339 688.359 580.88V581.256C688.359 590.856 681.018 596.879 668.783 596.879H644.502Z" fill="#1A1A1A"/>
<path d="M805.953 668.029C846.61 668.029 877.103 637.348 877.103 599.514V599.138C877.103 561.493 846.986 531 806.329 531C765.673 531 735.18 561.681 735.18 599.514V599.891C735.18 637.536 765.296 668.029 805.953 668.029ZM806.329 635.089C786.189 635.089 772.449 618.337 772.449 599.514V599.138C772.449 580.127 785.813 563.94 805.953 563.94C826.093 563.94 839.646 580.315 839.646 599.514V599.891C839.646 618.902 826.281 635.089 806.329 635.089Z" fill="#1A1A1A"/>
<path d="M892.171 665.394H928.687V631.136L942.051 616.455L975.367 665.394H1019.04L967.461 590.103L1017.34 533.635H974.049L928.687 587.091V533.635H892.171V665.394Z" fill="#1A1A1A"/>
<path d="M1080.78 667.841C1118.24 667.841 1142.52 649.018 1142.52 606.667V533.635H1105.63V607.796C1105.63 626.431 1096.21 634.901 1081.16 634.901C1066.29 634.901 1056.87 625.866 1056.87 606.855V533.635H1019.98V607.608C1019.98 649.018 1043.51 667.841 1080.78 667.841Z" fill="#1A1A1A"/>
<path d="M1264.42 667.276C1292.09 667.276 1311.47 652.782 1311.47 627.937V627.56C1311.47 605.538 1296.98 596.126 1269.31 588.974C1243.9 582.95 1237.88 578.433 1237.88 568.269V567.892C1237.88 559.046 1245.78 552.27 1259.33 552.27C1271.38 552.27 1283.05 556.975 1295.1 565.822L1307.52 548.317C1293.97 537.588 1279.1 531.753 1259.71 531.753C1233.55 531.753 1214.72 547.376 1214.72 569.963V570.339C1214.72 594.432 1230.54 603.091 1258.58 609.679C1283.05 615.137 1288.32 620.596 1288.32 629.819V630.195C1288.32 639.983 1279.29 646.759 1264.98 646.759C1248.61 646.759 1236.18 640.736 1223.38 629.631L1209.45 646.195C1225.27 660.5 1244.09 667.276 1264.42 667.276Z" fill="#1A1A1A"/>
<path d="M1364.55 665.394H1387.7V555.093H1429.67V533.635H1322.57V555.093H1364.55V665.394Z" fill="#1A1A1A"/>
<path d="M1503.94 667.464C1538.38 667.464 1560.59 647.7 1560.59 608.361V533.635H1537.44V609.49C1537.44 633.772 1524.83 646.006 1504.31 646.006C1483.42 646.006 1471 633.207 1471 608.549V533.635H1447.84V609.49C1447.84 647.7 1469.87 667.464 1503.94 667.464Z" fill="#1A1A1A"/>
<path d="M1588.61 665.394H1637.73C1679.14 665.394 1707.75 636.595 1707.75 599.514V599.138C1707.75 562.057 1679.14 533.635 1637.73 533.635H1588.61V665.394ZM1637.73 554.717C1665.4 554.717 1683.47 573.727 1683.47 599.514V599.891C1683.47 625.678 1665.4 644.312 1637.73 644.312H1611.76V554.717H1637.73Z" fill="#1A1A1A"/>
<path d="M1733.4 665.394H1756.55V533.635H1733.4V665.394Z" fill="#1A1A1A"/>
<path d="M1850.92 667.652C1891.39 667.652 1920 636.407 1920 599.514V599.138C1920 562.057 1891.77 531.376 1851.3 531.376C1810.83 531.376 1782.22 562.622 1782.22 599.514V599.891C1782.22 636.971 1810.45 667.652 1850.92 667.652ZM1851.3 646.195C1824.95 646.195 1806.5 625.113 1806.5 599.514V599.138C1806.5 573.539 1824.76 552.834 1850.92 552.834C1877.27 552.834 1895.72 573.916 1895.72 599.514V599.891C1895.72 625.49 1877.46 646.195 1851.3 646.195Z" fill="#1A1A1A"/>
</g>
<path d="M973.365 142.667V137.333H938.699V142.667H973.365Z" fill="white"/>
<path d="M925.365 249.882C925.365 252.814 927.022 255.495 929.645 256.807L941.365 262.667V243.451C941.365 240.519 939.709 237.838 937.086 236.527L925.365 230.667V249.882Z" fill="white"/>
<path fill-rule="evenodd" clip-rule="evenodd" d="M928.032 145.333L944.548 150.667H977.46C979.595 150.667 981.326 152.394 981.331 154.529L981.356 165.495C981.362 167.823 979.977 169.928 977.837 170.845L962.699 177.333V172H946.699V177.562C946.699 180.659 944.853 183.458 942.006 184.678L928.032 190.667V145.333ZM962.699 156H946.699V166.667H962.699V156Z" fill="white"/>
<path fill-rule="evenodd" clip-rule="evenodd" d="M922.699 142.667L935.94 136.046C937.748 135.142 939.288 133.782 940.409 132.101L954.699 110.667L979.044 139.881C980.515 141.646 982.694 142.667 984.991 142.667H1020.42L1015.09 137.333H992.032L958.48 97.8271C957.009 96.0951 954.851 95.0968 952.579 95.0968H940.677L949.603 105.008L922.699 140.274V126.419C922.699 122.146 919.237 118.681 914.964 118.677L896.032 118.667V105.364C913.716 91.6487 935.92 83.4839 960.032 83.4839C997.094 83.4839 1029.65 102.775 1048.21 131.864L1062.83 126.065C1041.82 91.2665 1003.65 68 960.032 68C893.758 68 840.032 121.726 840.032 188C840.032 204.839 843.5 220.867 849.761 235.41L917.878 207.659C920.793 206.471 922.699 203.637 922.699 200.489V142.667ZM877.365 193.333L896.032 182.667H904.032V205.692C904.032 207.171 902.99 207.965 902.469 208.178L862.117 224.636C857.849 213.236 855.516 200.89 855.516 188C855.516 163.907 863.668 141.717 877.365 124.04V193.333ZM896.032 177.333H904.032V124H896.032V177.333Z" fill="white"/>
<path d="M766 375H778.416V357.976H794.352V375H806.768V330.2H794.352V346.968H778.416V330.2H766V375Z" fill="white"/>
<path d="M809.888 375H822.88L826.08 366.936H843.424L846.624 375H859.936L840.864 329.88H828.896L809.888 375ZM829.728 357.272L834.784 344.6L839.776 357.272H829.728Z" fill="white"/>
<path d="M881.76 375.896C891.616 375.896 897.248 371.608 901.536 365.784L892.192 359.128C889.44 362.392 886.752 364.568 882.08 364.568C875.808 364.568 871.392 359.32 871.392 352.6V352.472C871.392 345.944 875.808 340.568 882.08 340.568C886.432 340.568 889.312 342.68 891.872 345.816L901.215 338.584C897.311 333.144 891.296 329.304 882.208 329.304C868.64 329.304 858.656 339.544 858.656 352.6V352.728C858.656 366.104 868.96 375.896 881.76 375.896Z" fill="white"/>
<path d="M905.66 375H918.076V357.976H934.012V375H946.428V330.2H934.012V346.968H918.076V330.2H905.66V375Z" fill="white"/>
<path d="M953.388 375H965.804V330.2H953.388V375Z" fill="white"/>
<path d="M972.725 375H985.141V361.432H990.645L999.669 375H1013.94L1003.25 359.384C1008.89 357.016 1012.47 352.472 1012.47 345.56V345.432C1012.47 341.144 1011.13 337.624 1008.5 335C1005.49 331.992 1000.82 330.2 993.909 330.2H972.725V375ZM985.141 351.704V340.888H993.333C997.429 340.888 1000.05 342.68 1000.05 346.264V346.392C1000.05 349.656 997.557 351.704 993.397 351.704H985.141Z" fill="white"/>
<path d="M1040.04 375.896C1053.86 375.896 1064.23 365.464 1064.23 352.6V352.472C1064.23 339.672 1053.99 329.304 1040.17 329.304C1026.34 329.304 1015.97 339.736 1015.97 352.6V352.728C1015.97 365.528 1026.21 375.896 1040.04 375.896ZM1040.17 364.696C1033.32 364.696 1028.65 359 1028.65 352.6V352.472C1028.65 346.008 1033.19 340.504 1040.04 340.504C1046.89 340.504 1051.49 346.072 1051.49 352.6V352.728C1051.49 359.192 1046.95 364.696 1040.17 364.696Z" fill="white"/>
<path d="M1069.35 375H1081.77V363.352L1086.31 358.36L1097.64 375H1112.49L1094.95 349.4L1111.91 330.2H1097.19L1081.77 348.376V330.2H1069.35V375Z" fill="white"/>
<path d="M1133.48 375.832C1146.22 375.832 1154.47 369.432 1154.47 355.032V330.2H1141.93V355.416C1141.93 361.752 1138.73 364.632 1133.61 364.632C1128.55 364.632 1125.35 361.56 1125.35 355.096V330.2H1112.81V355.352C1112.81 369.432 1120.81 375.832 1133.48 375.832Z" fill="white"/>
<path d="M873.432 428.4C879.312 428.4 883.432 425.32 883.432 420.04V419.96C883.432 415.28 880.352 413.28 874.472 411.76C869.072 410.48 867.792 409.52 867.792 407.36V407.28C867.792 405.4 869.472 403.96 872.352 403.96C874.912 403.96 877.392 404.96 879.952 406.84L882.592 403.12C879.712 400.84 876.552 399.6 872.432 399.6C866.872 399.6 862.872 402.92 862.872 407.72V407.8C862.872 412.92 866.232 414.76 872.192 416.16C877.392 417.32 878.512 418.48 878.512 420.44V420.52C878.512 422.6 876.592 424.04 873.552 424.04C870.072 424.04 867.432 422.76 864.712 420.4L861.752 423.92C865.112 426.96 869.112 428.4 873.432 428.4Z" fill="white"/>
<path d="M903.511 428H908.431V404.56H917.351V400H894.591V404.56H903.511V428Z" fill="white"/>
<path d="M941.932 428.44C949.252 428.44 953.972 424.24 953.972 415.88V400H949.052V416.12C949.052 421.28 946.372 423.88 942.012 423.88C937.572 423.88 934.932 421.16 934.932 415.92V400H930.012V416.12C930.012 424.24 934.692 428.44 941.932 428.44Z" fill="white"/>
<path d="M968.726 428H979.166C987.966 428 994.046 421.88 994.046 414V413.92C994.046 406.04 987.966 400 979.166 400H968.726V428ZM979.166 404.48C985.046 404.48 988.886 408.52 988.886 414V414.08C988.886 419.56 985.046 423.52 979.166 423.52H973.646V404.48H979.166Z" fill="white"/>
<path d="M1008.29 428H1013.21V400H1008.29V428Z" fill="white"/>
<path d="M1042.07 428.48C1050.67 428.48 1056.75 421.84 1056.75 414V413.92C1056.75 406.04 1050.75 399.52 1042.15 399.52C1033.55 399.52 1027.47 406.16 1027.47 414V414.08C1027.47 421.96 1033.47 428.48 1042.07 428.48ZM1042.15 423.92C1036.55 423.92 1032.63 419.44 1032.63 414V413.92C1032.63 408.48 1036.51 404.08 1042.07 404.08C1047.67 404.08 1051.59 408.56 1051.59 414V414.08C1051.59 419.52 1047.71 423.92 1042.15 423.92Z" fill="white"/>
<path d="M973.365 225.333V253.462C973.365 255.899 972.218 258.194 970.269 259.656L952.032 273.333V250.81C952.032 248.221 953.326 245.804 955.479 244.368L968.032 236V225.333H925.365V220H973.365V204H941.365V198.667H973.365V184.5C973.365 181.352 975.271 178.517 978.186 177.33L1070.01 139.919C1076.46 154.64 1080.03 170.902 1080.03 188C1080.03 254.274 1026.31 308 960.032 308C916.99 308 879.24 285.339 858.064 251.296L872.45 245.057C891.103 273.631 923.362 292.516 960.032 292.516C984.144 292.516 1006.35 284.351 1024.03 270.636V230.667L1035.75 236.527C1038.38 237.838 1040.03 240.519 1040.03 243.451V255.262C1055.33 237.084 1064.55 213.618 1064.55 188C1064.55 174.853 1062.12 162.272 1057.69 150.683L994.442 176.466C992.985 177.06 992.032 178.477 992.032 180.051V198.667H1009.49V190.667L1022.03 197.563C1023.26 198.244 1024.03 199.543 1024.03 200.955V202.452C1024.03 203.307 1023.34 204 1022.48 204H992.032V220H1025.49V212L1038.03 218.897C1039.26 219.577 1040.03 220.877 1040.03 222.288V223.785C1040.03 224.64 1039.34 225.333 1038.48 225.333H1010.7V247.773C1010.7 250.408 1009.36 252.861 1007.14 254.286L973.365 276V268L992.032 254.667V225.333H973.365Z" fill="white"/>
<defs>
<clipPath id="clip0_1_7">
<rect width="1920" height="640" fill="white"/>
</clipPath>
</defs>
</svg>
