<svg width="94" height="69" viewBox="0 0 94 69" fill="none" xmlns="http://www.w3.org/2000/svg">
<path d="M7.83997 1.712C8.57597 2.416 8.94397 3.296 8.94397 4.352C8.94397 5.408 8.57597 6.29333 7.83997 7.008C7.10397 7.712 6.15997 8.064 5.00797 8.064H3.26397V12H1.39197V0.64H5.00797C6.15997 0.64 7.10397 0.997334 7.83997 1.712ZM6.52797 5.76C6.91197 5.38667 7.10397 4.91733 7.10397 4.352C7.10397 3.78667 6.91197 3.32267 6.52797 2.96C6.15463 2.58667 5.64263 2.4 4.99197 2.4H3.26397V6.304H4.99197C5.64263 6.304 6.15463 6.12267 6.52797 5.76Z" fill="#6667AB"/>
<path d="M16.901 10.96C16.101 11.76 15.109 12.16 13.925 12.16C12.741 12.16 11.7436 11.76 10.933 10.96C10.133 10.1493 9.73297 9.16267 9.73297 8C9.73297 6.83733 10.133 5.856 10.933 5.056C11.7436 4.24533 12.741 3.84 13.925 3.84C15.109 3.84 16.101 4.24533 16.901 5.056C17.7116 5.856 18.117 6.83733 18.117 8C18.117 9.16267 17.7116 10.1493 16.901 10.96ZM13.925 10.528C14.6183 10.528 15.189 10.288 15.637 9.808C16.0956 9.31733 16.325 8.71467 16.325 8C16.325 7.28533 16.0956 6.688 15.637 6.208C15.189 5.71733 14.6183 5.472 13.925 5.472C13.221 5.472 12.6396 5.71733 12.181 6.208C11.733 6.688 11.509 7.28533 11.509 8C11.509 8.71467 11.733 9.31733 12.181 9.808C12.6396 10.288 13.221 10.528 13.925 10.528Z" fill="#6667AB"/>
<path d="M26.6406 12L24.8806 6.832L23.1366 12H21.4726L18.7846 4H20.6406L22.3686 9.52L24.2086 4H25.5526L27.3606 9.52L29.1206 4H30.9926L28.3046 12H26.6406Z" fill="#6667AB"/>
<path d="M35.8625 12.16C34.6465 12.16 33.6438 11.7707 32.8545 10.992C32.0758 10.2133 31.6865 9.216 31.6865 8C31.6865 6.816 32.0811 5.82933 32.8705 5.04C33.6598 4.24 34.6571 3.84 35.8625 3.84C36.9718 3.84 37.8891 4.192 38.6145 4.896C39.3505 5.6 39.7185 6.57067 39.7185 7.808C39.7185 8.02133 39.7131 8.21333 39.7025 8.384H33.4145C33.4571 9.03467 33.7078 9.56267 34.1665 9.968C34.6251 10.3627 35.1958 10.56 35.8785 10.56C36.9025 10.56 37.6651 10.1547 38.1665 9.344L39.5105 10.304C38.7425 11.5413 37.5265 12.16 35.8625 12.16ZM33.4945 7.104H37.9425C37.8465 6.54933 37.5958 6.11733 37.1905 5.808C36.7958 5.488 36.3318 5.328 35.7985 5.328C35.2438 5.328 34.7478 5.48267 34.3105 5.792C33.8838 6.10133 33.6118 6.53867 33.4945 7.104Z" fill="#6667AB"/>
<path d="M41.5277 12V4H43.2877V5.424C43.4371 4.976 43.7091 4.61333 44.1037 4.336C44.5091 4.05867 44.9411 3.92 45.3997 3.92C45.6771 3.92 45.9064 3.94133 46.0877 3.984V5.792C45.8317 5.696 45.5384 5.648 45.2077 5.648C44.6744 5.648 44.2211 5.86667 43.8477 6.304C43.4744 6.73067 43.2877 7.328 43.2877 8.096V12H41.5277Z" fill="#6667AB"/>
<path d="M50.9406 12.16C49.7246 12.16 48.7219 11.7707 47.9326 10.992C47.1539 10.2133 46.7646 9.216 46.7646 8C46.7646 6.816 47.1593 5.82933 47.9486 5.04C48.7379 4.24 49.7353 3.84 50.9406 3.84C52.0499 3.84 52.9673 4.192 53.6926 4.896C54.4286 5.6 54.7966 6.57067 54.7966 7.808C54.7966 8.02133 54.7913 8.21333 54.7806 8.384H48.4926C48.5353 9.03467 48.7859 9.56267 49.2446 9.968C49.7033 10.3627 50.2739 10.56 50.9566 10.56C51.9806 10.56 52.7433 10.1547 53.2446 9.344L54.5886 10.304C53.8206 11.5413 52.6046 12.16 50.9406 12.16ZM48.5726 7.104H53.0206C52.9246 6.54933 52.6739 6.11733 52.2686 5.808C51.8739 5.488 51.4099 5.328 50.8766 5.328C50.3219 5.328 49.8259 5.48267 49.3886 5.792C48.9619 6.10133 48.6899 6.53867 48.5726 7.104Z" fill="#6667AB"/>
<path d="M59.8858 12.16C58.7978 12.16 57.8805 11.7547 57.1338 10.944C56.3978 10.1333 56.0298 9.152 56.0298 8C56.0298 6.848 56.3978 5.86667 57.1338 5.056C57.8805 4.24533 58.7978 3.84 59.8858 3.84C60.4298 3.84 60.9312 3.96267 61.3898 4.208C61.8485 4.44267 62.2005 4.73067 62.4458 5.072V0H64.2058V12H62.4458V10.928C62.2005 11.2693 61.8485 11.5627 61.3898 11.808C60.9312 12.0427 60.4298 12.16 59.8858 12.16ZM58.4938 9.824C58.9418 10.3147 59.5125 10.56 60.2058 10.56C60.8992 10.56 61.4698 10.3147 61.9178 9.824C62.3658 9.33333 62.5898 8.72533 62.5898 8C62.5898 7.27467 62.3658 6.66667 61.9178 6.176C61.4698 5.68533 60.8992 5.44 60.2058 5.44C59.5125 5.44 58.9418 5.68533 58.4938 6.176C58.0458 6.66667 57.8218 7.27467 57.8218 8C57.8218 8.72533 58.0458 9.33333 58.4938 9.824Z" fill="#6667AB"/>
<path d="M74.6918 12.16C74.1478 12.16 73.6412 12.0427 73.1718 11.808C72.7132 11.5627 72.3612 11.2693 72.1158 10.928V12H70.3558V0H72.1158V5.072C72.3612 4.73067 72.7132 4.44267 73.1718 4.208C73.6412 3.96267 74.1478 3.84 74.6918 3.84C75.7798 3.84 76.6918 4.24533 77.4278 5.056C78.1745 5.86667 78.5478 6.848 78.5478 8C78.5478 9.152 78.1745 10.1333 77.4278 10.944C76.6918 11.7547 75.7798 12.16 74.6918 12.16ZM74.3718 10.56C75.0652 10.56 75.6358 10.3147 76.0838 9.824C76.5318 9.33333 76.7558 8.72533 76.7558 8C76.7558 7.27467 76.5318 6.66667 76.0838 6.176C75.6358 5.68533 75.0652 5.44 74.3718 5.44C73.6678 5.44 73.0918 5.68533 72.6438 6.176C72.1958 6.66667 71.9718 7.27467 71.9718 8C71.9718 8.72533 72.1958 9.33333 72.6438 9.824C73.0918 10.3147 73.6678 10.56 74.3718 10.56Z" fill="#6667AB"/>
<path d="M82.7127 15.344H80.7767L82.4887 11.568L79.0487 4H80.9847L83.4327 9.664L85.8967 4H87.8487L82.7127 15.344Z" fill="#6667AB"/>
<path d="M49.7475 61.63V50.575H57.1175V61.63H49.7475Z" fill="#6667AB"/>
<path d="M86.5974 61.63V50.575H93.9674V61.63H86.5974Z" fill="#6667AB"/>
<path d="M23.9525 43.208V37.4524H38.6925V43.208H23.9525Z" fill="#6667AB"/>
<path fill-rule="evenodd" clip-rule="evenodd" d="M18.4249 45.9688V69H34.0021C37.5787 69 39.3669 69 40.733 68.304C41.9346 67.6917 42.9116 66.7147 43.5239 65.5131C44.2199 64.147 44.2199 62.3587 44.2199 58.7822V45.9688H18.4249ZM25.7949 52.4175V61.63H35.468C35.8973 61.63 36.1118 61.63 36.2813 61.56C36.5068 61.4664 36.6863 61.2869 36.7799 61.0614C36.8499 60.8919 36.8499 60.6774 36.8499 60.2481V52.4175H25.7949Z" fill="#6667AB"/>
<path d="M53.4325 35.835V28.465H68.1725V21.095H75.5425V28.465H90.2825V35.835H75.5425V39.52H93.9675V46.89H82.9125V56.1025C82.9125 58.763 82.9125 60.0933 82.6618 61.1938C81.8048 64.9552 78.8677 67.8923 75.1063 68.7493C74.0058 69 72.6755 69 70.015 69V61.63C71.7657 61.63 72.6411 61.63 73.3286 61.3359C74.1916 60.9667 74.8791 60.2791 75.2483 59.4161C75.5425 58.7286 75.5425 57.8532 75.5425 56.1025V46.89H68.1725V52.9765C68.1725 61.63 64.3821 68.0419 63.6536 69L57.1175 65.315C60.1104 59.9342 60.8025 56.8395 60.8025 52.4175V46.89H49.7475V39.52H68.1725V35.835H53.4325Z" fill="#6667AB"/>
<path fill-rule="evenodd" clip-rule="evenodd" d="M16.5825 35.8351L14.74 33.9925L16.5825 32.15V28.4651H0V63.4725H7.82436C10.89 63.4725 12.4228 63.4725 13.5937 62.8759C14.6237 62.3511 15.4611 61.5137 15.9859 60.4837C16.5825 59.3128 16.5825 57.78 16.5825 54.7144V35.8351ZM6.82223 35.8351H9.76027V54.7207C9.76027 55.1499 9.76027 55.3646 9.69014 55.5338C9.59665 55.7596 9.4173 55.9389 9.19156 56.0324C9.02227 56.1025 8.80766 56.1025 8.37839 56.1025H6.82223V35.8351Z" fill="#6667AB"/>
<path d="M47.9049 33.9925L41.1279 27.2155C37.6957 23.7833 35.9796 22.0672 34.0007 21.4242C32.26 20.8586 30.3849 20.8586 28.6442 21.4242C26.6653 22.0672 24.9492 23.7833 21.517 27.2155L16.5825 32.15L14.74 33.9925L16.5825 35.8351L20.2675 39.52L29.3682 30.4193C29.9752 29.8122 30.2787 29.5087 30.6174 29.3685C31.0688 29.1815 31.5761 29.1815 32.0275 29.3685C32.3661 29.5087 32.6696 29.8122 33.2767 30.4193L42.3774 39.52L47.9049 33.9925Z" fill="#6667AB"/>
</svg>
