<svg width="287" height="21" viewBox="0 0 287 21" fill="none" xmlns="http://www.w3.org/2000/svg">
<path d="M0.736084 20.0001H6.16808V12.5521H13.1401V20.0001H18.5721V0.400057H13.1401V7.73606H6.16808V0.400057H0.736084V20.0001Z" fill="black"/>
<path d="M19.9369 20.0001H25.6209L27.0209 16.4721H34.6089L36.0089 20.0001H41.8329L33.4889 0.260057H28.2529L19.9369 20.0001ZM28.6169 12.2441L30.8289 6.70006L33.0129 12.2441H28.6169Z" fill="black"/>
<path d="M51.3809 20.3921C55.6929 20.3921 58.1569 18.5161 60.0329 15.9681L55.9449 13.0561C54.7409 14.4841 53.5649 15.4361 51.5209 15.4361C48.7769 15.4361 46.8449 13.1401 46.8449 10.2001V10.1441C46.8449 7.28806 48.7769 4.93606 51.5209 4.93606C53.4249 4.93606 54.6849 5.86006 55.8049 7.23206L59.8929 4.06806C58.1849 1.68806 55.5529 0.00805664 51.5769 0.00805664C45.6409 0.00805664 41.2729 4.48806 41.2729 10.2001V10.2561C41.2729 16.1081 45.7809 20.3921 51.3809 20.3921Z" fill="black"/>
<path d="M61.8373 20.0001H67.2693V12.5521H74.2413V20.0001H79.6733V0.400057H74.2413V7.73606H67.2693V0.400057H61.8373V20.0001Z" fill="black"/>
<path d="M82.7181 20.0001H88.1501V0.400057H82.7181V20.0001Z" fill="black"/>
<path d="M91.1783 20.0001H96.6103V14.0641H99.0183L102.966 20.0001H109.21L104.534 13.1681C106.998 12.1321 108.566 10.1441 108.566 7.12006V7.06406C108.566 5.18806 107.978 3.64806 106.83 2.50006C105.514 1.18406 103.47 0.400057 100.446 0.400057H91.1783V20.0001ZM96.6103 9.80806V5.07606H100.194C101.986 5.07606 103.134 5.86006 103.134 7.42806V7.48406C103.134 8.91206 102.042 9.80806 100.222 9.80806H96.6103Z" fill="black"/>
<path d="M120.627 20.3921C126.675 20.3921 131.211 15.8281 131.211 10.2001V10.1441C131.211 4.54406 126.731 0.00805664 120.683 0.00805664C114.635 0.00805664 110.099 4.57206 110.099 10.2001V10.2561C110.099 15.8561 114.579 20.3921 120.627 20.3921ZM120.683 15.4921C117.687 15.4921 115.643 13.0001 115.643 10.2001V10.1441C115.643 7.31606 117.631 4.90806 120.627 4.90806C123.623 4.90806 125.639 7.34406 125.639 10.2001V10.2561C125.639 13.0841 123.651 15.4921 120.683 15.4921Z" fill="black"/>
<path d="M133.453 20.0001H138.885V14.9041L140.873 12.7201L145.829 20.0001H152.325L144.653 8.80006L152.073 0.400057H145.633L138.885 8.35206V0.400057H133.453V20.0001Z" fill="black"/>
<path d="M161.51 20.3641C167.082 20.3641 170.694 17.5641 170.694 11.2641V0.400057H165.206V11.4321C165.206 14.2041 163.806 15.4641 161.566 15.4641C159.354 15.4641 157.954 14.1201 157.954 11.2921V0.400057H152.466V11.4041C152.466 17.5641 155.966 20.3641 161.51 20.3641Z" fill="black"/>
<path d="M188.827 20.2801C192.943 20.2801 195.827 18.1241 195.827 14.4281V14.3721C195.827 11.0961 193.671 9.69606 189.555 8.63206C185.775 7.73606 184.879 7.06406 184.879 5.55206V5.49606C184.879 4.18006 186.055 3.17206 188.071 3.17206C189.863 3.17206 191.599 3.87206 193.391 5.18806L195.239 2.58406C193.223 0.988057 191.011 0.120057 188.127 0.120057C184.235 0.120057 181.435 2.44406 181.435 5.80406V5.86006C181.435 9.44406 183.787 10.7321 187.959 11.7121C191.599 12.5241 192.383 13.3361 192.383 14.7081V14.7641C192.383 16.2201 191.039 17.2281 188.911 17.2281C186.475 17.2281 184.627 16.3321 182.723 14.6801L180.651 17.1441C183.003 19.2721 185.803 20.2801 188.827 20.2801Z" fill="black"/>
<path d="M203.722 20.0001H207.166V3.59206H213.41V0.400057H197.478V3.59206H203.722V20.0001Z" fill="black"/>
<path d="M224.457 20.3081C229.581 20.3081 232.885 17.3681 232.885 11.5161V0.400057H229.441V11.6841C229.441 15.2961 227.565 17.1161 224.513 17.1161C221.405 17.1161 219.557 15.2121 219.557 11.5441V0.400057H216.113V11.6841C216.113 17.3681 219.389 20.3081 224.457 20.3081Z" fill="black"/>
<path d="M237.053 20.0001H244.361C250.521 20.0001 254.777 15.7161 254.777 10.2001V10.1441C254.777 4.62806 250.521 0.400057 244.361 0.400057H237.053V20.0001ZM244.361 3.53606C248.477 3.53606 251.165 6.36406 251.165 10.2001V10.2561C251.165 14.0921 248.477 16.8641 244.361 16.8641H240.497V3.53606H244.361Z" fill="black"/>
<path d="M258.591 20.0001H262.035V0.400057H258.591V20.0001Z" fill="black"/>
<path d="M276.074 20.3361C282.094 20.3361 286.35 15.6881 286.35 10.2001V10.1441C286.35 4.62806 282.15 0.0640576 276.13 0.0640576C270.11 0.0640576 265.854 4.71206 265.854 10.2001V10.2561C265.854 15.7721 270.054 20.3361 276.074 20.3361ZM276.13 17.1441C272.21 17.1441 269.466 14.0081 269.466 10.2001V10.1441C269.466 6.33606 272.182 3.25606 276.074 3.25606C279.994 3.25606 282.738 6.39206 282.738 10.2001V10.2561C282.738 14.0641 280.022 17.1441 276.13 17.1441Z" fill="black"/>
</svg>
