<svg width="36" height="36" viewBox="0 0 36 36" fill="none" xmlns="http://www.w3.org/2000/svg">
<path fill-rule="evenodd" clip-rule="evenodd" d="M0 6C0 4.89543 0.89543 4 2 4H34C35.1046 4 36 4.89543 36 6C36 7.10457 35.1046 8 34 8H2C0.89543 8 0 7.10457 0 6Z" fill="white"/>
<path fill-rule="evenodd" clip-rule="evenodd" d="M0 18C0 16.8954 0.89543 16 2 16H34C35.1046 16 36 16.8954 36 18C36 19.1046 35.1046 20 34 20H2C0.89543 20 0 19.1046 0 18Z" fill="white"/>
<path fill-rule="evenodd" clip-rule="evenodd" d="M0 30C0 28.8954 0.89543 28 2 28H34C35.1046 28 36 28.8954 36 30C36 31.1046 35.1046 32 34 32H2C0.89543 32 0 31.1046 0 30Z" fill="white"/>
</svg>
