<svg width="661" height="157" viewBox="0 0 661 157" fill="none" xmlns="http://www.w3.org/2000/svg">
<path d="M207.546 100.523H217.499L193.327 143.06L206.257 156L238.043 100.064V81.7074L197.955 81.7069L163.091 143.059L176.021 155.999L207.546 100.523Z" stroke="url(#paint0_linear_294_10412)" stroke-width="0.534483"/>
<path d="M139.583 100.523L124.466 81.7069H188.003L145.785 155.999L132.856 143.059L157.027 100.523H139.583Z" stroke="url(#paint1_linear_294_10412)" stroke-width="0.534483"/>
<path d="M459.821 100.523H469.773L445.601 143.06L458.533 156L490.319 100.064V81.7074L450.23 81.7069L415.366 143.059L428.298 155.999L459.821 100.523Z" stroke="url(#paint2_linear_294_10412)" stroke-width="0.534483"/>
<path d="M391.859 100.523L376.741 81.7069H440.278L398.062 155.999L385.13 143.059L409.302 100.523H391.859Z" stroke="url(#paint3_linear_294_10412)" stroke-width="0.534483"/>
<path d="M124.969 19.8156H134.921L110.749 62.353L123.679 75.2931L155.466 19.357V1.00061L115.377 1L80.5132 62.3517L93.4436 75.2923L124.969 19.8156Z" stroke="url(#paint4_linear_294_10412)" stroke-width="0.534483"/>
<path d="M57.0058 19.8156L41.8879 1H105.425L63.208 75.2923L50.2779 62.3517L74.4494 19.8156H57.0058Z" stroke="url(#paint5_linear_294_10412)" stroke-width="0.534483"/>
<path d="M377.244 19.8156H387.196L363.024 62.353L375.956 75.2931L407.741 19.357V1.00061L367.652 1L332.788 62.3517L345.72 75.2923L377.244 19.8156Z" stroke="url(#paint6_linear_294_10412)" stroke-width="0.534483"/>
<path d="M309.282 19.8156L294.164 1H357.7L315.484 75.2923L302.554 62.3517L326.724 19.8156H309.282Z" stroke="url(#paint7_linear_294_10412)" stroke-width="0.534483"/>
<path d="M629.52 19.8156H639.472L615.3 62.353L628.232 75.2931L660.017 19.357V1.00061L619.928 1L585.064 62.3517L597.996 75.2923L629.52 19.8156Z" stroke="url(#paint8_linear_294_10412)" stroke-width="0.534483"/>
<path d="M561.557 19.8156L546.44 1H609.976L567.76 75.2923L554.828 62.3517L579 19.8156H561.557Z" stroke="url(#paint9_linear_294_10412)" stroke-width="0.534483"/>
<path d="M84.0808 100.523H94.0334L69.8611 143.06L82.7914 156L114.578 100.064V81.7074L74.4893 81.7069L39.6253 143.059L52.5557 155.999L84.0808 100.523Z" stroke="url(#paint10_linear_294_10412)" stroke-width="0.534483"/>
<path d="M16.1178 100.523L1 81.7069H64.5373L22.32 155.999L9.39004 143.059L33.5615 100.523H16.1178Z" stroke="url(#paint11_linear_294_10412)" stroke-width="0.534483"/>
<path d="M336.356 100.523H346.308L322.137 143.06L335.068 156L366.853 100.064V81.7074L326.765 81.7069L291.901 143.059L304.832 155.999L336.356 100.523Z" stroke="url(#paint12_linear_294_10412)" stroke-width="0.534483"/>
<path d="M268.394 100.523L253.276 81.7069H316.813L274.596 155.999L261.666 143.059L285.837 100.523H268.394Z" stroke="url(#paint13_linear_294_10412)" stroke-width="0.534483"/>
<path d="M588.632 100.523H598.584L574.412 143.06L587.344 156L619.129 100.064V81.7074L579.04 81.7069L544.176 143.059L557.108 155.999L588.632 100.523Z" stroke="url(#paint14_linear_294_10412)" stroke-width="0.534483"/>
<path d="M520.67 100.523L505.552 81.7069H569.088L526.872 155.999L513.94 143.059L538.112 100.523H520.67Z" stroke="url(#paint15_linear_294_10412)" stroke-width="0.534483"/>
<path d="M248.434 19.8156H258.387L234.215 62.353L247.145 75.2931L278.931 19.357V1.00061L238.843 1L203.979 62.3517L216.909 75.2923L248.434 19.8156Z" stroke="url(#paint16_linear_294_10412)" stroke-width="0.534483"/>
<path d="M180.471 19.8156L165.353 1H228.891L186.673 75.2923L173.743 62.3517L197.915 19.8156H180.471Z" stroke="url(#paint17_linear_294_10412)" stroke-width="0.534483"/>
<path d="M500.709 19.8156H510.661L486.489 62.353L499.421 75.2931L531.207 19.357V1.00061L491.118 1L456.254 62.3517L469.185 75.2923L500.709 19.8156Z" stroke="url(#paint18_linear_294_10412)" stroke-width="0.534483"/>
<path d="M432.747 19.8156L417.629 1H481.166L438.95 75.2923L426.018 62.3517L450.19 19.8156H432.747Z" stroke="url(#paint19_linear_294_10412)" stroke-width="0.534483"/>
<defs>
<linearGradient id="paint0_linear_294_10412" x1="596" y1="78.0001" x2="127" y2="78.0001" gradientUnits="userSpaceOnUse">
<stop stop-color="#E9EAED" stop-opacity="0.3"/>
<stop offset="1" stop-color="#E9EAED" stop-opacity="0.05"/>
</linearGradient>
<linearGradient id="paint1_linear_294_10412" x1="596" y1="78.0001" x2="127" y2="78.0001" gradientUnits="userSpaceOnUse">
<stop stop-color="#E9EAED" stop-opacity="0.3"/>
<stop offset="1" stop-color="#E9EAED" stop-opacity="0.05"/>
</linearGradient>
<linearGradient id="paint2_linear_294_10412" x1="596" y1="78.0001" x2="127" y2="78.0001" gradientUnits="userSpaceOnUse">
<stop stop-color="#E9EAED" stop-opacity="0.3"/>
<stop offset="1" stop-color="#E9EAED" stop-opacity="0.05"/>
</linearGradient>
<linearGradient id="paint3_linear_294_10412" x1="596" y1="78.0001" x2="127" y2="78.0001" gradientUnits="userSpaceOnUse">
<stop stop-color="#E9EAED" stop-opacity="0.3"/>
<stop offset="1" stop-color="#E9EAED" stop-opacity="0.05"/>
</linearGradient>
<linearGradient id="paint4_linear_294_10412" x1="596" y1="78.0001" x2="127" y2="78.0001" gradientUnits="userSpaceOnUse">
<stop stop-color="#E9EAED" stop-opacity="0.3"/>
<stop offset="1" stop-color="#E9EAED" stop-opacity="0.05"/>
</linearGradient>
<linearGradient id="paint5_linear_294_10412" x1="596" y1="78.0001" x2="127" y2="78.0001" gradientUnits="userSpaceOnUse">
<stop stop-color="#E9EAED" stop-opacity="0.3"/>
<stop offset="1" stop-color="#E9EAED" stop-opacity="0.05"/>
</linearGradient>
<linearGradient id="paint6_linear_294_10412" x1="596" y1="78.0001" x2="127" y2="78.0001" gradientUnits="userSpaceOnUse">
<stop stop-color="#E9EAED" stop-opacity="0.3"/>
<stop offset="1" stop-color="#E9EAED" stop-opacity="0.05"/>
</linearGradient>
<linearGradient id="paint7_linear_294_10412" x1="596" y1="78.0001" x2="127" y2="78.0001" gradientUnits="userSpaceOnUse">
<stop stop-color="#E9EAED" stop-opacity="0.3"/>
<stop offset="1" stop-color="#E9EAED" stop-opacity="0.05"/>
</linearGradient>
<linearGradient id="paint8_linear_294_10412" x1="596" y1="78.0001" x2="127" y2="78.0001" gradientUnits="userSpaceOnUse">
<stop stop-color="#E9EAED" stop-opacity="0.3"/>
<stop offset="1" stop-color="#E9EAED" stop-opacity="0.05"/>
</linearGradient>
<linearGradient id="paint9_linear_294_10412" x1="596" y1="78.0001" x2="127" y2="78.0001" gradientUnits="userSpaceOnUse">
<stop stop-color="#E9EAED" stop-opacity="0.3"/>
<stop offset="1" stop-color="#E9EAED" stop-opacity="0.05"/>
</linearGradient>
<linearGradient id="paint10_linear_294_10412" x1="596" y1="78.0001" x2="127" y2="78.0001" gradientUnits="userSpaceOnUse">
<stop stop-color="#E9EAED" stop-opacity="0.3"/>
<stop offset="1" stop-color="#E9EAED" stop-opacity="0.05"/>
</linearGradient>
<linearGradient id="paint11_linear_294_10412" x1="596" y1="78.0001" x2="127" y2="78.0001" gradientUnits="userSpaceOnUse">
<stop stop-color="#E9EAED" stop-opacity="0.3"/>
<stop offset="1" stop-color="#E9EAED" stop-opacity="0.05"/>
</linearGradient>
<linearGradient id="paint12_linear_294_10412" x1="596" y1="78.0001" x2="127" y2="78.0001" gradientUnits="userSpaceOnUse">
<stop stop-color="#E9EAED" stop-opacity="0.3"/>
<stop offset="1" stop-color="#E9EAED" stop-opacity="0.05"/>
</linearGradient>
<linearGradient id="paint13_linear_294_10412" x1="596" y1="78.0001" x2="127" y2="78.0001" gradientUnits="userSpaceOnUse">
<stop stop-color="#E9EAED" stop-opacity="0.3"/>
<stop offset="1" stop-color="#E9EAED" stop-opacity="0.05"/>
</linearGradient>
<linearGradient id="paint14_linear_294_10412" x1="596" y1="78.0001" x2="127" y2="78.0001" gradientUnits="userSpaceOnUse">
<stop stop-color="#E9EAED" stop-opacity="0.3"/>
<stop offset="1" stop-color="#E9EAED" stop-opacity="0.05"/>
</linearGradient>
<linearGradient id="paint15_linear_294_10412" x1="596" y1="78.0001" x2="127" y2="78.0001" gradientUnits="userSpaceOnUse">
<stop stop-color="#E9EAED" stop-opacity="0.3"/>
<stop offset="1" stop-color="#E9EAED" stop-opacity="0.05"/>
</linearGradient>
<linearGradient id="paint16_linear_294_10412" x1="596" y1="78.0001" x2="127" y2="78.0001" gradientUnits="userSpaceOnUse">
<stop stop-color="#E9EAED" stop-opacity="0.3"/>
<stop offset="1" stop-color="#E9EAED" stop-opacity="0.05"/>
</linearGradient>
<linearGradient id="paint17_linear_294_10412" x1="596" y1="78.0001" x2="127" y2="78.0001" gradientUnits="userSpaceOnUse">
<stop stop-color="#E9EAED" stop-opacity="0.3"/>
<stop offset="1" stop-color="#E9EAED" stop-opacity="0.05"/>
</linearGradient>
<linearGradient id="paint18_linear_294_10412" x1="596" y1="78.0001" x2="127" y2="78.0001" gradientUnits="userSpaceOnUse">
<stop stop-color="#E9EAED" stop-opacity="0.3"/>
<stop offset="1" stop-color="#E9EAED" stop-opacity="0.05"/>
</linearGradient>
<linearGradient id="paint19_linear_294_10412" x1="596" y1="78.0001" x2="127" y2="78.0001" gradientUnits="userSpaceOnUse">
<stop stop-color="#E9EAED" stop-opacity="0.3"/>
<stop offset="1" stop-color="#E9EAED" stop-opacity="0.05"/>
</linearGradient>
</defs>
</svg>
