<svg width="32" height="32" viewBox="0 0 32 32" fill="none" xmlns="http://www.w3.org/2000/svg">
<path id="Vector" d="M6.58001 1.64205e-05C5.71537 -0.00191731 4.85886 0.166959 4.05967 0.49695C3.26047 0.826941 2.53433 1.31155 1.92294 1.92294C1.31155 2.53433 0.826941 3.26047 0.49695 4.05967C0.166959 4.85886 -0.00191731 5.71537 1.64205e-05 6.58001V25.42C-0.00191731 26.2846 0.166959 27.1411 0.49695 27.9403C0.826941 28.7395 1.31155 29.4657 1.92294 30.0771C2.53433 30.6885 3.26047 31.1731 4.05967 31.503C4.85886 31.833 5.71537 32.0019 6.58001 32H25.42C26.2846 32.0019 27.1411 31.833 27.9403 31.503C28.7395 31.1731 29.4657 30.6885 30.0771 30.0771C30.6885 29.4657 31.1731 28.7395 31.503 27.9403C31.833 27.1411 32.0019 26.2846 32 25.42V6.58001C32.0019 5.71537 31.833 4.85886 31.503 4.05967C31.1731 3.26047 30.6885 2.53433 30.0771 1.92294C29.4657 1.31155 28.7395 0.826941 27.9403 0.49695C27.1411 0.166959 26.2846 -0.00191731 25.42 1.64205e-05H6.58001ZM16.9933 6.06268C19.9013 6.06268 22.404 6.96401 24.192 8.52534C25.083 9.29588 25.7965 10.2502 26.2836 11.3228C26.7706 12.3954 27.0196 13.5607 27.0133 14.7387C27.02 17.2107 25.84 19.3733 24.004 20.8227C22.1707 22.2787 19.704 23.0853 16.9933 23.0853C13.908 23.0853 11.0467 21.9627 11.0467 21.9627V25.5867C11.576 25.7413 12.444 26.0733 11.8933 26.6253H7.72001C7.17334 26.0787 7.97334 25.7587 8.57867 25.5867V10.2213C7.17468 11.3013 6.45468 12.2347 6.08801 12.9293C6.51468 14.2893 5.70934 14.2213 5.70934 14.2213L4.25601 11.9147C4.25601 11.9147 9.41334 6.06268 16.9933 6.06268ZM16.74 7.35734C14.8427 7.35334 12.4947 7.98801 11.0467 9.01601V20.544C12.364 21.1933 14.3587 21.6533 16.7267 21.6533H16.74C18.868 21.6533 20.7133 20.8627 21.98 19.6093C23.2493 18.3453 23.9613 16.6987 23.9693 14.6987C23.9627 12.6453 23.2973 10.88 22.076 9.55201C20.852 8.22934 19.044 7.35868 16.74 7.35734Z" fill="url(#paint0_linear_204_13)"/>
<defs>
<linearGradient id="paint0_linear_204_13" x1="16" y1="0" x2="16" y2="32" gradientUnits="userSpaceOnUse">
<stop stop-color="white"/>
<stop offset="1" stop-color="white" stop-opacity="0.5"/>
</linearGradient>
</defs>
</svg>
