<svg width="540" height="856" viewBox="0 0 540 856" fill="none" xmlns="http://www.w3.org/2000/svg">
<g clip-path="url(#clip0_7_3)">
<rect y="856" width="856" height="540" rx="28" transform="rotate(-90 0 856)" fill="white"/>
<rect width="540" height="90" fill="#76CAD0"/>
<rect y="90" width="540" height="20" fill="#5392C3"/>
<rect y="796" width="540" height="60" fill="#5B6564"/>
<path d="M44.96 817.04V823.72H56.2V828.2H44.96V839H39.44V812.6H59.2V817.04H44.96ZM75.0759 832.56H64.9159L62.7559 839H57.1159L66.7559 812.6H73.3559L82.9959 839H77.2759L75.0759 832.56ZM73.7159 828.48L71.2359 821.04L70.0359 817.04H69.9559L68.8359 820.96L66.2759 828.48H73.7159ZM108.392 839H102.072L92.8319 823.48L90.5519 819.04H90.5119L90.6719 823.72V839H85.7119V812.6H91.9919L101.232 828.08L103.512 832.56H103.592L103.432 827.88V812.6H108.392V839ZM142.802 839H137.842V825.24L138.082 817.52H138.002L130.682 839H126.162L118.882 817.52H118.802L119.082 825.24V839H114.082V812.6H122.082L126.842 827L128.522 832.96H128.602L130.322 827.04L135.042 812.6H142.802V839ZM163.468 832.56H153.308L151.148 839H145.508L155.148 812.6H161.748L171.388 839H165.668L163.468 832.56ZM162.108 828.48L159.628 821.04L158.428 817.04H158.348L157.228 820.96L154.668 828.48H162.108ZM184.304 812.6C188.437 812.6 191.637 813.747 193.904 816.04C196.171 818.333 197.304 821.587 197.304 825.8C197.304 830.013 196.171 833.267 193.904 835.56C191.637 837.853 188.437 839 184.304 839H174.104V812.6H184.304ZM184.024 834.6C186.531 834.6 188.411 833.853 189.664 832.36C190.944 830.84 191.584 828.653 191.584 825.8C191.584 822.947 190.944 820.773 189.664 819.28C188.411 817.76 186.531 817 184.024 817H179.624V834.6H184.024ZM222.014 834.56V839H201.654V812.6H221.454V817.04H207.174V823.6H218.414V827.84H207.174V834.56H222.014Z" fill="white"/>
<path d="M196.696 698.068C196.652 696.301 196.008 694.797 194.765 693.554C194.136 692.91 193.44 692.431 192.676 692.116C191.927 691.787 191.126 691.622 190.273 691.622C189.554 691.622 188.873 691.727 188.229 691.937C187.6 692.131 187.008 692.446 186.454 692.88C185.226 693.778 184.613 694.924 184.613 696.316C184.613 697.395 184.979 698.3 185.713 699.034L196.113 710.265C196.831 711.028 197.37 711.859 197.73 712.758C198.089 713.656 198.269 714.645 198.269 715.723C198.269 717.984 197.483 719.885 195.91 721.428C194.338 723.03 192.459 723.831 190.273 723.831C187.547 723.831 185.399 722.76 183.826 720.619V723H182.209V715.768H183.826C183.871 717.49 184.515 718.994 185.758 720.282C186.986 721.57 188.491 722.214 190.273 722.214C191.605 722.214 192.893 721.787 194.136 720.934C194.705 720.469 195.132 719.96 195.416 719.406C195.716 718.837 195.865 718.193 195.865 717.475C195.865 716.411 195.514 715.506 194.81 714.757L184.365 703.549C182.958 702.036 182.254 700.21 182.254 698.068C182.254 696.96 182.441 695.935 182.816 694.991C183.19 694.033 183.774 693.157 184.568 692.363C186.11 690.806 188.012 690.027 190.273 690.027C191.605 690.027 192.811 690.297 193.889 690.836C194.982 691.36 195.918 692.161 196.696 693.239V690.791H198.314V698.068H196.696ZM206.703 720.619C206.703 720.934 206.636 721.241 206.501 721.54C206.381 721.825 206.209 722.079 205.985 722.304C205.76 722.513 205.498 722.686 205.198 722.82C204.914 722.94 204.607 723 204.278 723C203.933 723 203.611 722.94 203.312 722.82C203.027 722.686 202.78 722.513 202.57 722.304C202.361 722.079 202.189 721.825 202.054 721.54C201.934 721.241 201.874 720.934 201.874 720.619C201.874 720.29 201.934 719.975 202.054 719.676C202.189 719.376 202.361 719.114 202.57 718.89C202.78 718.665 203.027 718.493 203.312 718.373C203.611 718.238 203.933 718.171 204.278 718.171C204.607 718.171 204.914 718.238 205.198 718.373C205.498 718.493 205.76 718.665 205.985 718.89C206.209 719.114 206.381 719.376 206.501 719.676C206.636 719.975 206.703 720.29 206.703 720.619ZM226.683 723V720.619C225.066 722.76 222.924 723.831 220.259 723.831C218.013 723.831 216.096 723.045 214.509 721.473C213.715 720.694 213.131 719.833 212.757 718.89C212.383 717.931 212.195 716.891 212.195 715.768V698.068C212.195 695.807 212.967 693.906 214.509 692.363C216.081 690.806 217.998 690.027 220.259 690.027C221.592 690.027 222.79 690.297 223.853 690.836C224.931 691.36 225.874 692.161 226.683 693.239V690.791H228.3V698.068H226.683C226.683 696.286 226.054 694.767 224.796 693.509C223.493 692.251 221.981 691.622 220.259 691.622C219.705 691.622 219.181 691.727 218.687 691.937C218.193 692.146 217.758 692.431 217.384 692.79C217.025 693.149 216.733 693.576 216.508 694.07C216.298 694.549 216.193 695.066 216.193 695.62V718.171C216.193 718.725 216.298 719.249 216.508 719.743C216.733 720.222 217.025 720.649 217.384 721.023C217.758 721.383 218.193 721.675 218.687 721.899C219.181 722.109 219.705 722.214 220.259 722.214C222.011 722.214 223.523 721.57 224.796 720.282C226.054 719.054 226.683 717.549 226.683 715.768H228.3V723H226.683ZM237.543 720.619C237.543 720.934 237.476 721.241 237.341 721.54C237.221 721.825 237.049 722.079 236.824 722.304C236.6 722.513 236.338 722.686 236.038 722.82C235.754 722.94 235.447 723 235.117 723C234.773 723 234.451 722.94 234.151 722.82C233.867 722.686 233.62 722.513 233.41 722.304C233.201 722.079 233.028 721.825 232.894 721.54C232.774 721.241 232.714 720.934 232.714 720.619C232.714 720.29 232.774 719.975 232.894 719.676C233.028 719.376 233.201 719.114 233.41 718.89C233.62 718.665 233.867 718.493 234.151 718.373C234.451 718.238 234.773 718.171 235.117 718.171C235.447 718.171 235.754 718.238 236.038 718.373C236.338 718.493 236.6 718.665 236.824 718.89C237.049 719.114 237.221 719.376 237.341 719.676C237.476 719.975 237.543 720.29 237.543 720.619ZM254.086 723V721.383H255.681V707.727H247.64V721.383H249.257V723H242.024V721.383H243.642V692.408H242.024V690.791H249.257V692.408H247.64V706.109H255.681V692.408H254.086V690.791H261.341V692.408H259.746V721.383H261.341V723H254.086ZM270.09 720.619C270.09 720.934 270.022 721.241 269.888 721.54C269.768 721.825 269.596 722.079 269.371 722.304C269.146 722.513 268.884 722.686 268.585 722.82C268.3 722.94 267.993 723 267.664 723C267.32 723 266.998 722.94 266.698 722.82C266.414 722.686 266.167 722.513 265.957 722.304C265.747 722.079 265.575 721.825 265.44 721.54C265.321 721.241 265.261 720.934 265.261 720.619C265.261 720.29 265.321 719.975 265.44 719.676C265.575 719.376 265.747 719.114 265.957 718.89C266.167 718.665 266.414 718.493 266.698 718.373C266.998 718.238 267.32 718.171 267.664 718.171C267.993 718.171 268.3 718.238 268.585 718.373C268.884 718.493 269.146 718.665 269.371 718.89C269.596 719.114 269.768 719.376 269.888 719.676C270.022 719.975 270.09 720.29 270.09 720.619ZM284.364 696.361L279.827 713.342H288.924L284.364 696.361ZM289.103 723V721.383H291.08L289.328 714.959H279.445L277.693 721.383H279.67V723H273.561V721.383H276.009L284.185 690.791H287.082L295.28 721.383H297.302V723H289.103ZM305.646 720.619C305.646 720.934 305.579 721.241 305.444 721.54C305.324 721.825 305.152 722.079 304.928 722.304C304.703 722.513 304.441 722.686 304.142 722.82C303.857 722.94 303.55 723 303.221 723C302.876 723 302.554 722.94 302.255 722.82C301.97 722.686 301.723 722.513 301.514 722.304C301.304 722.079 301.132 721.825 300.997 721.54C300.877 721.241 300.817 720.934 300.817 720.619C300.817 720.29 300.877 719.975 300.997 719.676C301.132 719.376 301.304 719.114 301.514 718.89C301.723 718.665 301.97 718.493 302.255 718.373C302.554 718.238 302.876 718.171 303.221 718.171C303.55 718.171 303.857 718.238 304.142 718.373C304.441 718.493 304.703 718.665 304.928 718.89C305.152 719.114 305.324 719.376 305.444 719.676C305.579 719.975 305.646 720.29 305.646 720.619ZM310.128 723V721.383H311.745V692.408H310.128V690.791H317.36V692.408H315.743V721.383H324.615V719.788H326.232V723H310.128ZM335.588 720.619C335.588 720.934 335.52 721.241 335.386 721.54C335.266 721.825 335.094 722.079 334.869 722.304C334.644 722.513 334.382 722.686 334.083 722.82C333.798 722.94 333.491 723 333.162 723C332.818 723 332.496 722.94 332.196 722.82C331.912 722.686 331.665 722.513 331.455 722.304C331.245 722.079 331.073 721.825 330.938 721.54C330.819 721.241 330.759 720.934 330.759 720.619C330.759 720.29 330.819 719.975 330.938 719.676C331.073 719.376 331.245 719.114 331.455 718.89C331.665 718.665 331.912 718.493 332.196 718.373C332.496 718.238 332.818 718.171 333.162 718.171C333.491 718.171 333.798 718.238 334.083 718.373C334.382 718.493 334.644 718.665 334.869 718.89C335.094 719.114 335.266 719.376 335.386 719.676C335.52 719.975 335.588 720.29 335.588 720.619ZM340.069 723V721.383H341.686V692.408H340.069V690.791H357.791V694.025H356.174V692.408H345.684V706.109H352.131V704.515H353.725V709.344H352.131V707.727H345.684V721.383H356.174V719.788H357.791V723H340.069Z" fill="black"/>
<path d="M92.9521 678V676.645H93.5991V661.85H92.9521V660.495H96.1016V661.85H95.5034V676.645H96.1016V678H92.9521ZM103.742 678V676.645H104.414V667.624C104.414 667.372 104.373 667.136 104.292 666.916C104.218 666.696 104.112 666.505 103.974 666.342C103.844 666.18 103.689 666.049 103.51 665.952C103.331 665.854 103.14 665.805 102.937 665.805C102.733 665.805 102.542 665.854 102.363 665.952C102.184 666.049 102.025 666.18 101.887 666.342C101.757 666.505 101.651 666.696 101.569 666.916C101.496 667.136 101.459 667.372 101.459 667.624V676.645H102.131V678H98.7373V676.645H99.4087V666.196H98.7373V664.853H100.959V665.646C101.195 665.272 101.484 664.979 101.826 664.768C102.176 664.556 102.546 664.45 102.937 664.45C103.425 664.45 103.872 664.56 104.279 664.78C104.694 664.991 105.081 665.325 105.439 665.781C106.139 666.652 106.489 667.693 106.489 668.906V676.645H107.136V678H103.742ZM115.191 667.526C115.191 667.274 115.151 667.038 115.069 666.818C114.996 666.59 114.89 666.391 114.752 666.22C114.622 666.049 114.467 665.915 114.288 665.817C114.109 665.72 113.922 665.671 113.727 665.671C113.523 665.671 113.332 665.72 113.153 665.817C112.982 665.915 112.831 666.049 112.701 666.22C112.571 666.391 112.465 666.59 112.384 666.818C112.311 667.038 112.274 667.274 112.274 667.526V675.205C112.274 675.457 112.311 675.697 112.384 675.925C112.465 676.145 112.571 676.34 112.701 676.511C112.831 676.674 112.982 676.804 113.153 676.901C113.332 676.999 113.523 677.048 113.727 677.048C113.922 677.048 114.109 676.999 114.288 676.901C114.467 676.804 114.622 676.674 114.752 676.511C114.89 676.34 114.996 676.145 115.069 675.925C115.151 675.697 115.191 675.457 115.191 675.205V667.526ZM115.667 678V677.231C115.431 677.597 115.147 677.886 114.813 678.098C114.479 678.317 114.117 678.427 113.727 678.427C112.758 678.427 111.932 677.984 111.249 677.097C110.89 676.649 110.63 676.165 110.467 675.644C110.305 675.115 110.223 674.533 110.223 673.898V668.82C110.223 668.194 110.305 667.624 110.467 667.111C110.63 666.59 110.89 666.102 111.249 665.646C111.598 665.199 111.977 664.861 112.384 664.633C112.791 664.397 113.238 664.279 113.727 664.279C114.272 664.279 114.76 664.487 115.191 664.902V660.971H114.52V659.604H117.242V676.645H117.926V678H115.667ZM123.015 669.895H125.908V667.624C125.908 667.372 125.868 667.136 125.786 666.916C125.713 666.688 125.611 666.493 125.481 666.33C125.359 666.159 125.212 666.025 125.042 665.927C124.871 665.83 124.688 665.781 124.492 665.781C124.289 665.781 124.097 665.83 123.918 665.927C123.739 666.025 123.581 666.159 123.442 666.33C123.312 666.493 123.206 666.688 123.125 666.916C123.052 667.136 123.015 667.372 123.015 667.624V669.895ZM126.909 678V677.17C126.258 678.008 125.452 678.427 124.492 678.427C124.004 678.427 123.556 678.313 123.149 678.085C122.743 677.866 122.364 677.536 122.014 677.097C121.331 676.21 120.989 675.16 120.989 673.947V668.906C120.989 668.287 121.07 667.718 121.233 667.197C121.396 666.668 121.648 666.184 121.99 665.744C122.698 664.865 123.532 664.426 124.492 664.426C125.412 664.426 126.226 664.865 126.934 665.744C127.633 666.615 127.983 667.669 127.983 668.906V671.274H123.015V675.229C123.015 675.481 123.052 675.721 123.125 675.949C123.206 676.169 123.312 676.364 123.442 676.535C123.581 676.698 123.739 676.828 123.918 676.926C124.097 677.023 124.289 677.072 124.492 677.072C125.151 677.072 125.725 676.771 126.213 676.169C126.677 675.559 126.909 674.737 126.909 673.703H127.983V678H126.909ZM136.271 667.551C136.271 667.299 136.23 667.058 136.149 666.831C136.076 666.603 135.97 666.403 135.832 666.232C135.701 666.062 135.547 665.927 135.368 665.83C135.189 665.724 134.997 665.671 134.794 665.671C134.599 665.671 134.411 665.724 134.232 665.83C134.062 665.927 133.907 666.062 133.769 666.232C133.638 666.403 133.533 666.603 133.451 666.831C133.378 667.058 133.341 667.299 133.341 667.551V675.205C133.341 675.457 133.378 675.697 133.451 675.925C133.533 676.145 133.638 676.34 133.769 676.511C133.907 676.674 134.062 676.804 134.232 676.901C134.411 676.999 134.599 677.048 134.794 677.048C134.997 677.048 135.189 676.999 135.368 676.901C135.547 676.804 135.701 676.674 135.832 676.511C135.97 676.34 136.076 676.145 136.149 675.925C136.23 675.697 136.271 675.457 136.271 675.205V667.551ZM138.297 673.898C138.297 675.152 137.956 676.218 137.272 677.097C136.58 677.984 135.754 678.427 134.794 678.427C134.241 678.427 133.756 678.228 133.341 677.829V680.905H134.013V682.248H130.595V680.905H131.266V666.098H130.595V664.755H132.841V665.524C133.077 665.158 133.362 664.865 133.695 664.646C134.037 664.418 134.403 664.304 134.794 664.304C135.282 664.304 135.726 664.422 136.125 664.658C136.531 664.886 136.914 665.223 137.272 665.671C137.956 666.534 138.297 667.583 138.297 668.82V673.898ZM143.838 669.895H146.731V667.624C146.731 667.372 146.691 667.136 146.609 666.916C146.536 666.688 146.434 666.493 146.304 666.33C146.182 666.159 146.036 666.025 145.865 665.927C145.694 665.83 145.511 665.781 145.315 665.781C145.112 665.781 144.921 665.83 144.742 665.927C144.563 666.025 144.404 666.159 144.266 666.33C144.135 666.493 144.03 666.688 143.948 666.916C143.875 667.136 143.838 667.372 143.838 667.624V669.895ZM147.732 678V677.17C147.081 678.008 146.276 678.427 145.315 678.427C144.827 678.427 144.38 678.313 143.973 678.085C143.566 677.866 143.187 677.536 142.837 677.097C142.154 676.21 141.812 675.16 141.812 673.947V668.906C141.812 668.287 141.893 667.718 142.056 667.197C142.219 666.668 142.471 666.184 142.813 665.744C143.521 664.865 144.355 664.426 145.315 664.426C146.235 664.426 147.049 664.865 147.757 665.744C148.457 666.615 148.807 667.669 148.807 668.906V671.274H143.838V675.229C143.838 675.481 143.875 675.721 143.948 675.949C144.03 676.169 144.135 676.364 144.266 676.535C144.404 676.698 144.563 676.828 144.742 676.926C144.921 677.023 145.112 677.072 145.315 677.072C145.975 677.072 146.548 676.771 147.037 676.169C147.5 675.559 147.732 674.737 147.732 673.703H148.807V678H147.732ZM156.862 678V676.645H157.534V667.624C157.534 667.372 157.493 667.136 157.412 666.916C157.338 666.696 157.233 666.505 157.094 666.342C156.964 666.18 156.809 666.049 156.63 665.952C156.451 665.854 156.26 665.805 156.057 665.805C155.853 665.805 155.662 665.854 155.483 665.952C155.304 666.049 155.145 666.18 155.007 666.342C154.877 666.505 154.771 666.696 154.689 666.916C154.616 667.136 154.58 667.372 154.58 667.624V676.645H155.251V678H151.857V676.645H152.529V666.196H151.857V664.853H154.079V665.646C154.315 665.272 154.604 664.979 154.946 664.768C155.296 664.556 155.666 664.45 156.057 664.45C156.545 664.45 156.993 664.56 157.399 664.78C157.814 664.991 158.201 665.325 158.559 665.781C159.259 666.652 159.609 667.693 159.609 668.906V676.645H160.256V678H156.862ZM168.312 667.526C168.312 667.274 168.271 667.038 168.189 666.818C168.116 666.59 168.01 666.391 167.872 666.22C167.742 666.049 167.587 665.915 167.408 665.817C167.229 665.72 167.042 665.671 166.847 665.671C166.643 665.671 166.452 665.72 166.273 665.817C166.102 665.915 165.951 666.049 165.821 666.22C165.691 666.391 165.585 666.59 165.504 666.818C165.431 667.038 165.394 667.274 165.394 667.526V675.205C165.394 675.457 165.431 675.697 165.504 675.925C165.585 676.145 165.691 676.34 165.821 676.511C165.951 676.674 166.102 676.804 166.273 676.901C166.452 676.999 166.643 677.048 166.847 677.048C167.042 677.048 167.229 676.999 167.408 676.901C167.587 676.804 167.742 676.674 167.872 676.511C168.01 676.34 168.116 676.145 168.189 675.925C168.271 675.697 168.312 675.457 168.312 675.205V667.526ZM168.788 678V677.231C168.552 677.597 168.267 677.886 167.933 678.098C167.599 678.317 167.237 678.427 166.847 678.427C165.878 678.427 165.052 677.984 164.369 677.097C164.011 676.649 163.75 676.165 163.587 675.644C163.425 675.115 163.343 674.533 163.343 673.898V668.82C163.343 668.194 163.425 667.624 163.587 667.111C163.75 666.59 164.011 666.102 164.369 665.646C164.719 665.199 165.097 664.861 165.504 664.633C165.911 664.397 166.358 664.279 166.847 664.279C167.392 664.279 167.88 664.487 168.312 664.902V660.971H167.64V659.604H170.362V676.645H171.046V678H168.788ZM176.135 669.895H179.028V667.624C179.028 667.372 178.988 667.136 178.906 666.916C178.833 666.688 178.731 666.493 178.601 666.33C178.479 666.159 178.333 666.025 178.162 665.927C177.991 665.83 177.808 665.781 177.612 665.781C177.409 665.781 177.218 665.83 177.039 665.927C176.86 666.025 176.701 666.159 176.562 666.33C176.432 666.493 176.326 666.688 176.245 666.916C176.172 667.136 176.135 667.372 176.135 667.624V669.895ZM180.029 678V677.17C179.378 678.008 178.573 678.427 177.612 678.427C177.124 678.427 176.676 678.313 176.27 678.085C175.863 677.866 175.484 677.536 175.134 677.097C174.451 676.21 174.109 675.16 174.109 673.947V668.906C174.109 668.287 174.19 667.718 174.353 667.197C174.516 666.668 174.768 666.184 175.11 665.744C175.818 664.865 176.652 664.426 177.612 664.426C178.532 664.426 179.346 664.865 180.054 665.744C180.754 666.615 181.104 667.669 181.104 668.906V671.274H176.135V675.229C176.135 675.481 176.172 675.721 176.245 675.949C176.326 676.169 176.432 676.364 176.562 676.535C176.701 676.698 176.86 676.828 177.039 676.926C177.218 677.023 177.409 677.072 177.612 677.072C178.271 677.072 178.845 676.771 179.333 676.169C179.797 675.559 180.029 674.737 180.029 673.703H181.104V678H180.029ZM189.159 678V676.645H189.831V667.624C189.831 667.372 189.79 667.136 189.708 666.916C189.635 666.696 189.529 666.505 189.391 666.342C189.261 666.18 189.106 666.049 188.927 665.952C188.748 665.854 188.557 665.805 188.354 665.805C188.15 665.805 187.959 665.854 187.78 665.952C187.601 666.049 187.442 666.18 187.304 666.342C187.174 666.505 187.068 666.696 186.986 666.916C186.913 667.136 186.876 667.372 186.876 667.624V676.645H187.548V678H184.154V676.645H184.826V666.196H184.154V664.853H186.376V665.646C186.612 665.272 186.901 664.979 187.243 664.768C187.593 664.556 187.963 664.45 188.354 664.45C188.842 664.45 189.289 664.56 189.696 664.78C190.111 664.991 190.498 665.325 190.856 665.781C191.556 666.652 191.906 667.693 191.906 668.906V676.645H192.553V678H189.159ZM199.192 678.427C198.248 678.427 197.455 677.976 196.812 677.072C196.486 676.617 196.238 676.132 196.067 675.62C195.896 675.107 195.811 674.533 195.811 673.898V666.098H195.188V664.755H195.811V661.85H195.188V660.471H198.436V661.85H197.789V664.755H199.388V666.098H197.789V675.205C197.789 675.457 197.829 675.697 197.911 675.925C198 676.145 198.114 676.34 198.252 676.511C198.399 676.674 198.57 676.804 198.765 676.901C198.96 676.999 199.168 677.048 199.388 677.048V678.171L199.192 678.427ZM217.538 662.705V661.85H213.631V668.576H215.89V667.722H216.964V670.773H215.89V669.919H213.631V676.645H214.303V678H210.885V676.645H211.556V661.85H210.885V660.495H218.587V662.705H217.538ZM222.346 669.895H225.239V667.624C225.239 667.372 225.199 667.136 225.117 666.916C225.044 666.688 224.942 666.493 224.812 666.33C224.69 666.159 224.543 666.025 224.373 665.927C224.202 665.83 224.019 665.781 223.823 665.781C223.62 665.781 223.429 665.83 223.25 665.927C223.07 666.025 222.912 666.159 222.773 666.33C222.643 666.493 222.537 666.688 222.456 666.916C222.383 667.136 222.346 667.372 222.346 667.624V669.895ZM226.24 678V677.17C225.589 678.008 224.784 678.427 223.823 678.427C223.335 678.427 222.887 678.313 222.48 678.085C222.074 677.866 221.695 677.536 221.345 677.097C220.662 676.21 220.32 675.16 220.32 673.947V668.906C220.32 668.287 220.401 667.718 220.564 667.197C220.727 666.668 220.979 666.184 221.321 665.744C222.029 664.865 222.863 664.426 223.823 664.426C224.743 664.426 225.557 664.865 226.265 665.744C226.965 666.615 227.314 667.669 227.314 668.906V671.274H222.346V675.229C222.346 675.481 222.383 675.721 222.456 675.949C222.537 676.169 222.643 676.364 222.773 676.535C222.912 676.698 223.07 676.828 223.25 676.926C223.429 677.023 223.62 677.072 223.823 677.072C224.482 677.072 225.056 676.771 225.544 676.169C226.008 675.559 226.24 674.737 226.24 673.703H227.314V678H226.24ZM235.761 667.526C235.761 667.274 235.72 667.038 235.639 666.818C235.565 666.59 235.46 666.391 235.321 666.22C235.191 666.049 235.036 665.915 234.857 665.817C234.678 665.72 234.491 665.671 234.296 665.671C234.092 665.671 233.901 665.72 233.722 665.817C233.551 665.915 233.401 666.049 233.271 666.22C233.14 666.391 233.035 666.59 232.953 666.818C232.88 667.038 232.843 667.274 232.843 667.526V675.205C232.843 675.457 232.88 675.697 232.953 675.925C233.035 676.145 233.14 676.34 233.271 676.511C233.401 676.674 233.551 676.804 233.722 676.901C233.901 676.999 234.092 677.048 234.296 677.048C234.491 677.048 234.678 676.999 234.857 676.901C235.036 676.804 235.191 676.674 235.321 676.511C235.46 676.34 235.565 676.145 235.639 675.925C235.72 675.697 235.761 675.457 235.761 675.205V667.526ZM236.237 678V677.231C236.001 677.597 235.716 677.886 235.382 678.098C235.049 678.317 234.687 678.427 234.296 678.427C233.327 678.427 232.501 677.984 231.818 677.097C231.46 676.649 231.199 676.165 231.037 675.644C230.874 675.115 230.792 674.533 230.792 673.898V668.82C230.792 668.194 230.874 667.624 231.037 667.111C231.199 666.59 231.46 666.102 231.818 665.646C232.168 665.199 232.546 664.861 232.953 664.633C233.36 664.397 233.808 664.279 234.296 664.279C234.841 664.279 235.329 664.487 235.761 664.902V660.971H235.089V659.604H237.812V676.645H238.495V678H236.237ZM243.584 669.895H246.478V667.624C246.478 667.372 246.437 667.136 246.355 666.916C246.282 666.688 246.181 666.493 246.05 666.33C245.928 666.159 245.782 666.025 245.611 665.927C245.44 665.83 245.257 665.781 245.062 665.781C244.858 665.781 244.667 665.83 244.488 665.927C244.309 666.025 244.15 666.159 244.012 666.33C243.882 666.493 243.776 666.688 243.694 666.916C243.621 667.136 243.584 667.372 243.584 667.624V669.895ZM247.479 678V677.17C246.827 678.008 246.022 678.427 245.062 678.427C244.573 678.427 244.126 678.313 243.719 678.085C243.312 677.866 242.933 677.536 242.583 677.097C241.9 676.21 241.558 675.16 241.558 673.947V668.906C241.558 668.287 241.639 667.718 241.802 667.197C241.965 666.668 242.217 666.184 242.559 665.744C243.267 664.865 244.101 664.426 245.062 664.426C245.981 664.426 246.795 664.865 247.503 665.744C248.203 666.615 248.553 667.669 248.553 668.906V671.274H243.584V675.229C243.584 675.481 243.621 675.721 243.694 675.949C243.776 676.169 243.882 676.364 244.012 676.535C244.15 676.698 244.309 676.828 244.488 676.926C244.667 677.023 244.858 677.072 245.062 677.072C245.721 677.072 246.294 676.771 246.783 676.169C247.247 675.559 247.479 674.737 247.479 673.703H248.553V678H247.479ZM257.182 667.905C257.182 667.612 257.141 667.339 257.06 667.087C256.987 666.826 256.885 666.603 256.755 666.416C256.625 666.22 256.47 666.07 256.291 665.964C256.112 665.858 255.925 665.805 255.729 665.805C255.534 665.805 255.347 665.854 255.168 665.952C254.997 666.049 254.847 666.18 254.716 666.342C254.594 666.505 254.493 666.696 254.411 666.916C254.338 667.136 254.301 667.372 254.301 667.624V676.645H254.948V678H251.579V676.645H252.25V666.196H251.579V664.853H253.63V665.671C254.126 664.857 254.826 664.45 255.729 664.45C256.006 664.45 256.263 664.495 256.499 664.584C256.743 664.674 256.971 664.82 257.182 665.024V664.853H258.232V667.905H257.182ZM266.3 671.848C266.3 671.595 266.259 671.355 266.178 671.127C266.104 670.9 265.999 670.704 265.86 670.542C265.73 670.379 265.576 670.249 265.396 670.151C265.217 670.053 265.03 670.004 264.835 670.004C264.632 670.004 264.44 670.053 264.261 670.151C264.09 670.249 263.94 670.379 263.81 670.542C263.679 670.704 263.574 670.9 263.492 671.127C263.419 671.355 263.382 671.595 263.382 671.848V675.229C263.382 675.481 263.419 675.721 263.492 675.949C263.574 676.169 263.679 676.364 263.81 676.535C263.94 676.698 264.09 676.828 264.261 676.926C264.44 677.023 264.632 677.072 264.835 677.072C265.03 677.072 265.217 677.023 265.396 676.926C265.576 676.828 265.73 676.698 265.86 676.535C265.999 676.364 266.104 676.169 266.178 675.949C266.259 675.721 266.3 675.481 266.3 675.229V671.848ZM266.776 678V677.231C266.54 677.597 266.251 677.886 265.909 678.098C265.567 678.317 265.209 678.427 264.835 678.427C264.347 678.427 263.903 678.313 263.504 678.085C263.106 677.866 262.731 677.536 262.381 677.097C261.681 676.218 261.332 675.168 261.332 673.947V673.105C261.332 671.876 261.681 670.834 262.381 669.98C262.731 669.524 263.106 669.191 263.504 668.979C263.903 668.759 264.347 668.649 264.835 668.649C265.405 668.649 265.893 668.849 266.3 669.248V667.624C266.3 667.372 266.259 667.136 266.178 666.916C266.104 666.688 265.999 666.493 265.86 666.33C265.73 666.159 265.576 666.025 265.396 665.927C265.217 665.83 265.03 665.781 264.835 665.781C264.493 665.781 264.176 665.854 263.883 666C263.59 666.147 263.329 666.371 263.102 666.672C262.866 666.957 262.687 667.315 262.564 667.746C262.442 668.169 262.381 668.637 262.381 669.15H261.332V664.853H262.381V665.671C262.707 665.256 263.069 664.947 263.468 664.743C263.875 664.532 264.33 664.426 264.835 664.426C265.771 664.426 266.593 664.865 267.301 665.744C268.001 666.615 268.351 667.669 268.351 668.906V676.645H269.034V678H266.776ZM271.597 678V676.645H272.244V660.971H271.597V659.628H274.148V676.645H274.746V678H271.597ZM286.194 678V676.645H286.841V661.85H286.194V660.495H289.344V661.85H288.746V676.645H289.344V678H286.194ZM296.984 678V676.645H297.656V667.624C297.656 667.372 297.615 667.136 297.534 666.916C297.46 666.696 297.355 666.505 297.216 666.342C297.086 666.18 296.931 666.049 296.752 665.952C296.573 665.854 296.382 665.805 296.179 665.805C295.975 665.805 295.784 665.854 295.605 665.952C295.426 666.049 295.267 666.18 295.129 666.342C294.999 666.505 294.893 666.696 294.812 666.916C294.738 667.136 294.702 667.372 294.702 667.624V676.645H295.373V678H291.979V676.645H292.651V666.196H291.979V664.853H294.201V665.646C294.437 665.272 294.726 664.979 295.068 664.768C295.418 664.556 295.788 664.45 296.179 664.45C296.667 664.45 297.115 664.56 297.521 664.78C297.937 664.991 298.323 665.325 298.681 665.781C299.381 666.652 299.731 667.693 299.731 668.906V676.645H300.378V678H296.984ZM311.266 666.22L308.214 678H306.615L303.539 666.22H302.611V664.877H306.468V666.22H305.711L307.933 674.777L310.143 666.22H309.41V664.877H312.364V666.22H311.266ZM316.648 669.895H319.541V667.624C319.541 667.372 319.5 667.136 319.419 666.916C319.346 666.688 319.244 666.493 319.114 666.33C318.992 666.159 318.845 666.025 318.674 665.927C318.503 665.83 318.32 665.781 318.125 665.781C317.922 665.781 317.73 665.83 317.551 665.927C317.372 666.025 317.214 666.159 317.075 666.33C316.945 666.493 316.839 666.688 316.758 666.916C316.685 667.136 316.648 667.372 316.648 667.624V669.895ZM320.542 678V677.17C319.891 678.008 319.085 678.427 318.125 678.427C317.637 678.427 317.189 678.313 316.782 678.085C316.375 677.866 315.997 677.536 315.647 677.097C314.963 676.21 314.622 675.16 314.622 673.947V668.906C314.622 668.287 314.703 667.718 314.866 667.197C315.028 666.668 315.281 666.184 315.623 665.744C316.331 664.865 317.165 664.426 318.125 664.426C319.045 664.426 319.858 664.865 320.566 665.744C321.266 666.615 321.616 667.669 321.616 668.906V671.274H316.648V675.229C316.648 675.481 316.685 675.721 316.758 675.949C316.839 676.169 316.945 676.364 317.075 676.535C317.214 676.698 317.372 676.828 317.551 676.926C317.73 677.023 317.922 677.072 318.125 677.072C318.784 677.072 319.358 676.771 319.846 676.169C320.31 675.559 320.542 674.737 320.542 673.703H321.616V678H320.542ZM331.015 669.15C330.99 668.108 330.742 667.29 330.27 666.696C330.042 666.387 329.786 666.159 329.501 666.013C329.224 665.858 328.923 665.781 328.598 665.781C328.305 665.781 328.036 665.821 327.792 665.903C327.556 665.984 327.332 666.106 327.121 666.269H327.145C326.909 666.448 326.734 666.668 326.62 666.928C326.514 667.181 326.461 667.461 326.461 667.771C326.461 668.584 326.905 669.211 327.792 669.65C328.231 669.878 328.691 670.106 329.171 670.334C329.652 670.562 330.115 670.778 330.563 670.981C331.564 671.656 332.064 672.714 332.064 674.155C332.064 674.765 331.983 675.331 331.82 675.852C331.658 676.364 331.397 676.824 331.039 677.231C330.339 678.028 329.525 678.427 328.598 678.427C327.589 678.427 326.771 678.008 326.144 677.17V678H325.094V673.703H326.144C326.144 674.216 326.205 674.676 326.327 675.083C326.449 675.481 326.628 675.843 326.864 676.169C327.328 676.771 327.906 677.072 328.598 677.072C329.143 677.072 329.615 676.897 330.014 676.547C330.469 676.206 330.697 675.713 330.697 675.07C330.697 674.257 330.254 673.634 329.367 673.203C328.911 672.975 328.447 672.751 327.975 672.531C327.503 672.303 327.035 672.084 326.571 671.872C325.587 671.197 325.094 670.139 325.094 668.698C325.094 667.453 325.436 666.428 326.12 665.622C326.47 665.223 326.848 664.926 327.255 664.731C327.662 664.528 328.109 664.426 328.598 664.426C329.55 664.426 330.355 664.841 331.015 665.671V664.853H332.089V669.15H331.015ZM339.119 678.427C338.175 678.427 337.382 677.976 336.739 677.072C336.413 676.617 336.165 676.132 335.994 675.62C335.823 675.107 335.738 674.533 335.738 673.898V666.098H335.115V664.755H335.738V661.85H335.115V660.471H338.362V661.85H337.715V664.755H339.314V666.098H337.715V675.205C337.715 675.457 337.756 675.697 337.837 675.925C337.927 676.145 338.041 676.34 338.179 676.511C338.326 676.674 338.497 676.804 338.692 676.901C338.887 676.999 339.095 677.048 339.314 677.048V678.171L339.119 678.427ZM344.721 661.826C344.721 662.062 344.689 662.285 344.624 662.497C344.558 662.709 344.469 662.892 344.355 663.046C344.241 663.201 344.107 663.323 343.952 663.413C343.798 663.502 343.631 663.547 343.452 663.547C343.281 663.547 343.118 663.502 342.963 663.413C342.809 663.323 342.674 663.201 342.561 663.046C342.447 662.892 342.357 662.709 342.292 662.497C342.227 662.285 342.194 662.062 342.194 661.826C342.194 661.573 342.227 661.341 342.292 661.13C342.357 660.918 342.447 660.735 342.561 660.581C342.674 660.426 342.809 660.304 342.963 660.214C343.118 660.125 343.281 660.08 343.452 660.08C343.631 660.08 343.798 660.125 343.952 660.214C344.107 660.304 344.241 660.426 344.355 660.581C344.469 660.735 344.558 660.918 344.624 661.13C344.689 661.341 344.721 661.573 344.721 661.826ZM341.877 678V676.645H342.524V666.098H341.877V664.755H344.428V676.645H345.026V678H341.877ZM353.058 667.551C353.058 667.299 353.017 667.058 352.936 666.831C352.862 666.603 352.757 666.403 352.618 666.232C352.488 666.062 352.333 665.927 352.154 665.83C351.975 665.724 351.788 665.671 351.593 665.671C351.389 665.671 351.198 665.724 351.019 665.83C350.848 665.927 350.698 666.062 350.567 666.232C350.437 666.403 350.331 666.603 350.25 666.831C350.177 667.058 350.14 667.299 350.14 667.551V675.205C350.14 675.457 350.177 675.697 350.25 675.925C350.331 676.145 350.437 676.34 350.567 676.511C350.698 676.674 350.848 676.804 351.019 676.901C351.198 676.999 351.389 677.048 351.593 677.048C351.788 677.048 351.975 676.999 352.154 676.901C352.333 676.804 352.488 676.674 352.618 676.511C352.757 676.34 352.862 676.145 352.936 675.925C353.017 675.697 353.058 675.457 353.058 675.205V667.551ZM355.108 666.098V678.171C355.108 679.408 354.758 680.466 354.059 681.345C353.359 682.232 352.476 682.675 351.41 682.675V681.32C351.638 681.32 351.849 681.271 352.044 681.174C352.248 681.076 352.423 680.942 352.569 680.771C352.724 680.6 352.842 680.401 352.923 680.173C353.013 679.953 353.058 679.713 353.058 679.453V677.829C352.634 678.228 352.146 678.427 351.593 678.427C351.104 678.427 350.661 678.313 350.262 678.085C349.863 677.866 349.489 677.528 349.139 677.072C348.781 676.617 348.517 676.132 348.346 675.62C348.175 675.107 348.089 674.533 348.089 673.898V668.82C348.089 667.6 348.439 666.542 349.139 665.646C349.489 665.199 349.863 664.865 350.262 664.646C350.661 664.418 351.104 664.304 351.593 664.304C351.983 664.304 352.346 664.414 352.679 664.633C353.013 664.845 353.298 665.134 353.534 665.5V664.731H355.792V666.098H355.108ZM363.823 671.848C363.823 671.595 363.783 671.355 363.701 671.127C363.628 670.9 363.522 670.704 363.384 670.542C363.254 670.379 363.099 670.249 362.92 670.151C362.741 670.053 362.554 670.004 362.358 670.004C362.155 670.004 361.964 670.053 361.785 670.151C361.614 670.249 361.463 670.379 361.333 670.542C361.203 670.704 361.097 670.9 361.016 671.127C360.942 671.355 360.906 671.595 360.906 671.848V675.229C360.906 675.481 360.942 675.721 361.016 675.949C361.097 676.169 361.203 676.364 361.333 676.535C361.463 676.698 361.614 676.828 361.785 676.926C361.964 677.023 362.155 677.072 362.358 677.072C362.554 677.072 362.741 677.023 362.92 676.926C363.099 676.828 363.254 676.698 363.384 676.535C363.522 676.364 363.628 676.169 363.701 675.949C363.783 675.721 363.823 675.481 363.823 675.229V671.848ZM364.299 678V677.231C364.063 677.597 363.774 677.886 363.433 678.098C363.091 678.317 362.733 678.427 362.358 678.427C361.87 678.427 361.427 678.313 361.028 678.085C360.629 677.866 360.255 677.536 359.905 677.097C359.205 676.218 358.855 675.168 358.855 673.947V673.105C358.855 671.876 359.205 670.834 359.905 669.98C360.255 669.524 360.629 669.191 361.028 668.979C361.427 668.759 361.87 668.649 362.358 668.649C362.928 668.649 363.416 668.849 363.823 669.248V667.624C363.823 667.372 363.783 667.136 363.701 666.916C363.628 666.688 363.522 666.493 363.384 666.33C363.254 666.159 363.099 666.025 362.92 665.927C362.741 665.83 362.554 665.781 362.358 665.781C362.017 665.781 361.699 665.854 361.406 666C361.113 666.147 360.853 666.371 360.625 666.672C360.389 666.957 360.21 667.315 360.088 667.746C359.966 668.169 359.905 668.637 359.905 669.15H358.855V664.853H359.905V665.671C360.23 665.256 360.592 664.947 360.991 664.743C361.398 664.532 361.854 664.426 362.358 664.426C363.294 664.426 364.116 664.865 364.824 665.744C365.524 666.615 365.874 667.669 365.874 668.906V676.645H366.558V678H364.299ZM372.538 678.427C371.594 678.427 370.801 677.976 370.158 677.072C369.832 676.617 369.584 676.132 369.413 675.62C369.242 675.107 369.157 674.533 369.157 673.898V666.098H368.534V664.755H369.157V661.85H368.534V660.471H371.781V661.85H371.134V664.755H372.733V666.098H371.134V675.205C371.134 675.457 371.175 675.697 371.256 675.925C371.346 676.145 371.46 676.34 371.598 676.511C371.745 676.674 371.916 676.804 372.111 676.901C372.306 676.999 372.514 677.048 372.733 677.048V678.171L372.538 678.427ZM378.14 661.826C378.14 662.062 378.108 662.285 378.042 662.497C377.977 662.709 377.888 662.892 377.774 663.046C377.66 663.201 377.526 663.323 377.371 663.413C377.216 663.502 377.05 663.547 376.871 663.547C376.7 663.547 376.537 663.502 376.382 663.413C376.228 663.323 376.093 663.201 375.979 663.046C375.866 662.892 375.776 662.709 375.711 662.497C375.646 662.285 375.613 662.062 375.613 661.826C375.613 661.573 375.646 661.341 375.711 661.13C375.776 660.918 375.866 660.735 375.979 660.581C376.093 660.426 376.228 660.304 376.382 660.214C376.537 660.125 376.7 660.08 376.871 660.08C377.05 660.08 377.216 660.125 377.371 660.214C377.526 660.304 377.66 660.426 377.774 660.581C377.888 660.735 377.977 660.918 378.042 661.13C378.108 661.341 378.14 661.573 378.14 661.826ZM375.296 678V676.645H375.943V666.098H375.296V664.755H377.847V676.645H378.445V678H375.296ZM386.428 667.624C386.428 667.372 386.387 667.136 386.306 666.916C386.232 666.688 386.131 666.493 386 666.33C385.878 666.159 385.732 666.025 385.561 665.927C385.39 665.83 385.207 665.781 385.012 665.781C384.808 665.781 384.617 665.83 384.438 665.927C384.259 666.025 384.1 666.159 383.962 666.33C383.832 666.493 383.726 666.688 383.645 666.916C383.571 667.136 383.535 667.372 383.535 667.624V675.229C383.535 675.481 383.571 675.721 383.645 675.949C383.726 676.169 383.832 676.364 383.962 676.535C384.1 676.698 384.259 676.828 384.438 676.926C384.617 677.023 384.808 677.072 385.012 677.072C385.207 677.072 385.39 677.023 385.561 676.926C385.732 676.828 385.878 676.698 386 676.535C386.131 676.364 386.232 676.169 386.306 675.949C386.387 675.721 386.428 675.481 386.428 675.229V667.624ZM388.503 673.947C388.503 675.184 388.153 676.242 387.453 677.121C386.761 677.992 385.948 678.427 385.012 678.427C384.035 678.427 383.201 677.992 382.509 677.121C382.167 676.674 381.915 676.189 381.752 675.668C381.59 675.139 381.508 674.566 381.508 673.947V668.906C381.508 668.287 381.59 667.718 381.752 667.197C381.915 666.668 382.167 666.184 382.509 665.744C383.217 664.865 384.051 664.426 385.012 664.426C385.931 664.426 386.745 664.865 387.453 665.744C388.153 666.615 388.503 667.669 388.503 668.906V673.947ZM396.559 678V676.645H397.23V667.624C397.23 667.372 397.189 667.136 397.108 666.916C397.035 666.696 396.929 666.505 396.791 666.342C396.66 666.18 396.506 666.049 396.327 665.952C396.148 665.854 395.956 665.805 395.753 665.805C395.549 665.805 395.358 665.854 395.179 665.952C395 666.049 394.841 666.18 394.703 666.342C394.573 666.505 394.467 666.696 394.386 666.916C394.312 667.136 394.276 667.372 394.276 667.624V676.645H394.947V678H391.554V676.645H392.225V666.196H391.554V664.853H393.775V665.646C394.011 665.272 394.3 664.979 394.642 664.768C394.992 664.556 395.362 664.45 395.753 664.45C396.241 664.45 396.689 664.56 397.096 664.78C397.511 664.991 397.897 665.325 398.255 665.781C398.955 666.652 399.305 667.693 399.305 668.906V676.645H399.952V678H396.559ZM417.846 678V677.17C417.195 678.008 416.389 678.427 415.429 678.427C414.444 678.427 413.61 677.984 412.926 677.097C412.584 676.649 412.332 676.165 412.169 675.644C412.007 675.115 411.925 674.533 411.925 673.898V664.572C411.925 663.946 412.007 663.376 412.169 662.863C412.332 662.342 412.584 661.854 412.926 661.398C413.618 660.503 414.452 660.056 415.429 660.056C415.901 660.056 416.34 660.161 416.747 660.373C417.154 660.576 417.52 660.894 417.846 661.325V660.471H418.92V664.804H417.846C417.846 663.763 417.614 662.937 417.15 662.326C416.67 661.724 416.096 661.423 415.429 661.423C415.225 661.423 415.034 661.472 414.855 661.569C414.676 661.667 414.517 661.801 414.379 661.972C414.249 662.143 414.143 662.342 414.062 662.57C413.988 662.79 413.952 663.026 413.952 663.278V675.205C413.952 675.457 413.988 675.697 414.062 675.925C414.143 676.145 414.249 676.34 414.379 676.511C414.517 676.674 414.676 676.804 414.855 676.901C415.034 676.999 415.225 677.048 415.429 677.048C415.754 677.048 416.063 676.975 416.356 676.828C416.649 676.682 416.914 676.454 417.15 676.145C417.614 675.534 417.846 674.712 417.846 673.679H418.92V678H417.846ZM421.897 678V676.645H422.544V660.971H421.897V659.628H424.449V676.645H425.047V678H421.897ZM433.859 678V677.231C433.607 677.597 433.31 677.886 432.968 678.098C432.635 678.317 432.272 678.427 431.882 678.427C431.394 678.427 430.946 678.313 430.539 678.085C430.14 677.866 429.762 677.536 429.404 677.097C429.054 676.649 428.789 676.169 428.61 675.656C428.439 675.135 428.354 674.566 428.354 673.947V666.196H427.683V664.853H430.405V675.229C430.405 675.481 430.441 675.721 430.515 675.949C430.596 676.169 430.702 676.364 430.832 676.535C430.97 676.698 431.129 676.828 431.308 676.926C431.487 677.023 431.678 677.072 431.882 677.072C432.085 677.072 432.277 677.023 432.456 676.926C432.635 676.828 432.789 676.698 432.919 676.535C433.058 676.364 433.164 676.169 433.237 675.949C433.318 675.721 433.359 675.481 433.359 675.229V666.196H432.688V664.853H435.434V676.645H436.081V678H433.859ZM444.393 667.526C444.393 667.274 444.352 667.038 444.271 666.818C444.198 666.59 444.092 666.391 443.954 666.22C443.823 666.049 443.669 665.915 443.49 665.817C443.311 665.72 443.119 665.671 442.916 665.671C442.721 665.671 442.534 665.72 442.354 665.817C442.184 665.915 442.029 666.049 441.891 666.22C441.76 666.391 441.655 666.59 441.573 666.818C441.5 667.038 441.463 667.274 441.463 667.526V675.205C441.463 675.457 441.5 675.697 441.573 675.925C441.655 676.145 441.76 676.34 441.891 676.511C442.029 676.674 442.184 676.804 442.354 676.901C442.534 676.999 442.721 677.048 442.916 677.048C443.119 677.048 443.311 676.999 443.49 676.901C443.669 676.804 443.823 676.674 443.954 676.511C444.092 676.34 444.198 676.145 444.271 675.925C444.352 675.697 444.393 675.457 444.393 675.205V667.526ZM446.419 673.898C446.419 674.533 446.334 675.107 446.163 675.62C446 676.132 445.744 676.617 445.394 677.072C445.036 677.528 444.653 677.866 444.247 678.085C443.848 678.313 443.404 678.427 442.916 678.427C442.525 678.427 442.159 678.317 441.817 678.098C441.484 677.886 441.199 677.597 440.963 677.231V678H438.717V676.645H439.388V660.971H438.717V659.604H441.463V664.902C441.667 664.69 441.891 664.536 442.135 664.438C442.379 664.332 442.639 664.279 442.916 664.279C443.404 664.279 443.848 664.397 444.247 664.633C444.653 664.861 445.036 665.199 445.394 665.646C446.078 666.534 446.419 667.591 446.419 668.82V673.898Z" fill="black"/>
<circle cx="270" cy="420" r="129.5" stroke="black" stroke-width="5"/>
<circle cx="270" cy="420" r="110" stroke="black" stroke-width="2"/>
<circle cx="270" cy="420" r="98" stroke="black" stroke-width="14"/>
<path fill-rule="evenodd" clip-rule="evenodd" d="M270.5 640.5C269 636 267.5 626 267.5 622V467.5C267.5 449.304 253.696 423.5 230.5 423.5H53C49 423.5 42.5 422 38 420.5C42.5 419 49 417.5 53 417.5H230.5C248.696 417.5 267.5 392.696 267.5 371.5L267.5 230H273.5V371.5C273.5 392.696 292.304 417.5 310.5 417.5H488C492 417.5 498.5 419 503 420.5C498.5 422 487 423.5 483 423.5H310.5C287.304 423.5 273.5 449.304 273.5 467.5V622C273.5 626 272 636 270.5 640.5ZM273.5 227V193.5C273.5 189.5 272 179.5 270.5 175C269 179.5 267.5 189.5 267.5 193.5L267.5 227H273.5ZM284 419C284 426.732 277.732 433 270 433C262.268 433 256 426.732 256 419C256 411.268 262.268 405 270 405C277.732 405 284 411.268 284 419Z" fill="black"/>
<path fill-rule="evenodd" clip-rule="evenodd" d="M270 283C351.186 283 417 269.792 417 253.5C417 237.208 351.186 224 270 224C188.814 224 123 237.208 123 253.5C123 269.792 188.814 283 270 283ZM270.5 279C333.737 279 385 267.583 385 253.5C385 239.417 333.737 228 270.5 228C207.263 228 156 239.417 156 253.5C156 267.583 207.263 279 270.5 279Z" fill="black"/>
<path d="M206.5 360.5L211.5 355.5L224 372L223.5 372.5L206.5 360.5Z" fill="black"/>
<path d="M206 479.5L211 484.5L223.5 468L223 467.5L206 479.5Z" fill="black"/>
<path d="M332.5 361L327.5 356L315 372.5L315.5 373L332.5 361Z" fill="black"/>
<path d="M332 479L327 484L314.5 467.5L315 467L332 479Z" fill="black"/>
<g clip-path="url(#clip1_7_3)">
<path d="M371.481 810H362V815.333H371.481V810Z" fill="white"/>
<path d="M373.851 810H372.666V815.333H373.851V810Z" fill="white"/>
<path d="M376.222 810H375.036V815.333H376.222V810Z" fill="white"/>
<path d="M378.592 810H377.407V815.333H378.592V810Z" fill="white"/>
<path d="M386.888 810H382.147V815.333H386.888V810Z" fill="white"/>
<path d="M389.258 810H388.073V815.333H389.258V810Z" fill="white"/>
<path d="M391.629 810H390.443V815.333H391.629V810Z" fill="white"/>
<path d="M397.554 810H392.813V815.333H397.554V810Z" fill="white"/>
<path d="M404.665 810H402.295V815.333H404.665V810Z" fill="white"/>
<path d="M407.036 810H405.85V815.333H407.036V810Z" fill="white"/>
<path d="M409.406 810H408.221V815.333H409.406V810Z" fill="white"/>
<path d="M417.702 810H415.332V815.333H417.702V810Z" fill="white"/>
<path d="M424.813 810H422.442V815.333H424.813V810Z" fill="white"/>
<path d="M429.553 810H428.368V815.333H429.553V810Z" fill="white"/>
<path d="M436.664 810H435.479V815.333H436.664V810Z" fill="white"/>
<path d="M441.405 810H439.034V815.333H441.405V810Z" fill="white"/>
<path d="M447.33 810H442.59V815.333H447.33V810Z" fill="white"/>
<path d="M452.071 810H448.516V815.333H452.071V810Z" fill="white"/>
<path d="M456.811 810H454.441V815.333H456.811V810Z" fill="white"/>
<path d="M461.552 810H457.997V815.333H461.552V810Z" fill="white"/>
<path d="M468.663 810H462.737V815.333H468.663V810Z" fill="white"/>
<path d="M471.033 810H469.848V815.333H471.033V810Z" fill="white"/>
<path d="M473.404 810H472.218V815.333H473.404V810Z" fill="white"/>
<path d="M480.514 810H474.589V815.333H480.514V810Z" fill="white"/>
<path d="M491.181 810H482.885V815.333H491.181V810Z" fill="white"/>
<path d="M493.551 810H492.366V815.333H493.551V810Z" fill="white"/>
<path d="M498.292 810H497.106V815.333H498.292V810Z" fill="white"/>
<path d="M500.662 810H499.477V815.333H500.662V810Z" fill="white"/>
<path d="M504.217 810H503.032V815.333H504.217V810Z" fill="white"/>
<path d="M371.481 815.333H362V820.667H371.481V815.333Z" fill="white"/>
<path d="M373.851 815.333H372.666V820.667H373.851V815.333Z" fill="white"/>
<path d="M376.222 815.333H375.036V820.667H376.222V815.333Z" fill="white"/>
<path d="M378.592 815.333H377.407V820.667H378.592V815.333Z" fill="white"/>
<path d="M386.888 815.333H382.147V820.667H386.888V815.333Z" fill="white"/>
<path d="M389.258 815.333H388.073V820.667H389.258V815.333Z" fill="white"/>
<path d="M391.629 815.333H390.443V820.667H391.629V815.333Z" fill="white"/>
<path d="M397.554 815.333H396.369V820.667H397.554V815.333Z" fill="white"/>
<path d="M404.665 815.333H402.295V820.667H404.665V815.333Z" fill="white"/>
<path d="M412.961 815.333H411.776V820.667H412.961V815.333Z" fill="white"/>
<path d="M418.887 815.333H415.332V820.667H418.887V815.333Z" fill="white"/>
<path d="M421.257 815.333H420.072V820.667H421.257V815.333Z" fill="white"/>
<path d="M427.183 815.333H422.442V820.667H427.183V815.333Z" fill="white"/>
<path d="M430.738 815.333H429.553V820.667H430.738V815.333Z" fill="white"/>
<path d="M435.479 815.333H431.923V820.667H435.479V815.333Z" fill="white"/>
<path d="M441.405 815.333H437.849V820.667H441.405V815.333Z" fill="white"/>
<path d="M448.515 815.333H442.59V820.667H448.515V815.333Z" fill="white"/>
<path d="M453.256 815.333H450.886V820.667H453.256V815.333Z" fill="white"/>
<path d="M456.811 815.333H454.441V820.667H456.811V815.333Z" fill="white"/>
<path d="M461.552 815.333H459.182V820.667H461.552V815.333Z" fill="white"/>
<path d="M469.848 815.333H462.737V820.667H469.848V815.333Z" fill="white"/>
<path d="M472.218 815.333H471.033V820.667H472.218V815.333Z" fill="white"/>
<path d="M474.589 815.333H473.404V820.667H474.589V815.333Z" fill="white"/>
<path d="M479.329 815.333H475.774V820.667H479.329V815.333Z" fill="white"/>
<path d="M491.181 815.333H482.885V820.667H491.181V815.333Z" fill="white"/>
<path d="M493.551 815.333H492.366V820.667H493.551V815.333Z" fill="white"/>
<path d="M498.292 815.333H497.106V820.667H498.292V815.333Z" fill="white"/>
<path d="M500.662 815.333H499.477V820.667H500.662V815.333Z" fill="white"/>
<path d="M504.217 815.333H503.032V820.667H504.217V815.333Z" fill="white"/>
<path d="M371.481 820.667H362V826H371.481V820.667Z" fill="white"/>
<path d="M373.851 820.667H372.666V826H373.851V820.667Z" fill="white"/>
<path d="M376.222 820.667H375.036V826H376.222V820.667Z" fill="white"/>
<path d="M378.592 820.667H377.407V826H378.592V820.667Z" fill="white"/>
<path d="M383.333 820.667H382.147V826H383.333V820.667Z" fill="white"/>
<path d="M385.703 820.667H384.518V826H385.703V820.667Z" fill="white"/>
<path d="M388.073 820.667H386.888V826H388.073V820.667Z" fill="white"/>
<path d="M395.184 820.667H390.443V826H395.184V820.667Z" fill="white"/>
<path d="M404.665 820.667H402.295V826H404.665V820.667Z" fill="white"/>
<path d="M414.147 820.667H409.406V826H414.147V820.667Z" fill="white"/>
<path d="M417.702 820.667H416.517V826H417.702V820.667Z" fill="white"/>
<path d="M421.257 820.667H418.887V826H421.257V820.667Z" fill="white"/>
<path d="M424.813 820.667H422.442V826H424.813V820.667Z" fill="white"/>
<path d="M429.553 820.667H425.998V826H429.553V820.667Z" fill="white"/>
<path d="M431.924 820.667H430.738V826H431.924V820.667Z" fill="white"/>
<path d="M439.034 820.667H435.479V826H439.034V820.667Z" fill="white"/>
<path d="M443.775 820.667H442.59V826H443.775V820.667Z" fill="white"/>
<path d="M449.701 820.667H447.33V826H449.701V820.667Z" fill="white"/>
<path d="M454.441 820.667H452.071V826H454.441V820.667Z" fill="white"/>
<path d="M461.552 820.667H456.812V826H461.552V820.667Z" fill="white"/>
<path d="M463.923 820.667H462.737V826H463.923V820.667Z" fill="white"/>
<path d="M466.293 820.667H465.107V826H466.293V820.667Z" fill="white"/>
<path d="M468.663 820.667H467.478V826H468.663V820.667Z" fill="white"/>
<path d="M478.144 820.667H473.404V826H478.144V820.667Z" fill="white"/>
<path d="M491.181 820.667H482.885V826H491.181V820.667Z" fill="white"/>
<path d="M493.551 820.667H492.366V826H493.551V820.667Z" fill="white"/>
<path d="M498.292 820.667H497.106V826H498.292V820.667Z" fill="white"/>
<path d="M500.662 820.667H499.477V826H500.662V820.667Z" fill="white"/>
<path d="M504.217 820.667H503.032V826H504.217V820.667Z" fill="white"/>
<path d="M371.481 826H362V831.333H371.481V826Z" fill="white"/>
<path d="M373.851 826H372.666V831.333H373.851V826Z" fill="white"/>
<path d="M376.222 826H375.036V831.333H376.222V826Z" fill="white"/>
<path d="M378.592 826H377.407V831.333H378.592V826Z" fill="white"/>
<path d="M383.333 826H382.147V831.333H383.333V826Z" fill="white"/>
<path d="M385.703 826H384.518V831.333H385.703V826Z" fill="white"/>
<path d="M391.629 826H386.888V831.333H391.629V826Z" fill="white"/>
<path d="M398.74 826H393.999V831.333H398.74V826Z" fill="white"/>
<path d="M403.48 826H402.295V831.333H403.48V826Z" fill="white"/>
<path d="M410.591 826H408.221V831.333H410.591V826Z" fill="white"/>
<path d="M416.517 826H414.146V831.333H416.517V826Z" fill="white"/>
<path d="M420.072 826H418.887V831.333H420.072V826Z" fill="white"/>
<path d="M423.628 826H422.442V831.333H423.628V826Z" fill="white"/>
<path d="M427.183 826H425.998V831.333H427.183V826Z" fill="white"/>
<path d="M433.109 826H429.553V831.333H433.109V826Z" fill="white"/>
<path d="M439.034 826H435.479V831.333H439.034V826Z" fill="white"/>
<path d="M443.775 826H442.59V831.333H443.775V826Z" fill="white"/>
<path d="M448.515 826H446.145V831.333H448.515V826Z" fill="white"/>
<path d="M452.071 826H449.701V831.333H452.071V826Z" fill="white"/>
<path d="M457.997 826H456.812V831.333H457.997V826Z" fill="white"/>
<path d="M465.108 826H462.737V831.333H465.108V826Z" fill="white"/>
<path d="M467.478 826H466.293V831.333H467.478V826Z" fill="white"/>
<path d="M473.404 826H468.663V831.333H473.404V826Z" fill="white"/>
<path d="M481.699 826H475.774V831.333H481.699V826Z" fill="white"/>
<path d="M491.181 826H482.885V831.333H491.181V826Z" fill="white"/>
<path d="M493.551 826H492.366V831.333H493.551V826Z" fill="white"/>
<path d="M498.292 826H497.106V831.333H498.292V826Z" fill="white"/>
<path d="M500.662 826H499.477V831.333H500.662V826Z" fill="white"/>
<path d="M504.217 826H503.032V831.333H504.217V826Z" fill="white"/>
<path d="M371.481 831.333H362V836.667H371.481V831.333Z" fill="white"/>
<path d="M373.851 831.333H372.666V836.667H373.851V831.333Z" fill="white"/>
<path d="M376.222 831.333H375.036V836.667H376.222V831.333Z" fill="white"/>
<path d="M378.592 831.333H377.407V836.667H378.592V831.333Z" fill="white"/>
<path d="M384.518 831.333H382.147V836.667H384.518V831.333Z" fill="white"/>
<path d="M386.888 831.333H385.703V836.667H386.888V831.333Z" fill="white"/>
<path d="M391.629 831.333H388.073V836.667H391.629V831.333Z" fill="white"/>
<path d="M398.74 831.333H397.554V836.667H398.74V831.333Z" fill="white"/>
<path d="M404.665 831.333H402.295V836.667H404.665V831.333Z" fill="white"/>
<path d="M408.221 831.333H407.035V836.667H408.221V831.333Z" fill="white"/>
<path d="M417.702 831.333H414.146V836.667H417.702V831.333Z" fill="white"/>
<path d="M420.072 831.333H418.887V836.667H420.072V831.333Z" fill="white"/>
<path d="M429.553 831.333H422.442V836.667H429.553V831.333Z" fill="white"/>
<path d="M436.664 831.333H433.109V836.667H436.664V831.333Z" fill="white"/>
<path d="M439.034 831.333H437.849V836.667H439.034V831.333Z" fill="white"/>
<path d="M441.405 831.333H440.219V836.667H441.405V831.333Z" fill="white"/>
<path d="M443.775 831.333H442.59V836.667H443.775V831.333Z" fill="white"/>
<path d="M452.071 831.333H446.145V836.667H452.071V831.333Z" fill="white"/>
<path d="M456.812 831.333H455.626V836.667H456.812V831.333Z" fill="white"/>
<path d="M461.552 831.333H457.997V836.667H461.552V831.333Z" fill="white"/>
<path d="M466.293 831.333H462.737V836.667H466.293V831.333Z" fill="white"/>
<path d="M468.663 831.333H467.478V836.667H468.663V831.333Z" fill="white"/>
<path d="M473.404 831.333H469.848V836.667H473.404V831.333Z" fill="white"/>
<path d="M478.144 831.333H475.774V836.667H478.144V831.333Z" fill="white"/>
<path d="M491.181 831.333H482.885V836.667H491.181V831.333Z" fill="white"/>
<path d="M493.551 831.333H492.366V836.667H493.551V831.333Z" fill="white"/>
<path d="M498.292 831.333H497.106V836.667H498.292V831.333Z" fill="white"/>
<path d="M500.662 831.333H499.477V836.667H500.662V831.333Z" fill="white"/>
<path d="M504.217 831.333H503.032V836.667H504.217V831.333Z" fill="white"/>
<path d="M371.481 836.667H362V842H371.481V836.667Z" fill="white"/>
<path d="M373.851 836.667H372.666V842H373.851V836.667Z" fill="white"/>
<path d="M376.222 836.667H375.036V842H376.222V836.667Z" fill="white"/>
<path d="M378.592 836.667H377.407V842H378.592V836.667Z" fill="white"/>
<path d="M388.073 836.667H382.147V842H388.073V836.667Z" fill="white"/>
<path d="M390.444 836.667H389.258V842H390.444V836.667Z" fill="white"/>
<path d="M396.369 836.667H391.629V842H396.369V836.667Z" fill="white"/>
<path d="M399.925 836.667H397.554V842H399.925V836.667Z" fill="white"/>
<path d="M404.665 836.667H402.295V842H404.665V836.667Z" fill="white"/>
<path d="M412.961 836.667H407.035V842H412.961V836.667Z" fill="white"/>
<path d="M417.702 836.667H416.517V842H417.702V836.667Z" fill="white"/>
<path d="M420.072 836.667H418.887V842H420.072V836.667Z" fill="white"/>
<path d="M429.553 836.667H422.442V842H429.553V836.667Z" fill="white"/>
<path d="M433.109 836.667H430.738V842H433.109V836.667Z" fill="white"/>
<path d="M439.034 836.667H435.479V842H439.034V836.667Z" fill="white"/>
<path d="M441.405 836.667H440.219V842H441.405V836.667Z" fill="white"/>
<path d="M443.775 836.667H442.59V842H443.775V836.667Z" fill="white"/>
<path d="M450.886 836.667H447.33V842H450.886V836.667Z" fill="white"/>
<path d="M453.256 836.667H452.071V842H453.256V836.667Z" fill="white"/>
<path d="M459.182 836.667H456.812V842H459.182V836.667Z" fill="white"/>
<path d="M467.478 836.667H462.737V842H467.478V836.667Z" fill="white"/>
<path d="M469.848 836.667H468.663V842H469.848V836.667Z" fill="white"/>
<path d="M476.959 836.667H471.033V842H476.959V836.667Z" fill="white"/>
<path d="M480.514 836.667H478.144V842H480.514V836.667Z" fill="white"/>
<path d="M491.181 836.667H482.885V842H491.181V836.667Z" fill="white"/>
<path d="M493.551 836.667H492.366V842H493.551V836.667Z" fill="white"/>
<path d="M498.292 836.667H497.106V842H498.292V836.667Z" fill="white"/>
<path d="M500.662 836.667H499.477V842H500.662V836.667Z" fill="white"/>
<path d="M504.217 836.667H503.032V842H504.217V836.667Z" fill="white"/>
</g>
</g>
<defs>
<clipPath id="clip0_7_3">
<rect y="856" width="856" height="540" rx="28" transform="rotate(-90 0 856)" fill="white"/>
</clipPath>
<clipPath id="clip1_7_3">
<rect width="142.217" height="32" fill="white" transform="translate(362 810)"/>
</clipPath>
</defs>
</svg>
