<svg width="265" height="265" viewBox="0 0 265 265" fill="none" xmlns="http://www.w3.org/2000/svg">
<rect width="265" height="265" rx="132.5" fill="url(#paint0_linear_304_179)" fill-opacity="0.25"/>
<g opacity="0.8">
<path d="M160.135 49.3139L156.767 140.253L109.232 124.747L160.135 49.3139Z" fill="url(#paint1_linear_304_179)"/>
<path d="M109.232 124.747L160.135 49.3139L85.4646 116.994L109.232 124.747Z" fill="url(#paint2_linear_304_179)"/>
<path d="M156.767 140.253L160.135 49.3139L180.535 148.006L156.767 140.253Z" fill="url(#paint3_linear_304_179)"/>
<path d="M105.865 215.686L156.768 140.253L109.233 124.747L105.865 215.686Z" fill="url(#paint4_linear_304_179)"/>
<path d="M109.233 124.747L105.865 215.686L85.4655 116.994L109.233 124.747Z" fill="url(#paint5_linear_304_179)"/>
<path d="M156.768 140.253L105.865 215.686L180.535 148.006L156.768 140.253Z" fill="url(#paint6_linear_304_179)"/>
</g>
<defs>
<linearGradient id="paint0_linear_304_179" x1="132.5" y1="0" x2="132.5" y2="265" gradientUnits="userSpaceOnUse">
<stop stop-color="white"/>
<stop offset="0.83984" stop-color="white" stop-opacity="0"/>
</linearGradient>
<linearGradient id="paint1_linear_304_179" x1="160.135" y1="49.3139" x2="133" y2="132.5" gradientUnits="userSpaceOnUse">
<stop offset="0.378125" stop-color="#D1FFD8"/>
<stop offset="1" stop-color="#80B889"/>
</linearGradient>
<linearGradient id="paint2_linear_304_179" x1="136.367" y1="41.561" x2="109.232" y2="124.747" gradientUnits="userSpaceOnUse">
<stop offset="0.336458" stop-color="#B1EFBB"/>
<stop offset="1" stop-color="#537F5A"/>
</linearGradient>
<linearGradient id="paint3_linear_304_179" x1="183.902" y1="57.0668" x2="156.767" y2="140.253" gradientUnits="userSpaceOnUse">
<stop offset="0.336458" stop-color="#B1EFBB"/>
<stop offset="1" stop-color="#537F5A"/>
</linearGradient>
<linearGradient id="paint4_linear_304_179" x1="105.865" y1="215.686" x2="133.001" y2="132.5" gradientUnits="userSpaceOnUse">
<stop stop-color="#4A7250"/>
<stop offset="1" stop-color="#70AD7A"/>
</linearGradient>
<linearGradient id="paint5_linear_304_179" x1="82.0978" y1="207.933" x2="109.233" y2="124.747" gradientUnits="userSpaceOnUse">
<stop offset="0.430208" stop-color="#5D8A64"/>
<stop offset="1" stop-color="#4C9658"/>
</linearGradient>
<linearGradient id="paint6_linear_304_179" x1="129.633" y1="223.439" x2="156.768" y2="140.253" gradientUnits="userSpaceOnUse">
<stop offset="0.430208" stop-color="#5D8A64"/>
<stop offset="1" stop-color="#4C9658"/>
</linearGradient>
</defs>
</svg>
