<svg width="40" height="40" viewBox="0 0 40 40" fill="none" xmlns="http://www.w3.org/2000/svg">
<mask id="mask0_288_120" style="mask-type:alpha" maskUnits="userSpaceOnUse" x="0" y="0" width="40" height="40">
<rect width="40" height="40" fill="#D9D9D9"/>
</mask>
<g mask="url(#mask0_288_120)">
<path d="M1.66602 35L19.9993 3.33337L38.3327 35H1.66602ZM6.47156 32.2223H33.5271L19.9993 8.88892L6.47156 32.2223ZM20.1153 30.0834C20.5102 30.0834 20.8396 29.9498 21.1035 29.6827C21.3674 29.4155 21.4993 29.0845 21.4993 28.6896C21.4993 28.2947 21.3658 27.9653 21.0986 27.7015C20.8315 27.4376 20.5005 27.3056 20.1056 27.3056C19.7107 27.3056 19.3813 27.4392 19.1174 27.7063C18.8535 27.9735 18.7216 28.3045 18.7216 28.6994C18.7216 29.0943 18.8552 29.4237 19.1223 29.6875C19.3894 29.9514 19.7204 30.0834 20.1153 30.0834ZM18.7216 25.3334H21.4993V16.3334H18.7216V25.3334Z" fill="white" fill-opacity="0.5"/>
</g>
</svg>
