<svg width="195" height="195" viewBox="0 0 195 195" fill="none" xmlns="http://www.w3.org/2000/svg">
<g clip-path="url(#clip0_588_11)">
<rect width="195" height="195" fill="#0078DC"/>
<rect width="45" height="45" transform="translate(150 150)" fill="url(#paint0_linear_588_11)"/>
<path d="M156.428 180V168.744H159.62V170.34C160.355 169.395 161.321 168.534 162.938 168.534C164.429 168.534 165.521 169.164 166.109 170.319C167.096 169.143 168.272 168.534 169.805 168.534C172.178 168.534 173.606 169.962 173.606 172.671V180H170.414V173.721C170.414 172.209 169.742 171.432 168.545 171.432C167.348 171.432 166.613 172.209 166.613 173.721V180H163.421V173.721C163.421 172.209 162.749 171.432 161.552 171.432C160.355 171.432 159.62 172.209 159.62 173.721V180H156.428ZM177.138 180L183.711 168.093H176.802V165.3H187.386V167.736L180.792 180H177.138Z" fill="white"/>
<rect width="150" height="150" transform="matrix(-1 0 0 -1 150 150)" fill="url(#paint1_linear_588_11)"/>
<path d="M20.2207 97.7134C20.2207 101.638 21.4521 104.915 23.915 107.543C26.4152 110.172 29.5311 111.486 33.2627 111.486C35.7256 111.486 37.9273 110.928 39.8677 109.811C41.8082 108.659 43.4687 106.967 44.8494 104.735L50.167 107.813C48.5251 110.838 46.1928 113.214 43.1702 114.942C40.1849 116.671 36.8078 117.535 33.0388 117.535C27.1802 117.535 22.3664 115.681 18.5975 111.972C14.8658 108.263 13 103.546 13 97.8214C13 92.2044 14.9591 87.5056 18.8773 83.725C22.7955 79.9083 27.684 78 33.5426 78C37.3116 78 40.5954 78.8282 43.3941 80.4845C46.2301 82.1048 48.4505 84.4452 50.0551 87.5057L44.5136 90.8542C43.1329 88.5138 41.5469 86.8035 39.7558 85.7233C38.0019 84.6072 35.8749 84.0491 33.3747 84.0491C29.5684 84.0491 26.4152 85.3453 23.915 87.9377C21.4521 90.5302 20.2207 93.7887 20.2207 97.7134Z" fill="white"/>
<path d="M20.2207 97.7134C20.2207 101.638 21.4521 104.915 23.915 107.543C26.4152 110.172 29.5311 111.486 33.2627 111.486C35.7256 111.486 37.9273 110.928 39.8677 109.811C41.8082 108.659 43.4687 106.967 44.8494 104.735L50.167 107.813C48.5251 110.838 46.1928 113.214 43.1702 114.942C40.1849 116.671 36.8078 117.535 33.0388 117.535C27.1802 117.535 22.3664 115.681 18.5975 111.972C14.8658 108.263 13 103.546 13 97.8214C13 92.2044 14.9591 87.5056 18.8773 83.725C22.7955 79.9083 27.684 78 33.5426 78C37.3116 78 40.5954 78.8282 43.3941 80.4845C46.2301 82.1048 48.4505 84.4452 50.0551 87.5057L44.5136 90.8542C43.1329 88.5138 41.5469 86.8035 39.7558 85.7233C38.0019 84.6072 35.8749 84.0491 33.3747 84.0491C29.5684 84.0491 26.4152 85.3453 23.915 87.9377C21.4521 90.5302 20.2207 93.7887 20.2207 97.7134Z" fill="url(#paint2_linear_588_11)"/>
<path d="M53.0129 97.8214C53.0129 92.2044 54.9534 87.5056 58.8343 83.725C62.7152 79.9083 67.5663 78 73.3876 78C79.209 78 84.0414 79.8903 87.885 83.671C91.7286 87.4156 93.6504 92.0964 93.6504 97.7134C93.6504 103.33 91.7099 108.047 87.829 111.864C83.9481 115.645 79.1157 117.535 73.3317 117.535C67.5103 117.535 62.6592 115.663 58.7783 111.918C54.9347 108.137 53.0129 103.438 53.0129 97.8214ZM60.2337 97.7134C60.2337 101.638 61.4837 104.915 63.9839 107.543C66.4841 110.172 69.6187 111.486 73.3876 111.486C77.1193 111.486 80.2165 110.19 82.6794 107.597C85.1423 105.005 86.3737 101.746 86.3737 97.8214C86.3737 93.9328 85.1236 90.6742 82.6234 88.0457C80.1232 85.3813 77.026 84.0491 73.3317 84.0491C69.5627 84.0491 66.4281 85.3453 63.928 87.9377C61.4651 90.5302 60.2337 93.7887 60.2337 97.7134Z" fill="white"/>
<path d="M53.0129 97.8214C53.0129 92.2044 54.9534 87.5056 58.8343 83.725C62.7152 79.9083 67.5663 78 73.3876 78C79.209 78 84.0414 79.8903 87.885 83.671C91.7286 87.4156 93.6504 92.0964 93.6504 97.7134C93.6504 103.33 91.7099 108.047 87.829 111.864C83.9481 115.645 79.1157 117.535 73.3317 117.535C67.5103 117.535 62.6592 115.663 58.7783 111.918C54.9347 108.137 53.0129 103.438 53.0129 97.8214ZM60.2337 97.7134C60.2337 101.638 61.4837 104.915 63.9839 107.543C66.4841 110.172 69.6187 111.486 73.3876 111.486C77.1193 111.486 80.2165 110.19 82.6794 107.597C85.1423 105.005 86.3737 101.746 86.3737 97.8214C86.3737 93.9328 85.1236 90.6742 82.6234 88.0457C80.1232 85.3813 77.026 84.0491 73.3317 84.0491C69.5627 84.0491 66.4281 85.3453 63.928 87.9377C61.4651 90.5302 60.2337 93.7887 60.2337 97.7134Z" fill="url(#paint3_linear_588_11)"/>
<path d="M123.928 100.86L134.226 116.671H125.821L116.581 102.017H107.619V116.671H100.55V78.1086H118.529C123.204 78.1086 126.823 79.1369 129.383 81.1935C131.943 83.2134 133.224 86.0781 133.224 89.7875C133.224 92.5786 132.407 94.929 130.775 96.8387C129.179 98.7485 126.897 100.089 123.928 100.86ZM125.988 90.0078C125.988 88.1347 125.338 86.7024 124.039 85.7108C122.741 84.6825 120.867 84.1683 118.418 84.1683H107.619V96.0125H118.139C120.588 96.0125 122.499 95.4799 123.872 94.4148C125.283 93.3498 125.988 91.8808 125.988 90.0078Z" fill="white"/>
<path d="M123.928 100.86L134.226 116.671H125.821L116.581 102.017H107.619V116.671H100.55V78.1086H118.529C123.204 78.1086 126.823 79.1369 129.383 81.1935C131.943 83.2134 133.224 86.0781 133.224 89.7875C133.224 92.5786 132.407 94.929 130.775 96.8387C129.179 98.7485 126.897 100.089 123.928 100.86ZM125.988 90.0078C125.988 88.1347 125.338 86.7024 124.039 85.7108C122.741 84.6825 120.867 84.1683 118.418 84.1683H107.619V96.0125H118.139C120.588 96.0125 122.499 95.4799 123.872 94.4148C125.283 93.3498 125.988 91.8808 125.988 90.0078Z" fill="url(#paint4_linear_588_11)"/>
<path d="M160.294 111.378C162.79 111.378 165.055 110.928 167.09 110.028C169.163 109.091 171.217 107.615 173.252 105.599L177.514 110.028C175.134 112.512 172.446 114.384 169.451 115.644C166.495 116.905 163.27 117.535 159.776 117.535C153.671 117.535 148.66 115.699 144.744 112.026C140.866 108.317 138.927 103.582 138.927 97.8214C138.927 92.2405 140.866 87.5417 144.744 83.725C148.622 79.9083 153.479 78 159.315 78C165.266 78 170.085 79.8183 173.771 83.455C177.457 87.0556 179.3 91.7364 179.3 97.4974C179.3 98.0015 179.261 98.5056 179.184 99.0096C179.146 99.4777 179.069 99.9997 178.954 100.576H146.587C147.163 103.852 148.699 106.481 151.194 108.461C153.728 110.406 156.762 111.378 160.294 111.378ZM159.373 83.995C156.109 83.995 153.306 84.9852 150.964 86.9656C148.622 88.9099 147.163 91.5203 146.587 94.7969H171.755C171.294 91.4123 169.97 88.7658 167.781 86.8575C165.593 84.9492 162.79 83.995 159.373 83.995Z" fill="white"/>
<path d="M160.294 111.378C162.79 111.378 165.055 110.928 167.09 110.028C169.163 109.091 171.217 107.615 173.252 105.599L177.514 110.028C175.134 112.512 172.446 114.384 169.451 115.644C166.495 116.905 163.27 117.535 159.776 117.535C153.671 117.535 148.66 115.699 144.744 112.026C140.866 108.317 138.927 103.582 138.927 97.8214C138.927 92.2405 140.866 87.5417 144.744 83.725C148.622 79.9083 153.479 78 159.315 78C165.266 78 170.085 79.8183 173.771 83.455C177.457 87.0556 179.3 91.7364 179.3 97.4974C179.3 98.0015 179.261 98.5056 179.184 99.0096C179.146 99.4777 179.069 99.9997 178.954 100.576H146.587C147.163 103.852 148.699 106.481 151.194 108.461C153.728 110.406 156.762 111.378 160.294 111.378ZM159.373 83.995C156.109 83.995 153.306 84.9852 150.964 86.9656C148.622 88.9099 147.163 91.5203 146.587 94.7969H171.755C171.294 91.4123 169.97 88.7658 167.781 86.8575C165.593 84.9492 162.79 83.995 159.373 83.995Z" fill="url(#paint5_linear_588_11)"/>
<path d="M176.957 78.2476V78.5621H177.943V81.3797H178.278V78.5621H179.264V78.2476H176.957Z" fill="white"/>
<path d="M176.957 78.2476V78.5621H177.943V81.3797H178.278V78.5621H179.264V78.2476H176.957Z" fill="url(#paint6_linear_588_11)"/>
<path d="M182.666 78.8308V81.3797H183V78.2476H182.709L181.411 79.949L180.112 78.2476H179.821V81.3797H180.158V78.8308L181.411 80.4842L182.666 78.8308Z" fill="white"/>
<path d="M182.666 78.8308V81.3797H183V78.2476H182.709L181.411 79.949L180.112 78.2476H179.821V81.3797H180.158V78.8308L181.411 80.4842L182.666 78.8308Z" fill="url(#paint7_linear_588_11)"/>
<path d="M55.8293 15.5414C55.8296 15.4554 55.8993 15.3859 55.9853 15.3859H56.5868C56.7077 15.3859 56.8177 15.4558 56.8691 15.5652L57.9627 17.895C57.9815 17.9349 58.0383 17.9348 58.0569 17.8948L59.1375 15.5665C59.1886 15.4563 59.299 15.3859 59.4204 15.3859H60.0205C60.1066 15.3859 60.1765 15.4557 60.1765 15.5418V20.213C60.1765 20.2992 60.1066 20.369 60.0205 20.369H59.55C59.464 20.369 59.3942 20.2994 59.394 20.2133L59.3879 17.0063C59.3877 16.9509 59.3125 16.9341 59.2888 16.9843L58.3152 19.0524C58.2895 19.107 58.2345 19.1419 58.1741 19.1419H57.8316C57.7715 19.1419 57.7167 19.1073 57.6908 19.0531L56.7034 16.9815C56.6796 16.9316 56.6046 16.9484 56.6045 17.0038L56.5983 20.2133C56.5982 20.2994 56.5284 20.369 56.4424 20.369H55.9723C55.886 20.369 55.8161 20.2989 55.8164 20.2126L55.8293 15.5414Z" fill="#EEEEEE"/>
<path d="M61.5575 15.5418C61.5575 15.4557 61.6273 15.3859 61.7135 15.3859H62.1837C62.2698 15.3859 62.3396 15.4557 62.3396 15.5418V20.213C62.3396 20.2992 62.2698 20.369 62.1837 20.369H61.7135C61.6273 20.369 61.5575 20.2992 61.5575 20.213V15.5418Z" fill="#EEEEEE"/>
<path d="M63.7234 15.5418C63.7234 15.4557 63.7933 15.3859 63.8794 15.3859H64.3496C64.4358 15.3859 64.5056 15.4557 64.5056 15.5418V19.5341C64.5056 19.6202 64.5754 19.6901 64.6615 19.6901H66.8898C66.9759 19.6901 67.0458 19.7599 67.0458 19.846V20.213C67.0458 20.2992 66.9759 20.369 66.8898 20.369H63.8794C63.7933 20.369 63.7234 20.2992 63.7234 20.213V15.5418Z" fill="#EEEEEE"/>
<path d="M68.2213 15.5418C68.2213 15.4557 68.2912 15.3859 68.3773 15.3859H68.8475C68.9336 15.3859 69.0035 15.4557 69.0035 15.5418V19.5341C69.0035 19.6202 69.0733 19.6901 69.1594 19.6901H71.3877C71.4738 19.6901 71.5436 19.7599 71.5436 19.846V20.213C71.5436 20.2992 71.4738 20.369 71.3877 20.369H68.3773C68.2912 20.369 68.2213 20.2992 68.2213 20.213V15.5418Z" fill="#EEEEEE"/>
<path d="M72.7868 15.5418C72.7868 15.4557 72.8566 15.3859 72.9428 15.3859H76.0501C76.1362 15.3859 76.206 15.4557 76.206 15.5418V15.9089C76.206 15.995 76.1362 16.0648 76.0501 16.0648H73.7249C73.6388 16.0648 73.5689 16.1346 73.5689 16.2208V17.4766C73.5689 17.5053 73.5922 17.5286 73.6209 17.5286H75.7386C75.8247 17.5286 75.8946 17.5984 75.8946 17.6846V18.0516C75.8946 18.1377 75.8247 18.2076 75.7386 18.2076H73.6209C73.5922 18.2076 73.5689 18.2308 73.5689 18.2596V19.5524C73.5689 19.6387 73.639 19.7086 73.7253 19.7084L76.0497 19.7029C76.136 19.7027 76.206 19.7726 76.206 19.8588V20.2249C76.206 20.3113 76.1359 20.3812 76.0495 20.3809L72.9422 20.3696C72.8563 20.3693 72.7868 20.2995 72.7868 20.2136V15.5418Z" fill="#EEEEEE"/>
<path d="M77.4797 15.5418C77.4797 15.4557 77.5496 15.3859 77.6357 15.3859H78.0773C78.1874 15.3859 78.2894 15.4439 78.3456 15.5387L80.1309 18.5491C80.1578 18.5945 80.2276 18.5754 80.2276 18.5225V15.5418C80.2276 15.4557 80.2974 15.3859 80.3835 15.3859H80.8537C80.9399 15.3859 81.0097 15.4557 81.0097 15.5418V20.213C81.0097 20.2992 80.9399 20.369 80.8537 20.369H80.4806C80.3709 20.369 80.2692 20.3114 80.2129 20.2172L78.3654 17.1295C78.3383 17.0842 78.2688 17.1034 78.2688 17.1561V20.213C78.2688 20.2992 78.199 20.369 78.1128 20.369H77.6357C77.5496 20.369 77.4797 20.2992 77.4797 20.213V15.5418Z" fill="#EEEEEE"/>
<path d="M82.3494 15.5418C82.3494 15.4557 82.4192 15.3859 82.5053 15.3859H82.9469C83.0571 15.3859 83.159 15.4439 83.2152 15.5387L85.0005 18.5491C85.0275 18.5945 85.0972 18.5754 85.0972 18.5225V15.5418C85.0972 15.4557 85.167 15.3859 85.2532 15.3859H85.7234C85.8095 15.3859 85.8794 15.4557 85.8794 15.5418V20.213C85.8794 20.2992 85.8095 20.369 85.7234 20.369H85.3502C85.2405 20.369 85.1389 20.3114 85.0826 20.2172L83.235 17.1295C83.2079 17.0842 83.1384 17.1034 83.1384 17.1561V20.213C83.1384 20.2992 83.0686 20.369 82.9825 20.369H82.5053C82.4192 20.369 82.3494 20.2992 82.3494 20.213V15.5418Z" fill="#EEEEEE"/>
<path d="M87.2606 15.5418C87.2606 15.4557 87.3304 15.3859 87.4165 15.3859H87.8867C87.9729 15.3859 88.0427 15.4557 88.0427 15.5418V20.213C88.0427 20.2992 87.9729 20.369 87.8867 20.369H87.4165C87.3304 20.369 87.2606 20.2992 87.2606 20.213V15.5418Z" fill="#EEEEEE"/>
<path d="M89.5298 19.7892C89.464 19.7301 89.4265 19.6458 89.4265 19.5574V15.5418C89.4265 15.4557 89.4963 15.3859 89.5825 15.3859H90.0527C90.1388 15.3859 90.2086 15.4557 90.2086 15.5418V19.2958C90.2086 19.3405 90.2278 19.3831 90.2614 19.4127L90.5312 19.651C90.5597 19.6762 90.5965 19.6901 90.6345 19.6901H91.7485C91.7865 19.6901 91.8232 19.6762 91.8517 19.651L92.1216 19.4127C92.1551 19.3831 92.1743 19.3405 92.1743 19.2958V15.5418C92.1743 15.4557 92.2442 15.3859 92.3303 15.3859H92.8005C92.8866 15.3859 92.9565 15.4557 92.9565 15.5418V19.5574C92.9565 19.6458 92.9189 19.7301 92.8532 19.7892L92.2979 20.2889C92.2406 20.3405 92.1663 20.369 92.0893 20.369H90.2937C90.2167 20.369 90.1423 20.3405 90.0851 20.2889L89.5298 19.7892Z" fill="#EEEEEE"/>
<path d="M94.3569 15.5414C94.3571 15.4554 94.4269 15.3859 94.5128 15.3859H95.1143C95.2353 15.3859 95.3453 15.4558 95.3967 15.5652L96.4903 17.895C96.509 17.9349 96.5659 17.9348 96.5845 17.8948L97.665 15.5665C97.7161 15.4563 97.8265 15.3859 97.948 15.3859H98.548C98.6342 15.3859 98.704 15.4557 98.704 15.5418V20.213C98.704 20.2992 98.6342 20.369 98.548 20.369H98.0775C97.9915 20.369 97.9217 20.2994 97.9216 20.2133L97.9154 17.0063C97.9153 16.9509 97.84 16.9341 97.8164 16.9843L96.8427 19.0524C96.817 19.107 96.762 19.1419 96.7016 19.1419H96.3591C96.299 19.1419 96.2442 19.1073 96.2184 19.0531L95.231 16.9815C95.2072 16.9316 95.1322 16.9484 95.1321 17.0038L95.1259 20.2133C95.1257 20.2994 95.056 20.369 94.9699 20.369H94.4999C94.4136 20.369 94.3437 20.2989 94.3439 20.2126L94.3569 15.5414Z" fill="#EEEEEE"/>
<path d="M55.9192 27.2826C55.8535 27.2235 55.8159 27.1392 55.8159 27.0508V26.3864C55.8159 26.3002 55.8857 26.2304 55.9719 26.2304H56.4369C56.5223 26.2304 56.5919 26.2992 56.5928 26.3846L56.5973 26.784C56.5978 26.8281 56.6169 26.87 56.65 26.8992L56.9207 27.1382C56.9492 27.1633 56.9859 27.1772 57.0239 27.1772H58.1379C58.1759 27.1772 58.2126 27.1633 58.2411 27.1382L58.511 26.8999C58.5445 26.8703 58.5637 26.8277 58.5637 26.783V26.3516C58.5637 26.2926 58.5304 26.2386 58.4776 26.2122L55.9881 24.965C55.8826 24.9121 55.8159 24.8042 55.8159 24.6861V23.6909C55.8159 23.6025 55.8535 23.5182 55.9192 23.4591L56.4745 22.9593C56.5317 22.9078 56.6061 22.8793 56.6831 22.8793H58.4787C58.5557 22.8793 58.63 22.9078 58.6873 22.9593L59.2426 23.4591C59.3083 23.5182 59.3459 23.6025 59.3459 23.6909V24.3491C59.3459 24.4352 59.2761 24.505 59.1899 24.505H58.7197C58.6336 24.505 58.5637 24.4352 58.5637 24.3491V23.9525C58.5637 23.9077 58.5445 23.8652 58.511 23.8356L58.2411 23.5973C58.2126 23.5721 58.1759 23.5582 58.1379 23.5582H57.0239C56.9859 23.5582 56.9492 23.5721 56.9207 23.5973L56.6508 23.8356C56.6172 23.8652 56.598 23.9077 56.598 23.9525V24.3838C56.598 24.4428 56.6314 24.4968 56.6841 24.5232L59.1737 25.7704C59.2792 25.8233 59.3459 25.9312 59.3459 26.0493V27.0508C59.3459 27.1392 59.3083 27.2235 59.2426 27.2826L58.6873 27.7823C58.63 27.8339 58.5557 27.8624 58.4787 27.8624H56.6831C56.6061 27.8624 56.5317 27.8339 56.4745 27.7823L55.9192 27.2826Z" fill="#EEEEEE"/>
<path d="M60.7329 23.0352C60.7329 22.9491 60.8027 22.8793 60.8888 22.8793H61.359C61.4452 22.8793 61.515 22.9491 61.515 23.0352V27.7064C61.515 27.7926 61.4452 27.8624 61.359 27.8624H60.8888C60.8027 27.8624 60.7329 27.7926 60.7329 27.7064V23.0352Z" fill="#EEEEEE"/>
<path d="M62.8988 23.0352C62.8988 22.9491 62.9686 22.8793 63.0548 22.8793H63.525C63.6111 22.8793 63.6809 22.9491 63.6809 23.0352V27.0275C63.6809 27.1136 63.7508 27.1834 63.8369 27.1834H66.0652C66.1513 27.1834 66.2211 27.2533 66.2211 27.3394V27.7064C66.2211 27.7926 66.1513 27.8624 66.0652 27.8624H63.0548C62.9686 27.8624 62.8988 27.7926 62.8988 27.7064V23.0352Z" fill="#EEEEEE"/>
<path d="M67.4643 23.0352C67.4643 22.9491 67.5341 22.8793 67.6203 22.8793H68.0905C68.1766 22.8793 68.2464 22.9491 68.2464 23.0352V27.7064C68.2464 27.7926 68.1766 27.8624 68.0905 27.8624H67.6203C67.5341 27.8624 67.4643 27.7926 67.4643 27.7064V23.0352Z" fill="#EEEEEE"/>
<path d="M69.7335 27.2826C69.6678 27.2235 69.6302 27.1392 69.6302 27.0508V23.6909C69.6302 23.6025 69.6678 23.5182 69.7335 23.4591L70.2888 22.9593C70.3461 22.9078 70.4204 22.8793 70.4974 22.8793H72.293C72.37 22.8793 72.4444 22.9078 72.5016 22.9593L73.0569 23.4591C73.1227 23.5182 73.1602 23.6025 73.1602 23.6909V24.374C73.1602 24.4601 73.0904 24.5299 73.0042 24.5299H72.534C72.4479 24.5299 72.3781 24.4601 72.3781 24.374V23.9525C72.3781 23.9077 72.3589 23.8652 72.3253 23.8356L72.0555 23.5973C72.027 23.5721 71.9902 23.5582 71.9522 23.5582H70.8382C70.8002 23.5582 70.7635 23.5721 70.735 23.5973L70.4651 23.8356C70.4316 23.8652 70.4124 23.9077 70.4124 23.9525V26.7901C70.4124 26.8343 70.4311 26.8764 70.464 26.906L70.7347 27.1496C70.7634 27.1754 70.8005 27.1897 70.839 27.1897H71.9514C71.9899 27.1897 72.0271 27.1754 72.0557 27.1496L72.3264 26.906C72.3593 26.8764 72.3781 26.8343 72.3781 26.7901V26.3677C72.3781 26.2816 72.4479 26.2117 72.534 26.2117H73.0042C73.0904 26.2117 73.1602 26.2816 73.1602 26.3677V27.0508C73.1602 27.1392 73.1227 27.2235 73.0569 27.2826L72.5016 27.7823C72.4444 27.8339 72.37 27.8624 72.293 27.8624H70.4974C70.4204 27.8624 70.3461 27.8339 70.2888 27.7823L69.7335 27.2826Z" fill="#EEEEEE"/>
<path d="M74.6505 27.2826C74.5847 27.2235 74.5472 27.1392 74.5472 27.0508V23.6909C74.5472 23.6025 74.5847 23.5182 74.6505 23.4591L75.2058 22.9593C75.263 22.9078 75.3374 22.8793 75.4144 22.8793H77.21C77.287 22.8793 77.3613 22.9078 77.4186 22.9593L77.9739 23.4591C78.0396 23.5182 78.0772 23.6025 78.0772 23.6909V27.0508C78.0772 27.1392 78.0396 27.2235 77.9739 27.2826L77.4186 27.7823C77.3613 27.8339 77.287 27.8624 77.21 27.8624H75.4144C75.3374 27.8624 75.263 27.8339 75.2058 27.7823L74.6505 27.2826ZM76.8683 27.1897C76.9069 27.1897 76.944 27.1754 76.9727 27.1496L77.2434 26.906C77.2763 26.8764 77.295 26.8343 77.295 26.7901V23.9525C77.295 23.9077 77.2758 23.8652 77.2423 23.8356L76.9724 23.5973C76.9439 23.5721 76.9072 23.5582 76.8692 23.5582H75.7552C75.7171 23.5582 75.6804 23.5721 75.6519 23.5973L75.3821 23.8356C75.3485 23.8652 75.3293 23.9077 75.3293 23.9525V26.7901C75.3293 26.8343 75.3481 26.8764 75.381 26.906L75.6517 27.1496C75.6803 27.1754 75.7175 27.1897 75.756 27.1897H76.8683Z" fill="#EEEEEE"/>
<path d="M79.4226 23.0352C79.4226 22.9491 79.4925 22.8793 79.5786 22.8793H80.0202C80.1303 22.8793 80.2323 22.9373 80.2885 23.0321L82.0738 26.0424C82.1007 26.0879 82.1705 26.0688 82.1705 26.0159V23.0352C82.1705 22.9491 82.2403 22.8793 82.3264 22.8793H82.7966C82.8828 22.8793 82.9526 22.9491 82.9526 23.0352V27.7064C82.9526 27.7926 82.8828 27.8624 82.7966 27.8624H82.4235C82.3138 27.8624 82.2121 27.8048 82.1558 27.7106L80.3083 24.6228C80.2812 24.5776 80.2117 24.5968 80.2117 24.6495V27.7064C80.2117 27.7926 80.1419 27.8624 80.0557 27.8624H79.5786C79.4925 27.8624 79.4226 27.7926 79.4226 27.7064V23.0352Z" fill="#EEEEEE"/>
<path d="M41.8242 19.6171H44.798L37.5754 32.3168L41.4389 36.1801L50.9365 19.4802V13.9998L38.9583 13.9996L28.5411 32.3164L32.4046 36.1799L41.8242 19.6171Z" fill="#EEEEEE"/>
<path d="M21.5172 19.6171L17 13.9996H35.9847L23.3703 36.1799L19.5069 32.3164L26.7292 19.6171H21.5172Z" fill="#EEEEEE"/>
<path d="M58.2778 31.2386V32.2866H60.2817V32.8058H58.2778V35.0571H57.7392V32.8058H55.7402V32.2866H57.7392V31.2726C57.2735 31.3017 56.8028 31.3163 56.3322 31.3163H56.1187L56.0216 30.8068C56.1381 30.8116 56.2642 30.8116 56.4535 30.8116C57.0745 30.8116 58.8067 30.7583 59.7091 30.5108L59.9809 31.0154C59.4811 31.127 59.0978 31.1707 58.2778 31.2386ZM62.8096 30.9718H65.745V31.457H64.1972V32.1265H65.5898V32.602H64.1972V33.4802H65.9342V33.9654H64.1972V35.0571H63.6781V33.9654H61.3928V33.4802H62.0769V32.1265H63.6781V31.457H62.5476C62.2613 31.9082 62.0332 32.1848 61.6742 32.471L61.3346 32.0246C61.8537 31.6316 62.2419 31.0785 62.4166 30.4866L62.96 30.5836C62.9066 30.7534 62.8726 30.8408 62.8096 30.9718ZM62.5912 32.602V33.4802H63.6781V32.602H62.5912ZM69.0492 32.078V30.5205H69.5829V32.078H71.4364V32.5681H69.5829V33.3153H71.5723V33.8102H69.5829V35.0668H69.0492V33.8102H67.0599V33.3153H69.0492V32.5681H67.2006V32.078H69.0492ZM70.631 30.6612L71.1647 30.865C70.9415 31.4036 70.6601 31.8015 70.563 31.9325L70.0827 31.7141C70.335 31.389 70.5436 30.9281 70.631 30.6612ZM67.5111 30.899L67.9915 30.6855C68.1904 30.9232 68.4524 31.3648 68.5592 31.7093L68.0594 31.9179C68.0109 31.7917 67.8265 31.326 67.5111 30.899ZM73.4936 31.0882V31.5103H76.2932V31.0882H73.4936ZM76.8027 30.6564V31.9325H73.4936V32.2818C73.4936 32.4613 73.5033 32.471 73.7217 32.471H76.4C76.5892 32.471 76.6523 32.4613 76.7299 31.9858L77.2297 32.0926C77.1181 32.8543 76.8997 32.9077 76.5795 32.9077H76.3515V33.3444H77.2103V33.7908H76.3515V34.6399C76.3515 34.9504 76.1574 35.0523 75.9148 35.0523H75.1336L75.0026 34.5622H75.7013C75.8274 34.5622 75.842 34.5331 75.842 34.4264V33.7908H73.8284C73.9691 33.8878 74.2797 34.1401 74.6242 34.5477L74.1923 34.8873C73.94 34.5525 73.6877 34.3245 73.4063 34.1013L73.7751 33.7908H72.7125V33.3444H75.842V32.9077H73.45C73.0764 32.9077 72.989 32.7379 72.989 32.4759V30.6564H76.8027ZM79.3548 31.7287V35.0571H78.8599V32.636C78.6756 32.8931 78.5931 32.9708 78.4815 33.0775L78.2825 32.4371C78.8842 31.7626 79.1171 31.0106 79.1996 30.5108L79.6993 30.5836C79.612 31.0931 79.5004 31.389 79.3548 31.7287ZM80.8444 31.8354H79.6265V31.3405H80.9754V30.5205H81.4849V31.3405H82.8822V31.8354H81.6256C82.0186 32.7621 82.5669 33.3686 82.955 33.6792L82.693 34.2129C81.9312 33.4705 81.6401 32.8495 81.4849 32.4807V33.7811H82.203V34.2517H81.4849V35.0571H80.9754V34.2517H80.267V33.7811H80.9754V32.4807C80.6988 33.1066 80.432 33.6015 79.7236 34.2614L79.4422 33.7422C80.2913 33.0872 80.7085 32.1508 80.8444 31.8354Z" fill="#EEEEEE"/>
</g>
<defs>
<linearGradient id="paint0_linear_588_11" x1="0" y1="0" x2="45" y2="45" gradientUnits="userSpaceOnUse">
<stop stop-color="#215FA8"/>
<stop offset="1" stop-color="#0B4874"/>
</linearGradient>
<linearGradient id="paint1_linear_588_11" x1="0" y1="0" x2="150" y2="150" gradientUnits="userSpaceOnUse">
<stop stop-color="#1B559C"/>
<stop offset="0.5" stop-color="#255FA6"/>
<stop offset="1" stop-color="#14437C"/>
</linearGradient>
<linearGradient id="paint2_linear_588_11" x1="98" y1="86.7752" x2="98" y2="109.968" gradientUnits="userSpaceOnUse">
<stop stop-color="#0D30A3" stop-opacity="0.2"/>
<stop offset="1" stop-color="#0D30A3" stop-opacity="0.05"/>
</linearGradient>
<linearGradient id="paint3_linear_588_11" x1="98" y1="86.7752" x2="98" y2="109.968" gradientUnits="userSpaceOnUse">
<stop stop-color="#0D30A3" stop-opacity="0.2"/>
<stop offset="1" stop-color="#0D30A3" stop-opacity="0.05"/>
</linearGradient>
<linearGradient id="paint4_linear_588_11" x1="98" y1="86.7752" x2="98" y2="109.968" gradientUnits="userSpaceOnUse">
<stop stop-color="#0D30A3" stop-opacity="0.2"/>
<stop offset="1" stop-color="#0D30A3" stop-opacity="0.05"/>
</linearGradient>
<linearGradient id="paint5_linear_588_11" x1="98" y1="86.7752" x2="98" y2="109.968" gradientUnits="userSpaceOnUse">
<stop stop-color="#0D30A3" stop-opacity="0.2"/>
<stop offset="1" stop-color="#0D30A3" stop-opacity="0.05"/>
</linearGradient>
<linearGradient id="paint6_linear_588_11" x1="98" y1="86.7752" x2="98" y2="109.968" gradientUnits="userSpaceOnUse">
<stop stop-color="#0D30A3" stop-opacity="0.2"/>
<stop offset="1" stop-color="#0D30A3" stop-opacity="0.05"/>
</linearGradient>
<linearGradient id="paint7_linear_588_11" x1="98" y1="86.7752" x2="98" y2="109.968" gradientUnits="userSpaceOnUse">
<stop stop-color="#0D30A3" stop-opacity="0.2"/>
<stop offset="1" stop-color="#0D30A3" stop-opacity="0.05"/>
</linearGradient>
<clipPath id="clip0_588_11">
<rect width="195" height="195" fill="white"/>
</clipPath>
</defs>
</svg>
