<svg width="20" height="1080" viewBox="0 0 20 1080" fill="none" xmlns="http://www.w3.org/2000/svg">
<path d="M0 1050H19V1051H0V1050Z" fill="url(#paint0_linear_26_495)"/>
<path d="M0 990H19V991H0V990Z" fill="url(#paint1_linear_26_495)"/>
<path d="M0 930H19V931H0V930Z" fill="url(#paint2_linear_26_495)"/>
<path d="M0 870H19V871H0V870Z" fill="url(#paint3_linear_26_495)"/>
<path d="M0 810H19V811H0V810Z" fill="url(#paint4_linear_26_495)"/>
<path d="M0 750H19V751H0V750Z" fill="url(#paint5_linear_26_495)"/>
<path d="M0 690H19V691H0V690Z" fill="url(#paint6_linear_26_495)"/>
<path d="M0 630H19V631H0V630Z" fill="url(#paint7_linear_26_495)"/>
<path d="M0 570H19V571H0V570Z" fill="url(#paint8_linear_26_495)"/>
<path d="M0 510H19V511H0V510Z" fill="url(#paint9_linear_26_495)"/>
<path d="M0 450H19V451H0V450Z" fill="url(#paint10_linear_26_495)"/>
<path d="M0 390H19V391H0V390Z" fill="url(#paint11_linear_26_495)"/>
<path d="M0 330H19V331H0V330Z" fill="url(#paint12_linear_26_495)"/>
<path d="M0 270H19V271H0V270Z" fill="url(#paint13_linear_26_495)"/>
<path d="M0 210H19V211H0V210Z" fill="url(#paint14_linear_26_495)"/>
<path d="M0 150H19V151H0V150Z" fill="url(#paint15_linear_26_495)"/>
<path d="M0 90H19V91H0V90Z" fill="url(#paint16_linear_26_495)"/>
<path d="M0 30H19V31H0V30Z" fill="url(#paint17_linear_26_495)"/>
<path d="M0 1020H19V1021H0V1020Z" fill="url(#paint18_linear_26_495)"/>
<path d="M0 960H19V961H0V960Z" fill="url(#paint19_linear_26_495)"/>
<path d="M0 900H19V901H0V900Z" fill="url(#paint20_linear_26_495)"/>
<path d="M0 840H19V841H0V840Z" fill="url(#paint21_linear_26_495)"/>
<path d="M0 780H19V781H0V780Z" fill="url(#paint22_linear_26_495)"/>
<path d="M0 720H19V721H0V720Z" fill="url(#paint23_linear_26_495)"/>
<path d="M0 660H19V661H0V660Z" fill="url(#paint24_linear_26_495)"/>
<path d="M0 600H19V601H0V600Z" fill="url(#paint25_linear_26_495)"/>
<path d="M0 540H19V541H0V540Z" fill="url(#paint26_linear_26_495)"/>
<path d="M0 480H19V481H0V480Z" fill="url(#paint27_linear_26_495)"/>
<path d="M0 420H19V421H0V420Z" fill="url(#paint28_linear_26_495)"/>
<path d="M0 360H19V361H0V360Z" fill="url(#paint29_linear_26_495)"/>
<path d="M0 300H19V301H0V300Z" fill="url(#paint30_linear_26_495)"/>
<path d="M0 240H19V241H0V240Z" fill="url(#paint31_linear_26_495)"/>
<path d="M0 180H19V181H0V180Z" fill="url(#paint32_linear_26_495)"/>
<path d="M0 120H19V121H0V120Z" fill="url(#paint33_linear_26_495)"/>
<path d="M0 60H19V61H0V60Z" fill="url(#paint34_linear_26_495)"/>
<path d="M0 0H19V1H0V0Z" fill="url(#paint35_linear_26_495)"/>
<path d="M0 1060H19V1061H0V1060Z" fill="url(#paint36_linear_26_495)"/>
<path d="M0 1000H19V1001H0V1000Z" fill="url(#paint37_linear_26_495)"/>
<path d="M0 940H19V941H0V940Z" fill="url(#paint38_linear_26_495)"/>
<path d="M0 880H19V881H0V880Z" fill="url(#paint39_linear_26_495)"/>
<path d="M0 820H19V821H0V820Z" fill="url(#paint40_linear_26_495)"/>
<path d="M0 760H19V761H0V760Z" fill="url(#paint41_linear_26_495)"/>
<path d="M0 700H19V701H0V700Z" fill="url(#paint42_linear_26_495)"/>
<path d="M0 640H19V641H0V640Z" fill="url(#paint43_linear_26_495)"/>
<path d="M0 580H19V581H0V580Z" fill="url(#paint44_linear_26_495)"/>
<path d="M0 520H19V521H0V520Z" fill="url(#paint45_linear_26_495)"/>
<path d="M0 460H19V461H0V460Z" fill="url(#paint46_linear_26_495)"/>
<path d="M0 400H19V401H0V400Z" fill="url(#paint47_linear_26_495)"/>
<path d="M0 340H19V341H0V340Z" fill="url(#paint48_linear_26_495)"/>
<path d="M0 280H19V281H0V280Z" fill="url(#paint49_linear_26_495)"/>
<path d="M0 220H19V221H0V220Z" fill="url(#paint50_linear_26_495)"/>
<path d="M0 160H19V161H0V160Z" fill="url(#paint51_linear_26_495)"/>
<path d="M0 100H19V101H0V100Z" fill="url(#paint52_linear_26_495)"/>
<path d="M0 40H19V41H0V40Z" fill="url(#paint53_linear_26_495)"/>
<path d="M0 1030H19V1031H0V1030Z" fill="url(#paint54_linear_26_495)"/>
<path d="M0 970H19V971H0V970Z" fill="url(#paint55_linear_26_495)"/>
<path d="M0 910H19V911H0V910Z" fill="url(#paint56_linear_26_495)"/>
<path d="M0 850H19V851H0V850Z" fill="url(#paint57_linear_26_495)"/>
<path d="M0 790H19V791H0V790Z" fill="url(#paint58_linear_26_495)"/>
<path d="M0 730H19V731H0V730Z" fill="url(#paint59_linear_26_495)"/>
<path d="M0 670H19V671H0V670Z" fill="url(#paint60_linear_26_495)"/>
<path d="M0 610H19V611H0V610Z" fill="url(#paint61_linear_26_495)"/>
<path d="M0 550H19V551H0V550Z" fill="url(#paint62_linear_26_495)"/>
<path d="M0 490H19V491H0V490Z" fill="url(#paint63_linear_26_495)"/>
<path d="M0 430H19V431H0V430Z" fill="url(#paint64_linear_26_495)"/>
<path d="M0 370H19V371H0V370Z" fill="url(#paint65_linear_26_495)"/>
<path d="M0 310H19V311H0V310Z" fill="url(#paint66_linear_26_495)"/>
<path d="M0 250H19V251H0V250Z" fill="url(#paint67_linear_26_495)"/>
<path d="M0 190H19V191H0V190Z" fill="url(#paint68_linear_26_495)"/>
<path d="M0 130H19V131H0V130Z" fill="url(#paint69_linear_26_495)"/>
<path d="M0 70H19V71H0V70Z" fill="url(#paint70_linear_26_495)"/>
<path d="M0 10H19V11H0V10Z" fill="url(#paint71_linear_26_495)"/>
<path d="M0 1070H19V1071H0V1070Z" fill="url(#paint72_linear_26_495)"/>
<path d="M0 1010H19V1011H0V1010Z" fill="url(#paint73_linear_26_495)"/>
<path d="M0 950H19V951H0V950Z" fill="url(#paint74_linear_26_495)"/>
<path d="M0 890H19V891H0V890Z" fill="url(#paint75_linear_26_495)"/>
<path d="M0 830H19V831H0V830Z" fill="url(#paint76_linear_26_495)"/>
<path d="M0 770H19V771H0V770Z" fill="url(#paint77_linear_26_495)"/>
<path d="M0 710H19V711H0V710Z" fill="url(#paint78_linear_26_495)"/>
<path d="M0 650H19V651H0V650Z" fill="url(#paint79_linear_26_495)"/>
<path d="M0 590H19V591H0V590Z" fill="url(#paint80_linear_26_495)"/>
<path d="M0 530H19V531H0V530Z" fill="url(#paint81_linear_26_495)"/>
<path d="M0 470H19V471H0V470Z" fill="url(#paint82_linear_26_495)"/>
<path d="M0 410H19V411H0V410Z" fill="url(#paint83_linear_26_495)"/>
<path d="M0 350H19V351H0V350Z" fill="url(#paint84_linear_26_495)"/>
<path d="M0 290H19V291H0V290Z" fill="url(#paint85_linear_26_495)"/>
<path d="M0 230H19V231H0V230Z" fill="url(#paint86_linear_26_495)"/>
<path d="M0 170H19V171H0V170Z" fill="url(#paint87_linear_26_495)"/>
<path d="M0 110H19V111H0V110Z" fill="url(#paint88_linear_26_495)"/>
<path d="M0 50H19V51H0V50Z" fill="url(#paint89_linear_26_495)"/>
<path d="M0 1040H19V1041H0V1040Z" fill="url(#paint90_linear_26_495)"/>
<path d="M0 980H19V981H0V980Z" fill="url(#paint91_linear_26_495)"/>
<path d="M0 920H19V921H0V920Z" fill="url(#paint92_linear_26_495)"/>
<path d="M0 860H19V861H0V860Z" fill="url(#paint93_linear_26_495)"/>
<path d="M0 800H19V801H0V800Z" fill="url(#paint94_linear_26_495)"/>
<path d="M0 740H19V741H0V740Z" fill="url(#paint95_linear_26_495)"/>
<path d="M0 680H19V681H0V680Z" fill="url(#paint96_linear_26_495)"/>
<path d="M0 620H19V621H0V620Z" fill="url(#paint97_linear_26_495)"/>
<path d="M0 560H19V561H0V560Z" fill="url(#paint98_linear_26_495)"/>
<path d="M0 500H19V501H0V500Z" fill="url(#paint99_linear_26_495)"/>
<path d="M0 440H19V441H0V440Z" fill="url(#paint100_linear_26_495)"/>
<path d="M0 380H19V381H0V380Z" fill="url(#paint101_linear_26_495)"/>
<path d="M0 320H19V321H0V320Z" fill="url(#paint102_linear_26_495)"/>
<path d="M0 260H19V261H0V260Z" fill="url(#paint103_linear_26_495)"/>
<path d="M0 200H19V201H0V200Z" fill="url(#paint104_linear_26_495)"/>
<path d="M0 140H19V141H0V140Z" fill="url(#paint105_linear_26_495)"/>
<path d="M0 80H19V81H0V80Z" fill="url(#paint106_linear_26_495)"/>
<path d="M0 20H19V21H0V20Z" fill="url(#paint107_linear_26_495)"/>
<path d="M19 1050H20V1080H19V1050Z" fill="url(#paint108_linear_26_495)"/>
<path d="M19 990H20V1020H19V990Z" fill="url(#paint109_linear_26_495)"/>
<path d="M19 930H20V960H19V930Z" fill="url(#paint110_linear_26_495)"/>
<path d="M19 870H20V900H19V870Z" fill="url(#paint111_linear_26_495)"/>
<path d="M19 810H20V840H19V810Z" fill="url(#paint112_linear_26_495)"/>
<path d="M19 750H20V780H19V750Z" fill="url(#paint113_linear_26_495)"/>
<path d="M19 690H20V720H19V690Z" fill="url(#paint114_linear_26_495)"/>
<path d="M19 630H20V660H19V630Z" fill="url(#paint115_linear_26_495)"/>
<path d="M19 570H20V600H19V570Z" fill="url(#paint116_linear_26_495)"/>
<path d="M19 510H20V540H19V510Z" fill="url(#paint117_linear_26_495)"/>
<path d="M19 450H20V480H19V450Z" fill="url(#paint118_linear_26_495)"/>
<path d="M19 390H20V420H19V390Z" fill="url(#paint119_linear_26_495)"/>
<path d="M19 330H20V360H19V330Z" fill="url(#paint120_linear_26_495)"/>
<path d="M19 270H20V300H19V270Z" fill="url(#paint121_linear_26_495)"/>
<path d="M19 210H20V240H19V210Z" fill="url(#paint122_linear_26_495)"/>
<path d="M19 150H20V180H19V150Z" fill="url(#paint123_linear_26_495)"/>
<path d="M19 90H20V120H19V90Z" fill="url(#paint124_linear_26_495)"/>
<path d="M19 30H20V60H19V30Z" fill="url(#paint125_linear_26_495)"/>
<path d="M19 1020H20V1050H19V1020Z" fill="url(#paint126_linear_26_495)"/>
<path d="M19 960H20V990H19V960Z" fill="url(#paint127_linear_26_495)"/>
<path d="M19 900H20V930H19V900Z" fill="url(#paint128_linear_26_495)"/>
<path d="M19 840H20V870H19V840Z" fill="url(#paint129_linear_26_495)"/>
<path d="M19 780H20V810H19V780Z" fill="url(#paint130_linear_26_495)"/>
<path d="M19 720H20V750H19V720Z" fill="url(#paint131_linear_26_495)"/>
<path d="M19 660H20V690H19V660Z" fill="url(#paint132_linear_26_495)"/>
<path d="M19 600H20V630H19V600Z" fill="url(#paint133_linear_26_495)"/>
<path d="M19 540H20V570H19V540Z" fill="url(#paint134_linear_26_495)"/>
<path d="M19 480H20V510H19V480Z" fill="url(#paint135_linear_26_495)"/>
<path d="M19 420H20V450H19V420Z" fill="url(#paint136_linear_26_495)"/>
<path d="M19 360H20V390H19V360Z" fill="url(#paint137_linear_26_495)"/>
<path d="M19 300H20V330H19V300Z" fill="url(#paint138_linear_26_495)"/>
<path d="M19 240H20V270H19V240Z" fill="url(#paint139_linear_26_495)"/>
<path d="M19 180H20V210H19V180Z" fill="url(#paint140_linear_26_495)"/>
<path d="M19 120H20V150H19V120Z" fill="url(#paint141_linear_26_495)"/>
<path d="M19 60H20V90H19V60Z" fill="url(#paint142_linear_26_495)"/>
<path d="M19 0H20V30H19V0Z" fill="url(#paint143_linear_26_495)"/>
<path d="M9 1050H10V1080H9V1050Z" fill="url(#paint144_linear_26_495)"/>
<path d="M9 990H10V1020H9V990Z" fill="url(#paint145_linear_26_495)"/>
<path d="M9 930H10V960H9V930Z" fill="url(#paint146_linear_26_495)"/>
<path d="M9 870H10V900H9V870Z" fill="url(#paint147_linear_26_495)"/>
<path d="M9 810H10V840H9V810Z" fill="url(#paint148_linear_26_495)"/>
<path d="M9 750H10V780H9V750Z" fill="url(#paint149_linear_26_495)"/>
<path d="M9 690H10V720H9V690Z" fill="url(#paint150_linear_26_495)"/>
<path d="M9 630H10V660H9V630Z" fill="url(#paint151_linear_26_495)"/>
<path d="M9 570H10V600H9V570Z" fill="url(#paint152_linear_26_495)"/>
<path d="M9 510H10V540H9V510Z" fill="url(#paint153_linear_26_495)"/>
<path d="M9 450H10V480H9V450Z" fill="url(#paint154_linear_26_495)"/>
<path d="M9 390H10V420H9V390Z" fill="url(#paint155_linear_26_495)"/>
<path d="M9 330H10V360H9V330Z" fill="url(#paint156_linear_26_495)"/>
<path d="M9 270H10V300H9V270Z" fill="url(#paint157_linear_26_495)"/>
<path d="M9 210H10V240H9V210Z" fill="url(#paint158_linear_26_495)"/>
<path d="M9 150H10V180H9V150Z" fill="url(#paint159_linear_26_495)"/>
<path d="M9 90H10V120H9V90Z" fill="url(#paint160_linear_26_495)"/>
<path d="M9 30H10V60H9V30Z" fill="url(#paint161_linear_26_495)"/>
<path d="M9 1020H10V1050H9V1020Z" fill="url(#paint162_linear_26_495)"/>
<path d="M9 960H10V990H9V960Z" fill="url(#paint163_linear_26_495)"/>
<path d="M9 900H10V930H9V900Z" fill="url(#paint164_linear_26_495)"/>
<path d="M9 840H10V870H9V840Z" fill="url(#paint165_linear_26_495)"/>
<path d="M9 780H10V810H9V780Z" fill="url(#paint166_linear_26_495)"/>
<path d="M9 720H10V750H9V720Z" fill="url(#paint167_linear_26_495)"/>
<path d="M9 660H10V690H9V660Z" fill="url(#paint168_linear_26_495)"/>
<path d="M9 600H10V630H9V600Z" fill="url(#paint169_linear_26_495)"/>
<path d="M9 540H10V570H9V540Z" fill="url(#paint170_linear_26_495)"/>
<path d="M9 480H10V510H9V480Z" fill="url(#paint171_linear_26_495)"/>
<path d="M9 420H10V450H9V420Z" fill="url(#paint172_linear_26_495)"/>
<path d="M9 360H10V390H9V360Z" fill="url(#paint173_linear_26_495)"/>
<path d="M9 300H10V330H9V300Z" fill="url(#paint174_linear_26_495)"/>
<path d="M9 240H10V270H9V240Z" fill="url(#paint175_linear_26_495)"/>
<path d="M9 180H10V210H9V180Z" fill="url(#paint176_linear_26_495)"/>
<path d="M9 120H10V150H9V120Z" fill="url(#paint177_linear_26_495)"/>
<path d="M9 60H10V90H9V60Z" fill="url(#paint178_linear_26_495)"/>
<path d="M9 0H10V30H9V0Z" fill="url(#paint179_linear_26_495)"/>
<defs>
<linearGradient id="paint0_linear_26_495" x1="10" y1="1080" x2="10" y2="288" gradientUnits="userSpaceOnUse">
<stop stop-color="#ECECEC"/>
<stop offset="1" stop-color="#FBFBFB"/>
</linearGradient>
<linearGradient id="paint1_linear_26_495" x1="10" y1="1080" x2="10" y2="288" gradientUnits="userSpaceOnUse">
<stop stop-color="#ECECEC"/>
<stop offset="1" stop-color="#FBFBFB"/>
</linearGradient>
<linearGradient id="paint2_linear_26_495" x1="10" y1="1080" x2="10" y2="288" gradientUnits="userSpaceOnUse">
<stop stop-color="#ECECEC"/>
<stop offset="1" stop-color="#FBFBFB"/>
</linearGradient>
<linearGradient id="paint3_linear_26_495" x1="10" y1="1080" x2="10" y2="288" gradientUnits="userSpaceOnUse">
<stop stop-color="#ECECEC"/>
<stop offset="1" stop-color="#FBFBFB"/>
</linearGradient>
<linearGradient id="paint4_linear_26_495" x1="10" y1="1080" x2="10" y2="288" gradientUnits="userSpaceOnUse">
<stop stop-color="#ECECEC"/>
<stop offset="1" stop-color="#FBFBFB"/>
</linearGradient>
<linearGradient id="paint5_linear_26_495" x1="10" y1="1080" x2="10" y2="288" gradientUnits="userSpaceOnUse">
<stop stop-color="#ECECEC"/>
<stop offset="1" stop-color="#FBFBFB"/>
</linearGradient>
<linearGradient id="paint6_linear_26_495" x1="10" y1="1080" x2="10" y2="288" gradientUnits="userSpaceOnUse">
<stop stop-color="#ECECEC"/>
<stop offset="1" stop-color="#FBFBFB"/>
</linearGradient>
<linearGradient id="paint7_linear_26_495" x1="10" y1="1080" x2="10" y2="288" gradientUnits="userSpaceOnUse">
<stop stop-color="#ECECEC"/>
<stop offset="1" stop-color="#FBFBFB"/>
</linearGradient>
<linearGradient id="paint8_linear_26_495" x1="10" y1="1080" x2="10" y2="288" gradientUnits="userSpaceOnUse">
<stop stop-color="#ECECEC"/>
<stop offset="1" stop-color="#FBFBFB"/>
</linearGradient>
<linearGradient id="paint9_linear_26_495" x1="10" y1="1080" x2="10" y2="288" gradientUnits="userSpaceOnUse">
<stop stop-color="#ECECEC"/>
<stop offset="1" stop-color="#FBFBFB"/>
</linearGradient>
<linearGradient id="paint10_linear_26_495" x1="10" y1="1080" x2="10" y2="288" gradientUnits="userSpaceOnUse">
<stop stop-color="#ECECEC"/>
<stop offset="1" stop-color="#FBFBFB"/>
</linearGradient>
<linearGradient id="paint11_linear_26_495" x1="10" y1="1080" x2="10" y2="288" gradientUnits="userSpaceOnUse">
<stop stop-color="#ECECEC"/>
<stop offset="1" stop-color="#FBFBFB"/>
</linearGradient>
<linearGradient id="paint12_linear_26_495" x1="10" y1="1080" x2="10" y2="288" gradientUnits="userSpaceOnUse">
<stop stop-color="#ECECEC"/>
<stop offset="1" stop-color="#FBFBFB"/>
</linearGradient>
<linearGradient id="paint13_linear_26_495" x1="10" y1="1080" x2="10" y2="288" gradientUnits="userSpaceOnUse">
<stop stop-color="#ECECEC"/>
<stop offset="1" stop-color="#FBFBFB"/>
</linearGradient>
<linearGradient id="paint14_linear_26_495" x1="10" y1="1080" x2="10" y2="288" gradientUnits="userSpaceOnUse">
<stop stop-color="#ECECEC"/>
<stop offset="1" stop-color="#FBFBFB"/>
</linearGradient>
<linearGradient id="paint15_linear_26_495" x1="10" y1="1080" x2="10" y2="288" gradientUnits="userSpaceOnUse">
<stop stop-color="#ECECEC"/>
<stop offset="1" stop-color="#FBFBFB"/>
</linearGradient>
<linearGradient id="paint16_linear_26_495" x1="10" y1="1080" x2="10" y2="288" gradientUnits="userSpaceOnUse">
<stop stop-color="#ECECEC"/>
<stop offset="1" stop-color="#FBFBFB"/>
</linearGradient>
<linearGradient id="paint17_linear_26_495" x1="10" y1="1080" x2="10" y2="288" gradientUnits="userSpaceOnUse">
<stop stop-color="#ECECEC"/>
<stop offset="1" stop-color="#FBFBFB"/>
</linearGradient>
<linearGradient id="paint18_linear_26_495" x1="10" y1="1080" x2="10" y2="288" gradientUnits="userSpaceOnUse">
<stop stop-color="#ECECEC"/>
<stop offset="1" stop-color="#FBFBFB"/>
</linearGradient>
<linearGradient id="paint19_linear_26_495" x1="10" y1="1080" x2="10" y2="288" gradientUnits="userSpaceOnUse">
<stop stop-color="#ECECEC"/>
<stop offset="1" stop-color="#FBFBFB"/>
</linearGradient>
<linearGradient id="paint20_linear_26_495" x1="10" y1="1080" x2="10" y2="288" gradientUnits="userSpaceOnUse">
<stop stop-color="#ECECEC"/>
<stop offset="1" stop-color="#FBFBFB"/>
</linearGradient>
<linearGradient id="paint21_linear_26_495" x1="10" y1="1080" x2="10" y2="288" gradientUnits="userSpaceOnUse">
<stop stop-color="#ECECEC"/>
<stop offset="1" stop-color="#FBFBFB"/>
</linearGradient>
<linearGradient id="paint22_linear_26_495" x1="10" y1="1080" x2="10" y2="288" gradientUnits="userSpaceOnUse">
<stop stop-color="#ECECEC"/>
<stop offset="1" stop-color="#FBFBFB"/>
</linearGradient>
<linearGradient id="paint23_linear_26_495" x1="10" y1="1080" x2="10" y2="288" gradientUnits="userSpaceOnUse">
<stop stop-color="#ECECEC"/>
<stop offset="1" stop-color="#FBFBFB"/>
</linearGradient>
<linearGradient id="paint24_linear_26_495" x1="10" y1="1080" x2="10" y2="288" gradientUnits="userSpaceOnUse">
<stop stop-color="#ECECEC"/>
<stop offset="1" stop-color="#FBFBFB"/>
</linearGradient>
<linearGradient id="paint25_linear_26_495" x1="10" y1="1080" x2="10" y2="288" gradientUnits="userSpaceOnUse">
<stop stop-color="#ECECEC"/>
<stop offset="1" stop-color="#FBFBFB"/>
</linearGradient>
<linearGradient id="paint26_linear_26_495" x1="10" y1="1080" x2="10" y2="288" gradientUnits="userSpaceOnUse">
<stop stop-color="#ECECEC"/>
<stop offset="1" stop-color="#FBFBFB"/>
</linearGradient>
<linearGradient id="paint27_linear_26_495" x1="10" y1="1080" x2="10" y2="288" gradientUnits="userSpaceOnUse">
<stop stop-color="#ECECEC"/>
<stop offset="1" stop-color="#FBFBFB"/>
</linearGradient>
<linearGradient id="paint28_linear_26_495" x1="10" y1="1080" x2="10" y2="288" gradientUnits="userSpaceOnUse">
<stop stop-color="#ECECEC"/>
<stop offset="1" stop-color="#FBFBFB"/>
</linearGradient>
<linearGradient id="paint29_linear_26_495" x1="10" y1="1080" x2="10" y2="288" gradientUnits="userSpaceOnUse">
<stop stop-color="#ECECEC"/>
<stop offset="1" stop-color="#FBFBFB"/>
</linearGradient>
<linearGradient id="paint30_linear_26_495" x1="10" y1="1080" x2="10" y2="288" gradientUnits="userSpaceOnUse">
<stop stop-color="#ECECEC"/>
<stop offset="1" stop-color="#FBFBFB"/>
</linearGradient>
<linearGradient id="paint31_linear_26_495" x1="10" y1="1080" x2="10" y2="288" gradientUnits="userSpaceOnUse">
<stop stop-color="#ECECEC"/>
<stop offset="1" stop-color="#FBFBFB"/>
</linearGradient>
<linearGradient id="paint32_linear_26_495" x1="10" y1="1080" x2="10" y2="288" gradientUnits="userSpaceOnUse">
<stop stop-color="#ECECEC"/>
<stop offset="1" stop-color="#FBFBFB"/>
</linearGradient>
<linearGradient id="paint33_linear_26_495" x1="10" y1="1080" x2="10" y2="288" gradientUnits="userSpaceOnUse">
<stop stop-color="#ECECEC"/>
<stop offset="1" stop-color="#FBFBFB"/>
</linearGradient>
<linearGradient id="paint34_linear_26_495" x1="10" y1="1080" x2="10" y2="288" gradientUnits="userSpaceOnUse">
<stop stop-color="#ECECEC"/>
<stop offset="1" stop-color="#FBFBFB"/>
</linearGradient>
<linearGradient id="paint35_linear_26_495" x1="10" y1="1080" x2="10" y2="288" gradientUnits="userSpaceOnUse">
<stop stop-color="#ECECEC"/>
<stop offset="1" stop-color="#FBFBFB"/>
</linearGradient>
<linearGradient id="paint36_linear_26_495" x1="10" y1="1080" x2="10" y2="288" gradientUnits="userSpaceOnUse">
<stop stop-color="#ECECEC"/>
<stop offset="1" stop-color="#FBFBFB"/>
</linearGradient>
<linearGradient id="paint37_linear_26_495" x1="10" y1="1080" x2="10" y2="288" gradientUnits="userSpaceOnUse">
<stop stop-color="#ECECEC"/>
<stop offset="1" stop-color="#FBFBFB"/>
</linearGradient>
<linearGradient id="paint38_linear_26_495" x1="10" y1="1080" x2="10" y2="288" gradientUnits="userSpaceOnUse">
<stop stop-color="#ECECEC"/>
<stop offset="1" stop-color="#FBFBFB"/>
</linearGradient>
<linearGradient id="paint39_linear_26_495" x1="10" y1="1080" x2="10" y2="288" gradientUnits="userSpaceOnUse">
<stop stop-color="#ECECEC"/>
<stop offset="1" stop-color="#FBFBFB"/>
</linearGradient>
<linearGradient id="paint40_linear_26_495" x1="10" y1="1080" x2="10" y2="288" gradientUnits="userSpaceOnUse">
<stop stop-color="#ECECEC"/>
<stop offset="1" stop-color="#FBFBFB"/>
</linearGradient>
<linearGradient id="paint41_linear_26_495" x1="10" y1="1080" x2="10" y2="288" gradientUnits="userSpaceOnUse">
<stop stop-color="#ECECEC"/>
<stop offset="1" stop-color="#FBFBFB"/>
</linearGradient>
<linearGradient id="paint42_linear_26_495" x1="10" y1="1080" x2="10" y2="288" gradientUnits="userSpaceOnUse">
<stop stop-color="#ECECEC"/>
<stop offset="1" stop-color="#FBFBFB"/>
</linearGradient>
<linearGradient id="paint43_linear_26_495" x1="10" y1="1080" x2="10" y2="288" gradientUnits="userSpaceOnUse">
<stop stop-color="#ECECEC"/>
<stop offset="1" stop-color="#FBFBFB"/>
</linearGradient>
<linearGradient id="paint44_linear_26_495" x1="10" y1="1080" x2="10" y2="288" gradientUnits="userSpaceOnUse">
<stop stop-color="#ECECEC"/>
<stop offset="1" stop-color="#FBFBFB"/>
</linearGradient>
<linearGradient id="paint45_linear_26_495" x1="10" y1="1080" x2="10" y2="288" gradientUnits="userSpaceOnUse">
<stop stop-color="#ECECEC"/>
<stop offset="1" stop-color="#FBFBFB"/>
</linearGradient>
<linearGradient id="paint46_linear_26_495" x1="10" y1="1080" x2="10" y2="288" gradientUnits="userSpaceOnUse">
<stop stop-color="#ECECEC"/>
<stop offset="1" stop-color="#FBFBFB"/>
</linearGradient>
<linearGradient id="paint47_linear_26_495" x1="10" y1="1080" x2="10" y2="288" gradientUnits="userSpaceOnUse">
<stop stop-color="#ECECEC"/>
<stop offset="1" stop-color="#FBFBFB"/>
</linearGradient>
<linearGradient id="paint48_linear_26_495" x1="10" y1="1080" x2="10" y2="288" gradientUnits="userSpaceOnUse">
<stop stop-color="#ECECEC"/>
<stop offset="1" stop-color="#FBFBFB"/>
</linearGradient>
<linearGradient id="paint49_linear_26_495" x1="10" y1="1080" x2="10" y2="288" gradientUnits="userSpaceOnUse">
<stop stop-color="#ECECEC"/>
<stop offset="1" stop-color="#FBFBFB"/>
</linearGradient>
<linearGradient id="paint50_linear_26_495" x1="10" y1="1080" x2="10" y2="288" gradientUnits="userSpaceOnUse">
<stop stop-color="#ECECEC"/>
<stop offset="1" stop-color="#FBFBFB"/>
</linearGradient>
<linearGradient id="paint51_linear_26_495" x1="10" y1="1080" x2="10" y2="288" gradientUnits="userSpaceOnUse">
<stop stop-color="#ECECEC"/>
<stop offset="1" stop-color="#FBFBFB"/>
</linearGradient>
<linearGradient id="paint52_linear_26_495" x1="10" y1="1080" x2="10" y2="288" gradientUnits="userSpaceOnUse">
<stop stop-color="#ECECEC"/>
<stop offset="1" stop-color="#FBFBFB"/>
</linearGradient>
<linearGradient id="paint53_linear_26_495" x1="10" y1="1080" x2="10" y2="288" gradientUnits="userSpaceOnUse">
<stop stop-color="#ECECEC"/>
<stop offset="1" stop-color="#FBFBFB"/>
</linearGradient>
<linearGradient id="paint54_linear_26_495" x1="10" y1="1080" x2="10" y2="288" gradientUnits="userSpaceOnUse">
<stop stop-color="#ECECEC"/>
<stop offset="1" stop-color="#FBFBFB"/>
</linearGradient>
<linearGradient id="paint55_linear_26_495" x1="10" y1="1080" x2="10" y2="288" gradientUnits="userSpaceOnUse">
<stop stop-color="#ECECEC"/>
<stop offset="1" stop-color="#FBFBFB"/>
</linearGradient>
<linearGradient id="paint56_linear_26_495" x1="10" y1="1080" x2="10" y2="288" gradientUnits="userSpaceOnUse">
<stop stop-color="#ECECEC"/>
<stop offset="1" stop-color="#FBFBFB"/>
</linearGradient>
<linearGradient id="paint57_linear_26_495" x1="10" y1="1080" x2="10" y2="288" gradientUnits="userSpaceOnUse">
<stop stop-color="#ECECEC"/>
<stop offset="1" stop-color="#FBFBFB"/>
</linearGradient>
<linearGradient id="paint58_linear_26_495" x1="10" y1="1080" x2="10" y2="288" gradientUnits="userSpaceOnUse">
<stop stop-color="#ECECEC"/>
<stop offset="1" stop-color="#FBFBFB"/>
</linearGradient>
<linearGradient id="paint59_linear_26_495" x1="10" y1="1080" x2="10" y2="288" gradientUnits="userSpaceOnUse">
<stop stop-color="#ECECEC"/>
<stop offset="1" stop-color="#FBFBFB"/>
</linearGradient>
<linearGradient id="paint60_linear_26_495" x1="10" y1="1080" x2="10" y2="288" gradientUnits="userSpaceOnUse">
<stop stop-color="#ECECEC"/>
<stop offset="1" stop-color="#FBFBFB"/>
</linearGradient>
<linearGradient id="paint61_linear_26_495" x1="10" y1="1080" x2="10" y2="288" gradientUnits="userSpaceOnUse">
<stop stop-color="#ECECEC"/>
<stop offset="1" stop-color="#FBFBFB"/>
</linearGradient>
<linearGradient id="paint62_linear_26_495" x1="10" y1="1080" x2="10" y2="288" gradientUnits="userSpaceOnUse">
<stop stop-color="#ECECEC"/>
<stop offset="1" stop-color="#FBFBFB"/>
</linearGradient>
<linearGradient id="paint63_linear_26_495" x1="10" y1="1080" x2="10" y2="288" gradientUnits="userSpaceOnUse">
<stop stop-color="#ECECEC"/>
<stop offset="1" stop-color="#FBFBFB"/>
</linearGradient>
<linearGradient id="paint64_linear_26_495" x1="10" y1="1080" x2="10" y2="288" gradientUnits="userSpaceOnUse">
<stop stop-color="#ECECEC"/>
<stop offset="1" stop-color="#FBFBFB"/>
</linearGradient>
<linearGradient id="paint65_linear_26_495" x1="10" y1="1080" x2="10" y2="288" gradientUnits="userSpaceOnUse">
<stop stop-color="#ECECEC"/>
<stop offset="1" stop-color="#FBFBFB"/>
</linearGradient>
<linearGradient id="paint66_linear_26_495" x1="10" y1="1080" x2="10" y2="288" gradientUnits="userSpaceOnUse">
<stop stop-color="#ECECEC"/>
<stop offset="1" stop-color="#FBFBFB"/>
</linearGradient>
<linearGradient id="paint67_linear_26_495" x1="10" y1="1080" x2="10" y2="288" gradientUnits="userSpaceOnUse">
<stop stop-color="#ECECEC"/>
<stop offset="1" stop-color="#FBFBFB"/>
</linearGradient>
<linearGradient id="paint68_linear_26_495" x1="10" y1="1080" x2="10" y2="288" gradientUnits="userSpaceOnUse">
<stop stop-color="#ECECEC"/>
<stop offset="1" stop-color="#FBFBFB"/>
</linearGradient>
<linearGradient id="paint69_linear_26_495" x1="10" y1="1080" x2="10" y2="288" gradientUnits="userSpaceOnUse">
<stop stop-color="#ECECEC"/>
<stop offset="1" stop-color="#FBFBFB"/>
</linearGradient>
<linearGradient id="paint70_linear_26_495" x1="10" y1="1080" x2="10" y2="288" gradientUnits="userSpaceOnUse">
<stop stop-color="#ECECEC"/>
<stop offset="1" stop-color="#FBFBFB"/>
</linearGradient>
<linearGradient id="paint71_linear_26_495" x1="10" y1="1080" x2="10" y2="288" gradientUnits="userSpaceOnUse">
<stop stop-color="#ECECEC"/>
<stop offset="1" stop-color="#FBFBFB"/>
</linearGradient>
<linearGradient id="paint72_linear_26_495" x1="10" y1="1080" x2="10" y2="288" gradientUnits="userSpaceOnUse">
<stop stop-color="#ECECEC"/>
<stop offset="1" stop-color="#FBFBFB"/>
</linearGradient>
<linearGradient id="paint73_linear_26_495" x1="10" y1="1080" x2="10" y2="288" gradientUnits="userSpaceOnUse">
<stop stop-color="#ECECEC"/>
<stop offset="1" stop-color="#FBFBFB"/>
</linearGradient>
<linearGradient id="paint74_linear_26_495" x1="10" y1="1080" x2="10" y2="288" gradientUnits="userSpaceOnUse">
<stop stop-color="#ECECEC"/>
<stop offset="1" stop-color="#FBFBFB"/>
</linearGradient>
<linearGradient id="paint75_linear_26_495" x1="10" y1="1080" x2="10" y2="288" gradientUnits="userSpaceOnUse">
<stop stop-color="#ECECEC"/>
<stop offset="1" stop-color="#FBFBFB"/>
</linearGradient>
<linearGradient id="paint76_linear_26_495" x1="10" y1="1080" x2="10" y2="288" gradientUnits="userSpaceOnUse">
<stop stop-color="#ECECEC"/>
<stop offset="1" stop-color="#FBFBFB"/>
</linearGradient>
<linearGradient id="paint77_linear_26_495" x1="10" y1="1080" x2="10" y2="288" gradientUnits="userSpaceOnUse">
<stop stop-color="#ECECEC"/>
<stop offset="1" stop-color="#FBFBFB"/>
</linearGradient>
<linearGradient id="paint78_linear_26_495" x1="10" y1="1080" x2="10" y2="288" gradientUnits="userSpaceOnUse">
<stop stop-color="#ECECEC"/>
<stop offset="1" stop-color="#FBFBFB"/>
</linearGradient>
<linearGradient id="paint79_linear_26_495" x1="10" y1="1080" x2="10" y2="288" gradientUnits="userSpaceOnUse">
<stop stop-color="#ECECEC"/>
<stop offset="1" stop-color="#FBFBFB"/>
</linearGradient>
<linearGradient id="paint80_linear_26_495" x1="10" y1="1080" x2="10" y2="288" gradientUnits="userSpaceOnUse">
<stop stop-color="#ECECEC"/>
<stop offset="1" stop-color="#FBFBFB"/>
</linearGradient>
<linearGradient id="paint81_linear_26_495" x1="10" y1="1080" x2="10" y2="288" gradientUnits="userSpaceOnUse">
<stop stop-color="#ECECEC"/>
<stop offset="1" stop-color="#FBFBFB"/>
</linearGradient>
<linearGradient id="paint82_linear_26_495" x1="10" y1="1080" x2="10" y2="288" gradientUnits="userSpaceOnUse">
<stop stop-color="#ECECEC"/>
<stop offset="1" stop-color="#FBFBFB"/>
</linearGradient>
<linearGradient id="paint83_linear_26_495" x1="10" y1="1080" x2="10" y2="288" gradientUnits="userSpaceOnUse">
<stop stop-color="#ECECEC"/>
<stop offset="1" stop-color="#FBFBFB"/>
</linearGradient>
<linearGradient id="paint84_linear_26_495" x1="10" y1="1080" x2="10" y2="288" gradientUnits="userSpaceOnUse">
<stop stop-color="#ECECEC"/>
<stop offset="1" stop-color="#FBFBFB"/>
</linearGradient>
<linearGradient id="paint85_linear_26_495" x1="10" y1="1080" x2="10" y2="288" gradientUnits="userSpaceOnUse">
<stop stop-color="#ECECEC"/>
<stop offset="1" stop-color="#FBFBFB"/>
</linearGradient>
<linearGradient id="paint86_linear_26_495" x1="10" y1="1080" x2="10" y2="288" gradientUnits="userSpaceOnUse">
<stop stop-color="#ECECEC"/>
<stop offset="1" stop-color="#FBFBFB"/>
</linearGradient>
<linearGradient id="paint87_linear_26_495" x1="10" y1="1080" x2="10" y2="288" gradientUnits="userSpaceOnUse">
<stop stop-color="#ECECEC"/>
<stop offset="1" stop-color="#FBFBFB"/>
</linearGradient>
<linearGradient id="paint88_linear_26_495" x1="10" y1="1080" x2="10" y2="288" gradientUnits="userSpaceOnUse">
<stop stop-color="#ECECEC"/>
<stop offset="1" stop-color="#FBFBFB"/>
</linearGradient>
<linearGradient id="paint89_linear_26_495" x1="10" y1="1080" x2="10" y2="288" gradientUnits="userSpaceOnUse">
<stop stop-color="#ECECEC"/>
<stop offset="1" stop-color="#FBFBFB"/>
</linearGradient>
<linearGradient id="paint90_linear_26_495" x1="10" y1="1080" x2="10" y2="288" gradientUnits="userSpaceOnUse">
<stop stop-color="#ECECEC"/>
<stop offset="1" stop-color="#FBFBFB"/>
</linearGradient>
<linearGradient id="paint91_linear_26_495" x1="10" y1="1080" x2="10" y2="288" gradientUnits="userSpaceOnUse">
<stop stop-color="#ECECEC"/>
<stop offset="1" stop-color="#FBFBFB"/>
</linearGradient>
<linearGradient id="paint92_linear_26_495" x1="10" y1="1080" x2="10" y2="288" gradientUnits="userSpaceOnUse">
<stop stop-color="#ECECEC"/>
<stop offset="1" stop-color="#FBFBFB"/>
</linearGradient>
<linearGradient id="paint93_linear_26_495" x1="10" y1="1080" x2="10" y2="288" gradientUnits="userSpaceOnUse">
<stop stop-color="#ECECEC"/>
<stop offset="1" stop-color="#FBFBFB"/>
</linearGradient>
<linearGradient id="paint94_linear_26_495" x1="10" y1="1080" x2="10" y2="288" gradientUnits="userSpaceOnUse">
<stop stop-color="#ECECEC"/>
<stop offset="1" stop-color="#FBFBFB"/>
</linearGradient>
<linearGradient id="paint95_linear_26_495" x1="10" y1="1080" x2="10" y2="288" gradientUnits="userSpaceOnUse">
<stop stop-color="#ECECEC"/>
<stop offset="1" stop-color="#FBFBFB"/>
</linearGradient>
<linearGradient id="paint96_linear_26_495" x1="10" y1="1080" x2="10" y2="288" gradientUnits="userSpaceOnUse">
<stop stop-color="#ECECEC"/>
<stop offset="1" stop-color="#FBFBFB"/>
</linearGradient>
<linearGradient id="paint97_linear_26_495" x1="10" y1="1080" x2="10" y2="288" gradientUnits="userSpaceOnUse">
<stop stop-color="#ECECEC"/>
<stop offset="1" stop-color="#FBFBFB"/>
</linearGradient>
<linearGradient id="paint98_linear_26_495" x1="10" y1="1080" x2="10" y2="288" gradientUnits="userSpaceOnUse">
<stop stop-color="#ECECEC"/>
<stop offset="1" stop-color="#FBFBFB"/>
</linearGradient>
<linearGradient id="paint99_linear_26_495" x1="10" y1="1080" x2="10" y2="288" gradientUnits="userSpaceOnUse">
<stop stop-color="#ECECEC"/>
<stop offset="1" stop-color="#FBFBFB"/>
</linearGradient>
<linearGradient id="paint100_linear_26_495" x1="10" y1="1080" x2="10" y2="288" gradientUnits="userSpaceOnUse">
<stop stop-color="#ECECEC"/>
<stop offset="1" stop-color="#FBFBFB"/>
</linearGradient>
<linearGradient id="paint101_linear_26_495" x1="10" y1="1080" x2="10" y2="288" gradientUnits="userSpaceOnUse">
<stop stop-color="#ECECEC"/>
<stop offset="1" stop-color="#FBFBFB"/>
</linearGradient>
<linearGradient id="paint102_linear_26_495" x1="10" y1="1080" x2="10" y2="288" gradientUnits="userSpaceOnUse">
<stop stop-color="#ECECEC"/>
<stop offset="1" stop-color="#FBFBFB"/>
</linearGradient>
<linearGradient id="paint103_linear_26_495" x1="10" y1="1080" x2="10" y2="288" gradientUnits="userSpaceOnUse">
<stop stop-color="#ECECEC"/>
<stop offset="1" stop-color="#FBFBFB"/>
</linearGradient>
<linearGradient id="paint104_linear_26_495" x1="10" y1="1080" x2="10" y2="288" gradientUnits="userSpaceOnUse">
<stop stop-color="#ECECEC"/>
<stop offset="1" stop-color="#FBFBFB"/>
</linearGradient>
<linearGradient id="paint105_linear_26_495" x1="10" y1="1080" x2="10" y2="288" gradientUnits="userSpaceOnUse">
<stop stop-color="#ECECEC"/>
<stop offset="1" stop-color="#FBFBFB"/>
</linearGradient>
<linearGradient id="paint106_linear_26_495" x1="10" y1="1080" x2="10" y2="288" gradientUnits="userSpaceOnUse">
<stop stop-color="#ECECEC"/>
<stop offset="1" stop-color="#FBFBFB"/>
</linearGradient>
<linearGradient id="paint107_linear_26_495" x1="10" y1="1080" x2="10" y2="288" gradientUnits="userSpaceOnUse">
<stop stop-color="#ECECEC"/>
<stop offset="1" stop-color="#FBFBFB"/>
</linearGradient>
<linearGradient id="paint108_linear_26_495" x1="10" y1="1080" x2="10" y2="288" gradientUnits="userSpaceOnUse">
<stop stop-color="#ECECEC"/>
<stop offset="1" stop-color="#FBFBFB"/>
</linearGradient>
<linearGradient id="paint109_linear_26_495" x1="10" y1="1080" x2="10" y2="288" gradientUnits="userSpaceOnUse">
<stop stop-color="#ECECEC"/>
<stop offset="1" stop-color="#FBFBFB"/>
</linearGradient>
<linearGradient id="paint110_linear_26_495" x1="10" y1="1080" x2="10" y2="288" gradientUnits="userSpaceOnUse">
<stop stop-color="#ECECEC"/>
<stop offset="1" stop-color="#FBFBFB"/>
</linearGradient>
<linearGradient id="paint111_linear_26_495" x1="10" y1="1080" x2="10" y2="288" gradientUnits="userSpaceOnUse">
<stop stop-color="#ECECEC"/>
<stop offset="1" stop-color="#FBFBFB"/>
</linearGradient>
<linearGradient id="paint112_linear_26_495" x1="10" y1="1080" x2="10" y2="288" gradientUnits="userSpaceOnUse">
<stop stop-color="#ECECEC"/>
<stop offset="1" stop-color="#FBFBFB"/>
</linearGradient>
<linearGradient id="paint113_linear_26_495" x1="10" y1="1080" x2="10" y2="288" gradientUnits="userSpaceOnUse">
<stop stop-color="#ECECEC"/>
<stop offset="1" stop-color="#FBFBFB"/>
</linearGradient>
<linearGradient id="paint114_linear_26_495" x1="10" y1="1080" x2="10" y2="288" gradientUnits="userSpaceOnUse">
<stop stop-color="#ECECEC"/>
<stop offset="1" stop-color="#FBFBFB"/>
</linearGradient>
<linearGradient id="paint115_linear_26_495" x1="10" y1="1080" x2="10" y2="288" gradientUnits="userSpaceOnUse">
<stop stop-color="#ECECEC"/>
<stop offset="1" stop-color="#FBFBFB"/>
</linearGradient>
<linearGradient id="paint116_linear_26_495" x1="10" y1="1080" x2="10" y2="288" gradientUnits="userSpaceOnUse">
<stop stop-color="#ECECEC"/>
<stop offset="1" stop-color="#FBFBFB"/>
</linearGradient>
<linearGradient id="paint117_linear_26_495" x1="10" y1="1080" x2="10" y2="288" gradientUnits="userSpaceOnUse">
<stop stop-color="#ECECEC"/>
<stop offset="1" stop-color="#FBFBFB"/>
</linearGradient>
<linearGradient id="paint118_linear_26_495" x1="10" y1="1080" x2="10" y2="288" gradientUnits="userSpaceOnUse">
<stop stop-color="#ECECEC"/>
<stop offset="1" stop-color="#FBFBFB"/>
</linearGradient>
<linearGradient id="paint119_linear_26_495" x1="10" y1="1080" x2="10" y2="288" gradientUnits="userSpaceOnUse">
<stop stop-color="#ECECEC"/>
<stop offset="1" stop-color="#FBFBFB"/>
</linearGradient>
<linearGradient id="paint120_linear_26_495" x1="10" y1="1080" x2="10" y2="288" gradientUnits="userSpaceOnUse">
<stop stop-color="#ECECEC"/>
<stop offset="1" stop-color="#FBFBFB"/>
</linearGradient>
<linearGradient id="paint121_linear_26_495" x1="10" y1="1080" x2="10" y2="288" gradientUnits="userSpaceOnUse">
<stop stop-color="#ECECEC"/>
<stop offset="1" stop-color="#FBFBFB"/>
</linearGradient>
<linearGradient id="paint122_linear_26_495" x1="10" y1="1080" x2="10" y2="288" gradientUnits="userSpaceOnUse">
<stop stop-color="#ECECEC"/>
<stop offset="1" stop-color="#FBFBFB"/>
</linearGradient>
<linearGradient id="paint123_linear_26_495" x1="10" y1="1080" x2="10" y2="288" gradientUnits="userSpaceOnUse">
<stop stop-color="#ECECEC"/>
<stop offset="1" stop-color="#FBFBFB"/>
</linearGradient>
<linearGradient id="paint124_linear_26_495" x1="10" y1="1080" x2="10" y2="288" gradientUnits="userSpaceOnUse">
<stop stop-color="#ECECEC"/>
<stop offset="1" stop-color="#FBFBFB"/>
</linearGradient>
<linearGradient id="paint125_linear_26_495" x1="10" y1="1080" x2="10" y2="288" gradientUnits="userSpaceOnUse">
<stop stop-color="#ECECEC"/>
<stop offset="1" stop-color="#FBFBFB"/>
</linearGradient>
<linearGradient id="paint126_linear_26_495" x1="10" y1="1080" x2="10" y2="288" gradientUnits="userSpaceOnUse">
<stop stop-color="#ECECEC"/>
<stop offset="1" stop-color="#FBFBFB"/>
</linearGradient>
<linearGradient id="paint127_linear_26_495" x1="10" y1="1080" x2="10" y2="288" gradientUnits="userSpaceOnUse">
<stop stop-color="#ECECEC"/>
<stop offset="1" stop-color="#FBFBFB"/>
</linearGradient>
<linearGradient id="paint128_linear_26_495" x1="10" y1="1080" x2="10" y2="288" gradientUnits="userSpaceOnUse">
<stop stop-color="#ECECEC"/>
<stop offset="1" stop-color="#FBFBFB"/>
</linearGradient>
<linearGradient id="paint129_linear_26_495" x1="10" y1="1080" x2="10" y2="288" gradientUnits="userSpaceOnUse">
<stop stop-color="#ECECEC"/>
<stop offset="1" stop-color="#FBFBFB"/>
</linearGradient>
<linearGradient id="paint130_linear_26_495" x1="10" y1="1080" x2="10" y2="288" gradientUnits="userSpaceOnUse">
<stop stop-color="#ECECEC"/>
<stop offset="1" stop-color="#FBFBFB"/>
</linearGradient>
<linearGradient id="paint131_linear_26_495" x1="10" y1="1080" x2="10" y2="288" gradientUnits="userSpaceOnUse">
<stop stop-color="#ECECEC"/>
<stop offset="1" stop-color="#FBFBFB"/>
</linearGradient>
<linearGradient id="paint132_linear_26_495" x1="10" y1="1080" x2="10" y2="288" gradientUnits="userSpaceOnUse">
<stop stop-color="#ECECEC"/>
<stop offset="1" stop-color="#FBFBFB"/>
</linearGradient>
<linearGradient id="paint133_linear_26_495" x1="10" y1="1080" x2="10" y2="288" gradientUnits="userSpaceOnUse">
<stop stop-color="#ECECEC"/>
<stop offset="1" stop-color="#FBFBFB"/>
</linearGradient>
<linearGradient id="paint134_linear_26_495" x1="10" y1="1080" x2="10" y2="288" gradientUnits="userSpaceOnUse">
<stop stop-color="#ECECEC"/>
<stop offset="1" stop-color="#FBFBFB"/>
</linearGradient>
<linearGradient id="paint135_linear_26_495" x1="10" y1="1080" x2="10" y2="288" gradientUnits="userSpaceOnUse">
<stop stop-color="#ECECEC"/>
<stop offset="1" stop-color="#FBFBFB"/>
</linearGradient>
<linearGradient id="paint136_linear_26_495" x1="10" y1="1080" x2="10" y2="288" gradientUnits="userSpaceOnUse">
<stop stop-color="#ECECEC"/>
<stop offset="1" stop-color="#FBFBFB"/>
</linearGradient>
<linearGradient id="paint137_linear_26_495" x1="10" y1="1080" x2="10" y2="288" gradientUnits="userSpaceOnUse">
<stop stop-color="#ECECEC"/>
<stop offset="1" stop-color="#FBFBFB"/>
</linearGradient>
<linearGradient id="paint138_linear_26_495" x1="10" y1="1080" x2="10" y2="288" gradientUnits="userSpaceOnUse">
<stop stop-color="#ECECEC"/>
<stop offset="1" stop-color="#FBFBFB"/>
</linearGradient>
<linearGradient id="paint139_linear_26_495" x1="10" y1="1080" x2="10" y2="288" gradientUnits="userSpaceOnUse">
<stop stop-color="#ECECEC"/>
<stop offset="1" stop-color="#FBFBFB"/>
</linearGradient>
<linearGradient id="paint140_linear_26_495" x1="10" y1="1080" x2="10" y2="288" gradientUnits="userSpaceOnUse">
<stop stop-color="#ECECEC"/>
<stop offset="1" stop-color="#FBFBFB"/>
</linearGradient>
<linearGradient id="paint141_linear_26_495" x1="10" y1="1080" x2="10" y2="288" gradientUnits="userSpaceOnUse">
<stop stop-color="#ECECEC"/>
<stop offset="1" stop-color="#FBFBFB"/>
</linearGradient>
<linearGradient id="paint142_linear_26_495" x1="10" y1="1080" x2="10" y2="288" gradientUnits="userSpaceOnUse">
<stop stop-color="#ECECEC"/>
<stop offset="1" stop-color="#FBFBFB"/>
</linearGradient>
<linearGradient id="paint143_linear_26_495" x1="10" y1="1080" x2="10" y2="288" gradientUnits="userSpaceOnUse">
<stop stop-color="#ECECEC"/>
<stop offset="1" stop-color="#FBFBFB"/>
</linearGradient>
<linearGradient id="paint144_linear_26_495" x1="10" y1="1080" x2="10" y2="288" gradientUnits="userSpaceOnUse">
<stop stop-color="#ECECEC"/>
<stop offset="1" stop-color="#FBFBFB"/>
</linearGradient>
<linearGradient id="paint145_linear_26_495" x1="10" y1="1080" x2="10" y2="288" gradientUnits="userSpaceOnUse">
<stop stop-color="#ECECEC"/>
<stop offset="1" stop-color="#FBFBFB"/>
</linearGradient>
<linearGradient id="paint146_linear_26_495" x1="10" y1="1080" x2="10" y2="288" gradientUnits="userSpaceOnUse">
<stop stop-color="#ECECEC"/>
<stop offset="1" stop-color="#FBFBFB"/>
</linearGradient>
<linearGradient id="paint147_linear_26_495" x1="10" y1="1080" x2="10" y2="288" gradientUnits="userSpaceOnUse">
<stop stop-color="#ECECEC"/>
<stop offset="1" stop-color="#FBFBFB"/>
</linearGradient>
<linearGradient id="paint148_linear_26_495" x1="10" y1="1080" x2="10" y2="288" gradientUnits="userSpaceOnUse">
<stop stop-color="#ECECEC"/>
<stop offset="1" stop-color="#FBFBFB"/>
</linearGradient>
<linearGradient id="paint149_linear_26_495" x1="10" y1="1080" x2="10" y2="288" gradientUnits="userSpaceOnUse">
<stop stop-color="#ECECEC"/>
<stop offset="1" stop-color="#FBFBFB"/>
</linearGradient>
<linearGradient id="paint150_linear_26_495" x1="10" y1="1080" x2="10" y2="288" gradientUnits="userSpaceOnUse">
<stop stop-color="#ECECEC"/>
<stop offset="1" stop-color="#FBFBFB"/>
</linearGradient>
<linearGradient id="paint151_linear_26_495" x1="10" y1="1080" x2="10" y2="288" gradientUnits="userSpaceOnUse">
<stop stop-color="#ECECEC"/>
<stop offset="1" stop-color="#FBFBFB"/>
</linearGradient>
<linearGradient id="paint152_linear_26_495" x1="10" y1="1080" x2="10" y2="288" gradientUnits="userSpaceOnUse">
<stop stop-color="#ECECEC"/>
<stop offset="1" stop-color="#FBFBFB"/>
</linearGradient>
<linearGradient id="paint153_linear_26_495" x1="10" y1="1080" x2="10" y2="288" gradientUnits="userSpaceOnUse">
<stop stop-color="#ECECEC"/>
<stop offset="1" stop-color="#FBFBFB"/>
</linearGradient>
<linearGradient id="paint154_linear_26_495" x1="10" y1="1080" x2="10" y2="288" gradientUnits="userSpaceOnUse">
<stop stop-color="#ECECEC"/>
<stop offset="1" stop-color="#FBFBFB"/>
</linearGradient>
<linearGradient id="paint155_linear_26_495" x1="10" y1="1080" x2="10" y2="288" gradientUnits="userSpaceOnUse">
<stop stop-color="#ECECEC"/>
<stop offset="1" stop-color="#FBFBFB"/>
</linearGradient>
<linearGradient id="paint156_linear_26_495" x1="10" y1="1080" x2="10" y2="288" gradientUnits="userSpaceOnUse">
<stop stop-color="#ECECEC"/>
<stop offset="1" stop-color="#FBFBFB"/>
</linearGradient>
<linearGradient id="paint157_linear_26_495" x1="10" y1="1080" x2="10" y2="288" gradientUnits="userSpaceOnUse">
<stop stop-color="#ECECEC"/>
<stop offset="1" stop-color="#FBFBFB"/>
</linearGradient>
<linearGradient id="paint158_linear_26_495" x1="10" y1="1080" x2="10" y2="288" gradientUnits="userSpaceOnUse">
<stop stop-color="#ECECEC"/>
<stop offset="1" stop-color="#FBFBFB"/>
</linearGradient>
<linearGradient id="paint159_linear_26_495" x1="10" y1="1080" x2="10" y2="288" gradientUnits="userSpaceOnUse">
<stop stop-color="#ECECEC"/>
<stop offset="1" stop-color="#FBFBFB"/>
</linearGradient>
<linearGradient id="paint160_linear_26_495" x1="10" y1="1080" x2="10" y2="288" gradientUnits="userSpaceOnUse">
<stop stop-color="#ECECEC"/>
<stop offset="1" stop-color="#FBFBFB"/>
</linearGradient>
<linearGradient id="paint161_linear_26_495" x1="10" y1="1080" x2="10" y2="288" gradientUnits="userSpaceOnUse">
<stop stop-color="#ECECEC"/>
<stop offset="1" stop-color="#FBFBFB"/>
</linearGradient>
<linearGradient id="paint162_linear_26_495" x1="10" y1="1080" x2="10" y2="288" gradientUnits="userSpaceOnUse">
<stop stop-color="#ECECEC"/>
<stop offset="1" stop-color="#FBFBFB"/>
</linearGradient>
<linearGradient id="paint163_linear_26_495" x1="10" y1="1080" x2="10" y2="288" gradientUnits="userSpaceOnUse">
<stop stop-color="#ECECEC"/>
<stop offset="1" stop-color="#FBFBFB"/>
</linearGradient>
<linearGradient id="paint164_linear_26_495" x1="10" y1="1080" x2="10" y2="288" gradientUnits="userSpaceOnUse">
<stop stop-color="#ECECEC"/>
<stop offset="1" stop-color="#FBFBFB"/>
</linearGradient>
<linearGradient id="paint165_linear_26_495" x1="10" y1="1080" x2="10" y2="288" gradientUnits="userSpaceOnUse">
<stop stop-color="#ECECEC"/>
<stop offset="1" stop-color="#FBFBFB"/>
</linearGradient>
<linearGradient id="paint166_linear_26_495" x1="10" y1="1080" x2="10" y2="288" gradientUnits="userSpaceOnUse">
<stop stop-color="#ECECEC"/>
<stop offset="1" stop-color="#FBFBFB"/>
</linearGradient>
<linearGradient id="paint167_linear_26_495" x1="10" y1="1080" x2="10" y2="288" gradientUnits="userSpaceOnUse">
<stop stop-color="#ECECEC"/>
<stop offset="1" stop-color="#FBFBFB"/>
</linearGradient>
<linearGradient id="paint168_linear_26_495" x1="10" y1="1080" x2="10" y2="288" gradientUnits="userSpaceOnUse">
<stop stop-color="#ECECEC"/>
<stop offset="1" stop-color="#FBFBFB"/>
</linearGradient>
<linearGradient id="paint169_linear_26_495" x1="10" y1="1080" x2="10" y2="288" gradientUnits="userSpaceOnUse">
<stop stop-color="#ECECEC"/>
<stop offset="1" stop-color="#FBFBFB"/>
</linearGradient>
<linearGradient id="paint170_linear_26_495" x1="10" y1="1080" x2="10" y2="288" gradientUnits="userSpaceOnUse">
<stop stop-color="#ECECEC"/>
<stop offset="1" stop-color="#FBFBFB"/>
</linearGradient>
<linearGradient id="paint171_linear_26_495" x1="10" y1="1080" x2="10" y2="288" gradientUnits="userSpaceOnUse">
<stop stop-color="#ECECEC"/>
<stop offset="1" stop-color="#FBFBFB"/>
</linearGradient>
<linearGradient id="paint172_linear_26_495" x1="10" y1="1080" x2="10" y2="288" gradientUnits="userSpaceOnUse">
<stop stop-color="#ECECEC"/>
<stop offset="1" stop-color="#FBFBFB"/>
</linearGradient>
<linearGradient id="paint173_linear_26_495" x1="10" y1="1080" x2="10" y2="288" gradientUnits="userSpaceOnUse">
<stop stop-color="#ECECEC"/>
<stop offset="1" stop-color="#FBFBFB"/>
</linearGradient>
<linearGradient id="paint174_linear_26_495" x1="10" y1="1080" x2="10" y2="288" gradientUnits="userSpaceOnUse">
<stop stop-color="#ECECEC"/>
<stop offset="1" stop-color="#FBFBFB"/>
</linearGradient>
<linearGradient id="paint175_linear_26_495" x1="10" y1="1080" x2="10" y2="288" gradientUnits="userSpaceOnUse">
<stop stop-color="#ECECEC"/>
<stop offset="1" stop-color="#FBFBFB"/>
</linearGradient>
<linearGradient id="paint176_linear_26_495" x1="10" y1="1080" x2="10" y2="288" gradientUnits="userSpaceOnUse">
<stop stop-color="#ECECEC"/>
<stop offset="1" stop-color="#FBFBFB"/>
</linearGradient>
<linearGradient id="paint177_linear_26_495" x1="10" y1="1080" x2="10" y2="288" gradientUnits="userSpaceOnUse">
<stop stop-color="#ECECEC"/>
<stop offset="1" stop-color="#FBFBFB"/>
</linearGradient>
<linearGradient id="paint178_linear_26_495" x1="10" y1="1080" x2="10" y2="288" gradientUnits="userSpaceOnUse">
<stop stop-color="#ECECEC"/>
<stop offset="1" stop-color="#FBFBFB"/>
</linearGradient>
<linearGradient id="paint179_linear_26_495" x1="10" y1="1080" x2="10" y2="288" gradientUnits="userSpaceOnUse">
<stop stop-color="#ECECEC"/>
<stop offset="1" stop-color="#FBFBFB"/>
</linearGradient>
</defs>
</svg>
