<svg width="26" height="394" viewBox="0 0 26 394" fill="none" xmlns="http://www.w3.org/2000/svg">
<path d="M22.724 0.54V1.728L23.9 1.728V1.212H24.092C24.584 1.212 24.86 1.356 24.896 1.644L24.908 1.728H25.544L25.532 1.608C25.46 0.9 24.956 0.54 24.008 0.54H22.724ZM24.908 3.384L25.544 3.384L25.532 3.264C25.46 2.556 24.956 2.196 24.008 2.196H22.724V3.384H23.9V2.868H24.092C24.584 2.868 24.86 3.012 24.896 3.3L24.908 3.384ZM21.872 10.4778V5.71378H25.544V4.70578L17 4.70578V5.71378H20.936V10.4778H17V11.4858H25.544V10.4778H21.872ZM17 20.4415L25.544 16.9855V15.8575L17 12.4495V13.5055L19.484 14.4895V18.3775L17 19.3735V20.4415ZM20.492 14.8855C21.788 15.4015 23.108 15.9055 24.452 16.4095C22.772 17.0695 21.452 17.5855 20.504 17.9695L20.396 18.0175V14.8495L20.492 14.8855ZM16.808 24.2782C16.808 25.2262 17.096 26.0422 17.672 26.7502C18.236 27.4582 19.052 27.8542 20.108 27.9622V26.9542C19.328 26.8462 18.74 26.5462 18.344 26.0302C17.936 25.5142 17.732 24.9382 17.732 24.2782C17.732 22.2382 19.448 21.3862 21.272 21.3862C23.108 21.3862 24.812 22.2262 24.812 24.2782C24.812 25.5382 24.2 26.5222 22.796 26.8942V27.9142C24.764 27.4942 25.736 26.0662 25.736 24.2782C25.736 21.6862 23.696 20.3302 21.272 20.3302C18.848 20.3302 16.808 21.6862 16.808 24.2782ZM21.872 34.8762V30.1122H25.544V29.1042H17V30.1122H20.936V34.8762H17V35.8842H25.544V34.8762H21.872ZM17 38.456H25.544V37.448H17V38.456ZM19.472 46.2904C20.36 46.2304 20.924 45.8464 21.152 45.1144C21.428 45.9664 22.148 46.5184 23.216 46.5184C24.704 46.5184 25.544 45.3544 25.544 43.6264V40.0144H17V41.0224H20.648L20.648 43.8064C20.648 44.8504 20.216 45.2824 19.052 45.3304L18.14 45.3664C17.624 45.3784 17.252 45.4744 17 45.6424V46.6864C17.264 46.5064 17.624 46.4104 18.092 46.3744L19.472 46.2904ZM21.56 41.0224H24.632V43.6264C24.632 44.7784 24.152 45.4744 23.156 45.4744C22.112 45.4744 21.56 44.7904 21.56 43.7464V41.0224ZM21.272 55.5962C23.792 55.5962 25.736 54.1442 25.736 51.5042C25.736 48.8762 23.78 47.4122 21.272 47.4122C18.776 47.4122 16.808 48.8882 16.808 51.5042C16.808 54.1322 18.764 55.5962 21.272 55.5962ZM21.272 48.4682C23.168 48.4682 24.812 49.4402 24.812 51.5042C24.812 53.5682 23.168 54.5402 21.272 54.5402C19.376 54.5402 17.732 53.5682 17.732 51.5042C17.732 49.4402 19.376 48.4682 21.272 48.4682ZM25.544 56.7956H17V57.8036H19.844L21.392 59.4236L17 62.5676V63.8036L22.064 60.1556L25.544 63.8036V62.4716L21.056 57.8036H25.544V56.7956ZM20.168 70.8253H25.544V69.8173H20.168C18.548 69.8173 17.732 69.0373 17.732 67.4653C17.732 65.8933 18.548 65.1133 20.168 65.1133H25.544V64.1053H20.168C18.02 64.1053 16.82 65.3293 16.82 67.4653C16.82 69.6013 18.02 70.8253 20.168 70.8253ZM16.808 77.6815C16.808 79.6975 17.78 80.8855 19.316 80.8855C20.576 80.8855 21.332 80.1415 21.752 78.2215L21.92 77.4655C22.124 76.5655 22.376 75.4615 23.504 75.4615C24.32 75.4615 24.824 76.1215 24.824 77.3335C24.824 78.9535 24.248 79.5415 23.06 79.6375L23.06 80.6695C24.452 80.6335 25.736 79.8415 25.736 77.3335C25.736 75.5575 24.86 74.4175 23.504 74.4175C22.064 74.4175 21.404 75.3655 21.032 77.0095L20.864 77.7655C20.528 79.2895 20.132 79.8415 19.316 79.8415C18.272 79.8415 17.72 79.0615 17.72 77.6815C17.72 76.0375 18.416 75.1975 19.82 75.1735V74.1295C17.768 74.1415 16.808 75.5215 16.808 77.6815ZM25.544 80.8298H24.632V83.7338H17V84.7778H24.632V87.6818H25.544L25.544 80.8298ZM20.168 95.0714H25.544V94.0634H20.168C18.548 94.0634 17.732 93.2834 17.732 91.7114C17.732 90.1394 18.548 89.3594 20.168 89.3594H25.544V88.3514H20.168C18.02 88.3514 16.82 89.5754 16.82 91.7114C16.82 93.8474 18.02 95.0714 20.168 95.0714ZM25.544 96.5105H17V99.3905C17 102.042 18.656 103.578 21.272 103.578C23.912 103.578 25.544 102.054 25.544 99.3905V96.5105ZM17.912 97.5185H24.632V99.3905C24.632 101.418 23.372 102.522 21.272 102.522C19.172 102.522 17.912 101.418 17.912 99.3905V97.5185ZM17 105.792H25.544V104.784H17V105.792ZM21.272 115.174C23.792 115.174 25.736 113.722 25.736 111.082C25.736 108.454 23.78 106.99 21.272 106.99C18.776 106.99 16.808 108.466 16.808 111.082C16.808 113.71 18.764 115.174 21.272 115.174ZM21.272 108.046C23.168 108.046 24.812 109.018 24.812 111.082C24.812 113.146 23.168 114.118 21.272 114.118C19.376 114.118 17.732 113.146 17.732 111.082C17.732 109.018 19.376 108.046 21.272 108.046ZM24.368 116.415H24.176C23.684 116.415 23.408 116.271 23.372 115.983L23.36 115.899H22.724L22.736 116.019C22.808 116.727 23.312 117.087 24.26 117.087H25.544V115.899H24.368V116.415ZM24.368 117.555V118.071H24.176C23.684 118.071 23.408 117.927 23.372 117.639L23.36 117.555H22.724L22.736 117.675C22.808 118.383 23.312 118.743 24.26 118.743H25.544V117.555H24.368ZM24.128 123.274H25.304V122.254H24.128V123.274ZM17 123.25H23.192V122.29H17V123.25ZM16.856 126.877C16.856 128.413 17.54 129.337 18.704 129.337C19.712 129.337 20.228 128.725 20.528 127.201L20.636 126.649C20.816 125.785 21.032 125.401 21.596 125.401C22.172 125.401 22.508 125.869 22.508 126.697C22.508 127.705 22.196 128.209 21.284 128.257V129.217C22.616 129.181 23.336 128.341 23.336 126.697C23.336 125.293 22.652 124.441 21.584 124.441C20.612 124.441 20 125.089 19.76 126.373L19.652 126.949C19.448 128.017 19.208 128.365 18.644 128.365C18.008 128.365 17.684 127.873 17.684 126.877C17.684 125.785 18.044 125.329 18.968 125.221V124.249C17.564 124.345 16.856 125.221 16.856 126.877ZM17.78 137.643C17.78 137.415 17.876 137.307 18.08 137.307H21.536C22.736 137.307 23.336 136.527 23.336 134.979C23.336 133.383 22.652 132.543 21.284 132.459V133.419C22.196 133.479 22.508 133.911 22.508 134.979C22.508 135.999 22.208 136.371 21.536 136.371C21.044 136.371 20.756 136.047 20.684 135.399L20.588 134.511C20.432 132.987 19.784 132.219 18.668 132.219C17.516 132.219 16.856 133.047 16.856 134.403C16.856 135.315 17.192 135.987 17.852 136.419C17.264 136.467 16.964 136.815 16.964 137.463C16.964 137.655 16.976 137.835 17 137.991H17.78V137.643ZM17.672 134.451C17.672 133.623 18.056 133.215 18.692 133.215C19.328 133.215 19.676 133.587 19.808 134.655L19.916 135.555C19.952 135.915 20.036 136.191 20.18 136.371H19.448C18.344 136.371 17.672 135.507 17.672 134.451ZM23.336 144.158C23.336 143.234 22.964 142.526 22.232 142.034H23.192V141.122H14.648V142.082H17.888C17.204 142.574 16.856 143.258 16.856 144.158C16.856 146.066 18.308 147.038 20.096 147.038C21.896 147.038 23.336 146.078 23.336 144.158ZM17.72 144.038C17.72 142.646 18.836 142.046 20.096 142.046C21.368 142.046 22.472 142.634 22.472 144.038C22.472 145.25 21.62 146.03 20.144 146.03C18.656 146.03 17.72 145.238 17.72 144.038ZM17.78 153.124C17.78 152.896 17.876 152.788 18.08 152.788H21.536C22.736 152.788 23.336 152.008 23.336 150.46C23.336 148.864 22.652 148.024 21.284 147.94V148.9C22.196 148.96 22.508 149.392 22.508 150.46C22.508 151.48 22.208 151.852 21.536 151.852C21.044 151.852 20.756 151.528 20.684 150.88L20.588 149.992C20.432 148.468 19.784 147.7 18.668 147.7C17.516 147.7 16.856 148.528 16.856 149.884C16.856 150.796 17.192 151.468 17.852 151.9C17.264 151.948 16.964 152.296 16.964 152.944C16.964 153.136 16.976 153.316 17 153.472H17.78V153.124ZM17.672 149.932C17.672 149.104 18.056 148.696 18.692 148.696C19.328 148.696 19.676 149.068 19.808 150.136L19.916 151.036C19.952 151.396 20.036 151.672 20.18 151.852H19.448C18.344 151.852 17.672 150.988 17.672 149.932ZM23.288 157.222C23.288 156.322 22.892 155.65 22.1 155.23H23.192V154.318H17V155.278H20.528C21.716 155.278 22.352 156.046 22.352 157.306V157.546H23.276C23.288 157.462 23.288 157.354 23.288 157.222ZM20.096 163.779C21.908 163.779 23.336 162.675 23.336 160.779C23.336 158.883 21.908 157.779 20.096 157.779C18.284 157.779 16.856 158.883 16.856 160.779C16.856 162.675 18.284 163.779 20.096 163.779ZM20.096 158.787C21.368 158.787 22.472 159.375 22.472 160.779C22.472 162.183 21.368 162.771 20.096 162.771C18.836 162.771 17.72 162.171 17.72 160.779C17.72 159.387 18.836 158.787 20.096 158.787ZM22.304 169.579C22.988 169.087 23.336 168.403 23.336 167.503C23.336 165.595 21.884 164.623 20.096 164.623C18.32 164.623 16.856 165.607 16.856 167.503C16.856 168.427 17.228 169.135 17.96 169.627H17V170.539H25.544V169.579H22.304ZM20.048 165.631C21.536 165.631 22.472 166.423 22.472 167.623C22.472 168.835 21.584 169.615 20.096 169.615C18.836 169.615 17.72 169.015 17.72 167.623C17.72 166.243 18.776 165.631 20.048 165.631ZM20.624 174.909C19.652 174.573 18.752 174.273 17.936 174.021C19.124 173.637 20.012 173.337 20.612 173.133L23.192 172.257V171.201L16.796 173.529L16.22 173.313C15.704 173.109 15.452 172.737 15.452 172.185V171.621H14.648C14.624 171.825 14.612 172.017 14.612 172.197C14.612 173.217 14.972 173.829 16.028 174.213L23.192 176.829V175.785L20.624 174.909ZM20.096 185.588C21.908 185.588 23.336 184.484 23.336 182.588C23.336 180.692 21.908 179.588 20.096 179.588C18.284 179.588 16.856 180.692 16.856 182.588C16.856 184.484 18.284 185.588 20.096 185.588ZM20.096 180.596C21.368 180.596 22.472 181.184 22.472 182.588C22.472 183.992 21.368 184.58 20.096 184.58C18.836 184.58 17.72 183.98 17.72 182.588C17.72 181.196 18.836 180.596 20.096 180.596ZM24.728 189.317H25.544C25.556 189.125 25.568 188.921 25.568 188.705C25.568 187.553 24.992 186.977 23.828 186.977H23.192V185.957H22.352V186.977H17V187.937H22.352V189.257H23.192V187.937H23.852C24.44 187.937 24.728 188.213 24.728 188.765V189.317ZM17.78 197.69C17.78 197.462 17.876 197.354 18.08 197.354H21.536C22.736 197.354 23.336 196.574 23.336 195.026C23.336 193.43 22.652 192.59 21.284 192.506V193.466C22.196 193.526 22.508 193.958 22.508 195.026C22.508 196.046 22.208 196.418 21.536 196.418C21.044 196.418 20.756 196.094 20.684 195.446L20.588 194.558C20.432 193.034 19.784 192.266 18.668 192.266C17.516 192.266 16.856 193.094 16.856 194.45C16.856 195.362 17.192 196.034 17.852 196.466C17.264 196.514 16.964 196.862 16.964 197.51C16.964 197.702 16.976 197.882 17 198.038H17.78V197.69ZM17.672 194.498C17.672 193.67 18.056 193.262 18.692 193.262C19.328 193.262 19.676 193.634 19.808 194.702L19.916 195.602C19.952 195.962 20.036 196.238 20.18 196.418H19.448C18.344 196.418 17.672 195.554 17.672 194.498ZM16.856 203.737C16.856 205.141 17.72 206.197 19.124 206.401V205.417C18.212 205.261 17.72 204.565 17.72 203.737C17.72 202.645 18.548 201.877 20.096 201.877C21.644 201.877 22.472 202.633 22.472 203.737C22.472 204.565 21.992 205.249 21.092 205.405V206.401C22.472 206.209 23.336 205.213 23.336 203.737C23.336 201.829 21.872 200.869 20.096 200.869C18.332 200.869 16.856 201.853 16.856 203.737ZM23.288 210.331C23.288 209.431 22.892 208.759 22.1 208.339H23.192V207.427H17V208.387H20.528C21.716 208.387 22.352 209.155 22.352 210.415V210.655H23.276C23.288 210.571 23.288 210.463 23.288 210.331ZM20.096 216.589C21.848 216.589 23.336 215.617 23.336 213.745C23.336 211.861 21.848 210.889 20.096 210.889C18.32 210.889 16.856 211.873 16.856 213.769C16.856 215.197 17.672 216.109 18.884 216.433V215.437C18.116 215.197 17.732 214.645 17.732 213.793C17.732 212.677 18.404 211.981 19.76 211.885V216.589H20.096ZM22.46 213.745C22.46 214.801 21.692 215.461 20.624 215.557V211.909C21.824 212.065 22.46 212.749 22.46 213.745ZM17.78 222.733C17.78 222.505 17.876 222.397 18.08 222.397H21.536C22.736 222.397 23.336 221.617 23.336 220.069C23.336 218.473 22.652 217.633 21.284 217.549V218.509C22.196 218.569 22.508 219.001 22.508 220.069C22.508 221.089 22.208 221.461 21.536 221.461C21.044 221.461 20.756 221.137 20.684 220.489L20.588 219.601C20.432 218.077 19.784 217.309 18.668 217.309C17.516 217.309 16.856 218.137 16.856 219.493C16.856 220.405 17.192 221.077 17.852 221.509C17.264 221.557 16.964 221.905 16.964 222.553C16.964 222.745 16.976 222.925 17 223.081H17.78V222.733ZM17.672 219.541C17.672 218.713 18.056 218.305 18.692 218.305C19.328 218.305 19.676 218.677 19.808 219.745L19.916 220.645C19.952 221.005 20.036 221.281 20.18 221.461H19.448C18.344 221.461 17.672 220.597 17.672 219.541ZM23.192 226.405V225.133H24.944V224.173H23.192V223.153H22.352V224.173H18.248C17.396 224.173 16.964 224.689 16.964 225.721C16.964 225.913 16.976 226.141 17 226.405H17.804V225.841C17.804 225.373 17.984 225.133 18.332 225.133H22.352V226.405H23.192ZM24.128 228.403H25.304V227.383H24.128V228.403ZM17 228.379H23.192V227.419H17V228.379ZM20.444 232.919C19.16 232.439 18.356 232.151 18.032 232.043C18.26 231.971 19.052 231.683 20.432 231.167L23.192 230.147V229.103L17 231.527V232.535L23.192 234.971V233.939L20.444 232.919ZM20.096 240.788C21.848 240.788 23.336 239.816 23.336 237.944C23.336 236.06 21.848 235.088 20.096 235.088C18.32 235.088 16.856 236.072 16.856 237.968C16.856 239.396 17.672 240.308 18.884 240.632V239.636C18.116 239.396 17.732 238.844 17.732 237.992C17.732 236.876 18.404 236.18 19.76 236.084V240.788H20.096ZM22.46 237.944C22.46 239 21.692 239.66 20.624 239.756V236.108C21.824 236.264 22.46 236.948 22.46 237.944ZM17 245.172H25.544V244.212H17V245.172ZM17.78 251.679C17.78 251.451 17.876 251.343 18.08 251.343H21.536C22.736 251.343 23.336 250.563 23.336 249.015C23.336 247.419 22.652 246.579 21.284 246.495V247.455C22.196 247.515 22.508 247.947 22.508 249.015C22.508 250.035 22.208 250.407 21.536 250.407C21.044 250.407 20.756 250.083 20.684 249.435L20.588 248.547C20.432 247.023 19.784 246.255 18.668 246.255C17.516 246.255 16.856 247.083 16.856 248.439C16.856 249.351 17.192 250.023 17.852 250.455C17.264 250.503 16.964 250.851 16.964 251.499C16.964 251.691 16.976 251.871 17 252.027H17.78V251.679ZM17.672 248.487C17.672 247.659 18.056 247.251 18.692 247.251C19.328 247.251 19.676 247.623 19.808 248.691L19.916 249.591C19.952 249.951 20.036 250.227 20.18 250.407H19.448C18.344 250.407 17.672 249.543 17.672 248.487ZM23.336 255.85C23.336 254.95 22.988 254.266 22.304 253.774H25.544V252.814H17V253.726H17.96C17.228 254.218 16.856 254.926 16.856 255.85C16.856 257.758 18.308 258.73 20.096 258.73C21.896 258.73 23.336 257.77 23.336 255.85ZM17.72 255.73C17.72 254.338 18.836 253.738 20.096 253.738C21.368 253.738 22.472 254.326 22.472 255.73C22.472 256.942 21.62 257.722 20.144 257.722C18.656 257.722 17.72 256.93 17.72 255.73ZM20.096 265.268C21.848 265.268 23.336 264.296 23.336 262.424C23.336 260.54 21.848 259.568 20.096 259.568C18.32 259.568 16.856 260.552 16.856 262.448C16.856 263.876 17.672 264.788 18.884 265.112V264.116C18.116 263.876 17.732 263.324 17.732 262.472C17.732 261.356 18.404 260.66 19.76 260.564V265.268H20.096ZM22.46 262.424C22.46 263.48 21.692 264.14 20.624 264.236V260.588C21.824 260.744 22.46 261.428 22.46 262.424ZM17 267.368H25.544V266.408H17V267.368ZM20.096 276.795C21.908 276.795 23.336 275.691 23.336 273.795C23.336 271.899 21.908 270.795 20.096 270.795C18.284 270.795 16.856 271.899 16.856 273.795C16.856 275.691 18.284 276.795 20.096 276.795ZM20.096 271.803C21.368 271.803 22.472 272.391 22.472 273.795C22.472 275.199 21.368 275.787 20.096 275.787C18.836 275.787 17.72 275.187 17.72 273.795C17.72 272.403 18.836 271.803 20.096 271.803ZM23.288 280.843C23.288 279.943 22.892 279.271 22.1 278.851H23.192V277.939H17V278.899H20.528C21.716 278.899 22.352 279.667 22.352 280.927V281.167H23.276C23.288 281.083 23.288 280.975 23.288 280.843ZM24.128 283.048H25.304V282.028H24.128V283.048ZM17 283.024H23.192V282.064H17V283.024ZM22.292 289.17C22.988 288.678 23.336 287.97 23.336 287.046C23.336 285.138 21.884 284.166 20.096 284.166C18.32 284.166 16.856 285.15 16.856 287.046C16.856 287.934 17.18 288.63 17.84 289.122H17.24C15.956 289.122 15.32 288.486 15.32 287.202C15.32 286.206 15.716 285.642 16.496 285.522V284.562C15.26 284.694 14.504 285.654 14.504 287.202C14.504 289.086 15.572 290.082 17.24 290.082H23.192V289.17H22.292ZM17.72 287.166C17.72 285.966 18.656 285.174 20.096 285.174C21.536 285.174 22.472 285.966 22.472 287.166C22.472 288.378 21.584 289.158 20.096 289.158C18.608 289.158 17.72 288.378 17.72 287.166ZM23.336 294.377C23.336 293.549 22.976 292.901 22.268 292.433H23.192V291.521H17V292.481H20.504C21.14 292.481 21.632 292.649 21.968 292.997C22.304 293.345 22.472 293.741 22.472 294.185C22.472 295.133 22.016 295.601 21.092 295.601H17V296.561H21.188C22.544 296.561 23.336 295.757 23.336 294.377ZM17.78 303.065C17.78 302.837 17.876 302.729 18.08 302.729H21.536C22.736 302.729 23.336 301.949 23.336 300.401C23.336 298.805 22.652 297.965 21.284 297.881V298.841C22.196 298.901 22.508 299.333 22.508 300.401C22.508 301.421 22.208 301.793 21.536 301.793C21.044 301.793 20.756 301.469 20.684 300.821L20.588 299.933C20.432 298.409 19.784 297.641 18.668 297.641C17.516 297.641 16.856 298.469 16.856 299.825C16.856 300.737 17.192 301.409 17.852 301.841C17.264 301.889 16.964 302.237 16.964 302.885C16.964 303.077 16.976 303.257 17 303.413H17.78V303.065ZM17.672 299.873C17.672 299.045 18.056 298.637 18.692 298.637C19.328 298.637 19.676 299.009 19.808 300.077L19.916 300.977C19.952 301.337 20.036 301.613 20.18 301.793H19.448C18.344 301.793 17.672 300.929 17.672 299.873ZM23.192 306.737V305.465H24.944V304.505H23.192V303.485H22.352V304.505H18.248C17.396 304.505 16.964 305.021 16.964 306.053C16.964 306.245 16.976 306.473 17 306.737H17.804V306.173C17.804 305.705 17.984 305.465 18.332 305.465H22.352V306.737H23.192ZM20.096 313.034C21.848 313.034 23.336 312.062 23.336 310.19C23.336 308.306 21.848 307.334 20.096 307.334C18.32 307.334 16.856 308.318 16.856 310.214C16.856 311.642 17.672 312.554 18.884 312.878V311.882C18.116 311.642 17.732 311.09 17.732 310.238C17.732 309.122 18.404 308.426 19.76 308.33V313.034H20.096ZM22.46 310.19C22.46 311.246 21.692 311.906 20.624 312.002V308.354C21.824 308.51 22.46 309.194 22.46 310.19ZM22.304 318.829C22.988 318.337 23.336 317.653 23.336 316.753C23.336 314.845 21.884 313.873 20.096 313.873C18.32 313.873 16.856 314.857 16.856 316.753C16.856 317.677 17.228 318.385 17.96 318.877H17V319.789H25.544V318.829H22.304ZM20.048 314.881C21.536 314.881 22.472 315.673 22.472 316.873C22.472 318.085 21.584 318.865 20.096 318.865C18.836 318.865 17.72 318.265 17.72 316.873C17.72 315.493 18.776 314.881 20.048 314.881ZM24.728 326.333H25.544C25.556 326.141 25.568 325.937 25.568 325.721C25.568 324.569 24.992 323.993 23.828 323.993H23.192V322.973H22.352V323.993H17V324.953H22.352V326.273H23.192V324.953H23.852C24.44 324.953 24.728 325.229 24.728 325.781V326.333ZM23.288 330.144C23.288 329.244 22.892 328.572 22.1 328.152H23.192V327.24H17V328.2H20.528C21.716 328.2 22.352 328.968 22.352 330.228V330.468H23.276C23.288 330.384 23.288 330.276 23.288 330.144ZM20.096 336.701C21.908 336.701 23.336 335.597 23.336 333.701C23.336 331.805 21.908 330.701 20.096 330.701C18.284 330.701 16.856 331.805 16.856 333.701C16.856 335.597 18.284 336.701 20.096 336.701ZM20.096 331.709C21.368 331.709 22.472 332.297 22.472 333.701C22.472 335.105 21.368 335.693 20.096 335.693C18.836 335.693 17.72 335.093 17.72 333.701C17.72 332.309 18.836 331.709 20.096 331.709ZM23.336 344.361C23.336 343.521 22.952 342.885 22.172 342.453C22.952 342.105 23.336 341.469 23.336 340.545C23.336 339.765 22.988 339.165 22.28 338.757H23.192V337.845H17V338.805H20.384C21.764 338.805 22.472 339.537 22.472 340.389C22.472 341.253 22.016 341.685 21.104 341.685H17V342.645H20.384C21.776 342.645 22.472 343.365 22.472 344.229C22.472 345.093 22.016 345.525 21.104 345.525H17V346.485H21.2C22.46 346.485 23.336 345.741 23.336 344.361ZM23.552 354.816C22.88 354.384 22.136 353.928 21.332 353.448C22.016 353.04 22.748 352.584 23.54 352.08L25.544 350.82V349.668L20.432 352.932H17V353.94H20.432L25.544 357.204V356.064L23.552 354.816ZM20.096 362.002C21.908 362.002 23.336 360.898 23.336 359.002C23.336 357.106 21.908 356.002 20.096 356.002C18.284 356.002 16.856 357.106 16.856 359.002C16.856 360.898 18.284 362.002 20.096 362.002ZM20.096 357.01C21.368 357.01 22.472 357.598 22.472 359.002C22.472 360.406 21.368 360.994 20.096 360.994C18.836 360.994 17.72 360.394 17.72 359.002C17.72 357.61 18.836 357.01 20.096 357.01ZM19.688 367.05C19.052 367.05 18.56 366.882 18.224 366.534C17.888 366.186 17.72 365.79 17.72 365.346C17.72 364.398 18.176 363.93 19.1 363.93H23.192V362.97H19.004C17.648 362.97 16.856 363.774 16.856 365.154C16.856 365.982 17.216 366.63 17.924 367.098H17V368.01H23.192V367.05H19.688ZM25.544 367.775H24.632V370.679H17V371.723H24.632V374.627H25.544V367.775ZM19.688 378.476C19.052 378.476 18.56 378.308 18.224 377.96C17.888 377.612 17.72 377.216 17.72 376.772C17.72 375.824 18.176 375.356 19.1 375.356H23.192V374.396H19.004C17.648 374.396 16.856 375.2 16.856 376.58C16.856 377.408 17.216 378.056 17.924 378.524H17V379.436H23.192V378.476H19.688ZM23.336 383.912C23.336 383.012 22.988 382.328 22.304 381.836H25.544V380.876H17V381.788H17.96C17.228 382.28 16.856 382.988 16.856 383.912C16.856 385.82 18.308 386.792 20.096 386.792C21.896 386.792 23.336 385.832 23.336 383.912ZM17.72 383.792C17.72 382.4 18.836 381.8 20.096 381.8C21.368 381.8 22.472 382.388 22.472 383.792C22.472 385.004 21.62 385.784 20.144 385.784C18.656 385.784 17.72 384.992 17.72 383.792ZM20.096 393.331C21.848 393.331 23.336 392.359 23.336 390.487C23.336 388.603 21.848 387.631 20.096 387.631C18.32 387.631 16.856 388.615 16.856 390.511C16.856 391.939 17.672 392.851 18.884 393.175V392.179C18.116 391.939 17.732 391.387 17.732 390.535C17.732 389.419 18.404 388.723 19.76 388.627L19.76 393.331H20.096ZM22.46 390.487C22.46 391.543 21.692 392.203 20.624 392.299L20.624 388.651C21.824 388.807 22.46 389.491 22.46 390.487ZM6.396 7.368C5.4 7.068 4.656 6.84 4.164 6.708C4.656 6.564 5.4 6.336 6.396 6.036L9.192 5.172V4.164L6.396 3.3C5.676 3.072 4.92 2.856 4.14 2.64C5.064 2.376 5.82 2.148 6.396 1.968L9.192 1.092V0.06L3 2.124V3.132L5.868 4.032C6.468 4.224 7.164 4.44 7.968 4.668C7.308 4.848 6.612 5.064 5.868 5.292L3 6.204V7.212L9.192 9.276V8.244L6.396 7.368ZM9.336 12.7987C9.336 12.0067 9 11.3707 8.34 10.9027H11.544V9.94266H3V10.9027H6.504C7.14 10.9027 7.632 11.0707 7.968 11.4187C8.304 11.7667 8.472 12.1627 8.472 12.6067C8.472 13.5547 8.016 14.0227 7.092 14.0227H3V14.9827H7.188C8.544 14.9827 9.336 14.1787 9.336 12.7987ZM6.096 21.8231C7.848 21.8231 9.336 20.8511 9.336 18.9791C9.336 17.0951 7.848 16.1231 6.096 16.1231C4.32 16.1231 2.856 17.1071 2.856 19.0031C2.856 20.4311 3.672 21.3431 4.884 21.6671V20.6711C4.116 20.4311 3.732 19.8791 3.732 19.0271C3.732 17.9111 4.404 17.2151 5.76 17.1191V21.8231H6.096ZM8.46 18.9791C8.46 20.0351 7.692 20.6951 6.624 20.7911V17.1431C7.824 17.2991 8.46 17.9831 8.46 18.9791ZM9.288 25.8662C9.288 24.9662 8.892 24.2942 8.1 23.8742H9.192V22.9622H3V23.9222H6.528C7.716 23.9222 8.352 24.6902 8.352 25.9502V26.1902H9.276C9.288 26.1062 9.288 25.9982 9.288 25.8662ZM6.096 32.1239C7.848 32.1239 9.336 31.1519 9.336 29.2799C9.336 27.3959 7.848 26.4239 6.096 26.4239C4.32 26.4239 2.856 27.4079 2.856 29.3039C2.856 30.7319 3.672 31.6439 4.884 31.9679V30.9719C4.116 30.7319 3.732 30.1799 3.732 29.3279C3.732 28.2119 4.404 27.5159 5.76 27.4199L5.76 32.1239H6.096ZM8.46 29.2799C8.46 30.3359 7.692 30.9959 6.624 31.0919L6.624 27.4439C7.824 27.5999 8.46 28.2839 8.46 29.2799ZM6.624 38.5961C5.652 38.2601 4.752 37.9601 3.936 37.7081C5.124 37.3241 6.012 37.0241 6.612 36.8201L9.192 35.9441V34.8881L2.796 37.2161L2.22 37.0001C1.704 36.7961 1.452 36.4241 1.452 35.8721V35.3081H0.648C0.624 35.5121 0.612 35.7041 0.612 35.8841C0.612 36.9041 0.972 37.5161 2.028 37.9001L9.192 40.5161V39.4721L6.624 38.5961ZM6.096 46.627C7.908 46.627 9.336 45.523 9.336 43.627C9.336 41.731 7.908 40.627 6.096 40.627C4.284 40.627 2.856 41.731 2.856 43.627C2.856 45.523 4.284 46.627 6.096 46.627ZM6.096 41.635C7.368 41.635 8.472 42.223 8.472 43.627C8.472 45.031 7.368 45.619 6.096 45.619C4.836 45.619 3.72 45.019 3.72 43.627C3.72 42.235 4.836 41.635 6.096 41.635ZM5.688 51.675C5.052 51.675 4.56 51.507 4.224 51.159C3.888 50.811 3.72 50.415 3.72 49.971C3.72 49.023 4.176 48.555 5.1 48.555H9.192V47.595H5.004C3.648 47.595 2.856 48.399 2.856 49.779C2.856 50.607 3.216 51.255 3.924 51.723H3V52.635H9.192V51.675H5.688ZM9.336 56.9315C9.336 56.1035 8.976 55.4555 8.268 54.9875H9.192V54.0755H3V55.0355H6.504C7.14 55.0355 7.632 55.2035 7.968 55.5515C8.304 55.8995 8.472 56.2955 8.472 56.7395C8.472 57.6875 8.016 58.1555 7.092 58.1555H3V59.1155H7.188C8.544 59.1155 9.336 58.3115 9.336 56.9315ZM8.292 65.2599C8.988 64.7679 9.336 64.0599 9.336 63.1359C9.336 61.2279 7.884 60.2559 6.096 60.2559C4.32 60.2559 2.856 61.2399 2.856 63.1359C2.856 64.0239 3.18 64.7199 3.84 65.2119H3.24C1.956 65.2119 1.32 64.5759 1.32 63.2919C1.32 62.2959 1.716 61.7319 2.496 61.6119V60.6519C1.26 60.7839 0.504 61.7439 0.504 63.2919C0.504 65.1759 1.572 66.1719 3.24 66.1719H9.192V65.2599H8.292ZM3.72 63.2559C3.72 62.0559 4.656 61.2639 6.096 61.2639C7.536 61.2639 8.472 62.0559 8.472 63.2559C8.472 64.4679 7.584 65.2479 6.096 65.2479C4.608 65.2479 3.72 64.4679 3.72 63.2559ZM9.192 72.6078V71.3358H10.944V70.3758H9.192V69.3558H8.352V70.3758H4.248C3.396 70.3758 2.964 70.8918 2.964 71.9238C2.964 72.1158 2.976 72.3438 3 72.6078H3.804V72.0438C3.804 71.5758 3.984 71.3358 4.332 71.3358H8.352V72.6078H9.192ZM3.78 78.6278C3.78 78.3998 3.876 78.2918 4.08 78.2918H7.536C8.736 78.2918 9.336 77.5118 9.336 75.9638C9.336 74.3678 8.652 73.5278 7.284 73.4438V74.4038C8.196 74.4638 8.508 74.8958 8.508 75.9638C8.508 76.9838 8.208 77.3558 7.536 77.3558C7.044 77.3558 6.756 77.0318 6.684 76.3838L6.588 75.4958C6.432 73.9718 5.784 73.2038 4.668 73.2038C3.516 73.2038 2.856 74.0318 2.856 75.3878C2.856 76.2998 3.192 76.9718 3.852 77.4038C3.264 77.4518 2.964 77.7998 2.964 78.4478C2.964 78.6398 2.976 78.8198 3 78.9758H3.78V78.6278ZM3.672 75.4358C3.672 74.6077 4.056 74.1998 4.692 74.1998C5.328 74.1998 5.676 74.5718 5.808 75.6398L5.916 76.5398C5.952 76.8998 6.036 77.1758 6.18 77.3558H5.448C4.344 77.3558 3.672 76.4918 3.672 75.4358ZM3 80.723H11.544V79.763H3V80.723ZM6.096 87.5653C7.848 87.5653 9.336 86.5933 9.336 84.7213C9.336 82.8373 7.848 81.8653 6.096 81.8653C4.32 81.8653 2.856 82.8493 2.856 84.7453C2.856 86.1733 3.672 87.0853 4.884 87.4093L4.884 86.4133C4.116 86.1733 3.732 85.6213 3.732 84.7693C3.732 83.6533 4.404 82.9573 5.76 82.8613L5.76 87.5653H6.096ZM8.46 84.7213C8.46 85.7773 7.692 86.4373 6.624 86.5333V82.8853C7.824 83.0413 8.46 83.7253 8.46 84.7213ZM9.336 91.5604C9.336 90.7324 8.976 90.0844 8.268 89.6164H9.192V88.7044H3V89.6644H6.504C7.14 89.6644 7.632 89.8324 7.968 90.1804C8.304 90.5284 8.472 90.9244 8.472 91.3684C8.472 92.3164 8.016 92.7844 7.092 92.7844H3V93.7444H7.188C8.544 93.7444 9.336 92.9404 9.336 91.5604ZM9.192 97.6625V96.3905H10.944V95.4305H9.192V94.4105H8.352V95.4305H4.248C3.396 95.4305 2.964 95.9465 2.964 96.9785C2.964 97.1705 2.976 97.3985 3 97.6625H3.804V97.0985C3.804 96.6305 3.984 96.3905 4.332 96.3905H8.352V97.6625H9.192ZM6.096 103.96C7.848 103.96 9.336 102.988 9.336 101.116C9.336 99.2318 7.848 98.2598 6.096 98.2598C4.32 98.2598 2.856 99.2438 2.856 101.14C2.856 102.568 3.672 103.48 4.884 103.804V102.808C4.116 102.568 3.732 102.016 3.732 101.164C3.732 100.048 4.404 99.3518 5.76 99.2558V103.96H6.096ZM8.46 101.116C8.46 102.172 7.692 102.832 6.624 102.928V99.2798C7.824 99.4358 8.46 100.12 8.46 101.116ZM8.304 109.755C8.988 109.263 9.336 108.579 9.336 107.679C9.336 105.771 7.884 104.799 6.096 104.799C4.32 104.799 2.856 105.783 2.856 107.679C2.856 108.603 3.228 109.311 3.96 109.803H3V110.715H11.544V109.755H8.304ZM6.048 105.807C7.536 105.807 8.472 106.599 8.472 107.799C8.472 109.011 7.584 109.791 6.096 109.791C4.836 109.791 3.72 109.191 3.72 107.799C3.72 106.419 4.776 105.807 6.048 105.807ZM9.336 117.475C9.336 116.551 8.964 115.843 8.232 115.351H9.192V114.439H0.648V115.399H3.888C3.204 115.891 2.856 116.575 2.856 117.475C2.856 119.383 4.308 120.355 6.096 120.355C7.896 120.355 9.336 119.395 9.336 117.475ZM3.72 117.355C3.72 115.963 4.836 115.363 6.096 115.363C7.368 115.363 8.472 115.951 8.472 117.355C8.472 118.567 7.62 119.347 6.144 119.347C4.656 119.347 3.72 118.555 3.72 117.355ZM6.096 126.893C7.848 126.893 9.336 125.921 9.336 124.049C9.336 122.165 7.848 121.193 6.096 121.193C4.32 121.193 2.856 122.177 2.856 124.073C2.856 125.501 3.672 126.413 4.884 126.737V125.741C4.116 125.501 3.732 124.949 3.732 124.097C3.732 122.981 4.404 122.285 5.76 122.189V126.893H6.096ZM8.46 124.049C8.46 125.105 7.692 125.765 6.624 125.861V122.213C7.824 122.369 8.46 123.053 8.46 124.049ZM6.096 133.733C7.908 133.733 9.336 132.629 9.336 130.733C9.336 128.837 7.908 127.733 6.096 127.733C4.284 127.733 2.856 128.837 2.856 130.733C2.856 132.629 4.284 133.733 6.096 133.733ZM6.096 128.741C7.368 128.741 8.472 129.329 8.472 130.733C8.472 132.137 7.368 132.725 6.096 132.725C4.836 132.725 3.72 132.125 3.72 130.733C3.72 129.341 4.836 128.741 6.096 128.741ZM9.336 137.912C9.336 136.988 8.964 136.28 8.232 135.788H9.192V134.876H0.648V135.836H3.888C3.204 136.328 2.856 137.012 2.856 137.912C2.856 139.82 4.308 140.792 6.096 140.792C7.896 140.792 9.336 139.832 9.336 137.912ZM3.72 137.792C3.72 136.4 4.836 135.8 6.096 135.8C7.368 135.8 8.472 136.388 8.472 137.792C8.472 139.004 7.62 139.784 6.144 139.784C4.656 139.784 3.72 138.992 3.72 137.792ZM3 142.891H11.544V141.931H3V142.891ZM6.096 149.733C7.848 149.733 9.336 148.761 9.336 146.889C9.336 145.005 7.848 144.033 6.096 144.033C4.32 144.033 2.856 145.017 2.856 146.913C2.856 148.341 3.672 149.253 4.884 149.577V148.581C4.116 148.341 3.732 147.789 3.732 146.937C3.732 145.821 4.404 145.125 5.76 145.029L5.76 149.733H6.096ZM8.46 146.889C8.46 147.945 7.692 148.605 6.624 148.701V145.053C7.824 145.209 8.46 145.893 8.46 146.889ZM9.336 156.014C9.336 155.222 9 154.586 8.34 154.118H11.544V153.158H3V154.118H6.504C7.14 154.118 7.632 154.286 7.968 154.634C8.304 154.982 8.472 155.378 8.472 155.822C8.472 156.77 8.016 157.238 7.092 157.238H3V158.198H7.188C8.544 158.198 9.336 157.394 9.336 156.014ZM3.78 164.702C3.78 164.474 3.876 164.366 4.08 164.366H7.536C8.736 164.366 9.336 163.586 9.336 162.038C9.336 160.442 8.652 159.602 7.284 159.518V160.478C8.196 160.538 8.508 160.97 8.508 162.038C8.508 163.058 8.208 163.43 7.536 163.43C7.044 163.43 6.756 163.106 6.684 162.458L6.588 161.57C6.432 160.046 5.784 159.278 4.668 159.278C3.516 159.278 2.856 160.106 2.856 161.462C2.856 162.374 3.192 163.046 3.852 163.478C3.264 163.526 2.964 163.874 2.964 164.522C2.964 164.714 2.976 164.894 3 165.05H3.78V164.702ZM3.672 161.51C3.672 160.682 4.056 160.274 4.692 160.274C5.328 160.274 5.676 160.646 5.808 161.714L5.916 162.614C5.952 162.974 6.036 163.25 6.18 163.43H5.448C4.344 163.43 3.672 162.566 3.672 161.51ZM6.444 168.747C5.16 168.267 4.356 167.979 4.032 167.871C4.26 167.799 5.052 167.511 6.432 166.995L9.192 165.975V164.931L3 167.355V168.363L9.192 170.799V169.767L6.444 168.747ZM6.096 176.616C7.848 176.616 9.336 175.644 9.336 173.772C9.336 171.888 7.848 170.916 6.096 170.916C4.32 170.916 2.856 171.9 2.856 173.796C2.856 175.224 3.672 176.136 4.884 176.46V175.464C4.116 175.224 3.732 174.672 3.732 173.82C3.732 172.704 4.404 172.008 5.76 171.912V176.616H6.096ZM8.46 173.772C8.46 174.828 7.692 175.488 6.624 175.584V171.936C7.824 172.092 8.46 172.776 8.46 173.772ZM8.292 184.744C8.988 184.252 9.336 183.544 9.336 182.62C9.336 180.712 7.884 179.74 6.096 179.74C4.32 179.74 2.856 180.724 2.856 182.62C2.856 183.508 3.18 184.204 3.84 184.696H3.24C1.956 184.696 1.32 184.06 1.32 182.776C1.32 181.78 1.716 181.216 2.496 181.096V180.136C1.26 180.268 0.504 181.228 0.504 182.776C0.504 184.66 1.572 185.656 3.24 185.656H9.192V184.744H8.292ZM3.72 182.74C3.72 181.54 4.656 180.748 6.096 180.748C7.536 180.748 8.472 181.54 8.472 182.74C8.472 183.952 7.584 184.732 6.096 184.732C4.608 184.732 3.72 183.952 3.72 182.74ZM3.78 192.159C3.78 191.931 3.876 191.823 4.08 191.823H7.536C8.736 191.823 9.336 191.043 9.336 189.495C9.336 187.899 8.652 187.059 7.284 186.975V187.935C8.196 187.995 8.508 188.427 8.508 189.495C8.508 190.515 8.208 190.887 7.536 190.887C7.044 190.887 6.756 190.563 6.684 189.915L6.588 189.027C6.432 187.503 5.784 186.735 4.668 186.735C3.516 186.735 2.856 187.563 2.856 188.919C2.856 189.831 3.192 190.503 3.852 190.935C3.264 190.983 2.964 191.331 2.964 191.979C2.964 192.171 2.976 192.351 3 192.507H3.78V192.159ZM3.672 188.967C3.672 188.139 4.056 187.731 4.692 187.731C5.328 187.731 5.676 188.103 5.808 189.171L5.916 190.071C5.952 190.431 6.036 190.707 6.18 190.887H5.448C4.344 190.887 3.672 190.023 3.672 188.967ZM9.192 195.83V194.558H10.944V193.598H9.192V192.578H8.352V193.598H4.248C3.396 193.598 2.964 194.114 2.964 195.146C2.964 195.338 2.976 195.566 3 195.83H3.804V195.266C3.804 194.798 3.984 194.558 4.332 194.558H8.352V195.83H9.192ZM9.336 199.701C9.336 198.909 9 198.273 8.34 197.805H11.544V196.845H3V197.805H6.504C7.14 197.805 7.632 197.973 7.968 198.321C8.304 198.669 8.472 199.065 8.472 199.509C8.472 200.457 8.016 200.925 7.092 200.925H3V201.885H7.188C8.544 201.885 9.336 201.081 9.336 199.701ZM6.096 208.725C7.848 208.725 9.336 207.753 9.336 205.881C9.336 203.997 7.848 203.025 6.096 203.025C4.32 203.025 2.856 204.009 2.856 205.905C2.856 207.333 3.672 208.245 4.884 208.569V207.573C4.116 207.333 3.732 206.781 3.732 205.929C3.732 204.813 4.404 204.117 5.76 204.021V208.725H6.096ZM8.46 205.881C8.46 206.937 7.692 207.597 6.624 207.693V204.045C7.824 204.201 8.46 204.885 8.46 205.881ZM9.288 212.769C9.288 211.869 8.892 211.197 8.1 210.777H9.192V209.865H3V210.825H6.528C7.716 210.825 8.352 211.593 8.352 212.853V213.093H9.276C9.288 213.009 9.288 212.901 9.288 212.769ZM6.096 219.026C7.848 219.026 9.336 218.054 9.336 216.182C9.336 214.298 7.848 213.326 6.096 213.326C4.32 213.326 2.856 214.31 2.856 216.206C2.856 217.634 3.672 218.546 4.884 218.87V217.874C4.116 217.634 3.732 217.082 3.732 216.23C3.732 215.114 4.404 214.418 5.76 214.322V219.026H6.096ZM8.46 216.182C8.46 217.238 7.692 217.898 6.624 217.994V214.346C7.824 214.502 8.46 215.186 8.46 216.182ZM8.304 224.821C8.988 224.329 9.336 223.645 9.336 222.745C9.336 220.837 7.884 219.865 6.096 219.865C4.32 219.865 2.856 220.849 2.856 222.745C2.856 223.669 3.228 224.377 3.96 224.869H3V225.781H11.544V224.821H8.304ZM6.048 220.873C7.536 220.873 8.472 221.665 8.472 222.865C8.472 224.077 7.584 224.857 6.096 224.857C4.836 224.857 3.72 224.257 3.72 222.865C3.72 221.485 4.776 220.873 6.048 220.873ZM3 228.252H4.2V227.04H3V228.252Z" fill="black"/>
</svg>
