<svg width="483" height="133" viewBox="0 0 483 133" fill="none" xmlns="http://www.w3.org/2000/svg">
<path d="M39.2998 11C46.6255 11 53.9512 11 61.277 11C66.6754 11 72.0738 11 77.4722 11C78.0693 11 83.6261 11.218 83.5491 11.295C81.6353 13.2088 80.8367 14.7727 80.0681 17.4899C78.0141 24.7523 76.1186 31.9863 74.3452 39.3195C72.8964 45.3107 69.7922 50.829 69.5663 57.0783C69.4674 59.8152 68.5326 62.5769 69.5663 65.1611" stroke="black" stroke-width="6" stroke-linecap="round"/>
<path d="M38.7687 26.9297C38.3974 38.2548 36.2019 49.8769 34.4028 61.0311C33.9404 63.898 34.6462 65.1611 31.5413 65.1611C25.7201 65.1611 19.8989 65.1611 14.0776 65.1611C13.2215 65.1611 3.01596 64.7796 4.07729 66.2231C5.04261 67.5359 6.9936 68.4596 8.26622 69.4385C10.6775 71.2934 12.7795 73.2601 14.5496 75.7514C19.6752 82.9652 23.8797 90.6082 29.3289 97.6696C33.3717 102.908 37.6773 107.981 42.6037 112.419C44.0786 113.748 45.923 114.795 47.2646 116.136" stroke="black" stroke-width="6" stroke-linecap="round"/>
<path d="M57.3537 55.6033C56.3442 61.3446 56.2917 66.8039 56.2917 72.595C56.2917 74.6972 58.9604 74.719 60.5396 74.719C70.3261 74.719 79.18 73.2943 88.3577 70.235C89.4536 69.8697 86.0953 74.2886 85.9092 74.542C83.1569 78.2898 80.7938 82.3027 78.1214 86.1058C73.0972 93.2555 68.6973 101.178 64.7876 108.997C61.3314 115.91 58.0023 123.335 54.6987 129.942" stroke="black" stroke-width="6" stroke-linecap="round"/>
<path d="M183.816 95.248C183.816 89.296 182.088 84.688 178.632 81.472C175.224 78.256 170.472 76.672 164.328 76.672H150.888V114.832H164.568C171.672 114.832 176.808 112.768 180.024 108.64C182.568 105.376 183.816 100.912 183.816 95.248ZM176.376 95.2C176.376 99.184 175.656 102.208 174.168 104.368C172.2 107.248 168.84 108.688 164.184 108.688H158.184V82.72H163.272C168.504 82.72 172.152 84.112 174.216 86.848C175.656 88.768 176.376 91.552 176.376 95.2ZM226.073 108.496H206.873V76.672H199.433V114.832H226.073V108.496Z" fill="black"/>
<path d="M163.704 35.168C165.624 33.296 167.352 31.328 168.936 29.408C169.656 29.984 170.28 30.368 170.76 30.368C171.816 30.368 172.488 30.08 173.496 29.696C174.696 29.216 178.008 28.4 179.016 28.4C179.64 28.4 179.928 28.688 179.64 29.408C178.488 32.336 176.76 35.408 174.6 38.528C170.856 36.8 166.44 35.696 163.704 35.168ZM162.216 19.328C163.704 20.24 164.76 21.536 164.76 22.496C164.76 25.76 157.608 36.704 150.264 43.424L150.792 44.192C155.16 42.272 159.144 39.344 162.648 36.128C165.96 37.76 168.84 39.2 171.672 42.416C166.296 49.04 159.048 55.28 150.936 59.408L151.368 60.272C161.592 57.248 169.032 52.784 175.128 46.88C177.48 50.288 178.056 51.68 180.408 51.584C182.328 51.536 183.768 50.048 183.672 47.888C183.528 45.392 181.992 43.376 179.784 41.648C182.232 38.624 184.44 35.312 186.552 31.712C187.224 30.56 189.384 29.84 189.384 28.448C189.384 26.144 184.008 22.832 182.472 22.832C181.272 22.832 180.168 24.176 179.016 24.656C177.96 25.088 173.736 25.76 171.528 26C171.912 25.472 172.248 24.992 172.584 24.464C173.448 23.168 174.024 23.072 174.024 21.968C174.024 20.528 169.752 18.224 165.864 18.224C164.088 18.224 163.224 18.464 162.264 18.8L162.216 19.328ZM182.232 17.744C184.536 20 185.352 21.488 186.312 22.832C187.032 23.84 187.8 24.272 188.568 24.224C189.768 24.128 190.584 23.312 190.488 22.304C190.392 21.2 190.056 20.48 189.048 19.616C187.512 18.272 185.112 17.696 182.616 17.216L182.232 17.744ZM186.408 14.864C189.096 17.12 189.768 18.224 190.584 19.28C191.448 20.384 192.12 21.008 193.128 20.96C194.232 20.912 195 20.096 194.952 18.896C194.904 17.696 194.28 16.784 193.128 16.016C191.592 15.008 189.768 14.768 186.792 14.288L186.408 14.864ZM222.504 18.848C223.464 19.232 224.328 19.568 225.096 20.096C225.864 20.624 225.96 21.296 226.008 22.352C226.056 23.696 226.104 25.472 226.104 26.864C223.992 27.056 221.496 27.248 219 27.392C218.568 27.008 217.992 26.672 217.176 26.192C215.256 25.088 212.376 24.176 210.264 23.888L209.88 24.56C211.128 26 211.992 27.008 212.712 28.88C213.432 30.704 213.96 36.464 213.864 38.192C213.816 39.152 213.576 39.92 213.624 40.448C213.624 42.608 215.4 45.68 217.704 45.68C219.336 45.68 220.344 44.768 220.344 42.896C220.344 40.688 220.104 33.296 219.912 30.272C220.728 30.896 221.4 31.232 222.216 31.232C223.464 31.232 230.28 30.08 237.912 29.696C238.68 29.648 238.824 29.84 238.632 30.752C236.376 42.416 228.984 52.16 217.608 58.832L218.184 59.648C233.208 54.608 240.744 46.352 245.976 33.776C246.552 32.336 248.472 31.472 248.472 30.032C248.472 28.256 243.672 24.08 241.272 24.08C240.12 24.08 239.256 25.808 238.2 25.952C236.664 26.192 234.36 26.336 232.104 26.48C232.2 25.28 232.344 24.128 232.488 23.312C232.776 21.824 233.688 21.776 233.688 20.336C233.688 19.088 230.184 16.592 226.968 16.592C225.192 16.592 223.656 17.504 222.456 18.176L222.504 18.848ZM269.928 22.352C274.728 26.192 275.592 28.016 277.848 31.376C279.048 33.152 280.2 34.208 282.168 34.208C284.472 34.208 286.056 32.336 286.056 30.272C286.056 24.656 277.512 22.064 270.312 21.68L269.928 22.352ZM275.448 48.56C273.576 48.56 271.8 46.592 270.84 45.68L270.216 46.064C270.168 47.744 270.648 49.808 271.272 51.104C272.28 53.216 275.832 56.384 279.048 56.384C280.632 56.384 281.256 54.608 283.128 53.456C294.552 46.544 303.192 37.76 308.472 27.104L307.704 26.576C300.792 35.312 281.352 48.56 275.448 48.56ZM336.264 46.448C336.216 43.28 336.168 34.928 336.072 30.848C337.032 31.376 337.944 31.76 338.712 31.76C339.672 31.76 341.4 31.28 342.888 31.04C345.48 30.608 349.464 30.272 351.624 30.272C352.2 30.272 352.392 30.56 352.392 31.136C352.392 33.152 351.576 39.824 350.616 45.056C346.152 45.392 340.344 46.016 336.264 46.448ZM325.416 25.472C327.576 27.392 328.296 28.16 328.632 29.888C329.352 33.632 330.168 43.376 330.168 45.632C330.168 47.168 329.928 48.416 329.928 49.808C329.928 52.112 331.608 54.656 333.576 54.656C335.688 54.656 336.36 53.024 336.36 51.392V50.912C341.256 50.528 346.44 50.24 350.088 50.24C353.016 50.24 355.608 50.72 357.48 50.72C359.256 50.72 360.12 49.568 360.12 48.032C360.12 46.496 358.536 45.392 356.904 44.96C357.912 41.504 358.872 38.24 359.496 35.312C359.928 33.392 362.184 32.72 362.184 31.136C362.184 28.64 356.088 23.936 354.12 23.936C352.536 23.936 351.864 25.856 349.608 26.24C347.544 26.624 340.296 27.392 335.832 27.776C335.688 27.536 335.496 27.296 335.16 27.008C332.136 24.512 329.016 24.368 325.608 24.896L325.416 25.472ZM381.096 33.2C380.808 34.496 380.616 36.176 381.048 37.376C382.056 40.112 385.368 43.568 387.576 43.568C389.592 43.568 390.408 42.224 394.248 41.84C397.992 41.456 407.304 40.784 411.24 40.784C414.888 40.784 416.568 40.928 418.584 40.928C420.792 40.928 422.328 40.208 422.328 38.528C422.328 36.08 419.64 34.208 416.232 34.208C415.08 34.208 412.488 34.688 409.272 34.976C406.008 35.264 392.712 36.176 387.144 36.176C384.312 36.176 383.448 34.976 381.816 32.96L381.096 33.2ZM463.848 22.976C466.2 25.088 467.304 26.912 468.168 28.256C468.888 29.36 469.512 29.84 470.328 29.84C471.528 29.84 472.392 28.928 472.392 27.824C472.392 26.912 472.104 26.096 471.144 25.232C469.512 23.744 467.016 22.976 464.232 22.4L463.848 22.976ZM447.72 19.712C449.4 20.144 451.08 20.768 451.464 22.4C451.944 24.416 452.136 30.848 452.136 34.928C452.136 37.376 452.04 43.136 451.656 46.736C451.416 48.992 450.984 50.24 450.984 51.632C450.984 56.144 452.616 58.736 455.592 58.736C457.896 58.736 458.52 57.488 458.52 54.368C458.52 53.792 458.376 52.064 458.28 49.424C458.088 45.872 457.944 40.832 458.136 34.544C460.296 35.696 461.64 36.704 462.792 37.856C466.92 41.888 466.92 45.056 470.712 45.056C472.872 45.056 474.168 43.376 474.168 41.456C474.168 38.336 472.728 36.8 470.28 35.36C467.544 33.776 463.128 32.72 458.184 32.432C458.28 29.648 458.376 27.44 458.664 25.856C459 23.984 460.152 23.36 460.152 21.728C460.152 19.904 455.304 17.312 452.712 17.312C451.032 17.312 449.112 18.272 447.672 19.088L447.72 19.712ZM468.36 19.088C471.048 21.248 471.96 22.736 472.728 23.792C473.592 24.992 474.168 25.568 475.176 25.568C476.328 25.568 477 24.8 477 23.648C477 22.496 476.568 21.536 475.368 20.672C473.928 19.664 471.576 18.944 468.696 18.56L468.36 19.088Z" fill="black"/>
</svg>
