<svg width="1920" height="543" viewBox="0 0 1920 543" fill="none" xmlns="http://www.w3.org/2000/svg">
<rect x="319.5" y="413.5" width="1281" height="127" rx="2.5" stroke="#0C8CE9"/>
<path d="M389.5 417H365.477L323.992 537H348.016L389.5 417ZM465.906 537H441.883L407.898 438.797H431.922L465.906 537Z" fill="black"/>
<path d="M512.898 438.797C534.695 438.797 583.797 438.797 632.898 417V438.797C620.242 443.836 606.531 448.992 589.305 452.977V471.609H643.914V493.406H589.305V504.305C589.305 530.438 567.508 537 556.609 537H540.203V515.203H556.609C565.281 515.203 567.508 507.938 567.508 504.305V493.406H502V471.609H567.508V456.961C552.039 459.305 534.227 460.594 512.898 460.594V438.797Z" fill="black"/>
<path d="M980.062 460.594V471.609C980.062 506.531 951 515.203 936.469 515.203H920.062V537H936.469C988.852 537 1001.86 493.406 1001.86 471.609V460.594H1040.06V504.305C1040.06 512.977 1032.8 515.203 1029.16 515.203H1007.37V537H1029.16C1055.41 537 1061.98 515.203 1061.98 504.305V438.797H1001.86V417H980.062V438.797H920.062V460.594H980.062Z" fill="black"/>
<path d="M1336.31 460.594V471.609C1336.31 506.531 1307.25 515.203 1292.72 515.203H1276.31V537H1292.72C1345.1 537 1358.11 493.406 1358.11 471.609V460.594H1396.31V504.305C1396.31 512.977 1389.05 515.203 1385.41 515.203H1363.62V537H1385.41C1411.66 537 1418.23 515.203 1418.23 504.305V438.797H1358.11V417H1336.31V438.797H1276.31V460.594H1336.31Z" fill="black"/>
<path d="M389.5 417H365.477L323.992 537H348.016L389.5 417ZM465.906 537H441.883L407.898 438.797H431.922L465.906 537Z" stroke="#0C8CE9" stroke-width="2"/>
<path d="M512.898 438.797C534.695 438.797 583.797 438.797 632.898 417V438.797C620.242 443.836 606.531 448.992 589.305 452.977V471.609H643.914V493.406H589.305V504.305C589.305 530.438 567.508 537 556.609 537H540.203V515.203H556.609C565.281 515.203 567.508 507.938 567.508 504.305V493.406H502V471.609H567.508V456.961C552.039 459.305 534.227 460.594 512.898 460.594V438.797Z" stroke="#0C8CE9" stroke-width="2"/>
<path d="M980.062 460.594V471.609C980.062 506.531 951 515.203 936.469 515.203H920.062V537H936.469C988.852 537 1001.86 493.406 1001.86 471.609V460.594H1040.06V504.305C1040.06 512.977 1032.8 515.203 1029.16 515.203H1007.37V537H1029.16C1055.41 537 1061.98 515.203 1061.98 504.305V438.797H1001.86V417H980.062V438.797H920.062V460.594H980.062Z" stroke="#0C8CE9" stroke-width="2"/>
<path d="M1336.31 460.594V471.609C1336.31 506.531 1307.25 515.203 1292.72 515.203H1276.31V537H1292.72C1345.1 537 1358.11 493.406 1358.11 471.609V460.594H1396.31V504.305C1396.31 512.977 1389.05 515.203 1385.41 515.203H1363.62V537H1385.41C1411.66 537 1418.23 515.203 1418.23 504.305V438.797H1358.11V417H1336.31V438.797H1276.31V460.594H1336.31Z" stroke="#0C8CE9" stroke-width="2"/>
<path d="M1130.88 417C1130.88 443.133 1109.09 449.695 1098.19 449.695V471.609C1113.42 471.609 1124.55 467.156 1132.76 460.594H1218.19V477H1141.78V498.797H1215.14C1209.98 509.812 1197.68 515.203 1174.59 515.203V537C1229.09 537 1240.1 504.305 1240.1 482.508V438.797H1148.46C1151.62 430.828 1152.8 422.977 1152.8 417H1130.88Z" stroke="#0C8CE9" stroke-width="2"/>
<mask id="mask0_26_497" style="mask-type:alpha" maskUnits="userSpaceOnUse" x="1097" y="416" width="145" height="122">
<path d="M1130.88 417C1130.88 443.133 1109.09 449.695 1098.19 449.695V471.609C1113.42 471.609 1124.55 467.156 1132.76 460.594H1218.19V477H1141.78V498.797H1215.14C1209.98 509.812 1197.68 515.203 1174.59 515.203V537C1229.09 537 1240.1 504.305 1240.1 482.508V438.797H1148.46C1151.62 430.828 1152.8 422.977 1152.8 417H1130.88Z" fill="black" stroke="#0C8CE9" stroke-width="2"/>
</mask>
<g mask="url(#mask0_26_497)">
<rect x="1172.63" y="286" width="1" height="271" transform="rotate(45 1172.63 286)" fill="#0C8CE9"/>
<rect x="1176.87" y="290.243" width="1" height="271" transform="rotate(45 1176.87 290.243)" fill="#0C8CE9"/>
<rect x="1181.11" y="294.485" width="1" height="271" transform="rotate(45 1181.11 294.485)" fill="#0C8CE9"/>
<rect x="1185.35" y="298.728" width="1" height="271" transform="rotate(45 1185.35 298.728)" fill="#0C8CE9"/>
<rect x="1189.6" y="302.971" width="1" height="271" transform="rotate(45 1189.6 302.971)" fill="#0C8CE9"/>
<rect x="1193.84" y="307.213" width="1" height="271" transform="rotate(45 1193.84 307.213)" fill="#0C8CE9"/>
<rect x="1198.08" y="311.456" width="1" height="271" transform="rotate(45 1198.08 311.456)" fill="#0C8CE9"/>
<rect x="1202.32" y="315.698" width="1" height="271" transform="rotate(45 1202.32 315.698)" fill="#0C8CE9"/>
<rect x="1206.57" y="319.941" width="1" height="271" transform="rotate(45 1206.57 319.941)" fill="#0C8CE9"/>
<rect x="1210.81" y="324.184" width="1" height="271" transform="rotate(45 1210.81 324.184)" fill="#0C8CE9"/>
<rect x="1215.05" y="328.426" width="1" height="271" transform="rotate(45 1215.05 328.426)" fill="#0C8CE9"/>
<rect x="1219.29" y="332.669" width="1" height="271" transform="rotate(45 1219.29 332.669)" fill="#0C8CE9"/>
<rect x="1223.54" y="336.912" width="1" height="271" transform="rotate(45 1223.54 336.912)" fill="#0C8CE9"/>
<rect x="1227.78" y="341.154" width="1" height="271" transform="rotate(45 1227.78 341.154)" fill="#0C8CE9"/>
<rect x="1232.02" y="345.397" width="1" height="271" transform="rotate(45 1232.02 345.397)" fill="#0C8CE9"/>
<rect x="1236.27" y="349.64" width="1" height="271" transform="rotate(45 1236.27 349.64)" fill="#0C8CE9"/>
<rect x="1240.51" y="353.882" width="1" height="271" transform="rotate(45 1240.51 353.882)" fill="#0C8CE9"/>
<rect x="1244.75" y="358.125" width="1" height="271" transform="rotate(45 1244.75 358.125)" fill="#0C8CE9"/>
<rect x="1248.99" y="362.368" width="1" height="271" transform="rotate(45 1248.99 362.368)" fill="#0C8CE9"/>
<rect x="1253.24" y="366.61" width="1" height="271" transform="rotate(45 1253.24 366.61)" fill="#0C8CE9"/>
<rect x="1257.48" y="370.853" width="1" height="271" transform="rotate(45 1257.48 370.853)" fill="#0C8CE9"/>
<rect x="1261.72" y="375.095" width="1" height="271" transform="rotate(45 1261.72 375.095)" fill="#0C8CE9"/>
<rect x="1265.96" y="379.338" width="1" height="271" transform="rotate(45 1265.96 379.338)" fill="#0C8CE9"/>
<rect x="1270.21" y="383.581" width="1" height="271" transform="rotate(45 1270.21 383.581)" fill="#0C8CE9"/>
<rect x="1274.45" y="387.823" width="1" height="271" transform="rotate(45 1274.45 387.823)" fill="#0C8CE9"/>
<rect x="1278.69" y="392.066" width="1" height="271" transform="rotate(45 1278.69 392.066)" fill="#0C8CE9"/>
<rect x="1282.93" y="396.309" width="1" height="271" transform="rotate(45 1282.93 396.309)" fill="#0C8CE9"/>
<rect x="1287.18" y="400.551" width="1" height="271" transform="rotate(45 1287.18 400.551)" fill="#0C8CE9"/>
<rect x="1291.42" y="404.794" width="1" height="271" transform="rotate(45 1291.42 404.794)" fill="#0C8CE9"/>
<rect x="1295.66" y="409.037" width="1" height="271" transform="rotate(45 1295.66 409.037)" fill="#0C8CE9"/>
<rect x="1299.91" y="413.279" width="1" height="271" transform="rotate(45 1299.91 413.279)" fill="#0C8CE9"/>
<rect x="1304.15" y="417.522" width="1" height="271" transform="rotate(45 1304.15 417.522)" fill="#0C8CE9"/>
<rect x="1308.39" y="421.765" width="1" height="271" transform="rotate(45 1308.39 421.765)" fill="#0C8CE9"/>
<rect x="1312.63" y="426.007" width="1" height="271" transform="rotate(45 1312.63 426.007)" fill="#0C8CE9"/>
<rect x="1316.88" y="430.25" width="1" height="271" transform="rotate(45 1316.88 430.25)" fill="#0C8CE9"/>
<rect x="1321.12" y="434.492" width="1" height="271" transform="rotate(45 1321.12 434.492)" fill="#0C8CE9"/>
<rect x="1325.36" y="438.735" width="1" height="271" transform="rotate(45 1325.36 438.735)" fill="#0C8CE9"/>
<rect x="1329.6" y="442.978" width="1" height="271" transform="rotate(45 1329.6 442.978)" fill="#0C8CE9"/>
<rect x="1333.85" y="447.22" width="1" height="271" transform="rotate(45 1333.85 447.22)" fill="#0C8CE9"/>
<rect x="1338.09" y="451.463" width="1" height="271" transform="rotate(45 1338.09 451.463)" fill="#0C8CE9"/>
<rect x="1342.33" y="455.706" width="1" height="271" transform="rotate(45 1342.33 455.706)" fill="#0C8CE9"/>
<rect x="1346.57" y="459.948" width="1" height="271" transform="rotate(45 1346.57 459.948)" fill="#0C8CE9"/>
<rect x="1350.82" y="464.191" width="1" height="271" transform="rotate(45 1350.82 464.191)" fill="#0C8CE9"/>
<rect x="1355.06" y="468.434" width="1" height="271" transform="rotate(45 1355.06 468.434)" fill="#0C8CE9"/>
<rect x="1359.3" y="472.676" width="1" height="271" transform="rotate(45 1359.3 472.676)" fill="#0C8CE9"/>
<rect x="1363.54" y="476.919" width="1" height="271" transform="rotate(45 1363.54 476.919)" fill="#0C8CE9"/>
</g>
<rect x="429.5" y="435.5" width="6" height="6" rx="1.5" fill="white" stroke="#4AB3FF"/>
<rect x="386.5" y="414.5" width="6" height="6" rx="1.5" fill="white" stroke="#4AB3FF"/>
<rect x="362.5" y="414.5" width="6" height="6" rx="1.5" fill="white" stroke="#4AB3FF"/>
<rect x="320.5" y="533.5" width="6" height="6" rx="1.5" fill="white" stroke="#4AB3FF"/>
<rect x="344.5" y="533.5" width="6" height="6" rx="1.5" fill="white" stroke="#4AB3FF"/>
<rect x="405.5" y="435.5" width="6" height="6" rx="1.5" fill="white" stroke="#4AB3FF"/>
<rect x="439.5" y="533.5" width="6" height="6" rx="1.5" fill="white" stroke="#4AB3FF"/>
<rect x="463.5" y="533.5" width="6" height="6" rx="1.5" fill="white" stroke="#4AB3FF"/>
<line x1="1061.5" y1="519" x2="1061.5" y2="504" stroke="#87CDFF"/>
<line x1="1001.5" y1="490" x2="1001.5" y2="473" stroke="#87CDFF"/>
<line x1="980.5" y1="501" x2="980.5" y2="473" stroke="#87CDFF"/>
<line x1="1029" y1="536.5" x2="1054" y2="536.5" stroke="#87CDFF"/>
<line x1="936" y1="536.5" x2="989" y2="536.5" stroke="#87CDFF"/>
<line x1="936" y1="515.5" x2="952" y2="515.5" stroke="#87CDFF"/>
<line x1="1028" y1="515.5" x2="1037" y2="515.5" stroke="#87CDFF"/>
<path d="M1058.71 518.5L1061.5 515.707L1064.29 518.5L1061.5 521.293L1058.71 518.5Z" fill="white" stroke="#4AB3FF"/>
<path d="M1050.71 536.5L1053.5 533.707L1056.29 536.5L1053.5 539.293L1050.71 536.5Z" fill="white" stroke="#4AB3FF"/>
<path d="M985.707 536.5L988.5 533.707L991.293 536.5L988.5 539.293L985.707 536.5Z" fill="white" stroke="#4AB3FF"/>
<path d="M951.707 515.5L954.5 512.707L957.293 515.5L954.5 518.293L951.707 515.5Z" fill="white" stroke="#4AB3FF"/>
<path d="M998.707 491.5L1001.5 488.707L1004.29 491.5L1001.5 494.293L998.707 491.5Z" fill="white" stroke="#4AB3FF"/>
<path d="M977.707 503.5L980.5 500.707L983.293 503.5L980.5 506.293L977.707 503.5Z" fill="white" stroke="#4AB3FF"/>
<path d="M1035.71 515.5L1038.5 512.707L1041.29 515.5L1038.5 518.293L1035.71 515.5Z" fill="white" stroke="#4AB3FF"/>
<path d="M1037.71 509.5L1040.5 506.707L1043.29 509.5L1040.5 512.293L1037.71 509.5Z" fill="white" stroke="#4AB3FF"/>
<rect x="917.5" y="533.5" width="6" height="6" rx="1.5" fill="white" stroke="#4AB3FF"/>
<rect x="917.5" y="457.5" width="6" height="6" rx="1.5" fill="white" stroke="#4AB3FF"/>
<rect x="977.5" y="457.5" width="6" height="6" rx="1.5" fill="white" stroke="#4AB3FF"/>
<rect x="1037.5" y="457.5" width="6" height="6" rx="1.5" fill="white" stroke="#4AB3FF"/>
<rect x="1058.5" y="457.5" width="6" height="6" rx="1.5" fill="white" stroke="#4AB3FF"/>
<rect x="998.5" y="457.5" width="6" height="6" rx="1.5" fill="white" stroke="#4AB3FF"/>
<rect x="977.5" y="468.5" width="6" height="6" rx="1.5" fill="white" stroke="#4AB3FF"/>
<rect x="998.5" y="468.5" width="6" height="6" rx="1.5" fill="white" stroke="#4AB3FF"/>
<rect x="1004.5" y="533.5" width="6" height="6" rx="1.5" fill="white" stroke="#4AB3FF"/>
<rect x="1026.5" y="533.5" width="6" height="6" rx="1.5" fill="white" stroke="#4AB3FF"/>
<rect x="1058.5" y="501.5" width="6" height="6" rx="1.5" fill="white" stroke="#4AB3FF"/>
<rect x="917.5" y="512.5" width="6" height="6" rx="1.5" fill="white" stroke="#4AB3FF"/>
<rect x="933.5" y="533.5" width="6" height="6" rx="1.5" fill="white" stroke="#4AB3FF"/>
<rect x="933.5" y="512.5" width="6" height="6" rx="1.5" fill="white" stroke="#4AB3FF"/>
<rect x="917.5" y="436.5" width="6" height="6" rx="1.5" fill="white" stroke="#4AB3FF"/>
<rect x="977.5" y="436.5" width="6" height="6" rx="1.5" fill="white" stroke="#4AB3FF"/>
<rect x="977.5" y="414.5" width="6" height="6" rx="1.5" fill="white" stroke="#4AB3FF"/>
<rect x="1037.5" y="436.5" width="6" height="6" rx="1.5" fill="white" stroke="#4AB3FF"/>
<rect x="1058.5" y="436.5" width="6" height="6" rx="1.5" fill="white" stroke="#4AB3FF"/>
<rect x="998.5" y="436.5" width="6" height="6" rx="1.5" fill="white" stroke="#4AB3FF"/>
<rect x="998.5" y="414.5" width="6" height="6" rx="1.5" fill="white" stroke="#4AB3FF"/>
<rect x="1004.5" y="512.5" width="6" height="6" rx="1.5" fill="white" stroke="#4AB3FF"/>
<rect x="1026.5" y="512.5" width="6" height="6" rx="1.5" fill="white" stroke="#4AB3FF"/>
<rect x="1037.5" y="501.5" width="6" height="6" rx="1.5" fill="white" stroke="#4AB3FF"/>
<rect x="1095.5" y="468.5" width="6" height="6" rx="1.5" fill="white" stroke="#4AB3FF"/>
<rect x="1129.5" y="457.5" width="6" height="6" rx="1.5" fill="white" stroke="#4AB3FF"/>
<rect x="1144.5" y="436.5" width="6" height="6" rx="1.5" fill="white" stroke="#4AB3FF"/>
<rect x="1236.5" y="436.5" width="6" height="6" rx="1.5" fill="white" stroke="#4AB3FF"/>
<rect x="1215.5" y="456.5" width="6" height="6" rx="1.5" fill="white" stroke="#4AB3FF"/>
<rect x="1215.5" y="474.5" width="6" height="6" rx="1.5" fill="white" stroke="#4AB3FF"/>
<rect x="1139.5" y="474.5" width="6" height="6" rx="1.5" fill="white" stroke="#4AB3FF"/>
<rect x="1139.5" y="495.5" width="6" height="6" rx="1.5" fill="white" stroke="#4AB3FF"/>
<rect x="1212.5" y="495.5" width="6" height="6" rx="1.5" fill="white" stroke="#4AB3FF"/>
<rect x="1236.5" y="481.5" width="6" height="6" rx="1.5" fill="white" stroke="#4AB3FF"/>
<rect x="1171.5" y="533.5" width="6" height="6" rx="1.5" fill="white" stroke="#4AB3FF"/>
<rect x="1171.5" y="512.5" width="6" height="6" rx="1.5" fill="white" stroke="#4AB3FF"/>
<rect x="1095.5" y="447.5" width="6" height="6" rx="1.5" fill="white" stroke="#4AB3FF"/>
<rect x="1128.5" y="414.5" width="6" height="6" rx="1.5" fill="white" stroke="#4AB3FF"/>
<rect x="1148.5" y="414.5" width="6" height="6" rx="1.5" fill="white" stroke="#4AB3FF"/>
<line x1="1417.5" y1="519" x2="1417.5" y2="504" stroke="#87CDFF"/>
<line x1="1357.5" y1="490" x2="1357.5" y2="473" stroke="#87CDFF"/>
<line x1="1336.5" y1="501" x2="1336.5" y2="473" stroke="#87CDFF"/>
<line x1="1385" y1="536.5" x2="1410" y2="536.5" stroke="#87CDFF"/>
<line x1="1292" y1="536.5" x2="1345" y2="536.5" stroke="#87CDFF"/>
<line x1="1292" y1="515.5" x2="1308" y2="515.5" stroke="#87CDFF"/>
<line x1="1384" y1="515.5" x2="1393" y2="515.5" stroke="#87CDFF"/>
<path d="M1414.71 518.5L1417.5 515.707L1420.29 518.5L1417.5 521.293L1414.71 518.5Z" fill="white" stroke="#4AB3FF"/>
<path d="M1406.71 536.5L1409.5 533.707L1412.29 536.5L1409.5 539.293L1406.71 536.5Z" fill="white" stroke="#4AB3FF"/>
<path d="M1341.71 536.5L1344.5 533.707L1347.29 536.5L1344.5 539.293L1341.71 536.5Z" fill="white" stroke="#4AB3FF"/>
<path d="M1307.71 515.5L1310.5 512.707L1313.29 515.5L1310.5 518.293L1307.71 515.5Z" fill="white" stroke="#4AB3FF"/>
<path d="M1354.71 491.5L1357.5 488.707L1360.29 491.5L1357.5 494.293L1354.71 491.5Z" fill="white" stroke="#4AB3FF"/>
<path d="M1333.71 503.5L1336.5 500.707L1339.29 503.5L1336.5 506.293L1333.71 503.5Z" fill="white" stroke="#4AB3FF"/>
<path d="M1391.71 515.5L1394.5 512.707L1397.29 515.5L1394.5 518.293L1391.71 515.5Z" fill="white" stroke="#4AB3FF"/>
<path d="M1393.71 509.5L1396.5 506.707L1399.29 509.5L1396.5 512.293L1393.71 509.5Z" fill="white" stroke="#4AB3FF"/>
<rect x="1273.5" y="533.5" width="6" height="6" rx="1.5" fill="white" stroke="#4AB3FF"/>
<rect x="1273.5" y="457.5" width="6" height="6" rx="1.5" fill="white" stroke="#4AB3FF"/>
<rect x="1333.5" y="457.5" width="6" height="6" rx="1.5" fill="white" stroke="#4AB3FF"/>
<rect x="1393.5" y="457.5" width="6" height="6" rx="1.5" fill="white" stroke="#4AB3FF"/>
<rect x="1414.5" y="457.5" width="6" height="6" rx="1.5" fill="white" stroke="#4AB3FF"/>
<rect x="1354.5" y="457.5" width="6" height="6" rx="1.5" fill="white" stroke="#4AB3FF"/>
<rect x="1333.5" y="468.5" width="6" height="6" rx="1.5" fill="white" stroke="#4AB3FF"/>
<rect x="1354.5" y="468.5" width="6" height="6" rx="1.5" fill="white" stroke="#4AB3FF"/>
<rect x="1360.5" y="533.5" width="6" height="6" rx="1.5" fill="white" stroke="#4AB3FF"/>
<rect x="1382.5" y="533.5" width="6" height="6" rx="1.5" fill="white" stroke="#4AB3FF"/>
<rect x="1414.5" y="501.5" width="6" height="6" rx="1.5" fill="white" stroke="#4AB3FF"/>
<rect x="1273.5" y="512.5" width="6" height="6" rx="1.5" fill="white" stroke="#4AB3FF"/>
<rect x="1289.5" y="533.5" width="6" height="6" rx="1.5" fill="white" stroke="#4AB3FF"/>
<rect x="1289.5" y="512.5" width="6" height="6" rx="1.5" fill="white" stroke="#4AB3FF"/>
<rect x="1273.5" y="436.5" width="6" height="6" rx="1.5" fill="white" stroke="#4AB3FF"/>
<rect x="1333.5" y="436.5" width="6" height="6" rx="1.5" fill="white" stroke="#4AB3FF"/>
<rect x="1333.5" y="414.5" width="6" height="6" rx="1.5" fill="white" stroke="#4AB3FF"/>
<rect x="1393.5" y="436.5" width="6" height="6" rx="1.5" fill="white" stroke="#4AB3FF"/>
<rect x="1414.5" y="436.5" width="6" height="6" rx="1.5" fill="white" stroke="#4AB3FF"/>
<rect x="1354.5" y="436.5" width="6" height="6" rx="1.5" fill="white" stroke="#4AB3FF"/>
<rect x="1354.5" y="414.5" width="6" height="6" rx="1.5" fill="white" stroke="#4AB3FF"/>
<rect x="1360.5" y="512.5" width="6" height="6" rx="1.5" fill="white" stroke="#4AB3FF"/>
<rect x="1382.5" y="512.5" width="6" height="6" rx="1.5" fill="white" stroke="#4AB3FF"/>
<rect x="1393.5" y="501.5" width="6" height="6" rx="1.5" fill="white" stroke="#4AB3FF"/>
<line x1="513" y1="459.5" x2="534" y2="459.5" stroke="#87CDFF"/>
<line x1="514" y1="439.5" x2="535" y2="439.5" stroke="#87CDFF"/>
<line x1="551.913" y1="459.508" x2="568.913" y2="456.508" stroke="#87CDFF"/>
<line x1="588.885" y1="453.513" x2="605.885" y2="449.513" stroke="#87CDFF"/>
<line x1="583.822" y1="437.533" x2="633.822" y2="418.533" stroke="#87CDFF"/>
<line x1="589.5" y1="529" x2="589.5" y2="504" stroke="#87CDFF"/>
<line x1="568" y1="536.5" x2="557" y2="536.5" stroke="#87CDFF"/>
<line x1="568" y1="515.5" x2="557" y2="515.5" stroke="#87CDFF"/>
<line x1="615.834" y1="445.529" x2="632.834" y2="439.529" stroke="#87CDFF"/>
<rect x="499.5" y="489.5" width="6" height="6" rx="1.5" fill="white" stroke="#4AB3FF"/>
<rect x="510.5" y="456.5" width="6" height="6" rx="1.5" fill="white" stroke="#4AB3FF"/>
<rect x="629.5" y="435.5" width="6" height="6" rx="1.5" fill="white" stroke="#4AB3FF"/>
<rect x="564.5" y="489.5" width="6" height="6" rx="1.5" fill="white" stroke="#4AB3FF"/>
<rect x="564.5" y="501.5" width="6" height="6" rx="1.5" fill="white" stroke="#4AB3FF"/>
<rect x="553.5" y="512.5" width="6" height="6" rx="1.5" fill="white" stroke="#4AB3FF"/>
<rect x="586.5" y="501.5" width="6" height="6" rx="1.5" fill="white" stroke="#4AB3FF"/>
<rect x="553.5" y="533.5" width="6" height="6" rx="1.5" fill="white" stroke="#4AB3FF"/>
<rect x="537.5" y="512.5" width="6" height="6" rx="1.5" fill="white" stroke="#4AB3FF"/>
<rect x="537.5" y="533.5" width="6" height="6" rx="1.5" fill="white" stroke="#4AB3FF"/>
<rect x="564.5" y="469.5" width="6" height="6" rx="1.5" fill="white" stroke="#4AB3FF"/>
<rect x="564.5" y="453.5" width="6" height="6" rx="1.5" fill="white" stroke="#4AB3FF"/>
<rect x="586.5" y="489.5" width="6" height="6" rx="1.5" fill="white" stroke="#4AB3FF"/>
<rect x="586.5" y="469.5" width="6" height="6" rx="1.5" fill="white" stroke="#4AB3FF"/>
<rect x="586.5" y="449.5" width="6" height="6" rx="1.5" fill="white" stroke="#4AB3FF"/>
<rect x="499.5" y="469.5" width="6" height="6" rx="1.5" fill="white" stroke="#4AB3FF"/>
<rect x="510.5" y="436.5" width="6" height="6" rx="1.5" fill="white" stroke="#4AB3FF"/>
<rect x="629.5" y="415.5" width="6" height="6" rx="1.5" fill="white" stroke="#4AB3FF"/>
<rect x="640.5" y="489.5" width="6" height="6" rx="1.5" fill="white" stroke="#4AB3FF"/>
<rect x="640.5" y="469.5" width="6" height="6" rx="1.5" fill="white" stroke="#4AB3FF"/>
<path d="M532.707 459.5L535.5 456.707L538.293 459.5L535.5 462.293L532.707 459.5Z" fill="white" stroke="#4AB3FF"/>
<path d="M530.707 439.5L533.5 436.707L536.293 439.5L533.5 442.293L530.707 439.5Z" fill="white" stroke="#4AB3FF"/>
<path d="M602.707 449.5L605.5 446.707L608.293 449.5L605.5 452.293L602.707 449.5Z" fill="white" stroke="#4AB3FF"/>
<path d="M580.707 437.5L583.5 434.707L586.293 437.5L583.5 440.293L580.707 437.5Z" fill="white" stroke="#4AB3FF"/>
<path d="M586.707 528.5L589.5 525.707L592.293 528.5L589.5 531.293L586.707 528.5Z" fill="white" stroke="#4AB3FF"/>
<path d="M564.707 536.5L567.5 533.707L570.293 536.5L567.5 539.293L564.707 536.5Z" fill="white" stroke="#4AB3FF"/>
<path d="M563.707 515.5L566.5 512.707L569.293 515.5L566.5 518.293L563.707 515.5Z" fill="white" stroke="#4AB3FF"/>
<path d="M564.707 510.5L567.5 507.707L570.293 510.5L567.5 513.293L564.707 510.5Z" fill="white" stroke="#4AB3FF"/>
<path d="M613.707 445.5L616.5 442.707L619.293 445.5L616.5 448.293L613.707 445.5Z" fill="white" stroke="#4AB3FF"/>
<path d="M548.707 459.5L551.5 456.707L554.293 459.5L551.5 462.293L548.707 459.5Z" fill="white" stroke="#4AB3FF"/>
<circle cx="782" cy="477" r="60" fill="url(#paint0_linear_26_497)" stroke="#0C8CE9" stroke-width="2" stroke-linecap="round" stroke-dasharray="8 8"/>
<rect x="1596.5" y="536.5" width="6" height="6" rx="1.5" fill="white" stroke="#4AB3FF"/>
<rect x="317.5" y="536.5" width="6" height="6" rx="1.5" fill="white" stroke="#4AB3FF"/>
<rect x="1596.5" y="411.5" width="6" height="6" rx="1.5" fill="white" stroke="#4AB3FF"/>
<rect x="317.5" y="411.5" width="6" height="6" rx="1.5" fill="white" stroke="#4AB3FF"/>
<line x1="959.5" y1="412.5" x2="959.5" y2="0.5" stroke="#0C8CE9" stroke-linecap="round" stroke-dasharray="4 4"/>
<path d="M0.5 477L319.5 477" stroke="#0C8CE9" stroke-linecap="round" stroke-dasharray="4 4"/>
<path d="M1600.5 477L1919.5 477" stroke="#0C8CE9" stroke-linecap="round" stroke-dasharray="4 4"/>
<defs>
<linearGradient id="paint0_linear_26_497" x1="831.134" y1="520.465" x2="780.583" y2="466.606" gradientUnits="userSpaceOnUse">
<stop stop-color="#D9D9D9"/>
<stop offset="1" stop-color="#D9D9D9" stop-opacity="0"/>
</linearGradient>
</defs>
</svg>
