<svg width="64" height="64" viewBox="0 0 64 64" fill="none" xmlns="http://www.w3.org/2000/svg">
<path d="M35.5556 19.9111V18.4889H26.3111V19.9111H35.5556Z" fill="black"/>
<path d="M22.7556 48.5018C22.7556 49.2838 23.1974 49.9987 23.8968 50.3484L27.0222 51.9111V46.7871C27.0222 46.0051 26.5804 45.2902 25.881 44.9405L22.7556 43.3778V48.5018Z" fill="black"/>
<path fill-rule="evenodd" clip-rule="evenodd" d="M23.4667 20.6222L27.871 22.0444H36.6475C37.2167 22.0444 37.6785 22.5052 37.6798 23.0743L37.6865 25.9987C37.688 26.6194 37.3186 27.1809 36.7481 27.4254L32.7111 29.1556V27.7333H28.4444V29.2164C28.4444 30.0423 27.9523 30.7887 27.1932 31.114L23.4667 32.7111V20.6222ZM32.7111 23.4667H28.4444V26.3111H32.7111V23.4667Z" fill="black"/>
<path fill-rule="evenodd" clip-rule="evenodd" d="M22.0444 19.9111L25.5755 18.1456C26.0576 17.9046 26.4684 17.5419 26.7673 17.0935L30.5778 11.3778L37.0699 19.1683C37.4621 19.639 38.0431 19.9111 38.6559 19.9111H48.1032L46.681 18.4889H40.5333L31.5861 7.95389C31.1938 7.49202 30.6185 7.22581 30.0125 7.22581H26.8387L29.2188 9.86878L22.0444 19.273V15.5784C22.0444 14.4389 21.1213 13.5149 19.9819 13.5138L14.9333 13.5111V9.96382C19.649 6.30632 25.5702 4.12903 32 4.12903C41.8833 4.12903 50.5651 9.27333 55.5137 17.0304L59.4139 15.4839C53.8113 6.2044 43.6302 0 32 0C14.3269 0 0 14.3269 0 32C0 36.4903 0.924851 40.7646 2.59446 44.6427L20.7589 37.2424C21.5362 36.9257 22.0444 36.1698 22.0444 35.3305V19.9111ZM9.95555 33.4222L14.9333 30.5778H17.0667V36.7177C17.0667 37.1123 16.7888 37.3241 16.6499 37.3807L5.88938 41.7697C4.75132 38.7295 4.12903 35.4374 4.12903 32C4.12903 25.5751 6.30304 19.6579 9.95555 14.944V33.4222ZM14.9333 29.1556H17.0667V14.9333H14.9333V29.1556Z" fill="black"/>
<path d="M35.5556 41.9556V49.4566C35.5556 50.1065 35.2496 50.7183 34.7298 51.1082L29.8667 54.7556V48.7493C29.8667 48.0591 30.2116 47.4145 30.786 47.0316L34.1333 44.8V41.9556H22.7556V40.5333H35.5556V36.2667H27.0222V34.8444H35.5556V31.0666C35.5556 30.2272 36.0638 29.4713 36.8411 29.1546L61.3279 19.1785C63.0465 23.1039 64 27.4406 64 32C64 49.6731 49.6731 64 32 64C20.522 64 10.4555 57.957 4.80843 48.8789L8.64476 47.2152C13.619 54.8351 22.2214 59.871 32 59.871C38.4298 59.871 44.351 57.6937 49.0667 54.0362V43.3778L52.1921 44.9405C52.8915 45.2902 53.3333 46.0051 53.3333 46.7871V49.9364C57.4131 45.0891 59.871 38.8316 59.871 32C59.871 28.4941 59.2236 25.1393 58.042 22.0488L41.1761 28.9242C40.7874 29.0826 40.5333 29.4605 40.5333 29.8802V34.8444H45.19V32.7111L48.5321 34.5503C48.8618 34.7317 49.0667 35.0783 49.0667 35.4546V35.8538C49.0667 36.0818 48.8818 36.2667 48.6538 36.2667H40.5333V40.5333H49.4566V38.4L52.7987 40.2392C53.1285 40.4206 53.3333 40.7671 53.3333 41.1435V41.5427C53.3333 41.7707 53.1485 41.9556 52.9204 41.9556H45.5111V47.9395C45.5111 48.642 45.1539 49.2963 44.563 49.6762L35.5556 55.4667V53.3333L40.5333 49.7778V41.9556H35.5556Z" fill="black"/>
</svg>
