<svg width="57" height="56" viewBox="0 0 57 56" fill="none" xmlns="http://www.w3.org/2000/svg">
<g clip-path="url(#clip0_8_48)">
<rect width="57" height="56" fill="white"/>
<path d="M37.0499 32.8857L32.1643 28L35.4214 24.7429L40.307 29.6285L37.0499 32.8857Z" fill="#F8F8F8"/>
<path d="M53.3354 16.6001L48.4498 11.7145L51.7069 8.45736L56.5926 13.343L53.3354 16.6001Z" fill="#F8F8F8"/>
<path d="M17.5086 36.1441L14.965 33.6005L21.4792 27.0863L24.0228 29.6299L17.5086 36.1441Z" fill="#F8F8F8"/>
<path fill-rule="evenodd" clip-rule="evenodd" d="M16.2858 39.8071L26.4643 49.9855L33.3485 43.1013C34.9291 41.5207 35.7194 40.7304 36.0156 39.819C36.276 39.0174 36.276 38.1539 36.0156 37.3522C35.7194 36.4409 34.9291 35.6506 33.3485 34.07L27.6857 28.4072L16.2858 39.8071ZM22.3929 39.3999L26.4643 43.4713L30.7392 39.1963C30.929 39.0066 31.0238 38.9118 31.0677 38.806C31.126 38.6649 31.126 38.5063 31.0677 38.3653C31.0238 38.2594 30.929 38.1647 30.7393 37.9749L27.2786 34.5142L22.3929 39.3999Z" fill="#F8F8F8"/>
<path d="M27.2786 19.8572L24.0215 16.6001L30.5357 10.0859L27.2786 6.82879L30.5357 3.57169L33.7928 6.82879L40.3071 0.314575L43.5642 3.57168L37.0499 10.0859L38.6785 11.7145L46.8213 3.57169L50.0784 6.82879L45.1927 11.7144L49.2641 15.7858C50.4399 16.9616 51.0278 17.5495 51.4033 18.1467C52.6869 20.1877 52.6869 22.7838 51.4033 24.8249C51.0278 25.422 50.4399 26.0099 49.2641 27.1857L46.007 23.9286C46.7807 23.1549 47.1676 22.768 47.3414 22.3342C47.5596 21.7896 47.5596 21.1819 47.3414 20.6374C47.1676 20.2035 46.7807 19.8167 46.007 19.0429L41.9356 14.9716L38.6785 18.2287L41.3684 20.9186C45.1927 24.7429 46.3513 29.2517 46.4527 29.9971L41.9356 31.2571C40.8803 27.5564 39.8185 25.8829 37.8642 23.9286L35.4214 21.4858L30.5357 26.3714L27.2786 23.1143L35.4214 14.9716L33.7928 13.343L27.2786 19.8572Z" fill="#F8F8F8"/>
<path fill-rule="evenodd" clip-rule="evenodd" d="M10.9931 36.1428H9.36449L9.36449 34.5142L7.73597 32.8857L0.407471 40.2142L15.8787 55.6854L19.3366 52.2275C20.6915 50.8727 21.3689 50.1953 21.6227 49.4141C21.8459 48.727 21.8459 47.9869 21.6227 47.2997C21.3689 46.5186 20.6915 45.8412 19.3366 44.4864L10.9931 36.1428ZM6.67961 40.4563L7.97805 39.1578L16.3244 47.5042C16.5141 47.6939 16.6089 47.7887 16.6528 47.8945C16.7112 48.0356 16.7112 48.1941 16.6528 48.3352C16.6089 48.441 16.5141 48.5359 16.3244 48.7256L15.6367 49.4133L6.67961 40.4563Z" fill="#F8F8F8"/>
<path d="M24.0215 21.4858H18.0314C14.9977 21.4858 13.4808 21.4858 12.3221 22.0762C11.3029 22.5955 10.4742 23.4242 9.9549 24.4434C9.3645 25.6022 9.3645 27.119 9.3645 30.1527L9.36449 34.5142L9.36449 36.1428H10.9931H14.2502V28.0988C14.2502 27.5622 14.2502 27.294 14.3378 27.0824C14.4547 26.8002 14.6789 26.576 14.961 26.4591C15.1727 26.3715 15.4409 26.3715 15.9775 26.3715H24.0215V21.4858Z" fill="#F8F8F8"/>
</g>
<defs>
<clipPath id="clip0_8_48">
<rect width="57" height="56" fill="white"/>
</clipPath>
</defs>
</svg>
