<svg width="40" height="23" viewBox="0 0 40 23" fill="none" xmlns="http://www.w3.org/2000/svg">
<path d="M30 14.5L33.5 2.5L37.5 3.5L34 16.5L30 20.5V14.5Z" stroke="white"/>
<path d="M29 13H31.5333V15.5333H29V13Z" fill="black" stroke="white"/>
<path d="M32 1H34.5333V3.53333H32V1Z" fill="black" stroke="white"/>
<path d="M36 2H38.5333V4.53333H36V2Z" fill="black" stroke="white"/>
<path d="M33 15H35.5333V17.5333H33V15Z" fill="black" stroke="white"/>
<path d="M29 19H31.5333V21.5333H29V19Z" fill="black" stroke="white"/>
<path d="M3 18.0759C7.4 14.8759 12.1667 16.0759 14 17.0759C18.4 19.4759 23.5 20.4092 25.5 20.5759" stroke="white"/>
<path d="M24 19H26.5333V21.5333H24V19Z" fill="black" stroke="white"/>
<path d="M9 15H11.5333V17.5333H9V15Z" fill="black" stroke="white"/>
<path d="M1 17H3.53333V19.5333H1V17Z" fill="black" stroke="white"/>
</svg>
