<svg width="88" height="81" viewBox="0 0 88 81" fill="none" xmlns="http://www.w3.org/2000/svg">
<path fill-rule="evenodd" clip-rule="evenodd" d="M71.4575 1.3151C72.3685 2.22613 72.3685 3.70321 71.4575 4.61424L66.1085 9.9632H73.8736C82.0334 9.9632 87.693 16.5781 87.693 24.7379V26.2931C87.693 27.5815 86.6486 28.626 85.3602 28.626C84.0718 28.626 83.0274 27.5815 83.0274 26.2931V24.7379C83.0274 19.1548 79.4566 14.6289 73.8736 14.6289H60.4765C59.533 14.6289 58.6823 14.0605 58.3213 13.1888C57.9602 12.3171 58.1598 11.3137 58.8269 10.6465L68.1583 1.3151C69.0694 0.404064 70.5464 0.404064 71.4575 1.3151Z" fill="white"/>
<path fill-rule="evenodd" clip-rule="evenodd" d="M17.0133 79.9485C16.1023 79.0375 16.1023 77.5604 17.0133 76.6494L22.3622 71.3004H14.7748C6.61501 71.3004 0.000160694 64.6855 0.000160694 56.5257V54.9705C0.000160694 53.6821 1.04461 52.6376 2.33301 52.6376C3.6214 52.6376 4.66585 53.6821 4.66585 54.9705V56.5257C4.66585 62.1088 9.1918 66.6347 14.7748 66.6347H27.9942C28.9378 66.6347 29.7884 67.2031 30.1495 68.0748C30.5106 68.9465 30.311 69.9499 29.6438 70.6171L20.3124 79.9485C19.4014 80.8595 17.9243 80.8595 17.0133 79.9485Z" fill="white"/>
<mask id="mask0_61_2" style="mask-type:alpha" maskUnits="userSpaceOnUse" x="6" y="2" width="76" height="76">
<rect x="6.90051" y="2.88849" width="74.651" height="74.651" fill="#D9D9D9"/>
</mask>
<g mask="url(#mask0_61_2)">
<path d="M16.232 61.9872C14.5213 61.9872 13.0573 61.3786 11.8401 60.1614C10.6208 58.9421 10.0111 57.4771 10.0111 55.7663V24.6617C10.0111 22.951 10.6208 21.487 11.8401 20.2697C13.0573 19.0504 14.5213 18.4408 16.232 18.4408H72.2203C73.9311 18.4408 75.3961 19.0504 76.6154 20.2697C77.8326 21.487 78.4412 22.951 78.4412 24.6617V55.7663C78.4412 57.4771 77.8326 58.9421 76.6154 60.1614C75.3961 61.3786 73.9311 61.9872 72.2203 61.9872H16.232ZM19.3425 55.7663V24.6617H16.232V55.7663H19.3425ZM25.5634 55.7663H62.8889V24.6617H25.5634V55.7663ZM69.1099 55.7663H72.2203V24.6617H69.1099V55.7663Z" fill="white"/>
</g>
</svg>
