<svg width="438" height="126" viewBox="0 0 438 126" fill="none" xmlns="http://www.w3.org/2000/svg">
<path d="M196.152 88.288C195.816 84.4 194.184 81.328 191.208 79.12C188.328 77.008 184.632 75.952 180.12 75.952C174.024 75.952 169.272 78.16 165.768 82.528C164.28 84.4 163.128 86.56 162.36 88.912C161.64 91.168 161.256 93.472 161.256 95.824C161.16 99.952 162.312 103.984 164.76 107.968C166.2 110.176 168.216 112 170.76 113.392C173.304 114.784 176.52 115.504 180.408 115.552C187.464 115.408 192.648 113.344 195.864 109.36V93.856H179.928V100H189.144V106.384C188.424 107.248 187.32 107.968 185.784 108.496C184.296 109.024 182.76 109.264 181.176 109.264C176.904 109.264 173.64 107.872 171.48 105.088C169.608 102.736 168.696 99.616 168.696 95.728C168.696 92.176 169.656 89.104 171.528 86.512C173.64 83.632 176.424 82.192 179.88 82.192C182.616 82.192 184.728 82.768 186.216 83.92C187.56 84.928 188.376 86.416 188.664 88.288H196.152ZM218.815 76.672H211.231V83.536H218.815V76.672ZM218.383 88.096H211.663V114.832H218.383V88.096ZM252.669 109.456C250.221 109.648 248.445 109.744 247.437 109.696C245.901 109.648 244.845 109.36 244.269 108.832C243.693 108.304 243.405 107.248 243.405 105.712V93.232H251.133V88.096H243.405V80.656H236.733V88.096H232.125V93.232H236.733V107.44C236.733 109.984 237.549 111.856 239.133 113.104C240.717 114.304 243.069 114.976 246.237 115.072C248.109 115.072 249.453 115.072 250.221 115.024L252.669 109.456ZM297.423 76.672H290.079V91.744H273.135V76.672H265.743V114.832H273.135V97.888H290.079V114.832H297.423V76.672ZM339.211 114.832C338.491 112.96 338.107 110.08 338.107 106.144V88.096H331.291V105.04C331.099 106.432 330.427 107.584 329.323 108.544C328.171 109.552 326.827 110.032 325.291 110.032C323.371 110.032 322.027 109.504 321.259 108.496C320.635 107.68 320.347 106.336 320.347 104.56V88.096H313.579V105.328C313.579 108.4 314.299 110.8 315.787 112.48C317.563 114.544 320.347 115.552 324.187 115.504C327.643 115.312 330.187 114.208 331.867 112.24C331.963 113.536 332.107 114.4 332.251 114.832H339.211ZM381.098 101.152C381.146 97.456 379.994 94.144 377.642 91.264C375.578 88.768 372.506 87.472 368.426 87.328C364.874 87.52 362.33 88.624 360.842 90.592V76.72H354.218V114.832H359.642L360.17 112.192C360.794 113.2 361.802 113.968 363.29 114.592C364.682 115.168 366.17 115.456 367.802 115.456C372.362 115.456 375.77 113.968 378.122 110.992C380.09 108.448 381.098 105.184 381.098 101.152ZM374.138 101.2C374.138 103.984 373.562 106.144 372.41 107.68C371.21 109.264 369.434 110.08 367.082 110.08C365.69 110.08 364.394 109.696 363.29 108.88C362.186 108.064 361.466 107.104 361.178 105.952C360.842 104.608 360.698 103.072 360.698 101.392C360.698 99.712 360.938 98.128 361.418 96.688C361.754 95.68 362.426 94.768 363.434 94C364.538 93.136 365.882 92.704 367.37 92.704C369.626 92.704 371.306 93.52 372.506 95.152C373.61 96.64 374.138 98.656 374.138 101.2Z" fill="black"/>
<path d="M192.552 20.288C194.904 22.4 196.008 24.224 196.872 25.568C197.544 26.672 198.216 27.152 199.032 27.152C200.232 27.152 201.096 26.24 201.096 25.136C201.096 24.224 200.808 23.408 199.848 22.544C198.216 21.056 195.72 20.288 192.936 19.712L192.552 20.288ZM184.056 31.616C186.792 30.944 190.392 30.176 193.224 29.696C195.48 29.312 195.864 28.16 195.864 26.816C195.864 25.232 191.88 23.984 190.056 23.984C189.672 23.984 188.28 25.088 186.12 25.856C185.304 26.144 184.392 26.432 183.096 26.816C182.904 25.616 182.76 24.608 182.664 23.744C182.568 22.448 183.24 21.632 183 20.288C182.76 18.848 178.44 17.264 176.52 17.264C175.272 17.264 173.16 18.272 171.48 19.28L171.528 19.856C175.08 21.296 175.224 21.68 175.8 23.216C176.184 24.224 176.712 26.048 177.336 28.352C173.4 29.36 168.936 30.512 167.736 30.512C166.488 30.512 165.96 30.224 164.712 29.6L164.328 29.84C164.52 30.944 164.568 31.472 165.096 32.336C166.152 34.064 168.696 36.032 170.232 36.032C171.576 36.032 172.728 35.264 174.216 34.592C175.416 34.064 176.952 33.536 178.536 33.056C178.92 34.784 179.448 37.04 180.024 39.488C174.408 41.024 167.304 43.04 165.96 43.04C164.952 43.04 164.232 42.752 162.696 41.744L162.264 41.984C162.264 43.568 162.552 44.672 163.032 45.536C163.608 46.592 166.824 48.944 169.08 48.896C170.376 48.848 171.192 47.984 172.632 47.216C174.6 46.16 177.912 44.864 180.984 43.904C181.224 45.248 181.512 46.544 181.752 47.84C182.28 50.48 182.232 52.832 182.472 53.84C182.952 56.24 184.44 58.928 186.6 58.88C188.808 58.832 189.768 57.632 189.768 56.096C189.768 53.936 189.144 52.448 188.28 49.28C187.848 47.696 187.32 45.584 186.552 42.368C191.208 41.216 195.24 40.592 200.568 40.16C202.872 39.968 203.304 38.576 203.304 37.424C203.304 35.648 199.992 34.304 196.824 34.304C196.392 34.304 195.816 34.784 194.712 35.216C192.36 36.128 189.096 37.04 185.544 38L184.056 31.616ZM197.064 16.88C199.752 19.04 200.664 20.528 201.432 21.584C202.296 22.784 202.872 23.36 203.88 23.36C205.032 23.36 205.704 22.592 205.704 21.44C205.704 20.288 205.272 19.328 204.072 18.464C202.632 17.456 200.28 16.736 197.4 16.352L197.064 16.88ZM236.376 35.216C237.576 38.288 237.192 40.496 239.832 40.496C241.272 40.496 242.856 39.44 242.856 37.52C242.856 34.592 241.128 32.576 238.44 31.232C237 30.512 235.752 30.368 234.216 29.984L233.832 30.56C234.552 31.28 235.848 33.824 236.376 35.216ZM253.944 38.48C254.52 37.376 255.96 36.272 255.96 35.216C255.96 32.96 252.264 29.696 249.432 29.792C248.568 29.84 247.272 30.08 246.504 30.32V30.8C247.704 31.52 248.76 32.384 248.76 33.344C248.76 39.008 238.536 52.736 227.352 58.064L227.688 58.688C240.312 56.096 249.624 47.312 253.944 38.48ZM228.168 38.288C229.272 40.976 229.416 43.568 231.816 43.568C233.832 43.568 234.888 42.32 234.888 40.736C234.888 37.952 232.968 35.552 229.848 34.16C228.984 33.776 227.496 33.2 225.96 32.864L225.576 33.392C226.44 34.544 227.304 36.08 228.168 38.288ZM287.112 19.712C288.792 20.144 290.472 20.768 290.856 22.4C291.336 24.416 291.528 30.848 291.528 34.928C291.528 37.376 291.432 43.136 291.048 46.736C290.808 48.992 290.376 50.24 290.376 51.632C290.376 56.144 292.008 58.736 294.984 58.736C297.288 58.736 297.912 57.488 297.912 54.368C297.912 53.792 297.768 52.064 297.672 49.424C297.48 45.872 297.336 40.832 297.528 34.544C299.688 35.696 301.032 36.704 302.184 37.856C306.312 41.888 306.312 45.056 310.104 45.056C312.264 45.056 313.56 43.376 313.56 41.456C313.56 38.336 312.12 36.8 309.672 35.36C306.936 33.776 302.52 32.72 297.576 32.432C297.672 29.648 297.768 27.44 298.056 25.856C298.392 23.984 299.544 23.36 299.544 21.728C299.544 19.904 294.696 17.312 292.104 17.312C290.424 17.312 288.504 18.272 287.064 19.088L287.112 19.712ZM347.832 32C347.832 35.36 340.632 45.968 332.472 52.016L332.952 52.736C341.16 49.376 349.704 42.8 353.64 38.048C354.792 36.704 356.568 35.744 356.568 34.352C356.568 31.856 352.92 26.864 348.936 26.864C347.592 26.864 345.864 27.2 344.808 27.488L344.712 28.112C346.776 29.168 347.832 30.512 347.832 32ZM377.544 44.72C377.448 37.232 368.616 30.032 359.736 26.864L359.256 27.488C365.064 32.48 367.704 38.528 369.432 45.584C370.104 48.272 371.112 50.192 373.464 50.144C375.912 50.096 377.592 47.456 377.544 44.72ZM431.256 25.712C432.456 25.712 433.32 24.8 433.32 23.696C433.32 22.784 433.032 21.968 432.072 21.104C430.44 19.616 427.944 18.848 425.16 18.272L424.776 18.848C427.128 20.96 428.232 22.784 429.096 24.128C429.816 25.232 430.44 25.712 431.256 25.712ZM435.672 21.968C436.824 21.968 437.496 21.2 437.496 20.048C437.496 18.896 437.064 17.936 435.864 17.072C434.424 16.064 432.072 15.344 429.192 14.96L428.856 15.488C431.544 17.648 432.456 19.136 433.224 20.192C434.088 21.392 434.664 21.968 435.672 21.968ZM395.976 22.688L395.4 22.928C395.352 24.176 395.256 25.136 395.592 26.576C396.072 28.688 398.856 32.288 401.352 32.288C402.552 32.288 403.848 31.28 404.856 30.992C407.592 30.224 416.616 27.824 420.456 27.824C420.696 27.824 420.84 28.016 420.792 28.256C418.776 38.432 408.888 51.056 396.12 57.872L396.6 58.736C412.872 53.936 421.752 44.816 427.896 33.248C428.712 31.712 430.68 31.184 430.68 29.264C430.68 27.344 424.872 22.112 422.232 22.112C420.648 22.112 420.648 22.88 418.296 23.408C415.56 24.032 405.096 25.136 400.68 25.136C398.856 25.136 397.56 24.128 395.976 22.688Z" fill="black"/>
<path d="M43.2419 116.793C38.5419 112.521 33.3014 108.856 28.2554 105.008C23.2448 101.186 19.581 96.9888 16.0879 91.7491C13.1604 87.3579 11.0286 82.5525 8.86746 77.7629C7.24707 74.1718 5.41745 70.4249 4.13869 66.7049C3.25842 64.1441 2.73465 62.2297 3.13837 59.4844C3.7488 55.3335 6.25224 51.5489 8.54008 48.1172C11.7394 43.3182 15.4295 38.8634 19.5072 34.7857C21.0713 33.2216 23.9268 30.7834 23.9268 28.4019" stroke="black" stroke-width="6" stroke-linecap="round"/>
<path d="M36.8311 15.9397C39.327 15.8472 42.3057 14.546 44.6517 13.6662C46.0741 13.1328 48.2528 12.1259 49.7442 12.0111C53.1486 11.7493 56.7808 10.3787 60.0748 9.64676C66.0768 8.31298 72.1663 9.20423 78.0077 10.8471C81.8627 11.9313 85.1015 14.3734 88.8111 15.9397C91.4411 17.0501 93.5085 19.2717 95.7588 20.9594C98.9386 23.3443 102.157 26.2414 104.671 29.3621C106.006 31.0197 108.046 32.3877 109.672 33.7635C110.586 34.5369 110.835 35.3347 111.473 36.3097C113.115 38.8219 112.455 42.3456 112.455 45.2216C112.455 49.4669 113.11 53.6297 113.11 57.8438C113.11 61.0626 112.782 64.3096 112.782 67.4832C112.782 71.0779 113.33 75.6109 111.8 78.9414C110.877 80.951 110.158 82.7319 108.854 84.5431C107.167 86.8855 105.278 88.7822 103.361 90.9088C100.887 93.6532 98.697 96.5723 96.1225 99.2387C94.4965 100.923 92.6678 102.597 91.4301 104.586C89.5686 107.578 87.7517 110.229 84.8462 112.297C84.042 112.87 83.1819 112.625 82.5 113.17C82.0168 113.557 81.3527 113.825 80.6995 113.825" stroke="black" stroke-width="6" stroke-linecap="round"/>
<path d="M83.646 118.081C82.7405 117.752 81.5103 115.653 81.027 114.807C80.779 114.373 79.7804 113.527 79.7175 113.17C79.514 112.017 77.9919 111.216 77.735 110.06C77.5737 109.334 77.0985 109.109 77.0985 108.26C77.0985 107.529 76.684 106.629 76.371 105.968C75.8646 104.899 75.3191 103.206 75.1524 102.039C74.9286 100.473 74.4795 98.6125 74.4795 97.1288C74.4795 95.4588 74.8068 93.8384 74.8068 92.2182C74.8068 90.5707 75.3747 89.1999 75.4616 87.6349C75.6212 84.763 80.429 84.7016 82.3183 83.379C83.8655 82.296 85.2478 81.3823 86.6651 80.0325C88.6832 78.1106 91.3449 76.8275 93.6128 75.1946C95.724 73.6746 97.0856 71.502 98.7053 69.6292C100.973 67.0078 100.342 62.3535 100.342 59.1168C100.342 56.6639 99.6398 54.3865 98.1233 52.5329C96.5634 50.6264 94.3551 49.1853 92.9762 47.0403C91.9137 45.3874 90.2831 44.569 90.9938 42.3115C92.2519 38.3153 96.9756 27.5094 89.2114 27.7251C86.6835 27.7953 83.4127 30.7127 81.8636 32.563C80.5074 34.1829 79.227 35.8085 77.6259 37.2008C76.8377 37.8863 75.937 39.8938 74.8068 39.3288C69.8647 36.8577 64.7758 34.3167 59.4929 32.6357C57.1206 31.8809 55.5101 31.3262 53.0363 31.3262C52.2411 31.3262 51.6132 31.4042 50.8356 31.5809C49.4267 31.9011 46.7411 32.6542 45.6704 33.6179C45.1822 34.0573 44.5018 34.1886 44.3427 34.7455C44.0645 35.7191 42.815 32.3563 42.7058 32.1447C41.9059 30.5949 39.7288 26.4172 37.6678 28.7072C34.7338 31.9673 34.693 38.3717 33.7211 42.4752C33.2565 44.437 32.6088 46.3624 31.9933 48.2771C31.9197 48.506 31.5321 49.9921 31.6296 50.114C31.8272 50.3611 32.2738 49.8535 32.5026 50.0594C32.7216 50.2565 32.5753 51.0971 32.5753 51.3689C32.5753 52.9399 32.685 54.5231 32.3207 56.0613C31.9161 57.7697 31.2658 58.9357 31.2658 60.6628C31.2658 63.1766 31.0127 65.4611 31.2658 67.9924C31.6169 71.5035 34.4563 74.6541 37.2313 76.5042C38.3855 77.2736 39.4526 78.1679 40.596 78.9595C41.0948 79.3048 42.3953 79.9249 42.7058 80.2872C43.4639 81.1716 45.0969 81.2499 45.6704 82.3969" stroke="black" stroke-width="6" stroke-linecap="round"/>
<path d="M44.3607 80.1052C46.3387 80.369 48.6586 81.4024 50.3989 82.3969C51.2512 82.8839 50.9082 85.0825 50.9082 85.9252C50.9082 96.3806 45.9961 93.1661 39.8502 89.7446C36.9313 88.1197 33.9248 86.6549 31.011 85.0159C29.4883 84.1594 27.8236 83.3517 26.2095 82.706C26.0844 82.656 24.7181 81.4318 24.7181 81.633C24.7181 82.6257 24.3592 84.6491 24.9727 85.416C25.6666 86.2834 26.0489 87.4039 26.846 88.2896C28.509 90.1373 29.2029 93.7746 31.011 95.4019C33.7068 97.8281 36.8374 99.9815 40.3958 101.076C42.1159 101.606 44.7366 102.019 45.7429 103.277C46.6735 104.44 47.9618 103.089 47.9618 104.658C47.9618 107.776 46.6523 110.655 46.6523 113.825" stroke="black" stroke-width="6" stroke-linecap="round"/>
</svg>
