<svg width="212" height="192" viewBox="0 0 212 192" fill="none" xmlns="http://www.w3.org/2000/svg">
<path d="M18.512 40.288C18.512 38.32 17.912 36.856 16.736 35.872C15.512 34.84 13.592 34.336 11 34.336H3.8V53.416H7.376V46.384H11.024C13.232 46.384 14.984 45.904 16.304 44.968C17.768 43.912 18.512 42.352 18.512 40.288ZM14.864 40.336C14.864 42.28 13.568 43.264 10.952 43.264H7.376V37.408H10.952C12.416 37.408 13.472 37.672 14.072 38.176C14.6 38.632 14.864 39.352 14.864 40.336ZM38.5595 46.672C38.5595 44.632 37.9115 42.952 36.6155 41.632C35.2955 40.312 33.5915 39.64 31.5035 39.64C29.4155 39.64 27.7115 40.312 26.3915 41.632C25.0955 42.952 24.4475 44.632 24.4475 46.672C24.4475 48.616 25.0235 50.248 26.1755 51.568C27.4715 53.056 29.2475 53.8 31.5035 53.8C33.7595 53.8 35.5355 53.056 36.8315 51.568C37.9835 50.248 38.5595 48.616 38.5595 46.672ZM35.0555 46.576C35.0555 47.872 34.7435 48.952 34.1195 49.792C33.4715 50.68 32.5835 51.136 31.5035 51.136C30.4235 51.136 29.5355 50.68 28.8875 49.792C28.2635 48.952 27.9515 47.872 27.9515 46.576C27.9515 45.424 28.2395 44.44 28.8395 43.624C29.4875 42.712 30.3755 42.256 31.5035 42.256C32.6315 42.256 33.5435 42.712 34.1915 43.624C34.7675 44.416 35.0555 45.4 35.0555 46.576ZM60.9318 40.048L59.1078 47.512C58.9398 48.4 58.7718 49.264 58.6038 50.128C58.3398 48.76 58.1478 47.92 58.0758 47.608L56.1078 40.24H52.7718L50.8038 47.632C50.6358 48.472 50.4438 49.336 50.2518 50.176C50.0358 48.856 49.8678 47.968 49.7478 47.536L47.9478 40.048H44.5158L48.6198 53.56H51.7638L53.8758 46.144C54.0438 45.496 54.2358 44.632 54.4278 43.552C54.7398 45.064 54.9318 45.904 55.0038 46.12L57.0918 53.56H60.2598L64.3878 40.048H60.9318ZM80.3362 48.832C80.0482 50.344 78.9922 51.088 77.1442 51.088C76.0402 51.088 75.1762 50.752 74.5282 50.08C73.8802 49.384 73.5442 48.448 73.5682 47.224H83.6962V46.312C83.6962 44.296 83.0962 42.688 81.8962 41.464C80.6962 40.24 79.1122 39.64 77.1202 39.64C75.0322 39.64 73.3522 40.36 72.1042 41.776C70.9282 43.144 70.3282 44.848 70.3282 46.936C70.3282 49.048 70.9522 50.728 72.2242 51.952C73.4722 53.176 75.1282 53.776 77.1922 53.776C79.0642 53.776 80.5762 53.344 81.7042 52.504C82.8562 51.64 83.5282 50.416 83.7202 48.832H80.3362ZM73.7362 44.848C73.8562 44.08 74.2402 43.456 74.8402 42.952C75.4642 42.448 76.2082 42.184 77.0722 42.184C78.0322 42.184 78.8242 42.448 79.4482 42.976C80.0482 43.48 80.3602 44.104 80.3842 44.848H73.7362ZM98.9082 39.688C98.0202 39.712 97.1562 39.88 96.3402 40.192C95.4042 40.552 94.7082 41.056 94.2522 41.704V40.048H90.9642V53.416H94.3242V45.28C94.4922 44.488 95.0922 43.816 96.1002 43.312C97.1322 42.808 98.3082 42.568 99.6522 42.64L98.9082 39.688ZM115.132 48.832C114.844 50.344 113.788 51.088 111.94 51.088C110.836 51.088 109.972 50.752 109.324 50.08C108.676 49.384 108.34 48.448 108.364 47.224H118.492V46.312C118.492 44.296 117.892 42.688 116.692 41.464C115.492 40.24 113.908 39.64 111.916 39.64C109.828 39.64 108.148 40.36 106.9 41.776C105.724 43.144 105.124 44.848 105.124 46.936C105.124 49.048 105.748 50.728 107.02 51.952C108.268 53.176 109.924 53.776 111.988 53.776C113.86 53.776 115.372 53.344 116.5 52.504C117.652 51.64 118.324 50.416 118.516 48.832H115.132ZM108.532 44.848C108.652 44.08 109.036 43.456 109.636 42.952C110.26 42.448 111.004 42.184 111.868 42.184C112.828 42.184 113.62 42.448 114.244 42.976C114.844 43.48 115.156 44.104 115.18 44.848H108.532ZM139.056 53.416C138.648 52.288 138.456 50.656 138.456 48.568V34.36H135.144V40.888C134.52 40.192 133.368 39.784 131.688 39.688C129.48 39.688 127.776 40.456 126.6 41.992C125.592 43.288 125.088 44.896 125.088 46.816C125.088 48.688 125.592 50.248 126.6 51.52C127.776 52.984 129.432 53.728 131.616 53.728C133.32 53.728 134.616 53.152 135.552 52.024C135.648 52.768 135.72 53.248 135.792 53.416H139.056ZM135.264 46.6C135.264 47.272 135.168 47.992 134.976 48.76C134.808 49.432 134.496 49.96 133.992 50.368C133.464 50.8 132.792 51.016 132 51.016C130.872 51.016 129.984 50.608 129.384 49.792C128.832 49.048 128.544 48.016 128.544 46.696C128.544 45.352 128.856 44.296 129.456 43.504C130.08 42.712 130.944 42.304 132.024 42.304C132.768 42.304 133.44 42.52 134.016 42.952C134.496 43.312 134.832 43.768 135 44.296C135.168 44.824 135.264 45.592 135.264 46.6ZM170.34 46.576C170.364 44.728 169.788 43.072 168.612 41.632C167.58 40.384 166.044 39.736 164.004 39.664C162.228 39.76 160.956 40.312 160.212 41.296V34.36H156.9V53.416H159.612L159.876 52.096C160.188 52.6 160.692 52.984 161.436 53.296C162.132 53.584 162.876 53.728 163.692 53.728C165.972 53.728 167.676 52.984 168.852 51.496C169.836 50.224 170.34 48.592 170.34 46.576ZM166.86 46.6C166.86 47.992 166.572 49.072 165.996 49.84C165.396 50.632 164.508 51.04 163.332 51.04C162.636 51.04 161.988 50.848 161.436 50.44C160.884 50.032 160.524 49.552 160.38 48.976C160.212 48.304 160.14 47.536 160.14 46.696C160.14 45.856 160.26 45.064 160.5 44.344C160.668 43.84 161.004 43.384 161.508 43C162.06 42.568 162.732 42.352 163.476 42.352C164.604 42.352 165.444 42.76 166.044 43.576C166.596 44.32 166.86 45.328 166.86 46.6ZM186.567 40.048C185.775 42.664 184.959 45.256 184.167 47.848C183.999 48.4 183.855 48.952 183.687 49.504C183.495 48.784 183.327 48.232 183.183 47.872L180.111 40.048H176.367L182.031 52.672C181.911 53.08 181.695 53.608 181.407 54.232C180.927 55.192 180.351 55.816 179.703 56.08C179.127 56.32 178.119 56.392 176.679 56.32L178.071 59.152C179.727 59.176 181.047 58.912 182.007 58.312C182.895 57.76 183.663 56.8 184.263 55.456C185.295 53.128 186.303 50.656 187.263 48.064C188.223 45.472 189.207 42.808 190.191 40.048H186.567Z" fill="black"/>
<path d="M15.152 15.36V19.464H20.792V15.36H15.152ZM12.368 12.792H23.696V23.064H20.792V22.056H15.152V23.088H12.368V12.792ZM21.08 8.208C20.408 7.536 19.784 6.832 19.208 6.096C18.648 5.36 18.176 4.64 17.792 3.936C17.424 4.608 16.976 5.32 16.448 6.072C15.92 6.808 15.32 7.52 14.648 8.208H21.08ZM8.264 5.688H6.224V14.136H8.264V5.688ZM19.088 1.032C19.472 1.736 19.912 2.432 20.408 3.12C20.904 3.792 21.424 4.432 21.968 5.04C22.528 5.632 23.104 6.176 23.696 6.672C24.304 7.152 24.92 7.552 25.544 7.872C25.256 8.256 24.976 8.704 24.704 9.216C24.448 9.712 24.208 10.176 23.984 10.608C23.584 10.352 23.184 10.072 22.784 9.768C22.4 9.448 22.016 9.112 21.632 8.76V10.752H14.096V8.76C13.712 9.128 13.312 9.472 12.896 9.792C12.496 10.112 12.088 10.408 11.672 10.68C11.496 10.248 11.256 9.768 10.952 9.24V16.776H6.224V18.744H3.584V3.072H10.952V7.632C11.528 7.216 12.08 6.744 12.608 6.216C13.152 5.688 13.656 5.136 14.12 4.56C14.584 3.968 15 3.368 15.368 2.76C15.736 2.152 16.048 1.576 16.304 1.032H19.088ZM37.664 13.008C37.44 13.568 37.176 14.144 36.872 14.736C36.584 15.312 36.264 15.88 35.912 16.44C35.576 16.984 35.216 17.512 34.832 18.024C34.448 18.52 34.048 18.96 33.632 19.344C33.488 19.216 33.32 19.08 33.128 18.936C32.936 18.776 32.736 18.624 32.528 18.48C32.32 18.336 32.112 18.2 31.904 18.072C31.696 17.928 31.512 17.808 31.352 17.712C31.72 17.376 32.08 16.992 32.432 16.56C32.784 16.128 33.104 15.672 33.392 15.192C33.696 14.712 33.96 14.224 34.184 13.728C34.424 13.232 34.616 12.76 34.76 12.312L37.664 13.008ZM47.192 11.088V19.872C47.192 20.592 47.112 21.16 46.952 21.576C46.792 21.992 46.472 22.312 45.992 22.536C45.528 22.76 44.968 22.904 44.312 22.968C43.672 23.032 42.92 23.064 42.056 23.064C41.992 22.632 41.872 22.144 41.696 21.6C41.52 21.056 41.336 20.584 41.144 20.184C41.4 20.2 41.664 20.216 41.936 20.232C42.208 20.232 42.464 20.232 42.704 20.232C42.944 20.232 43.152 20.232 43.328 20.232C43.52 20.216 43.656 20.208 43.736 20.208C44.04 20.208 44.192 20.08 44.192 19.824V11.088H41.912V12.192C41.912 13.024 41.856 13.928 41.744 14.904C41.648 15.864 41.424 16.832 41.072 17.808C40.72 18.768 40.2 19.72 39.512 20.664C38.824 21.592 37.904 22.448 36.752 23.232C36.64 23.072 36.488 22.888 36.296 22.68C36.12 22.488 35.928 22.296 35.72 22.104C35.528 21.912 35.328 21.728 35.12 21.552C34.912 21.376 34.72 21.224 34.544 21.096C35.568 20.44 36.376 19.736 36.968 18.984C37.56 18.216 38.008 17.44 38.312 16.656C38.632 15.856 38.832 15.072 38.912 14.304C39.008 13.52 39.056 12.792 39.056 12.12V11.088H32.12V8.352H41.288V5.88H34.496V3.144H41.288V0.696H44.192V3.144H51.584V5.88H44.192V8.352H53.624V11.088H47.192ZM50.6 12.096C50.936 12.56 51.28 13.056 51.632 13.584C52 14.112 52.344 14.648 52.664 15.192C53 15.72 53.304 16.24 53.576 16.752C53.864 17.264 54.088 17.728 54.248 18.144L51.512 19.44C51.368 19.024 51.168 18.56 50.912 18.048C50.672 17.52 50.392 16.984 50.072 16.44C49.768 15.88 49.44 15.32 49.088 14.76C48.752 14.2 48.416 13.68 48.08 13.2L50.6 12.096ZM65.984 8.232V6.432H63.56C63.432 6.768 63.296 7.088 63.152 7.392C63.008 7.68 62.872 7.96 62.744 8.232H65.984ZM68.696 8.232H73.952V10.8H68.696V12.552H73.376V18.672C73.376 19.232 73.32 19.688 73.208 20.04C73.096 20.376 72.864 20.648 72.512 20.856C72.176 21.064 71.776 21.192 71.312 21.24C70.864 21.288 70.336 21.304 69.728 21.288C69.696 20.92 69.608 20.512 69.464 20.064C69.336 19.616 69.192 19.216 69.032 18.864C69.368 18.896 69.672 18.912 69.944 18.912C70.216 18.912 70.408 18.904 70.52 18.888C70.632 18.888 70.704 18.872 70.736 18.84C70.784 18.808 70.808 18.728 70.808 18.6V15.096H68.696V23.064H65.984V15.096H64.016V21.168H61.472V12.552H65.984V10.8H60.536V8.232H62.336C62.032 8.072 61.664 7.904 61.232 7.728C60.8 7.552 60.448 7.416 60.176 7.32C60.672 6.552 61.104 5.616 61.472 4.512C61.856 3.392 62.16 2.256 62.384 1.104L65 1.656C64.92 2.024 64.832 2.392 64.736 2.76C64.656 3.112 64.56 3.472 64.448 3.84H65.984V0.816H68.696V3.84H72.992V6.432H68.696V8.232ZM77.696 16.152H75.032V2.64H77.696V16.152ZM82.064 1.08V19.704C82.064 20.472 81.976 21.064 81.8 21.48C81.624 21.912 81.32 22.248 80.888 22.488C80.44 22.712 79.872 22.856 79.184 22.92C78.496 23 77.688 23.04 76.76 23.04C76.744 22.848 76.704 22.624 76.64 22.368C76.576 22.128 76.504 21.88 76.424 21.624C76.36 21.368 76.28 21.112 76.184 20.856C76.104 20.6 76.016 20.368 75.92 20.16C76.528 20.176 77.104 20.192 77.648 20.208C78.208 20.208 78.592 20.208 78.8 20.208C78.992 20.192 79.128 20.152 79.208 20.088C79.288 20.024 79.328 19.888 79.328 19.68V1.08H82.064ZM97.232 1.632C96.912 2.48 96.56 3.32 96.176 4.152C95.792 4.984 95.376 5.808 94.928 6.624V23.064H92.048V11.064C91.792 11.368 91.536 11.664 91.28 11.952C91.04 12.24 90.8 12.52 90.56 12.792C90.496 12.616 90.4 12.392 90.272 12.12C90.144 11.848 90 11.568 89.84 11.28C89.696 10.992 89.544 10.712 89.384 10.44C89.24 10.152 89.104 9.92 88.976 9.744C89.52 9.2 90.056 8.592 90.584 7.92C91.112 7.232 91.608 6.504 92.072 5.736C92.552 4.952 92.992 4.144 93.392 3.312C93.792 2.464 94.144 1.616 94.448 0.767999L97.232 1.632ZM104.84 7.296V9.816H111.056V12.408H104.84V15.12H111.368V17.76H104.84V23.088H101.912V7.296H101C100.52 8.192 100.008 9.04 99.464 9.84C98.936 10.624 98.4 11.328 97.856 11.952C97.744 11.824 97.592 11.672 97.4 11.496C97.224 11.304 97.032 11.12 96.824 10.944C96.616 10.752 96.408 10.568 96.2 10.392C95.992 10.216 95.816 10.072 95.672 9.96C96.2 9.416 96.712 8.8 97.208 8.112C97.704 7.424 98.168 6.696 98.6 5.928C99.032 5.144 99.432 4.328 99.8 3.48C100.168 2.632 100.488 1.776 100.76 0.912L103.52 1.608C103.344 2.12 103.16 2.624 102.968 3.12C102.776 3.6 102.568 4.088 102.344 4.584H111.656V7.296H104.84Z" fill="black"/>
<path d="M6.13729 85.1113C6.34682 97.264 7.66585 109.344 6.8843 121.514C6.349 129.849 3.45898 137.078 2 145.102" stroke="black" stroke-width="3.74189" stroke-linecap="round"/>
<path d="M2.51709 148.722C9.02713 148.722 15.545 148.824 22.0543 148.722C24.2509 148.688 25.5001 147.679 27.3983 146.941C30.93 145.568 35.872 144.554 37.5691 140.735C38.1685 139.387 38.2012 136.942 38.2012 135.506C38.2012 132.837 38.8821 130.141 39.2355 127.49C40.0792 121.162 39.3446 114.843 40.9019 108.614C41.277 107.113 41.8213 105.807 41.8213 104.246C41.8213 101.578 40.787 99.1698 40.787 96.5178C40.787 95.4909 41.0546 89.3254 39.7527 89.2488C30.4218 88.6999 19.2296 90.1652 10.2745 87.1802" stroke="black" stroke-width="3.74189" stroke-linecap="round"/>
<path d="M22.1691 103.729C22.1691 110.179 22.6862 116.44 22.6862 122.864C22.6862 124.148 22.6862 125.431 22.6862 126.714C22.6862 128.451 21.6519 129.742 21.6519 131.369C21.6519 133.089 21.1348 134.519 21.1348 136.31" stroke="black" stroke-width="3.74189" stroke-linecap="round"/>
<path d="M40.7871 105.798C42.975 105.798 45.3304 103.988 46.993 102.695C49.2859 100.912 52.0295 99.8231 53.946 97.5233C56.3631 94.6228 59.0544 92.2863 61.4735 89.5648C62.479 88.4336 66.3637 85.8608 67.6795 85.6286C71.1473 85.0166 73.4777 88.5519 75.5518 91.3174C78.2999 94.9815 81.112 98.3002 83.4816 102.178C85.8049 105.979 86.4041 107.118 90.6644 106.344C93.7307 105.786 96.2407 103.825 99.4562 103.241C100.433 103.063 105.624 101.378 105.921 100.339C108.087 92.7571 99.1277 84.8803 93.3077 82.1234C86.6318 78.9612 79.7822 74.5691 73.1384 72.6709C73.1104 72.6628 71.8228 71.1962 71.8168 71.1481C71.666 69.9424 69.1317 70.8052 68.4839 71.1481C62.9559 74.0747 60.5629 81.029 54.2333 82.9279C48.4835 84.6528 43.7917 89.3143 39.2356 92.3517" stroke="black" stroke-width="3.74189" stroke-linecap="round"/>
<path d="M48.5445 111.487C48.5445 112.232 48.0752 117.965 48.8318 118.181C52.3089 119.174 57.2887 118.21 60.9277 118.21C65.4023 118.21 69.9318 117.997 74.4026 118.21C77.0156 118.334 79.5276 119.924 82.1313 120.25C84.0702 120.492 84.9253 115.639 85.148 114.302C85.4395 112.554 86.3481 106.718 83.9126 106.344C78.5908 105.525 72.523 106.315 67.1336 106.315C62.3705 106.315 57.5913 105.798 52.7967 105.798C49.007 105.798 51.9786 108.053 50.096 109.935" stroke="black" stroke-width="3.74189" stroke-linecap="round"/>
<path d="M45.4416 127.519C45.2643 139.396 40.7871 150.547 40.7871 162.283C40.7871 166.272 58.6353 164.754 61.7034 164.754C69.2746 164.754 76.851 165.74 84.2287 166.794C89.8708 167.6 91.4689 155.844 91.4689 152.314C91.4689 147.798 90.9367 142.838 91.4976 138.35C91.729 136.5 91.9861 134.843 91.9861 132.949C91.9861 130.607 92.7817 130.622 90.176 130.622C81.1089 130.622 72.0808 130.104 63.025 130.104C58.6579 130.104 54.2908 130.104 49.9236 130.104C48.6255 130.104 47.5917 130.064 46.4759 130.622" stroke="black" stroke-width="3.74189" stroke-linecap="round"/>
<path d="M53.199 144.585C53.199 146.277 53.3793 147.929 52.6819 149.498C52.1085 150.788 59.6617 150.274 61.215 150.274C67.1341 150.274 73.2721 150.791 79.2869 150.791C81.092 150.791 81.3491 150.214 82.6772 149.354C83.5185 148.81 86.9714 143.221 84.6309 143.034C74.2999 142.207 63.5537 143.034 53.199 143.034" stroke="black" stroke-width="3.74189" stroke-linecap="round"/>
<path d="M120.43 98.5574C120.43 101.292 119.324 103.476 118.85 106.085C118.72 106.8 117.687 111.617 117.959 111.889C118.735 112.664 123.061 113.038 124.309 113.038C127.093 113.038 129.664 112.521 132.411 112.521C133.227 112.521 139.53 111.924 139.565 112.521C139.706 114.923 139.579 117.241 139.077 119.502C138.846 120.539 138.701 121.481 138.502 122.577C138.336 123.49 137.09 124.045 136.979 124.933C136.722 126.99 133.582 126.484 132.21 126.484C126.091 126.484 119.208 125.538 113.218 126.771C111.932 127.036 109.829 127.208 108.794 128.036C108.012 128.661 107.805 131.631 107.099 132.69C106.148 134.116 106.305 135.987 105.432 137.459C104.51 139.015 104.112 139.413 106.237 139.413C112.733 139.413 119.193 140.136 125.688 140.419C137.533 140.934 149.228 141.033 160.998 142.516C167.341 143.315 173.913 143.55 180.306 143.55C181.393 143.55 182.487 143.662 183.524 143.292C186.048 142.39 186.8 136.596 187.546 134.356C187.888 133.33 187.661 131.962 187.661 130.88C187.661 129.742 185.459 129.887 184.558 129.587C180.348 128.184 176.042 128.553 171.629 128.553C170.406 128.553 161.898 129.427 161.803 127.806C161.696 125.991 160.315 124.683 160.251 122.979C160.176 120.944 159.734 119.043 159.734 116.974C159.734 116.028 157.87 108.731 158.987 108.412C162.839 107.312 168.191 108.901 172.146 108.901C177.464 108.901 182.607 109.935 187.92 109.935C189.403 109.935 188.695 105.026 188.695 103.729C188.695 101.517 187.619 99.0745 185.075 99.0745C177.049 99.0745 168.647 98.5574 160.481 98.5574C157.099 98.5574 158.7 91.0832 158.7 88.5302C158.7 84.9587 160.324 78.8501 155.109 81.9795C152.735 83.4034 148.988 82.9607 146.288 83.0425C143.64 83.1228 140.643 87.8198 140.053 90.0817C139.522 92.1195 138.184 101.093 135.83 101.143C131.552 101.234 125.306 101.513 121.464 99.5917" stroke="black" stroke-width="3.74189" stroke-linecap="round"/>
<path d="M126.766 142.684C126.245 145.551 124.71 148.689 123.538 151.327C121.85 155.126 119.851 159.168 117.387 162.535C116.268 164.064 115.125 165.666 113.693 166.91C113.234 167.309 110.663 169.078 110.663 169.636C110.663 171.026 114.127 173.335 115.146 173.958C116.868 175.011 118.722 175.855 120.436 176.899C122.708 178.282 124.91 179.913 127.394 180.898C130.33 182.062 130.727 181.511 132.415 179.158C135.82 174.411 137.457 168.837 139.534 163.413C140.207 161.657 140.173 159.885 140.646 158.105C141.182 156.085 141.739 154.068 142.26 152.044C142.833 149.816 143.228 147.251 143.228 144.943" stroke="black" stroke-width="3.74189" stroke-linecap="round"/>
<path d="M155.816 144.62C155.816 149.269 155.84 153.698 154.848 158.249C154.193 161.255 153.661 164.609 152.015 167.215C151.535 167.974 148.86 167.229 148.141 167.072C146.211 166.648 144.583 166.247 142.582 166.247C141.884 166.247 140.588 165.996 140.072 166.641C139.827 166.947 140.105 167.506 139.928 167.861C138.369 170.98 137.275 174.913 137.095 178.513C137.021 179.998 137.315 180.973 137.812 182.314C138.516 184.214 141.075 184.284 142.762 184.807C148.655 186.636 155.374 187.101 160.802 184C161.779 183.441 162.478 180.861 162.613 179.786C162.712 178.993 163.24 178.682 163.24 177.831C163.24 176.542 163.481 175.258 163.725 173.994C164.242 171.303 163.235 168.21 164.065 165.601C165.099 162.352 164.854 158.537 164.854 155.147C164.854 152.753 165.177 150.421 165.177 148.009C165.177 147.185 164.689 143.735 165.5 143.329" stroke="black" stroke-width="3.74189" stroke-linecap="round"/>
<path d="M101.266 149.462C101.266 150.664 100.751 151.779 100.441 152.941C100.158 154.004 99.0541 157.579 99.9748 158.5C101.806 160.331 104.386 160.366 106.753 159.791C107.892 159.514 109.03 159.203 110.16 158.894C110.727 158.74 110.501 158.369 110.949 158.105C111.856 157.572 112.111 155.675 112.563 154.77C113.3 153.297 113.903 151.308 114.751 150.036C114.798 149.965 107.274 149.139 106.502 149.139C104.972 149.139 103.442 149.139 101.912 149.139" stroke="black" stroke-width="3.74189" stroke-linecap="round"/>
<path d="M177.766 153.981C177.529 156.23 177.65 158.527 177.371 160.76C177.155 162.487 176.651 164.185 176.493 165.924C176.444 166.453 175.983 170.5 176.69 170.945C177.728 171.599 180.416 171.089 181.567 171.089C183.334 171.089 185.786 171.51 187.395 170.605C188.026 170.25 189.251 168.868 189.368 168.166C189.939 164.739 191 161.472 191 157.998C191 152.148 181.387 153.013 177.443 153.013" stroke="black" stroke-width="3.74189" stroke-linecap="round"/>
<path d="M177.775 87.7486C177.916 86.6171 185.618 88.0115 186.633 88.0649C187.364 88.1034 188.317 88.5909 189.006 88.8558C190.037 89.2527 191.221 88.8746 192.292 89.1722C193.996 89.6455 195.887 89.6908 197.53 90.4377C198.431 90.8473 199.361 90.6537 200.307 91.1583C201.264 91.669 202.422 91.7024 203.4 92.1777C205.143 93.0241 206.9 93.6569 208.462 94.8843C210.666 96.6161 210.36 99.2214 210.36 101.844C210.36 105.604 209.071 108.508 208.146 112.109C207.867 113.193 207.351 114.477 207.214 115.571C207.121 116.315 206.673 116.88 206.581 117.522C206.354 119.116 206.567 120.953 204.666 121.529C201.315 122.545 197.29 123.498 193.751 123.498C193.162 123.498 190.082 123.498 192.011 123.498C194.955 123.498 198.652 122.864 201.502 123.656C203.034 124.081 204.359 124.478 205.685 125.396C207.141 126.404 206.88 126.935 206.88 128.7C206.88 130.453 206.889 132.107 206.581 133.797C206.465 134.439 206.751 135.225 206.493 135.836C206.336 136.209 205.977 136.735 205.931 137.101C205.842 137.816 204.902 138.526 204.666 139.175C204.156 140.577 203.623 141.968 203.383 143.411C203.19 144.567 202.701 145.329 202.767 146.592C202.859 148.334 204.693 149.735 204.964 151.496C205.615 155.728 205.931 159.912 205.931 164.238C205.931 166.407 205.471 169.179 204.824 171.251C204.468 172.391 204.033 173.307 204.033 174.502C204.033 175.722 202.93 176.453 202.785 177.613C202.626 178.882 201.743 180.752 201.045 181.849C199.284 184.616 196.617 185.896 193.575 187.227C192.09 187.877 190.602 188.205 189.058 188.739C188.43 188.956 188.379 189.301 187.582 189.301C187.062 189.301 186.551 189.149 186.316 189.618" stroke="black" stroke-width="3" stroke-linecap="round"/>
<path d="M101.848 72.563C103.456 73.4568 104.728 74.9027 106.154 76.043C108.282 77.7457 110.891 78.9779 112.903 80.7884C114.388 82.1253 115.92 83.4714 117.349 84.9012C118.504 86.0562 119.83 87.0269 121.146 87.9945C122.022 88.6385 123.825 89.3109 124.309 90.2793" stroke="black" stroke-width="3" stroke-linecap="round"/>
<path d="M99.2893 173.331C99.2893 178.169 95.6934 181.171 90.8692 181.171C85.9609 181.171 81.0526 181.171 76.1443 181.171" stroke="black" stroke-width="3" stroke-linecap="round"/>
</svg>
