<svg width="738" height="272" viewBox="0 0 738 272" fill="none" xmlns="http://www.w3.org/2000/svg">
<path d="M14.535 217.658H6.45667V259.093H14.535V217.658ZM67.2515 217.658H59.6422L59.7986 240.017C59.9028 243.092 60.007 246.115 60.1113 249.138C58.4956 245.75 57.2448 243.196 56.2545 241.581L42.4432 217.658H32.9576V259.093H40.5148L40.3584 234.753C40.3063 231.678 40.2021 228.655 40.0978 225.58C41.7135 229.177 42.9643 231.73 43.8504 233.19L58.5477 259.093H67.2515V217.658ZM106.165 217.242H98.2432L82.1907 259.145H90.6339L94.4907 248.565H109.866L113.774 259.145H122.218L106.165 217.242ZM96.3148 241.998L100.38 230.688C101.162 228.655 101.735 226.779 102.152 225.164C102.777 227.3 103.403 229.125 103.976 230.688L108.041 241.998H96.3148ZM169.646 247.47C169.646 244.812 168.864 242.519 167.249 240.695C165.685 238.871 163.548 237.672 160.89 237.099C162.923 236.682 164.591 235.639 165.894 233.919C167.197 232.199 167.874 230.375 167.874 228.343C167.874 224.33 166.102 221.411 162.506 219.587C159.952 218.284 156.773 217.658 152.916 217.658H137.124V259.093H154.011C164.434 259.093 169.646 255.236 169.646 247.47ZM160.004 228.916C160.004 230.74 159.222 232.147 157.711 233.138C156.356 234.024 154.636 234.493 152.603 234.493H144.838V223.965H152.603C154.897 223.965 156.721 224.434 158.024 225.32C159.327 226.206 160.004 227.405 160.004 228.916ZM161.724 246.48C161.724 248.825 160.89 250.545 159.275 251.535C157.919 252.369 155.783 252.786 152.916 252.786H144.838V240.643H152.186C155.314 240.643 157.659 241.112 159.275 242.102C160.89 243.092 161.724 244.552 161.724 246.48ZM206.513 217.242H198.591L182.539 259.145H190.982L194.839 248.565H210.214L214.123 259.145H222.566L206.513 217.242ZM196.663 241.998L200.728 230.688C201.51 228.655 202.083 226.779 202.5 225.164C203.126 227.3 203.751 229.125 204.324 230.688L208.39 241.998H196.663ZM271.401 259.093C265.721 251.066 259.988 243.04 254.255 235.014L269.838 217.658H260.196L245.186 235.17V217.658H237.42V259.093H245.186V243.666L248.782 239.965C253.108 246.376 257.434 252.734 261.76 259.093H271.401ZM319.708 217.658H311.63V242.988C311.63 246.376 310.9 248.825 309.493 250.441C307.982 252.161 305.532 253.047 302.144 253.047C298.652 253.047 296.203 252.161 294.691 250.441C293.336 248.877 292.659 246.428 292.659 243.04V217.658H284.581V242.988C284.581 244.187 284.633 245.385 284.789 246.636C285.05 250.441 286.457 253.516 289.115 255.861C292.19 258.571 296.516 259.926 302.144 259.926C307.982 259.926 312.412 258.467 315.435 255.601C317.884 253.255 319.239 250.18 319.5 246.48C319.552 245.333 319.656 244.187 319.708 242.988V217.658ZM379.89 217.658H369.414L360.137 243.978C359.564 245.855 359.043 247.731 358.469 249.555C357.687 246.845 357.166 245.021 356.801 244.03L347.837 217.658H337.309V259.093H344.658L344.449 235.691C344.241 229.75 344.085 226.206 343.98 225.007C343.98 224.851 344.032 224.799 344.189 224.799C344.241 224.851 344.293 224.903 344.345 225.007C345.388 229.125 346.013 231.626 346.274 232.408L354.821 257.737H362.17L370.613 232.877C371.29 230.949 372.02 228.343 372.802 225.007C372.802 224.903 372.854 224.851 373.01 224.851C373.114 224.851 373.167 224.903 373.167 225.007C372.906 229.646 372.802 233.242 372.802 235.9L372.541 259.093H379.89V217.658ZM437.213 238.193C437.161 231.835 435.285 226.727 431.689 222.818C428.04 218.909 423.089 216.877 416.887 216.772C410.789 216.772 405.89 218.753 402.137 222.766C398.437 226.727 396.561 231.887 396.561 238.193C396.561 244.291 398.229 249.294 401.564 253.307C405.265 257.737 410.372 259.979 416.887 259.979C423.402 259.979 428.509 257.737 432.21 253.307C435.545 249.294 437.213 244.239 437.213 238.193ZM428.978 237.933C428.978 242.31 427.936 245.907 425.903 248.669C423.714 251.64 420.692 253.099 416.887 253.099C413.082 253.099 410.059 251.64 407.871 248.669C405.786 245.855 404.743 242.258 404.743 237.933C404.743 234.128 405.734 230.844 407.662 228.186C409.903 225.111 412.978 223.6 416.887 223.6C420.796 223.6 423.819 225.111 426.06 228.186C427.988 230.844 428.978 234.128 428.978 237.933ZM488.866 259.093C487.459 257.268 486.104 255.236 484.905 252.995C483.654 250.754 482.403 248.565 481.153 246.376C479.537 243.718 478.13 241.789 476.879 240.591C479.328 239.809 481.309 238.297 482.716 236.108C484.019 234.128 484.644 231.991 484.644 229.75C484.644 221.672 479.224 217.658 468.436 217.658H453.895V259.093H461.608V242.102H469.374C470.468 242.832 472.24 245.438 474.69 249.92C477.139 254.558 478.911 257.633 479.902 259.093H488.866ZM476.722 229.75C476.722 231.678 475.941 233.19 474.429 234.232C473.022 235.17 471.198 235.639 468.905 235.639H461.608V224.225H468.019C471.146 224.225 473.387 224.694 474.794 225.633C476.097 226.519 476.722 227.874 476.722 229.75ZM511.339 217.658H503.261V259.093H511.339V217.658ZM582.482 247.366C582.482 243.77 581.18 240.851 578.626 238.714C576.749 237.151 573.883 235.796 569.974 234.701C567.003 233.815 565.388 233.346 565.231 233.294C561.322 232.46 559.394 230.792 559.446 228.291C559.446 226.727 560.124 225.476 561.427 224.538C562.625 223.652 564.137 223.235 565.909 223.235C570.652 223.235 573.153 225.32 573.518 229.541H581.492C581.44 225.633 579.929 222.558 577.062 220.212C574.248 217.919 570.652 216.772 566.274 216.772C562.156 216.772 558.664 217.867 555.85 220.108C552.983 222.401 551.524 225.32 551.524 228.812C551.524 234.076 554.912 237.724 561.739 239.652L566.899 241.06C569.036 241.685 570.652 242.415 571.746 243.196C573.31 244.343 574.091 245.75 574.091 247.47C574.091 249.399 573.362 250.91 571.902 251.952C570.652 252.838 569.088 253.307 567.16 253.307C564.658 253.307 562.73 252.786 561.322 251.796C559.498 250.493 558.508 248.252 558.352 245.177H549.856C550.117 250.493 552.045 254.402 555.694 256.904C558.56 258.884 562.365 259.874 567.055 259.874C571.277 259.874 574.821 258.832 577.688 256.747C580.867 254.454 582.482 251.327 582.482 247.366ZM619.653 217.242H611.731L595.679 259.145H604.122L607.978 248.565H623.353L627.262 259.145H635.705L619.653 217.242ZM609.803 241.998L613.868 230.688C614.65 228.655 615.223 226.779 615.64 225.164C616.265 227.3 616.891 229.125 617.464 230.688L621.529 241.998H609.803ZM684.854 217.658H677.245L677.401 240.017C677.505 243.092 677.609 246.115 677.714 249.138C676.098 245.75 674.847 243.196 673.857 241.581L660.046 217.658H650.56V259.093H658.117L657.961 234.753C657.909 231.678 657.804 228.655 657.7 225.58C659.316 229.177 660.567 231.73 661.453 233.19L676.15 259.093H684.854V217.658ZM733.514 247.366C733.514 243.77 732.211 240.851 729.657 238.714C727.781 237.151 724.914 235.796 721.005 234.701C718.034 233.815 716.419 233.346 716.262 233.294C712.354 232.46 710.425 230.792 710.477 228.291C710.477 226.727 711.155 225.476 712.458 224.538C713.657 223.652 715.168 223.235 716.94 223.235C721.683 223.235 724.184 225.32 724.549 229.541H732.523C732.471 225.633 730.96 222.558 728.093 220.212C725.279 217.919 721.683 216.772 717.305 216.772C713.187 216.772 709.696 217.867 706.881 220.108C704.015 222.401 702.555 225.32 702.555 228.812C702.555 234.076 705.943 237.724 712.77 239.652L717.93 241.06C720.067 241.685 721.683 242.415 722.777 243.196C724.341 244.343 725.123 245.75 725.123 247.47C725.123 249.399 724.393 250.91 722.934 251.952C721.683 252.838 720.119 253.307 718.191 253.307C715.689 253.307 713.761 252.786 712.354 251.796C710.529 250.493 709.539 248.252 709.383 245.177H700.888C701.148 250.493 703.076 254.402 706.725 256.904C709.591 258.884 713.396 259.874 718.087 259.874C722.308 259.874 725.852 258.832 728.719 256.747C731.898 254.454 733.514 251.327 733.514 247.366Z" fill="black"/>
<path d="M6.648 31.74C7.224 36.96 10.32 40.272 13.272 41.496C15.936 42.576 18.024 41.604 18.024 39.624C18.024 38.292 17.448 38.508 17.376 36.024C17.34 34.692 17.952 31.596 18.744 28.608L18.096 28.32C16.728 30.804 15.396 32.964 14.136 34.656C13.704 35.196 13.164 35.232 12.624 35.016C11.652 34.656 10.248 33 10.248 30.624C10.248 25.656 12.48 23.784 12.48 21.948C12.48 20.184 10.176 17.952 8.088 17.088C6.828 16.584 5.1 16.548 4.092 16.656L3.984 17.016C5.568 18.384 6.756 20.184 6.756 22.308C6.756 25.224 6.324 28.752 6.648 31.74ZM29.4 27.672C30.228 30.948 29.904 32.352 30.408 33.864C30.768 34.908 31.74 35.304 32.604 35.304C34.764 35.304 35.664 33.756 35.664 31.056C35.664 28.104 34.728 25.332 32.46 23.352C30.084 21.228 27.744 19.968 23.748 19.968L23.64 20.436C26.736 21.912 28.68 24.756 29.4 27.672ZM91.14 13.776C91.428 13.92 92.04 14.208 92.652 14.748C93.264 15.288 93.624 15.828 93.624 16.584C93.624 17.34 93.516 18.168 93.336 19.068C92.184 19.284 90.852 19.5 89.772 19.5C87.54 19.5 86.244 18.564 84.732 17.484L84.264 17.7C85.164 22.416 86.604 23.28 89.772 23.28C90.492 23.28 91.284 23.244 92.112 23.172C90.528 27.456 88.368 30.732 85.956 33.576C85.2 34.476 84.948 35.196 84.948 36.24C84.948 37.752 85.812 39.192 87.324 39.192C88.512 39.192 89.34 38.04 90.456 36.276C93.048 32.028 94.992 26.16 96.144 22.56C98.592 22.056 100.896 21.3 102.192 20.436C102.912 19.932 103.236 19.5 103.236 18.6C103.236 17.16 101.976 16.548 101.112 16.548C100.68 16.548 99.888 17.124 97.728 17.88C98.592 15.432 98.988 14.136 98.232 13.56C97.44 12.912 96.144 12.408 94.488 12.408C93.336 12.408 91.86 12.876 91.14 13.272V13.776ZM102.876 37.572C102.876 39.624 101.112 40.488 98.88 40.488C96.432 40.488 95.568 39.66 95.568 38.508C95.568 37.428 96.72 36.096 99.492 36.096C100.716 36.096 101.868 36.24 102.876 36.456C102.876 36.888 102.876 37.248 102.876 37.572ZM104.748 20.148C106.26 20.328 107.448 20.796 108.132 21.408C108.348 21.624 108.528 21.876 108.636 22.128C107.556 22.74 105.648 23.496 104.136 25.404C103.128 26.7 102.804 28.428 102.804 30.804C102.804 31.56 102.804 32.46 102.84 33.324C102.552 33.324 102.3 33.324 102.012 33.324C96.504 33.324 93.66 36.348 93.66 39.336C93.66 42.288 96.18 44.412 100.284 44.412C104.64 44.412 107.268 42.72 107.268 39.408C107.268 39.048 107.268 38.652 107.232 38.256C108.168 38.868 108.96 39.48 109.608 40.056C111.336 41.532 111.876 42.72 113.172 42.72C114.144 42.72 115.224 42.072 115.224 40.308C115.224 38.328 113.208 36.6 110.652 35.34C109.572 34.8 108.276 34.26 106.656 33.864C106.296 32.1 105.936 30.516 105.756 29.508C105.504 28.068 105.288 26.772 105.684 26.016C106.08 25.26 107.124 24.9 108.06 24.9C110.292 24.9 111.408 26.268 113.136 26.268C114.504 26.268 114.936 25.26 114.936 23.892C114.936 21.588 113.208 19.86 110.616 19.176C109.14 18.78 106.908 18.744 104.712 19.608L104.748 20.148Z" fill="black"/>
<path d="M183.932 13.38C185.696 14.964 186.308 16.296 186.848 17.448C187.28 18.312 187.604 18.78 188.324 18.816C189.08 18.816 189.836 18.348 189.836 17.268C189.836 16.62 189.62 16.044 188.972 15.36C188 14.316 186.092 13.452 184.148 13.02L183.932 13.38ZM167.48 28.752C166.472 30.552 164.564 34.044 163.664 35.376C163.304 35.952 162.908 35.916 162.656 35.34C162.512 34.944 162.44 34.08 162.44 33.36C162.44 29.832 163.916 26.232 165.464 23.676C166.256 22.236 166.868 21.516 166.868 20.4C166.868 18.204 164.708 16.008 163.412 15.252C162.404 14.64 161.468 14.28 160.064 14.028L159.812 14.388C160.568 15.288 161.576 17.016 161.576 18.852C161.576 20.688 161.252 22.236 160.784 24C160.244 26.16 159.272 30.804 159.272 33.576C159.272 37.968 160.064 40.884 161.576 42.864C162.368 43.944 163.376 44.628 164.384 44.628C165.824 44.628 166.616 43.728 166.616 42.108C166.616 40.884 165.824 39.624 165.824 38.22C165.824 37.68 165.932 36.924 166.22 35.34C166.544 34.044 167.552 31.056 168.236 29.076L167.48 28.752ZM179.576 36.636C179.576 38.94 178.604 40.056 175.112 40.056C173.636 40.056 172.088 39.588 172.088 38.4C172.088 36.996 173.852 36.168 175.76 36.168C177.02 36.168 178.28 36.276 179.576 36.636ZM175.58 16.26C176.408 16.44 177.38 16.62 178.208 16.98C178.892 17.268 179.252 17.304 179.252 19.212V22.2C178.064 22.416 176.768 22.56 175.256 22.56C174.032 22.56 172.412 22.236 170.432 21.012L170.072 21.3C171.764 25.944 173.78 26.16 176.156 26.16C177.164 26.16 178.172 26.088 179.216 25.98V27.528C179.216 29.436 179.324 31.524 179.432 33.288C179.036 33.252 178.676 33.252 178.28 33.252C173.996 33.252 170.144 34.872 170.144 38.688C170.144 42.036 173.168 43.836 176.444 43.836C181.34 43.836 183.752 42.216 183.86 38.652C184.508 39.084 185.156 39.588 185.804 40.2C187.28 41.532 187.892 42.18 188.864 42.18C190.016 42.18 190.808 41.352 190.808 39.876C190.808 38.976 190.412 38.148 189.584 37.32C188.36 36.096 186.452 34.656 183.428 33.864C183.248 32.208 183.068 30.228 183.068 27.6C183.068 26.88 183.068 26.124 183.104 25.404C184.94 25.044 186.452 24.612 187.136 24.324C189.044 23.532 189.728 23.28 189.728 21.876C189.728 20.544 188.072 19.824 186.488 19.824C186.344 19.824 185.48 20.328 183.428 21.048C183.536 20.148 183.644 19.428 183.752 18.96C183.968 17.808 184.364 17.448 184.364 16.512C184.364 15.396 181.916 13.992 179.036 13.992C177.992 13.992 176.48 15 175.472 15.792L175.58 16.26ZM186.488 11.328C188.432 12.66 189.332 14.064 189.836 14.892C190.304 15.684 190.736 16.116 191.348 16.116C192.248 16.116 192.68 15.432 192.68 14.604C192.68 14.064 192.392 13.236 191.6 12.66C190.448 11.76 188.9 11.256 186.668 10.968L186.488 11.328ZM255.392 15.396C255.392 15.936 255.176 16.368 254.672 17.052C253.412 18.78 248.3 24.324 246.32 26.736C245.492 27.78 245.204 28.464 245.204 29.256C245.204 29.904 245.6 30.84 246.464 31.56C250.604 35.124 253.52 38.004 254.78 40.092C255.716 41.676 256.148 42.468 256.616 43.296C257.12 44.088 258.02 44.772 259.172 44.772C261.548 44.772 262.268 43.08 262.268 41.82C262.268 40.488 261.98 39.444 260.612 37.716C258.2 34.692 253.7 32.316 250.388 30.156C249.668 29.688 249.056 29.184 249.056 28.644C249.056 28.176 249.452 27.672 250.352 26.808C251.9 25.296 255.896 22.344 258.632 20.58C260.36 19.464 261.728 19.176 261.728 17.844C261.728 16.368 259.856 13.956 257.372 12.768C256.4 12.3 255.176 12.156 253.916 12.12L253.628 12.588C254.42 13.488 255.392 14.532 255.392 15.396Z" fill="black"/>
<path d="M319.924 27.6C319.924 26.196 322.588 24.828 324.892 24.72C324.604 26.232 324.28 27.996 323.992 29.76C321.832 29.472 319.924 28.824 319.924 27.6ZM332.488 25.692C335.476 28.032 337.636 30.516 337.636 34.62C337.636 38.364 334.504 40.812 330.832 40.812C327.52 40.812 325.684 39.372 325.684 36.204C325.684 35.7 325.72 35.124 325.792 34.584C327.16 34.764 328.636 34.764 329.788 34.584C331.372 34.332 332.416 33.504 332.416 32.244C332.416 30.732 331.516 30.048 329.932 29.976C329.14 29.94 328.024 29.976 326.764 29.94C327.268 28.176 327.88 26.412 328.456 24.9C329.068 24.936 329.68 24.936 330.256 24.9C331.408 24.792 332.2 24.468 332.2 23.208C332.2 22.272 331.66 21.264 330.184 20.796C330.652 19.86 331.084 19.212 331.444 18.6C331.876 17.916 332.56 17.34 332.56 16.404C332.56 15 329.752 12.516 327.196 12.516C325.936 12.516 325.108 12.768 324.352 13.092L324.316 13.524C324.856 13.74 325.36 14.028 325.756 14.316C326.332 14.748 326.8 15.216 326.8 16.008C326.8 16.692 326.476 18.06 325.936 20.4C324.676 20.292 323.308 20.112 321.868 19.68C320.176 19.14 319.168 18.132 318.376 17.016L318.016 17.196C318.232 19.932 318.952 20.976 319.924 21.84C320.644 22.488 321.328 22.812 322.12 23.1C319.816 24.504 318.196 26.52 318.196 28.608C318.196 30.804 320.068 32.964 323.416 34.08C323.344 35.052 323.272 35.952 323.272 36.672C323.272 41.244 325.828 44.628 331.876 44.628C339.76 44.628 342.604 39.732 342.604 35.844C342.604 31.2 339.04 27.348 332.812 25.26L332.488 25.692ZM402.328 18.528C402.328 21.12 400.816 26.664 400.816 29.94C400.816 31.596 400.996 32.964 401.5 34.152C402.04 35.376 402.832 36.06 404.164 36.06C405.424 36.06 406.396 35.232 406.396 34.008C406.396 32.136 406.108 30.804 406.108 28.968C406.108 26.88 406.54 24.684 407.656 22.488C408.88 20.004 410.356 18.852 411.544 18.852C413.488 18.852 414.676 21.12 414.676 27.744C414.676 33.432 413.416 40.632 403.552 44.52L403.768 45.132C415.396 43.62 420.112 37.14 420.112 28.572C420.112 20.076 416.98 16.728 412.984 16.728C410.536 16.728 408.448 18.6 406.468 22.128C406.18 22.668 405.928 22.632 405.928 22.02C405.928 21.624 406.18 20.58 406.612 19.428C406.936 18.6 407.296 17.808 407.296 16.728C407.296 15.288 405.424 13.272 403.372 12.48C402.508 12.156 401.14 11.94 400.276 12.012L400.168 12.264C401.68 14.064 402.328 15.864 402.328 18.528Z" fill="black"/>
<path d="M472.62 19.788C472.584 20.76 472.692 21.768 472.944 22.524C473.448 24.144 475.284 26.16 476.58 26.16C477.66 26.16 478.776 25.44 480.684 24.972C482.7 24.468 488.82 23.568 490.44 23.568C490.764 23.568 490.908 23.712 490.872 24.072C490.764 25.98 489.972 30.768 489.216 34.44C484.824 34.944 477.3 35.844 475.536 35.844C473.988 35.844 473.052 35.268 471.864 34.152L471.468 34.296C471.36 34.98 471.468 36.204 471.828 37.176C472.44 38.796 474.42 40.74 476.112 40.74C477.3 40.74 478.38 40.236 479.82 39.804C481.404 39.336 484.752 38.544 488.46 38.544C491.556 38.544 493.716 39.12 495.12 39.12C496.38 39.12 497.028 38.58 497.028 37.644C497.028 36.312 496.092 34.8 494.148 34.296C495.012 31.416 495.804 28.536 496.416 26.376C496.812 24.972 498.144 24.324 498.144 23.136C498.144 21.264 493.608 18.564 492.132 18.564C490.944 18.564 490.656 19.788 488.964 20.004C487.128 20.256 478.344 21.228 476.364 21.228C475.104 21.228 474.42 20.688 473.052 19.608L472.62 19.788ZM492.744 14.82C494.508 16.404 495.336 17.772 495.984 18.78C496.488 19.608 496.992 19.968 497.604 19.968C498.504 19.968 499.152 19.284 499.152 18.456C499.152 17.772 498.936 17.16 498.216 16.512C496.992 15.396 495.12 14.82 493.032 14.388L492.744 14.82ZM496.128 12.264C498.144 13.884 498.828 15 499.404 15.792C500.052 16.692 500.484 17.124 501.24 17.124C502.104 17.124 502.608 16.548 502.608 15.684C502.608 14.82 502.284 14.1 501.384 13.452C500.304 12.696 498.54 12.156 496.38 11.868L496.128 12.264ZM557.364 18.78C559.272 20.616 559.92 21.984 562.008 21.984C563.196 21.984 564.168 20.832 564.168 19.68C564.168 16.872 561.504 15.648 558.984 15.252C556.464 14.856 554.736 14.964 553.62 15.072L553.476 15.612C554.7 16.404 555.888 17.376 557.364 18.78ZM554.124 37.536C552.612 37.536 551.352 36.024 550.704 35.376L550.272 35.592C550.272 36.78 550.524 38.688 551.208 39.768C552.396 41.64 554.88 43.332 556.644 43.332C558.012 43.332 558.552 42.036 559.956 41.172C567.768 36.42 576.156 28.5 579.504 21.12L578.964 20.76C573.024 27.384 559.128 37.536 554.124 37.536ZM553.08 27.024C554.7 28.572 555.456 30.3 557.472 30.3C559.38 30.3 559.848 28.896 559.848 27.852C559.848 25.224 556.788 23.712 554.016 23.244C551.964 22.884 550.488 22.884 549.192 22.92L549.048 23.46C549.948 24.036 551.316 25.224 553.08 27.024ZM637.032 26.412C637.932 28.716 637.644 30.372 639.624 30.372C640.704 30.372 641.892 29.58 641.892 28.14C641.892 25.944 640.596 24.432 638.58 23.424C637.5 22.884 636.564 22.776 635.412 22.488L635.124 22.92C635.664 23.46 636.636 25.368 637.032 26.412ZM650.208 28.86C650.64 28.032 651.72 27.204 651.72 26.412C651.72 24.72 648.948 22.272 646.824 22.344C646.176 22.38 645.204 22.56 644.628 22.74V23.1C645.528 23.64 646.32 24.288 646.32 25.008C646.32 29.256 638.652 39.552 630.264 43.548L630.516 44.016C639.984 42.072 646.968 35.484 650.208 28.86ZM630.876 28.716C631.704 30.732 631.812 32.676 633.612 32.676C635.124 32.676 635.916 31.74 635.916 30.552C635.916 28.464 634.476 26.664 632.136 25.62C631.488 25.332 630.372 24.9 629.22 24.648L628.932 25.044C629.58 25.908 630.228 27.06 630.876 28.716ZM711.336 13.776C712.452 14.46 713.244 15.432 713.244 16.152C713.244 18.6 708.816 25.584 702.912 30.768L703.308 31.38C708.168 29.472 712.632 25.8 715.944 21.912C716.628 22.452 717.24 22.848 717.636 22.848C718.428 22.848 718.932 22.632 719.688 22.344C720.588 21.984 722.604 21.408 723.36 21.408C723.828 21.408 724.044 21.624 723.828 22.164C720.732 29.904 712.416 38.904 703.344 43.872L703.74 44.484C716.34 40.416 723.792 33.18 729.3 23.892C729.984 22.74 731.496 22.308 731.496 21.12C731.496 19.392 727.104 17.232 725.952 17.232C725.052 17.232 724.224 18.24 723.36 18.6C722.496 18.96 719.112 19.5 717.744 19.608C718.248 18.96 718.716 18.276 719.112 17.628C719.724 16.656 720.192 16.584 720.192 15.756C720.192 14.676 716.988 12.948 714.072 12.948C712.74 12.948 712.092 13.128 711.372 13.38L711.336 13.776Z" fill="black"/>
<path d="M33.1402 120.016H45.9402V106.192H33.1402V87.3761C38.2602 86.0961 42.9962 84.5601 47.3482 82.7681C48.6282 85.7121 49.9082 89.5521 50.1642 92.1121C72.0522 90.4481 97.3962 87.1201 115.828 81.6161L105.204 70.2241C90.9962 74.9601 67.3162 78.5441 46.3242 80.4641L46.7082 81.1041L37.3642 71.7601C28.6602 75.8561 14.1962 79.5681 1.01221 81.8721C2.67621 84.6881 4.46821 89.8081 5.10821 92.8801C9.46021 92.2401 14.0682 91.6001 18.6762 90.7041V106.192H2.16421V120.016H16.2442C12.5322 132.304 6.38821 146.256 0.116211 154.576C2.42021 158.416 5.74821 164.688 7.02821 169.04C11.2522 163.024 15.2202 154.448 18.6762 145.232V189.136H33.1402V138.704C35.9562 143.056 38.7722 147.536 40.3082 150.48L48.7562 138.832C46.4522 136.272 36.5962 126.288 33.1402 123.344V120.016ZM49.7802 188.88H63.7322V121.68H49.7802V188.88ZM47.9882 97.3601C51.7002 104.144 55.0282 113.232 55.9242 119.376L68.8522 115.024C67.7002 108.88 64.1162 100.048 60.0202 93.6481L47.9882 97.3601ZM90.6122 112.72C89.5882 106.576 86.7722 97.3601 83.4442 90.4481L70.9002 93.9041C73.9722 100.944 76.7882 110.416 77.3002 116.56L90.6122 112.72ZM84.5962 170.832V159.44H102.772V170.832H84.5962ZM102.772 136.4V147.024H84.5962V136.4H102.772ZM104.052 87.7601C101.492 97.8721 96.3722 111.44 92.2762 120.016L103.668 123.472H71.0282V189.392H84.5962V183.76H102.772V188.752H116.98V123.472H105.204C109.428 115.536 114.804 103.248 118.9 91.8561L104.052 87.7601Z" fill="black"/>
<path d="M187.892 96.2079H200.436V88.3999H229.236V96.7199H238.964V102.096H219.252V93.7759H205.044V102.096H187.892V96.2079ZM238.964 119.76H219.252V113.744H238.964V119.76ZM273.012 162.896V151.248H222.068V144.976H268.404V133.2H187.892V113.744H205.044V128.464H253.94V113.744H271.988V102.096H253.94V94.6719H244.468V88.3999H272.244V76.7519H244.468V69.7119H229.236V76.7519H200.436V69.7119H185.332V76.7519H157.812V88.3999H185.332V94.5439H172.788V102.096H157.94V113.744H172.788V144.976H207.22V151.248H157.172V162.896H195.828C184.436 168.784 168.436 173.52 154.1 175.952C157.172 179.024 161.268 184.528 163.444 188.24C178.676 184.656 195.06 177.872 207.22 169.424V189.136H222.068V168.4C233.844 178 249.716 185.168 265.972 188.624C268.148 184.528 272.244 178.512 275.7 175.44C260.724 173.392 245.492 168.912 234.612 162.896H273.012Z" fill="black"/>
<path d="M396.276 83.408H339.316V79.824H396.276V83.408ZM396.276 93.648H339.316V89.936H396.276V93.648ZM410.996 73.168H325.236V100.176H410.996V73.168ZM326.004 125.392H360.692V145.104H374.772V125.392H410.612V135.888H424.18V116.56H374.772V112.848H417.14V103.76H320.372V112.848H360.692V116.56H313.076V135.888H326.004V125.392ZM328.692 144.336H355.828V138.192H328.692V144.336ZM355.828 128.848H331.124V134.864H355.828V128.848ZM325.492 156.624H412.788V147.792H325.492V156.624ZM379.636 144.464H408.564V138.32H379.636V144.464ZM379.636 128.848V134.864H405.492V128.848H379.636ZM382.836 169.808L379.252 171.984C381.684 173.136 384.372 174.288 386.932 175.696C375.796 175.824 364.788 176.08 354.548 176.08C356.212 174.16 357.876 171.984 359.54 169.808H382.836ZM424.948 160.208H312.18V169.808H342.516C341.236 171.984 339.828 174.16 338.548 176.208C332.02 176.336 326.132 176.336 320.884 176.336L321.524 186.96C342.132 186.704 373.108 185.936 402.676 185.04C404.852 186.704 406.9 188.112 408.564 189.52L419.828 181.84C414.964 178.256 407.412 173.648 399.732 169.808H424.948V160.208Z" fill="black"/>
<path d="M541.556 109.648C544.244 105.04 547.316 98.2557 550.516 91.5997L539.252 87.6317C537.716 93.1357 534.772 101.072 532.212 106.064L541.556 109.648ZM494.324 91.3437C497.396 96.9757 500.084 104.4 500.852 109.136L510.836 105.296C509.94 100.432 506.996 93.3917 503.668 88.0157L494.324 91.3437ZM491.38 110.544V86.0957H514.42V110.544H491.38ZM552.052 110.544H529.652V86.0957H552.052V110.544ZM579.316 147.408H529.652V140.88H569.204V128.976H529.652V122.832H567.412V73.8077H476.916V122.832H514.42V128.976H474.996V140.88H514.42V147.408H465.012V160.72H579.316V147.408ZM478.58 189.776C484.34 183.632 489.588 174.416 492.404 165.84L477.428 162.128C474.484 170.064 469.364 178.64 463.988 183.376L478.58 189.776ZM499.956 166.992C501.108 173.904 501.62 182.864 501.62 188.496L516.596 186.576C516.596 181.2 515.572 172.368 514.164 165.584L499.956 166.992ZM525.556 167.376C528.116 174.16 530.676 182.992 531.444 188.496L546.804 185.04C545.78 179.664 542.836 170.96 540.02 164.56L525.556 167.376ZM550.644 166.736C556.276 173.776 562.932 183.504 565.62 189.648L580.852 184.272C577.652 178 570.612 168.656 564.98 162L550.644 166.736Z" fill="black"/>
<path d="M640.244 70.0957C634.484 88.1437 624.5 106.32 613.748 117.968C616.564 121.808 620.788 130.128 622.196 133.84C624.756 130.768 627.444 127.312 630.004 123.856V188.88H644.468V99.1517C648.436 90.9597 651.892 82.6397 654.708 74.4477L640.244 70.0957ZM698.996 154.064V120.656C703.348 132.688 708.724 144.208 714.74 154.064H698.996ZM668.532 154.064C674.548 144.592 679.924 133.328 684.148 121.552V154.064H668.532ZM734.324 106.832V92.3677H698.996V70.2237H684.148V92.3677H651.764V106.832H676.98C669.94 127.056 658.036 147.28 645.108 158.8C648.564 161.36 653.428 166.736 655.988 170.32C660.084 166.224 663.796 161.36 667.38 155.856V167.632H684.148V188.24H698.996V167.632H716.148V156.368C719.476 161.488 722.804 165.968 726.388 169.936C729.076 165.968 734.324 160.848 737.78 158.16C725.364 146.512 713.588 126.544 706.548 106.832H734.324Z" fill="black"/>
</svg>
